<svg xmlns="http://www.w3.org/2000/svg" xmlns:xlink="http://www.w3.org/1999/xlink" version="1.1" id="Capa_1" x="0px" y="0px" style="enable-background:new 0 0 1200 1200;" xml:space="preserve" viewBox="235.29 335.39 721.19 529.98">

<g id="XBlSoy_00000033346408651987261980000015008316019604377500_">
	<g>
		<g>
			<path class="st0" d="M956.2,780.6c0.1,3.6-1.1,6.7-3.3,8.9c-2.4,2.4-6,3.6-10.1,3.4c-7.7-0.3-12.3-5.3-12.4-13.2     c0-6.9,0-14,0-20.8c0-8.8,0-17.8-0.1-26.7c-0.4-29.7-13.1-58.3-34.7-78.5c-21.2-19.8-48.6-29.8-77.1-28.1     c-29.5,1.7-54.7,13.9-75.1,36.4c-3.9,4.3-4.9,7.1-0.9,12.6c22.8,31.1,34.4,67,34.4,106.6v12.8c0,18.2,0,36.9-0.1,55.4     c0,9.4-5.2,15.7-13,15.7h-0.1c-7.9,0-12.8-6-13-15.6c-0.2-9.5-0.2-19.2-0.2-28.6c0-19.8,0-40.2-1.6-60.1     c-5.6-67.7-67.2-128-137.3-134.6c-39.6-3.7-78.7,7.7-110.1,32c-31.1,24.1-51.5,58.4-57.4,96.5c-2.2,14.2-2.3,29-2.3,43.4     c0,5.7,0,11.5-0.2,17.3c-0.2,6.7-0.2,13.5-0.1,20c0,5.5,0,11.2-0.1,16.8c-0.1,7.8-5.1,12.7-12.9,12.8h-0.1     c-3.9,0-7.3-1.3-9.6-3.7c-2.1-2.1-3.2-5-3.2-8.2c0.1-7.8,0.2-15.8,0.2-23.5c0.2-26.1,0.4-53.2,2.6-79.6     c2.1-25.1,12.3-49.8,31.3-75.3c3.7-5,3.7-7.7-0.2-11.8c-32.2-34.5-70-45.3-112.2-32.1c-42.5,13.3-68,43.8-73.9,88.2     c-1.8,13.2-1.6,26.9-1.5,40.1c0.1,6.5,0.1,13.2,0,19.7c-0.1,5.3-2.2,10-5.5,12.4c-2.4,1.8-5.1,2.3-8,1.5     c-4.7-1.2-11.8-6.7-11.9-10.9c0-6.5-0.2-13-0.5-19.4c-0.7-23.1-1.5-47,5.8-70.2c14.2-44.9,50.1-78.2,95.9-89.1     c45.8-10.9,92.8,2.7,125.7,36.3c2.1,2.2,4.3,4.4,6.3,6.5l1.7,1.8c41.4-32.3,83.2-48.8,124.5-48.9c41.2-0.1,82.8,16,123.9,48     c3.4-2.7,6.8-5.6,10.1-8.3c8-6.7,16.2-13.6,25.2-19.2c36.4-22.7,81.9-26,121.6-9c39.6,17,67.3,50.8,75.8,92.5     c3.8,18.4,3.7,37.8,3.6,56.5C956,766.2,956,773.5,956.2,780.6z"/>
		</g>
		<g>
			<path class="st0" d="M597.7,335.7c-65.8-1.6-120.8,52-122.5,119.3c-0.8,31.4,11,61.5,33.2,84.8c22.9,23.9,53.7,37.4,86.7,38     c0.7,0,1.4,0,2.1,0c32.5,0,62.2-13.3,83.9-35c21.7-21.6,35.4-51.6,36.1-84.8C718.5,392.2,664.8,337.3,597.7,335.7z M690.6,457.6     c-0.1,25.1-10,48.7-27.9,66.3c-17.8,17.6-41.6,27.3-66.8,27.3h-0.2c-25.2-0.1-48.8-9.9-66.5-27.8c-17.7-17.9-27.4-41.7-27.4-67     c0-25.2,9.9-48.9,27.7-66.6c17.8-17.7,41.4-27.4,66.6-27.4h0.2c25.4,0,49.1,9.9,66.8,27.7C680.9,408,690.7,432,690.6,457.6z"/>
		</g>
		<g>
			<path class="st0" d="M884,433c-15.8-16.1-37-25.2-59.6-25.4c-0.3,0-0.6,0-1,0c-22.2,0-43.2,8.7-59.2,24.5     c-16.3,16-25.4,37.2-25.5,59.7c-0.2,22.9,8.5,44.4,24.4,60.6c15.9,16.2,37.3,25.2,60.2,25.5c0.4,0,0.8,0,1.1,0     c21.8,0,42.5-8.6,58.4-24.2c8.2-8.1,14.6-17.5,19-27.7c4.3-10.2,6.6-21.3,6.7-32.7C908.5,470.5,899.8,449.1,884,433z      M882.2,493.4c-0.1,15.4-6.2,30-17.3,40.9c-11.2,11-26,17-41.7,16.9c-15.6-0.1-30.3-6.4-41.3-17.5c-11.1-11.2-17.1-25.8-17-41.2     c0.1-15.6,6.4-30.2,17.5-41.2c11.3-11.1,26.3-17.2,42.3-17C856.5,434.5,882.4,461,882.2,493.4z"/>
		</g>
		<g>
			<path class="st0" d="M369,407.5c-22.2-0.3-43.3,8.3-59.4,24.2c-16.4,16.2-25.5,37.7-25.6,60.5c-0.1,23,8.8,44.7,25.1,60.9     c16,15.9,37.1,24.7,59.4,24.7h0.5c46.5-0.3,84.5-38,84.7-84.2C453.9,446,416.7,408.2,369,407.5z M368.5,434.2h0.1     c32.2,0.1,58.7,26.2,58.9,58.3c0.1,15.5-6,30.1-17,41.3c-11.3,11.3-26.2,17.5-42,17.5h-0.2c-32.1-0.1-58.2-26.5-58.1-58.7     c0-15.6,6.1-30.3,17.2-41.3C338.4,440.2,353,434.2,368.5,434.2z"/>
		</g>
		<g>
			<path class="st0" d="M501.7,849.6c-0.1,9.3-5.3,15.3-13.3,15.3h-0.2c-7.9-0.1-13.1-6.2-13.2-15.6c-0.1-24.2-0.1-46.1,0-67.2     c0-5,1.5-9.1,4.3-11.8c2.3-2.3,5.4-3.5,9-3.5h0.2c8,0.1,13,6,13.1,15.5c0.1,7.9,0.1,15.9,0.1,23.7c0,3.5,0,6.9,0,10.3     c0,3.3,0,6.6,0,9.9C501.8,834,501.8,841.8,501.7,849.6z"/>
		</g>
		<g>
			<path class="st0" d="M717.2,849.1c-0.1,9.6-4.9,15.5-12.8,15.8c-0.2,0-0.4,0-0.6,0c-3.4,0-6.4-1.1-8.7-3.3     c-2.9-2.8-4.5-7.2-4.5-12.6c-0.1-21.8-0.1-44.1,0-66.3c0-9.6,4.8-15.5,12.8-15.8c3.7-0.1,6.8,1,9.2,3.2c2.9,2.8,4.5,7.1,4.5,12.6     c0.1,7.9,0.1,16,0,23.8c0,2.9,0,5.8,0,8.8l0,1.5c0,3.2,0,6.5,0,9.7C717.2,833.9,717.3,841.6,717.2,849.1z"/>
		</g>
		<g>
			<path class="st0" d="M310,762.4c0,5.2,0,10.5,0,15.8c0.1,8.9-4.4,14.1-12.7,14.9c-0.4,0-0.8,0-1.1,0c-2.9,0-5.6-1-7.7-2.9     c-2.9-2.6-4.5-6.6-4.5-11.4c-0.1-10.3-0.1-20.8-0.1-31c0-4.9,0-9.8,0-14.8c0-8.4,4.5-13.3,12.6-13.8c3.5-0.2,6.6,0.8,9,2.9     c2.8,2.5,4.3,6.4,4.5,11.2c0.2,5.2,0.1,10.5,0.1,15.6c0,2.3,0,4.5,0,6.8C310,758,310,760.2,310,762.4z"/>
		</g>
		<g>
			<path class="st0" d="M908.4,757.8L908.4,757.8c0,1.8,0,3.7,0,5.6c0,5.3,0,10.8,0,16.2c-0.2,8.3-5,13.3-13,13.3h-0.3     c-7.7-0.1-12.6-5.1-12.7-13c-0.2-16.9-0.2-32.5,0-47.5c0.1-4.2,1.4-7.6,3.8-10c2.3-2.2,5.6-3.3,9.6-3.2     c8.1,0.2,12.7,5.3,12.7,13.8c0,5.4,0,10.8,0,16.2L908.4,757.8z"/>
		</g>
	</g>
</g>
</svg>