<?xml version="1.0" standalone="no"?>
<!DOCTYPE svg PUBLIC "-//W3C//DTD SVG 20010904//EN"
 "http://www.w3.org/TR/2001/REC-SVG-20010904/DTD/svg10.dtd">
<svg version="1.0" xmlns="http://www.w3.org/2000/svg"
 width="512.000000pt" height="512.000000pt" viewBox="0 0 512.000000 512.000000"
 preserveAspectRatio="xMidYMid meet">

<g transform="translate(0.000000,512.000000) scale(0.100000,-0.100000)"
class="st0" stroke="none">
<path d="M2400 5114 c-486 -42 -882 -177 -1260 -429 -509 -339 -885 -859
-1046 -1444 -78 -285 -118 -673 -78 -757 48 -101 210 -113 276 -21 19 27 23
50 30 176 23 429 142 806 362 1140 356 544 913 898 1566 997 156 24 463 24
615 1 256 -39 453 -101 680 -212 236 -115 459 -277 626 -453 l74 -77 -410 -5
c-410 -5 -410 -5 -443 -28 -98 -70 -87 -222 20 -278 22 -12 126 -14 590 -14
362 0 576 4 601 11 54 15 102 61 116 111 8 32 9 192 4 615 -8 555 -9 572 -29
599 -38 52 -71 69 -132 69 -70 0 -115 -28 -143 -89 -17 -37 -19 -71 -19 -365
l0 -325 -82 81 c-363 351 -868 596 -1392 674 -125 18 -426 32 -526 23z"/>
<path d="M4882 2704 c-64 -33 -75 -62 -84 -218 -10 -175 -22 -269 -54 -414
-170 -766 -737 -1391 -1483 -1636 -804 -263 -1681 -56 -2276 539 l-110 110
410 5 c410 5 410 5 443 28 91 65 87 206 -8 269 l-33 23 -566 0 c-364 0 -579
-4 -604 -11 -52 -14 -105 -63 -117 -108 -6 -24 -7 -238 -2 -613 7 -561 8 -577
28 -604 38 -52 71 -69 132 -69 70 0 115 28 143 89 17 37 19 71 19 365 l0 324
87 -84 c375 -360 881 -600 1423 -675 170 -24 501 -24 665 0 750 108 1384 505
1795 1124 240 361 379 757 420 1197 21 233 11 302 -53 347 -41 29 -129 35
-175 12z"/>
</g>
</svg>
