<svg xmlns="http://www.w3.org/2000/svg" xmlns:xlink="http://www.w3.org/1999/xlink" version="1.1" id="Capa_1" x="0px" y="0px" style="enable-background:new 0 0 1200 1200;" xml:space="preserve" viewBox="304.32 276.75 651.82 737.23">

<g>
	<g id="gCSVxS_00000058578988785123662940000005934895046128601738_">
		<g>
			<g>
				<path class="st0" d="M953,684.5L953,684.5c-8.5,61.4-32.4,116.3-71.1,163.2c-49.5,59.9-113.5,98.1-190.2,113.4      c-32.7,6.5-66.5,7.5-103.5,3.1c-32.7-3.8-64-12.1-93.2-24.6c0.4,0.9,0.9,1.8,1.3,2.7c6.9,13,14.1,26.5,21.4,40.1      c6.2,11.7,3.5,22.7-7,28.7c-3.1,1.7-6.2,2.6-9.4,2.6c-1.5,0-3.2-0.2-4.9-0.7c-5.5-1.6-10.2-5.7-13.3-11.6      c-4.6-8.7-9.2-17.3-13.8-26c-13.3-25.1-27.2-51.1-40.7-76.7c-3.3-6.4-3.6-13.3-0.7-18.9c2.9-5.8,8.7-9.8,15.9-11l106.8-17.7      c10.8-1.7,21.5,5.4,23.3,15.4c1,5.6-0.1,11.2-3.3,15.7c-3.2,4.5-8.2,7.4-13.9,8.3c-7.5,1.3-15.3,2.5-22.8,3.7      c-4,0.6-8,1.3-12,1.9l-19.7,3.2c6.3,2.8,12.8,5.8,19.2,8.2c40.1,15.3,81.9,21.7,124.2,19c92.2-6.1,166.3-47.8,220.5-123.8      c20.8-29.4,35.4-63.3,43.5-100.8c12.8-59.3,6.9-118.3-17.5-175.5c-8-18.6-18.5-36.8-32.3-55.6c-3.8-5.2-5.3-10.8-4.4-16.1      c0.8-5,3.5-9.4,8.2-12.8c9.2-6.5,20.6-4.3,27.7,5.4c31.8,42.8,52.1,91.2,60.4,143.9C956.8,622.5,957.2,653.9,953,684.5z"/>
			</g>
		</g>
		<g>
			<g>
				<path class="st0" d="M833.5,401.3c-2.9,5.6-8.7,9.6-15.5,10.6l-32.6,5c-22.1,3.3-45,6.8-68,10.4c-12.2,1.9-22.2-3.1-24.8-12.6      c-1.9-6.5-1.4-12.7,1.7-17.5c2.9-4.5,7.3-7.3,12.8-8.2c8.9-1.6,17.9-3,26.6-4.3c2-0.3,3.9-0.6,5.9-0.9l17.1-2.6      c-6-2.6-12.1-5.3-18.2-7.5c-39.6-14.2-81.1-20.2-123.5-17.9c-49.5,2.6-95.7,17.3-137.3,43.7C425,433.1,386.7,479.3,364,536.7      c-17,43-23.1,88.1-18.2,133.9c2.1,20.5,6.7,41.4,14.5,65.7c8,25.4,21.9,48.2,35.7,69c6.2,9.4,5.9,19.9-0.7,26.6      c-4,4.2-9,6.4-14.3,6.4c-0.5,0-1,0-1.6-0.1c-5.8-0.4-11.1-3.6-15-9c-12.9-18.1-24.1-38-33.2-59.1c-20.4-47.1-29.1-97-26-148.4      c3.3-54.3,19.4-105.1,47.9-151.1c24.3-39.2,55.8-72.1,93.5-97.9c42.1-28.8,88.8-46.8,138.9-53.6c61.2-8.1,121.8-0.5,180.1,22.7      c0.9,0.3,1.8,0.7,2.8,1.1l-18.3-36.2c-5.3-10.6-2.3-21.4,7.5-27.1c4.7-2.6,10.1-3.3,15-1.8c5.2,1.6,9.5,5.3,12.1,10.5      c15.1,29,31,60.1,48.7,95C836.3,389.2,836.3,395.9,833.5,401.3z"/>
			</g>
		</g>
	</g>
	<g>
		<g>
			<g>
				<path class="st0" d="M630.3,447.6c-46.3,0-83.9,37.7-83.9,83.9c0,46.3,37.7,83.9,83.9,83.9c46.3,0,84.1-37.7,84.1-83.9      C714.4,485.2,676.6,447.6,630.3,447.6z M630.3,583c-28.4,0-51.5-23.1-51.5-51.5c0-28.4,23.1-51.5,51.5-51.5      c28.5,0,51.6,23.1,51.6,51.5C681.9,559.9,658.8,583,630.3,583z"/>
			</g>
		</g>
		<g>
			<g>
				<path class="st0" d="M782.4,735.7c-16.5-42.8-50.5-76.8-93.3-93.4c-40.6-15.6-85-14.5-124.7,3.1c-39.8,17.5-70.4,49.6-86.1,90.3      c-4.5,11.6-3,24.6,4.2,34.7c7.1,10.7,19.1,17.1,32.1,17.1h231.7c12.7,0,24.7-6.3,32-16.8c4.4-6.4,6.7-14,6.7-21.6      C784.9,744.7,784.1,740.1,782.4,735.7z M630.3,663.3c54.4,0.2,102.2,33.1,121.9,83.8c0.6,1.6,0.3,3.4-0.8,5.1      c-1.1,1.6-3.1,2.6-5.5,2.8H514.7c-1.7,0-4.2-1.2-5.5-3.1c-1-1.5-1.3-3.3-0.7-4.8C528.2,696.5,576,663.6,630.3,663.3z"/>
			</g>
		</g>
	</g>
</g>
</svg>