<?xml version="1.0" encoding="utf-8"?>
<!-- Generator: Adobe Illustrator 25.4.1, SVG Export Plug-In . SVG Version: 6.00 Build 0)  -->
<svg version="1.1" id="Capa_1" xmlns="http://www.w3.org/2000/svg" xmlns:xlink="http://www.w3.org/1999/xlink" x="0px" y="0px"
	 viewBox="0 0 702.2 608.5" style="enable-background:new 0 0 702.2 608.5;" xml:space="preserve">
<style type="text/css">
	.st0{fill:#999999;}
</style>
<g id="qD3HnX.tif">
	<g>
		<path class="st0" d="M703,380.5c-1.3-0.7-2.7-1.7-4-2.6c-3.2-2.2-6.4-4.5-10-4.6c-26.5-0.5-53.4-0.4-79.5-0.3l-11.2,0
			c-9.3,0-14.3,5.1-14.5,14.7c-0.1,3.9,0,7.9,0,12c0,1.5,0,3,0,4.6c-4-1-7.9-1.9-11.8-2.9c-9.9-2.4-19.2-4.7-28.5-7.2
			c-23.6-6.4-43.6-9.5-64.8-3.6c-49.5,13.8-98.3,26.7-156.5,42l-0.2,0c-15.2,4-30.8,8.1-40.9,22.3c-1.3-0.7-2.5-1.4-3.7-2.1
			c-3.3-1.9-6.5-3.7-9.6-5.5c-10.7-6.2-21.4-12.3-32-18.5c-21.4-12.4-43.6-25.2-65.4-37.7c-20.5-11.8-42.5-9.9-58.7,4.8
			c-11.6,10.6-17.3,25.3-15.7,40.4c1.7,15.9,11.2,30,26.1,38.6c34.2,19.8,69,39.9,102.7,59.3c29.4,16.9,59.8,34.5,89.7,51.7
			c14.2,8.3,30.3,12.6,46.8,12.5c56.3-0.1,113.4-0.1,169.7,0c14.6,0.1,29.2-3.3,42.2-9.9c2.7-1.4,5.5-2.7,8.4-4
			c0.7-0.3,1.5-0.7,2.2-1c0.1,1.9,0.1,3.7,0,5.5c-0.1,7.7-0.3,15.6,8.1,20.9l0.4,0.2h111.6V380.9L703,380.5z M578.6,556.2
			c-5,2-10.1,4.1-15,6.2c-6.7,2.9-13.7,5.8-20.6,8.4c-3.1,1.2-6.9,1.1-10.6,1.1c-0.6,0-1.3,0-1.9,0c-56.5,0-113.8,0-170.4,0.1
			c-11,0.1-21.8-2.8-31.3-8.3c-64.2-37-129.4-74.6-193.6-111.6c-10.2-5.8-14.4-14.1-12.4-24.4c1.8-9.7,9.1-16.5,18.6-17.1
			c0.5,0,0.9,0,1.4,0c4.8,0,9.5,1.2,13.7,3.5c37.3,21.2,74.9,42.9,111.9,64.5c2,1.5,3.3,3.7,3.6,6.1c0.8,15.5,8,29.3,19.7,38
			c11.5,8.5,25.9,11.1,40.5,7.4c35.6-9.1,71.6-18.8,106.5-28.2c10.6-2.9,21.2-5.7,31.8-8.6c9-2.4,13.2-8.9,11.1-16.8
			c-0.9-3.4-2.8-6-5.6-7.6c-3.3-1.9-7.7-2.3-12.7-1l-134.7,36c-14,3.7-26.2-2.3-29.5-14.7c-1.5-5.6-0.9-11.1,1.8-15.8
			c3.2-5.5,9-9.6,16.4-11.6c14.1-3.8,28.3-7.6,42.4-11.4c42-11.4,85.4-23.1,128.2-34c9-2.3,20-2.4,31-0.2c15.6,3,31.4,7.1,46.6,11.1
			c6,1.5,12.1,3.2,18.3,4.7l0.1,59.8c0,5.2,0,10.4,0,15.5c0,13.4-0.1,27.2,0.2,40.8C584,552.4,582.6,554.5,578.6,556.2z M677,583.1
			h-66.6V399.8H677V583.1z"/>
	</g>
	<g>
		<path class="st0" d="M580.7,133.9c-64.3-37.1-128.7-74.3-193-111.5C373.5,14.2,357.4,10,341,10.2c-8.2,0-16.5,0.1-24.7,0.1
			c-41.5,0.2-84.5,0.3-126.7-0.2c-23.4-0.3-48.1,1.3-70.3,15c-0.2,0.1-0.5,0.2-0.7,0.2l0-1.6c0-3.4,0-6.6-0.1-9.8
			c-0.2-10.5-5-15.4-15.3-15.4c-29.6-0.1-59.6-0.1-89.2,0C3.4-1.5-1.5,3.4-1.5,13.8c0,68.4,0,137.8,0,206.2c0,10.4,5,15.5,15.3,15.5
			c29.6,0.1,59.6,0.1,89.2,0c10.4,0,15.3-4.9,15.5-15.3c0-4.7,0-9.4,0-13.9c0-1.8,0-3.7,0-5.5c11.1-1.5,18.5,0.9,25.4,8
			c9.3,9.6,22.2,14.7,38.2,15c3,0.1,6.1,0,9.1,0c3.7,0,7.6-0.1,11.4,0.1c1.6,0.1,3.2,0.1,4.8,0.1c31.8,0,56.8-13.3,74.3-39.7
			c4.7-7.1,9.8-8.1,16.6-7c-35.2,60.7-17,123.1,16.9,158.3c25.5,26.5,59.5,40.5,94.2,40.5c17.3,0,34.7-3.5,51.4-10.6
			c24.2-10.1,44.4-27.3,58.3-49.5c18.4-29,24.6-60.7,18.4-94c2.2,0.3,4.5,0.7,6.7,1c6.4,1.1,13,2.2,19.5,1.6
			c20.6-1.9,37.8-17.5,41.8-37.8C609.8,165.1,600.5,145.3,580.7,133.9z M25.4,208.9V25.3h66.2v183.5H25.4z M513.5,246
			c0,28.3-11.1,54.6-31.3,74.1c-20.6,19.9-48.1,30.4-77.3,29.4c-27.6-0.9-53.3-13-72.2-34.1c-18.9-21-28.6-49.1-26.5-76.9
			c1.5-20.4,8.8-39.3,21.6-56.3c2.9-3.8,5.7-5.3,9.7-5.3c0.4,0,0.8,0,1.2,0.1c15.4,1,28.2-3.9,38-14.7c3-3.3,6-6.9,7-11
			c1.5-6.2,5.4-7.2,11.6-8c5-0.7,10.1-1.1,15.1-1.1c27.6,0.1,53.6,10.9,73.1,30.5c19.4,19.5,30.1,45.4,30.1,72.9V246z M577,187.4
			c-6.2,10.9-19.6,13.9-31.7,7.2c-0.5-0.3-1-0.6-1.5-0.9c-0.8-0.5-1.6-0.9-2.4-1.3c-10.6-5.4-19.2-12.9-28-24.4
			c-26.5-34.7-60.8-52.2-102.4-52.2c-7.9,0-16.2,0.6-24.6,1.9c-0.3,0-0.5,0.1-0.8,0.1c-0.3,0.1-0.7,0.1-1.1,0.2
			c-0.1,0-0.2,0-0.3-0.1c-6.1-13.6-16.4-22-30.6-24.9c-2.7-0.6-5.5-0.9-8.3-0.9c-18.8,0-37.6,0-56.3,0c-17.6,0-35.1,0-52.7,0
			c-4.7,0-11.2,0.8-14.4,8.3c-1.8,4.1-1.5,8.4,0.8,11.8c2.7,4,7.5,6.3,13.3,6.3c18.5,0,37.4,0,55.6,0c11.9,0,23.7,0,35.6,0
			c5.1,0,10.4,0,15.6,0c10.8,0.1,18.2,6.4,18.4,15.5c0.1,4.3-1.7,8.3-4.9,11.4c-3.3,3.2-7.9,5-12.9,5c-18,0.3-37.3,0.5-56.2-0.1
			c-9.9-0.3-16.4,3-20.9,10.6c-1,1.8-2.3,3.4-3.7,5.1c-0.9,1.2-1.9,2.4-2.8,3.7c-13.5,19.6-31.6,28.7-55.4,27.7
			c-5.2-0.3-10.4-0.3-15.5,0c-13,0.8-23.6-3.3-32.3-12.5c-7.9-8.4-18.6-11.8-33.4-10.9c-1.2,0.1-2.3,0-3.7,0c-0.3,0-0.7,0-1,0v-11.5
			c0-8.3,0-16.6,0-25c0-25.4,0-51.6-0.1-77.4c0-4.3,1.1-6.1,4.5-7.5c4.9-1.9,9.8-4,14.5-6c7.3-3.1,14.9-6.3,22.5-9
			c3.2-1.1,7-1.1,10.7-1c0.9,0,1.7,0,2.5,0c21.4,0,42.8,0,64.2,0c33.9,0,68.9,0,103.3-0.1c12-0.1,23.7,3,34.1,9
			c63.5,36.6,128.2,73.9,192.4,111C579.1,163.5,583.3,176.5,577,187.4z"/>
	</g>
	<g>
		<path class="st0" d="M656.9,554.6c0,0.4,0,0.9,0,1.3v2.2c-0.1,10.7-4.9,16.8-13.2,16.8c-8.3,0-13.1-6.1-13.2-16.8
			c0-0.8,0-1.6,0-2.4c0-1.6,0-3.3,0-5c0.4-8.3,5.7-13.8,13.2-13.8c7.5,0,12.8,5.5,13.2,13.8C657,552,656.9,553.3,656.9,554.6z"/>
	</g>
	<g>
		<path class="st0" d="M458,269.5c-0.1,10.3-5.9,20-15.8,26.6c-4,2.7-8.5,4.6-13.2,6.6c-2,0.8-4,1.7-6.1,2.7c0,0.6,0,1.3,0,2
			c0,2.5,0.1,5.3,0,8.2c-0.4,8-5.8,13.6-13.1,13.6h-0.3c-7.1-0.2-12.4-5.6-12.9-13.3c-0.1-2.6-0.1-5.3,0-7.9c0-1,0-1.9,0-2.9
			c-1.5-0.6-3.1-1.2-4.6-1.9c-4.2-1.6-8.2-3.2-12-5.3c-10.1-5.5-16.2-13.6-18.2-24.1c-1.6-8.8,2.6-16,10.4-17.5
			c7.3-1.4,13.3,3.1,15.5,11.9l0,0.3c0,0.5,0.1,1.1,0.3,1.6c4.5,7.6,12.3,8.9,20.1,9.2c8.2,0.3,17.2-0.5,22.6-8.7
			c0.4-1-1.1-5-2.1-5.5c-6-2.5-12.4-4.6-18.8-6c-3.1-0.8-6.4-1.3-9.5-1.9c-5.4-0.9-11-1.9-16.1-3.9c-15.1-6.1-22.9-17-22.7-31.4
			c0.2-13.4,7.6-23.4,22.8-30.6c2.7-1.3,5.6-2.3,8.6-3.3c1.1-0.4,2.2-0.7,3.3-1.1c0.2-1.9,0.2-4,0.2-6.2
			c-0.1-7.8-0.2-17.6,12.7-17.8c4.7-0.1,8,1,10.3,3.2c3.5,3.6,3.4,9.2,3.3,14.2c-0.1,2-0.1,3.8,0.1,5.4c2.3,1.2,4.6,2.3,6.8,3.4
			c5.4,2.7,10.5,5.2,15.2,8.4c7.9,5.4,12.4,13.4,13,23.4c0.4,7.5-4.4,13.7-11.5,14.6c-6.9,1-13.4-3.8-14.4-10.7
			c-0.8-4.8-3.3-7.7-8.5-9.8c-11.1-4.4-21.5-3.8-31,1.8c-3,1.8-4.7,4-4.7,6c0.1,1.9,1.7,3.7,4.7,5.1c5.8,2.6,11.9,4.2,18.3,4.6
			c10,0.8,21.5,2.6,31.8,9.8C452.5,249.1,458.1,259.1,458,269.5z"/>
	</g>
	<g>
		<path class="st0" d="M71.7,186.6c-0.4,8.2-5.7,13.8-13.2,13.8h-0.1c-7.4,0-12.7-5.6-13.1-13.9c-0.1-1.2-0.1-2.4-0.1-3.6
			c0-0.5,0-1,0-1.5v-2.9c0.1-10.1,5-16,13.3-16c8.1,0.1,13,6.1,13.1,16.1c0,0.9,0,1.8,0,2.7C71.8,183,71.8,184.8,71.7,186.6z"/>
	</g>
</g>
</svg>
