<svg xmlns="http://www.w3.org/2000/svg" xmlns:xlink="http://www.w3.org/1999/xlink" version="1.1" id="Capa_1" x="0px" y="0px" style="enable-background:new 0 0 1200 1200;" xml:space="preserve" viewBox="224.32 238.45 774.47 772.22">

<g id="KfPv5z.tif">
	<g>
		<g>
			<path class="st0" d="M572.6,949.7c-0.7-52-0.6-104.8-0.5-156c0.1-24.4,0.1-49.6,0.1-74.4c0-37.8-18.4-56.1-56.1-56.2     c-82.9-0.1-160.1-0.1-235.9,0c-18.6,0-32.1,4.5-41.4,13.8c-9.3,9.2-13.8,22.7-13.8,41.1c0,24.4,0,49.2,0.1,73.2     c0.1,52.1,0.2,106-0.5,159c-0.4,30.6,10.8,49.7,35.5,59.9l0.6,0.3h276.2l0.7-0.3C561.9,999.2,573,980,572.6,949.7z M539.1,955.8     c0,17.4-4.3,21.6-21.7,21.6c-80.5,0.1-160.5,0.1-237.8,0c-17.3,0-21.6-4.3-21.6-21.6c-0.1-28.5-0.1-57.5-0.1-85.6     c0-11.7,0-23.4,0-35.2c0-11.4,0-22.8,0-34.2c0-27.2-0.1-55.2,0.1-82.9c0.1-17.4,4.3-21.7,21.6-21.7c39.5-0.1,79.2-0.1,118.9-0.1     c39.8,0,79.5,0,118.9,0.1c17.4,0,21.7,4.3,21.7,21.7C539.3,796.2,539.3,876.2,539.1,955.8z"/>
		</g>
		<g>
			<path class="st0" d="M998.5,949.7c-0.7-52-0.6-104.8-0.5-155.9c0-24.4,0.1-49.6,0.1-74.5c-0.1-37.8-18.4-56.1-56.1-56.2     c-82.9-0.1-160.1-0.1-235.9,0c-18.6,0-32.1,4.5-41.4,13.8c-9.3,9.2-13.8,22.7-13.8,41.1c0,24.4,0,49.2,0.1,73.1     c0.1,52.1,0.2,106.1-0.5,159.1c-0.4,30.6,10.9,49.7,35.5,59.9l0.6,0.3h276.2l0.7-0.3C987.8,999.2,999,980,998.5,949.7z      M683.8,800.8c0-27.2-0.1-55.2,0.1-82.9c0.1-17.4,4.3-21.7,21.6-21.7c39.5-0.1,79.2-0.1,118.9-0.1c39.8,0,79.5,0,118.9,0.1     c17.4,0,21.7,4.3,21.7,21.7c0.2,78.3,0.2,158.3,0,237.8c0,17.4-4.3,21.6-21.7,21.6c-80.5,0.1-160.5,0.1-237.8,0     c-17.3,0-21.6-4.3-21.7-21.6c-0.1-28.5-0.1-57.5-0.1-85.6c0-11.7,0-23.4,0-35.1C683.8,823.6,683.8,812.2,683.8,800.8z"/>
		</g>
		<g>
			<g>
				<path class="st0" d="M995.8,408.3c0.1,5.2-1.2,9.3-4.1,12.1c-4.3,4.4-11.1,4.9-17.5,4.9c-0.9,0-1.8,0-2.6,0c-0.8,0-1.7,0-2.5,0      H839.3V503c0,5.2,0,10.5,0,15.7c0,12.9,0,26.1,0,39.2c0,1.2,0,2.4,0,3.6c0.2,9.3,0.5,23.4-16,23.8c-0.2,0-0.4,0-0.6,0      c-4.9,0-8.8-1.4-11.5-4c-5-5-4.9-13-4.9-20.1c0-0.8,0-1.7,0-2.5V425.2h-130c-0.9,0-1.8,0-2.7,0c-6.9,0.1-14.7,0.1-19.6-4.8      c-2.8-2.9-4.2-7-4.1-12.3c0.3-16.1,14.2-16,23.4-15.9c0.8,0,1.6,0,2.3,0h130.8V266c0-0.9,0-1.8,0-2.7      c-0.1-6.9-0.1-14.7,4.8-19.6c2.9-2.8,7-4.2,12.3-4.1c16.1,0.3,16,14.2,15.9,23.3c0,0.8,0,1.5,0,2.3v127.1h74.1      c5.3,0,10.5,0,15.8,0c12.8,0,26.1,0,39.2,0c1.2,0,2.4,0,3.6,0C981.3,392.1,995.4,391.8,995.8,408.3z"/>
			</g>
		</g>
		<g>
			<path class="st0" d="M572.2,293.2c-0.1-35.5-18.8-54.3-54.1-54.4c-82.4-0.1-163.1-0.1-239.8,0c-17.2,0-30.5,4.6-39.6,13.6     c-9.1,9-13.7,22.2-13.8,39.3c-0.1,27.7-0.1,55.8-0.1,83c0,12,0,24,0,36v35.6c0,27.3,0,55.6,0,83.4c0.1,38.4,17.7,56.3,55.6,56.4     c40.1,0,79.8,0.1,118.9,0.1c39.9,0,79.1,0,117.3-0.1c36.7,0,55.4-18.5,55.5-55C572.4,451.3,572.4,371.2,572.2,293.2z M539.1,531     c0,18-4.2,21.9-23.3,22c-28,0.1-56.5,0.1-84,0.1c-11.6,0-23.3,0-34.9,0c-11.3,0-22.6,0-33.9,0c-26.6,0-54.2,0-81.3-0.1     c-20-0.1-23.7-3.8-23.7-23.3c-0.1-86.5-0.1-163.7,0-236c0-17.6,4.2-21.9,21.3-21.9c75.8-0.2,153.6-0.2,237.8,0     c17.6,0,22,4.2,22,21.4C539.3,369.9,539.3,449.9,539.1,531z"/>
		</g>
	</g>
</g>
</svg>