<svg xmlns="http://www.w3.org/2000/svg" xmlns:xlink="http://www.w3.org/1999/xlink" version="1.1" id="Capa_1" x="0px" y="0px" style="enable-background:new 0 0 1200 1200;" xml:space="preserve" viewBox="262.15 184.53 609.57 827.05">
<style type="text/css">
	.st0{fill:#999999;}
</style>
<g id="HqM5vc_00000003790213721849393400000012506848506428636565_">
	<g>
		<g>
			<path class="st0" d="M376.2,471.9c0.1,0,0.2,0,0.2,0v0C376.3,471.9,376.2,471.9,376.2,471.9z"/>
			<path class="st0" d="M871.3,296.3c0-63.3-47.8-111.1-111-111.2c-15.1,0-30.3-0.1-45.4-0.1c-82.8-0.2-168.5-0.4-252.7,0.2     c-32.2,0.2-59.7,11.3-79.6,32.1c-18.5,19.3-29.4,46.2-30.5,75.9c-1.7,42.5-1.2,85.6-0.8,127.4c0.2,16.6,0.4,33.6,0.4,50.5     c-5,0.1-10.1,0.1-15.1,0.2c-15.4,0.2-31.3,0.4-47,0.7c-19.2,0.3-27.1,8.3-27.1,27.4c-0.1,77.1-0.1,141.1,0,201.5     c0,19.2,7.9,27.2,27.1,27.4c15.7,0.2,31.7,0.3,47.1,0.4c5,0,10,0.1,15,0.1c0,16.3-0.1,32.7-0.1,49.1     c-0.1,39.9-0.2,81.2-0.1,121.8c0,30.4,11.4,58.5,32,79.2c20.6,20.7,48.7,32.1,79,32.2c51.8,0.1,101.9,0.2,150.8,0.2     c50,0,98.9,0,147.3-0.2c62-0.1,110.6-48.6,110.7-110.3C871.5,700.6,871.5,497.2,871.3,296.3z M386.3,877c-0.4-3.9,0.3-5,0.6-5.3     c0.5-0.5,2-1.1,6.8-1.1h0.2c55.8,0.2,112.5,0.2,167.4,0.2c34.2,0,68.4,0,102.6,0c53.8,0,109.4,0.1,164.1-0.2c1.6,0,6.4,0,7.6,1.2     c0.5,0.5,1.3,2.1,1.2,7l-0.1,3.8c-0.3,22.7-0.6,44.2-14.9,62.6c-15.7,20.4-35.8,30.7-59.5,30.8c-112.1,0.4-210.9,0.4-302.2,0     c-18.5-0.1-36.2-7-49.6-19.4c-13.4-12.4-21.7-29.5-23.5-48.1c-0.5-5.1-0.5-10.2-0.5-15.5C386.8,887.7,386.8,882.4,386.3,877z      M836.8,829.9c0,4.3-0.7,5.2-0.9,5.4c-0.2,0.3-1.3,0.8-5.6,0.8h-0.1c-160.8-0.3-304-0.2-438,0.1h-0.1c-4.2,0-5.1-0.7-5.3-0.9     c-0.3-0.3-0.8-1.5-0.8-5.8c0.2-25.8,0.1-52,0-77.4c0-8-0.1-16-0.1-24.1c31.1-4.4,53.2,4.4,69.7,27.8c5.5,7.8,12.6,14.4,19.5,20.8     c2.9,2.7,5.9,5.5,8.7,8.2c5.2,5.2,10.9,7.8,16.9,7.8c3.2,0,6.6-0.8,9.9-2.3c6.1-2.8,13.4-9,13.3-22.3c0-4,0-8.2,0-12.1     c0.1-7.3,0.1-14.8-0.2-22.3c-0.2-3.4,0.5-4.4,0.7-4.6c0.2-0.2,1.1-0.8,4.4-0.8c12.6,0.3,25.5,0.2,37.9,0.1l3.4,0     c18.3-0.1,26.6-8.3,26.6-26.5c0.1-61.6,0.1-128,0-203c0-18.9-8-26.6-27.7-26.7C533.9,472,498,472,463.4,472     c-22.8,0-45.6,0-68.4-0.1c-2.8,0-5.6-0.3-8.6-0.5c0-8.2,0-16.5,0-24.7c0-26,0-52.8-0.3-79.2c-0.1-4.4,0.5-5.9,1-6.4     c0.3-0.3,1.5-1.1,6-1.1c140.5,0.3,287.4,0.3,436.6,0c4.5,0,5.7,0.7,6,1c0.4,0.4,1,1.7,1,6.3C836.5,522,836.5,677.7,836.8,829.9z      M407.8,242.5c15.1-14.8,32.5-22.4,51.7-22.4c50.2-0.2,105.6-0.3,163.7-0.3c45.3,0,92.2,0.1,139.5,0.3     c40.5,0.2,72.9,32.7,73.8,74c0.3,15.8,0.6,25.3-2.4,28.3c-3,3-12.4,3-28,3H611.2c-17.2,0-34.5,0-51.7,0     c-54.1,0-110.1-0.1-165.1,0.3c-3.9,0-6.3-0.4-7.1-1.2c-0.6-0.6-1.2-2.1-1.2-6.5C386,292.5,386,263.8,407.8,242.5z M376.4,471.9     L376.4,471.9c-0.1,0-0.2,0-0.2,0C376.2,471.9,376.3,471.9,376.4,471.9z M357,693.4c-17.1,0-34.8-0.1-52.3,0.1     c-3.8,0.1-6-0.2-6.7-0.9c-0.2-0.2-1-1.4-1-5.8c0.5-57.4,0.3-115.7,0.1-172.1v-0.9c0-1.9,0-5.7,0.8-6.5c0.1-0.1,1-0.9,5-0.9     c88.1,0.6,169.3,0.7,248.4,0.3c5.2,0,8.1,0.5,9.2,1.7c1.1,1.2,1.7,4.1,1.6,8.8c-0.8,59.3-0.5,118.7-0.1,168.9c0,5-0.6,6.3-1,6.7     c-0.2,0.2-1.2,0.9-5.5,0.7c-11.1-0.7-22.4-0.4-33.4-0.2c-2.3,0-4.5,0.1-6.8,0.2c-18.9,0.4-25.5,7-26.3,26.3     c-0.2,6.6-0.2,13.3-0.1,19.8c0,1,0,1.9,0,2.9c-2.2-2.3-4.5-4.7-6.7-6.9c-8.7-9-17.6-18.2-25.9-27.7c-9-10.2-19.5-14.8-33.9-14.8     c-0.4,0-0.8,0-1.3,0C399.9,693.5,378,693.5,357,693.4z"/>
		</g>
		<g>
			<path class="st0" d="M376.2,471.9c0.1,0,0.2,0,0.2,0v0C376.3,471.9,376.2,471.9,376.2,471.9z"/>
		</g>
		<g>
			<path class="st0" d="M660.2,272.6c0.1,10.6-6.8,17.3-18,17.5c-8.5,0.1-17.2,0.2-26.8,0.2c-10.4,0-21.8-0.1-34.7-0.2     c-11.3-0.1-18.3-6.8-18.3-17.3c0-10.4,7-17.1,18.2-17.4c7.5-0.2,15.1-0.2,22.5-0.1c3,0,6,0,9,0h1.7c2.6,0,5.1,0,7.7,0     c6.8,0,13.8-0.1,20.7,0.1C653.5,255.6,660.1,261.9,660.2,272.6z"/>
		</g>
		<g>
			<path class="st0" d="M449.9,598c-0.3,6.5-3.4,17.3-20.6,17.3h-0.4c-12.4-0.1-19.8-6.6-19.8-17.2c0-5,1.6-9,4.6-12     c3.8-3.8,9.7-5.5,17.8-5.4l0.4,0C444.3,581.9,450.4,587.7,449.9,598z"/>
		</g>
		<g>
			<path class="st0" d="M392.2,598.7c-0.4,10.9-7,16.5-19.7,16.6c-0.4,0-0.7,0-1.1,0c-6.6,0-11.6-1.7-15-5.1     c-3.1-3.1-4.6-7.4-4.4-12.7c0.3-7.9,4.2-17.2,21.4-16.8c6.4,0.1,11.3,1.9,14.6,5.4C391,589.2,392.4,593.4,392.2,598.7z"/>
		</g>
		<g>
			<path class="st0" d="M506.7,598.7c-0.3,7.7-3.9,16.9-19.6,16.9h-0.3c-12.5-0.1-19.7-6.4-19.9-17.3c-0.2-11.4,6.8-17.4,20.8-17.6     h0.3c6.5,0,11.3,1.6,14.5,5C505.4,588.7,506.9,593.1,506.7,598.7z"/>
		</g>
	</g>
</g>
</svg>