<svg xmlns="http://www.w3.org/2000/svg" xmlns:xlink="http://www.w3.org/1999/xlink" width="960" zoomAndPan="magnify" viewBox="0 0 720 719.999996" height="960" preserveAspectRatio="xMidYMid meet" version="1.0">
<path class="st0" d="M 80.035156 62.394531 L 80.035156 308.277344 L 80.035156 305.941406 L 80.035156 634.097656 L 80.035156 62.394531 L 80.035156 219.769531 Z M 161.976562 399.417969 L 319.515625 399.417969 C 325.988281 389.289062 333.160156 379.828125 341.023438 371.035156 C 348.886719 362.242188 357.675781 354.039062 367.394531 346.425781 L 161.976562 346.425781 Z M 161.976562 543.253906 L 293.15625 543.253906 C 291.652344 534.386719 290.5625 525.523438 289.894531 516.65625 C 289.226562 507.789062 289.308594 498.992188 290.140625 490.261719 L 161.976562 490.261719 Z M 80.035156 691.742188 C 64.464844 691.742188 50.96875 686.027344 39.535156 674.597656 C 28.105469 663.164062 22.390625 649.664062 22.390625 634.097656 L 22.390625 62.394531 C 22.390625 46.773438 28.105469 33.226562 39.535156 21.753906 C 50.96875 10.285156 64.464844 4.546875 80.035156 4.546875 L 385.878906 4.546875 L 574.207031 192.878906 L 574.207031 325.808594 C 565.097656 321.320312 555.703125 317.632812 546.03125 314.742188 C 536.355469 311.855469 526.464844 309.703125 516.359375 308.277344 L 516.359375 219.769531 L 356.449219 219.769531 L 356.449219 62.394531 L 80.035156 62.394531 L 80.035156 634.097656 L 341.496094 634.097656 C 352.640625 647.425781 365.390625 658.910156 379.742188 668.542969 C 394.089844 678.179688 409.925781 685.914062 427.246094 691.742188 Z M 487.65625 593.613281 C 513.167969 593.613281 534.472656 585.074219 551.566406 567.996094 C 568.660156 550.917969 577.207031 529.621094 577.207031 504.105469 C 577.207031 478.59375 568.679688 457.253906 551.625 440.09375 C 534.570312 422.933594 513.304688 414.351562 487.828125 414.351562 C 462.292969 414.351562 440.960938 422.90625 423.835938 440.011719 C 406.710938 457.121094 398.148438 478.449219 398.148438 504.003906 C 398.148438 529.558594 406.6875 550.878906 423.765625 567.972656 C 440.84375 585.066406 462.140625 593.613281 487.65625 593.613281 Z M 660.378906 717.179688 L 569.105469 626.042969 C 557.214844 633.667969 544.449219 639.777344 530.804688 644.371094 C 517.164062 648.964844 502.820312 651.257812 487.777344 651.257812 C 446.8125 651.257812 411.992188 636.9375 383.316406 608.296875 C 354.636719 579.652344 340.300781 544.875 340.300781 503.957031 C 340.300781 463.039062 354.648438 428.265625 383.34375 399.644531 C 412.039062 371.019531 446.882812 356.707031 487.878906 356.707031 C 528.816406 356.707031 563.578125 371.027344 592.167969 399.664062 C 620.757812 428.300781 635.054688 463.074219 635.054688 503.984375 C 635.054688 519.0625 632.722656 533.441406 628.0625 547.117188 C 623.40625 560.796875 617.261719 573.527344 609.632812 585.308594 L 700.773438 676.585938 Z M 660.378906 717.179688 " fill-opacity="1" fill-rule="nonzero"/></svg>