<svg xmlns="http://www.w3.org/2000/svg" xmlns:xlink="http://www.w3.org/1999/xlink" version="1.1" id="Capa_1" x="0px" y="0px" style="enable-background:new 0 0 1200 1200;" xml:space="preserve" viewBox="230.79 387.13 696.96 450.72">

<path class="st0" d="M477.6,713.8c-3.9,0-6.8,0-9.8,0c-34.1,0-68.3,0-102.4,0c-5.9,0-12.2-0.7-13.3-7.2c-0.7-4.3,1.1-9.9,3.6-13.7  c25.1-36.7,50.6-73.2,76.1-109.7c20.5-29.5,40.9-59.1,61.6-88.3c4.5-6.3,7-12.5,6.3-20.3c-0.5-6.2-0.1-12.5-0.1-19.7  c-7.1,0-13.3,0.1-19.6,0c-9.5-0.1-14.2-3.8-14.3-11c-0.1-7.3,4.5-11,13.9-11.1c23.8,0,47.6,0,71.3,0c9,0,13.4,3.5,13.6,10.6  c0.2,7.4-4.4,11.3-13.8,11.4c-9.3,0.1-18.6,0-28.5,0c0,7.8,0,15,0,22.7c68.8,0,137.4,0,207.2,0c-3.1-13.6-6-26.6-9-39.6  c-5.1-21.6-12.3-27.4-34.6-28.3c-7.4-0.3-11.9-4.5-11.9-10.9c0.1-6.3,4.5-10.4,12-11.1c25.8-2.2,48.5,14.3,54.4,39.7  c10.6,45.2,21.2,90.4,31.5,135.7c1.3,5.6,3.5,6.6,8.7,6.1c81.5-8,150.9,58.3,146.8,140.2c-3.7,72.8-63.5,129.1-136.3,128.2  c-57.1-0.7-108.9-39.2-126.1-93.7c-17.6-55.7,2.6-116.6,49.7-150.2c2.5-1.8,5-3.6,7.7-4.8c5.3-2.5,10.1-1.1,13.3,3.7  c3.1,4.7,2.8,9.6-1.2,13.8c-1.6,1.6-3.5,2.8-5.4,4.1c-38.7,27.5-56.1,73.3-45.1,119.4c10.6,44.3,47.6,77.6,93.9,84.4  c61.8,9.1,120.1-36,126.9-98.2c7.6-70.2-47.2-128.7-117.9-125.6c-2.4,0.1-4.9,0.5-8.3,0.9c3.7,16.3,7.2,31.7,10.8,47.1  c4.6,19.7,9.2,39.3,13.8,59c1.9,8.4-0.8,14.3-7.3,15.8c-7.2,1.7-12.1-2-14.2-10.9c-14.2-61-28.4-122-42.6-182.9  c-0.6-2.7-1.3-5.4-2.3-9.3c-2,2.2-3.5,3.7-4.8,5.4c-48.2,64.1-96.4,128.1-144.4,192.3c-3.8,5-8.2,6.4-14.3,6.3  c-22.8-0.4-45.5-0.2-68.3-0.4c-4.1,0-5.6,1.6-6.2,5.7c-8.8,60.8-50.1,104.3-110,115.9c-70.1,13.6-141.8-35.2-155.1-105.6  c-14.5-76.4,34.5-147,111.1-159.9c16.9-2.8,33.8-2,50.5,1.8c9.2,2.1,13.3,6.9,11.9,13.6c-1.5,7.1-7.4,10-16.9,7.8  c-24.5-5.5-48.2-3-71.1,7.3c-45.3,20.3-71.4,67.5-65.4,114.5c6.8,53.4,45.1,92.2,95.7,99.2c59.8,8.3,115.1-30.8,126.6-89.8  C477,721.3,477.2,718.1,477.6,713.8z M716,500.8c-64.1,0-126.7,0-190.1,0c18.7,59.7,37,118.3,55.9,178.4  C627,619.1,671.1,560.4,716,500.8z M562.6,691.7c-18.6-59.5-36.9-117.9-55.7-177.9c-19.9,28.6-38.7,55.7-57.8,83.2  c2.7,2.4,4.9,4.3,7.1,6.3c17.2,15.6,29.6,34.4,37,56.4c2.3,6.9-0.1,12.9-5.9,15.1c-5.9,2.3-11.7-0.5-14.6-7.2  c-2.2-5.1-4-10.4-6.5-15.3c-7.3-14.2-16.7-26.7-30.1-36.8c-17.7,25.5-34.9,50.2-52.9,76.2C443.7,691.7,502.4,691.7,562.6,691.7z"/>
</svg>