<svg xmlns="http://www.w3.org/2000/svg" xmlns:xlink="http://www.w3.org/1999/xlink" version="1.1" id="Capa_1" x="0px" y="0px" style="enable-background:new 0 0 1200 1200;" xml:space="preserve" viewBox="270.85 386.83 659.52 425.45">

<g>
	<g id="lBRw8S_00000062889132275473734000000008632716189610028418_">
		<g>
			<g>
				<path class="st0" d="M929.9,440.8c0-0.9,0-1.7,0-2.6c0-2.9,0-5.9-0.1-8.9c-0.7-12.4-6.1-23.3-15.7-31.5      c-8.5-7.2-18.6-10.7-31-10.7c-73,0.2-147.2,0.2-218.9,0.1c-21.8,0-43.6,0-65.4,0h-60.4c-71.1,0-144.6,0-217,0      c-9,0-19.5,0.5-28.9,6.8c-10.8,7.2-17.1,15.7-19.3,26c-1.3,6.1-2,12.6-2,19.3c-0.1,118.5-0.1,236.6,0,326.3      c0,7.8,1.6,14.7,4.9,21.2c8.1,16.2,22.4,24.9,41.3,25c23.2,0.2,46.6,0.2,69.8,0.2c10.6,0,21.1,0,31.6,0c11,0,22,0,33.1,0      c146.7,0,290,0,431.6,0c7.5,0,14.1-1.4,20.1-4.3c17.5-8.4,26.4-22.8,26.4-42.9c0.1-82.7,0.1-166.9,0.1-248.2L929.9,440.8z       M903.2,768c0,9.4-8.6,17.6-18.5,17.6c-71,0-142,0-213,0H525.3c-68.5,0-139.3,0-209,0.1h0c-4.4,0-9.2-2.2-12.9-5.9      c-3.7-3.7-5.8-8.4-5.8-13.1c0.2-100.6,0.2-210.5,0-336.1c0-6.1,7.1-15.2,12.4-16c1-0.2,2-0.3,3-0.5c3.4-0.6,6.6-1.1,9.8-1.1      c138.1-0.1,278.1-0.1,415.4-0.1h145.1c8.7,0,16.2,5.1,19,13c0.5,1.3,0.7,2.8,0.7,4.3C903.2,536.1,903.2,646.5,903.2,768z"/>
			</g>
			<g>
				<path class="st0" d="M537.6,602c0-2.8,0-5.7,0-8.5v-32.4c0-29.8,0-60.7,0-91.1c0-10-4.2-18.1-12.3-24.1c-6-4.4-12.5-5-18.2-5h0      c-18.1,0-36.2,0-54.2,0l-20.1,0c-6.5,0-13,0-19.5,0c-18.1,0-36.9-0.1-55.3,0.2c-6.6,0.1-12.3,1.2-16.7,3.3      c-6.8,3.3-15,10.6-15,26.8v21.4c0,43.7,0,87.5,0.1,131.2c0,17.3,14.6,28,28.1,28.1c22.7,0.1,45.6,0.2,69.2,0.2      c27.5,0,55.7-0.1,85.1-0.3c6.7,0,13.2-3.3,16.4-5.3c8.2-4.9,12.4-13.3,12.6-24.9C537.6,615,537.6,608.4,537.6,602z M382,624.6      c2-3.2,3.9-6.3,6.1-9.1c4.9-6.2,11.7-11.1,20.8-14.9c3.4-1.4,6.5-2.2,9.2-2.3l0.8,0c13.9-0.9,27-1.7,39.3,4.1      c10.1,4.8,17.8,12.1,23.3,22.2H382z M510.7,542.4h-0.2l0,19.3c0,19.9,0,40.4-0.1,60.6c0,0.7-0.3,1.5-0.5,2.1      c-4.9-13.3-10.8-23.1-18.6-30.7c-14-13.7-30.1-21-48-21.5c-10.6-0.3-22.6-0.7-34.2,1.2c-11.1,1.8-21.7,7-31.5,15.3      c-11.5,9.8-19.1,20.8-23.2,33.7c-0.1,0.4-0.2,0.8-0.3,1.3c-0.1,0.3-0.2,0.8-0.3,1.2c-0.5-0.1-1.4-0.4-1.4-3.3V470.5      c0-3.1,1.6-3.6,3.3-3.6c40,0,80,0,119.9,0h32c1.2,0,2.1,0.2,2.5,0.7s0.6,1.3,0.6,2.5c0,19.1,0,38.2,0,57.2L510.7,542.4z"/>
			</g>
			<g>
				<path class="st0" d="M512.2,760.1c-2.1,2.2-5.1,2.4-6.4,2.4h-0.3c-8.3-0.1-16.8-0.1-25,0c-3.2,0-6.4,0-9.6,0l-45.6,0      c-15.4,0-30.8,0-46.2,0c-2.6,0-5.5,0-7.5-2.1c-2-2.1-2-5-1.9-7.5c0-1.6,0-3.3-0.1-5c0-0.7,0-1.4-0.1-2.2      c-0.1-2.3-0.2-5.2,1.8-7.3c2-2,4.8-2,7.1-2c3.4,0,6.8,0,10.2,0c2.4,0,4.9,0,7.3,0h107.4c4.2,0,6.8,0,8.8,2c2,2,1.9,4.6,1.9,8.6      c0,0.6,0,1.2,0,1.7c0,1.7-0.1,3.3,0,4.9C514.3,756.3,513.7,758.5,512.2,760.1z"/>
			</g>
			<g>
				<path class="st0" d="M827.4,753.9c0.1,1,0.3,4-1.8,6.2c-1.9,2-4.6,2.2-6.5,2.2c-15.5-0.1-31.2-0.1-46.4-0.1H759v0.1h-19.9      c-15.6,0-31.7,0-47.5,0.1h-0.2c-1.2,0-4.2-0.1-6.3-2.3c-1.5-1.5-2.2-3.6-2-6.4c0.1-3.5,0.2-6.5,0.1-9.4      c-0.1-2.6,0.6-4.7,2.1-6.1c1.5-1.4,3.5-2,6.1-1.8l0.1,0h0.4l26.2,0c33.1,0,67.3,0,101-0.1c1.9,0,4.6,0.2,6.6,2.3      c1.9,2,2,4.7,1.8,6.5C827.2,748.2,827.2,751.1,827.4,753.9z"/>
			</g>
			<g>
				<path class="st0" d="M465.7,496.2c-7.4-8.9-17.6-14.5-29-15.7c-11.7-1.3-23.3,2-32.6,9.5c-9.2,7.4-15.2,18.1-16.4,29.6      c-1.3,12.2,2.5,24.5,10.6,33.9c7.7,8.9,18.1,14.1,29.5,14.6c1.7,0.2,3.5,0.3,5.2,0.3c9.4,0,18.5-3.2,26.1-9.2      c9.4-7.5,15.4-18.4,16.6-30C476.8,517.1,473.2,505.4,465.7,496.2z M418.8,512c3.4-3.4,8.1-5.3,13.6-5.3h0.1      c4,0,8.2,1.9,11.6,5.2c3.6,3.6,5.6,8.2,5.7,12.7c-0.8,10.1-8.2,17.6-17.8,17.8c-4.9,0.1-9.5-1.6-12.8-4.8      c-3.3-3.2-5.2-7.7-5.3-12.7C413.9,519.8,415.6,515.3,418.8,512z"/>
			</g>
		</g>
	</g>
	<g>
		<polygon class="st0" points="744,553.8 838.3,648 819.4,666.9 725.2,572.7 631,666.9 612.1,648 706.3,553.8 612.1,459.5     631,440.7 725.2,534.9 819.4,440.7 838.3,459.5   "/>
	</g>
</g>
</svg>