<svg xmlns="http://www.w3.org/2000/svg" xmlns:xlink="http://www.w3.org/1999/xlink" version="1.1" id="Capa_1" x="0px" y="0px" style="enable-background:new 0 0 1200 1200;" xml:space="preserve" viewBox="193.03 342.83 797.35 505.15">
<g>
	<g id="czoHS9.tif">
		<g>
			<path class="st0" d="M416.5,403.5c75,0,150.1,0,225.1,0c0.9,0.3,1.9,0.7,2.8,0.8c35.8,3.8,62.7,21.7,81.4,52.1     c19,30.9,38.1,61.8,57,92.8c2,3.3,4.2,4.9,8.1,5.4c36.1,4,72.1,8.5,108.2,12.1c41.5,4.1,76.5,33.1,87.2,73.4     c1.7,6.3,2.6,12.9,3.8,19.4c0,5.6,0,11.3,0,16.9c-0.3,1.4-0.8,2.8-1,4.2c-3.2,28-6.4,55.9-9.7,83.9c-1.2,10.1-5.3,13.6-15.4,13.6     c-20.7,0-41.4,0.1-62.2-0.1c-4.1,0-5.8,1.1-7.1,5.3c-10.6,34.5-33.6,55.7-69.3,62.7c-3.6,0.7-7.2,1.1-10.7,1.7c-2.7,0-5.3,0-8,0     c-1.4-0.3-2.9-0.7-4.3-0.9c-27.2-2.9-48.8-15.7-63.6-38.6c-5.9-9-9.5-19.5-14.5-30c-0.1,0-1.4-0.1-2.7-0.1     c-91.3,0-182.6,0-273.8-0.1c-3.8,0-4.8,1.4-5.8,4.8c-10.7,34.8-33.6,56.2-69.6,63.2c-3.6,0.7-7.2,1.1-10.8,1.7c-2.7,0-5.3,0-8,0     c-1.3-0.3-2.5-0.7-3.8-0.9c-36-4.4-60.3-23.7-73.5-57.2c-1.4-3.7-2.4-7.5-3.6-11.4c-20.8,0-41.4-0.3-61.9,0.1     c-7.9,0.1-13.9-1.9-17.5-9.3c0-51.8,0-103.6,0-155.4c0.2-0.3,0.5-0.5,0.6-0.8c4.8-23.6,19.4-37.6,42-45.2     c9.4-3.2,18.5-8.2,26.6-14c17.5-12.6,26.6-30.8,32.6-51.3c14.3-49.1,47-80.3,96.1-94.1C399.5,405.9,408.1,405.1,416.5,403.5z      M219.4,710.4c22.4,0,43.9,0.1,65.5-0.1c1.6,0,3.4-1.6,4.6-3c16.2-19.6,36.6-31.5,62.2-33.1c32.3-2,58.2,10.3,77.4,36.3     c9.1,12.2,13.8,26.3,15.7,41.5c93.4,0,186.4,0,279.7,0c0.9-4.9,1.8-9.8,2.8-15.3c-2.5,0-4.6,0-6.7,0c-68.7,0-137.4,0-206.1,0     c-2.3,0-4.7,0-7-0.3c-6.3-0.7-10.9-5.7-11.3-11.9c-0.4-6.4,3.4-11.9,9.5-13.4c2.5-0.6,5.3-0.7,7.9-0.7     c73.4,0,146.7-0.1,220.1,0.1c4.3,0,7.1-1.1,10.1-4.5c22.1-26,50.3-36.4,84-30.6c21.5,3.7,38.5,15.3,52.3,32     c1.2,1.4,3.4,2.8,5.2,2.9c23.6,0.2,47.1,0.1,70.7,0.2c3.1,0,4-1.2,4.2-4c0.9-8.7,2-17.5,2.9-26.2c0.5-5.2,0.8-10.4,1.2-15.8     c-2.7,0-4.6,0-6.4,0c-13.3,0-26.6,0.1-39.8-0.1c-7.6-0.1-12.8-5.6-12.8-13c0-7.4,5.2-12.7,12.8-13c2.2-0.1,4.3,0,6.5,0     c11.1,0,22.1,0,33.6,0c-0.4-1.1-0.5-1.8-0.7-2.3c-11.2-23.2-29.1-38.7-54.8-42.2c-39.9-5.5-80-9.6-120.1-14     c-8.3-0.9-14-3.9-18.4-11.3c-20.1-33.4-40.6-66.5-61.2-99.6c-16.2-26-39.7-39.3-70.4-39.4c-68.4-0.1-136.8-0.2-205.2,0.1     c-10.2,0-20.8,1-30.5,3.8c-40.6,11.7-66.7,38.3-78.2,79.3c-2.4,8.6-5.5,17.1-9.6,25c-14.3,27.2-36.5,45.4-65.8,55     c-17.5,5.7-24.1,14.8-24.1,33c0,26.2,0,52.4,0,78.7C219.4,706.3,219.4,708.1,219.4,710.4z M811.4,699.5     c-33.1-0.1-61,27.3-61.2,60.1c-0.2,34.1,27,61.9,60.8,62c33.3,0.1,61.1-27.4,61.3-60.6C872.5,727.4,844.9,699.6,811.4,699.5z      M358.1,699.5c-33.2,0.1-60.8,27.5-60.9,60.4c-0.1,34.1,27.4,61.8,61.1,61.7c33.3-0.1,61.3-28,61-60.9     C419.1,726.9,391.6,699.4,358.1,699.5z M898,752.2c18.4,0,36.6,0,54.8-0.1c0.8,0,2.1-1.2,2.3-1.9c0.6-4.3,0.9-8.7,1.4-13.2     c-20.7,0-40.7,0-61.1,0C896.3,742.1,897.1,746.7,898,752.2z M219.7,736.9c0,5.3,0,10.2,0,15c17.5,0,34.6,0,51.9,0     c0.9-5.1,1.7-9.9,2.6-15C255.8,736.9,238,736.9,219.7,736.9z"/>
			<path class="st0" d="M532.1,579c-64.5,0-129.1-0.2-193.6,0.2c-10.8,0.1-19.1-6.6-15.4-19.6c4.3-15.1,7.8-30.5,12.1-45.6     c11.4-40.3,46.4-68,88.3-68.3c70.3-0.5,140.7-0.3,211.1-0.1c23.9,0.1,42.3,11,54.8,31.4c16.4,26.7,32.8,53.4,49.3,80     c3.1,5,4.7,9.9,1.6,15.4c-3.1,5.5-8.1,6.6-14,6.6C661.6,579,596.9,579,532.1,579z M418.9,552.8c40.1,0,79.5,0,119.1,0     c0-27.2,0-54.1,0-81c-0.9-0.2-1.3-0.4-1.8-0.4c-37.7,0-75.3,0-113-0.1c-3.7,0-4.4,1.6-4.3,4.8c0.1,21.9,0.1,43.8,0.1,65.7     C418.9,545.3,418.9,548.8,418.9,552.8z M564.7,552.8c47.1,0,93.7,0,140.6,0c-0.5-1-0.7-1.6-1-2.1c-12.5-20.3-24.9-40.7-37.6-61     c-7.6-12.2-18.9-18.2-33.3-18.2c-21.4-0.1-42.8,0-64.2,0c-1.4,0-2.9,0.2-4.5,0.3C564.7,498.9,564.7,525.7,564.7,552.8z      M392.6,479c-6.3,5.3-12,9.3-16.7,14.1c-16.1,16.5-18,38.8-24.2,59.7c14,0,27.3,0,40.9,0C392.6,528.6,392.6,504.6,392.6,479z"/>
			<path class="st0" d="M434.5,625.6c-4.5,0-9,0.1-13.4,0c-7.3-0.3-12.7-5.6-12.8-12.6c-0.1-7.3,5.1-13,12.6-13.2     c9.3-0.2,18.6-0.2,27.8,0c7.3,0.2,12.5,5.7,12.6,12.8c0.1,6.9-5.2,12.6-12.4,12.9C444.2,625.8,439.3,625.6,434.5,625.6     C434.5,625.6,434.5,625.6,434.5,625.6z"/>
			<path class="st0" d="M622.1,625.6c-4.5,0-9,0.1-13.4,0c-7.6-0.2-13-5.6-13-12.9c0-7.3,5.2-12.8,12.9-12.9     c9.1-0.2,18.2-0.2,27.3,0c7.5,0.2,12.8,5.8,12.8,13.1c-0.1,7-5.4,12.4-12.7,12.7C631.3,625.8,626.7,625.6,622.1,625.6     C622.1,625.6,622.1,625.6,622.1,625.6z"/>
			<path class="st0" d="M811.4,803.9c-24.2,0.1-43.3-19.3-43.3-43.8c0-23.5,19.6-42.9,43.3-42.8c23.8,0,43.1,19.6,43.3,43.6     C854.8,784,834.9,803.8,811.4,803.9z M811.5,743.2c-9.6-0.1-17.5,7.7-17.5,17.3c0,9.6,7.9,17.6,17.3,17.6     c9.2,0,17.2-7.9,17.4-17.1C828.8,751.3,821,743.2,811.5,743.2z"/>
			<path class="st0" d="M358.1,803.9c-24.1-0.1-43.2-19.6-43.1-44.1c0.1-23.3,20-42.7,43.7-42.5c23.8,0.2,43,19.8,42.9,43.9     C401.5,784.5,381.7,804,358.1,803.9z M358.3,743.2c-9.5,0-17.5,8-17.3,17.5c0.1,9.4,7.8,17.2,17.1,17.3c9.4,0.2,17.7-8,17.6-17.3     C375.6,751,367.8,743.1,358.3,743.2z"/>
		</g>
	</g>
	<path class="st0" d="M859.6,438.5c18.6-26.5,36.8-52.6,55-78.6c2.9-4.2,5.7-8.4,8.9-12.4c4.3-5.3,9.6-5.7,15.2-1.8   c5.3,3.8,6.4,8.5,3.1,14.4c-1.1,1.9-2.3,3.8-3.6,5.6c-21.5,30.8-43,61.6-64.4,92.5c-5.9,8.5-9.5,12.4-21.6,3   c-16.7-13-33-26.7-49.5-40c-4.6-3.7-7.7-8.1-5.2-14.3c3.1-7.7,11.4-9.4,18.6-3.6c12.9,10.3,25.7,21,38.5,31.5   C856.1,435.7,857.5,436.8,859.6,438.5z"/>
</g>
</svg>