<svg xmlns="http://www.w3.org/2000/svg" xmlns:xlink="http://www.w3.org/1999/xlink" version="1.1" id="Capa_1" x="0px" y="0px" style="enable-background:new 0 0 1200 1200;" xml:space="preserve" viewBox="202.03 232.63 776.85 776.65">

<g id="nWBIqV_00000129174056100624559270000013736940882594121109_">
	<g>
		<path class="st0" d="M561.2,232.9c20.7,0,41.4,0,62.1,0c7.8,1.2,15.6,2.4,23.3,3.7c152.8,27.1,257.6,112.5,310.8,258.6    c10.8,29.6,14.3,61.9,21.2,92.9c0,20.7,0,41.4,0,62.1c-1.3,7.7-2.4,15.5-3.8,23.2c-27.4,154.7-114.1,260.6-262,314.4    c-29.6,10.8-61.9,14.3-93,21.2c-20.7,0-41.4,0-62.1,0c-3.2-1-6.3-2.5-9.6-2.9c-161-21.5-269.4-109-324.9-261.1    c-10.6-29.1-14.1-60.8-20.9-91.3c0-20.7,0-41.4,0-62.1c1.3-8.3,2.4-16.7,3.9-25c28.8-155.8,116.8-261.8,266.7-314.2    C501.3,242.6,531.8,239.2,561.2,232.9z M591.9,288c-183.8,0.1-334.1,150.1-334.2,333.6c-0.2,183.7,147.5,332.1,330.7,332.2    c184.7,0.1,335.1-150,335.1-334.5C923.3,435.9,775.3,287.9,591.9,288z"/>
		<path class="st0" d="M619.7,719.1c-21.6,0-42.2,0-64,0c-5-38.1,2.3-71.9,30.9-98.8c17.1-16.1,35.3-31.1,53.1-46.4    c15.9-13.7,22.4-30.9,16.5-50.8c-6.4-21.7-22.7-34.2-44.6-38.2c-46.5-8.4-77.5,11.4-98,63.1c-20.2-2.7-41-5.4-62.8-8.3    c3.7-39.8,21.5-69.4,52.2-91.8c58.8-43,150.3-33.8,199.4,20.1c37.3,40.9,37.8,93.8,0.5,134.8c-10.8,11.8-23.2,22.3-35.1,33    C623.3,675.8,627.5,664.9,619.7,719.1z"/>
		<path class="st0" d="M625.8,819.6c-23.9,0-46.6,0-70.8,0c0-23.8,0-47.3,0-71.9c23.5,0,46.6,0,70.8,0    C625.8,771.3,625.8,794.4,625.8,819.6z"/>
	</g>
</g>
</svg>