<svg xmlns="http://www.w3.org/2000/svg" xmlns:xlink="http://www.w3.org/1999/xlink" version="1.1" id="Capa_1" x="0px" y="0px" style="enable-background:new 0 0 1200 1200;" xml:space="preserve" viewBox="154.21 276.2 800.17 733.07">

<g id="_x37_dg9PZ.tif_00000111193804598316871810000008216488142801971111_">
	<g>
		<path class="st0" d="M569.8,1009c-6.6-1.8-13.4-3.1-19.9-5.4c-33.8-12-56.6-42.1-57.9-77.9c-0.9-26.1-0.5-52.2-0.2-78.2    c0.1-13.3,9.6-22.2,22.1-22c12.1,0.2,20.8,9.3,20.9,22.3c0.2,23.6,0,47.2,0.1,70.8c0.1,28.6,18.2,47,46.7,47    c94.4,0.1,188.8,0.1,283.2,0c27.8,0,45.9-17.9,46-45.9c0.1-184.3,0.1-368.5,0-552.8c0-29.2-18.2-46.9-47.6-46.9    c-93.3,0-186.5,0-279.8,0c-30.1,0-48.3,18.2-48.4,48.1c0,23.3,0,46.6,0,69.9c-0.1,14.7-8.8,24.5-21.5,24.5    c-12.5,0-21.6-10.1-21.7-24.4c-0.1-23.9-0.1-47.7,0-71.6c0.3-50.8,36.9-89.1,87.8-89.5c95.8-0.7,191.5-0.7,287.3,0    c51.3,0.4,86.8,38.1,87.1,90.7c0.2,36.9,0,73.8,0,110.7c0,146-0.1,291.9,0.1,437.9c0,36.4-14,64.7-46.4,82.2    c-9.5,5.1-20.8,7.1-31.3,10.5C774.1,1009,671.9,1009,569.8,1009z"/>
		<path class="st0" d="M229.1,665.6c3.2,3.4,5,5.4,6.9,7.3c31.6,31.5,63.3,63.1,95,94.6c5.8,5.8,9.9,12.1,8.5,20.6    c-2.8,16.7-22.2,23.9-35.3,12.9c-5.1-4.3-9.6-9.3-14.3-14c-42.9-42.7-85.7-85.4-128.5-128.1c-8.9-8.9-9.2-21.2-1-30.6    c46.3-53.1,92.6-106.3,138.8-159.5c6-6.9,12.8-11.7,22.3-10c17.4,3.1,23.8,22.5,11.9,36.7c-16.8,19.9-34.1,39.5-51.1,59.2    c-17.8,20.6-35.6,41.1-53.4,61.7c-1.2,1.4-2.3,3-4.7,6.1c4.6,0,7.7,0,10.8,0c165.2,0,330.3,0,495.5,0c3.6,0,7.2-0.1,10.8,0.2    c10.8,0.9,19,9.4,19.7,20.2c0.6,10.1-6.5,19.6-16.8,21.8c-4,0.8-8.3,0.9-12.4,0.9c-163.8,0-327.6,0-491.3,0    C237.3,665.6,234.1,665.6,229.1,665.6z"/>
	</g>
</g>
</svg>