<?xml version="1.0" standalone="no"?>
<!DOCTYPE svg PUBLIC "-//W3C//DTD SVG 20010904//EN"
 "http://www.w3.org/TR/2001/REC-SVG-20010904/DTD/svg10.dtd">
<svg version="1.0" xmlns="http://www.w3.org/2000/svg"
 width="512.000000pt" height="512.000000pt" viewBox="0 0 512.000000 512.000000"
 preserveAspectRatio="xMidYMid meet">
<style type="text/css">
	.st0{fill:#999999;}
</style>
<g transform="translate(0.000000,512.000000) scale(0.100000,-0.100000)"
fill="#000000" stroke="none">
<path class="st0" d="M2320 5105 c-916 -114 -1633 -818 -1766 -1735 -25 -175 -15 -500 21
-670 55 -260 170 -537 307 -737 35 -50 393 -501 796 -1001 678 -843 736 -912
784 -936 68 -34 128 -34 195 0 48 23 97 82 605 712 905 1123 929 1153 988
1244 162 245 273 541 314 837 21 146 21 421 1 560 -134 913 -859 1619 -1773
1726 -151 18 -328 18 -472 0z m429 -145 c447 -47 870 -256 1172 -578 248 -265
401 -561 481 -932 20 -93 22 -134 23 -350 0 -217 -3 -258 -23 -359 -49 -243
-148 -483 -279 -678 -61 -92 -1470 -1851 -1517 -1895 -23 -21 -64 -23 -87 -5
-33 26 -1476 1827 -1531 1912 -124 188 -216 413 -266 644 -24 117 -26 144 -27
371 0 280 14 373 87 595 274 828 1104 1366 1967 1275z"/>
<path class="st0" d="M2366 4809 c-182 -21 -395 -84 -566 -167 -104 -51 -279 -164 -335
-216 -42 -40 -47 -81 -12 -114 36 -33 71 -28 135 22 425 326 964 420 1472 254
173 -56 389 -181 538 -310 266 -233 453 -567 513 -916 26 -155 26 -379 0 -534
-104 -607 -564 -1106 -1161 -1258 -888 -226 -1786 356 -1941 1258 -24 141 -26
375 -4 512 41 253 144 499 296 700 72 95 79 118 46 155 -17 21 -33 28 -57 28
-40 0 -68 -29 -165 -174 -129 -191 -225 -435 -265 -674 -20 -114 -22 -154 -17
-330 6 -225 25 -334 92 -525 247 -708 950 -1182 1700 -1146 437 20 832 194
1139 499 244 243 399 530 479 887 18 82 21 127 21 335 0 271 -10 335 -84 557
-180 538 -633 962 -1185 1108 -200 53 -444 72 -639 49z"/>
<path class="st0" d="M1954 3899 c-22 -11 -44 -48 -44 -73 0 -7 9 -25 21 -40 l20 -26 183
0 c178 0 183 1 204 23 27 29 28 67 3 98 -19 23 -24 24 -193 26 -107 1 -181 -2
-194 -8z"/>
<path class="st0" d="M2636 3889 c-30 -23 -35 -72 -12 -105 13 -17 31 -20 148 -24 l133 -5
3 -97 3 -96 -172 -296 c-95 -163 -176 -295 -181 -294 -5 2 -89 141 -187 308
-191 327 -204 343 -260 320 -21 -8 -49 -48 -112 -156 -46 -79 -87 -144 -91
-144 -4 0 -33 7 -65 15 -174 46 -366 -8 -498 -140 -73 -73 -120 -162 -142
-272 -72 -344 242 -669 592 -613 83 13 192 62 255 115 87 72 162 194 176 285
l7 40 173 0 c165 0 174 1 198 23 14 12 98 148 186 302 89 154 169 291 177 303
14 24 15 23 59 -52 24 -41 44 -78 44 -82 0 -3 -23 -31 -51 -62 -161 -176 -184
-443 -54 -638 84 -127 222 -215 371 -235 281 -39 545 164 587 452 37 254 -135
508 -388 574 -75 19 -184 19 -258 0 -32 -8 -62 -15 -66 -15 -5 0 -40 53 -78
118 l-68 117 -5 163 -5 164 -28 24 c-27 23 -33 24 -196 24 -155 0 -170 -2
-195 -21z m-366 -734 c67 -115 131 -225 142 -243 l20 -33 -97 3 -98 3 -14 54
c-19 74 -69 165 -125 227 -27 28 -48 55 -48 59 0 17 85 154 91 148 4 -5 62
-102 129 -218z m-471 19 c17 -4 31 -10 31 -14 0 -4 -43 -81 -95 -171 -52 -90
-95 -169 -95 -176 0 -25 23 -61 47 -72 15 -7 95 -11 208 -11 148 0 185 -3 185
-13 0 -8 -14 -41 -31 -75 -128 -256 -479 -279 -641 -42 -138 202 -47 477 185
561 52 18 147 24 206 13z m1763 -28 c207 -99 278 -358 150 -546 -74 -108 -182
-165 -312 -164 -145 1 -267 79 -332 212 -31 62 -33 74 -32 162 0 74 5 105 21
140 27 58 81 132 94 128 5 -2 52 -75 103 -163 101 -174 124 -197 175 -175 27
11 51 46 51 73 0 7 -43 86 -95 175 -52 90 -95 167 -95 172 0 14 39 19 130 16
69 -2 96 -8 142 -30z m-1551 -108 c36 -50 68 -115 69 -140 0 -16 -12 -18 -115
-18 -63 0 -115 2 -115 4 0 13 113 196 121 196 5 0 23 -19 40 -42z"/>
</g>
</svg>
