<?xml version="1.0" encoding="utf-8"?>
<!-- Generator: Adobe Illustrator 25.4.1, SVG Export Plug-In . SVG Version: 6.00 Build 0)  -->
<svg version="1.1" id="Capa_1" xmlns="http://www.w3.org/2000/svg" xmlns:xlink="http://www.w3.org/1999/xlink" x="0px" y="0px" height="512.pt" 
	 viewBox="0 0 1200 1200" style="enable-background:new 0 0 1200 1200;" xml:space="preserve">

<g id="oXAnOg_00000183245043293937282460000012128747264629030334_">
	<g>
		<g>
			<path class="st0" d="M833.3,737.2c-5.7-29.6-22.6-54.5-47.6-70.2c-24.9-15.6-54.7-20-83.7-12.2c-2.4,0.6-2.9,0.4-4-1.8
				c-8.5-18.4-17.2-37.1-25.6-55.1c-3.2-6.9-6.4-13.7-9.6-20.6c-1.1-2.3-2.1-4.6-3.2-7c-0.2-0.5-0.5-1.1-0.7-1.6
				c0.8,0,1.4-0.1,2.1-0.1c1.9,0,3.8,0,5.8,0c3.7,0,7.6,0,11.4-0.1c8.7-0.3,16.1-4.1,21.4-10.9c7.4-9.4,8.8-19.9,4.1-30.4
				c-4.9-11-13.8-17.1-26-17.7c-11.1-0.5-22.4-0.3-33.3-0.1l-1.3,0c-3,0.1-3.7-0.5-4.2-3.3c-2.9-17.1-6-34-9.7-54.2
				c-2.4-12.7-9.7-21.1-21.3-24.4c-11.4-3.2-21.6-0.2-30.4,8.9c-33.4,34.8-68.2,71-106.3,110.6c-18.2,18.9-18.4,43.8-0.6,63.3
				c0.9,1,1,1.3,0.3,2.5c-3.4,6.2-6.7,12.5-9.9,18.6c-1.9,3.6-3.9,7.3-5.8,10.9c-2.2,4.1-4.4,8.1-6.6,12.2c-0.8,1.5-1.6,3-2.4,4.4
				l0,0c-0.8-0.3-1.4-0.5-2.1-0.8c-16.6-6.4-33.8-8.5-51.1-6.3c-29.3,3.8-54.9,19-72.1,42.9c-17.2,23.9-23.6,53.1-17.9,82.2
				c8.7,44.5,45.7,79,89.8,84c23.2,2.6,45.8-1.9,65.5-13.1c19.7-11.2,34.9-28.2,44.1-49.1c4.1-9.3,6.8-19.2,8-29.2l0.1-0.5
				c0.2-1.8,0.2-1.9,1.5-1.9c5.8,0.1,11.7,0.1,17.4,0.1l2.8,0c0.8,0,1,0.2,1,0.2c0,0,0.2,0.2,0.2,1c0,2.9,0.1,5.8,0.4,8.5
				c1.9,19.5,16.5,32.7,35.9,32.7c0.7,0,1.5,0,2.2-0.1c18.5-1,33.3-17.3,33-36.5c-0.2-8.5-0.5-17.2-0.8-25.6
				c-0.2-6.4-0.5-13-0.7-19.5c0-1.9,0.4-3.9,1.2-5.2c15.6-26.5,31.5-53.4,46.9-79.4l6.4-10.8c1.1-1.9,2.2-3.7,3.5-5.7
				c0.2-0.3,0.3-0.5,0.5-0.8l17.8,38.1c-0.1,0-0.2,0.1-0.2,0.2c-0.9,0.5-1.7,1-2.5,1.5c-38.2,24.1-55.5,58.3-51.3,101.7
				c2.8,29,16.8,54.6,39.5,72.2c18.7,14.5,41.2,22.1,64.8,22.1c5.7,0,11.5-0.5,17.3-1.3c27.3-4.3,52.3-20,68.7-43.3
				C832.1,793.5,838.5,764.4,833.3,737.2z M424,745.2l30.5-56.6c17.1,10.2,32.6,35.9,34,56.6H424z M473.6,805.2
				c-7.4,10.2-20.7,23.8-42.3,30.8c-37,11.9-76.9-3.2-97-36.5c-20.2-33.3-14.8-75.8,13-103.2c17.1-16.9,39-24,58.8-24
				c10.8,0,21,2.1,29.5,5.8l-20.1,37.4c-5.2,9.7-10.7,19.7-15.9,29.6c-0.9,1.8-2.2,4.5-2.6,7.2c-0.4,4,0.6,7.6,2.9,10.2
				c2.3,2.6,5.8,4.1,9.8,4.1c7.8,0.1,15.6,0.1,23.2,0.1c3.1,0,6.3,0,9.4,0h46.1C487.6,779.4,482.2,793.3,473.6,805.2z M532,745.3
				c-0.1,0.1-0.5,0.4-1.9,0.3c-2.9-0.1-5.7-0.1-8.6-0.1c-2,0-3.9,0-5.9,0c-1.4,0-2.8,0-4.1,0c-0.8-3-1.6-5.9-2.3-8.8
				c-1.8-7-3.6-13.7-6-20.2c-7-18.4-19.2-33.8-36.1-46c-1.9-1.4-2-1.8-0.9-3.8c5.5-10,10.8-19.8,16.4-30.2c1.6-3.1,3.3-6.1,5-9.2
				c0.3,0.3,0.6,0.6,0.9,0.9c1.6,1.5,3.1,3,4.5,4.4l5.2,5.2c9.8,9.9,19.9,20,29.6,30.2c1.1,1.1,1.9,3.1,2,4.6
				c0.5,13.3,1,26.9,1.5,40.1c0.4,10.1,0.7,20.3,1.1,30.5C532.3,744.7,532.1,745.1,532,745.3z M601.5,684.7
				c-0.1-1.8-0.2-3.6-0.3-5.3c-0.3-6.1-0.7-12.5-0.6-18.7c0.2-15.3-5.9-28.1-18.6-39.2c-2.4-2.1-4.8-4.3-7-6.4
				c-0.6-0.5-1.1-1.1-1.7-1.6h70.4L601.5,684.7z M644.6,591.7c-2.3,0-4.4,0-6.5,0c-6.9,0-13.8,0-20.7,0c-18.4,0-37.4,0-56,0.4
				c-7,0.1-11.3-1.7-14.9-6.2c-1.7-2.2-4-4-6.2-5.7c-0.6-0.5-1.2-0.9-1.8-1.4l44.5-53.6c0,0.2,0,0.5,0.1,0.7
				c0.3,2.6,0.5,4.9,0.7,7.1c1.4,19.4,17.6,34.9,37,35.4c2,0,4.1,0,6,0c2.1,0,4.3,0,6.5,0.1c0.7,0,1.4,0.2,1.7,0.4
				c3.1,6.4,6.1,12.7,9.2,19.5l1.5,3.3H644.6z M649,547.2c-2.7,0-5.3,0-8,0c-5.6,0-11.2,0-16.7,0c-11.9-0.1-18.6-6.4-19.4-18.2
				c-0.7-9.5-1.6-19.1-2.4-27.3c-0.5-5.3-3.6-9.1-8.7-10.8c-5.2-1.7-9.9-0.3-13.3,3.7c-6.4,7.5-12.8,15.2-19,22.7l-5.1,6.1
				c-4.5,5.5-9.1,10.9-13.6,16.4c-6.8,8.2-13.6,16.4-20.4,24.5c-7.9,9.5-7.5,20,1.2,28.8c6.5,6.6,13,13.2,19.5,19.8
				c9.6,9.8,19.3,19.6,28.9,29.4c4.5,4.5,6.8,10.1,7,17.1c0.8,25,1.7,50.1,2.5,75.2c0.2,4.6,0.3,9.1,0.5,13.7
				c0.3,8.2,0.6,16.7,0.8,25c0.2,6-3.3,11.1-8.9,13.4c-5.7,2.3-11.9,0.9-15.2-3.4c-2.3-2.9-3.8-6.6-4-9.7c-1-21.7-1.8-43.8-2.5-65.2
				c-0.2-7.1-0.5-14.2-0.8-21.3c-0.1-1.9-0.2-3.8-0.2-5.7c-0.2-3.6-0.4-7.3-0.4-11c0-6.3-2.3-11.6-6.9-16.3
				c-13.2-13.3-26.5-26.9-39.5-40l-10.4-10.5c-3-3-6-6.2-9-9.2c-8.7-9.2-8.8-21.9-0.2-31c12.5-13.2,25.3-26.5,37.7-39.4
				c4.3-4.5,8.6-9,13-13.5c6.2-6.5,12.5-13,18.7-19.5c12.4-12.9,24.9-25.9,37.3-38.9c2.7-2.8,4.9-4.5,7.7-4.5c0.8,0,1.5,0.1,2.4,0.4
				c3.6,1.2,5.4,3.8,6.3,9c3.9,22,7.9,43.7,11.2,62c1.5,8,5.8,11.6,14.1,11.6h17.2c7.4,0,14.8,0,22.3,0c1.4,0,3.1,0.1,4.6,0.4
				c4.6,1.1,7.4,4.6,7,8.7c-0.5,4.4-3.7,7.2-8.4,7.5c-2.8,0.1-5.7,0.1-8.5,0.1c-1.2,0-2.4,0-3.6,0H649z M807.9,786.3
				c-8.3,21.2-24.3,37.9-45,46.8c-20.5,8.9-43.3,9.2-64.1,0.8c-20.9-8.4-37.2-24.4-46-45.2c-8.6-20.4-8.9-42.9-0.8-63.3
				c7.2-18.1,20.5-33.3,36.7-41.9l2.6,5.5c2.4,5.1,4.8,10.2,7.2,15.4c3.4,7.4,6.9,14.8,10.3,22.2c5.1,11.1,10.3,22.1,15.5,33.2
				c2.5,5.4,6.6,7.7,12.2,6.8c4.9-0.7,8.4-4.6,8.6-9.4c0.1-2.8-0.9-5.7-1.8-7.5c-8-17.4-16.3-35.1-24.3-52.2c-3-6.4-6-12.9-9-19.3
				c-0.4-0.8-0.7-1.7-1.1-2.6c32.5-10.5,78.6,4.3,97.8,47.2C815.5,742.8,816,765.4,807.9,786.3z"/>
		</g>
		<g>
			<path class="st0" d="M675.2,461.5c-26.2-0.2-47.2-21.4-47.1-47.5c0.1-26.2,21.6-47.4,47.9-47.2c26.1,0.1,47,21.7,46.8,48.2
				C722.5,440.8,701.2,461.7,675.2,461.5z M675.4,385.3c-15.9,0.1-28.8,13.1-28.7,29.1c0.1,15.9,13.3,29,29.1,28.8
				c15.7-0.2,28.5-13.2,28.7-29C704.6,398.4,691.3,385.2,675.4,385.3z"/>
			<path class="st0" d="M675.6,463c-0.1,0-0.3,0-0.4,0l0,0c-26.9-0.2-48.7-22.2-48.6-49c0.1-13.1,5.3-25.3,14.6-34.5
				c9.3-9.1,21.5-14.2,34.5-14.2c0.1,0,0.2,0,0.3,0c12.9,0.1,25,5.2,34.1,14.4c9.3,9.4,14.3,22,14.2,35.3
				C724,441.5,702.2,463,675.6,463z M675.2,460c0.1,0,0.3,0,0.4,0c25,0,45.5-20.1,45.7-45c0.1-12.6-4.6-24.4-13.3-33.2
				c-8.5-8.6-19.9-13.4-31.9-13.5c-0.1,0-0.2,0-0.3,0c-12.2,0-23.7,4.7-32.4,13.3c-8.8,8.6-13.6,20.2-13.7,32.4
				C629.4,439.1,649.9,459.8,675.2,460L675.2,460z M675.4,444.7c-7.9,0-15.4-3.1-21.1-8.8c-5.9-5.8-9.1-13.4-9.2-21.5
				c0-8.1,3.1-15.8,8.8-21.6c5.7-5.8,13.3-9,21.4-9l0,0c0,0,0.1,0,0.1,0c8.1,0,15.7,3.2,21.6,9.1c5.8,5.8,8.9,13.4,8.9,21.3
				c-0.1,16.6-13.7,30.3-30.1,30.5C675.7,444.7,675.6,444.7,675.4,444.7z M675.4,386.8L675.4,386.8c-7.3,0-14.2,2.9-19.3,8.1
				c-5.1,5.2-8,12.1-7.9,19.5c0,7.3,3,14.2,8.3,19.4c5.3,5.2,12.1,8,19.3,7.9c14.9-0.2,27.1-12.5,27.2-27.5c0.1-7.2-2.8-14-8-19.2
				C689.7,389.7,682.8,386.8,675.4,386.8C675.5,386.8,675.4,386.8,675.4,386.8z"/>
		</g>
	</g>
</g>
</svg>
