<svg xmlns="http://www.w3.org/2000/svg" xmlns:xlink="http://www.w3.org/1999/xlink" version="1.1" id="Capa_1" x="0px" y="0px" style="enable-background:new 0 0 1200 1200;" xml:space="preserve" viewBox="233.04 264.13 706.33 721.95">
<g id="XmeZko.tif_00000036223770092688302210000003244321482564936372_">
	<g>
		<path class="st0" d="M939.1,372c0,185.3,0,370.7,0,556c-2.4,6.7-4.1,13.8-7.3,20.2c-13.8,27.4-37,37.7-66.9,37.6    c-170.7-0.3-341.4-0.1-512.1-0.1c-17.1,0-34.1,0.3-51.2-0.1c-40.9-0.9-67.8-28.2-68.2-69c-0.2-16.7,0-33.4,0-50.1    c0-160.6,0-321.1,0-481.7c0-44,27.5-71.4,71.4-71.4c24.7,0,49.4,0,74.1,0c8.6,0,17.2,0,26.6,0c0-6,0-10.7,0-15.4    c0-5.1-0.2-10.2,0.1-15.3c0.5-11.3,6.6-18,16.2-18.2c10.2-0.2,16.3,6.6,16.5,18.6c0.2,9.7,0,19.4,0,29.3c99.1,0,196.9,0,294.4,0    c0.5-1.5,0.9-2.2,0.9-2.9c0.1-8.4,0.1-16.7,0.2-25.1c0.2-13.2,5.8-20,16.2-20c10.3,0,16.3,7.2,16.5,20c0.2,9.3,0,18.6,0,28.7    c5.4,0,9.3,0,13.2,0c30.5,0,61-0.2,91.5,0c33.5,0.2,59,21.2,66,53.7C937.6,368.8,938.5,370.3,939.1,372z M266.2,477.8    c0,5,0,8.7,0,12.3c0,141,0,281.9,0,422.9c0,27.6,12.2,39.8,39.9,39.8c186.7,0,373.3,0,560,0c27.6,0,39.7-12.2,39.7-39.9    c0-141,0-281.9,0-422.9c0-3.9,0-7.7,0-12.1C692.1,477.8,479.8,477.8,266.2,477.8z M905.8,443.6c0-20.8,0.1-40.3,0-59.9    c-0.2-24.5-13.3-37.7-37.8-37.7c-30.5-0.1-61,0-91.6,0c-3.1,0-6.2,0.4-9.9,0.7c0,10,0.1,19.1,0,28.2c-0.2,12.6-6.5,20.4-16.3,20.5    c-9.9,0.2-16.2-7.5-16.4-20.1c-0.1-9.4,0-18.7,0-28.4c-99,0-196.8,0-294.4,0c-0.5,1.5-0.9,2.2-0.9,2.9c-0.1,8-0.1,16-0.2,24    c-0.1,13.8-5.8,21.5-16,21.6c-10.5,0.2-16.7-8-16.8-22.2c-0.1-8.6,0-17.3,0-26.7c-37.7,0-74.3-0.7-110.8,0.3    c-14.8,0.4-26.8,12.9-27.6,27.9c-1.2,22.7-0.3,45.6-0.3,69C479.7,443.6,692,443.6,905.8,443.6z"/>
		<path class="st0" d="M586,903.8c-17.8,0-35.6,0.1-53.4,0c-14.4-0.1-20.4-6.2-20.5-20.8c-0.1-35.6-0.1-71.2,0-106.8    c0.1-13.9,6.1-20.1,19.9-20.2c36-0.2,71.9-0.2,107.9,0c13.8,0.1,19.9,6.3,19.9,20.2c0.1,35.6,0.1,71.2,0,106.8    c0,14.6-6,20.6-20.5,20.8C621.6,904,603.8,903.8,586,903.8z M545.5,870c26.8,0,53.6,0,81,0c0-26.9,0-53.5,0-80.7    c-27.2,0-53.8,0-81,0C545.5,816.3,545.5,842.7,545.5,870z"/>
		<path class="st0" d="M315.6,632.8c0-18.2-0.1-36.3,0-54.5c0.1-12.8,6-18.8,18.6-18.8c36.7-0.1,73.4-0.1,110,0    c12.2,0,18.6,5.7,18.7,17.8c0.4,37.1,0.3,74.1,0,111.2c-0.1,12.2-6.1,18.4-18.2,18.5c-37,0.3-74.1,0.3-111.1,0    c-12.5-0.1-17.9-6.5-18-19.6C315.5,669.1,315.6,651,315.6,632.8z M429.7,673.4c0-27.3,0-53.9,0-80.6c-27.3,0-54,0-80.9,0    c0,27.1,0,53.5,0,80.6C375.8,673.4,402.4,673.4,429.7,673.4z"/>
		<path class="st0" d="M586.5,559.4c17.8,0,35.6-0.1,53.4,0c13.9,0.1,19.9,5.9,19.9,19.9c0.1,36,0.2,71.9,0,107.9    c-0.1,13.2-6.1,19.5-19.4,19.6c-36.3,0.3-72.6,0.3-109,0c-13.2-0.1-19.3-6.4-19.4-19.6c-0.2-36-0.1-71.9,0-107.9    c0.1-14,6-19.9,19.9-20C550.2,559.3,568.4,559.4,586.5,559.4z M545.7,592.7c0,27.2,0,53.8,0,80.6c27.5,0,54.1,0,80.9,0    c0-27.2,0-53.6,0-80.6C599.3,592.7,572.7,592.7,545.7,592.7z"/>
		<path class="st0" d="M856.4,633.6c0,17.4,0.1,34.9,0,52.3c-0.1,15-5.5,20.9-20,21c-36,0.2-71.9,0.2-107.9,0    c-13.5-0.1-19.5-6-19.6-19.4c-0.2-36.3-0.2-72.7,0-109c0.1-13.4,6.2-19.1,19.6-19.1c36-0.1,71.9-0.1,107.9,0    c14.1,0,19.9,5.8,20,19.7C856.5,597.3,856.4,615.5,856.4,633.6z M823.2,592.9c-27.5,0-54.1,0-80.5,0c0,27.4,0,54,0,80.5    c27.4,0,53.8,0,80.5,0C823.2,646.4,823.2,620,823.2,592.9z"/>
		<path class="st0" d="M315.6,828.9c0-17.8-0.1-35.6,0-53.4c0.1-13.3,5.9-19.5,19.2-19.5c36.3-0.2,72.6-0.2,109,0    c12.7,0.1,19.1,6.1,19.2,18.7c0.3,36.7,0.3,73.4,0,110.1c-0.1,13.1-6.5,19-20,19c-36,0.2-71.9,0.2-107.9,0    c-13.8-0.1-19.5-6.2-19.6-20.3C315.5,865.3,315.6,847.1,315.6,828.9z M428.9,870.5c0-27.4,0-54.5,0-81.2c-27.5,0-53.5,0-79.9,0    c0,27.3,0,54,0,81.2C376,870.5,402.4,870.5,428.9,870.5z"/>
		<path class="st0" d="M856.4,829.9c0,18.2,0.1,36.3,0,54.5c-0.1,13.2-6.1,19.3-19.4,19.4c-36.3,0.2-72.6,0.2-109,0    c-12.6-0.1-18.9-6.3-19-18.9c-0.3-36.7-0.3-73.4,0-110.1c0.1-12.6,6.4-18.7,19-18.8c36.3-0.2,72.6-0.2,109,0    c13.4,0.1,19.3,6.2,19.4,19.4C856.5,793.5,856.4,811.7,856.4,829.9z M742.4,870.3c27.6,0,54,0,80.5,0c0-27.4,0-54,0-81.1    c-27.1,0-53.4,0-80.5,0C742.4,816.4,742.4,843.1,742.4,870.3z"/>
	</g>
</g>
</svg>