<svg xmlns="http://www.w3.org/2000/svg" xmlns:xlink="http://www.w3.org/1999/xlink" version="1.1" id="Capa_1" x="0px" y="0px" style="enable-background:new 0 0 1200 1200;" xml:space="preserve" viewBox="184.63 196.99 822.82 806.78">

<g id="zpKFHW_00000157275339523318726400000006229454383793600183_">
	<g>
		<path class="st0" d="M184.9,966.7c3.3-7.8,6.3-14.9,9.4-22.1c19.7-46.2,39.4-92.4,59.2-138.5c1.2-2.7,1-4.7-0.4-7.3    c-23.6-41.6-39.3-86-46.9-133.3c-9.6-59.9-6.3-119.2,10.6-177.4c21.3-73.3,60.4-135.6,117-186.8c57.7-52.1,125.1-84.8,201.7-98.2    c35.9-6.2,71.9-7.4,108.1-3.9c59.8,5.8,115.7,23.9,167,55c85.9,52.2,145,126.1,176.8,221.6c15.9,47.9,22.1,97.3,19,147.6    c-6.3,100.4-44.7,186.8-114.6,259.1c-26.4,27.3-56.4,50.1-89.5,68.8c-45.2,25.6-93.5,41.8-144.9,48.6    c-61.3,8.1-121.4,2.5-180.1-16.8c-41.1-13.5-79-33.3-113.8-59.1c-1.1-0.8-3.1-1.3-4.5-1c-56.9,14.2-113.8,28.6-170.6,42.9    C187.5,966.2,186.6,966.3,184.9,966.7z M272,892.1c1.4-0.2,2.1-0.3,2.8-0.5c24.3-6.1,48.6-12.2,72.9-18.3    c16.4-4.1,31.3-1.2,45,8.8c85.5,62.4,180.5,83.8,284.1,62.6c85.2-17.4,154.5-62,207.2-131.1c52.9-69.2,76.2-147.9,71.4-234.9    c-2.6-46.8-14.4-91.4-35.2-133.4c-31-62.6-76.4-112.1-136.4-147.8c-64.1-38.1-133.6-53.9-207.9-48.3c-26.8,2-53.1,6.9-78.6,15.4    c-98.6,32.8-170.2,96.2-214.1,190.3C256.1,513.3,247.1,575,253.9,639c5.2,49,20.5,94.9,45.1,137.6c8.3,14.5,9.3,29.7,3,45.2    c-4.5,11.3-9.5,22.4-14.2,33.6C282.6,867.4,277.4,879.5,272,892.1z"/>
		<path class="st0" d="M589.2,672.4c-11.3,0-22.6,0-34,0c-4.7,0-7.1-1.8-7.2-6.2c-0.3-16.8-0.7-33.6,3.3-50.2    c5.1-20.9,17.1-37.1,33.9-49.9c14.6-11.1,29.9-21.4,44.8-32.3c3-2.2,6-4.7,8.3-7.7c6.5-8.5,5.2-19.5-2.8-26.6    c-8.8-7.8-19.4-11.1-30.8-12c-26.1-2-51.4,2.6-76.1,10.9c-10.1,3.4-20.3,6.7-30.4,10c-5.1,1.6-7.1,0.5-8.9-4.5    c-7.3-20-14.7-40.1-22.1-60.1c-2.1-5.8-1.2-7.8,4.8-9.6c20.4-6.5,40.7-13.8,61.4-19c34.5-8.8,69.6-10.2,104.8-3.7    c18.3,3.4,35.4,9.7,50.6,20.9c16.9,12.5,28,29,33.1,49.3c5.7,22.6,6.2,45.2-2.9,67.3c-6.8,16.6-18.3,30-32.2,41    c-13.9,10.9-28.3,21.1-42.7,31.3c-8.3,5.8-12.7,13.4-13,23.4c-0.2,6.3-0.1,12.7-0.1,19c0,7.2-1.6,8.8-9,8.8    C611,672.4,600.1,672.4,589.2,672.4z"/>
		<path class="st0" d="M544.2,745.6c0.2-9.4,1.1-16.9,4.1-24.1c4.9-11.9,13.5-19.8,25.7-23.6c11.8-3.7,23.8-3.6,35.7-0.2    c14.7,4.2,24.2,13.9,28.4,28.5c3.4,11.8,3.4,23.6,0.1,35.4c-5.1,18.4-19.7,29.9-39.6,31.1c-6.5,0.4-13.2,0.2-19.5-1.1    c-18.6-3.7-30.7-16.7-33.7-35.4C544.6,752.1,544.4,748,544.2,745.6z"/>
	</g>
</g>
</svg>