<svg xmlns="http://www.w3.org/2000/svg" xmlns:xlink="http://www.w3.org/1999/xlink" version="1.1" id="Capa_1" x="0px" y="0px" style="enable-background:new 0 0 1200 1200;" xml:space="preserve" viewBox="192.73 113.33 807.45 972.15">
<style type="text/css">
	.st0{fill:#999999;}
</style>
<g id="Layer_2_00000018946322441755387780000016007767090327659156_">
	<g id="Layer_1-2_00000104706395355630695880000003511980961050684095_">
		<g id="invoice_00000167373468567210842740000007923555039878175412_">
			<g>
				<path class="st0" d="M827.1,113.6H365.9c-95.5,0.1-172.8,77.5-172.9,172.9v625.8c0.1,95.5,77.5,172.8,172.9,172.9h461.1      c95.5-0.1,172.8-77.5,172.9-172.9V286.6C999.9,191.1,922.5,113.7,827.1,113.6z M917.6,912.4c-0.1,50-40.6,90.5-90.6,90.6H365.9      c-50-0.1-90.5-40.6-90.6-90.6V286.6c0.1-50,40.6-90.5,90.6-90.6h461.1c50,0.1,90.5,40.6,90.6,90.6V912.4z"/>
			</g>
			<g>
				<path class="st0" d="M782.3,868.4H387c-22.7,0-41.2-18.4-41.2-41.2s18.4-41.2,41.2-41.2h395.3c22.7,0,41.2,18.4,41.2,41.2      S805,868.4,782.3,868.4z"/>
			</g>
			<g>
				<path class="st0" d="M551.7,429.4H387c-22.7,0-41.2-18.4-41.2-41.2S364.3,347,387,347h164.7c22.7,0,41.2,18.4,41.2,41.2      S574.4,429.4,551.7,429.4z"/>
			</g>
			<g>
				<path class="st0" d="M551.7,648.9H387c-22.7,0-41.2-18.4-41.2-41.2c0-22.7,18.4-41.2,41.2-41.2h164.7      c22.7,0,41.2,18.4,41.2,41.2C592.9,630.5,574.4,648.9,551.7,648.9z"/>
			</g>
			<g>
				<path class="st0" d="M847.2,562.8c0,40.8-24.3,75.9-59.3,91.7v13.7c0,22.7-18.4,41.2-41.2,41.2s-41.2-18.4-41.2-41.2v-4.9h-4.9      c-22.7,0-41.2-18.4-41.2-41.2s18.4-41.2,41.2-41.2h46.1c10,0,18.1-8.1,18.1-18.1c0-10-8.1-18.1-18.1-18.1      c-55.5,0-100.5-45-100.5-100.5c0-40.8,24.3-76,59.3-91.7v-13.2c0-22.7,18.4-41.2,41.2-41.2s41.2,18.4,41.2,41.2v4.4h5      c22.7,0,41.2,18.4,41.2,41.1c0,22.7-18.4,41.2-41.1,41.2h-46.2c-1.2,0-2.4,0.1-3.5,0.3c-8.3,1.6-14.6,9-14.6,17.8      c0,10,8.1,18.1,18.1,18.1C802.2,462.3,847.2,507.3,847.2,562.8z"/>
			</g>
			<g>
				<path class="st0" d="M753.1,426.1c-2.1,0.3-4.2,0.5-6.4,0.5c-1.2,0-2.3,0-3.5-0.1c1.1-0.2,2.3-0.3,3.5-0.3H753.1z"/>
			</g>
		</g>
	</g>
</g>
</svg>