<svg xmlns="http://www.w3.org/2000/svg" xmlns:xlink="http://www.w3.org/1999/xlink" version="1.1" id="Capa_1" x="0px" y="0px" style="enable-background:new 0 0 1200 1200;" xml:space="preserve" viewBox="247.24 192.93 705.33 817.31">

<g>
	<path class="st0" d="M395.6,679.5c0-2.7,0-5.2,0-7.7c0-152.2,0-304.3,0-456.5c0-3.4,0.1-7,1.2-10.2c2.5-7.9,9.3-11.9,19.3-11.9   c48,0,96,0,144,0c123.8,0,247.6,0,371.4,0c13.3,0,20.7,7.2,20.7,20.4c0,228-0.1,456,0.1,684c0,21.3-2.5,41.8-13.6,60.3   c-20.1,33.5-49.7,51.7-88.9,51.8c-145.4,0.3-290.9,0.4-436.3,0c-79.2-0.2-145.2-54.3-162.3-131.7   c-19.4-88.2,39.9-178.3,128.9-195.7C385,681.3,389.8,680.5,395.6,679.5z M432.3,679.5c1.1,0.3,1.6,0.4,2.2,0.5   c62.2,9.5,106.4,42.9,132,100.4c2,4.4,4.1,5.7,8.7,5.6c62.9-0.2,125.8-0.2,188.7,0.1c4.4,0,9.3,1.7,13.1,4.1   c6.1,3.8,7.1,10.6,7.1,17.4c0,33.6-0.2,67.3,0,100.9c0.3,41.8,39.5,72.5,80.3,63.2c31-7.1,51.2-33.1,51.3-66.4   c0.1-59.6,0-119.3,0-178.9c0-163.3,0-326.5,0-489.8c0-2.3,0-4.5,0-6.6c-161.8,0-322.6,0-483.4,0C432.3,380,432.3,529.6,432.3,679.5   z M414.1,714.3c-71-0.4-129.3,57.7-129.6,129.2c-0.3,71.2,57.5,129.4,128.9,130c70.9,0.5,129.6-57.7,130-128.9   C543.8,773.2,485.7,714.7,414.1,714.3z M578.2,822.8c7,61.4-15.2,110.4-61,150.4c85.1,0,169.3,0,254.2,0c-0.9-1.4-1.4-2.3-2-3.1   c-15.3-19.7-22.4-41.9-22.1-66.9c0.3-24.9,0.1-49.8,0.1-74.7c0-1.9,0-3.8,0-5.7C690.5,822.8,634.6,822.8,578.2,822.8z"/>
	<path class="st0" d="M674.7,479.4c43.3,0,86.5,0,129.8,0c8.2,0,14.6,3.4,17.9,11c3.1,7.1,1.9,13.9-3.4,19.7   c-4.1,4.5-9.4,5.8-15.3,5.8c-31.4-0.1-62.9,0-94.3,0c-54.5,0-109,0-163.6,0c-10.5,0-17.6-4.9-19.8-13.6c-3.1-12,5.6-22.9,18.5-22.9   c28.7-0.1,57.4,0,86.1,0C645.2,479.4,660,479.4,674.7,479.4C674.7,479.4,674.7,479.4,674.7,479.4z"/>
	<path class="st0" d="M674.8,622.5c43.1,0,86.2,0,129.2,0c13.1,0,21.6,9.7,19.5,21.8c-1.3,7.6-7.9,13.7-16.2,14.7   c-1.4,0.2-2.9,0.1-4.4,0.1c-85.6,0-171.2,0-256.8,0c-10.4,0-17.5-4.6-20.1-12.7c-3.9-12.3,4.9-23.8,18.4-24c14.9-0.1,29.8,0,44.7,0   C617.7,622.5,646.2,622.5,674.8,622.5z"/>
	<path class="st0" d="M674.2,372.7c-42.9,0-85.8,0-128.7,0c-11.4,0-18.5-5.6-20.1-15.8c-1.4-8.5,4.1-17.1,12.8-19.7   c2.2-0.7,4.6-0.8,7-0.8c86.3,0,172.7,0,259,0c11.7,0,19.6,7.3,19.6,18c0.1,11.1-7.7,18.3-19.8,18.3   C760.7,372.7,717.4,372.7,674.2,372.7z"/>
	<path class="st0" d="M432,926.1c0,4.1,0.1,8.3,0,12.5c-0.3,10.2-8.2,18-18.1,18c-9.9,0-17.7-7.6-18.2-17.9c0-0.7,0-1.5,0-2.2   c-0.1-12.7-0.1-12.7-12.6-16c-3.3-0.9-6.7-1.6-10-2.7c-9.6-3.2-14.7-12.5-12.2-21.9c2.6-9.8,11.9-15.4,21.8-13   c10.8,2.6,21.4,5.6,32.2,8.2c5.2,1.3,9.8-0.5,13.1-4.7c3.5-4.4,4.5-9.7,1.5-14.2c-2.2-3.3-6.2-6.1-10-7.5c-7.1-2.7-14.7-4.1-22-6.1   c-21.4-6.1-36.1-24-37.4-45.2c-1.3-21.7,10.7-40.8,31.4-49.4c3.4-1.4,4.4-3.2,4.1-6.5c-0.2-2.9-0.2-5.8,0-8.7   c0.6-10,8.3-17.3,18.1-17.3c10.1,0,17.8,7.6,18.2,17.9c0,0.9,0,1.8,0,2.7c0.1,12.1,0.1,12.1,12,15.3c3.2,0.8,6.3,1.6,9.5,2.5   c10.5,3.1,16,12.7,13.3,22.8c-2.6,9.6-12.5,15-22.8,12.4c-9.7-2.5-19.2-5.3-28.9-7.8c-10.9-2.8-19.5,4.5-18,15   c0.8,5.9,4.5,9.4,10,10.9c7.5,2.1,15,4.2,22.6,6.2c22.5,6.2,36.7,23.8,38,46.9c1.1,20.7-11.8,40-32.4,48.3   C434.2,925,433.3,925.5,432,926.1z"/>
</g>
</svg>