<?xml version="1.0" encoding="utf-8"?>
<!-- Generator: Adobe Illustrator 25.4.1, SVG Export Plug-In . SVG Version: 6.00 Build 0)  -->
<svg version="1.1" id="Capa_1" xmlns="http://www.w3.org/2000/svg" xmlns:xlink="http://www.w3.org/1999/xlink" x="0px" y="0px"
	 viewBox="0 0 1200 1200" style="enable-background:new 0 0 1200 1200;" xml:space="preserve">
<style type="text/css">
	.st0{fill:#999999;}
</style>
<g id="_x34_17pAC.tif_00000075144403795652221580000008975377532392111038_">
	<g>
		<g>
			<path class="st0" d="M917,515.1c-37.4-33.4-76-68-113.7-102.2c-2.6-2.3-4.7-5.7-5.7-8.9c-12-38.1-34.8-71.6-65.9-97
				c-31.1-25.4-68.4-40.8-107.8-44.7l-0.2,0c-0.6,0-1.4-0.3-2.2-0.5c-0.6-0.2-1.1-0.3-1.7-0.4l-0.7-0.2h-32.3l-0.5,0.1
				c-3.7,0.7-7.6,1.4-11.3,2c-8.9,1.5-18.1,3-27.1,5.7c-69.4,20.7-116.5,66.4-140.1,135.9c-0.9,2.8-2.7,5.6-4.6,7.4l-16,14.4
				c-28.9,26.1-58.9,53.2-88.6,79.3c-13.8,12.1-27.6,25.7-32.1,46.6l-0.1,0.6v329.6l0.3,0.9c0.3,0.8,0.6,1.7,0.8,2.5
				c0.6,1.6,1.1,3.1,1.5,4.6c7.6,25.3,30.5,42.8,56.9,43.6h549.6c30.7,0,54.3-17.3,61.7-45.2c1.5-5.6,2.2-11.7,2.2-18.1
				c0-51.1,0-103.1,0-153.3c0-50.2,0-102.2,0-153.3C939.4,545,931.9,528.4,917,515.1z M602.3,295.3h0.7c45.2,0,87.7,17.5,119.7,49.5
				c16.1,16,28.6,34.8,37.2,55.2c8.5,20.4,13,42.6,13.2,65.4c0.2,45-17.2,87.6-49.2,119.9c-32.1,32.5-74.9,50.4-120.4,50.6h-0.5
				c-45.3,0-88-17.6-120.1-49.5c-32.2-32.1-50.1-74.9-50.2-120.5C432.3,372.2,508.5,295.7,602.3,295.3z M398.3,462.3
				c0.2,31.8,6.1,60.9,17.5,86.8c13.4,30.2,34.7,56.8,63.5,79.1c39.8,30.9,86.4,44.7,138.3,41c55.3-4,105.5-29.6,141.5-72.1
				c32-37.9,49.2-86.3,48.2-134.6c29.3,26.2,56.8,50.9,80.8,72.4C806,594.6,718.6,658,620.8,728.8c-13.2,9.6-23.6,9.7-37,0.4
				C478.6,656.7,392,596.9,311.1,541c-0.1,0-0.1-0.1-0.2-0.1C344.8,510.5,372.4,485.7,398.3,462.3z M656.4,745.8
				c58.1,42.2,117.2,85,174.4,126.4l37.9,27.4H336.9c10-7.3,20.2-14.6,30.3-21.7l0.1-0.1c12.7-9.2,25.5-18.5,38.2-27.7
				c46.4-33.6,94.3-68.3,141.4-102.6c1.2-0.9,1.8-1,1.8-1c0.1,0,0.5,0.1,1.6,1c5.2,4,11.1,8.1,18,12.4c22.7,14.2,45.7,14.2,68.2-0.2
				c6.8-4.4,13.2-9.3,19.2-13.9c0.1-0.1,0.2-0.1,0.2-0.2C656.2,745.6,656.2,745.7,656.4,745.8z M300.5,873.5
				c-0.2-77-0.1-155.2-0.1-230.8c0-22.5,0-45.1,0-67.6c39.3,27.1,78.4,54.1,117.6,81.2c33.5,23.1,67,46.3,100.8,69.6
				c-56.9,41.1-114.5,82.9-170.2,123.3l-46.3,33.5C301.3,879.2,300.5,876.2,300.5,873.5z M905.2,870.9c0,3.6-0.8,7.4-1.9,11.7
				c-36.3-26.3-72.2-52.3-108-78.2c-36.8-26.6-73.4-53.2-110.3-79.9c43.8-31.8,87.5-63.5,131.3-95.3c29.5-21.5,59.2-43,89-64.6v0.4
				C905.4,679.2,905.4,779.3,905.2,870.9z"/>
		</g>
		<g>
			<path class="st0" d="M760.1,437.5c-7.7-42.5-30.8-79.2-65-103.1c-34.1-23.9-76.4-33.3-119.3-26.5c-41.4,6.5-79.3,30.6-104.2,66.1
				c-24.9,35.5-34.5,79.4-26.5,120.5c9.4,48.4,39,89.2,81.2,112.2c23.5,12.8,49.6,19.2,75.9,19.2c20.9,0,41.9-4,62-12.2
				c18.8-7.6,36-19,51.1-34c7.4-7.4,7.7-17.5,0.6-24.6c-6.4-6.4-16.5-6.5-23.8-0.2c-0.9,0.8-1.7,1.5-2.4,2.2
				c-0.4,0.4-0.7,0.7-1.1,1.1c-22.7,20.8-49.5,32-79.5,33.4c-40.8,1.9-78.8-15.1-104.4-46.7c-25.6-31.7-34.2-72.5-23.8-112.2
				c6.9-26.1,21.8-48.9,43.2-65.8c21.3-16.9,47-26.5,74.4-27.5c54.1-2.2,104.8,32.3,123.2,83.8c8.4,23.8,7.6,48,6.7,73.6l0,0.8
				c-0.1,1.8-1.6,4.7-2.5,6.3c-4.7,8.3-14.4,12.4-23.7,10.1c-9.5-2.4-16.1-10.6-16.2-19.9c-0.1-22.2-0.1-44.9-0.1-66.8
				c0-7.4,0-14.9,0-22.3c0-0.4,0-0.8,0-1.2c0-1.8,0-3.9-0.3-6c-1.3-9.3-8.5-15.6-17.5-15.2c-8.9,0.3-15.4,6.7-16.2,16.1
				c-21.3-14.8-41.9-16.9-56.2-15.7c-22.5,1.9-44.1,13.2-57.7,30.2c-13,16.3-19.5,36.8-18.2,57.7c1.3,21,10.3,40.4,25.3,54.8
				c16,15.3,38.1,23.7,60.7,22.8c20.5-0.8,40.1-9.2,55.8-24c12.5,18.6,35.5,28,57.2,23.2c24.2-5.3,41.9-24.1,43.1-45.7
				C763.1,482.1,764,459.2,760.1,437.5z M602.8,514.5h-0.2c-26.9,0-48.8-21.8-49-48.7c-0.1-13,5-25.3,14.3-34.6
				c9.4-9.4,21.8-14.5,35-14.5h0.2c27.1,0.1,49,22.1,48.9,49.1C651.8,492.6,629.8,514.5,602.8,514.5z"/>
		</g>
	</g>
</g>
</svg>
