<svg xmlns="http://www.w3.org/2000/svg" xmlns:xlink="http://www.w3.org/1999/xlink" version="1.1" id="Capa_1" x="0px" y="0px" style="enable-background:new 0 0 1200 1200;" xml:space="preserve" viewBox="449.2 434 295.7 408.34">
<style type="text/css">
	.st0{fill:#999999;}
</style>
<g id="OEIpkf.tif">
	<g>
		<path class="st0" d="M744.9,600.4c0,64.5,0,128.9,0,193.4c-0.3,9.3-0.6,18.6-0.9,28c-0.4,12.3-8.1,19.8-20.3,20.1    c-6,0.1-12,0.4-18,0.4c-67.2,0-134.3,0.1-201.5,0c-12.3,0-24.5-0.3-36.8-0.7c-9.4-0.3-17.6-8.8-17.8-18.2    c-0.2-7.4-0.3-14.8-0.3-22.2c0-103.5-0.1-207-0.1-310.4c0-12.8,0.4-25.7,0.6-38.5c0.1-5.9,3.2-10,7.5-13.7    c4.7-4,10.3-3.7,15.7-4.6c41.5,0,83.1,0,124.6,0c3.6,0.3,7.2,0.7,10.8,0.8c4.7,0.2,8.9,1.2,12.4,5c4.7,5.1,10.1,9.6,15,14.6    c34.1,34.2,68,68.5,102.2,102.5c5.2,5.2,6.1,11.1,6.2,17.8C744.3,583.1,744.7,591.7,744.9,600.4z M730.2,579.4c-2.5,0-4,0-5.5,0    c-26.6,0-53.3-0.5-79.9,0.1c-25.7,0.6-46.5-20-45.8-45.7c0.7-26.6,0.2-53.3,0.2-79.9c0-1.6,0-3.2,0-5.3c-2.1,0-3.6,0-5.1,0    c-40.8,0-81.7,0-122.5,0c-6.5,0-7.8,1.4-7.8,7.9c0,121.1,0,242.2,0,363.3c0,6.4,1.5,7.8,7.9,7.8c83.4,0,166.7,0,250.1-0.1    c7.1,0,8.2-1.2,8.2-8.3c0.1-71.1,0.2-142.3,0.2-213.4C730.2,597.1,730.2,588.5,730.2,579.4z M725,565.1    c-37.2-37.4-74.2-74.5-111.4-111.8c-0.1,0.7-0.1,1.4-0.1,2c0,26.9,0,53.8,0,80.7c0,2.3,0.3,4.8,0.8,7c3.4,13.6,14.5,21.9,29.3,22    c22.4,0.1,44.9,0,67.3,0C715.6,565.1,720.3,565.1,725,565.1z"/>
		<path class="st0" d="M589.3,762c0-1.5,0-3,0-4.5c0-32.8,0-65.5,0-98.3c0-1.5-0.1-3.1,0.1-4.6c0.5-3.6,3.4-6.2,6.8-6.3    c3.3-0.1,6.4,2.4,7.1,5.9c0.3,1.5,0.2,3.1,0.2,4.6c0,33,0,66.1,0,99.1c0,1.5,0,3.1,0,5.4c1.5-1.3,2.5-2.1,3.4-3    c12.2-12.2,24.4-24.4,36.7-36.6c1.1-1.1,2.2-2.2,3.4-3c3.1-2.1,6.2-1.7,8.8,0.8c2.6,2.5,3,5.6,0.9,8.7c-0.9,1.4-2.1,2.6-3.3,3.8    c-17.1,17.2-34.2,34.4-51.3,51.6c-3.3,3.3-7.9,3.3-11.1,0c-17.1-17.2-34.1-34.4-51.2-51.6c-5.1-5.1-5.8-9.2-2.3-12.6    c3.5-3.3,7.3-2.6,12.3,2.3c11.8,11.8,23.7,23.6,35.4,35.5c1.1,1.1,1.8,2.5,2.7,3.7C588.4,762.6,588.8,762.3,589.3,762z"/>
	</g>
</g>
</svg>