<svg xmlns="http://www.w3.org/2000/svg" xmlns:xlink="http://www.w3.org/1999/xlink" version="1.1" id="Capa_1" x="0px" y="0px" style="enable-background:new 0 0 1200 1200;" xml:space="preserve" viewBox="192.73 113.43 807.45 972.15">

<g id="Layer_2_00000095307496098048912430000015035170762100283068_">
	<g id="Layer_1-2_00000171720969941067980050000009741939725663544504_">
		<g id="document_00000010302820946277123920000014014954304091308211_">
			<g>
				<path class="st0" d="M988,323.3L790.3,125.7c-7.7-7.7-18.2-12-29.2-12H365.9c-95.5,0.1-172.8,77.5-172.9,172.9v625.8      c0.1,95.5,77.5,172.8,172.9,172.9h461.1c95.5-0.1,172.8-77.5,172.9-172.9v-560C1000,341.5,995.7,331,988,323.3z M736.5,196h7.6      l173.6,172.9v8.2H736.5V196z M917.6,912.4c-0.1,50-40.6,90.5-90.6,90.6H365.9c-50-0.1-90.5-40.6-90.6-90.6V286.6      c0.1-50,40.6-90.5,90.6-90.6h288.2v222.3c0,22.7,18.4,41.2,41.2,41.2h222.3V912.4z"/>
			</g>
			<g>
				<path class="st0" d="M645.9,668.2H382.4c-22.7,0-41.2-18.4-41.2-41.2s18.4-41.2,41.2-41.2h263.5c22.7,0,41.2,18.4,41.2,41.2      S668.6,668.2,645.9,668.2z"/>
			</g>
			<g>
				<path class="st0" d="M777.7,876.7H382.4c-22.7,0-41.2-18.4-41.2-41.2c0-22.7,18.4-41.2,41.2-41.2h395.3      c22.7,0,41.2,18.4,41.2,41.2C818.8,858.2,800.4,876.7,777.7,876.7z"/>
			</g>
		</g>
	</g>
</g>
</svg>