<?xml version="1.0" encoding="utf-8"?>
<!-- Generator: Adobe Illustrator 25.4.1, SVG Export Plug-In . SVG Version: 6.00 Build 0)  -->
<svg version="1.1" id="Capa_1" xmlns="http://www.w3.org/2000/svg" xmlns:xlink="http://www.w3.org/1999/xlink" x="0px" y="0px"
	 viewBox="0 0 1200 1200" style="enable-background:new 0 0 1200 1200;" xml:space="preserve">
<style type="text/css">
	.st0{fill:#999999;}
</style>
<g>
	<g>
		<path class="st0" d="M591,778.9h-0.1c-3.8,0-7.7-1.5-10.6-4.4c-0.5-0.5-1-1.1-1.4-1.6l1.6,1.6C583.4,777.4,587.2,778.9,591,778.9z
			"/>
	</g>
	<g>
		<path class="st0" d="M893.8,482.3L603.2,772.9l-1.6,1.6c-2.9,2.9-6.7,4.4-10.5,4.4c-3.8,0-7.6-1.5-10.5-4.4l-1.6-1.6L288.3,482.3
			c-5.9-5.9-5.9-15.4,0-21.2s15.4-5.9,21.2,0L591,742.6L872.6,461c5.9-5.9,15.4-5.9,21.2,0S899.7,476.4,893.8,482.3z"/>
		<path class="st0" d="M603.2,772.9c-0.4,0.6-0.9,1.1-1.4,1.6c-2.9,2.9-6.8,4.4-10.6,4.4H591c3.8,0,7.6-1.5,10.5-4.4L603.2,772.9z"
			/>
	</g>
</g>
</svg>
