<svg xmlns="http://www.w3.org/2000/svg"
    xmlns:xlink="http://www.w3.org/1999/xlink" width="1200" zoomAndPan="magnify" viewBox="0 0 900 899.99999" height="1200" preserveAspectRatio="xMidYMid meet" version="1.0">
    <path class="st0" d="M 515.023438 890.871094 L 378.234375 890.871094 L 378.234375 767.402344 C 346.460938 759.433594 310.042969 749.144531 284.320312 735.828125 L 196.761719 823.386719 L 73.695312 700.421875 L 161.253906 612.859375 C 147.9375 587.136719 137.648438 550.824219 129.679688 519.046875 L 6.308594 519.046875 L 6.308594 382.160156 L 129.78125 382.160156 C 137.75 350.382812 148.039062 313.96875 161.355469 288.347656 L 73.796875 200.785156 L 196.863281 77.820312 L 284.421875 165.378906 C 310.144531 152.0625 346.460938 141.773438 378.234375 133.804688 L 378.234375 10.234375 L 515.023438 10.234375 L 515.023438 133.703125 C 546.796875 141.574219 583.011719 151.863281 608.835938 165.277344 L 696.394531 77.71875 L 819.464844 200.6875 L 731.902344 288.246094 C 745.21875 314.070312 755.609375 350.382812 763.476562 382.160156 L 886.949219 382.160156 L 886.949219 518.945312 L 763.476562 518.945312 C 755.507812 550.722656 745.21875 587.136719 731.902344 612.761719 L 819.464844 700.320312 L 696.496094 823.488281 L 608.835938 735.929688 C 583.113281 749.242188 546.796875 759.535156 515.023438 767.503906 Z M 403.453125 865.652344 L 489.804688 865.652344 L 489.804688 747.628906 L 499.488281 745.308594 C 520.46875 740.265625 576.152344 726.75 604.5 709.5 L 612.972656 704.355469 L 696.496094 787.878906 L 783.855469 700.519531 L 700.328125 616.996094 L 705.472656 608.523438 C 722.722656 580.277344 736.242188 524.496094 741.285156 503.511719 L 743.605469 493.828125 L 861.628906 493.828125 L 861.628906 407.480469 L 743.605469 407.480469 L 741.285156 397.796875 C 733.316406 364.910156 721.007812 318.207031 705.472656 292.785156 L 700.328125 284.3125 L 783.855469 200.785156 L 696.496094 113.429688 L 612.972656 196.953125 L 604.5 191.808594 C 578.976562 176.273438 532.375 163.96875 499.488281 156 L 489.804688 153.679688 L 489.804688 35.453125 L 403.453125 35.453125 L 403.453125 153.578125 L 393.769531 155.898438 C 360.886719 163.867188 314.179688 176.171875 288.761719 191.707031 L 280.285156 196.851562 L 196.761719 113.328125 L 109.40625 200.6875 L 192.929688 284.210938 L 187.785156 292.683594 C 170.535156 320.929688 157.015625 376.710938 151.972656 397.695312 L 149.652344 407.378906 L 31.628906 407.378906 L 31.628906 493.726562 L 149.652344 493.726562 L 151.972656 503.410156 C 157.015625 524.394531 170.535156 580.175781 187.785156 608.421875 L 192.929688 616.894531 L 109.40625 700.421875 L 196.761719 787.777344 L 280.285156 704.253906 L 288.761719 709.398438 C 317.105469 726.75 372.789062 740.164062 393.769531 745.308594 L 403.453125 747.628906 Z M 403.453125 865.652344 " fill-opacity="1" fill-rule="nonzero"/>
    <path class="st0" d="M 446.628906 630.515625 C 347.367188 630.515625 266.667969 549.8125 266.667969 450.554688 C 266.667969 351.292969 347.367188 270.59375 446.628906 270.59375 C 545.890625 270.59375 626.589844 351.292969 626.589844 450.554688 C 626.589844 549.8125 545.890625 630.515625 446.628906 630.515625 Z M 446.628906 295.8125 C 361.289062 295.8125 291.886719 365.210938 291.886719 450.554688 C 291.886719 535.894531 361.289062 605.296875 446.628906 605.296875 C 531.96875 605.296875 601.371094 535.894531 601.371094 450.554688 C 601.371094 365.210938 531.96875 295.8125 446.628906 295.8125 Z M 446.628906 295.8125 " fill-opacity="1" fill-rule="nonzero"/>
</svg>