<svg xmlns="http://www.w3.org/2000/svg" xmlns:xlink="http://www.w3.org/1999/xlink" version="1.1" id="Capa_1" x="0px" y="0px" style="enable-background:new 0 0 1200 1200;" xml:space="preserve" viewBox="270.13 386.78 659.95 426.5">

<g id="FuTvTH_00000045616712075130649750000010800693685931183266_">
	<g>
		<path class="st0" d="M929.6,600.2c0,53.2,0,106.4,0,159.7c0,16-5.4,29.6-17.4,40.1c-8.9,7.8-19.3,12.5-31.4,12.6    c-3.5,0-7,0.2-10.6,0.3c-65.2,0-130.4,0-195.6,0c-14.7,0-29.4,0-44.1,0c-11.2,0-22.3,0-33.5,0c-8.8,0-17.6-0.2-26.4-0.2    c-14.1,0-28.2,0.2-42.2,0.2c-69.2,0-138.3,0.3-207.5-0.1c-27.2-0.1-50.6-22.1-50.5-52.6c0.2-58.3,0.1-116.7,0.1-175    c0-48.4,0-96.8,0-145.1c0-8.6,1.5-16.8,5.4-24.5c5.2-10.4,13.1-18.1,23.6-23.3c7.3-3.6,14.9-5.2,22.9-5.2c64.3-0.1,128.7,0,193,0    c10.8,0,21.6,0,32.4,0c12.5,0,25,0,37.5,0c9.9,0,19.9,0.2,29.8,0.2c12.2,0,24.4-0.2,36.7-0.2c74.9,0,149.7,0,224.6,0    c16.1,0,29.9,5.5,40.6,17.6c8.9,10,12.8,22,12.8,35.4C929.5,493.4,929.6,546.8,929.6,600.2z M714.4,782    C714.4,782.1,714.4,782.1,714.4,782c0.6,0.1,1.2,0.1,1.9,0.1c52.9,0,105.7,0,158.6-0.1c4,0,8.3-0.4,11.8-2    c8.6-3.7,12.1-10.9,12.1-20.1c0-106.6,0-213.2,0-319.9c0-0.9,0-1.8,0-2.6c-0.4-8.6-6.4-16.5-14.7-18.6c-3.3-0.8-6.8-0.9-10.2-0.9    c-63.8-0.1-127.6,0-191.4,0c-4,0-8.1-0.2-12.1-0.2c-7.3,0-14.5,0.2-21.8,0.2c-7.2,0-14.3-0.2-21.5-0.2c-8.5,0-17,0.2-25.5,0.2    c-6,0-11.9-0.2-17.9-0.2c-5.4,0-10.9,0.2-16.3,0.2c-6,0-11.9-0.3-17.9-0.3c-11,0-22.1,0.2-33.1,0.2c-64.5,0-129,0-193.5,0    c-2.7,0-5.5,0.3-8,1.1c-8.4,2.8-13.6,10.8-13.6,20.3c0,41.2,0,82.3,0,123.5c0,65.7,0,131.5,0.1,197.2c0,3.3,0.5,6.8,1.8,9.7    c3.9,8.8,11.1,12.4,20.6,12.4c32.4-0.1,64.9,0,97.3,0c33.4,0,66.8,0.2,100.2,0.2c9.8,0,19.5-0.2,29.3-0.3    C605.1,782,659.7,782,714.4,782z"/>
		<path class="st0" d="M724.2,554.1c-34.9,0-69.8,0-104.7,0c-14.3,0-25.5-10.2-25.9-24.5c-0.4-14.2-0.4-28.4,0.1-42.5    c0.5-12.8,11.4-23,24.2-23.5c1.6-0.1,3.2,0,4.8,0c68.6,0,137.1,0,205.7,0c13.7,0,24.3,9,26.3,22.3c0.2,1.2,0.2,2.5,0.2,3.7    c0,12.9,0,25.7,0,38.6c0,14.7-11.3,26-25.9,26C794,554.1,759.1,554.1,724.2,554.1z M823.8,494.6c-66.6,0-132.9,0-199.3,0    c0,9.7,0,19.1,0,28.6c66.6,0,132.9,0,199.3,0C823.8,513.6,823.8,504.1,823.8,494.6z"/>
		<path class="st0" d="M443.4,703.7c-25.4,0-50.7,0-76.1,0c-14.2,0-24.9-10.5-25.3-24.6c-0.5-15.1,2-29.5,9.8-42.6    c9.2-15.4,22.1-26.3,39.3-32.3c8.4-2.9,17-3.8,25.7-3.9c9.3-0.1,18.6,0.2,27.9,0.2c8.6,0,17.2-0.2,25.9-0.2    c39.1-0.1,67.6,27,73,60.6c1.2,7.6,1.4,15.5,0.4,23.1c-1.5,11.7-12.1,19.8-23.9,19.8c-12.8,0-25.5,0-38.3,0    C469,703.7,456.2,703.7,443.4,703.7z M513.8,672.7c0-1.1,0.1-1.9,0-2.7c-0.3-2.1-0.5-4.2-0.9-6.3c-3-13.4-11.1-23.1-23.3-29    c-5.8-2.9-12.2-3.9-18.9-3.7c-8.4,0.2-16.8-0.1-25.2-0.1c-9.7,0-19.3,0.2-29,0.1c-5.4-0.1-10.7,0.5-15.7,2.4    c-13.3,4.9-22,14.2-26.2,27.7c-1.1,3.7-1.4,7.6-2.1,11.7C420,672.7,466.7,672.7,513.8,672.7z"/>
		<path class="st0" d="M384,528c1-25.1,10.9-45.2,33.3-57.8c20.8-11.7,47.7-7.7,64.8,9c27.3,26.7,27.7,70,0.7,96.9    c-8.7,8.6-19.3,14.1-31.6,15.8c-12.2,1.7-23.9-0.5-34.6-6.6c-20-11.3-29.8-29-32.2-51.3C384.1,532,384.1,530,384,528z     M414.9,526.9c0,7.5,1.5,13.4,4.4,19c10,19.2,33.1,21.2,45.8,3.9c9.2-12.5,9-32-0.5-44.2c-10.1-13-26.8-14.9-38.2-4.4    C418.4,508.4,415.1,517.6,414.9,526.9z"/>
		<path class="st0" d="M724.1,663.5c38.3,0,76.6,0,115,0c7.4,0,12.7,4,14.6,10.7c2,7.1-0.5,14.9-6.5,18c-2.7,1.4-6.2,2.1-9.3,2.1    c-60.4,0.1-120.9,0.1-181.3,0.1c-15.7,0-31.4,0-47,0c-15.1,0.1-18.5-15.2-13.4-23.9c2.9-5.1,7.6-7,13.3-7    C647.7,663.5,685.9,663.5,724.1,663.5z"/>
		<path class="st0" d="M728.2,605.4c38.3,0,76.6,0,115,0c7.4,0,12.7,4,14.6,10.7c2,7.1-0.5,14.9-6.5,18c-2.7,1.4-6.2,2.1-9.3,2.1    c-60.4,0.1-120.9,0.1-181.3,0.1c-15.7,0-31.4,0-47,0c-15.1,0.1-18.5-15.2-13.4-23.9c2.9-5.1,7.6-7,13.3-7    C651.7,605.4,690,605.4,728.2,605.4z"/>
	</g>
</g>
</svg>