<svg xmlns="http://www.w3.org/2000/svg" xmlns:xlink="http://www.w3.org/1999/xlink" version="1.1" id="Capa_1" x="0px" y="0px" style="enable-background:new 0 0 1200 1200;" xml:space="preserve" viewBox="434.6 439.9 345.38 398.07">
<style type="text/css">
	.st0{fill:#999999;}
</style>
<g id="_x37_LxSu4.tif">
	<g>
		<path class="st0" d="M602.9,629.8c3.5-3.2,6.2-6,9.3-8.3c11.8-8.8,23.6-17.4,35.5-26c2.1-1.5,4.3-3.1,6.6-4.3    c10.8-5.9,21.5-3.6,28.7,6.4c3.7,5.1,6.4,10.8,9.9,16.1c1.2,1.8,3,3.6,4.9,4.6c11.9,6.6,23.9,13.1,35.9,19.4    c15.1,7.9,21.8,20.7,23.2,37.3c1.7,20.6,3.7,41.2,6.3,61.7c0.8,6.7,3.7,13.2,6.3,19.5c2.2,5.3,5.7,9.9,7.9,15.2    c5.2,12,2.5,21.9-7.8,30c-2.2,1.7-4.5,3.3-6.9,4.7c-15.1,8.7-30.2,17.4-45.4,26c-1.6,0.9-3.4,1.8-5.1,2.5    c-14.9,6.6-26.3,3.7-34.1-10.4c-9.8-17.8-23.3-31.6-39.7-43.3c-17.4-12.5-33.9-26.1-50.9-39.1c-7.1-5.4-10.7-12.4-11.1-21    c-0.3-8,0.6-16.1,0.2-24.2c-0.5-12.9-1.5-25.7-2.6-38.5c-0.2-1.7-1.8-3.7-3.3-4.9c-7-5.4-10.3-12.3-10.5-21.1    c-0.1-4.2-1.3-8.4-1.6-12.6c-0.4-4.9,2.3-7.3,7.3-6.6c6.1,0.9,12.2,1.9,18.3,2.6c4,0.4,7.2,2,9.8,5.1    C596.9,623.9,600.1,626.9,602.9,629.8z M586,660.6c0.1,1.9,0.2,3.5,0.3,5.1c1.4,12.2,2.8,24.4,1.6,36.8c-0.6,6-0.4,12-0.1,18    c0.2,5.2,2.6,9.4,6.9,12.6c6.6,4.9,13.2,9.8,19.5,15.1c20.6,17,43.9,31,62.2,51.4c26.1-15.1,52.4-30.3,78.5-45.3    c-1.2-5.8-2.8-11-3.4-16.4c-2.2-20.8-4.4-41.7-6.1-62.6c-1-12-5.4-21.4-16.5-27.1c-6.3-3.2-12.3-6.9-18.4-10.3    c-1.4-0.8-2.9-1.5-4.3-2.2c3.5,7.5,7.5,14.4,11.4,21.3c2.2,3.9,1.5,6.9-1.8,8.6c-3.6,1.9-6.2,0.3-8-2.9c-3-5.2-6-10.4-9-15.6    c-7.7-13.3-15.3-26.7-23.1-40c-4.9-8.3-10.8-9.4-18.7-4.2c-0.5,0.3-1,0.6-1.5,1c-12,8.7-23.9,17.5-35.9,26.2    c-1.1,0.8-2.1,1.6-3,2.6c-2.2,2.4-2.8,5.1-1.3,8.1c1.6,3.1,4.1,4.7,7.5,4.1c2.8-0.5,5.7-1.5,8.3-2.6c7.8-3.3,15.5-6.9,23.3-10.3    c4.4-1.9,6.7-1.2,9.1,3c4.6,7.8,9.1,15.7,13.6,23.6c6.1,10.6,5.1,22-2.7,31.5c-1.6,2-3.6,3.8-5.9,6.3c1.4,1.1,2.7,1.9,3.9,3.1    c12.5,12.4,25,24.8,37.3,37.4c9.1,9.3,8.5,22-1.3,29.6c-8.9,6.9-18.7,6.1-27.2-2.4c-22.8-22.9-45.6-45.7-68.2-68.7    c-2.9-3-4.7-7.2-6.8-11c-3.8-6.9-7.1-14-11.1-20.7C593.5,660.7,590.3,659.4,586,660.6z M570.9,625.5c0.7,4.5,0.4,9.3,2.3,12.9    c2.1,4,5.1,9,10.3,8.9c10.5,0,18.3,4.4,23.5,12.9c4,6.5,6.7,13.9,10.1,20.9c1.1,2.2,2.2,4.5,3.9,6.2c17.8,18.1,35.8,36,53.7,54    c5.3,5.3,10.5,10.7,15.9,15.8c4.4,4.2,9.9,3.2,13-1.9c2.5-4.2,1.9-6.8-2.8-11.5c-36.6-36.8-73.4-73.4-109.8-110.5    C585.1,627.3,578.9,625.7,570.9,625.5z M682.2,809.5c1.2,2,2.1,3.5,3,4.9c8.9,14.4,12.7,15.5,27.6,7.3    c13.7-7.5,27.3-15.4,40.8-23.3c4.1-2.4,8-5.4,11.7-8.5c3.8-3.2,4.6-7.6,2.7-12c-2-4.7-4.5-9.1-6.9-14    C734.5,779.3,708.6,794.2,682.2,809.5z M629.6,655.3c10.7,10.6,21.2,21.1,31.8,31.6c7.6-4.9,11.1-12.1,7.9-18.9    c-3.9-8.3-8.8-16-13.4-24.2C646.8,647.9,638.1,651.6,629.6,655.3z"/>
		<path class="st0" d="M650.5,492.7c-68.4,0-136.1,0-204.3,0c0,84.5,0,169,0,254c1.8,0,3.5,0,5.2,0c38.3,0,76.6,0,114.9,0    c6.4,0,9.1,1.7,9.3,5.6c0.1,4.1-2.6,5.8-9.4,5.8c-38.1,0-76.3,0-114.4,0c-1.7,0-3.5,0-5.5,0c0,7.7-0.5,15,0.2,22.2    c0.4,5.1,5.6,8.9,10.9,9.3c1.6,0.1,3.2,0.1,4.8,0.1c53.6,0,107.1,0,160.7,0c1.5,0,3-0.1,4.4,0.1c3.5,0.4,5.8,2.3,5.6,6    c-0.2,3.5-2.4,5.2-5.8,5.3c-0.7,0-1.5,0-2.2,0c-54.9,0-109.8,0-164.6,0c-12.6,0-21.9-6.9-24.9-18.2c-0.6-2.5-0.8-5.2-0.8-7.8    c0-103,0-206.1,0-309.1c0-16.2,9.9-26.1,26-26.1c58.4,0,116.8,0,175.2,0c16.1,0,26.2,10,26.2,26c0,36,0,71.9,0,107.9    c0,1,0.1,2.1-0.1,3.1c-0.4,3-2.1,4.8-5.2,5c-3.3,0.2-5.3-1.5-6-4.6c-0.3-1.4-0.2-2.9-0.2-4.4c0-25,0-49.9,0-74.9    C650.5,496.3,650.5,494.7,650.5,492.7z M446.1,480.8c68.4,0,136.2,0,204.3,0c0-6.3,0.5-12.4-0.2-18.3c-0.3-2.9-2.1-6.5-4.4-8.1    c-2.9-2-7-3.1-10.6-3.1c-58.1-0.2-116.2-0.1-174.3-0.1c-1.5,0-2.9,0-4.4,0.2c-5.2,0.7-10,4.8-10.3,9.9    C445.7,467.7,446.1,474.1,446.1,480.8z"/>
		<path class="st0" d="M524.5,634.3c2.5-2.4,5.3-4.6,7.4-7.2c4-4.9,7.7-10,11.5-15c2.1-2.8,4.8-3.4,7.7-1.6c2.8,1.7,3.7,4.6,2,7.2    c-6.5,9.8-12.8,19.7-23.2,26.1c-1.7,1.1-3.7,1.9-5.6,2.4c-6.7,1.8-13.4-2.7-13.1-9.6c0.3-5.9,1.8-11.8,3.1-17.7    c3.4-15.4,7.1-30.8,10.5-46.2c0.5-2.2,0.4-4.7,0.1-7c-0.6-4.8-2.8-5.8-6.8-3.1c-1.7,1.1-3.2,2.5-4.7,4    c-12.1,12.5-22,26.7-29.1,42.6c-1.4,3.2-2.7,6.5-3.5,9.9c-2.3,9.2,0.5,13.1,9.9,14.7c4.5,0.7,6.7,2.8,6.4,6.3    c-0.3,3.7-2.9,5.3-7.8,5c-13.7-0.9-22.6-12.7-20-26.5c2.1-11.5,7.1-21.8,13.7-31.2c6.9-9.8,14.2-19.4,22.2-28.3    c4-4.4,9.4-7.9,14.8-10.6c6.3-3.2,12.5-0.8,14.6,5.9c1.8,5.7,2.6,12.3,1.6,18c-2.8,16-6.9,31.7-10.5,47.6c-1,4.5-2,8.9-3,13.4    C523.3,633.7,523.9,634,524.5,634.3z"/>
	</g>
</g>
</svg>