<svg xmlns="http://www.w3.org/2000/svg"
    xmlns:xlink="http://www.w3.org/1999/xlink" width="1200" zoomAndPan="magnify" viewBox="0 0 900 899.99999" height="1200" preserveAspectRatio="xMidYMid meet" version="1.0">
    <path class="st0" d="M 423.140625 363.980469 C 423.140625 343.480469 423.140625 325.222656 423.140625 305 C 418.082031 305 413.308594 305 408.675781 305 C 338.875 305 269.21875 304.71875 199.421875 305.140625 C 183.695312 305.28125 172.316406 300.222656 162.207031 287.726562 C 133.558594 252.054688 103.925781 217.367188 74.714844 182.257812 C 61.089844 165.964844 61.089844 152.625 74.855469 136.050781 C 104.207031 100.523438 133.980469 65.273438 163.191406 29.601562 C 172.597656 18.085938 183.835938 13.308594 198.71875 13.449219 C 367.527344 13.730469 536.191406 13.589844 704.996094 13.589844 C 732.945312 13.589844 743.617188 24.125 743.617188 51.789062 C 743.617188 124.394531 743.617188 197.003906 743.617188 269.46875 C 743.617188 293.761719 732.664062 304.71875 708.507812 304.71875 C 638.007812 304.71875 567.367188 304.71875 496.867188 304.71875 C 492.515625 304.71875 488.160156 304.71875 482.683594 304.71875 C 482.683594 324.378906 482.683594 343.199219 482.683594 363.703125 C 487.601562 363.703125 492.234375 363.703125 497.007812 363.703125 C 566.386719 363.703125 635.761719 363.980469 704.996094 363.421875 C 721.710938 363.28125 733.648438 368.617188 744.179688 381.816406 C 771.984375 416.507812 800.917969 450.351562 829.285156 484.617188 C 844.3125 502.734375 844.453125 514.953125 829.707031 532.648438 C 800.355469 568.179688 770.722656 603.429688 741.511719 639.238281 C 732.382812 650.335938 721.710938 655.390625 707.246094 655.25 C 637.027344 654.96875 566.949219 655.109375 496.730469 655.109375 C 492.09375 655.109375 487.320312 655.109375 481.5625 655.109375 C 481.5625 661.289062 481.5625 665.921875 481.5625 670.699219 C 481.5625 732.492188 481.703125 794.140625 481.421875 855.933594 C 481.28125 880.230469 459.933594 895.257812 440.273438 885.144531 C 427.914062 878.828125 423.28125 868.152344 423.28125 854.390625 C 423.5625 792.597656 423.421875 730.945312 423.421875 669.152344 C 423.421875 664.800781 423.421875 660.585938 423.421875 654.96875 C 417.804688 654.96875 413.449219 654.96875 409.234375 654.96875 C 339.4375 654.96875 269.78125 654.96875 199.984375 654.96875 C 172.179688 654.96875 161.503906 644.15625 161.503906 616.488281 C 161.503906 544.304688 161.503906 472.121094 161.503906 399.933594 C 161.503906 375.640625 173.300781 363.703125 197.316406 363.703125 C 267.535156 363.703125 337.613281 363.703125 407.832031 363.703125 C 412.605469 363.980469 417.382812 363.980469 423.140625 363.980469 Z M 131.308594 159.503906 C 154.203125 186.75 175.96875 213.433594 198.578125 239.273438 C 202.089844 243.347656 209.113281 246.578125 214.449219 246.578125 C 367.527344 246.996094 520.601562 246.859375 673.679688 246.859375 C 677.472656 246.859375 681.261719 246.578125 685.054688 246.296875 C 685.054688 187.59375 685.054688 130.433594 685.054688 72.714844 C 681.824219 72.433594 679.015625 71.871094 676.347656 71.871094 C 521.726562 71.871094 366.964844 71.730469 212.34375 72.011719 C 208.128906 72.011719 202.652344 74.121094 200.125 77.210938 C 177.234375 104.03125 154.761719 131.277344 131.308594 159.503906 Z M 219.785156 596.828125 C 225.964844 596.828125 231.160156 596.828125 236.21875 596.828125 C 385.222656 596.828125 534.226562 596.6875 683.230469 597.109375 C 696.289062 597.109375 704.855469 593.597656 712.300781 583.207031 C 721.429688 570.566406 732.101562 559.050781 742.074219 547.113281 C 752.464844 534.613281 762.859375 521.972656 773.390625 509.335938 C 751.0625 482.371094 729.433594 456.671875 708.367188 430.550781 C 703.3125 424.230469 698.117188 421.984375 690.25 421.984375 C 537.597656 422.265625 384.941406 422.125 232.425781 422.125 C 228.210938 422.125 224 422.542969 219.785156 422.683594 C 219.785156 481.105469 219.785156 537.984375 219.785156 596.828125 Z M 219.785156 596.828125 " fill-opacity="1" fill-rule="nonzero"/>
</svg>