<svg xmlns="http://www.w3.org/2000/svg" xmlns:xlink="http://www.w3.org/1999/xlink" version="1.1" id="Capa_1" x="0px" y="0px" style="enable-background:new 0 0 1200 1200;" xml:space="preserve" viewBox="399.89 436.85 401.28 401.19">
<style type="text/css">
	.st0{fill:#999999;}
</style>
<g id="qbuDj4_00000142859640540268535980000006321560395209517240_">
	<g>
		<path class="st0" d="M778.5,819.3c4.5,0,8.3-0.1,12.2,0c6.3,0.2,10.2,3.8,10.3,9.3c0.1,5.4-3.9,9.1-10.1,9.4c-1.6,0.1-3.2,0-4.8,0    c-123.8,0-247.7,0-371.5,0c-2.3,0-4.7,0.1-7-0.3c-4.8-0.8-7.9-4.7-7.7-9.4c0.2-4.7,3.7-8.2,8.6-8.5c2.1-0.1,4.3,0,6.4,0    c2.1,0,4.3,0,7.2,0c0-2.4,0-4.5,0-6.5c0-35.4,0-70.8,0-106.2c0-14.3,6.6-20.9,21-20.9c15.7,0,31.5,0,47.2,0    c14.3,0,21.1,6.7,21.1,20.9c0,35.4,0,70.8,0,106.2c0,1.9,0,3.9,0,6.2c14.8,0,29.1,0,44.1,0c0.1-2.2,0.3-4.5,0.3-6.7    c0-51.5,0-102.9,0-154.4c0-14.9,6.5-21.4,21.6-21.4c15.4,0,30.7,0,46.1,0c14.6,0,21.4,6.7,21.4,21.2c0,51.5,0.1,102.9-0.1,154.4    c0,5.5,1.4,7,6.9,6.8c12.3-0.4,24.6-0.1,37.7-0.1c0-2.5,0-4.6,0-6.6c0-66.5,0-133,0-199.4c0-14.1,6.6-20.7,20.6-20.7    c16.6,0,33.2,0,49.9,0c11.4,0,18.6,7.3,18.6,18.8c0,67,0,134,0,201C778.5,814.4,778.5,816.5,778.5,819.3z M760.1,818.9    c0-69.5,0-138.7,0-208c-17.6,0-34.8,0-52,0c0,69.6,0,138.8,0,208C725.6,818.9,742.7,818.9,760.1,818.9z M574.3,655.8    c0,54.7,0,109.3,0,163.8c17.5,0,34.6,0,51.9,0c0.2-1.3,0.4-2.3,0.4-3.3c0-52.2,0-104.3,0.1-156.5c0-3.6-1.3-4.5-4.7-4.5    c-14.6,0.1-29.3,0-43.9,0.1C576.9,655.3,575.7,655.6,574.3,655.8z M493,704.7c-17.7,0-34.9,0-52.1,0c0,38.5,0,76.6,0,114.8    c17.6,0,34.8,0,52.1,0C493,781.1,493,743.1,493,704.7z"/>
		<path class="st0" d="M769.5,455c-11,0-20.8,0.1-30.6,0c-7.7-0.2-12.5-7.8-8.2-13.7c1.6-2.2,5.2-4.1,8-4.2    c17.7-0.4,35.4-0.2,53.1-0.2c6,0,9.3,3.2,9.3,9.3c0.1,17.5,0.1,35,0,52.5c0,5.9-3.9,9.8-9.1,9.8c-5.2,0-8.9-4-9.1-9.9    c-0.1-5,0-10,0-15c0-4.8,0-9.6,0-15.4c-2.1,1.9-3.5,3.1-4.8,4.5c-36.7,36.6-73.4,73.2-109.9,110c-5.5,5.5-10.7,6.8-18.2,3.8    c-35.2-14.3-70.7-28-106-42.1c-3.7-1.5-6-1.1-8.8,1.8c-7.8,8.3-95.9,96.3-104,104.3c-3.2,3.2-7.2,4.1-11.3,1.9    c-3.9-2.1-5.5-5.8-4.3-10c0.6-2.1,2.1-4.1,3.7-5.7c9.5-9.7,99.3-98.9,108.6-108.9c5-5.4,9.8-5.8,16.2-3.2    c20,8.2,40.1,16.1,60.1,24.1c15.7,6.3,31.5,12.5,47.2,18.9c2.8,1.2,4.7,1.1,7-1.2c36.1-36.2,72.2-72.3,108.3-108.5    C767.4,457.5,767.9,456.8,769.5,455z"/>
	</g>
</g>
</svg>