<svg xmlns="http://www.w3.org/2000/svg" xmlns:xlink="http://www.w3.org/1999/xlink" version="1.1" id="Capa_1" x="0px" y="0px" style="enable-background:new 0 0 1200 1200;" xml:space="preserve" viewBox="176.3 192.82 864.27 817.46">
<g id="lEUDGp_00000074439466997375022740000012156323573412500124_">
	<g>
		<path class="st0" d="M494.5,968.4c0-3.1,0-5.4,0-7.7c0-43.8-0.2-87.6,0.1-131.4c0.1-9,1.1-18.3,3.2-27.1    c3.9-16.2,13.3-22.9,30-22.9c52.7,0,105.5,0,158.2,0c21.9,0,32.3,8.9,35.3,30.8c0.8,5.6,1.2,11.4,1.2,17    c0.1,44.6,0.1,89.1,0.1,133.7c0,2.2,0,4.5,0,7.1c2,0.1,3.4,0.4,4.9,0.4c51.8,0,103.6,0,155.4,0c7.2,0,8.1-1,8.1-9.7    c0-78.6,0-157.3,0-235.9c0-31.8-0.1-63.6,0-95.4c0-12.7,7.7-21.6,18.9-22.4c12.8-0.9,22.7,8.4,22.7,21.5    c0,53.9-0.1,107.8-0.1,161.7c0,56.6-0.1,113.1,0.1,169.7c0.1,18.4-5.9,33.5-21.3,44.1c-7.2,4.9-15.2,7.7-24.1,7.7    c-61.7,0-123.4,0.1-185.1,0c-12.2,0-20.6-8.8-20.6-21.1c0-52.2,0-104.4,0-156.5c0-1.7,0-3.4,0-5.1c0-4.3-1.4-6.2-6.4-6.2    c-34.3,0.2-68.6,0.1-102.8,0.1c-10.3,0-20.6,0.2-30.8-0.1c-4.8-0.2-6.3,1.4-6.3,6.1c0.2,14.5,0.1,28.9,0.1,43.4    c0,39.2,0,78.5,0,117.7c0,13.5-8.3,21.9-21.6,21.9c-60.2,0-120.4-0.5-180.5,0.2c-24.2,0.3-48.9-19.3-48.8-48.6    c0.3-111,0.3-222,0-333c0-16.9,14.6-26.5,28.9-21.1c8.4,3.2,12.9,10.4,12.9,20.2c0,79.2,0,158.4,0,237.6c0,31.2,0,62.5,0,93.7    c0,8.8,1.1,9.8,9.9,9.8c50.5,0,100.9,0,151.4,0C489.6,968.4,491.6,968.4,494.5,968.4z"/>
		<path class="st0" d="M607.6,193.1c13.8-0.1,25,4.5,34.2,13.6c107.9,107.8,215.7,215.7,323.5,323.6c22.6,22.6,45.2,45.3,67.9,67.9    c9,9,9.5,21.4,1.2,30.1c-8.2,8.5-21.2,8.3-30-0.5C888.1,511.5,771.9,395.3,655.7,279.1c-13.7-13.7-27.5-27.5-41.2-41.2    c-5.4-5.4-7.2-5.4-12.7,0C472.5,367.3,343.1,496.7,213.7,626.1c-6.4,6.4-13.6,9.2-22.2,6.8c-8-2.2-12.9-7.9-14.5-16    c-1.7-8.3,1.9-14.7,7.6-20.4c26.7-26.6,53.3-53.3,80-80C367.2,414,469.8,311.4,572.4,208.8C582.4,198.8,594,192.8,607.6,193.1z"/>
		<path class="st0" d="M934,398.6c0,10.5,0.1,20.9,0,31.4c-0.1,12.6-9,21.7-20.9,21.7c-11.7,0-20.3-8.9-20.4-21.4    c-0.1-19.6,0-39.2,0-58.8c0-11-3.3-14.2-14.4-14.3c-19.4,0-38.8,0.1-58.3-0.1c-9.7-0.1-16.7-5.1-19.8-13.5    c-2.9-7.9-1.1-17.2,5.6-22.3c3.9-2.9,9.2-5.3,13.9-5.4c21.5-0.6,43-0.5,64.5-0.2c26.5,0.4,49.5,24.1,49.7,50.8    C934,377.3,934,387.9,934,398.6C934,398.6,934,398.6,934,398.6z"/>
	</g>
</g>
</svg>