<?xml version="1.0" encoding="utf-8"?>
<!-- Generator: Adobe Illustrator 25.4.1, SVG Export Plug-In . SVG Version: 6.00 Build 0)  -->
<svg version="1.1" id="Capa_1" xmlns="http://www.w3.org/2000/svg" xmlns:xlink="http://www.w3.org/1999/xlink" x="0px" y="0px"
	 viewBox="0 0 1103 1103" style="enable-background:new 0 0 1103 1103;" xml:space="preserve">
<style type="text/css">
	.st0{fill:#999999;}
</style>
<g id="um7QQe_00000155119072480734068300000007440951974384945573_">
	<g>
		<path class="st0" d="M413.6,559c16.6,49.4,46.1,88.3,91.9,113.2c79.4,43.1,166.4,31.3,233.4-34c80.3-78.3,159.7-157.5,237.8-237.9
			c57.2-58.9,74.8-129.7,44.9-207.2C993,118.9,936,77.3,856.8,69.7c-62.6-6-114.9,18.3-158.8,62.2C645,185,591.4,237.5,539.2,291.4
			c-13.4,13.8-26.6,21.1-46,19.9c-13.5-0.9-27.2,2-41.6,3.3c0.9-2.7,1-5.3,2.5-6.7C529.3,232.5,603,155.4,680.5,82.6
			c103-96.8,273.1-77.8,356.2,36.5c67.1,92.4,61.9,223.2-16.6,305.2c-84.2,88-170,174.6-258.4,258.3
			c-106.9,101.2-285.4,77.6-364.4-46.8C369.2,591.5,364.9,599.7,413.6,559z"/>
		<path class="st0" d="M650.1,790.8c0.1,1.8,0.6,3,0.2,3.3c-80.6,80.2-157.1,165.2-243,239.2c-95.1,81.9-240.8,65-325.8-27.7
			c-83.2-90.7-84.1-236.3,1.6-325.9c83.7-87.4,169-173.4,256.8-256.7c107.2-101.6,285.1-78.6,364.7,45.8
			c28.9,45.2,31.9,36.3-15.9,77.2c-16-47.7-44.1-85.9-87.8-110.7c-81-46-169.3-34.9-237.6,31.8c-79.7,77.8-158.4,156.6-236.2,236.3
			C69,762.8,50.6,834,81,912.5c28.7,74.2,85.9,115.6,165.2,122.9c62.7,5.8,114.9-18.8,158.7-62.7c52.4-52.6,105.4-104.6,157.2-157.8
			c13.8-14.1,27.1-23.3,48-21.1C623.2,795.2,636.7,792,650.1,790.8z"/>
	</g>
</g>
</svg>
