<?xml version="1.0" encoding="utf-8"?>
<!-- Generator: Adobe Illustrator 25.4.1, SVG Export Plug-In . SVG Version: 6.00 Build 0)  -->
<svg version="1.1" id="Capa_1" xmlns="http://www.w3.org/2000/svg" xmlns:xlink="http://www.w3.org/1999/xlink" x="0px" y="0px"
	 viewBox="0 0 1009 1096" style="enable-background:new 0 0 1009 1096;" xml:space="preserve">
<style type="text/css">
	.st0{fill:#999999;}
</style>
<g id="NE3uEy.tif">
	<g>
		<path class="st0" d="M836,13c15.4,7.3,21.4,19.3,21.9,36.4c1.7,61,4.6,121.9,6.7,182.8c0.7,20.5-10.4,32.9-31,33.8
			c-63.3,2.6-126.7,4.9-190,6.9c-18.1,0.6-31.2-12.1-31.5-28.9c-0.3-16.2,12.1-28.8,29.8-29.5c35.3-1.5,70.6-2.8,105.9-4.1
			c5.1-0.2,10.1,0,15.2,0c0.3-0.9,0.6-1.8,0.9-2.7c-9.8-7.3-19.2-15.1-29.5-21.7c-81.7-52.9-170.8-76.4-268.3-69.5
			C293.3,128.7,139.6,253,92.8,418.7c-20.3,71.8-22.7,143.9-6.1,216.6c3.1,13.6,0.9,25.6-11,34.2c-9.3,6.8-23.3,8-32,0.3
			c-6.3-5.5-12.1-13.9-13.8-21.9c-4.9-23.7-7.6-47.8-11.3-71.7c-0.4-2.7-1.1-5.3-1.7-8c0-19.4,0-38.8,0-58.2
			c1.3-10.2,2.6-20.4,3.9-30.6c13.4-106.2,57.3-198.1,131-275.4C309.9,38.4,564.2,8,757.6,131.2c15,9.6,29.4,20.2,45.2,31.2
			c0-4.5,0.1-7.9,0-11.2c-1.3-33.2-2.1-66.5-4.1-99.7c-1.1-18.5,5-31.7,22.7-38.5C826.3,13,831.2,13,836,13z"/>
		<path class="st0" d="M204.7,928.3c3.1,35.1,6,67.4,8.8,99.8c0.6,6.6,1.3,13.1,1.3,19.7c0.1,15.7-10.9,28-26.2,29.7
			c-14.3,1.6-28.9-9.2-31.2-24.5c-2.4-15.7-3.3-31.7-4.8-47.5c-4.2-46.6-8.5-93.1-12.6-139.7c-2.4-27,6.1-38,33.2-40.6
			c62-6,124.1-11.4,186.2-16.7c16.3-1.4,29.4,9.7,31.5,25.3c2.1,15.4-7.8,30-24.1,32.2c-26.8,3.5-53.7,5.4-80.6,7.9
			c-15.5,1.5-31,2.8-49.4,4.5c11.4,8.6,20.6,16.2,30.4,22.9c85.7,57.6,180,82.1,282.8,72.4c184.2-17.3,338.5-158.2,373.3-340
			c11.4-59.8,10.2-119.1-3.2-178.3c-4-17.8,2.2-31,16.6-37.1c17-7.2,35.5,2.4,40,21.5c10.2,44.1,15.1,88.8,12.8,134
			c-4.2,82.5-27.1,159.4-70.4,229.8c-51.3,83.5-121.6,145.7-210.4,187c-72.4,33.7-148.7,47.8-228.2,43.3
			c-95.3-5.5-182-36.2-258.9-93.3C216.6,936.9,211.6,933.3,204.7,928.3z"/>
	</g>
</g>
</svg>
