<svg xmlns="http://www.w3.org/2000/svg" xmlns:xlink="http://www.w3.org/1999/xlink" version="1.1" id="Capa_1" x="0px" y="0px" style="enable-background:new 0 0 1200 1200;" xml:space="preserve" viewBox="304.49 186.73 590.22 827.25">
<g>
	<g>
		<path class="st0" d="M503.4,204.4c2.6-0.9,5.3-1.7,8-2.5C508.7,202.7,506.1,203.5,503.4,204.4z M686.8,200.7    c2.4,0.8,4.8,1.5,7.2,2.3C691.7,202.2,689.3,201.4,686.8,200.7z M698.5,204.5c2.6,0.9,5.1,1.8,7.6,2.8    C703.6,206.4,701,205.4,698.5,204.5z M716.8,211.6c-1.7-0.7-3.4-1.4-5-2.1c1.9,0.8,3.7,1.5,5.6,2.3    C717.2,211.8,717,211.7,716.8,211.6z M711.8,209.5c-1.9-0.8-3.8-1.5-5.7-2.2C708,208.1,709.9,208.8,711.8,209.5z"/>
	</g>
	<g>
		<path class="st0" d="M682.9,401.2c-21.3-21.6-50.4-33.7-81.8-34H600c-30.8,0-59.6,11.6-81,32.7c-21.8,21.5-33.9,50.7-34.1,82.3    c-0.4,65,50,116.3,114.7,116.8h0.8c30.8,0,59.7-11.8,81.4-33.3c21.9-21.7,34-50.9,34.1-82C716,452.2,704.3,422.9,682.9,401.2z     M645.1,528.5c-11.8,11.7-27.7,18.2-44.8,18.2H600c-36-0.2-63-28-62.8-64.7c0.1-17.2,6.5-33,18-44.5c11.5-11.5,27.5-17.9,44.8-18    h0.5c17.5,0,33.4,6.3,45.1,17.9c11.7,11.6,18.2,27.8,18.2,45.4C663.7,500.4,657.1,516.6,645.1,528.5z"/>
	</g>
	<path class="st0" d="M840.6,310c-2.2-3.1-4.5-6.1-6.8-9.1C836.2,303.9,838.4,306.9,840.6,310z M833.8,300.8   c-1.8-2.2-3.5-4.5-5.4-6.7C830.2,296.3,832,298.5,833.8,300.8z M826,291.2c-2.7-3.2-5.5-6.3-8.3-9.3   C820.5,284.9,823.3,288,826,291.2z M804.5,268.6c3,2.8,5.9,5.7,8.7,8.6C810.3,274.2,807.4,271.4,804.5,268.6z M804.5,268.6   c-3.8-3.6-7.7-7.1-11.7-10.4C796.8,261.5,800.7,265,804.5,268.6z M792.8,258.2c-9.6-8.1-19.7-15.6-30.3-22.4   C773.1,242.6,783.2,250.1,792.8,258.2z M762.5,235.7c-1.8-1.1-3.6-2.3-5.4-3.4C758.9,233.5,760.7,234.6,762.5,235.7z M757.1,232.4   c-10.8-6.6-22.1-12.6-33.8-17.9C735,219.8,746.3,225.7,757.1,232.4z M717.4,211.9c1,0.4,2,0.8,3,1.3c-1.2-0.5-2.3-1-3.5-1.5   C717,211.7,717.2,211.8,717.4,211.9z M441.5,233c-3.3,2-6.6,4.2-9.9,6.4C434.8,237.2,438.1,235,441.5,233z M425.2,243.8   c-2.1,1.5-4.2,3-6.2,4.6C421,246.9,423.1,245.3,425.2,243.8z M418.9,248.4c-2.1,1.6-4.1,3.2-6.1,4.8   C414.8,251.6,416.9,250,418.9,248.4z M398.2,266c-1.9,1.8-3.8,3.6-5.6,5.4C394.5,269.6,396.3,267.8,398.2,266z"/>
	<path class="st0" d="M511.4,201.9c-2.7,0.8-5.3,1.7-8,2.5C506.1,203.5,508.7,202.7,511.4,201.9z"/>
	<path class="st0" d="M694.1,203c-2.4-0.8-4.8-1.6-7.2-2.3C689.3,201.4,691.7,202.2,694.1,203z"/>
	<path class="st0" d="M706.1,207.3c-2.5-1-5.1-1.9-7.6-2.8C701,205.4,703.6,206.4,706.1,207.3z"/>
	<path class="st0" d="M706.1,207.3c1.9,0.7,3.8,1.5,5.7,2.2C709.9,208.8,708,208.1,706.1,207.3z"/>
	<path class="st0" d="M717.4,211.9c-1.8-0.8-3.7-1.6-5.6-2.3c1.7,0.7,3.4,1.4,5,2.1C717,211.7,717.2,211.8,717.4,211.9z"/>
	<path class="st0" d="M862.6,346c-2.4-4.7-5-9.4-7.6-13.9c-1.1-1.8-2.1-3.6-3.2-5.4c-3.5-5.7-7.2-11.3-11.1-16.8   c-2.2-3.1-4.5-6.1-6.8-9.1c0,0-0.1-0.1-0.1-0.1c-1.8-2.2-3.6-4.5-5.4-6.7c-0.8-1-1.6-1.9-2.5-2.9c-2.7-3.2-5.5-6.3-8.3-9.3   c0-0.1-0.1-0.1-0.1-0.2c-1.4-1.5-2.8-2.9-4.2-4.4c-0.1-0.1-0.1-0.1-0.2-0.2c-2.8-2.9-5.8-5.8-8.7-8.6c-3.8-3.6-7.7-7-11.7-10.4   c-9.6-8.1-19.7-15.6-30.3-22.4c-1.8-1.1-3.6-2.3-5.4-3.4c-10.8-6.6-22.1-12.6-33.8-17.9c-1-0.4-2-0.9-3-1.3c-1-0.4-2-0.9-3-1.3   c-1.8-0.8-3.7-1.6-5.6-2.3c-1.9-0.8-3.8-1.5-5.7-2.2c-2.5-1-5.1-1.9-7.6-2.8c2.6,0.9,5.1,1.8,7.6,2.8c1.9,0.7,3.8,1.5,5.7,2.2   c1.7,0.7,3.4,1.4,5,2.1c-34.7-15.7-74.4-24.5-116.5-24.5c-41.9,0-81.4,8.8-115.9,24.3c0,0-0.1,0-0.1,0   c-15.1,6.1-29.4,13.3-42.8,21.5c-3.3,2-6.6,4.2-9.9,6.4c-2.2,1.5-4.3,3-6.4,4.5c-2.1,1.5-4.2,3.1-6.2,4.6c0,0,0,0,0,0   c-2.1,1.6-4.1,3.2-6.1,4.8c-2,1.6-4,3.3-6,5c-2.9,2.5-5.8,5.1-8.7,7.8c-1.9,1.8-3.8,3.6-5.6,5.4c-33.1,33-58.2,75.3-75,126.8   c-21.3,65.1-15.8,133.5,17.5,215.2c34.5,84.7,83.7,168.2,159.3,270.7c22.3,30.2,46.2,59.9,69.3,88.6c10.4,13,21.2,26.4,31.7,39.6   l1.2,1.5h7.5l1.2-1.5c12.5-16.1,25.4-32.3,37.9-48c27.9-35,56.7-71.2,83.3-108.1c50.9-70.6,114-165.8,150.9-275.3   C904.5,500.8,899.2,417.4,862.6,346z M694.1,203c-2.4-0.8-4.8-1.6-7.2-2.3C689.3,201.4,691.7,202.2,694.1,203z M511.4,201.9   c-2.7,0.8-5.3,1.7-8,2.5C506.1,203.5,508.7,202.7,511.4,201.9z M833,548.4c-16.2,54.3-41.9,109.1-78.5,167.6   c-24.9,39.8-52.8,81.6-90.5,135.7c-13.9,19.9-28.8,39-44.7,59.2c-6.2,7.9-12.6,16.1-19,24.5l-6.5-8.5   c-90.5-118-175.9-229.6-222.3-367.4c-11.8-35-15.8-70.8-12-106.4c0.1-1.2,0.3-2.5,0.4-3.7c0.1-1.1,0.3-2.2,0.4-3.4   c0-0.2,0.1-0.5,0.1-0.7c0.1-1.1,0.3-2.2,0.5-3.3c0.2-1.1,0.3-2.2,0.5-3.2c0-0.2,0.1-0.5,0.1-0.7c0.2-1.1,0.4-2.2,0.6-3.3   c0.2-1.2,0.4-2.3,0.7-3.4c0-0.1,0-0.2,0.1-0.3c2.4-12.1,5.8-23.8,10-35.3c4.9-13.3,11-26.1,18.3-38.4c17.2-29.1,40-53.7,67.8-73.1   c28.8-20.2,61.6-33.6,97.4-40c15.6-2.8,31-4.2,46.1-4.2c27.9,0,55,4.7,81.1,14.1c37.3,13.4,71.1,36.3,97.8,66.2   c19.8,22.2,35.4,47.9,45.9,75.4c0,0.1,0.1,0.2,0.1,0.3c0.4,1.1,0.8,2.2,1.2,3.3c0.4,1.1,0.8,2.3,1.2,3.4c0,0.1,0.1,0.2,0.1,0.3   c0.3,1,0.7,1.9,1,2.9c0.1,0.3,0.2,0.6,0.3,0.9c0.4,1.2,0.7,2.3,1.1,3.5c0.4,1.2,0.8,2.5,1.1,3.7c0.4,1.3,0.8,2.7,1.1,4   c0.3,1.2,0.7,2.4,1,3.6c0.3,1.2,0.6,2.4,0.9,3.6C846.2,465.7,845,508.3,833,548.4z"/>
	<path class="st0" d="M372.9,395.6L372.9,395.6c-4.2,11.4-7.6,23.2-10,35.3C365.3,418.8,368.7,407.1,372.9,395.6z"/>
</g>
</svg>