<svg xmlns="http://www.w3.org/2000/svg" xmlns:xlink="http://www.w3.org/1999/xlink" version="1.1" id="Capa_1" x="0px" y="0px" style="enable-background:new 0 0 1200 1200;" xml:space="preserve" viewBox="387.23 324.03 544.99 545.35">

<g id="nTeqIP.tif">
	<g>
		<path class="st0" d="M425.7,324.3c118.1,0,236.1,0,354.2,0c0.4,0.3,0.8,0.7,1.3,0.8c24.3,6,37.2,22.4,37.2,47.4    c0,19.9,0,39.7,0,59.6c0,1.7,0,3.4,0,5.1c5.8-5.2,10.6-10.8,15.3-16.4c13.3-16,32.4-17.9,48.3-4.6c12.1,10.1,24,20.5,36,30.8    c17.1,14.7,18.6,33.1,3.8,50.3c-33.2,38.7-66.5,77.4-99.9,116c-2.5,2.9-3.5,5.7-3.5,9.5c0.1,66.3,0.1,132.6,0,198.9    c0,28.1-19.4,47.3-47.5,47.4c-19.1,0-38.3,0-57.4,0c-92.9,0-185.8,0-278.6,0c-20.1,0-36.6-10.5-43.8-27.9    c-1.4-3.4-2.4-6.9-3.6-10.4c0-156,0-312,0-468c0.6-1.8,1.3-3.6,1.8-5.4c4.6-15,14.4-25.1,29.1-30.5    C420.7,325.8,423.2,325.1,425.7,324.3z M796.9,643.4c-1.8,2-2.6,2.8-3.4,3.8c-29.4,33.9-58.8,67.7-88,101.7    c-3.8,4.4-8.1,7.7-13.5,9.9c-30.8,12.6-61.5,25.3-92.3,38c-1.4,0.6-3.1,0.8-4.6,0.8c-44.1,0-88.3,0-132.4,0c-2.3,0-4.6,0-6.9-0.5    c-5.6-1.3-8.4-5.4-8.2-11.4c0.2-5.9,3.4-9.7,9.2-10.5c2.3-0.3,4.6-0.3,6.9-0.3c39.2,0,78.4-0.1,117.5,0.1c4.7,0,6.3-1.5,7.3-5.9    c3.4-14.5,7.3-28.8,10.9-43.2c0.3-1.3,0.4-2.6,0.6-4.4c-2.3,0-4.1,0-5.8,0c-30.5,0-61,0-91.5,0c-14.5,0-29.1,0.1-43.6-0.1    c-8.1-0.1-12.5-5.2-11.5-13.1c0.8-6.4,5-9.5,13.1-9.5c46.4,0,92.9,0,139.3,0c1.9,0,3.9,0,6.8,0c0.5-15.9,10.8-26.3,20.5-37.1    c3.3-3.7,6.5-7.5,9.7-11.3c0.8-1,1.4-2.1,2.5-3.8c-2.9,0-5,0-7.1,0c-56.5,0-113.1,0-169.6,0c-1.9,0-3.9,0.1-5.8-0.2    c-6.1-0.9-9.5-5.2-9.4-11.5c0.1-6.3,3.8-10.3,10.1-10.8c2.1-0.2,4.2-0.1,6.4-0.1c63.5,0,126.9,0,190.4,0.1c3.7,0,6.2-1,8.6-4    c5.2-6.5,10.7-12.7,16.1-19.1c8.3-9.8,16.7-19.6,25.9-30.5c-3.2,0-5,0-6.9,0c-78.3,0-156.7,0-235,0c-1.9,0-3.9,0-5.8-0.2    c-6-0.7-9.4-4.7-9.6-10.7c-0.1-6.1,3.1-10.4,8.9-11.4c2.4-0.4,4.9-0.3,7.4-0.3c85.1,0,170.2,0,255.3,0.1c3.7,0,6.2-1.1,8.6-3.9    c21.8-25.4,43.7-50.7,65.5-76.2c1.5-1.8,2.4-4.7,2.4-7.1c0.2-29.2,0.1-58.5,0.1-87.7c0-16.9-9-26-25.9-26c-111.3,0-222.6,0-334,0    c-16.9,0-26,9.1-26,26c0,149.1,0,298.2,0,447.2c0,17.1,9.1,26.2,26.3,26.2c110.6,0,221.2-0.2,331.8,0.2    c18.7,0.1,28.6-10,28.7-28.9c0.3-55.8,0.1-111.7,0.1-167.5C796.9,648.2,796.9,646.4,796.9,643.4z M817.4,474    C757.1,544.2,697.1,614,637,683.9c18.5,15.8,36.3,31,54.5,46.5c59.9-70.2,119.5-139.9,179.2-209.9    C852.8,504.9,835.3,489.7,817.4,474z M833.3,457c18,15.6,35.5,31,53.3,46.5c6.8-7.9,13.3-15.3,19.6-22.9    c4.1-4.9,3.8-10.7-1.1-15.1c-12.7-11.1-25.4-22-38.3-32.8c-5-4.2-10.8-3.6-15,1.5C845.7,441.5,839.7,449,833.3,457z M612,766.7    c20.4-8.2,39.3-15.9,59-23.8c-14.6-12.7-28.6-24.8-43.1-37.4C622.6,725.9,617.5,745.5,612,766.7z"/>
		<path class="st0" d="M603.4,418.5c-46.4,0-92.8,0-139.2,0c-2.5,0-5,0-7.4-0.4c-5.7-0.9-8.9-4.7-9.1-10.6c-0.1-6,2.8-10,8.3-11.3    c1.7-0.4,3.5-0.5,5.3-0.5c94.8,0,189.5,0,284.3,0c10.4,0,15.9,6.1,13.5,14.7c-1.2,4.3-4,7.1-8.5,7.7c-2.4,0.3-4.9,0.4-7.4,0.4    C696.5,418.5,650,418.5,603.4,418.5z"/>
		<path class="st0" d="M603.4,471.8c47.7,0,95.3,0,143,0c9.9,0,15.1,6.3,12.5,14.8c-1.6,5.3-5.2,7.7-11.8,7.8    c-20.4,0.1-40.7,0-61.1,0c-74.9,0-149.9,0-224.8,0c-9.8,0-14.5-4.8-13.4-13.4c0.7-5,4-8.4,9-9c1.9-0.2,3.9-0.2,5.8-0.2    C509.6,471.8,556.5,471.8,603.4,471.8z"/>
	</g>
</g>
</svg>