<svg xmlns="http://www.w3.org/2000/svg" xmlns:xlink="http://www.w3.org/1999/xlink" version="1.1" id="Capa_1" x="0px" y="0px" style="enable-background:new 0 0 1200 1200;" xml:space="preserve" viewBox="270.03 387.53 659.75 463.32">

<g>
	<g id="kfdQ01_00000152952470172012802770000007061677364459286160_">
		<g>
			<path class="st0" d="M560.1,387.8c77.3,0,154.5,0,231.8,0c14.1,0,26.6,4.2,37.3,13.4c12.7,11,19.3,25,19.6,41.8     c0.2,9.7,0,19.3,0,29c0,56.1,0,112.2-0.1,168.3c0,1.7,0.7,2.1,2.1,2.5c39.5,11.9,65.9,37.4,75.4,77.6c10,42.3-2.9,78.3-36,106.3     c-20.9,17.7-45.6,25.5-73,23.6c-29.3-2-53.8-14.2-73.3-36.3c-1.3-1.4-2.5-2-4.3-2c-137.3,0-274.6,0.1-411.9,0     c-21.5,0-38-9.6-49.4-27.8c-5.4-8.7-8-18.4-8-28.6c0-37.2,0-74.4,0-111.6c0-10.5,0.2-21,0.2-31.5c0-56-0.1-112-0.2-167.9     c0-30.7,24.8-56,55.6-56.7c1.5,0,2.9,0,4.4,0C406.9,387.8,483.5,387.8,560.1,387.8z M821.4,638.9c0-1.2,0-2.3,0-3.5     c0-50.4,0-100.9,0-151.3c0-13.3,0-26.5,0-39.8c0-4.9-0.9-9.6-3.3-13.9c-5.7-10-14.3-15.1-25.9-15.1c-151.8,0-303.7,0-455.5,0     c-3.2,0-6.5,0-9.7,0c-13.8,0.1-25.9,9.8-28.3,23.4c-1,5.4-0.7,10.9-0.7,16.4c-0.1,13.6,0,27.3,0,40.9c0,48.8,0,97.5,0,146.3     c0,37.3,0,74.5,0,111.8c0,9.3,3,17.4,10.4,23.4c4.3,3.5,9,6.2,14.6,6.6c4.4,0.3,8.8,0.3,13.1,0.3c6.8,0.1,13.5,0,20.3,0     c18.3,0,36.6,0,54.8,0c44.3,0,88.7,0.1,133,0.1c8,0,16-0.1,24-0.1c5.4,0,10.9,0.1,16.3,0.1c7.4,0,14.9-0.1,22.3-0.1     c15.3,0,30.6,0,45.9,0c23.6,0,47.2,0,70.8,0c0.6,0,1.3-0.1,2-0.1c-12.3-34.2-10-67.1,10.1-97.5     C755.6,656.5,784.8,641,821.4,638.9z M823.8,666.7c-42.9-0.1-77.9,34.9-78.1,78c-0.2,42.9,34.9,78,77.7,78.5     c42.3,0.4,78.8-35.1,78.7-78.1C901.9,701.8,867,666.7,823.8,666.7z"/>
			<path class="st0" d="M503.8,735.3c-56.4,0-112.8,0-169.2,0c-6.9,0-12.2-3.7-14-9.7c-2.6-8.7,3.7-17.5,12.8-17.8     c0.3,0,0.6,0,0.9,0c113.1,0,226.2,0,339.3,0c7.2,0,13.1,5.1,14,11.8c0.9,7.4-3.5,13.7-10.6,15.4c-1.3,0.3-2.7,0.3-4,0.3     C616.7,735.3,560.2,735.3,503.8,735.3z"/>
			<path class="st0" d="M664,543.6c-31.3,0-62.6,0-94,0c-6,0-11.2-3.7-13.1-9.2c-1.9-5.6-0.1-11.7,4.5-15.3c2.6-2,5.6-2.9,8.9-2.9     c53,0,106.1,0,159.1,0c9.4,0,18.8,0,28.3,0c7.9,0,14,5.9,14.1,13.6c0,7.8-6,13.9-14,13.9C726.6,543.6,695.3,543.6,664,543.6z"/>
			<path class="st0" d="M664.2,639.4c-31.3,0-62.6,0-94,0c-7.8,0-13.9-5.9-14-13.5c-0.1-7.8,6-14,13.9-14c17,0,34,0,51,0     c15.1,0,30.1,0,45.2,0c11.2,0,22.4,0,33.6,0c10.2,0,20.4,0.1,30.6,0.1c9.3,0,18.6-0.1,27.9-0.1c6.1,0,12.2,5.3,13.3,11.7     c1.1,6-2.6,13-8.3,14.8c-3,0.9-6.3,1-9.5,1.1c-5.7,0.2-11.3,0-17,0c-10.1,0-20.1-0.1-30.2-0.1c-8.7,0-17.3,0.1-26,0.1     C675.2,639.5,669.7,639.4,664.2,639.4C664.2,639.4,664.2,639.4,664.2,639.4z"/>
			<path class="st0" d="M809.6,758.6c-0.7,0-1.4,0-2.2,0c-9.4,0-18.7,0.1-28.1,0.1c-8.5,0-14.5-6.6-13.9-15     c0.4-6.9,6.4-12.5,13.6-12.5c9.5-0.1,19,0,28.4,0c0.7,0,1.3,0,2.2,0c0-0.9,0-1.6,0-2.3c0-9.3,0-18.6,0-27.9     c0-5.6,2.4-10,7.4-12.6c4.9-2.6,9.9-2.2,14.4,1.1c3.8,2.7,5.7,6.6,5.7,11.3c0,9.4,0,18.7,0,28.1c0,0.7,0,1.4,0,2.3     c0.9,0,1.6,0,2.2,0c9.4,0,18.8,0,28.3,0c5.8,0,10.2,2.7,12.6,7.9c2.4,5.2,1.7,10.3-2,14.7c-3.1,3.6-7.4,4.9-12,4.9     c-9.2,0-18.5-0.1-27.7-0.1c-0.4,0-0.8,0.1-1.4,0.1c0,0.8,0,1.6,0,2.4c0,9.3,0,18.6,0,27.9c0,7.9-5.9,14-13.6,14.1     c-7.6,0.1-13.7-6-13.8-13.9c0-4.3,0.1-8.7,0.1-13c0-5.6,0-11.1,0-16.7C809.9,759.2,809.7,759,809.6,758.6z"/>
		</g>
	</g>
	<path class="st0" d="M408.8,638.5c-18.9,0-37.8,0-56.6,0c-10.6,0-18.5-7.8-18.9-18.3c-0.4-11.2,1.5-22,7.3-31.7   c6.9-11.5,16.5-19.6,29.2-24c6.3-2.2,12.6-2.8,19.1-2.9c6.9-0.1,13.9,0.1,20.8,0.1c6.4,0,12.8-0.2,19.3-0.2   c29.1,0,50.3,20.1,54.3,45.1c0.9,5.6,1,11.6,0.3,17.2c-1.1,8.7-9,14.7-17.8,14.7c-9.5,0-19,0-28.5,0   C427.8,638.5,418.3,638.5,408.8,638.5z M461.2,615.5c0-0.8,0.1-1.4,0-2c-0.2-1.6-0.4-3.1-0.7-4.7c-2.3-10-8.2-17.2-17.3-21.6   c-4.3-2.1-9.1-2.9-14-2.8c-6.3,0.1-12.5-0.1-18.8-0.1c-7.2,0-14.4,0.2-21.6,0.1c-4-0.1-7.9,0.4-11.7,1.8   c-9.9,3.6-16.4,10.6-19.5,20.6c-0.8,2.7-1,5.7-1.6,8.7C391.4,615.5,426.2,615.5,461.2,615.5z"/>
	<path class="st0" d="M360.5,494.2c0.8-20.3,8.8-36.7,27-46.9c16.9-9.5,38.8-6.3,52.6,7.3c22.2,21.7,22.5,56.8,0.5,78.7   c-7,7-15.7,11.4-25.6,12.8c-9.9,1.4-19.4-0.4-28.1-5.4c-16.2-9.1-24.2-23.5-26.2-41.6C360.6,497.5,360.6,495.9,360.5,494.2z    M385.6,493.4c0,6,1.2,10.9,3.5,15.4c8.1,15.6,26.8,17.2,37.2,3.2c7.5-10.2,7.3-25.9-0.4-35.9c-8.2-10.5-21.7-12.1-31-3.6   C388.5,478.4,385.8,485.8,385.6,493.4z"/>
</g>
</svg>