<?xml version="1.0" encoding="utf-8"?>
<!-- Generator: Adobe Illustrator 23.1.0, SVG Export Plug-In . SVG Version: 6.00 Build 0)  -->
<svg version="1.1" id="Capa_1" xmlns="http://www.w3.org/2000/svg" xmlns:xlink="http://www.w3.org/1999/xlink" x="0px" y="0px"
	 viewBox="0 0 1200 1200" style="enable-background:new 0 0 1200 1200;" xml:space="preserve">
<style type="text/css">
	.st0{fill:#999999;}
</style>
<g id="DiKYI1_1_">
	<g>
		<path class="st0" d="M825,871.5c0,26.6,0.2,49.6,0,72.5c-1,81.2-55.5,136.6-136.1,137c-117.8,0.5-235.5,0.5-353.3,0
			c-80-0.3-135-54-135.5-134c-0.9-153.9-0.9-307.9,0-461.8c0.5-81,54-132.7,135.1-133.6c23-0.3,46,0,72.6,0c0-25.4-0.2-48.3,0-71.1
			c0.8-83,55.1-138,137.5-138.4c97.4-0.5,194.7-0.8,292.1,0.7c13.9,0.2,30.9,7.4,41.1,17c47.1,44.6,93,90.6,137.7,137.6
			c9.1,9.6,16,25.6,16.1,38.7c1.1,134.4,1.4,268.9,0.4,403.3c-0.6,79.5-54.3,131.3-133.7,132.2C875.9,871.7,852.9,871.5,825,871.5z
			 M772.9,871.5c-11.7,0-21.6,0-31.6,0c-32.5-0.1-65,1.6-97.3-1.2c-9.3-0.8-22.2-12.9-25-22.4c-4.8-16.2,7.8-25.1,23.5-27.3
			c7.3-1,14.8-0.5,22.2-0.5c77,0,153.9,0.1,230.9,0c55.3-0.1,85.3-30.3,85.4-86.2c0.2-118.7,0.1-237.4,0-356
			c0-8.1-0.8-16.3-1.4-27.4c-36.3,0-71.3,0.1-106.2,0c-43.9-0.1-48.3-4.4-48.4-47.3c0-35.8,0-71.5,0-109.7
			c-93.5,0-183.3-0.2-273,0.1c-62.9,0.2-93.1,31.1-93.2,94.7c-0.2,77.9-0.2,155.8,0.1,233.6c0.1,18.1-1.4,35.8-23.9,36.3
			c-23.5,0.6-27.4-17.1-27.2-36.7c0.3-38.7,0.1-77.3,0.1-118.5c-26.9,0-50.8-0.2-74.7,0c-49.9,0.4-81.2,31.6-81.3,81.8
			c-0.3,153.9-0.2,307.8,0,461.7c0.1,47.8,28.4,81.5,75.5,82.2c123.3,1.7,246.6,1.5,369.9,0c41.2-0.5,70.4-28.2,75-68.6
			C775.5,932,772.9,903.3,772.9,871.5z M877.9,296.1c22.2,0,41.5,0,52.2,0c-14.8-17.7-32-38.4-52.2-62.7
			C877.9,257.2,877.9,275.9,877.9,296.1z"/>
		<path class="st0" d="M676.3,507.1c-25.7,0-51.3,0.1-77,0c-18.6-0.1-34.6-5.6-33.8-27.5c0.7-20.5,16.6-23.9,33.9-23.8
			c46.4,0.3,92.7,0.5,139.1-0.1c23.3-0.3,33.9,9.8,33.7,33.4c-0.6,47.3-0.3,94.6-0.1,141.8c0.1,16.7-4.8,30.6-23.4,31.5
			c-20,1-27.4-12.9-27.6-30.8c-0.4-26.6-0.1-53.3-0.1-85.5c-10.6,9.5-17.3,15-23.5,21.1c-77.4,77.3-154.7,154.7-232.1,232
			c-5.9,5.9-11.7,14.3-18.8,15.8c-9.5,1.9-23.7,1.7-29.5-4.1c-5.8-5.7-6.2-19.9-4.4-29.4c1.4-7,9.9-12.9,15.7-18.7
			c83.3-83.1,166.7-166.1,250.1-249.2C677.7,511.6,677,509.4,676.3,507.1z"/>
	</g>
</g>
</svg>
