<?xml version="1.0" encoding="utf-8"?>
<!-- Generator: Adobe Illustrator 25.4.1, SVG Export Plug-In . SVG Version: 6.00 Build 0)  -->
<svg version="1.1" id="Capa_1" xmlns="http://www.w3.org/2000/svg" xmlns:xlink="http://www.w3.org/1999/xlink" x="0px" y="0px"
	 viewBox="0 0 1305 1128" style="enable-background:new 0 0 1305 1128;" xml:space="preserve">
<style type="text/css">
	.st0{fill:#999999;}
</style>
<g>
	<path class="st0" d="M249.3,274.5c0,101.4,0,461,0,562.6c4.2,0,8.3,0,12.5,0c36.7,0,73.4,0.2,110.1-0.1
		c11.7-0.1,20.8,3.9,25.7,14.7c4.7,10.1,2.7,19.5-4.1,28.5c-49,65.1-97.7,130.3-146.5,195.4c-14.4,19.2-32.6,18.6-47.2-0.8
		c-47.9-64.1-96-128.1-144.1-192.1c-7.3-9.7-11.9-19.9-6-31.5c5.9-11.5,16.2-14.4,28.7-14.3c39.4,0.5,78.8,0.2,119.1,0.2
		c0-100.9,0-460.8,0-562.6c-4.1,0-8.3,0-12.5,0c-36.3,0-72.6-0.1-108.9,0.1c-11.6,0.1-21.1-3.6-26.5-14.1
		c-5.7-11.2-1.8-21.3,5.2-30.6c48.3-64.3,96.6-128.5,144.8-192.9c14.7-19.7,33.3-19.6,48.3,0.3c23.1,30.8,46.3,61.7,69.4,92.5
		c25.5,34,50.8,68.1,76.4,102c6.8,9,8.6,18.4,3.7,28.6c-4.9,10.2-13.6,14.3-24.9,14.3c-36.7-0.2-73.4-0.1-110.1-0.1
		C258.4,274.5,254.1,274.5,249.3,274.5z M223.6,89.5c-33.9,45.2-66.8,89.3-100.4,134.1c68.2,0,134,0,201.2,0
		C290.4,178.4,257.3,134.4,223.6,89.5z M324.2,888c-67.8,0-133.3,0-201.1,0c34.1,45.5,67,89.5,100.6,134.2
		C257.3,977.3,290.2,933.4,324.2,888z"/>
	<path class="st0" d="M852.5,886.7c-121.1,0-242.2,0-363.3,0c-2.8,0-5.5,0-8.3,0c-18.5-0.3-30.4-10.5-30.2-25.8
		c0.1-15.3,12-25.4,30.7-25.4c248.1,0,496.2,0,744.3,0c19.2,0,27.2,5.3,31.3,20.1c3.5,12.3-4.2,26.1-16.7,29c-6,1.4-12.4,2-18.6,2
		C1098.6,886.7,975.5,886.7,852.5,886.7z"/>
	<path class="st0" d="M854.4,428.9c123.1,0,246.1,0,369.2,0c20.2,0,28.7,5.2,32.9,19.6c3.6,12.3-3.7,26.3-16,29.5
		c-5.6,1.5-11.6,2-17.4,2c-245.7,0.1-491.5,0.1-737.2,0c-5,0-10.2-0.8-15.1-1.7c-12.6-2.5-19.6-10.5-20.1-22.3
		c-0.5-13,5.6-21.8,18.3-25.2c5.2-1.4,10.8-1.8,16.2-1.8C608.3,428.8,731.4,428.9,854.4,428.9z"/>
	<path class="st0" d="M854.9,632.2c123.1,0,246.1,0,369.2,0c20.2,0,28.9,5.3,32.9,19.7c3.6,13.1-4,26.5-17.3,29.6
		c-5.3,1.2-10.8,1.9-16.3,1.9c-245.7,0.1-491.5,0.1-737.2,0c-4.3,0-8.6-0.5-12.8-1.3c-15.4-3.1-23-11.7-22.6-25.2
		c0.4-12.8,10-22.5,24.3-24.5c3.5-0.5,7.1-0.2,10.6-0.2C608.7,632.2,731.8,632.2,854.9,632.2z"/>
	<path class="st0" d="M854.6,73.5c-122.3,0-244.6,0-366.8-0.1c-6.2,0-12.5-0.7-18.7-1.9c-11.7-2.3-18.5-11.5-18.5-23.8
		c0-12.3,6.9-21.1,18.8-23.5c5.3-1.1,10.9-1.9,16.3-1.9c245.7-0.1,491.5-0.1,737.2-0.1c20.8,0,29.1,4.8,33.5,19
		c4.1,13.2-3.1,27-16.3,30.2c-6,1.5-12.4,2-18.6,2C1099.2,73.5,976.9,73.5,854.6,73.5z"/>
	<path class="st0" d="M854.5,276.8c-122.3,0-244.6,0-366.8-0.1c-6.2,0-12.5-0.7-18.7-1.9c-11.2-2.2-18.1-11.2-18.4-22.7
		c-0.2-12.3,6.5-22,17.7-24.5c5.7-1.3,11.6-2,17.5-2c245.7-0.1,491.5-0.1,737.2-0.1c22.3,0,35.3,9.6,35.1,25.9
		c-0.2,16.3-13,25.4-35.6,25.4C1099.9,276.8,977.2,276.8,854.5,276.8z"/>
	<path class="st0" d="M678.2,1090c-65,0-130.1,0.3-195.1-0.3c-8-0.1-16.9-3.3-23.8-7.6c-8.6-5.3-10.6-16-6.7-24.3
		c3.3-6.9,10.8-12.5,17.7-16.7c4.2-2.6,10.6-2.2,16.1-2.2c128.5-0.1,257-0.1,385.6-0.1c19.1,0,29.1,6.4,32.3,20.5
		c2.9,13-4.2,25.6-17,28.7c-5.3,1.3-10.8,1.9-16.3,1.9C806.7,1090,742.5,1090,678.2,1090z"/>
</g>
</svg>
