<?xml version="1.0" encoding="utf-8"?>
<!-- Generator: Adobe Illustrator 23.1.0, SVG Export Plug-In . SVG Version: 6.00 Build 0)  -->
<svg version="1.1" id="Capa_1" xmlns="http://www.w3.org/2000/svg" xmlns:xlink="http://www.w3.org/1999/xlink" x="0px" y="0px"
	 viewBox="0 0 1200 1200" style="enable-background:new 0 0 1200 1200;" xml:space="preserve">
<style type="text/css">
	.st0{fill:#999999;}
</style>
<g id="FqvzTI_1_">
	<g>
		<path class="st0" d="M273.1,239.2c0-15.5,0-30.6,0-45.7c0-11.7,6.3-17.8,18-17.8c16.4,0,32.7,0,49.1,0c1.5,0,3.1,0,5.3,0
			c0-1.8,0-3.3,0-4.8c0-14.1,0-28.2,0-42.3c0-10.5,6.6-16.9,17.1-16.9c141.8,0,283.6,0,425.4,0c30.5,0,60.9,0.1,91.4-0.1
			c6.2,0,10.9,2,15.2,6.3c42.4,42.5,84.9,85,127.3,127.4c1.6,1.6,3.3,3.2,4.8,4.8c3.5,3.6,5.4,7.9,5.3,13.1c-0.1,5.1,0,10.2,0,15.4
			c0,228.4,0,456.7,0,685.1c0,3.2-0.1,6.7-1.2,9.6c-2.7,6.9-8.1,10.2-15.7,10.2c-16.6-0.1-33.3,0-49.9,0c-1.6,0-3.1,0-5.2,0
			c-0.1,1.7-0.2,3.2-0.2,4.7c0,13.8,0,27.6,0,41.4c0,11.1-6.4,17.6-17.4,17.6c-18.1,0-36.1,0-54.8,0c-0.1,1.7-0.2,3.2-0.2,4.6
			c0,14.2,0,28.5,0,42.7c0,10-6.5,16.6-16.5,16.6c-41.3,0-82.6-0.1-123.8-0.1c-96.7,0-193.3,0.1-290,0.1c-79.4,0-158.9,0-238.3,0
			c-11.8,0-17.9-6.3-17.9-18.4c0-83,0-166,0-249c0-195.2,0-390.4,0-585.6c0-5.7,1-10.7,5.4-14.7c3.5-3.2,7.6-4.1,12.2-4.1
			c17.2,0.1,34.4,0,51.7,0C270.9,239.5,271.7,239.3,273.1,239.2z M233.2,271.7c0,269.4,0,538.1,0,807.1c207.4,0,414.5,0,621.9,0
			c0-224.4,0-448.3,0-672.6c-2.1,0-3.8,0-5.5,0c-36.7,0-73.5,0-110.2,0c-12.5,0-18.6-6.2-18.6-18.7c0-36.9,0-73.8,0-110.6
			c0-1.6,0-3.3,0-5.1C557.9,271.7,395.7,271.7,233.2,271.7z M305.6,239.5c1.9,0,3.6,0,5.3,0c18.2,0,36.4,0,54.6,0
			c63.3,0,126.7,0,190,0c59.6,0,119.3,0,178.9-0.1c6.3,0,11.2,2,15.6,6.4c43.1,43.2,86.2,86.4,129.5,129.5c5.6,5.5,8,11.4,7.9,19.2
			c-0.2,88.4-0.2,176.8-0.3,265.2c0,76.6,0.1,153.2,0.1,229.7c0,40.1,0,80.3,0,120.4c0,1.7,0,3.3,0,5.2c13.6,0,26.6,0,40.1,0
			c0-1.8,0-3.3,0-4.9c0-29.2,0.1-58.4,0.1-87.5c0-104.1-0.1-208.1-0.1-312.2c0-91.3,0-182.5-0.1-273.8c0-2.2-1.1-5.1-2.6-6.7
			c-9.7-10-19.7-19.7-29.6-29.5c-28.7-28.8-57.5-57.5-86.1-86.5c-4.6-4.7-9.2-6.5-15.9-6.5c-93,0.2-185.9,0.1-278.9,0.1
			c-67.9,0-135.8,0-203.7,0.1c-1.6,0-3.3,0-5,0C305.6,218.6,305.6,228.8,305.6,239.5z M999.9,951.1c0-1.8,0-3.1,0-4.3
			c0-31.6,0-63.2,0-94.8c0-103.8,0-207.5,0-311.3c0-60.1,0-120.1,0-180.2c0-29.2,0.1-58.4-0.1-87.6c0-2-0.9-4.5-2.3-6
			c-8.6-9-17.5-17.8-26.4-26.7c-31.2-31.2-62.3-62.4-93.6-93.4c-1.6-1.6-4.4-2.7-6.6-2.7c-38.3-0.2-76.6-0.1-114.9-0.1
			c-88.7,0-177.4,0-266.1,0c-36,0-72,0-108,0c-1.3,0-2.7,0-4.1,0c0,10.9,0,21.1,0,31.5c1.4,0.1,2.5,0.2,3.6,0.2
			c32.5,0,64.9,0,97.4,0c109.6,0,219.2,0,328.9,0c6,0,10.6,2.2,14.7,6.4c9.6,9.9,19.4,19.6,29.2,29.3c17.5,17.5,35,34.9,52.6,52.4
			c16.2,16.2,32.3,32.4,48.6,48.5c4.7,4.7,7.1,9.8,7.1,16.6c-0.1,107.6-0.1,215.2-0.1,322.8c0,98.1,0,196.2,0,294.2
			c0,1.7,0,3.3,0,5.2C973.3,951.1,986.3,951.1,999.9,951.1z M753.5,295.9c0,25.8,0,51.7,0,77.7c26.1,0,51.9,0,77.7,0
			C805.2,347.6,779.3,321.7,753.5,295.9z"/>
		<path class="st0" d="M363.4,494.3c10.7-12,21-23.6,31.2-35.2c15.8-17.8,31.5-35.5,47.3-53.3c5.5-6.2,10.8-12.4,16.6-18.4
			c4.8-5,11.9-5.9,18.1-3.1c5.8,2.7,9.9,8.9,8.8,15.6c-0.6,3.7-2.2,7.8-4.7,10.6c-17.8,20.5-35.9,40.7-54,61
			c-17.7,19.9-35.3,39.8-53.1,59.5c-7.5,8.4-19.5,7.3-25.8-2.1c-18.8-28.1-37.6-56.2-56.4-84.4c-4.8-7.2-2.9-17.2,4.1-22
			c7.2-5,17.5-3.4,22.4,3.8c14.7,21.7,29.1,43.5,43.7,65.2C362.1,492.5,362.6,493.1,363.4,494.3z"/>
		<path class="st0" d="M363.3,895.2c8.6-9.6,16.8-18.8,25-28c18.1-20.2,36.2-40.5,54.2-60.8c4.6-5.2,9.1-10.5,13.6-15.8
			c7-8.2,17-9.1,24.8-2.1c6.6,5.9,6.2,16.1-0.6,23.7c-21.8,24.4-43.4,48.9-65.1,73.3c-13.7,15.4-27.2,30.9-41.1,46.2
			c-8.1,9-19.6,8.2-26.4-1.8c-18.9-28.2-37.8-56.4-56.6-84.7c-4.6-6.8-2.4-16.9,4.4-21.6c6.9-4.8,17.1-3.6,21.8,3.2
			c10.9,15.9,21.6,32.1,32.3,48.1C354.2,881.6,358.6,888.2,363.3,895.2z"/>
		<path class="st0" d="M363.3,694.8c6.3-7.1,12.2-13.7,18.2-20.4c24.9-28.1,49.8-56.1,74.7-84.2c4.8-5.4,10.5-8.3,17.8-6.3
			c6.2,1.7,9.9,5.9,11.3,12.1c1.2,5.4-0.1,10.3-3.7,14.3c-30.4,34.2-60.8,68.4-91.2,102.6c-5.5,6.2-10.8,12.4-16.3,18.5
			c-7.6,8.5-19.5,7.9-25.9-1.5c-14.6-21.7-29.1-43.4-43.6-65.2c-4.3-6.4-8.5-12.8-12.7-19.1c-4.8-7.2-3.3-17.2,3.5-22.1
			c7.1-5.2,17.7-3.8,22.7,3.5c10.9,15.9,21.5,32.1,32.2,48.1C354.4,681.5,358.7,687.8,363.3,694.8z"/>
		<path class="st0" d="M631,844.7c29.9,0,59.7,0,89.6,0c11.2,0,18.6,9.2,16.3,19.9c-1.6,7.3-8.5,12.4-17.2,12.4
			c-17.2,0.1-34.4,0-51.6,0c-41.8,0-83.6,0-125.5,0c-6.5,0-12.1-1.8-15.8-7.5c-3.5-5.5-3.7-11.3-0.4-17c3.1-5.4,8-7.9,14.1-7.9
			c25.5,0,50.9,0,76.4,0C621.6,844.7,626.3,844.7,631,844.7z"/>
		<path class="st0" d="M630.5,676.5c-29.9,0-59.7,0-89.6,0c-9.8,0-16.9-7.2-16.7-16.6c0.1-9,7.3-15.7,17.2-15.7
			c15.8-0.1,31.6,0,47.4,0c43.4,0,86.8,0,130.2,0c6.5,0,12.1,1.7,15.8,7.4c3.3,5.1,3.7,10.5,1,15.8c-2.9,5.8-7.7,9.1-14.3,9.1
			c-16.4,0.1-32.7,0-49.1,0C658.4,676.5,644.4,676.5,630.5,676.5z"/>
		<path class="st0" d="M630.8,937.8c-30,0-60,0.1-90,0c-12.8,0-20.4-12.3-14.7-23.6c2.8-5.7,7.8-8.6,14.1-8.6
			c33.6-0.1,67.1,0,100.7,0c26.6,0,53.2-0.1,79.8,0c10.9,0,18.4,9.1,16.3,19.6c-1.5,7.4-8.3,12.7-16.5,12.7
			C690.6,937.9,660.7,937.8,630.8,937.8z"/>
		<path class="st0" d="M630.8,705.2c29.8,0,59.5,0.2,89.3-0.1c10.8-0.1,18.2,8.7,17.2,17.8c-0.9,7.6-6.9,13.8-14.6,14.3
			c-2.8,0.2-5.7,0.2-8.5,0.2c-57.2,0-114.4,0-171.7,0c-9.3,0-15-3.7-17.5-11.4c-3.3-9.6,3.5-20.1,13.7-20.6
			c7.8-0.4,15.7-0.2,23.5-0.2C585,705.2,607.9,705.2,630.8,705.2z"/>
		<path class="st0" d="M588.1,536.9c-15.8,0-31.5,0-47.3,0c-9.4,0-16.6-7.2-16.7-16.3c0-8.9,7.1-15.9,16.5-15.9
			c31.6,0,63.1,0,94.7,0c9.7,0,16.9,6.9,16.9,16c0,9.2-7.1,16.2-16.8,16.2C619.6,537.1,603.8,537,588.1,536.9
			C588.1,537,588.1,537,588.1,536.9z"/>
		<path class="st0" d="M588.2,443.8c15.5,0,31-0.1,46.6,0c8.5,0,14.2,3.9,16.5,10.9c3.1,9.4-2.7,19.1-12.5,21
			c-1.3,0.2-2.5,0.3-3.8,0.3c-31.2,0-62.4,0.1-93.5,0c-9.9,0-16.9-6.3-17.3-15.3c-0.5-9.8,6.5-16.9,17.1-17
			C556.9,443.7,572.6,443.8,588.2,443.8z"/>
	</g>
</g>
</svg>
