<?xml version="1.0" encoding="utf-8"?>
<!-- Generator: Adobe Illustrator 23.1.0, SVG Export Plug-In . SVG Version: 6.00 Build 0)  -->
<svg version="1.1" id="Capa_1" xmlns="http://www.w3.org/2000/svg" xmlns:xlink="http://www.w3.org/1999/xlink" x="0px" y="0px"
	 viewBox="0 0 1200 1200" style="enable-background:new 0 0 1200 1200;" xml:space="preserve">
<style type="text/css">
	.st0{fill:#999999;}
</style>
<g id="KfnOJG.tif">
	<g>
		<path class="st0" d="M839.6,550c14.8-15.1,29.6-30.3,44.5-45.3c35-35.1,70-70.2,105-105.2c18.6-18.6,36.7-18.6,55.4-0.1
			c5.3,5.2,10.5,10.5,15.8,15.7c19.5,19.4,19.7,37.6,0.4,56.9C1010.6,522.4,960.2,572.7,910,623c-22,22-43.9,44.2-66.2,66
			c-5,4.9-6.8,9.8-6.8,16.7c0.2,118.9,0.1,237.8,0.1,356.8c0,20.2-4.8,25-25,25c-209.8,0-419.7,0-629.5,0c-20.3,0-25-4.7-25-24.9
			c0-244.2,0-488.4-0.2-732.7c0-10,3.1-17.4,10.1-24.4c53.5-53.1,106.8-106.5,159.9-159.9c6.7-6.8,13.8-9.9,23.4-9.9
			c154.3,0.2,308.6,0.1,462.9,0.1c18,0,23.4,5.4,23.4,23.4c0,126,0,252,0,378c0,3.8,0,7.6,0,11.5C838,549,838.8,549.5,839.6,550z
			 M192.4,339.6c0,238.7,0,476,0,713.1c203.8,0,406.8,0,610,0c0-107.1,0-213.7,0-321.8c-3.9,3.7-6.7,6.3-9.4,8.9
			c-47.8,47.8-95.5,95.7-143.5,143.3c-4.4,4.3-9.8,8.4-15.5,10.5c-21.3,7.7-42.9,14.3-64.3,21.6c-8,2.7-16.7,3.7-21.2-3.6
			c-3.3-5.4-4.3-14.2-2.6-20.4c5.8-20.7,12.8-41.2,20.2-61.4c2.5-6.7,6.5-13.4,11.5-18.5c72.3-72.8,144.9-145.4,217.6-217.8
			c5.8-5.7,7.9-11.4,7.9-19.4c-0.2-131-0.2-261.9-0.1-392.9c0-3.7,0-7.4,0-10.9c-148.1,0-294.4,0-441.7,0c0,4.4,0,8.2,0,12
			c0,45.7,0.1,91.3,0,137c0,13.5-6.1,20-18.9,20.3c-7.1,0.2-14.2,0-21.2,0C278.5,339.6,235.7,339.6,192.4,339.6z M968.5,470.1
			C856.8,581.8,745.4,693.2,634.4,804.2c7.3,7.2,15.1,14.7,21.6,21.2c111-110.8,222.5-222.2,334.3-333.9
			C983.4,484.8,975.9,477.4,968.5,470.1z M219.7,304.9c35,0,71.1,0,107.2,0c0-36.6,0-72.4,0-107.9
			C291,233.1,255.3,269.1,219.7,304.9z M1015,466.7c8.3-8.1,16.2-15.9,23.7-23.4c-7-7.3-14.4-15-21.4-22.3
			c-8.4,8.1-16.5,15.8-23.6,22.6C1001.3,451.9,1008.7,459.9,1015,466.7z M607.3,829.8c-13.5,10-13.2,27.3-20.1,44.7
			c16.6-8.5,34.2-7.2,44.8-22.3C624.1,845,616.3,838,607.3,829.8z"/>
		<path class="st0" d="M497,475.6c-70.8,0-141.6,0-212.3,0c-3.2,0-6.4,0.2-9.5-0.2c-9.3-1.1-15.9-8.3-15.4-17.1
			c0.5-9.4,5.9-14.9,15.1-16.4c2.8-0.5,5.6-0.2,8.5-0.2c143,0,286,0,428.9,0c2.5,0,5-0.2,7.4,0.1c9.2,1.1,16,8.4,15.5,17.2
			c-0.5,9.4-5.9,14.9-15.1,16.4c-3.1,0.5-6.4,0.2-9.5,0.2C639.2,475.6,568.1,475.6,497,475.6z"/>
		<path class="st0" d="M497.9,509.6c70.8,0,141.6,0,212.4,0c3.2,0,6.4-0.3,9.5,0.2c9.2,1.4,14.6,7,15.2,16.3
			c0.6,8.7-6.2,16.1-15.4,17.3c-3.1,0.4-6.4,0.2-9.5,0.2c-142.3,0-284.6,0-426.8,0c-3.2,0-6.5,0.3-9.5-0.4
			c-9-2.1-14.3-7.8-14.1-17.3c0.3-8.9,5.6-14.3,14.2-16c3.4-0.7,7.1-0.3,10.6-0.3C355.6,509.6,426.8,509.6,497.9,509.6z"/>
		<path class="st0" d="M497.3,577.5c71.1,0,142.3,0,213.4,0c3.2,0,6.4-0.3,9.5,0.3c9.1,1.7,14.7,7.4,14.7,16.8
			c0,9.4-5.6,15-14.7,16.7c-2.7,0.5-5.6,0.2-8.5,0.2c-142.3,0-284.5,0-426.8,0c-3.5,0-7.2,0.4-10.6-0.3c-9.1-1.7-14.7-7.3-14.6-16.7
			c0-9.4,5.5-15.1,14.7-16.7c3.8-0.7,7.8-0.3,11.7-0.3C356.5,577.5,426.9,577.5,497.3,577.5z"/>
		<path class="st0" d="M377.4,917.4c-32.6,0-65.1-0.1-97.7,0.1c-10.1,0-17.4-3.7-19.8-13.9c-2.7-11.1,6.2-20.1,19.7-20.1
			c42.8-0.1,85.6,0,128.5,0c22.7,0,45.3,0,68,0c13.4,0,21.2,6.4,21.2,16.9c0,10.6-7.8,17-21.1,17
			C443.2,917.4,410.3,917.4,377.4,917.4z"/>
	</g>
</g>
</svg>
