<?xml version="1.0" encoding="utf-8"?>
<!-- Generator: Adobe Illustrator 25.4.1, SVG Export Plug-In . SVG Version: 6.00 Build 0)  -->
<svg version="1.1" id="Capa_1" xmlns="http://www.w3.org/2000/svg" xmlns:xlink="http://www.w3.org/1999/xlink" x="0px" y="0px"
	 viewBox="0 0 1312 1096" style="enable-background:new 0 0 1312 1096;" xml:space="preserve">
<style type="text/css">
	.st0{fill:#999999;}
</style>
<g id="gZ3H0t_00000108987298102465667330000001183058961377422215_">
	<g>
		<path class="st0" d="M762.3,122.6c-106.9,0-212.4,0-319.2,0c0,17.5,0,34.5,0,52.2c-35.9,0-70.4,0-106.1,0c0-52.5,0-105.2,0-158.8
			c319.6,0,639.4,0,959.8,0c0,53,0,105.5,0,158.8c-35,0-69.5,0-105.8,0c0-17.1,0-34.3,0-52.1c-107.6,0-213.4,0-320.2,0
			c0,284.5,0,568.8,0,854.1c17.3,0,33.9,0,51.5,0c0,35.8,0,70.6,0,106.3c-70.4,0-140.7,0-211.9,0c0-35.1,0-69.9,0-106.1
			c17.3,0,34.2,0,51.9,0C762.3,691.5,762.3,407.4,762.3,122.6z"/>
		<path class="st0" d="M121.9,444.2c0,16.9,0,33.3,0,50.6c-35.6,0-70.4,0-105.9,0c0-52.6,0-105,0-158.1c213.3,0,426.1,0,639.5,0
			c0,52.8,0,104.8,0,157.9c-34.9,0-69.7,0-106,0c0-16.6,0-33.5,0-51.2c-53.9,0-106.3,0-159.5,0c0,177.4,0,354.4,0,532.9
			c16.8,0,33.8,0,51.6,0c0,36.3,0,71.1,0,106.7c-70.5,0-140.7,0-211.9,0c0-35,0-69.8,0-105.9c17.1,0,34,0,51.8,0
			c0-178,0-354.7,0-532.9C229.1,444.2,176.3,444.2,121.9,444.2z"/>
	</g>
</g>
</svg>
