<svg xmlns="http://www.w3.org/2000/svg" xmlns:xlink="http://www.w3.org/1999/xlink" version="1.1" id="Capa_1" x="0px" y="0px" style="enable-background:new 0 0 1200 1200;" xml:space="preserve" viewBox="235.82 380.63 729.45 437.65">

<g>
	<path class="st0" d="M600.3,817.9c-118.6,0-237.2-0.1-355.8,0.1c-6.4,0-8.5-1.2-8.4-8.2c0.2-140.2,0.2-280.4,0-420.7   c0-6.9,2-8.2,8.4-8.2c237.2,0.2,474.4,0.2,711.7,0c6.7,0,8.8,1.4,8.8,8.5c-0.2,140-0.2,279.9,0,419.9c0,7.1-2.1,8.6-8.8,8.6   C837.5,817.8,718.9,817.9,600.3,817.9z M602,411.1c-108.2,0-216.5,0.1-324.7-0.2c-7.3,0-9.8,1.3-9.8,9.4   c0.3,119.3,0.3,238.5,0,357.8c0,8.1,2.5,9.4,9.8,9.4c216.2-0.2,432.5-0.2,648.7,0c7.3,0,9.9-1.3,9.9-9.4   c-0.3-119.3-0.3-238.5,0-357.8c0-7.2-1.6-9.3-9.1-9.3C818.5,411.2,710.3,411.1,602,411.1z"/>
	<path class="st0" d="M457.9,594.4c16.1,6.2,25.2,16.9,25.6,33.8c0.5,21-11.9,35.7-34.1,40.9c-15.4,3.6-31,2.4-46.6,1.4   c-4.1-0.3-5.3-2.6-5.3-6.6c0.1-43.2,0.1-86.3,0.1-129.5c0-2.8-0.3-5.6,3.7-6.2c17-2.4,34-4.1,51,0.5c14.5,3.9,24.1,12.5,26.1,27.9   c1.9,14.6-3.1,26.2-15.7,34.3C461.3,591.8,460.2,592.7,457.9,594.4z M427.4,627.7c0,5.6,0.2,11.1-0.1,16.7c-0.2,4.2,1.7,5.1,5.4,5   c12.5-0.1,20.4-7.8,20.7-20.2c0.2-13.2-7.9-21.7-20.6-22.2c-4.4-0.2-5.8,1.4-5.5,5.6C427.6,617.5,427.4,622.6,427.4,627.7z    M434.2,547.7c-4.7-0.5-7.6,1.3-7.2,7.6c0.4,7,0.1,14.1,0.1,21.1c0,10,1.2,10.8,10.8,7.9c8.3-2.5,13.5-11.7,12.2-21.8   C449,553.2,443.5,547.8,434.2,547.7z"/>
	<path class="st0" d="M332.3,529.5c17.3,0,17.2,0,20.6,16.7c7.8,39.2,15.4,78.5,23.6,117.7c1.4,6.5-0.6,7.5-6,6.9   c-2.5-0.3-5.1,0-7.6-0.1c-15.6-0.4-11.8,2.9-15.7-13.4c-0.1-0.2,0-0.5-0.1-0.8c-3.5-18.7-3.5-18.6-22.6-17.8   c-4.5,0.2-7.1,1.9-8,6.3c-1.4,6.6-3.3,13.2-4.3,19.9c-0.7,4.8-2.9,6.6-7.5,6c-1.2-0.2-2.5,0-3.8,0c-18.2,0-18.1,0-14.1-17.3   c8.9-39,17.8-78,26.2-117.1c1.4-6.3,3.9-7.8,9.5-7.2C325.7,529.8,329,529.5,332.3,529.5z M331.8,559.4c-0.4,0.1-0.9,0.1-1.3,0.2   c-3,17.1-6.1,34.1-9,51.2c-0.4,2.2-1.6,5.5,2.6,5.7c4.5,0.2,9.1,0.1,13.6,0c3.1-0.1,2.6-2,2.3-4.2   C337.2,594.6,334.5,577,331.8,559.4z"/>
	<path class="st0" d="M776.6,645.4c13.6,0,24.9,0.2,36.2-0.1c5-0.1,6.4,1.4,6.4,6.4c0.1,19.1,0.3,19.1-18.6,19.1   c-17.5,0-34.9-0.3-52.4,0.2c-6.1,0.2-7.5-2.3-7.3-7.3c0.2-8,1.9-15.3,7.4-21.7c10-11.4,19.1-23.5,27.1-36.4   c6.1-9.7,10.5-20,12.6-31.4c2.9-16.2-6.8-26.1-23.1-23.1c-1,0.2-1.9,0.7-2.9,0.8c-4.4,0.7-9.3,6.1-12.2,3.5   c-4.1-3.7-3.3-10.8-4.5-16.4c-0.6-3,1.4-5.1,4.1-6.5c15.1-7.2,30.6-8.9,46.2-2.5c16.2,6.6,24.4,25.7,21.3,45.9   c-3.3,22.4-16.4,39.2-29.8,56.1C784.1,635.9,781,639.8,776.6,645.4z"/>
	<path class="st0" d="M891.7,592.4c5.1,3.8,9.9,6.8,13.6,11c15.1,17.4,11.7,45-7.6,58.7c-14.9,10.6-31.6,10.6-48.6,7.3   c-4.3-0.8-7.4-3.4-7.9-8c-0.6-5.6,0.6-11.1,3.4-15.9c1.3-2.2,4.3-0.5,6.4,0c5.1,1.3,10.2,2.9,15.6,2.5c9.9-0.6,17.3-6.9,19.2-16.4   c1.9-9.6-2.3-18.5-11-22.7c-2.9-1.4-6.2-2.2-9.3-3.1c-3.2-1-8.3,1.3-9.2-3c-1.1-5.3-0.4-11-0.2-16.6c0.1-1.9,2.2-1.6,3.6-2   c3.9-0.9,8-1.5,11.7-2.9c8.3-3.2,12.1-11.8,9.8-21.3c-1.7-6.8-6.4-9.7-16-9.1c-4.2,0.3-8.6,0.8-12.6,2.2c-4.3,1.5-5.2-0.4-5.9-3.9   c-3.1-15.9-1-19.2,15.1-22c7-1.2,14.2-1.3,21.1,0.1c13.7,2.8,23.9,10.5,26.8,24.5c3.1,14.5-0.6,27.6-13.2,37   C895.1,589.7,893.7,590.8,891.7,592.4z"/>
	<path class="st0" d="M556.8,671c-27.6,0.1-44.5-12-52.7-38.5c-7.9-25.5-7.1-50.7,4.8-75c11.4-23.3,36.3-35.5,61.7-30.6   c5.7,1.1,8.5,4,7,10c-0.1,0.2-0.1,0.5-0.1,0.7c-1,4.4-0.9,9.7-3.4,13c-3.1,4.1-8.3-0.2-12.6-0.1c-12.1,0.5-20.5,5.5-25.2,17   c-8.1,19.7-9,39.6-1.3,59.6c5.8,15.3,16.7,21.9,32.6,18.7c6-1.2,7,0.4,7.8,5.8C578,670,577.3,671,556.8,671z"/>
	<path class="st0" d="M688.6,555.6c-7,3.4-13.2,6.1-19,9.4c-4,2.2-5.6,1.4-7-2.9c-4.1-12.8-3-15.9,8.3-23.1c12.5-8,26-11.9,40.9-11   c4,0.3,5.7,1.3,5.7,5.7c-0.1,43.9-0.1,87.8,0,131.7c0,4.5-1.6,5.6-5.7,5.4c-5.5-0.3-11.1-0.4-16.7,0c-5.6,0.5-6.6-2-6.5-7   c0.2-33.1,0.1-66.1,0.1-99.2C688.6,562,688.6,559.3,688.6,555.6z"/>
	<path class="st0" d="M616.4,613.1c-8.1,0-16.1-0.2-24.2,0.1c-3.8,0.1-5.1-1.1-5.3-5.1c-1.1-23.7-1.2-23.7,22.3-23.7   c10.1,0,20.2,0.1,30.2-0.1c3.9-0.1,5.4,1.2,5.2,5.2c-0.4,7.5,2.3,17-1.3,22c-3.6,4.9-13.6,1.1-20.8,1.6   C620.4,613.3,618.4,613.1,616.4,613.1z"/>
	<path class="st0" d="M834.1,744c-0.1-8.2,5.8-14.2,14.1-14.3c8.2-0.1,14.6,5.9,14.8,13.7c0.2,7.8-7,15.2-14.7,15.1   C840.6,758.4,834.1,751.9,834.1,744z"/>
	<path class="st0" d="M353.8,468c-7.9-0.1-14.4-6.7-14.2-14.6c0.2-7.7,7.2-14.5,14.8-14.4c7.8,0.2,14.1,6.9,14.1,14.9   C368.4,461.9,361.9,468.1,353.8,468z"/>
	<path class="st0" d="M848.3,467.9c-8.1-0.1-14.2-6.3-14.2-14.3c0-7.9,6.5-14.5,14.2-14.6c7.7-0.1,14.9,7.2,14.7,15.1   C862.8,461.8,856.3,468,848.3,467.9z"/>
	<path class="st0" d="M368.4,743.7c0.1,7.9-6.3,14.7-14.1,14.9c-7.5,0.2-14.5-6.7-14.7-14.4c-0.2-7.8,6.3-14.4,14.3-14.5   C362.1,729.5,368.3,735.5,368.4,743.7z"/>
</g>
</svg>