<svg xmlns="http://www.w3.org/2000/svg" xmlns:xlink="http://www.w3.org/1999/xlink" version="1.1" id="Capa_1" x="0px" y="0px" style="enable-background:new 0 0 1200 1200;" xml:space="preserve" viewBox="361.23 364.03 452.25 524.65">

<g id="zgbNUg_00000177465683550836083740000013371277220078739617_">
	<g>
		<path class="st0" d="M719.3,809.7c-119.4,0-238.3,0-357.7,0c0-1.7,0-3.2,0-4.6c0-105,0-209.9-0.1-314.9c0-3.8,1.2-6.4,3.8-9.2    c35.5-37.4,71-75,106.4-112.6c2.7-2.9,5.4-4.1,9.5-4.1c77,0.1,153.9,0.1,230.9,0.1c2.3,0,4.6,0,7.3,0    C719.3,513.1,719.3,661.2,719.3,809.7z M483.2,394.2c0,35.4,0,70.2,0,104.8c-32.8,0-65.2,0-97.7,0c0,94.1,0,187.7,0,281.4    c103.7,0,206.7,0,310,0c0-129,0-257.5,0-386.3C624.7,394.2,554.2,394.2,483.2,394.2z M403.7,476.4c18.4,0,36.1,0.1,53.8-0.1    c0.9,0,2.7-2.2,2.7-3.4c0.1-16.3,0-32.6,0-48.8c0-1.2-0.2-2.5-0.4-3.8C441.2,438.9,422.8,457.3,403.7,476.4z"/>
		<path class="st0" d="M789.7,472.2c-18.6,0-36.5,0-54.9,0c0-9.9,0-19.1,0-28.7c25.9,0,52,0,78.4,0c0,148.2,0,296.4,0,444.9    c-119.1,0-238.1,0-357.5,0c0-22.9,0-45.6,0-68.7c7.7,0,15.3,0,23.4,0c0,12.9,0,25.8,0,39.2c103.7,0,206.9,0,310.5,0    C789.7,730.1,789.7,601.6,789.7,472.2z"/>
		<path class="st0" d="M420.8,589.8c0-8.8,0-17.3,0-26c79.8,0,159.3,0,239.2,0c0,8.5,0,17.1,0,26    C580.5,589.8,500.9,589.8,420.8,589.8z"/>
		<path class="st0" d="M428.1,707c0-8.9,0-17.3,0-26c79.8,0,159.3,0,239.2,0c0,8.6,0,17.2,0,26C587.7,707,508.2,707,428.1,707z"/>
		<path class="st0" d="M664,622.5c0,8.7,0,17,0,25.7c-79.8,0-159.5,0-239.5,0c0-8.5,0-16.9,0-25.7    C504.3,622.5,583.9,622.5,664,622.5z"/>
	</g>
</g>
</svg>