<?xml version="1.0" encoding="utf-8"?>
<!-- Generator: Adobe Illustrator 25.4.1, SVG Export Plug-In . SVG Version: 6.00 Build 0)  -->
<svg version="1.1" id="Capa_1" xmlns="http://www.w3.org/2000/svg" xmlns:xlink="http://www.w3.org/1999/xlink" x="0px" y="0px"
	 viewBox="0 0 905 1086" style="enable-background:new 0 0 905 1086;" xml:space="preserve">
<style type="text/css">
	.st0{fill:#999999;}
</style>
<g>
	<path class="st0" d="M295.8,523.1c-70.7-6.5-141.4-13.4-212.1-19.2C36.9,500,5,466.1,7.1,420.6c2-43.6,38-76,84.6-72.5
		c86.5,6.5,172.8,15,259.2,22.7c37,3.3,74,2.7,111,1.3c41.6,3,83.1,0.1,124.5-3.7c63.1-5.8,126.2-11.5,189.3-17.2
		c13.6-1.2,27.3-2.8,40.9-3.1c43.6-1,78.7,29.5,81.2,69.8c2.9,45.7-26.6,81-72.3,85.3c-70.2,6.6-140.4,12.7-210.6,18.8
		c-23.4,2-29.5,10.6-32.4,33.3c-7.8,63.2,17,118.2,39.4,174.2c31.7,79.1,62.8,158.4,93.2,237.9c19.4,50.7-10,99.1-63.4,106.9
		c-33.1,4.8-66.4-15.5-80.5-49.6c-37.4-90.4-74.7-180.9-112.1-271.3c-1.7-4-2.1-8.9-8.1-12.8c-11.7,28.3-23.1,56.1-34.5,84
		c-27.5,67.1-54.8,134.3-82.4,201.3c-13.2,32.1-43.7,51.8-76.4,50c-33.7-1.8-61.9-24.3-71-57.1c-5.2-18.8-2.5-37,4.6-55
		c39.8-100.9,78.5-202.3,119.5-302.8c15.8-38.6,11.5-77.8,10.8-117C321.4,529.8,309.4,524,295.8,523.1z M96.8,400.5
		c-25.4-0.9-36.2,6.7-37,23.5c-0.8,17,9.4,25.7,30.8,27.5c69.1,6,138.3,12,207.4,18.7c40.4,3.9,72.1,27.6,74.7,61.9
		c3.6,48.2,7.2,96.9-12,144.1c-41,101.6-80.4,203.8-120.5,305.7c-7.7,19.5-3.5,33.2,12.1,39.6c14.7,6,27.3-0.7,35-19.5
		c38.1-92.3,76.1-184.7,114.1-277c11.2-27.4,27.1-39.5,51.7-39.5c24.2,0.1,39.8,11.9,50.8,38.5c38,92.4,76,184.7,114,277.1
		c7.7,18.8,19.7,25.7,34.9,20c15.8-6,20.5-20,12.9-39.4c-28.7-73.1-57.2-146.4-86.4-219.3c-26.9-67.3-56.3-133.2-48.8-209.2
		c4.6-46.6,28-77.9,74.4-82.8c39.3-4.1,78.8-6.7,118.1-10.1c32.8-2.9,65.6-5.8,98.4-9.1c16.3-1.7,25.3-12.2,24.6-27.3
		c-0.7-14.9-10.9-24.1-27.7-23.6c-11.6,0.3-23.2,1.9-34.8,2.9c-73.7,6.4-147.3,13.7-221.1,18.9c-92.7,6.6-185.4,4.9-278-4.4
		C220.7,411.3,157,406,96.8,400.5z"/>
	<path class="st0" d="M608.7,166c-0.3,86.2-70.1,155.5-156.4,155.2c-86.2-0.3-155.4-70-155.2-156.4c0.3-86.3,70-155.4,156.4-155.2
		C539.8,9.9,609,79.6,608.7,166z M453.3,61.6C395.8,61.4,349.5,107,349,164.2c-0.5,58.2,45.4,104.9,103.4,105.1
		c57.5,0.2,103.8-45.4,104.3-102.6C557.2,108.4,511.3,61.8,453.3,61.6z"/>
</g>
</svg>
