<?xml version="1.0" encoding="utf-8"?>
<!-- Generator: Adobe Illustrator 23.1.0, SVG Export Plug-In . SVG Version: 6.00 Build 0)  -->
<svg version="1.1" id="Capa_1" xmlns="http://www.w3.org/2000/svg" xmlns:xlink="http://www.w3.org/1999/xlink" x="0px" y="0px"
	 viewBox="0 0 1200 1200" style="enable-background:new 0 0 1200 1200;" xml:space="preserve">
<style type="text/css">
	.st0{fill:#999999;}
	.st1{fill:#999999;stroke:#999999;stroke-miterlimit:10;}
</style>
<g>
	<g id="yxFkqI_7_">
		<g>
			<g>
				<path class="st0" d="M597.5,971.2c-126.5,0-253.1,0.1-379.6-0.1c-24.3,0-48.9,0.9-72.9-2.3c-38.4-5.3-67.4-41.3-67.4-80
					c-0.1-187.1-0.2-374.2-0.1-561.3c0-48.5,36.7-85.2,85.6-85.3c130.3-0.2,260.5,0,390.8-0.1c157.7,0,315.4-0.1,473-0.1
					c53.5,0,89.5,34.9,89.8,88.5c0.5,88,0.1,175.9,0.1,263.9c0,96.1,0.2,192.2,0.2,288.3c0,45.2-27.8,79.3-70.8,87.3
					c-4,0.7-8.1,1.1-12.1,1.1C888.5,971.2,743,971.2,597.5,971.2z M596.3,298.5C596.3,298.5,596.3,298.5,596.3,298.5
					c-4.1,0.1-8.1,0.1-12.2,0.1c-139,0-278.1,0-417.1,0c-23.2,0-33.2,10.5-33.1,33.5c0.2,49.4,0.2,98.8,0.2,148.2
					c0,134.3,0,268.6,0,402.9c0,21.1,10,31.3,30.9,31.3c57.9,0.2,115.7,0.3,173.6,0.2c118.4,0,236.8-0.2,355.2-0.2
					c111.3,0,222.6,0.2,333.9,0.2c22.2,0,32.6-10.7,32.6-33.2c0-64.3,0-128.6-0.1-192.9c0-118.8,0-237.5-0.1-356.3
					c0-24.8-9.8-34.2-34.5-34.1c-57.9,0-115.7,0.1-173.6,0.2C766.9,298.5,681.6,298.5,596.3,298.5z"/>
				<path class="st0" d="M648,782.6c-8.1,0-15.2,0-23.5,0c0.7,23.6-6.5,43.4-26.7,56.7c-11.2,7.3-23.5,10.2-36.7,9
					c-32.6-2.9-49.9-23.7-54.1-65c-59.6,0-119.2,0-179.7,0c0,20.5-5.1,38.9-21.8,52.2c-11,8.8-23.5,13.3-37.5,13.2
					c-33.4-0.3-52.2-20.9-59.3-65.8c-7.2,0-14.5,0-23,0c-0.2-4-0.5-7.2-0.5-10.5c0-39.6-0.2-79.2,0-118.7
					c0.2-30.8,14.3-52.6,42.7-65.3c3.2-1.4,6.4-5.8,7.3-9.3c5.2-20.3,9.3-40.8,14.4-61.1c8.3-33.4,29.1-49.7,63.3-49.7
					c69.3-0.1,138.7-0.1,208,0c37,0.1,58.2,17.2,66.1,52.9c4.2,19.1,8.6,38.2,12.4,57.4c1.2,5.9,3.9,8.9,9.4,11.5
					c24.4,11.4,39,30.8,39.6,57.8c1.1,42.9,0.3,85.9,0.3,128.9C648.8,778.3,648.4,779.9,648,782.6z M614.9,748.3
					c0-34.4,0.8-67.8-0.3-101.2c-0.6-16.2-14.1-27.5-30.3-29c-5.7-0.5-11.5-0.6-17.2-0.6c-59.5,0-119-0.1-178.6,0
					c-45,0.1-90,0-134.9,0.6c-22,0.3-34.1,13.2-34.2,35.2c-0.2,29.1-0.1,58.2,0,87.2c0,2.5,0.6,5.1,0.9,7.7
					C351.9,748.3,482.7,748.3,614.9,748.3z M565.6,583.2c-4.4-20.3-8.5-39.4-12.6-58.5c-3.1-14.4-11.4-22.2-25.8-22.3
					c-73.3-0.2-146.7-0.1-220-0.1c-10.5,0-19.1,4.6-22,14.7c-6,21.6-10.8,43.6-16.2,66.1C368.3,583.2,466.2,583.2,565.6,583.2z
					 M542.6,782.9c-1.8,14.1,1.6,22.9,10.4,28.3c8.8,5.3,19.4,4.8,27.6-1.3c8.3-6.2,11.1-15.5,8.1-27
					C573.6,782.9,558.5,782.9,542.6,782.9z M292.2,783.2c-16.5,0-32.2,0-47.7,0c-3.8,20.9,11.6,32.1,24.5,31.7
					C284.6,814.4,293.7,802.2,292.2,783.2z"/>
				<path class="st0" d="M890.8,636c-39.2,0-78.4,0-117.6,0c-14,0-21.7-6.2-21.6-17.1c0-10.9,7.8-17.2,21.7-17.1
					c79.1,0,158.2,0.1,237.3,0.2c12.4,0,19.4,4.4,21.3,13c2.7,11.7-5.5,20.9-19.4,20.9c-40.6,0.1-81.1,0-121.7,0
					C890.8,635.9,890.8,636,890.8,636z"/>
				<path class="st0" d="M890.7,723.5c-39.9,0-79.8,0.1-119.6,0c-13.2,0-21.4-8.6-19.3-20.1c1.6-8.9,8.6-13.9,20.6-13.9
					c32.4-0.1,64.9,0,97.3,0c46.6,0,93.3-0.1,139.9,0.3c5.5,0,12.8,0.7,15.9,4.1c3.9,4.3,6.2,12,5.6,17.8
					c-0.8,7.6-7.7,11.6-15.7,11.7c-16.6,0.2-33.1,0.2-49.7,0.2C940.7,723.5,915.7,723.5,890.7,723.5z"/>
				<path class="st0" d="M836,549.2c-21.3,0-42.6,0.1-63.9,0c-13.2-0.1-20.7-6.4-20.5-17.1c0.2-10.3,7.4-16.4,20.1-16.4
					c42.6-0.1,85.3-0.1,127.9,0c12.4,0,19.4,5.5,20.5,15.2c1.1,10.3-6.5,18.3-18.1,18.3C879.9,549.4,858,549.3,836,549.2
					C836,549.2,836,549.2,836,549.2z"/>
				<path class="st0" d="M548.5,715.9c-18,0-32.7-15.1-32.4-33.2c0.3-17.9,15.2-32.4,33.4-32.6c18.1-0.1,32.8,14.6,32.8,32.8
					C582.4,701.6,567.6,716,548.5,715.9z M549.4,699.4c8.9,0.1,16.1-7.1,16.1-16.1c0.1-9.2-7.5-16.6-16.9-16.5
					c-8.8,0.2-15.9,7.6-15.7,16.5C533.1,692.1,540.6,699.4,549.4,699.4z"/>
				<path class="st0" d="M285,715.9c-18.5,0.1-32.9-14.1-33.1-32.4c-0.2-18.5,13.9-33,32.1-33.3c18.6-0.3,33.7,14.6,33.7,33.1
					C317.8,701.7,303.6,715.9,285,715.9z M300.9,683c0-9.2-6.6-15.9-15.7-16.1c-9.1-0.2-16.9,7.4-16.8,16.4
					c0.1,8.8,7.1,15.9,15.9,16.1C293.6,699.7,301,692.4,300.9,683z"/>
			</g>
		</g>
	</g>
	<g id="hUZf5O_1_">
		<g>
			<path class="st0" d="M422.9,469c-30,0-59.9,0-89.9,0c-9.4,0-16.4-5.4-18.1-14.1c-0.7-3.6-0.2-7.1,1.3-10.5
				c9-20.3,18-40.6,27-60.9c3.2-7.1,8.8-10.6,16.5-10.7c42.2-0.1,84.3-0.1,126.5,0c7.9,0,13.6,3.8,16.8,11.2
				c8.1,18.2,16.2,36.4,24.3,54.7c1.6,3.7,3.5,7.4,3.9,11.3c1.2,10.8-6.8,18.9-18.2,18.9c-25.1,0-50.2,0-75.3,0
				C432.7,469,427.8,469,422.9,469z M422.8,459.2c30.2,0,60.4,0,90.6,0c1.2,0,2.6,0,3.7-0.5c4.6-1.8,5.8-6.2,3.5-11.4
				c-8.8-19.7-17.6-39.3-26.2-59c-1.7-3.9-4.3-5.7-8.6-5.6c-41.7,0.1-83.4,0.1-125.2,0c-4.5,0-7.2,1.7-9,5.8
				c-8.8,20-17.7,39.9-26.5,59.9c-0.7,1.6-0.9,3.7-0.6,5.4c0.6,3.3,3.6,5.6,7.6,5.6C362.3,459.2,392.6,459.2,422.8,459.2z"/>
			<path class="st0" d="M426.4,440.2c-2.8,0-5.2,0.1-7.7-0.1c-0.5,0-1.2-1-1.5-1.7c-0.8-1.7-1.1-4.1-2.4-5.1
				c-1.3-0.9-3.6-0.3-5.5-0.3c-2.7,0-5.4,0.1-8.1,0c-1.5-0.1-2.2,0.3-2.8,1.8c-2.2,5.9-3.5,6.5-10.5,5.1c0.9-2.2,1.7-4.4,2.6-6.6
				c4-10,8.1-19.9,12-29.9c0.5-1.4,1.3-1.8,2.7-1.8c5.9-0.1,6-0.1,8.1,5.3c4.2,10.6,8.3,21.1,12.5,31.7
				C426,438.9,426.1,439.3,426.4,440.2z M412.4,425.8c-1.8-4.5-3.4-8.7-5.2-13.2c-1.8,4.7-3.5,8.9-5.2,13.2
				C405.6,425.8,408.8,425.8,412.4,425.8z"/>
			<path class="st0" d="M447,428c-2.7,3.8-5.1,7.3-7.8,10.8c-0.6,0.7-1.7,1.4-2.7,1.4c-2.4,0.2-4.8,0.1-7.9,0.1
				c1.5-2.3,2.6-4,3.7-5.6c2.9-4.2,5.7-8.4,8.6-12.6c0.9-1.2,1-2.1,0-3.5c-3.3-4.6-6.4-9.4-9.6-14.1c-0.5-0.8-1-1.6-1.7-2.9
				c3.2,0,6-0.1,8.7,0.1c0.6,0,1.3,0.9,1.8,1.5c2.2,3.1,4.4,6.2,6.8,9.5c2.3-3.3,4.6-6.3,6.7-9.5c0.8-1.2,1.7-1.7,3.1-1.6
				c2.3,0.1,4.6,0,7.6,0c-1.3,2.1-2.3,3.7-3.4,5.3c-2.7,4-5.4,8-8.2,12c-0.8,1.1-0.7,1.8,0,2.9c3.7,5.3,7.3,10.6,10.9,15.8
				c0.4,0.6,0.8,1.3,1.6,2.6c-3.4,0-6.3,0.1-9.1-0.1c-0.7,0-1.3-1.1-1.8-1.8C451.9,435,449.6,431.6,447,428z"/>
			<path class="st0" d="M368,409.2c-3.4,0-6.7-0.1-9.9,0c-1.7,0.1-2.3-0.5-2.1-2.2c0.1-1.6,0-3.3,0-5.1c11,0,21.8,0,32.9,0
				c0,2,0.1,3.9-0.1,5.8c-0.1,0.5-1.1,1.3-1.7,1.3c-3.4,0.1-6.7,0.1-10.4,0.1c0,0.9,0,1.7,0,2.5c0,8.8,0,17.5,0,26.3
				c0,1.8-0.6,2.4-2.3,2.3c-1.3-0.1-2.7-0.1-4,0c-1.8,0.2-2.3-0.6-2.3-2.3c0.1-8.8,0-17.7,0-26.5C368.1,410.8,368,410.2,368,409.2z"
				/>
			<path class="st0" d="M480.3,420.9c0,5.6,0,11.2,0,16.8c0,1.8-0.4,2.7-2.4,2.5c-1.5-0.1-3,0-4.5,0c-1.3,0-1.9-0.5-1.9-1.9
				c0-11.6,0-23.2,0-34.8c0-1.3,0.6-1.9,1.9-1.9c0.1,0,0.3,0,0.4,0c6.4-0.2,6.4-0.2,6.4,6.3C480.3,412.3,480.3,416.6,480.3,420.9z"
				/>
		</g>
	</g>
</g>
</svg>
