<svg id="Capa_1" data-name="Capa 1"
    xmlns="http://www.w3.org/2000/svg" viewBox="0 0 1059.48 684.74">
    <title>Icono tipo traÌmite licencias</title>
    <g id="_97haZS" data-name="97haZS">
        <path class="st0" d="M598.42,953.82q-216.15,0-432.31,0c-62.14,0-95.7-33.06-95.75-94.89q-.19-247.47,0-495c0-61.83,33.6-94.86,95.77-94.86q434.4,0,868.79,0c60.76,0,94.62,33.31,94.69,93.84q.26,248.52,0,497c-.07,60.53-33.93,93.81-94.71,93.82Q816.67,953.86,598.42,953.82Zm1-49.86q218.29,0,436.59,0c32.22,0,44.08-11.66,44.1-43.88q.12-248.58,0-497.16c0-32.25-11.86-43.93-44-43.93q-435.54,0-871.09,0c-33.59,0-45.18,11.41-45.19,44.93q-.1,247.53,0,495.07c0,33.57,11.57,45,45.14,45Q382.21,904,599.45,904Z" transform="translate(-70.26 -269.09)"/>
        <path class="st0" d="M799,537.47c-53.61,0-107.23.17-160.84-.06-33.93-.14-48.2-14.23-48.91-48-.37-17.4-.63-34.84.1-52.22,1.21-28.9,15.85-44.09,44.17-44.19q166.08-.56,332.14.07c27.86.11,43.18,16.65,43.75,44.72.37,18.09.34,36.21,0,54.31-.53,29-16.14,45-45.39,45.2C909,537.75,854,537.46,799,537.47ZM958.55,443H639.84v44.4H958.55Z" transform="translate(-70.26 -269.09)"/>
        <path class="st0" d="M346.71,778.47c-37.61,0-75.22.13-112.82,0-32.57-.14-47.52-14.94-47.66-46.66-.29-69,50.1-120.42,119.28-120.11,39.55.18,79.82-1.67,118.46,5C478,626,516.11,682.69,511.7,737.5c-2,24.8-18.25,40.54-43.81,40.84C427.5,778.81,387.1,778.46,346.71,778.47Zm-110.14-51H461.1c-3.31-40.22-29.16-65.47-66.87-65.78-31.22-.25-62.44-.4-93.65,0C265.22,662.2,238.52,688.84,236.57,727.43Z" transform="translate(-70.26 -269.09)"/>
        <path class="st0" d="M348.51,598.92c-53,0-95.32-45.66-95.34-102.92s42.19-103,95.29-103c52.86,0,95.62,46,95.65,102.9C444.13,552.5,401.07,598.91,348.51,598.92ZM303.28,496.49c.16,30.79,19.89,53.2,46.34,52.63,24.62-.53,44.83-24.16,45.1-52.73.27-29-21.31-54.38-46.19-54.42C323.34,441.94,303.12,466.29,303.28,496.49Z" transform="translate(-70.26 -269.09)"/>
        <path class="st0" d="M798,762.42c-58.44,0-116.89-.2-175.33.14-17,.09-31.09-2.43-31.66-23.59-.48-18,8.87-25.75,32.24-25.78C740.8,713,858.39,713.2,976,713c17.52,0,30.56,5.37,32.36,24.54,1.53,16.24-10.31,24.81-32.94,24.84Q886.68,762.53,798,762.42Z" transform="translate(-70.26 -269.09)"/>
        <path class="st0" d="M894.24,627.11c28.48,0,57,.43,85.44-.16,16.7-.35,27.78,6.57,28.4,23.11.66,17.68-10.53,25.89-28.06,25.87q-85.44-.13-170.89,0c-17.48,0-29-7.91-28.5-25.53.43-16.36,11.37-23.78,28.17-23.46C837.27,627.5,865.76,627.11,894.24,627.11Z" transform="translate(-70.26 -269.09)"/>
        <path class="st0" d="M670.33,627.14c17.38,0,34.76-.09,52.14,0,14.83.1,23.51,7,24.15,22.48.67,16-6.76,25.61-22.94,25.82q-55.24.71-110.51-.07c-15.17-.22-22.34-9.61-22.16-24.53s7.68-23.4,23-23.58c18.77-.21,37.55,0,56.32,0Z" transform="translate(-70.26 -269.09)"/>
    </g>
</svg>