<?xml version="1.0" encoding="utf-8"?>
<!-- Generator: Adobe Illustrator 25.4.1, SVG Export Plug-In . SVG Version: 6.00 Build 0)  -->
<svg version="1.1" id="Capa_1" xmlns="http://www.w3.org/2000/svg" xmlns:xlink="http://www.w3.org/1999/xlink" x="0px" y="0px"
	 viewBox="0 0 1200 1128" style="enable-background:new 0 0 1200 1128;" xml:space="preserve">
<style type="text/css">
	.st0{fill:#999999;}
</style>
<g>
	<g id="IEpS6i.tif_00000021818910130622307150000017542698244862192544_">
		<g>
			<path class="st0" d="M649.1,941.2c-92.8,22.9-152.6,4.8-190.8-56.6c-33.5-53.9-28.6-122.4,12.3-171.2
				c43.5-52,108.4-64.4,182.8-34.2c14.7-18.3,28.6-38.1,45.2-55.3c16.8-17.3,36.4-31.9,56.9-49.6c-44.2-36-95.9-53.6-152.2-57.5
				c-83-5.8-155.4,20.2-218.6,74.8c-10.9,9.4-30.9,17.2-43.6,13.9c-25.9-6.6-25.6-34.4-1.5-57.4C453.8,439,636,419.3,769.4,507.2
				c38.8,25.6,72.6,35.9,119.9,32c141.3-11.5,269.3,101.9,285.9,245.2c16.2,140.2-80.5,274.6-217.8,302.5
				c-117.8,24-230.1-23.9-294.9-125.8C658.1,954.3,653.3,947.5,649.1,941.2z M1113,814.9c-0.3-117.4-95.9-213.3-213.3-214
				c-117.8-0.7-216,97.5-215.3,215.5c0.7,118.9,97.6,214.3,216.8,213.5C1018.4,1029.1,1113.3,932.8,1113,814.9z M624.7,739.1
				c-31.9-21.1-70.3-19-99.2,8.3c-27.7,26.2-33.8,67.9-14.7,101.2c18.4,32.3,57.5,50.1,91.4,38.2c9.4-3.3,20.9-17,21.5-26.5
				C626.1,821,624.7,781.3,624.7,739.1z"/>
			<path class="st0" d="M1148.1,278.3c-9,11.1-14.4,24.2-23.2,27c-10.2,3.3-25.3,0.9-34.8-4.7c-14.2-8.5-25.2-22.2-37.9-33.3
				C773.4,24.6,358.1,33.5,89.5,287.8c-6.1,5.8-12.1,15.6-18.8,16.2c-13.3,1.2-31.9,1.8-39.2-5.9c-6.9-7.3-6-27.3-1.3-38.7
				c4.8-11.7,18.1-20,28.2-29.3c298.4-274.7,772.3-268.3,1063,14.7C1130.9,254,1138,265.5,1148.1,278.3z"/>
			<path class="st0" d="M574.5,244.7c154.1,3.3,283.3,51.7,391.9,152.4c17.3,16.1,33.8,33.8,13.4,56.1c-20.8,22.6-39.4,6.5-56.8-9.2
				C736,275.3,474.7,263.3,276.1,414.4c-15.1,11.5-28.8,24.7-43,37.3c-16.6,14.7-33.9,18.7-49.7,0.4c-14.8-17.1-8-33.2,6.6-47.2
				C280.4,318,387.6,266,512,250.2C535,247.3,558.2,246.1,574.5,244.7z"/>
		</g>
	</g>
	<path class="st0" d="M921.9,858.7h-55.7c-0.4,0-0.7-0.3-0.7-0.7V669.2c0-0.4,0.3-0.7,0.7-0.7h55.7c0.4,0,0.7,0.3,0.7,0.7V858
		C922.6,858.4,922.3,858.7,921.9,858.7z"/>
	<circle class="st0" cx="897.2" cy="928.4" r="31.7"/>
</g>
</svg>
