<?xml version="1.0" encoding="utf-8"?>
<!-- Generator: Adobe Illustrator 23.1.0, SVG Export Plug-In . SVG Version: 6.00 Build 0)  -->
<svg version="1.1" id="Capa_1" xmlns="http://www.w3.org/2000/svg" xmlns:xlink="http://www.w3.org/1999/xlink" x="0px" y="0px"
	 viewBox="0 0 1200 1200" style="enable-background:new 0 0 1200 1200;" xml:space="preserve">
<style type="text/css">
	.st0{fill:#999999;}
</style>
<g id="eqg47a.tif_1_">
	<g>
		<g>
			<path class="st0" d="M1103.6,350.2c0,173.5,0,347,0,520.5c-8.1,23.1-24.5,31.4-48.6,31.3c-292.6-0.4-585.3-0.3-877.9-0.3
				c-30.9,0-45.8-14.9-45.8-45.8c0-162.8,0.2-325.6-0.3-488.4c-0.1-24.1,8.2-40.5,31.4-48.5c303.4,0,606.8,0,910.2,0
				C1088.1,324.3,1098.5,334.7,1103.6,350.2z M1064.3,358.7c-298.3,0-596,0-893.4,0c0,168.4,0,336.2,0,503.8
				c298.1,0,595.5,0,893.4,0C1064.3,694.5,1064.3,526.9,1064.3,358.7z"/>
			<path class="st0" d="M162.3,319.2c-23.2,8-31.5,24.4-31.4,48.5c0.5,162.8,0.3,325.6,0.3,488.4c0,30.9,14.9,45.8,45.8,45.8
				c292.6,0,585.3-0.1,877.9,0.3c24.2,0,40.5-8.3,48.6-31.3c0,11,0,22,0,33c-324.8,0-649.6,0-974.3,0c0-194.9,0-389.7,0-584.6
				C140.3,319.2,151.3,319.2,162.3,319.2z"/>
			<path class="st0" d="M1103.6,350.2c-5.2-15.6-15.5-26-31.1-31.1c10.4,0,20.7,0,31.1,0C1103.6,329.5,1103.6,339.9,1103.6,350.2z"
				/>
			<path class="st0" d="M345.6,705.2c0-62.7,0-125,0-188.2c25.8-3.9,51.5-7,76.8,1.2c18.7,6.1,29.5,19.5,30.8,39.4
				c1.2,18.7-6.2,33.3-22.5,43.1c-1.6,1-3.3,1.9-5.6,3.2c1.8,1.1,3.1,2,4.5,2.6c20.3,8.3,30.3,23.7,30.1,45.3
				c-0.2,22.5-10.8,39.1-31.6,48c-22.4,9.6-46.2,8.4-69.8,7.1C354.1,706.6,350.1,705.8,345.6,705.2z M384.3,621
				c0,19.4,0,38.2,0,56.8c22.4,2.5,35.1-7.2,35.8-26.6C420.8,631.5,407.4,619.9,384.3,621z M383.9,592.5c15.6,1.2,24.1-3,29.1-13.7
				c4.6-9.9,3-24.2-3.4-31.1c-6-6.5-16-8-25.7-3.9C383.9,559.8,383.9,575.8,383.9,592.5z"/>
			<path class="st0" d="M280.3,517.4c12.7,63.2,25.2,125.9,37.9,189.4c-12.4,0-24.2,0-36.8,0c-2.8-13.8-5.7-27.9-8.7-42.7
				c-10.5,0-20.6-0.4-30.5,0.3c-2.2,0.2-5.2,4.1-5.8,6.8c-2.9,11.9-5.1,23.9-7.6,36c-12.4,0-24,0-36.8,0
				c14.2-63.5,28.2-126.4,42.3-189.8C249.5,517.4,264.3,517.4,280.3,517.4z M256.9,555.5c-0.5,0-0.9-0.1-1.4-0.1
				c-4.5,26.2-9.1,52.3-13.7,79.3c9.5,0,18.1,0,27.4,0C265,608,260.9,581.7,256.9,555.5z"/>
			<path class="st0" d="M851.1,673.5c20,0,38.4,0,57.4,0c0,11.4,0,22,0,33.3c-34.1,0-68.5,0-103.5,0c-1.2-13.6-1.6-25.8,8.8-37.7
				c14.6-16.8,28-34.9,39.6-53.9c7.2-11.8,12.7-25.8,14.4-39.5c3.1-23.7-13.4-35.4-36.3-28c-5.1,1.7-10,4.2-16,6.7
				c-1.9-8.4-4.2-16.5-5.4-24.6c-0.3-2.2,1.8-6.2,3.9-7.2c19.3-9.4,39.4-12.6,60.2-5.5c22,7.5,34.1,29.3,32.2,56.1
				c-1.5,22.1-10.1,41.4-22.9,58.9C873.7,645.6,862.9,658.5,851.1,673.5z"/>
			<path class="st0" d="M947.1,550.7c-1.6-9.3-3.1-17.8-4.6-26.2c18.7-14.6,54.2-14.9,72.2-0.8c22.4,17.4,21.9,54-1.1,72
				c-2.7,2.1-5.7,4-8.6,6.1c27.6,16.5,37.1,37.9,29,64.7c-8.2,27-33.4,42.6-66.3,41c-30.5-1.5-34.6-7.3-25-36.6
				c0.1-0.4,12,3.6,18.5,4.8c19.7,3.7,34-5.1,36.8-22.1c2.9-17.7-7.9-31-27.6-33.9c-3.8-0.6-7.7-0.9-12.2-1.5c0-8.6,0-17.2,0-26.5
				c11.9-2.1,25.8-1.9,32.2-14.9c2.5-5,2.9-12.2,1.6-17.8C988.6,544.3,975.7,542,947.1,550.7z"/>
			<path class="st0" d="M581.3,672.3c0.6,5,1,9.1,1.6,13.2c2.6,20,2.6,20-17.6,21.7c-39.9,3.4-67.6-15.3-78.5-54
				c-8.8-31.1-8.1-62.1,4.3-92.2c14.6-35.7,49.7-53.8,86.6-46.1c7.9,1.7,10.2,4.9,7.8,12.6c-2.1,6.7-3.1,13.7-4.7,21.2
				c-3-0.7-5.1-1.3-7.2-1.7c-19.3-4.1-35.4,2.9-43.2,21c-11.9,27.6-12,56.1-0.9,84c7.1,17.8,22.4,25,41.9,22
				C574.4,673.6,577.4,673,581.3,672.3z"/>
			<path class="st0" d="M772.7,516.5c0,63.6,0,126.6,0,190.3c-12.5,0-24.8,0-38.1,0c0-51.3,0-102.2,0-154.8
				c-11.6,5.9-21.8,11.1-31.9,16.2c-0.9-1.2-1.4-1.6-1.6-2.2c-7.6-26.7-7-25.7,16.8-39.7C735.3,516.2,752.8,513.9,772.7,516.5z"/>
			<path class="st0" d="M675.1,629.9c-24.2,0-47.8,0-71.4,0c-1.6,0-3.1-0.2-5.1-0.3c0-12.6,0-24.8,0-37.7c25.1,0,50.5,0,76.6,0
				C675.1,603.9,675.1,616.3,675.1,629.9z"/>
			<path class="st0" d="M306.2,417c-0.4,10.7-10,19.3-20.6,18.6c-10.3-0.7-18.5-9.8-18.1-20.1c0.4-10.7,9.9-19.3,20.6-18.5
				C298.4,397.6,306.6,406.7,306.2,417z"/>
			<path class="st0" d="M967.4,416.6c-0.2,10.7-9.5,19.5-20.2,19c-10.3-0.5-18.7-9.4-18.6-19.7c0.2-10.7,9.5-19.5,20.2-19
				C959.2,397.4,967.6,406.3,967.4,416.6z"/>
			<path class="st0" d="M306.2,805.2c-0.3,10.7-9.7,19.4-20.3,18.9c-10.3-0.5-18.7-9.5-18.4-19.8c0.3-10.7,9.6-19.4,20.3-18.9
				C298.1,785.9,306.4,794.8,306.2,805.2z"/>
			<path class="st0" d="M967.4,804.6c0,10.7-9.1,19.7-19.8,19.4c-10.4-0.2-18.9-8.9-19-19.3c0-10.7,9-19.6,19.8-19.4
				C958.8,785.6,967.4,794.3,967.4,804.6z"/>
		</g>
	</g>
</g>
</svg>
