<svg xmlns="http://www.w3.org/2000/svg" xmlns:xlink="http://www.w3.org/1999/xlink" version="1.1" id="Capa_1" x="0px" y="0px" style="enable-background:new 0 0 1200 1200;" xml:space="preserve" viewBox="172.49 279.7 786.58 720.67">
<style type="text/css">
	.st0{fill:#999999;}
</style>
<g id="_x37_dg9PZ.tif_00000076569143040197292880000010615859245390333332_">
	<g>
		<path class="st0" d="M580.9,1000.1c-6.5-1.7-13.2-3-19.6-5.3c-33.2-11.8-55.7-41.4-56.9-76.6c-0.9-25.6-0.5-51.3-0.2-76.9    c0.1-13.1,9.5-21.8,21.8-21.6c11.8,0.2,20.5,9.1,20.6,21.9c0.2,23.2,0,46.4,0.1,69.6c0.1,28.2,17.9,46.2,45.9,46.2    c92.8,0.1,185.6,0.1,278.4,0c27.4,0,45.2-17.6,45.2-45.1c0.1-181.1,0.1-362.3,0-543.4c0-28.7-17.9-46.1-46.8-46.1    c-91.7,0-183.4,0-275.1,0c-29.6,0-47.5,17.9-47.5,47.3c0,22.9,0,45.8,0,68.7c0,14.4-8.6,24-21.1,24.1c-12.3,0-21.2-9.9-21.3-24    c-0.1-23.5-0.1-46.9,0-70.4c0.3-50,36.2-87.6,86.3-88c94.1-0.7,188.3-0.7,282.4,0c50.4,0.4,85.3,37.5,85.6,89.2    c0.2,36.3,0,72.6,0,108.8c0,143.5-0.1,287,0.1,430.5c0,35.8-13.7,63.6-45.7,80.8c-9.4,5-20.4,7-30.7,10.3    C781.8,1000.1,681.4,1000.1,580.9,1000.1z"/>
		<path class="st0" d="M695.6,662.5c-3.2,3.4-4.9,5.3-6.7,7.2c-31.1,31-62.2,62-93.4,93c-5.7,5.7-9.7,11.9-8.3,20.3    c2.7,16.4,21.8,23.5,34.7,12.6c5-4.2,9.4-9.1,14-13.7c42.1-42,84.3-84,126.4-126c8.7-8.7,9-20.8,1-30.1    c-45.5-52.2-91-104.5-136.4-156.8c-5.9-6.8-12.6-11.5-22-9.8c-17.1,3-23.4,22.1-11.7,36c16.5,19.6,33.5,38.9,50.2,58.2    c17.5,20.2,35,40.4,52.5,60.7c1.2,1.4,2.3,3,4.6,6c-4.5,0-7.6,0-10.7,0c-162.4,0-324.7,0-487.1,0c-3.5,0-7.1-0.1-10.6,0.2    c-10.6,0.9-18.7,9.3-19.3,19.9c-0.6,9.9,6.4,19.3,16.5,21.4c4,0.8,8.1,0.9,12.2,0.9c161,0,322,0,483,0    C687.5,662.5,690.7,662.5,695.6,662.5z"/>
	</g>
</g>
</svg>