<svg xmlns="http://www.w3.org/2000/svg" xmlns:xlink="http://www.w3.org/1999/xlink" version="1.1" id="Capa_1" x="0px" y="0px" style="enable-background:new 0 0 1200 1200;" xml:space="preserve" viewBox="72.53 288.43 1010.95 722.08">

<g>
	<path class="st0" d="M276.4,854.1c25.9,0.2,46.6,21.3,46.1,47.2c-0.5,25.4-21.2,45.9-46.5,46c-25.6,0-46.7-21.2-46.6-46.9   C229.5,874.4,250.3,853.9,276.4,854.1z M275.9,916.1c8.1,0,15.1-6.8,15.4-15c0.3-8.9-6.4-15.9-15.3-15.9c-8.5,0-15.1,6.3-15.4,14.8   C260.3,908.6,267.4,916.1,275.9,916.1z"/>
	<path class="st0" d="M563.6,594.9c0.1-10.8,6.5-18.1,15.7-17.9c9.2,0.2,15.4,7.6,15.4,18.4c0,10.8-6.2,18.2-15.4,18.4   C569.7,614,563.5,606.4,563.6,594.9z"/>
	<path class="st0" d="M1056.9,677.2c-41.1-56.7-81.6-113.8-122.5-170.6c-23.9-33.1-56.5-49.6-97.2-49.8c-31.7-0.1-63.5-0.1-95.2,0   c-46.4,0.1-75,28.5-75,74.6c0,63.8,0,127.7,0,191.5v12.4H647v-13c0-44.5,0.4-89-0.3-133.5c-0.5-32.4-25.1-58.9-56.9-64.1   c-20.3-3.3-38,2.5-54,14c-1.1-0.6-1.8-0.8-2.3-1.3c-57.6-57.6-115.2-115.1-172.7-172.8c-2.3-2.3-3.7-6.5-3.9-9.9   c-2.1-34.8-27.6-62.8-60.3-65.7c-35.3-3.1-66.2,18.2-74.1,51.1c-8.2,34,9.2,67.5,42.3,80.1c6.6,2.5,8.8,5.5,8.7,12.5   c-0.4,40,0.3,80.1-0.4,120.1c-0.3,22.4,7.7,39.2,27.2,50.9c11,6.6,14.5,17.5,10.6,28.5c-3.7,10.4-13.9,16.5-25.4,15.2   c-10.8-1.2-18.3-9.2-20.2-21.5c-1.9-12-8.5-18.3-17.8-17c-9.3,1.3-13.9,8.2-13.2,20c0.2,2.7,0.6,5.5,1.2,8.2   c6,24,26.4,40.8,50.5,41.6c25.7,0.9,47.5-14.4,55-38.6c7.2-23.4-1.8-48.9-23.3-62.1c-9.8-6-13.6-13.2-13.5-24.4   c0.5-33.1,0.1-66.3,0.2-99.4c0-2.8,0.5-5.7,0.8-9.5c2.2,1.9,3.3,2.7,4.3,3.6c65.4,65.4,130.8,130.7,196,196.4   c2.9,3,4.7,8.3,4.8,12.6c0.5,19.7,0.2,39.3,0.2,59V736h-14.1c-118.4,0-236.7,0-355.1,0c-34.2,0-56.8,16.9-66.6,49.4   c-0.5,1.6-1.2,3.2-1.9,4.7v82.8c1.9,5.1,3.5,10.4,5.8,15.3c13,27.9,35.4,42.5,65.8,41.3c18-0.7,26.8,4,35,21.4   c24.4,51.5,86.5,72.8,139.2,50.6c52.1-22,78.8-80.3,61.6-134.4c-0.8-2.6-1.7-5.2-2.9-8.8h238.3v0.1h65.5v-0.1h96.5   c-2.7,13-5.5,26.2-8.6,40.7h-329c-19.2,0-26.1,4.2-25.9,15.7c0.2,11.2,7.3,15.3,26.6,15.3c59.3,0,118.7,0,178,0h97.1v-0.1   c15.5,0,31.1-0.1,46.6-0.1c9,0,13,2.4,16.3,11c16.3,42.5,56.7,69.4,102.1,69.2c45-0.2,84.7-27,101-69.3c3.3-8.7,7.4-11.4,16.4-11   c10.6,0.5,21.6,0.4,31.9-2c25.1-5.8,41.6-21.8,49.9-46.3c1-2.9,2.1-5.7,3.2-8.5V740.4C1078.3,717.8,1070.8,696.3,1056.9,677.2z    M541.8,594.5c0.2-27.5,22.6-45.2,47.5-38.3c14.2,4,26.1,16.6,26.2,31.2c0.5,48.6,0.2,97.2,0.1,145.8c0,0.6-0.6,1.2-1.1,2.3h-71.7   c-0.3-2.4-1-5-1-7.6C541.7,683.4,541.4,639,541.8,594.5z M289,393.9c-20.3,0.2-37.7-17.1-37.6-37.5c0.2-20.2,16.7-36.6,37-36.7   c20.6-0.1,37,15.8,37.3,36.2C326.1,376.7,309.7,393.6,289,393.9z M509.5,601.1C448,539.6,386,477.7,324.2,415.9   c6.5-6,14-12.9,22.4-20.6c1.5,1.3,3.8,3,5.9,5.1c52.6,52.6,105.2,105.3,158,157.8c4.5,4.5,5.3,8.1,3.7,14.3   C511.5,582.1,510.8,592.3,509.5,601.1z M165,898c-38.5,5.6-62.9-10.4-60.1-40.2h68.6C170.7,871.5,167.8,884.8,165,898z    M276.3,978.9c-43.7,0.2-79.1-35-79-78.5c0.1-43,35.2-78.2,78.2-78.5c43.2-0.3,79.1,35.4,79,78.8   C354.5,943.8,319.5,978.8,276.3,978.9z M666.5,825.5c-3.9,0.2-7.5,0.7-11.1,0.7c-3.6,0-7.2,0-10.7,0v0.3h-68.8v-0.2   c-70,0-140.1,0-210.1-0.3c-5.1,0-11.4-2.6-15.2-6.1c-42.3-38.5-106.3-38.6-149-0.1c-3.9,3.5-10,6-15.2,6.1   c-26.9,0.6-53.8,0.3-82.6,0.3c0.5-11.8-0.3-23.3,1.8-34.1c3.1-15.8,16.3-24.9,33.5-25c42.1-0.1,84.2,0,126.3,0h310.5v0h68.6v0h22.1   V825.5z M937.3,571.2c2.8,0,6.6,2.1,8.3,4.5c16.9,23,33.4,46.3,51.5,71.6h-33.9c-43.7,0-87.5,0-131.2,0c-17.4,0-23.8-6.3-23.9-23.5   c-0.1-10.7-0.2-21.4,0-32c0.3-12.7,7.1-20.4,19.7-20.6C864.3,570.8,900.8,570.9,937.3,571.2z M880.1,978.9   c-43.2-0.1-78.3-35-78.4-78.1c-0.1-43.4,35.6-79.1,78.8-79c43.4,0.2,78.8,36,78.4,79.4C958.6,944.3,923.4,979,880.1,978.9z    M947.8,814.9c-42-34.5-102-31.5-142,5.2c-2.8,2.6-6.8,5.7-10.2,5.8c-32,0.4-64.1,0.3-97.6,0.3v-11.7c0-94.2,0-188.4,0-282.5   c0-29.8,14.5-44.1,44.6-44.2c31,0,62.1,0.2,93.1,0c38.1-0.3,64.2,18.5,83.2,51.5c-3.7,0.3-6.6,0.7-9.5,0.7   c-26.2,0-52.4-0.1-78.7,0.1c-33.1,0.3-53.6,20.9-53.7,53.7c-0.1,11-0.1,22.1,0,33.1c0.4,30.3,21.3,51.4,51.6,51.5   c57.6,0.1,115.2,0.6,172.8-0.3c13.8-0.2,22.8,3.4,29,15.5c2.9,5.7,6.9,10.7,11.5,17.9c-10.6,0-18.8-0.2-26.9,0   c-17.9,0.5-32.6,11.3-35.6,28.8c-2,11.3-2,23.5,0,34.8c3.1,17.9,18,28.5,37.6,29.1c11.3,0.3,22.6,0.1,34.5,0.1v22.1   c-23.4,0-46.4-0.5-69.4,0.2C968.9,826.9,958.6,823.8,947.8,814.9z M991.3,898.1c-2.9-13.6-5.6-26.3-8.5-39.8h68.6   C1054.4,887.3,1030.2,903.3,991.3,898.1z M1052,773c-12.4,0-23.4,0.7-34.3-0.4c-3.2-0.3-6-5.6-8.8-8.7c-0.5-0.6-0.1-2-0.1-3   c-0.3-18.5-0.3-18.5,17.9-18.5h23.8c0.6,2.8,1.3,4.8,1.4,6.7C1052.1,756.6,1052,764.1,1052,773z"/>
	<path class="st0" d="M803.1,711.4c3.4,0,6.9-0.3,10.3,0.1c8.9,0.9,13.9,6.3,14.2,14.9c0.3,8.7-4.9,14.5-13.5,15.6   c-7.1,0.9-14.5,0.7-21.7,0.2c-9.3-0.6-15.8-7.7-15.4-16.1c0.4-8.2,6.6-14.1,15.7-14.7C796.3,711.1,799.7,711.3,803.1,711.4   C803.1,711.4,803.1,711.4,803.1,711.4z"/>
	<path class="st0" d="M880.8,854.1c25.9,0.2,46.5,21.2,46.1,47.1c-0.4,25.4-21.2,46-46.4,46c-25.6,0.1-46.8-21.2-46.7-46.9   C833.9,874.5,854.7,854,880.8,854.1z M880,885.2c-8.5,0.2-14.9,6.7-15,15.2c-0.1,8.6,7.2,15.9,15.7,15.7c8.1-0.2,14.9-7.2,15-15.4   C895.8,891.9,888.8,885,880,885.2z"/>
	<!--path class="st0" d="M666.5,767.1v59.4h-90.7v-0.2c-70,0-140.1,0-210.1-0.3c-5.1,0-11.4-2.6-15.2-6.1   c-42.3-38.5-106.3-38.6-149-0.1c-3.9,3.5-10,6-15.2,6.1c-26.9,0.6-53.8,0.3-82.6,0.3c0.5-11.8-0.3-23.3,1.8-34.1   c3.1-15.8,16.3-24.9,33.5-25c42.1-0.1,84.2,0,126.3,0h310.5v0H666.5z"/-->
</g>
</svg>