<svg xmlns="http://www.w3.org/2000/svg" xmlns:xlink="http://www.w3.org/1999/xlink" version="1.1" id="Capa_1" x="0px" y="0px" style="enable-background:new 0 0 1200 1200;" xml:space="preserve" viewBox="387.13 322.73 459.15 546.35">

<g id="BpjmaP.tif">
	<g>
		<path class="st0" d="M791.5,868.8c-131.8,0-263.6,0-395.4,0c-6.9-2.9-8.7-8.3-8.7-15.4c0.1-151.5,0.1-303,0.1-454.5    c0-16.4,2.2-18.6,18.8-18.6c9,0,18,0,27.5,0c0-2.7,0-4.6,0-6.5c0-11.9,0-23.8,0-35.7c0-11.2,3.9-15,15-15c97,0,193.9,0,290.9-0.1    c5.9,0,10,2,13.7,6.6c29.2,36.4,58.5,72.8,87.9,109.1c3.2,3.9,4.7,7.9,4.7,13.1c-0.1,101.9-0.1,203.9-0.1,305.8    c0,13.3,0,26.6,0,40c0,10.2-3.9,14.1-14.2,14.1c-8.5,0.1-17,0-25.6,0c-1.9,0-3.7,0.2-5.9,0.3c0,14.5-0.2,28.4,0.1,42.2    C800.5,861.2,798.1,866.2,791.5,868.8z M777.6,515.9c-2.5,0-4.5,0-6.4,0c-23.4,0-46.9,0-70.3,0c-11.1,0-15-3.9-15-15.1    c0-30.7,0-61.5,0-92.2c0-1.9,0-3.8,0-5.8c-92.3,0-183.9,0-275.7,0c0,148,0,295.6,0,443.4c122.6,0,244.9,0,367.4,0    C777.6,736.1,777.6,626.3,777.6,515.9z M456.4,380.3c9.1,0,17.6,0,26,0c70.5,0,140.9,0,211.4-0.1c6,0,10.4,1.7,14.2,6.6    c6.4,8.5,13.3,16.6,20.1,24.8c0.8,1,1.8,1.8,3.2,3.1c0-23.5,0-46.1,0-69.1c-91.7,0-183.2,0-274.9,0    C456.4,357.2,456.4,368.3,456.4,380.3z M823.2,459.8c-18.6,0-36.8,0-55.7,0c1.4,1.9,2.3,3.3,3.4,4.6c8.1,10.1,16.2,20.3,24.6,30.1    c3.4,4,4.9,8.2,4.9,13.5c-0.1,91.3-0.1,182.6-0.1,273.9c0,2.3,0,4.5,0,7.1c8,0,15.4,0,23,0C823.2,679.3,823.2,569.8,823.2,459.8z     M811.2,436.9c-19.1-23.7-37.6-46.7-56.8-70.6c0,24.3,0,47.3,0,70.6C773.1,436.9,791.5,436.9,811.2,436.9z M708.5,493.1    c19.1,0,37.5,0,56.7,0c-19-23.4-37.5-46.2-56.7-69.9C708.5,447.3,708.5,470.1,708.5,493.1z"/>
		<path class="st0" d="M593.9,698.2c37.3,0,74.6,0,111.9,0c7.8,0,12.5,3.4,13.3,9.5c0.8,6.1-2.4,10.8-8.4,12.2    c-2.2,0.5-4.6,0.6-6.8,0.6c-73.3,0-146.7,0-220,0c-2.3,0-4.6-0.1-6.8-0.7c-5.5-1.3-8.8-5.8-8.4-11.3c0.3-5.2,4-9.3,9.3-10.1    c2.1-0.3,4.2-0.3,6.4-0.3C520.8,698.2,557.4,698.2,593.9,698.2z"/>
		<path class="st0" d="M594.3,766.4c36.6,0,73.2,0,109.7,0c2.3,0,4.7,0,6.9,0.5c5,1.2,8.2,5.4,8.3,10.4c0.1,5.1-2.8,9.3-7.9,10.6    c-2.4,0.6-4.9,0.8-7.4,0.8c-73.3,0-146.7,0-220,0c-0.5,0-1.1,0-1.6,0c-8.7-0.1-13.9-4.3-13.9-11.3c0-7,5.1-11.1,14-11.1    C519.7,766.4,557,766.4,594.3,766.4z"/>
		<path class="st0" d="M594.3,561.7c36.4,0,72.8,0,109.2,0c2.1,0,4.3-0.1,6.4,0.2c5.3,0.8,9,4.9,9.3,10.1c0.3,5.6-2.8,10-8.4,11.3    c-2.2,0.5-4.6,0.7-6.8,0.7c-73.3,0-146.7,0-220,0c-2.3,0-4.6-0.1-6.8-0.6c-5.6-1.3-8.9-5.7-8.6-11.2c0.3-5.4,4.2-9.6,9.7-10.3    c1.9-0.3,3.9-0.2,5.8-0.2C520.8,561.7,557.6,561.7,594.3,561.7z"/>
		<path class="st0" d="M594.3,630c36.4,0,72.8,0,109.2,0c2.1,0,4.3-0.1,6.4,0.3c5.4,0.9,9,4.9,9.3,10.1c0.3,5.6-2.8,9.9-8.4,11.3    c-2.2,0.5-4.6,0.7-6.8,0.7c-73.3,0-146.7,0-220,0c-2.5,0-5-0.2-7.4-0.8c-5.3-1.3-8.3-5.8-8.1-11c0.2-5,3.7-9.1,8.7-10.1    c2.1-0.4,4.2-0.4,6.4-0.4C520.5,630,557.4,630,594.3,630z"/>
	</g>
</g>
</svg>