<svg xmlns="http://www.w3.org/2000/svg" xmlns:xlink="http://www.w3.org/1999/xlink" version="1.1" id="Capa_1" x="0px" y="0px" style="enable-background:new 0 0 1200 1200;" xml:space="preserve" viewBox="166.76 187.11 867.01 826.66">

<g>
	<path class="st0" d="M1033.3,330.4c0-50.1-29-79.1-79.5-79.4c-14.1-0.1-28.5,0-42.3,0c-4.1,0-8.3,0-12.4,0   c-7.8-39.9-20-63-54.1-63.6c-35.5-0.7-48.6,23-56.2,61.9H654.2c-3.5-30-13.7-60.8-50.6-61.5c-17.6-0.3-31.5,4.4-41.2,13.9   c-12.7,12.4-16.4,31-17.3,47.8H410.7c-4.7-32-16.1-62.1-54.6-62.1c-17.5,0-30.4,6-39.5,18.5c-7.4,10-12.3,24.5-15.4,45.1   c-4.5,0-9,0-13.5,0c-14.6,0-28.4,0-42.3,0c-49,0.3-78.2,29.6-78.2,78.3c-0.2,181.2-0.2,379.4-0.1,606c0,48.1,29.3,78,76.5,78   c119.6,0.1,251.6,0.2,389.2,0.2c105.3,0,213.9,0,322.8-0.2c48.7-0.1,77.8-29.6,77.8-78.9c0-100.2,0.1-201.1,0.1-302   S1033.3,430.6,1033.3,330.4z M832.4,240.2c0-6.8,5.6-12.4,12.4-12.4h1.4c6.8,0,12.4,5.6,12.4,12.4v62.5c0,6.8-5.6,12.4-12.4,12.4   h-1.4c-6.8,0-12.4-5.6-12.4-12.4V240.2z M589.4,240.2c0-6.8,5.6-12.4,12.4-12.4h1.4c6.8,0,12.4,5.6,12.4,12.4v62.5   c0,6.8-5.6,12.4-12.4,12.4h-1.4c-6.8,0-12.4-5.6-12.4-12.4V240.2z M343.8,240.2c0-6.8,5.6-12.4,12.4-12.4h1.4   c6.8,0,12.4,5.6,12.4,12.4v62.5c0,6.8-5.6,12.4-12.4,12.4h-1.4c-6.9,0-12.4-5.6-12.4-12.4V240.2z M211.6,320.4L211.6,320.4   c0.4-14.1,10.6-24,25.6-24.8c18.3-0.9,41.3-0.8,59.8-0.7c2.1,0,4.1,0,6.1,0c6.5,29.6,8.5,35.6,20.2,51.5c7.9,11,27.1,12,37.9,11.7   c32.8-1.1,43.7-23.4,49.5-61.7c23.3,0,48-0.1,71.9-0.1c22.8-0.1,44.4-0.1,64.2-0.1c4.4,26.3,8.9,33.8,19.5,48.8l1.1,1.5   c7.4,10.5,25.7,12,35.9,11.8c33.8-0.2,45-21.9,51.3-61.9c23,0,46.9,0.1,70,0.2c22.5,0.1,43.9,0.2,64,0.2c6.7,28,9.7,32.9,18.1,44.2   c1,1.4,2.1,2.9,3.3,4.6c8.4,11.7,29,12.8,37.4,12.7c33.1-0.1,44.2-21.1,51.5-62.3c4.9,0,9.8-0.1,14.5-0.2   c17.6-0.3,35.7-0.6,53.3,0.7c12.5,0.9,20.8,9.7,21.2,22.3c1,31.2,0.8,61.8,0.6,94.3c0,9.2-0.1,18.6-0.1,28.1H211.2   c0-9.6-0.1-19.1-0.1-28.4C210.9,381.1,210.8,351,211.6,320.4z M989,927.5c0,17.8-2.4,28.2-7.9,33.8c-5.4,5.5-15.6,8-33.1,8H251.9   c-17.5,0-27.8-2.4-33.1-7.9c-5.4-5.5-7.8-15.9-7.8-33.7V497.5c0-3.1,0.2-6.2,0.4-9.9h777.2c0.2,4.1,0.4,8,0.4,11.8V927.5z"/>
	<path class="st0" d="M704.7,628.8c-28.1-27.9-65.2-43.1-104.4-43.1c-0.6,0-1.1,0-1.7,0c-39.8,0.5-77,16.3-104.9,44.5   c-27.8,28.3-43.1,65.7-42.9,105.4c0.2,39.8,15.8,77,44,104.8c28,27.7,65.2,43,104.9,43h0.6c40-0.2,77.4-15.6,105.4-43.5   c28-27.9,43.4-65.2,43.4-104.8C749,694.9,733.3,657.2,704.7,628.8z M681.3,815.3C659.6,837.1,630.8,849,600,849h-0.5   c-30.7-0.1-59.4-12-80.9-33.5C497,794,485.1,765.3,485,734.7c-0.1-30.4,11.8-59,33.4-80.7c21.6-21.7,50.4-33.7,80.9-33.8h0.4   c63.2,0,114.8,50.8,115.1,113.4C715,764.5,703.1,793.5,681.3,815.3z"/>
	<path class="st0" d="M678.2,690.4l-3.4,4.1c-11.5,13.7-22.8,27.3-34.1,40.9c-19.8,23.7-39.7,47.6-60.5,72.4l-3.8,4.5l-3.8-4.4   c-9.8-11.3-18.8-21.7-27.7-31.9c-6.5-7.5-12.8-14.8-19.3-22.2l-3.2-3.7l3.6-3.3c3.8-3.4,7-6.4,10.5-9.5c2.2-2,4.5-4.1,7-6.4   l3.7-3.3l3.4,3.7c5.4,5.8,10.5,11.5,16,17.5c3,3.3,6.1,6.7,9.4,10.3c9.2-11,18.4-21.9,27.6-32.9c14.5-17.3,29.1-34.6,44.1-52.6   l3-3.6l3.8,2.8c2.8,2.1,5.5,4.1,8.2,6.2c3.4,2.5,6.9,5.2,11.1,8.3L678.2,690.4z"/>
</g>
</svg>