<?xml version="1.0" encoding="utf-8"?>
<!-- Generator: Adobe Illustrator 25.4.1, SVG Export Plug-In . SVG Version: 6.00 Build 0)  -->
<svg version="1.1" id="Capa_1" xmlns="http://www.w3.org/2000/svg" xmlns:xlink="http://www.w3.org/1999/xlink" x="0px" y="0px"
	 viewBox="0 0 525.1 608.6" style="enable-background:new 0 0 525.1 608.6;" xml:space="preserve">
<style type="text/css">
	.st0{fill:#999999;}
</style>
<g>
	<path class="st0" d="M526.5,15.2c0-10.6-6.2-16.7-16.9-16.7h-384c-10.5,0-14.4,5.4-15.9,9.9c-0.7,2.6-1,5.3-0.9,8v344.6
		c-1,0.2-2,0.4-3,0.5c-2.5,0.4-4.9,0.9-7.3,1.3c-32.1,6.3-61,25.9-79.4,54C0.5,445.2-5.8,478.5,1.3,510.5
		C7.6,539.2,22.7,564,44.9,582c22.3,18.1,49.5,27.8,78.8,27.8c53.9,0.1,108.2,0.2,162.6,0.2c54.3,0,108.6-0.1,162.5-0.2
		c29.2-0.1,51.9-13.3,67.5-39.3c9.2-15.3,10.3-32.4,10.3-45.7C526.5,355.8,526.5,184.3,526.5,15.2z M124.1,579.9h-0.7
		c-52.3-0.4-94.8-43.2-94.5-95.3C29,459.2,39,435.4,57,417.4c17.9-17.8,41.5-27.6,66.5-27.6h0.5c25.5,0.1,49.4,10.2,67.4,28.4
		c17.8,18.1,27.6,41.9,27.4,67.1c-0.2,25.3-10.2,49.1-28.3,67C172.6,570.1,149,579.9,124.1,579.9z M248,470.6l122.8,0v2.8
		c0,6.2,0,12.4,0.1,18.6c0,12.1,0.1,24.7-0.1,37.1c-0.3,19.1,5.3,36.1,16.7,50.7H204.8C238.3,549.2,252.4,513.5,248,470.6z
		 M496.2,530.5c0,24-14.6,42.8-37,48c-14.1,3.2-28.7-0.1-40.1-9.1c-11.3-8.9-17.8-22.2-17.9-36.5c-0.1-16.7-0.1-33.7,0-50.1
		c0-8.4,0-16.7,0-25.1c0-5.2-0.7-10.9-6-14.2c-3.1-2-6.8-3.1-10.5-3.2c-23.3-0.1-46.8-0.1-70.3-0.1s-47,0-70.3,0.1H244
		c-2.9,0-3.9-0.6-5.1-3.3c-19.2-43-52.7-68.5-99.5-75.7c-0.1,0-0.2,0-0.3-0.1l0-332.3h357.1v368.3
		C496.2,441.4,496.2,486.3,496.2,530.5z"/>
</g>
<path class="st0" d="M318.2,213.3h96.7c6.1,0,10.9,2.5,13.3,8.2c2.3,4.9,1.3,10.8-2.5,14.7c-3,3.3-7,4.3-11.4,4.3
	c-23.4,0-46.9,0-70.3,0H222.1c-7.8,0-13.1-3.7-14.8-10.1c-2.3-8.9,4.2-17.1,13.8-17.1c21.4-0.1,42.8,0,64.2,0L318.2,213.3
	L318.2,213.3z"/>
<path class="st0" d="M318.3,319.9c32.1,0,64.2,0,96.3,0c9.7,0,16.1,7.2,14.6,16.2c-1.2,5.9-6.1,10.4-12.1,11
	c-1.1,0.1-2.2,0.1-3.2,0.1H222.4c-7.7,0-13-3.4-15-9.5c-2.9-9.2,3.6-17.8,13.7-17.8c11.1-0.1,22.2,0,33.3,0L318.3,319.9z"/>
<path class="st0" d="M317.8,133.7H222c-8.5,0-13.8-4.2-15-11.8c-0.9-6.6,3.1-12.8,9.5-14.7c1.7-0.4,3.4-0.6,5.2-0.6
	c64.3,0,128.7,0,193,0c8.7,0,14.6,5.5,14.6,13.4c0,8.2-5.7,13.6-14.8,13.6C382.3,133.7,350.1,133.7,317.8,133.7z"/>
<path class="st0" d="M137.4,546.1c0,3.1,0.1,6.2,0,9.3c-0.1,7.4-6.1,13.4-13.5,13.4c-7.4,0-13.2-5.7-13.5-13.4c0-0.5,0-1.1,0-1.6
	c-0.1-9.4-0.1-9.4-9.4-11.9c-2.5-0.7-5-1.2-7.4-2c-7.1-2.2-11.1-9.8-8.9-16.9c2.1-6.8,9.2-10.8,16.1-9.1c8,1.9,16,4.2,24,6.1
	c3.7,1,7.5-0.4,9.8-3.5c2.6-3.2,3.4-7.2,1.1-10.6c-1.9-2.6-4.5-4.5-7.4-5.6c-5.3-2-10.9-3-16.4-4.6c-15.9-4.5-26.9-17.9-27.8-33.7
	c-1-16.2,8-30.4,23.4-36.8c2.5-1,3.2-2.4,3-4.8c-0.1-2.2-0.1-4.3,0-6.5c0.3-7.5,6.6-13.3,14-13c7.2,0.3,13,6.2,13,13.4
	c0,0.7,0,1.3,0,2c0,9,0,9,8.9,11.4c2.4,0.6,4.7,1.2,7.1,1.8c7.8,2.3,11.9,9.5,9.9,17c-1.9,7.1-9.3,11.2-17,9.2
	c-7.2-1.8-14.3-4-21.5-5.8c-8.1-2.1-14.5,3.3-13.4,11.2c0.6,4.4,3.4,7,7.5,8.1c5.6,1.6,11.2,3.1,16.8,4.6
	c16.7,4.6,27.4,17.7,28.3,35c0.9,15.4-8.8,29.8-24.1,36C139,545.3,138.3,545.6,137.4,546.1z"/>
</svg>
