<svg xmlns="http://www.w3.org/2000/svg" xmlns:xlink="http://www.w3.org/1999/xlink" version="1.1" id="Capa_1" x="0px" y="0px" style="enable-background:new 0 0 1200 1200;" xml:space="preserve" viewBox="172.23 172.23 855.55 855.55">

<g>
	<g>
		<path class="st0" d="M993.9,433.6c-21.5-50.9-52.4-96.6-91.6-135.9s-85-70.1-135.9-91.6c-52.7-22.3-108.7-33.6-166.4-33.6    s-113.7,11.3-166.4,33.6c-50.9,21.5-96.6,52.4-135.9,91.6s-70.1,85-91.6,135.9c-22.3,52.7-33.6,108.7-33.6,166.4    s11.3,113.7,33.6,166.4c21.5,50.9,52.4,96.6,91.6,135.9s85,70.1,135.9,91.6c52.7,22.3,108.7,33.6,166.4,33.6    s113.7-11.3,166.4-33.6c50.9-21.5,96.6-52.4,135.9-91.6s70.1-85,91.6-135.9c22.3-52.7,33.6-108.7,33.6-166.4    S1016.2,486.3,993.9,433.6z M740.9,933.5c-44.6,18.9-92,28.4-140.9,28.4s-96.3-9.6-140.9-28.4C416,915.3,377.3,889.2,344,856    s-59.3-72-77.6-115.1c-18.9-44.6-28.4-92-28.4-140.9s9.6-96.3,28.4-140.9C284.7,416,310.8,377.3,344,344s72-59.3,115.1-77.6    c44.6-18.9,92-28.4,140.9-28.4s96.3,9.6,140.9,28.4C784,284.7,822.7,310.8,856,344s59.3,72,77.6,115.1    c18.9,44.6,28.4,92,28.4,140.9s-9.6,96.3-28.4,140.9C915.3,784,889.2,822.7,856,856S784,915.3,740.9,933.5z"/>
	</g>
	<g>
		<path class="st0" d="M641.3,851.5c-11,11.3-26.3,17.8-42.1,17.8h-0.3c-33.6-0.2-57.1-26.4-57.1-63.7c-0.2-90-0.2-173.2,0-254.3    c0-18.3,5.5-33.9,15.9-45.1c10.5-11.2,25-17.2,42.1-17.2h0c17.1,0,31.7,5.9,42.1,17.1c10.3,11.1,15.8,26.7,15.9,45    c0.2,29.6,0.1,59.6,0.1,88.7c0,12.8,0,25.7,0,38.5c0,12.8-0.1,25.9-0.2,38.5c-0.2,29-0.5,59,0.5,88.4    C658.9,823.1,652.9,839.6,641.3,851.5z"/>
	</g>
	<g>
		<path class="st0" d="M657.8,392.1c-1.2,32.4-25.8,55.4-58.8,55.4c-0.6,0-1.3,0-1.9,0c-15.5-0.4-29.6-6.6-39.7-17.3    c-10.6-11.3-16.2-26.8-15.6-43.6c1.1-31.6,27.4-56.9,58.8-56.3c15.7,0.3,30.3,6.7,41,18C652.7,359.8,658.4,375.4,657.8,392.1z"/>
	</g>
</g>
</svg>