<?xml version="1.0" encoding="utf-8"?>
<!-- Generator: Adobe Illustrator 25.4.1, SVG Export Plug-In . SVG Version: 6.00 Build 0)  -->
<svg version="1.1" id="Capa_1" xmlns="http://www.w3.org/2000/svg" xmlns:xlink="http://www.w3.org/1999/xlink" x="0px" y="0px"
	 viewBox="0 0 1200 1200" style="enable-background:new 0 0 1200 1200;" xml:space="preserve">
<style type="text/css">
	.st0{fill:#999999;}
</style>
<g>
	<g id="m43eFp_00000047022770423097607410000005528962616804006564_">
		<g>
			<path class="st0" d="M599.7,894.3c-78.9,0-152.9-19.4-222.2-56.9c-57.4-31-106.9-72-149.9-120.9c-19.4-22.1-37.1-45.4-53-70.1
				c-6.2-9.7-6.3-19.8-0.1-29.5c38-58.3,84.1-109.1,140-150.8c53-39.6,111.3-68.1,175.6-84.1c32-8,64.6-12.2,97.6-13.1
				c74-2,144.3,13.3,211.2,44.8c50.6,23.9,95.8,55.8,136.4,94.3c34,32.2,63.4,68.2,89.2,107.2c7.3,11,7.3,21.8,0.1,32.8
				c-35.6,53.9-78,101.6-128.9,141.5c-59.9,46.9-126.6,79.4-201.1,95.3c-27.1,5.8-54.6,9-82.4,9.5
				C608.1,894.4,603.9,894.3,599.7,894.3z M600.2,841.5c0,0.3,0.1,0.6,0.1,0.9c18.5-1.6,37-2.3,55.4-4.8
				C711.8,830,764,811,812.5,782.1c63.2-37.5,114.4-87.9,157-147.4c1.7-2.3,1.5-3.8-0.1-6.1c-33.2-46.7-72.2-87.9-118.4-121.9
				c-47-34.6-98.6-59.6-155.5-73.4c-49.8-12.1-100.1-14.6-150.8-7.6c-56.1,7.7-108.3,26.6-156.9,55.5
				c-63.4,37.7-114.8,88.1-157.4,148c-1.6,2.2-1.1,3.6,0.3,5.5c19.7,27.6,41.4,53.5,65.8,77.1c35.7,34.7,75.4,63.9,120.2,86.1
				C474.5,826.5,535.6,841.2,600.2,841.5z"/>
			<path class="st0" d="M452.2,628.6c1.4-78.9,65.7-143.4,145.1-144.9c83.6-1.6,152.1,66.7,150.8,150.4
				c-1.3,80.6-68.1,147.1-151.2,145.4C516.4,777.9,450.5,711,452.2,628.6z M505.4,631.6c-0.1,51.9,42.4,94.7,94.2,94.8
				c52.3,0.1,95.2-42.3,95.3-94.1c0.1-52.5-42.2-95.4-94.2-95.5C548,536.7,505.4,579.1,505.4,631.6z"/>
		</g>
	</g>
</g>
<g>
	<path class="st0" d="M267.7,980.2c-5.8,0-11.5-2.2-15.9-6.6c-8.8-8.8-8.8-23,0-31.8l685.3-685.3c8.8-8.8,23-8.8,31.8,0
		c8.8,8.8,8.8,23,0,31.8L283.7,973.6C279.3,978,273.5,980.2,267.7,980.2z"/>
</g>
</svg>
