<svg xmlns="http://www.w3.org/2000/svg" xmlns:xlink="http://www.w3.org/1999/xlink" version="1.1" id="Capa_1" x="0px" y="0px" style="enable-background:new 0 0 1200 1200;" xml:space="preserve" viewBox="267.61 230.1 675.85 755">
<style type="text/css">
	.st0{fill:#999999;}
</style>
<g id="fjHQPj_00000066489238166745112930000005169621532444242566_">
	<g>
		<path class="st0" d="M590.4,984.9c-37.6-8.8-68-27.7-86.1-62.8c-5.3-10.3-8.8-21.6-13.9-34.5c-4.4,0-10.4,0-16.5,0    c-59.8,0-119.7-0.1-179.5,0.1c-12.3,0-22.7-2.6-26-15.9c-3.3-13,4.1-20.5,14.9-26.6c42.2-23.9,58.5-65.1,67.9-108.7    c7-32.5,9.4-66.2,11.6-99.5c3-45.6-0.7-92.1,6.5-136.9c12.4-77.7,58.7-133.6,128.5-169.3c10.2-5.2,13.9-11.1,15.8-22.3    c6.3-38.2,29.8-62.5,66.2-74.7c3.6-1.2,7.2-2.5,10.8-3.7c10.1,0,20.1,0,30.2,0c37,10.8,66.9,30.9,74.4,70.6    c3.6,19.3,13.6,27,28.6,35.8c80.8,47.2,121.9,118.5,124.2,211.9c1,41.3-0.7,82.8,1.5,124c2.3,43.7,11.7,86.2,32.6,125.3    c11,20.6,25.7,37.9,47,48.6c10.9,5.5,16.5,13.7,13.6,25.6c-3,12.3-12.6,15.9-24.3,15.9c-59.8-0.1-119.6,0-179.4,0    c-6.1,0-12.2,0-19.3,0c-8.8,36.1-27.3,65.1-60.1,82.7c-12.1,6.5-25.8,9.8-38.7,14.6C610.5,984.9,600.5,984.9,590.4,984.9z     M401.6,729.2c134.6,0,273.1,0,410.9,0c-2.4-28.8-5.7-57-6.8-85.2c-1.2-29,0.2-58.1-0.4-87.2c-0.3-16.7-0.9-33.6-3.9-50    c-18.5-103-125.8-176.5-228.3-157C472.1,369,406.6,447.7,405.5,550C404.8,609.5,402.9,669.1,401.6,729.2z M351.7,844.2    c169.2,0,338.9,0,507.5,0c-10.2-20.8-19.5-41.1-30.1-60.6c-2.7-5-9.8-10.8-14.9-10.9c-139.2-0.6-278.4-0.6-417.6-0.1    c-4.9,0-11.9,4.9-14.3,9.4C371.5,802.2,362,823,351.7,844.2z M537,887.6c8.5,33.5,38.1,55.9,70.3,54.7c31.8-1.2,59.8-23.8,66-53.8    c-2.1-0.3-4.2-0.8-6.3-0.8C624.2,887.6,581.3,887.6,537,887.6z M558.2,306.9c31.6,0,63.5,0,95.8,0c-12.4-25.3-29.9-36.2-53.1-34.1    C579.2,274.8,564,287.2,558.2,306.9z"/>
	</g>
</g>
</svg>