<svg xmlns="http://www.w3.org/2000/svg" xmlns:xlink="http://www.w3.org/1999/xlink" version="1.1" id="Capa_1" x="0px" y="0px" style="enable-background:new 0 0 1200 1200;" xml:space="preserve" viewBox="337.2 437.8 525.6 400.5">
<style type="text/css">
	.st0{fill:#999999;}
</style>
<g id="THPJOl.tif">
	<g>
		<path class="st0" d="M593.9,838.1c-5.5-1.9-11.3-3.4-16.5-5.8c-14.9-7-22.9-17.7-29.2-38.1c-2.7,0-5.7,0-8.7,0    c-22.7,0-45.3-0.1-68,0.1c-13,0.1-24.3-3.7-28.7-16.4c-4.6-13.4-5.2-27.4,6-39c7.7-7.9,15.4-15.9,23.5-23.4c4.3-4,6-8.2,6-14.1    c-0.3-32.7,0.6-65.4-0.3-98.1c-1.8-71.1,49.6-120.3,105.4-127.4c1.3-0.2,2.5-0.5,5.1-1.1c0-8.6-0.2-17.6,0.1-26.4    c0.2-5.8,3.5-10.5,9.1-10.6c4-0.1,8.7,2.3,11.7,5.1c2,1.8,2,6.2,2.1,9.4c0.3,7.4,0.1,14.8,0.1,21.9c11.1,3,21.8,5.1,31.7,8.9    c47.4,18.1,78.1,62.5,78.5,113.4c0.3,35,0.2,70-0.1,105c0,5.9,1.7,10.1,6,14.1c8.3,7.7,16.3,15.8,24.1,24    c9.5,10,11.1,31.1,3.5,42.6c-6,9-14.8,12.3-25.2,12.2c-23.7-0.1-47.4,0.1-71.1-0.1c-5.5-0.1-7.8,1.5-9.6,7    c-6,19.2-19.5,30.9-39.1,35.5c-1.4,0.3-2.8,1-4.2,1.5C602.1,838.1,598,838.1,593.9,838.1z M599.5,770.8c24.2,0,48.4,0,72.6,0    c19.1,0,38.1-0.1,57.2,0.1c5.2,0,8.2-1.7,7.1-7.1c-0.9-4-2.1-8.5-4.6-11.4c-7-7.9-14.6-15.3-22.3-22.5    c-7.7-7.1-10.9-15.5-10.8-26.1c0.3-36,0.5-72.1,0-108.1c-0.8-61.7-55.9-106.9-116.5-96.1c-46.2,8.2-80.3,48.8-80.7,96.6    c-0.3,36-0.3,72.1,0,108.1c0.1,10.3-3.2,18.4-10.6,25.4c-8.2,7.8-16.6,15.5-23.8,24.2c-2.7,3.3-2.7,9.3-2.6,14.1    c0,1,6,2.6,9.2,2.6C515.6,770.9,557.6,770.8,599.5,770.8z M626.5,795c-17.9,0-35.3,0-52.9,0c4.3,12.1,14.7,19.5,26.5,19.4    C612.2,814.4,622.4,807.1,626.5,795z"/>
		<path class="st0" d="M862.8,643.5c-2,9.2-3.6,18.6-6.1,27.7c-6.7,25.1-19.6,46.8-37.4,65.6c-6.5,6.9-13.6,7.8-18.8,2.7    c-5.1-5-4.6-11.5,1.6-18.3c50.2-55.5,50.1-130.4-0.3-185.4c-6-6.5-6.4-13.5-1-18.3c5.2-4.7,11.7-4,17.7,2.2    c23.6,24.4,37.7,53.5,42.7,87.1c0.4,2.5,1,5,1.6,7.5C862.8,623.9,862.8,633.7,862.8,643.5z"/>
		<path class="st0" d="M337.2,630.9c0.9-44.6,15.3-81,44.5-111.3c6.2-6.4,13.2-6.8,18.2-1.5c4.8,5.1,4.3,11.4-1.7,17.7    c-18,19-30.1,41-34.9,66.7c-8,42.9,2.3,81,30.7,114.3c1.7,2,3.5,3.8,5.2,5.7c5.1,6,5.2,12.6,0.2,17.2c-4.8,4.5-11.8,4.1-17.2-1.4    c-24.1-24.8-38.7-54.2-43.4-88.5C337.9,642.7,337.6,635.5,337.2,630.9z"/>
		<path class="st0" d="M395.7,627.3c0.2-24.7,9-46.8,26.2-65.7c6.5-7.1,13.2-8.1,18.7-3c5.2,4.8,4.8,11.4-1.1,18.3    c-27.6,32.1-27.6,71.3,0.1,103.4c5.8,6.7,6.1,13.6,0.9,18.4c-5.5,5-11.9,4.1-18.2-2.7C404.6,676.9,395.6,654.2,395.7,627.3z"/>
		<path class="st0" d="M804.3,639.7c-0.3,15.8-9.4,38.4-27.3,57.3c-4.3,4.6-9.9,7.1-15,2.8c-3.1-2.6-4.6-8-5.4-12.3    c-0.4-2,2.3-5,4.1-7.1c27.8-32.7,27.8-71.1-0.2-104.1c-5.6-6.5-5.9-12.9-0.9-17.7c5.2-5,12-4.2,18.2,2.2    C794.8,578.4,804.7,603.8,804.3,639.7z"/>
	</g>
</g>
</svg>