<svg xmlns="http://www.w3.org/2000/svg" xmlns:xlink="http://www.w3.org/1999/xlink" version="1.1" id="Capa_1" x="0px" y="0px" style="enable-background:new 0 0 1200 1200;" xml:space="preserve" viewBox="361.83 405.03 464.25 414.44">

<g id="XUsH5A.tif">
	<g>
		<path class="st0" d="M362.2,762.4c3.4-14.5,11.9-26.5,19.2-39.1c56.2-97.2,112.4-194.3,168.7-291.5c15.8-27.2,49-34.8,73.2-16.5    c5.4,4,10.3,9.5,13.6,15.2c60.9,104.6,121.5,209.4,182,314.2c17.3,30,0.6,66.3-33.3,73.6c-0.8,0.2-1.5,0.6-2.3,0.9    c-126.3,0-252.5,0-378.8,0c-0.9-0.4-1.8-0.8-2.8-1c-20.4-5.1-33.2-17.8-38.5-38.1c-0.3-1.1-0.8-2.2-1.1-3.3    C362.2,772.1,362.2,767.3,362.2,762.4z M593.7,797.4c63.1,0,126.2,0,189.3,0c1.8,0,3.7,0.1,5.5-0.1c13-0.8,20.6-13.7,15-25.5    c-0.9-1.8-1.9-3.5-2.9-5.3c-27.7-47.9-55.5-95.8-83.2-143.7c-35.3-61.1-70.7-122.1-106-183.2c-0.2-0.3-0.4-0.6-0.6-0.9    c-8.8-15.1-24.5-15.3-33.2-0.2c-44.5,76.7-88.9,153.5-133.3,230.3c-19.4,33.5-38.8,66.9-58.1,100.4c-6.9,12-1.9,25,10.6,27.7    c2.5,0.5,5.1,0.5,7.7,0.5C467.4,797.4,530.5,797.4,593.7,797.4z"/>
		<path class="st0" d="M577.5,605.3c0-15.9,0-31.7,0-47.6c0-11.1,6.6-18.5,16.4-18.6c9.8-0.1,16.7,7.4,16.7,18.3    c0,31.9,0,63.8,0,95.7c0,10.9-6.9,18.4-16.7,18.4c-9.7-0.1-16.4-7.6-16.4-18.6C577.5,637,577.5,621.2,577.5,605.3z"/>
		<path class="st0" d="M594.1,754.2c-13.7,0-25-11.3-24.8-25c0.1-13.5,11.2-24.5,24.8-24.6c13.5-0.1,24.7,11.1,24.8,24.5    C619,742.9,607.8,754.2,594.1,754.2z"/>
	</g>
</g>
</svg>