<?xml version="1.0" encoding="utf-8"?>
<!-- Generator: Adobe Illustrator 25.4.1, SVG Export Plug-In . SVG Version: 6.00 Build 0)  -->
<svg version="1.1" id="Capa_1" xmlns="http://www.w3.org/2000/svg" xmlns:xlink="http://www.w3.org/1999/xlink" x="0px" y="0px"
	 viewBox="0 0 1200 1200" style="enable-background:new 0 0 1200 1200;" xml:space="preserve">
<style type="text/css">
	.st0{fill:#999999;}
</style>
<g id="Layer_2_00000048497286289689371120000017105668572774048676_">
	<g id="Layer_1-2_00000049933362631540618490000018401012741874142604_">
		<g id="event_available_00000090982809366800577920000005645990496310844573_">
			<g>
				<path class="st0" d="M851.3,241.1h-15.9v-71.7c0-22-17.8-39.8-39.8-39.8c-22,0-39.8,17.8-39.8,39.8v71.7H437.2v-71.7
					c0-22-17.8-39.8-39.8-39.8s-39.8,17.8-39.8,39.8v71.7h-15.9c-92.3,0.1-167.2,74.9-167.2,167.2v493.8
					c0.1,92.3,74.9,167.2,167.2,167.2h509.7c92.3-0.1,167.2-74.9,167.2-167.2V408.3C1018.5,316,943.7,241.2,851.3,241.1z M254,408.3
					c0.1-48.3,39.2-87.5,87.6-87.6h509.7c48.3,0.1,87.5,39.3,87.6,87.6v39.8H254V408.3z M939,902.1c-0.1,48.3-39.3,87.5-87.6,87.6
					H341.6c-48.4-0.1-87.5-39.3-87.6-87.6V527.8H939V902.1z"/>
			</g>
			<g>
				<path class="st0" d="M547.9,910.1c-10.6,0-20.7-4.3-28.2-11.8L393.1,771.8c-15.6-15.6-15.6-40.8,0-56.4
					c15.6-15.6,40.8-15.6,56.4,0l0,0l98.4,99.1l195.6-195.8c15.8-15.3,41-14.9,56.3,0.9c14.9,15.4,15,39.9,0.1,55.3L575.9,898
					C568.6,905.6,558.5,910,547.9,910.1z"/>
			</g>
		</g>
	</g>
</g>
</svg>
