<svg xmlns="http://www.w3.org/2000/svg" xmlns:xlink="http://www.w3.org/1999/xlink" version="1.1" id="Capa_1" x="0px" y="0px" style="enable-background:new 0 0 1200 1200;" xml:space="preserve" viewBox="358.73 352.61 499.95 495.26">

<g id="G6vYON.tif">
	<g>
		<g>
			<path class="st0" d="M857.8,558c-5-5-10.1-10.1-15.1-15.1c-15.4-15.3-31.3-31.2-46.9-46.9c-1.4-1.4-3-2.8-5-2.8c0,0,0,0,0,0     c-2,0-3.7,1.4-5.1,2.9c-8.7,9-17.7,18-26.5,26.7c-2.4,2.4-4.9,4.9-7.3,7.3c0-0.1,0-0.2,0-0.4c0-0.4,0.1-0.9,0.1-1.3     c0-28.1-0.1-59.9,0-90.7c0-4.3-1.2-7.3-4.1-10.2c-21.2-21-44.2-44-70.5-70.5c-2.8-2.9-5.7-4.1-9.6-4.1c0,0,0,0,0,0     c-117.9,0.1-213.2,0.1-300.1,0c-2.2-0.1-4.6,0.2-6.1,1.8c-1.5,1.5-1.8,3.6-1.8,6.3c0.1,128.7,0.1,259.5,0.1,386.1v92.1     c0,1.3,0.1,2.6,0.2,3.8c0,0.4,0.1,0.9,0.1,1.3l-1.2,3.3h393.2l-0.6-3.1c0-0.5,0.1-1.1,0.1-1.6c0.1-1.4,0.2-2.8,0.2-4.2     c0-49.8,0-108.6,0-168c0-2.8,0.3-4.5,2-6.2c22.5-22.4,45.4-45.2,67.4-67.3c11.1-11.1,22.3-22.3,33.4-33.4     c0.3-0.3,0.5-0.6,0.8-0.9c0.2-0.2,0.5-0.6,0.6-0.7l2.3,0.4v-4.2L857.8,558z M680.5,399.6V396l28.7,28.7h-3.4c-8.4,0-16.7,0-25,0     c-0.1,0-0.2,0-0.3,0c0-0.1,0-0.2,0-0.4C680.5,416.1,680.5,407.9,680.5,399.6z M727.2,822.5c-0.5,0.5-2.1,0.6-3.2,0.6h0     c-114.8-0.1-227.8-0.1-336,0h0c-1.7,0-2.7-0.2-3-0.5c-0.2-0.2-0.5-0.9-0.5-2.9c0.1-148,0.1-295.5,0-438.4c0-2.1,0.3-2.8,0.6-3.1     c0.5-0.5,2.1-0.6,3.2-0.6h0c89.8,0.1,178.7,0.1,264.3,0c0.7,0,2.7,0,3.2,0.6c0.3,0.3,0.6,1,0.5,3.1c-0.1,10.5-0.1,21.2-0.1,31.5     c0,9.5,0,19.2-0.1,28.9c0,2.2,0.2,4.4,1.6,5.9c1.5,1.5,3.8,1.7,5.8,1.7c11.4-0.1,23-0.1,34.2-0.1c8.9,0,18.1,0,27.1-0.1     c1.8,0,2.4,0.2,2.6,0.4c0.2,0.2,0.5,0.7,0.5,2.5c-0.2,31.1-0.2,63.5,0,99.3c0,2.6-1,4.1-2.8,5.9c-16.6,16.6-33.3,33.3-49.9,49.9     c-24.9,24.9-50.6,50.6-76,75.9c-3,3-4.3,6-4.2,10.1c0.2,19.7,0.2,37.6,0,54.8c0,2.7,0.2,4.8,1.7,6.2c1.6,1.6,4,1.8,5.9,1.7     c19.1-0.3,38.6-0.2,55.3,0h0.1c3.6,0,6.4-1.2,9.1-4c10.5-10.5,21-21.1,31.5-31.6c9.2-9.2,18.5-18.5,27.7-27.7     c0.6-0.6,1.1-1.2,1.5-1.9v1.7c0,9.7,0,19.3,0,29c0,32.2,0,65.5,0.1,98.2C727.7,821.5,727.4,822.2,727.2,822.5z M772,612.1     c-40.1,40-80,79.8-117,117c-1.5,1.5-2.8,2.1-4.6,2c-10.9-0.2-20.5-0.2-29.5,0c-1.5,0-1.7-0.2-1.7-0.2s-0.2-0.3-0.2-1.6     c0.2-3.4,0.1-6.8,0.1-11c0-1.9,0-4.1,0-6.4v-0.3l-0.1-0.3c-3.3-9.9,3.4-17.6,11.9-26c31.3-30.7,62.8-62.4,93.2-93l13.3-13.4     c1.1-1.2,1.9-1.7,2.3-1.7c0.2,0,0.8,0.2,2.1,1.5c10,10.5,20.3,20.6,30,30c1.2,1.2,1.4,1.6,1.4,1.8     C773.2,610.5,773.2,611,772,612.1z M823.5,560.6c-9.7,9.5-19.9,19.8-31.4,31.4c-0.9,0.9-1.2,1-1.3,1.1c0,0-0.3-0.1-1-0.8     c-10-10.2-20.2-20.4-30.1-30.2l-1.9-1.9c-0.4-0.4-0.6-0.6-0.7-0.8c0.1-0.1,0.2-0.2,0.4-0.4c7.5-7.5,15.2-15.1,22.5-22.5     c3.4-3.4,6.8-6.9,10.3-10.3c0.2-0.2,0.3-0.3,0.5-0.5c0.4,0.3,0.7,0.6,1,0.9c3.1,3.1,6.2,6.2,9.3,9.3c7.3,7.3,14.9,14.9,22.4,22.3     c0.8,0.8,0.9,1.1,0.9,1.1C824.4,559.5,824.3,559.8,823.5,560.6z"/>
		</g>
		<g>
			<path class="st0" d="M670.2,494.3c-0.3,3.2-0.2,6.5-0.1,9.8l0,0.9c0,1.2,0,3-1.3,4.2c-1.2,1.3-3,1.4-4.2,1.3     c-3.7-0.1-7.5-0.1-11.2-0.1c-1.6,0-3.2,0-4.7,0h-93.7c-8.5,0-16.9,0-25.3,0c-26.5,0-53.9,0-80.8,0.1h-0.2c-2,0-4.5-0.2-6.1-1.9     c-1.5-1.7-1.5-4.1-1.4-6.1c0.3-3.7,0.2-7.5,0-11.2c0-1.3,0-3.2,1.4-4.5c1-0.9,2.4-1.3,4.2-1.1c0.4,0,0.9,0,1.4,0     c0.3,0,0.6,0,0.9,0l42.4,0c55.8,0,113.5,0,170.3-0.1c2.4,0,5.1,0.2,6.8,2.1C670.5,489.6,670.5,492.2,670.2,494.3z"/>
		</g>
		<g>
			<path class="st0" d="M670.2,554.3c-0.3,3.9-0.2,7.9,0,11.7c0,1.3-0.1,3.2-1.4,4.5c-1,0.9-2.4,1.3-4.2,1c-0.4-0.1-0.9,0-1.4,0     c-0.3,0-0.6,0-0.9,0h-40.5c-56.6,0-115.2,0-172.7,0.1H449c-2.3,0-4.8-0.2-6.3-2c-1.5-1.7-1.4-4.3-1.2-6c0.2-1.5,0-3.3-0.2-5.1     c-0.4-3.5-0.8-7.6,1.9-10c2.6-2.2,6.8-1.9,10.8-1.5c1.4,0.1,2.8,0.2,4,0.2c0,0,0,0,0,0c24.7,0,49.5,0,74.2,0l47.6,0     c27.4,0,55.7,0,83.5-0.1h0.1c2,0,4.1,0.2,5.5,1.8C670.4,550.5,670.4,552.7,670.2,554.3z"/>
		</g>
		<g>
			<path class="st0" d="M617.9,631.3c-1.4,1.5-3.5,1.8-5.5,1.8c-0.4,0-0.7,0-1.1,0c-4.9-0.2-10-0.2-14.9-0.1c-2.1,0-4.3,0-6.4,0     l-30.6,0c-36.2,0-73.7,0-110.5,0.1c-2.2,0-4.7-0.2-6.2-1.9c-1.5-1.7-1.4-4-1.2-5.9c0.2-1.5,0-3.4-0.2-5.2     c-0.4-3.8-0.8-7.7,1.9-10.3c2.7-2.7,7-2.2,11.1-1.7c1.5,0.2,3,0.4,4.3,0.3c17.7-0.1,35.8-0.1,53.2,0l18.6,0c6.8,0,13.5,0,20.2,0     c20.2,0,41,0,61.5-0.1c2.1,0,4.4,0.2,5.9,1.8c1.5,1.6,1.5,3.9,1.3,5.6c-0.4,3.5-0.4,6.7,0,9.5C619.4,627,619.5,629.6,617.9,631.3     z"/>
		</g>
		<g>
			<path class="st0" d="M566.5,754.2c-1.7,1.7-4,2.1-6.5,2.1c-1.6,0-3.2-0.2-4.9-0.4c-1.6-0.2-3.1-0.3-4.5-0.4     c-11.1,0.1-22.4,0.1-33.3,0c-9.4,0-18.7,0-28.1,0c-13,0-26.4-0.1-39.6,0.2c-2.2,0-5.1-0.1-6.8-2c-1.7-1.8-1.6-4.5-1.4-6.6     c0.4-3.4,0.2-7,0-10.1c-0.1-1.5,0-3.4,1.3-4.7c1.3-1.4,3.3-1.4,4.7-1.4c4,0.2,8.2,0.1,12.2,0.1c9.2-0.1,18.3,0,27.5,0     c24.2,0,49.2,0,73.8-0.1c2.2,0,4.7,0.1,6.2,1.8c1.4,1.6,1.3,3.9,1.1,5.4c-0.2,1.6,0,3.5,0.2,5.4     C568.8,747.5,569.3,751.5,566.5,754.2z"/>
		</g>
		<g>
			<path class="st0" d="M566.8,692.3c-1.6,2-4.1,2.6-6.8,2.6c-1.6,0-3.3-0.2-5-0.4c-1.6-0.2-3.1-0.4-4.5-0.4c-15.6,0-31.2,0-46.8,0     c-18.1,0-36.9,0-55.3,0.1c-2,0-4.3-0.1-5.8-1.7c-1.4-1.5-1.4-3.8-1.2-5.3c0.2-1.6,0-3.5-0.1-5.3c-0.3-3.8-0.6-7.7,1.5-10.2     c2.7-3.2,7.5-2.6,11.7-2.1c1.6,0.2,3.1,0.4,4.5,0.4c11-0.1,22.2-0.1,33-0.1c4.3,0,8.6,0,12.9,0c4.8,0,9.5,0,14.2,0     c13.9,0,28.4,0,42.5-0.1c2,0,3.9,0.2,5.3,1.6c1.3,1.4,1.4,3.5,1.2,4.9c-0.1,1.6,0,3.5,0.2,5.3C568.7,685.6,569,689.7,566.8,692.3     z"/>
		</g>
	</g>
</g>
</svg>