<svg xmlns="http://www.w3.org/2000/svg" xmlns:xlink="http://www.w3.org/1999/xlink" version="1.1" id="Capa_1" x="0px" y="0px" style="enable-background:new 0 0 1200 1200;" xml:space="preserve" viewBox="358.73 350.73 493.45 497.05">

<g id="YDoov3.tif">
	<g>
		<path class="st0" d="M730.7,544.4c-9,0-17.7,0-27,0c0-16.7,0-33.4,0-50.6c-2.7-0.1-4.8-0.3-7-0.3c-26.3,0-52.6,0-79,0    c-12.9,0-18.5-5.5-18.5-18.5c-0.1-29.8-0.1-59.6,0.1-89.4c0-5.1-1.1-6.9-6.6-6.9c-62.8,0.2-125.5,0.1-188.3,0.1    c-13.3,0-17.9,4.6-17.9,17.9c0,134.7,0,269.4,0,404.1c0,2.9,0,5.9,0.6,8.8c1.2,5.6,4.8,9,10.5,9.9c2.9,0.5,5.9,0.5,8.8,0.5    c58.2,0,116.3,0.1,174.5-0.1c4.2,0,7.1,1.2,10,4.3c7.4,7.9,15.2,15.2,23.4,23.3c-2.1,0-3.8,0-5.6,0c-68.5,0-136.9,0-205.4,0    c-27.4,0-44.3-17.1-44.3-44.5c0-136.2,0-272.4,0-408.6c0-25.9,17.4-43.4,43.2-43.4c68.5,0,136.9,0.1,205.4,0    c13.9,0,25.3,4.9,34.7,15.2c25.5,28,51.1,56,76.7,84c7.5,8.2,12.1,17.5,12.1,28.8c0,20.6,0,41.2,0,61.8    C731,542.1,730.8,543.3,730.7,544.4z M690.7,462.5c0.2-0.5,0.4-1,0.6-1.5c-19.9-21.8-39.9-43.7-59.8-65.5    c-1.2,21.7-1.2,42.7-1.2,63.7c0,3.8,2.5,3.4,4.9,3.4c11.8,0,23.6,0,35.3,0C677.3,462.5,684,462.5,690.7,462.5z"/>
		<path class="st0" d="M717.7,575.2c-76.4-0.5-137.5,59.3-138.1,135.1c-0.6,75.4,60.1,136.8,135.6,137.2    c74.6,0.5,136.3-60.8,136.7-135.9C852.4,637.6,791.5,575.7,717.7,575.2z M714.9,816.1c-58.1-0.4-104.6-47.8-104.3-106.1    c0.3-56.9,48.1-103.9,105.3-103.6c58.6,0.4,105.1,47.5,104.8,106.2C820.3,769.9,772.6,816.6,714.9,816.1z"/>
		<path class="st0" d="M613.9,577.5c-8.5,8.4-16.4,16.4-24.6,24.2c-1.1,1.1-3.4,1.3-5.1,1.3c-44.1,0.1-88.3,0.1-132.4,0    c-11.4,0-17.7-8-14.2-17.3c2-5.4,6.6-8.2,13.6-8.2c24.8,0,49.7,0,74.5,0c27.6,0,55.2,0,82.8,0    C610.1,577.5,611.9,577.5,613.9,577.5z"/>
		<path class="st0" d="M498.1,528.6c-16.7,0-33.5,0.1-50.2,0c-6.4-0.1-11.1-4.3-12.4-10.5c-1-5.1,1.7-11,6.7-13.3    c2.1-1,4.6-1.4,6.9-1.4c32.6-0.1,65.1-0.1,97.7,0c8.4,0,13.8,5,13.9,12.4c0.1,7.6-5.4,12.8-14,12.9    C530.5,528.6,514.3,528.6,498.1,528.6C498.1,528.6,498.1,528.6,498.1,528.6z"/>
		<path class="st0" d="M558.2,652c-2.7,8.7-5.3,16.9-7.9,25.3c-0.7,0.1-1.6,0.3-2.5,0.3c-32.2,0-64.3,0-96.5,0    c-6,0-10.9-2.1-13.5-7.7c-2.3-5-1.9-10.4,2.4-13.6c3.5-2.6,8.6-4.3,13-4.4c22.6-0.4,45.2-0.2,67.8-0.2c10.5,0,21,0,31.4,0    C554.2,651.7,556,651.9,558.2,652z"/>
		<path class="st0" d="M551.6,751.3c-1,0.1-1.9,0.4-2.8,0.4c-33.1,0-66.1,0.1-99.2-0.1c-10.4,0-16.3-10.3-11.3-19    c2.8-4.8,7.2-6.4,12.6-6.3c20.8,0.1,41.5,0,62.3,0c11.5,0,23.1,0,34.8,0C549.2,734.9,550.4,743,551.6,751.3z"/>
		<path class="st0" d="M781.7,711.1c0.1,9.9-7,16.9-17.6,17.1c-8.5,0.1-16.9,0-25.4,0.1v-0.1c-11.5,0-58.5,0.1-67.2,0    c-3.1,0-6.3,0-9.3-0.8c-8.4-2.1-13.8-10.1-12.7-18.2c1.1-8.4,7.8-14.5,16.6-14.7c9-0.2,62.4-0.3,71.4,0v-0.1    c8.8,0.1,17.7,0,26.5,0C774.1,694.6,781.6,701.7,781.7,711.1z"/>
	</g>
</g>
</svg>