<svg xmlns="http://www.w3.org/2000/svg" xmlns:xlink="http://www.w3.org/1999/xlink" version="1.1" id="Capa_1" x="0px" y="0px" style="enable-background:new 0 0 1200 1200;" xml:space="preserve" viewBox="257.19 215.12 744.45 765.15">
<style type="text/css">
	.st0{fill:#999999;}
</style>
<g id="ez4SB6_00000075125032942596139130000016732750300272030392_">
	<g>
		<path class="st0" d="M828.6,282.4c-169.8,0-335.9,0-503.6,0c0,210.5,0,420.1,0,632.8c48.5,0,96.5,0,144.5,0    c28.6,0,57.2-0.4,85.8,0.2c20.1,0.5,31.6,11.8,32,31.9c0.4,20.2-10.9,32.5-31,32.6c-89.4,0.5-178.8,0.5-268.2,0    c-19-0.1-29-11.8-30.5-30.6c-0.5-7.1-0.4-14.3-0.4-21.4c0-220,0-440,0-660c0-47,5.6-52.6,52.4-52.7c177.9-0.1,355.9-0.1,533.8,0    c44.8,0,51.7,6.8,51.8,50.9c0.1,111.8,0,223.6,0,335.3c0,5.4,0.1,10.7-0.1,16.1c-0.9,20.5-9.3,34.8-31.8,35.2    c-23.5,0.4-34.1-13.8-34.4-35.6c-0.7-43.8-0.2-87.6-0.2-131.5C828.6,418.9,828.6,352,828.6,282.4z"/>
		<path class="st0" d="M771.5,888.1c59-65.4,109.9-121.7,160.6-177.9c3-3.3,5.9-6.7,8.9-10c14.6-16.2,31.1-20.9,49.3-6.4    c15.5,12.3,15.1,33.9-1.1,52c-49.3,55.2-99,110.2-148.6,165.4c-11.3,12.6-22.3,25.5-34,37.9c-16.2,17.2-34.1,19-51.6,2.5    c-35-33.1-69.7-66.6-104.1-100.4c-14.9-14.7-16.6-32.6-2.3-47.7c15.5-16.4,34.4-14.7,49.4,1.4    C722.4,830.9,745.4,858.3,771.5,888.1z"/>
		<path class="st0" d="M582.5,628.7c-42.9,0-85.9,0.3-128.8-0.1c-27.5-0.3-43.8-12.8-44.2-32.5c-0.5-20.6,17.2-34.5,45.3-34.6    c84.1-0.2,168.1-0.2,252.2,0c28.5,0.1,45.8,13.5,45.5,34.3c-0.3,20-16.2,32.4-43.9,32.7C666.6,629.1,624.5,628.7,582.5,628.7z"/>
		<path class="st0" d="M583.9,394.2c42.8,0,85.6-0.2,128.4,0.1c25.6,0.2,40.2,12.5,40.1,32.7c-0.1,20.3-14.4,32.3-40.5,32.3    c-87.4,0.2-174.8,0.2-262.2,0c-25.2-0.1-40.3-12.9-40.2-32.7c0.1-19.9,15-32.2,40.6-32.3C494.7,394,539.3,394.2,583.9,394.2z"/>
		<path class="st0" d="M484.9,726.9c14.2,0,28.4-0.3,42.7,0.1c19.9,0.5,31.8,14.7,29,30.7c-2.2,12.5-16.5,30.6-27.6,32.3    c-29.5,4.5-60.3,2.9-90.4,1c-18.1-1.1-29.2-14.7-28.6-32.6c0.7-18.9,11.5-31.3,32.2-31.5C456.5,726.7,470.7,726.9,484.9,726.9z"/>
	</g>
</g>
</svg>