<svg xmlns="http://www.w3.org/2000/svg" xmlns:xlink="http://www.w3.org/1999/xlink" version="1.1" id="Capa_1" x="0px" y="0px" style="enable-background:new 0 0 1200 1200;" xml:space="preserve" viewBox="308.88 318.57 563.8 564.21">

<g id="uMl71f.tif_00000106141186779208429760000000096090277374422708_">
	<g>
		<g>
			<path class="st0" d="M803.6,828.1c-19,6.4-37.3,6.3-56.6,6.3c-3.5,0-6.9,0-10.4,0h-1.5v1.5c0,1.4,0,2.7-0.1,4     c-0.1,2.8-0.1,5.5,0.1,8.1c0.6,6.8,5,11.2,11.2,11.4c7.2,0.2,15,0.3,23.2,0.3c7.9,0,16-0.1,24.3-0.5c3.9-0.2,9.2-4.3,10.1-7.8     c1.2-4.8,1.3-9.8,1.4-15.1c0-2.1,0.1-4.4,0.2-6.6l0.1-2.2L803.6,828.1z M802.5,851c-0.7,2.9-5.6,6.5-8.7,6.7     c-15.8,0.7-31.6,0.5-47.4,0.2c-5.6-0.1-9.2-4.3-9.7-10c-0.3-3.8-0.1-7.6-0.1-12c22.7-0.2,44.8,1.2,67.5-6.3     C803.6,837.2,804.1,844.4,802.5,851z"/>
			<path class="st0" d="M803.6,828.1c-19,6.4-37.3,6.3-56.6,6.3c-3.5,0-6.9,0-10.4,0h-1.5v1.5c0,1.4,0,2.7-0.1,4     c-0.1,2.8-0.1,5.5,0.1,8.1c0.6,6.8,5,11.2,11.2,11.4c7.2,0.2,15,0.3,23.2,0.3c7.9,0,16-0.1,24.3-0.5c3.9-0.2,9.2-4.3,10.1-7.8     c1.2-4.8,1.3-9.8,1.4-15.1c0-2.1,0.1-4.4,0.2-6.6l0.1-2.2L803.6,828.1z M802.3,836.2c-0.1,5.1-0.2,10-1.3,14.5     c-0.5,2.2-4.8,5.4-7.3,5.5c-16.8,0.7-33.3,0.5-47.3,0.2c-4.6-0.1-7.8-3.4-8.3-8.7c-0.2-2.5-0.2-5-0.1-7.7c0-0.8,0-1.7,0-2.6     c3,0,5.9,0,8.9,0c18.1,0,36.7,0.1,55.5-5.8C802.4,833.2,802.4,834.7,802.3,836.2z M803.6,828.1c-19,6.4-37.3,6.3-56.6,6.3     c-3.5,0-6.9,0-10.4,0h-1.5v1.5c0,1.4,0,2.7-0.1,4c-0.1,2.8-0.1,5.5,0.1,8.1c0.6,6.8,5,11.2,11.2,11.4c7.2,0.2,15,0.3,23.2,0.3     c7.9,0,16-0.1,24.3-0.5c3.9-0.2,9.2-4.3,10.1-7.8c1.2-4.8,1.3-9.8,1.4-15.1c0-2.1,0.1-4.4,0.2-6.6l0.1-2.2L803.6,828.1z      M802.3,836.2c-0.1,5.1-0.2,10-1.3,14.5c-0.5,2.2-4.8,5.4-7.3,5.5c-16.8,0.7-33.3,0.5-47.3,0.2c-4.6-0.1-7.8-3.4-8.3-8.7     c-0.2-2.5-0.2-5-0.1-7.7c0-0.8,0-1.7,0-2.6c3,0,5.9,0,8.9,0c18.1,0,36.7,0.1,55.5-5.8C802.4,833.2,802.4,834.7,802.3,836.2z      M803.6,828.1c-19,6.4-37.3,6.3-56.6,6.3c-3.5,0-6.9,0-10.4,0h-1.5v1.5c0,1.4,0,2.7-0.1,4c-0.1,2.8-0.1,5.5,0.1,8.1     c0.6,6.8,5,11.2,11.2,11.4c7.2,0.2,15,0.3,23.2,0.3c7.9,0,16-0.1,24.3-0.5c3.9-0.2,9.2-4.3,10.1-7.8c1.2-4.8,1.3-9.8,1.4-15.1     c0-2.1,0.1-4.4,0.2-6.6l0.1-2.2L803.6,828.1z M802.3,836.2c-0.1,5.1-0.2,10-1.3,14.5c-0.5,2.2-4.8,5.4-7.3,5.5     c-16.8,0.7-33.3,0.5-47.3,0.2c-4.6-0.1-7.8-3.4-8.3-8.7c-0.2-2.5-0.2-5-0.1-7.7c0-0.8,0-1.7,0-2.6c3,0,5.9,0,8.9,0     c18.1,0,36.7,0.1,55.5-5.8C802.4,833.2,802.4,834.7,802.3,836.2z M803.6,828.1c-19,6.4-37.3,6.3-56.6,6.3c-3.5,0-6.9,0-10.4,0     h-1.5v1.5c0,1.4,0,2.7-0.1,4c-0.1,2.8-0.1,5.5,0.1,8.1c0.6,6.8,5,11.2,11.2,11.4c7.2,0.2,15,0.3,23.2,0.3c7.9,0,16-0.1,24.3-0.5     c3.9-0.2,9.2-4.3,10.1-7.8c1.2-4.8,1.3-9.8,1.4-15.1c0-2.1,0.1-4.4,0.2-6.6l0.1-2.2L803.6,828.1z M802.3,836.2     c-0.1,5.1-0.2,10-1.3,14.5c-0.5,2.2-4.8,5.4-7.3,5.5c-16.8,0.7-33.3,0.5-47.3,0.2c-4.6-0.1-7.8-3.4-8.3-8.7     c-0.2-2.5-0.2-5-0.1-7.7c0-0.8,0-1.7,0-2.6c3,0,5.9,0,8.9,0c18.1,0,36.7,0.1,55.5-5.8C802.4,833.2,802.4,834.7,802.3,836.2z      M803.6,828.1c-19,6.4-37.3,6.3-56.6,6.3c-3.5,0-6.9,0-10.4,0h-1.5v1.5c0,1.4,0,2.7-0.1,4c-0.1,2.8-0.1,5.5,0.1,8.1     c0.6,6.8,5,11.2,11.2,11.4c7.2,0.2,15,0.3,23.2,0.3c7.9,0,16-0.1,24.3-0.5c3.9-0.2,9.2-4.3,10.1-7.8c1.2-4.8,1.3-9.8,1.4-15.1     c0-2.1,0.1-4.4,0.2-6.6l0.1-2.2L803.6,828.1z M802.3,836.2c-0.1,5.1-0.2,10-1.3,14.5c-0.5,2.2-4.8,5.4-7.3,5.5     c-16.8,0.7-33.3,0.5-47.3,0.2c-4.6-0.1-7.8-3.4-8.3-8.7c-0.2-2.5-0.2-5-0.1-7.7c0-0.8,0-1.7,0-2.6c3,0,5.9,0,8.9,0     c18.1,0,36.7,0.1,55.5-5.8C802.4,833.2,802.4,834.7,802.3,836.2z M803.6,828.1c-19,6.4-37.3,6.3-56.6,6.3c-3.5,0-6.9,0-10.4,0     h-1.5v1.5c0,1.4,0,2.7-0.1,4c-0.1,2.8-0.1,5.5,0.1,8.1c0.6,6.8,5,11.2,11.2,11.4c7.2,0.2,15,0.3,23.2,0.3c7.9,0,16-0.1,24.3-0.5     c3.9-0.2,9.2-4.3,10.1-7.8c1.2-4.8,1.3-9.8,1.4-15.1c0-2.1,0.1-4.4,0.2-6.6l0.1-2.2L803.6,828.1z M802.3,836.2     c-0.1,5.1-0.2,10-1.3,14.5c-0.5,2.2-4.8,5.4-7.3,5.5c-16.8,0.7-33.3,0.5-47.3,0.2c-4.6-0.1-7.8-3.4-8.3-8.7     c-0.2-2.5-0.2-5-0.1-7.7c0-0.8,0-1.7,0-2.6c3,0,5.9,0,8.9,0c18.1,0,36.7,0.1,55.5-5.8C802.4,833.2,802.4,834.7,802.3,836.2z      M803.6,828.1c-19,6.4-37.3,6.3-56.6,6.3c-3.5,0-6.9,0-10.4,0h-1.5v1.5c0,1.4,0,2.7-0.1,4c-0.1,2.8-0.1,5.5,0.1,8.1     c0.6,6.8,5,11.2,11.2,11.4c7.2,0.2,15,0.3,23.2,0.3c7.9,0,16-0.1,24.3-0.5c3.9-0.2,9.2-4.3,10.1-7.8c1.2-4.8,1.3-9.8,1.4-15.1     c0-2.1,0.1-4.4,0.2-6.6l0.1-2.2L803.6,828.1z M802.3,836.2c-0.1,5.1-0.2,10-1.3,14.5c-0.5,2.2-4.8,5.4-7.3,5.5     c-16.8,0.7-33.3,0.5-47.3,0.2c-4.6-0.1-7.8-3.4-8.3-8.7c-0.2-2.5-0.2-5-0.1-7.7c0-0.8,0-1.7,0-2.6c3,0,5.9,0,8.9,0     c18.1,0,36.7,0.1,55.5-5.8C802.4,833.2,802.4,834.7,802.3,836.2z M803.6,828.1c-19,6.4-37.3,6.3-56.6,6.3c-3.5,0-6.9,0-10.4,0     h-1.5v1.5c0,1.4,0,2.7-0.1,4c-0.1,2.8-0.1,5.5,0.1,8.1c0.6,6.8,5,11.2,11.2,11.4c7.2,0.2,15,0.3,23.2,0.3c7.9,0,16-0.1,24.3-0.5     c3.9-0.2,9.2-4.3,10.1-7.8c1.2-4.8,1.3-9.8,1.4-15.1c0-2.1,0.1-4.4,0.2-6.6l0.1-2.2L803.6,828.1z M802.3,836.2     c-0.1,5.1-0.2,10-1.3,14.5c-0.5,2.2-4.8,5.4-7.3,5.5c-16.8,0.7-33.3,0.5-47.3,0.2c-4.6-0.1-7.8-3.4-8.3-8.7     c-0.2-2.5-0.2-5-0.1-7.7c0-0.8,0-1.7,0-2.6c3,0,5.9,0,8.9,0c18.1,0,36.7,0.1,55.5-5.8C802.4,833.2,802.4,834.7,802.3,836.2z      M803.6,828.1c-19,6.4-37.3,6.3-56.6,6.3c-3.5,0-6.9,0-10.4,0h-1.5v1.5c0,1.4,0,2.7-0.1,4c-0.1,2.8-0.1,5.5,0.1,8.1     c0.6,6.8,5,11.2,11.2,11.4c7.2,0.2,15,0.3,23.2,0.3c7.9,0,16-0.1,24.3-0.5c3.9-0.2,9.2-4.3,10.1-7.8c1.2-4.8,1.3-9.8,1.4-15.1     c0-2.1,0.1-4.4,0.2-6.6l0.1-2.2L803.6,828.1z M802.3,836.2c-0.1,5.1-0.2,10-1.3,14.5c-0.5,2.2-4.8,5.4-7.3,5.5     c-16.8,0.7-33.3,0.5-47.3,0.2c-4.6-0.1-7.8-3.4-8.3-8.7c-0.2-2.5-0.2-5-0.1-7.7c0-0.8,0-1.7,0-2.6c3,0,5.9,0,8.9,0     c18.1,0,36.7,0.1,55.5-5.8C802.4,833.2,802.4,834.7,802.3,836.2z"/>
			<path class="st0" d="M872.4,473.1c-5.3-19.2-20.5-20.8-33.6-19.7v-0.8c0-1.6,0-3,0-4.4c-0.2-6.4-0.4-13-0.5-19.3     c-0.4-14.8-0.7-30.2-2.1-45.2c-2.1-23.6-11.7-41.4-28.5-52.7c-10.8-7.3-23.5-11-41.2-11.9c-5.6-0.3-11.4-0.3-16.9-0.2     c-1.7,0-3.3,0-5,0l0,0c-22.2,0-44.3,0-66.5,0c-75.2,0-153-0.1-229.5,0.2c-15.6,0-30.4,1.2-43.8,3.4     c-36.2,5.9-57.1,28.4-60.4,64.9c-1.2,13.3-1.2,26.8-1.3,39.9c0,5.8-0.1,11.7-0.2,17.6c0,2.1,0,4.1,0,6.5c0,0.7,0,1.4,0,2.2     c-0.7,0-1.5,0-2.2,0c-2.6,0-5,0-7.4,0c-14.1,0.4-23.9,10.3-24,23.9c-0.2,28-0.2,57.1,0,89.2c0.1,13.9,9.9,23.7,24.3,24.3     c2.2,0.1,4.4,0.1,6.9,0c0.8,0,1.6,0,2.4,0v5.1c0,15.9,0,31.9,0,47.8c0,43,0,87.4-0.1,131.1c0,12.4,1.2,26.8,10.4,39.3     c0.7,1,0.8,3.2,0.8,4.3c0.1,5.8,0.1,11.6,0,17.3v9c0,18.6,8.7,30.5,26.5,36.5c0.3,0.1,0.6,0.3,1,0.5c0.2,0.1,0.4,0.3,0.7,0.4     l0.3,0.2H440l0.2-0.1c9.5-3,19.8-7.6,24.4-18.8c1.9-4.7,2.7-9.9,3.4-14.9c0.2-1.6,0.5-3.3,0.8-4.9c0.3-1.7,0.2-3.4,0.1-5.1     c0-0.3,0-0.6,0-0.9h243.7c0,0.7,0,1.4,0,2.1c0,2.6,0,5,0,7.5c0.6,16.7,9.7,28.7,25.7,33.7c0.6,0.2,1.2,0.5,1.9,0.8     c0.3,0.1,0.6,0.3,1,0.4l0.3,0.1H799l0.2-0.1c7.8-3,14.7-5.9,19.8-12.2c5.4-6.5,8.2-13.9,8.5-21.9c0.2-4.9,0.2-10.1,0-15.4     c-0.2-8.7,0.3-18.2,5.6-27.9c4.7-8.5,5.3-19.8,5.3-27.6c0.3-45.3,0.3-91.4,0.2-136c0-14.8,0-29.6,0-44.5V591     c13.2,0.7,28.3-1.2,33.7-19.6l0.1-0.2v-97.8L872.4,473.1z M342.5,564.9h-7.7v-85.8h7.7V564.9z M443.6,847c-0.4,6-3.7,9.4-9.2,9.5     c-15,0.3-30.4,0.3-45.8,0c-5.4-0.1-8.4-3.2-9-9.1c-0.2-2.4-0.2-4.9-0.2-7.2c0-1,0-2,0-3c0-1.4,0-2.9,0-4.6v-0.9     c18.5,5.8,37.1,5.7,55.2,5.6c3,0,6.1,0,9.1,0c0,0.8,0,1.6,0,2.3C443.7,842.2,443.7,844.7,443.6,847z M805.6,829.6     c-0.1,2.2-0.2,4.5-0.2,6.6c-0.1,5.3-0.2,10.3-1.4,15.1c-0.8,3.5-6.2,7.7-10.1,7.8c-8.2,0.3-16.4,0.5-24.3,0.5     c-8.2,0-16.1-0.1-23.2-0.3c-6.2-0.1-10.5-4.6-11.2-11.4c-0.2-2.6-0.2-5.3-0.1-8.1c0-1.3,0.1-2.6,0.1-4v-1.5h1.5c3.5,0,7,0,10.4,0     c19.3,0,37.6,0.1,56.6-6.3l2.1-0.7L805.6,829.6z M813.5,544.5c0,15.5,0,30.9,0,46.4v184.2c0,1.7,0,3.4-0.1,5.1     c-0.6,16.8-7.3,25-23,28.2c-11.2,2.3-22.8,3.5-34.4,3.5c-117,0.3-232.7,0.2-330.5,0.1c-16.1,0-29.4-0.5-42.4-6.1     c-8.5-3.7-13.1-9.8-14.3-18.6c-0.5-4.1-0.8-7.8-0.8-11.2c0-117.2-0.1-241.8,0-363.9c0-8.9,0.6-17.2,1.8-24.8     c4-25.1,15.2-36.4,40.1-40.1c12.3-1.9,25.6-2.8,39.5-2.8c50.1-0.1,100.8-0.2,150.1-0.2c54.2,0,106.8,0,155.2,0.1     c7.7,0,15.1,0.6,22.1,1.7c16.2,2.6,26.7,12,31.3,28.1s5,32.2,5.1,50C813.6,464.2,813.6,505,813.5,544.5z M846.7,565h-7.5v-86h7.5     V565z"/>
		</g>
		<g>
			<path class="st0" d="M793.8,519.4c0-13,0.1-26.5,0.1-39.7v-0.3c0-3,0-6.1-0.3-9.1c-2-18.8-10.9-30.9-26.5-36     c-6.5-2.1-14.2-3.2-23.6-3.2c-38.4-0.2-77.4-0.2-115.1-0.2c-12.5,0-25,0-37.5,0h-31.3c-38.8,0-77.6,0-116.4,0     c-4.8,0-9.7,0.2-14.8,0.5c-25,1.6-40,17.2-40.2,41.6c-0.4,33.8-0.3,68.1-0.2,101.3c0,13.7,0,27.3,0,41c0,1.3,0,2.3,0.2,3.5     c2.1,18.6,10.8,30.7,26,35.8c6.4,2.2,14,3.3,22.5,3.3c73.9,0,149-0.2,221.6-0.4l48.6-0.1c4.8,0,9.5,0,14.3-0.1     c8.2-0.1,16.7-0.1,25-0.1h0.4c12.4,0,25.2-5.4,34.2-14.5c6.3-6.3,13.7-17.3,13.4-33.9C793.6,579,793.7,548.7,793.8,519.4z      M768.7,481c0,41.9,0,83.9,0,125.8c0,16.3-8.6,24.9-24.8,24.9c-101.7,0.3-203.5,0.6-305.2,0.9c-2.2,0-5.2,0-8-0.3     c-12.6-1.3-16.5-5.4-17.5-18.1c-0.2-2.2-0.2-4.3-0.2-6.4c0-42.3,0-84.6,0-126.9c0-20,4.6-24.6,24.8-24.6c21.9,0,43.8,0,65.7,0     h130.7c36.6,0,73.2,0,109.9,0C764.1,456.3,768.7,461,768.7,481z"/>
		</g>
		<g>
			<path class="st0" d="M737.9,377.9c-0.1-15.6-9.9-25.3-25.4-25.3c-82.2-0.1-158.2-0.1-232.4,0c-15.2,0-25.1,10-25.3,25.5     c0,4.5,0,9,0,13.4v4.1c0,17.4,9.7,27,27.1,27c28,0,56.1,0,84.1,0h30.2c11.1,0,22.2,0,33.3,0c10.7,0,21.6,0,32.5,0     c16.9,0,33.9,0,50.7,0c15.1,0,25-9.8,25.2-25C738,391.7,738,385.4,737.9,377.9z M712.8,388.7c0.2,3,0.4,6.5-0.7,7.5     c-1.8,1.6-6.2,1.4-10,1.2c-1.4-0.1-2.7-0.2-4-0.2l0,0c-56.6,0-114.2,0-169.9,0h-47.4v-19.6h47.9c58.7,0,119.4,0,179.1-0.1     c2.4,0,3.9,0.3,4.6,1c0.6,0.7,0.8,1.9,0.6,3.9C712.5,384.5,712.7,386.7,712.8,388.7z"/>
		</g>
		<g>
			<path class="st0" d="M476.2,704.1c-9.9-9.9-23-15.4-36.8-15.4s-26.9,5.5-36.7,15.4c-9.8,9.9-15.2,22.9-15,36.7     c0.1,13.9,5.6,27,15.6,36.8c9.8,9.6,22.6,14.9,36.1,14.9h0.5c28.4-0.3,51.5-23.5,51.6-51.8C491.5,727,486.1,714,476.2,704.1z      M439.4,714.2L439.4,714.2c14.5,0,26.3,11.7,26.4,26.2c0.1,14.6-11.3,26.3-26,26.6c-6.9,0.2-13.8-2.6-18.8-7.6     c-5.1-5-8-11.9-8-18.8C413.1,726.3,425.2,714.2,439.4,714.2z"/>
		</g>
		<g>
			<path class="st0" d="M778.6,703.8c-9.8-9.8-22.7-15.1-36.4-15.1H742c-28.2,0.1-51.5,23.3-51.8,51.6c-0.2,13.5,5.1,26.5,14.9,36.4     c9.9,10.1,23.1,15.7,36.9,15.8h0.2c13.7,0,26.6-5.4,36.5-15.1c9.9-9.9,15.3-22.9,15.3-36.8C793.9,726.7,788.5,713.7,778.6,703.8z      M768.6,740.5c0,6.9-2.8,13.7-7.9,18.8c-5,4.9-11.7,7.7-18.4,7.7c-0.1,0-0.3,0-0.4,0c-14.7-0.2-26.1-11.9-26-26.5     c0.1-14.5,11.9-26.2,26.3-26.2l0,0C756.6,714.2,768.5,726,768.6,740.5z"/>
		</g>
	</g>
</g>
</svg>