<svg xmlns="http://www.w3.org/2000/svg" xmlns:xlink="http://www.w3.org/1999/xlink" version="1.1" id="Capa_1" x="0px" y="0px" style="enable-background:new 0 0 1200 1200;" xml:space="preserve" viewBox="205.13 352.03 775.15 495.95">

<g id="BDOCM4.tif">
	<g>
		<g>
			<path class="st0" d="M635.8,630.6c1,0.4,1.3,0.5,1.5,0.5c6.3,0,14,2.1,18.3-0.8c3.1-2.1,1.8-10.9,2.6-16.6     c0.2-1.5,0.6-2.9,0.9-4.1c0.8-0.3,1.2-0.7,1.7-0.6c7.2,0.2,16.5-2.2,21.1,1.4c3.7,2.9,1.9,13,2.6,20.5c6.4,0,13,0,20.8,0     c0-6.9,0-14,0-21.5c8.8,0,16.4,0,25.3,0c0,6.7,0.3,13.4-0.2,20.1c-0.1,1.4-3.2,3.5-5,3.6c-5.9,0.5-11.9,0.2-18.9,0.2     c0,5.4,0,9.8,0,14.2c0,1.8,0.6,4-0.2,5.2c-5.2,7.2-12.8,2-19.3,3.1c-1.7,0.3-4-2.8-5.8-4.5c-0.4-0.4-0.1-1.5-0.1-2.2     c-0.6-17.1-2.9-18.7-21.5-14.4c0,4.5-0.4,9.2,0.1,13.9c0.6,6.2-2.2,8.2-7.9,7.5c-0.2,0-0.5,0-0.8,0c-16.8,0.2-16.9,0.2-17.3-16.2     c-0.1-4.8-1.5-6.5-6.5-6.7c-15.8-0.4-16-0.6-16.3,15.5c-0.1,5.6-2,8-7.5,7.3c-0.5-0.1-1,0-1.5,0c-18.2,0.2-19.9-1.8-16.7-20.2     c0.3-1.7,3.4-3.9,5.4-4.1c5.7-0.6,11.5-0.2,18.6-0.2c0-5.9,0.2-11.3-0.1-16.7c-0.2-4.6,1.7-6,6.2-6.1c19-0.6,19-0.8,19.8,18.1     C635.3,628,635.6,629.2,635.8,630.6z"/>
			<path class="st0" d="M698.4,657.5c-1.7,0-3.3-0.3-4.9-0.5c-2.3-0.3-4.4-0.7-6.4-0.3c-1.7,0.3-3.5-1.6-5.2-3.4     c-0.5-0.5-1-1-1.4-1.4c-0.6-0.6-0.6-1.5-0.5-2.3c0-0.2,0-0.5,0-0.7c-0.3-7.8-0.9-12.4-3.3-14.3c-2.5-1.9-7.6-1.3-16.1,0.7     c0,1.1,0,2.2-0.1,3.4c-0.1,3.2-0.2,6.4,0.2,9.6c0.3,3.3-0.2,5.6-1.7,7.1c-1.5,1.5-3.9,2-7.3,1.6c-0.1,0-0.3,0-0.4,0     c-17.6,0.2-18.2-0.3-18.5-17.2c-0.1-4.4-1.2-5.5-5.5-5.6l-0.5,0c-7.2-0.2-11.1-0.3-12.8,1.4c-1.7,1.6-1.8,5.4-1.9,13.2     c0,3.4-0.8,5.6-2.3,7c-1.4,1.3-3.5,1.7-6.4,1.3c-0.3,0-0.6,0-0.9,0l-0.4,0c-9.5,0.1-14.5-0.4-17.1-3.5c-2.6-3.1-2.3-8.2-0.6-17.9     c0.4-2.2,3.9-4.7,6.3-4.9c4.1-0.4,8.1-0.4,12.8-0.3c1.6,0,3.2,0,4.9,0.1c0-1.4,0-2.9,0-4.3c0-3.9,0.1-7.6-0.1-11.3     c-0.1-2.4,0.3-4.1,1.4-5.3c1.1-1.2,2.9-1.8,5.8-1.9l0.4,0c19.3-0.6,19.6-0.3,20.5,19.1c0,0.8,0.2,1.5,0.3,2.4     c0,0.3,0.1,0.5,0.1,0.8c0.1,0,0.2,0.1,0.3,0.1c0.2,0.1,0.3,0.1,0.3,0.1c0.1,0,0.1,0,0.2,0c1.8,0,3.8,0.2,5.7,0.4     c4.4,0.4,9,0.9,11.8-1c1.7-1.1,1.8-5.7,1.8-9.7c0-2.1,0.1-4.3,0.3-6.2c0.1-1.1,0.4-2.1,0.6-3c0.1-0.4,0.2-0.8,0.3-1.2l0.1-0.5     l0.5-0.2c0.2-0.1,0.4-0.2,0.6-0.3c0.4-0.2,0.8-0.4,1.5-0.4c2.2,0.1,4.5-0.1,6.7-0.3c5.6-0.4,11.4-0.9,15,1.9     c3,2.3,2.9,7.9,2.8,13.8c0,2.2,0,4.4,0.1,6.5h18.8v-21.5h27.4v1c0,1.8,0,3.5,0,5.3c0.1,4.9,0.1,9.9-0.3,14.8     c-0.2,2.1-3.9,4.4-6,4.6c-4.3,0.3-8.6,0.3-13.2,0.2c-1.5,0-3.1,0-4.7,0v13.2c0,0.5,0,1,0.1,1.6c0.1,1.5,0.3,3.1-0.5,4.2     C704.5,656.6,701.5,657.5,698.4,657.5z M688.8,654.4c1.7,0,3.3,0.3,5,0.5c4.5,0.7,8.5,1.3,11.6-3c0.4-0.5,0.2-1.7,0.1-2.8     c-0.1-0.6-0.1-1.2-0.1-1.8v-15.3h1c2,0,3.9,0,5.8,0c4.5,0.1,8.8,0.1,13-0.2c1.6-0.1,4-2,4.1-2.7c0.4-4.8,0.3-9.8,0.3-14.6     c0-1.4,0-2.9,0-4.3h-23.2v21.5h-22.8l-0.1-0.9c-0.2-2.4-0.2-5.1-0.2-7.6c0.1-5.2,0.1-10.5-2-12.2c-2.9-2.3-8.3-1.9-13.5-1.5     c-2.3,0.2-4.7,0.4-6.9,0.3c-0.1,0-0.3,0.1-0.5,0.2c-0.1,0-0.2,0.1-0.3,0.1c-0.1,0.2-0.1,0.5-0.2,0.7c-0.2,0.9-0.5,1.9-0.6,2.8     c-0.2,1.8-0.3,3.9-0.3,5.9c-0.1,5-0.1,9.7-2.7,11.4c-3.4,2.2-8.3,1.8-13.1,1.3c-1.9-0.2-3.9-0.4-5.7-0.4c0,0,0,0,0,0     c-0.3,0-0.6-0.1-1-0.2c-0.2-0.1-0.5-0.2-0.9-0.3l-0.6-0.2l-0.1-0.6c-0.1-0.5-0.1-0.9-0.2-1.4c-0.1-0.9-0.3-1.7-0.3-2.6     c-0.8-17.7-0.8-17.8-18.4-17.2l-0.4,0c-2.3,0.1-3.6,0.5-4.3,1.3c-0.7,0.7-0.9,1.9-0.9,3.8c0.2,3.8,0.1,7.5,0.1,11.4     c0,1.7,0,3.5,0,5.3v1h-1c-2.1,0-4.1,0-6-0.1c-4.6-0.1-8.6-0.1-12.5,0.2c-1.7,0.2-4.3,2.2-4.5,3.2c-1.5,8.9-1.9,13.8,0.1,16.2     c2,2.4,6.8,2.9,15.5,2.7l0.4,0c0.4,0,0.8,0,1.2,0c2.3,0.3,3.8,0,4.8-0.8c1.1-0.9,1.6-2.7,1.6-5.5c0.1-8,0.2-12.4,2.5-14.6     c2.3-2.2,6.3-2.1,14.2-1.9l0.5,0c5.4,0.1,7.4,2.1,7.5,7.7c0.3,15.4,0.3,15.4,16.2,15.2c0.4,0,0.6,0,0.9,0c2.8,0.3,4.5,0,5.6-1     c1-1,1.4-2.8,1.1-5.4c-0.3-3.3-0.2-6.6-0.2-9.9c0-1.4,0.1-2.8,0.1-4.1v-0.8l0.8-0.2c10-2.3,15.3-3,18.6-0.5     c3.1,2.4,3.8,7.2,4.1,15.8c0,0.3,0,0.6,0,0.9c0,0.2-0.1,0.6,0,0.8c0.3,0.2,0.9,0.8,1.4,1.3c1,1,2.6,2.8,3.4,2.8c0,0,0,0,0.1,0     C687.4,654.5,688.1,654.4,688.8,654.4z"/>
		</g>
		<g>
			<path class="st0" d="M830.6,631.4c6.2,0,12.2,0.1,18.2,0c3.7-0.1,5.6,1,5.5,5.1c-0.5,23.4,3.7,18.7-18.5,19.5     c-5.8,0.2-7.8-2.2-7.2-7.5c0.1-1.2,0-2.5,0-3.8c0-11.5,0-11.6-11.3-11.5c-13.2,0.1-11.3-1-11.5,11.9c-0.1,10.8,0,10.8-10.7,10.8     c-15.1,0-15.2,0-15.3-15.1c0-2,0-4,0-7.4c-6.3,0-12.2-0.3-18,0.3c-1.2,0.1-2.9,3.6-3.1,5.6c-1.3,17.1-1.2,16.8-18.5,16.8     c-6.2,0-7.5-2.5-7.4-8.1c0.1-16.5-0.1-16.5,16-16.6c2.5,0,4.9-0.2,8.3-0.4c0-4.6,0-8.8,0-13c0-2-0.7-4.6,0.3-5.9     c5.4-7.1,13.3-1.9,19.9-3.3c3.5-0.7,5.8,0.8,5.7,4.9c-0.1,5.5,0,11,0,17.1c7.1,0,13.5,0,21.2,0c0-5.4,0.1-10.8,0-16.2     c-0.1-4,1.3-5.7,5.6-5.9c19.5-1.1,19.5-1.2,20.3,18.3C830.1,628.2,830.4,629.4,830.6,631.4z"/>
			<path class="st0" d="M742,657.1c-0.3,0-0.7,0-1,0h-0.8c-3.2,0-5.2-0.6-6.6-2c-1.7-1.7-1.9-4.5-1.9-7.1l0-0.6     c0.1-16.4,0.6-16.9,17-17c1.7,0,3.3-0.1,5.3-0.2l2.1-0.1v-2.9c0-3.1,0-6.1,0-9.1c0-0.6-0.1-1.2-0.1-1.8c-0.2-1.7-0.4-3.5,0.6-4.7     c3.9-5.1,9.1-4.4,13.6-3.9c2.4,0.3,4.7,0.6,6.9,0.1c2.1-0.5,3.9-0.1,5.1,0.9c1.3,1.1,1.9,2.7,1.9,5c-0.1,3.8-0.1,7.6,0,11.6     l0,4.4h19.1c0-1.3,0-2.6,0-3.8c0-3.7,0-7.5,0-11.3c-0.1-4.7,1.8-6.7,6.6-7l0.4,0c9.8-0.6,14.7-0.8,17.5,1.7     c2.8,2.6,3.1,7.6,3.5,17.6c0,0.8,0.1,1.5,0.3,2.5c0,0.3,0.1,0.7,0.1,1l4.6,0c4.4,0,8.5,0,12.7-0.1c1.5,0,3.7,0.1,5.1,1.5     c1,1,1.5,2.6,1.4,4.7c-0.1,3.8,0,6.8,0,9.3c0.1,5.6,0.1,8.1-1.4,9.7c-1.5,1.5-4,1.5-9,1.4c-2.4,0-5.4,0-9.1,0.1     c-3.1,0.1-5.4-0.5-6.7-2c-1.3-1.4-1.8-3.6-1.5-6.7c0.1-0.8,0-1.6,0-2.4c0-0.4,0-0.8,0-1.3c0-5.3,0-8.3-1.2-9.4     c-1.1-1.1-4.1-1.1-9.1-1.1h-2.7c-4,0-6.4,0-7.1,0.7c-0.7,0.7-0.7,2.7-0.6,5.9c0,1.2,0,2.6,0,4.3c-0.1,11.4-0.5,11.8-11.7,11.8     c-0.3,0-0.6,0-0.9,0c-14.8,0-15.3-0.7-15.4-16.2c0-1.3,0-2.5,0-4.1l0-2.3c-1.3,0-2.6,0-3.9,0c-4.5,0-8.8-0.1-13,0.3     c-0.6,0.2-2,2.9-2.1,4.7C758.5,656.2,758,657.1,742,657.1z M765.5,609.3c-2.7,0-5.2,0.7-7.3,3.4c-0.4,0.6-0.3,2-0.2,3.3     c0.1,0.7,0.1,1.4,0.1,2c0,3,0,5.9,0,9v4.9l-4,0.2c-2,0.1-3.7,0.2-5.3,0.2c-14.9,0.1-14.9,0.1-15,14.9l0,0.6     c0,3.1,0.3,4.7,1.3,5.7c0.9,0.9,2.5,1.3,5.1,1.4h0.8c15.6,0,15.5,0,16.7-15.6c0.2-2.4,1.9-6.6,4-6.8c4.3-0.5,8.6-0.4,13.2-0.3     c1.6,0,3.2,0,4.9,0h1l0,4.3c0,1.6,0,2.9,0,4.1c0.1,13.6,0.1,14.1,12.7,14.1c0.5,0,1,0,1.6,0c9.5,0,9.5,0,9.6-9.6     c0-1.8,0-3.2,0-4.4c0-4.1-0.1-6.1,1.2-7.4c1.3-1.4,3.6-1.4,8.6-1.4h2.7c5.9,0,8.8,0,10.6,1.7c1.7,1.7,1.8,4.8,1.8,10.9     c0,0.4,0,0.8,0,1.2c0,0.9,0,1.8,0,2.7c-0.2,2.4,0.1,4.1,1,5.1c0.9,1,2.6,1.4,5.2,1.3c3.8-0.1,6.8-0.1,9.2-0.1     c4.3,0,6.6,0.1,7.5-0.8c0.9-0.9,0.9-3.5,0.8-8.2c0-2.5-0.1-5.5,0-9.3c0-1.5-0.2-2.6-0.8-3.2c-0.6-0.6-1.9-0.9-3.6-0.9     c-4.2,0.1-8.4,0.1-12.7,0.1l-6.4,0l-0.1-0.9c-0.1-0.7-0.2-1.3-0.3-1.9c-0.2-1-0.3-1.8-0.3-2.6c-0.4-9.4-0.6-14.2-2.8-16.2     c-2.2-2-6.8-1.7-16-1.2l-0.4,0c-3.6,0.2-4.7,1.3-4.6,4.9c0.1,3.8,0.1,7.6,0,11.4c0,1.6,0,3.3,0,4.9v1h-23.2l0-6.5     c0-4,0-7.8,0-11.7c0-1.1-0.2-2.6-1.1-3.4c-0.9-0.8-2.3-0.7-3.4-0.5c-2.5,0.5-5.1,0.2-7.6-0.1     C768.4,609.5,766.9,609.3,765.5,609.3z"/>
		</g>
		<g>
			<path class="st0" d="M292.6,631.1c7.4,0,13.6,0,21.2,0c0-5.7,0.1-11.1,0-16.5c-0.1-4,1.3-6.3,5.7-5.8c1,0.1,2,0,3,0     c18.8-0.1,18.9-0.1,16.9,19.1c-0.2,1.9-3.3,4.8-5.2,5.1c-5.9,0.7-11.9,0.2-18.8,0.2c0,6.3-0.2,11.5,0.1,16.7     c0.2,4.6-1.8,6.5-6.3,6.1c-0.5,0-1,0-1.5,0c-17.4,0.4-17.6,0.4-18.1-16.8c-0.1-4.7-1.8-6.4-6.2-6c-0.2,0-0.5,0-0.8,0     c-17.1,0.1-14.2-1.4-14.1,13.8c0,6.7-1.8,9.4-8.9,9.1c-20.3-0.8-16.5,2.7-17.2-17.2c-0.2-6.2,2.2-7.9,7.9-7.5     c5,0.4,10,0.1,16.5,0.1c0-3.7,0-7.1,0-10.5c0.2-14.4-1.4-12.1,14.3-12.2c12.8-0.1,11.6-1.5,11.7,12.6     C292.6,624.3,292.6,627.3,292.6,631.1z"/>
			<path class="st0" d="M260.4,657.1c-0.3,0-0.7,0-1,0c-3-0.1-5.5-0.1-7.5-0.1c-10.1-0.1-10.6-0.6-10.6-10.3c0-2.1,0-4.6-0.1-7.8     c-0.1-3.4,0.5-5.6,1.9-6.9c1.4-1.4,3.6-1.9,7.1-1.6c3.3,0.3,6.7,0.2,10.6,0.1c1.5,0,3.1,0,4.8-0.1l0-2.4c0-2.4,0-4.7,0-7.1     c0-1.3,0-2.5,0-3.6c0-4.7,0-7,1.4-8.4c1.4-1.4,3.7-1.3,8.3-1.2c1.6,0,3.5,0.1,5.6,0c1.2,0,2.3,0,3.3,0c4.4-0.1,6.6-0.1,8,1.2     c1.4,1.4,1.4,3.8,1.4,9.1c0,1,0,2.1,0,3.3c0,2.2,0,4.4,0,6.9v1.8h19.1l0-4.2c0-3.8,0-7.6,0-11.3c-0.1-2.7,0.5-4.5,1.8-5.6     c1.2-1.1,2.8-1.5,5.1-1.2c0.6,0.1,1.3,0,1.9,0l0.9,0c9.6-0.1,14.5-0.1,17,2.6c2.5,2.8,2,7.7,0.9,17.6c-0.3,2.4-3.6,5.7-6.1,6     c-4.2,0.5-8.6,0.4-13.1,0.3c-1.5,0-3.1-0.1-4.7-0.1c0,1.6,0,3.1,0,4.6c0,3.8-0.1,7.5,0.1,11c0.1,2.6-0.4,4.5-1.7,5.7     c-1.2,1.2-3.1,1.7-5.7,1.5c-0.3,0-0.6,0-1,0l-0.5,0c-18,0.4-18.6-0.1-19.2-17.8c-0.1-2.2-0.5-3.6-1.3-4.3c-0.7-0.6-2-0.9-3.8-0.7     c-0.2,0-0.4,0-0.7,0c-1.7,0-3.1,0-4.4,0c-5-0.1-7.7,0-8.5,0.9c-0.7,0.8-0.6,2.8-0.5,6.1c0.1,1.6,0.1,3.5,0.2,5.7     c0,4.1-0.6,6.5-2.3,8.1C265.7,656.4,263.6,657.1,260.4,657.1z M248.6,632.3c-1.9,0-3.2,0.4-4,1.1c-1,0.9-1.4,2.6-1.3,5.4     c0.1,3.2,0.1,5.8,0.1,7.8c0,8.1,0,8.1,8.5,8.2c2,0,4.5,0,7.6,0.1c3.1,0.2,5.1-0.3,6.2-1.4c1.2-1.1,1.7-3.2,1.6-6.6     c0-2.2-0.1-4.1-0.2-5.6c-0.2-4.1-0.3-6.3,1.1-7.7c1.5-1.5,4.2-1.6,10-1.5c1.2,0,2.6,0,4.2,0l0.3,0c0.1,0,0.2,0,0.3,0     c2.4-0.2,4.2,0.1,5.4,1.2c1.3,1.1,1.9,3,2,5.8c0.5,16.1,0.5,16.1,17.1,15.8l0.4,0c0.4,0,0.8,0,1.2,0c1.9,0.2,3.3-0.1,4.1-0.9     c0.8-0.8,1.2-2.1,1.1-4.1c-0.2-3.6-0.1-7.3-0.1-11.1c0-1.8,0-3.6,0-5.6v-1h-22.7v-3.9c0-2.5,0-4.7,0-6.9c0-1.2,0-2.3,0-3.3     c0-4.4,0-6.8-0.8-7.6c-0.8-0.8-2.9-0.7-6.5-0.6c-1.2,0-2.8,0-4.3,0c-1.8,0-3.4,0-4.7,0c-3.7-0.1-6-0.1-6.8,0.6     c-0.8,0.8-0.8,3.1-0.8,7c0,1.1,0,2.3,0,3.6c0,2.3,0,4.6,0,7l0,4.5h-1c-2.1,0-4,0-5.8,0.1c-3.9,0.1-7.3,0.1-10.7-0.1     C249.5,632.3,249.1,632.3,248.6,632.3z M314.8,632.1h0.5c2,0,3.9,0,5.8,0.1c4.5,0.1,8.8,0.2,12.9-0.3c1.5-0.2,4.2-2.7,4.3-4.1     c0.9-9,1.4-13.9-0.4-16c-1.8-2-6.7-2-15.4-2l-0.9,0c-0.7,0-1.5,0-2.2,0c-1.6-0.1-2.7,0.1-3.4,0.7c-0.8,0.7-1.1,2-1.1,4.1     c0.1,3.8,0.1,7.5,0,11.4L314.8,632.1z"/>
		</g>
		<g>
			<path class="st0" d="M439.1,631.5c-5.9,0.6-11.8,1.5-17.8,1.5c-5,0-7.1,1.5-7.3,6.8c-0.5,16.3-0.7,16-17.3,16.2     c-6,0.1-8.9-1.5-8.2-8c0.5-4.4,0.1-9,0.1-14.2c-7.3,0-14.1,0-21.8,0c0,5.7-0.1,11.2,0,16.6c0.1,3.9-1.4,5.6-5.2,5.4     c-0.2,0-0.5,0-0.8,0c-20.2,1.1-21.2-0.2-18.5-24.1c7.4,0,15.1,0,23.5,0c0-7.9,0-14.9,0-22.4c8.6,0,16.5,0,25.2,0     c0,7.2,0,14.1,0,21.5c7.5,0,14.1,0,21.8,0c0-5.6,0.2-11-0.1-16.4c-0.2-4.2,1.4-5.8,5.7-5.7c24.7,0.6,19.5-3.7,20.2,18.5     c0,1.5,0.1,3,0.2,4.5L439.1,631.5z"/>
			<path class="st0" d="M353.4,657.2c-5.1,0-8.6-0.6-10.7-2.8c-3.2-3.3-2.8-9.5-1.3-22.7l0.1-0.9h23.3v-22.4h27.3v21.5h19.7     c0-1.3,0-2.6,0-4c0-3.9,0.1-7.6-0.1-11.4c-0.1-2.5,0.4-4.1,1.5-5.2c1-1.1,2.6-1.6,4.9-1.6c0.1,0,0.3,0,0.4,0c4.1,0.1,7.3,0,9.9,0     c5.8,0,8.5-0.1,10,1.5c1.5,1.5,1.4,3.9,1.3,8.6c0,2.4-0.1,5.5,0,9.4l0.1,3.2l1.8-0.2l-3.8,4.1l0-1.6c-1.3,0.1-2.7,0.3-4,0.4     c-4.1,0.5-8.3,1-12.5,1c-4.8,0-6.1,1.3-6.3,5.8c-0.5,16.5-1,17-17.5,17.1l-0.8,0c-4,0-6.3-0.6-7.8-2.2c-1.3-1.5-1.8-3.7-1.5-6.9     c0.3-3,0.2-6.1,0.2-9.3c0-1.2-0.1-2.5-0.1-3.7h-19.8c0,1.4,0,2.8,0,4.1c0,3.9-0.1,7.7,0.1,11.4c0.1,2.4-0.4,4-1.5,5.1     c-1.1,1-2.7,1.4-4.8,1.3c-0.2,0-0.4,0-0.5,0C358.2,657.1,355.7,657.2,353.4,657.2z M343.4,632.8c-1.2,10.7-1.7,17.4,0.8,20.2     c2.4,2.5,8.1,2.4,16.7,1.9c0.4,0,0.6-0.1,0.9,0c1.6,0.1,2.6-0.1,3.2-0.8c0.7-0.6,1-1.8,0.9-3.5c-0.1-3.8-0.1-7.6-0.1-11.5     c0-1.7,0-3.4,0-5.1v-1h23.9v1c0,1.6,0,3.2,0.1,4.7c0.1,3.3,0.2,6.5-0.2,9.6c-0.3,2.6,0,4.3,0.9,5.3c1,1.1,3,1.6,6.2,1.5l0.7,0     c15-0.1,15-0.1,15.5-15.1c0.2-5.7,2.4-7.8,8.3-7.8c4.1,0,8.3-0.5,12.3-1c1.4-0.2,2.8-0.3,4.2-0.5l-0.1-3.3c-0.1-3.9,0-7,0-9.5     c0.1-3.9,0.1-6.3-0.7-7.1c-0.9-0.9-3.6-0.9-8.5-0.9c-2.6,0-5.8,0.1-9.9,0c-1.9,0-3.1,0.3-3.7,0.9c-0.7,0.7-1,1.9-0.9,3.7     c0.2,3.8,0.1,7.7,0.1,11.5c0,1.6,0,3.3,0,5v1h-23.9v-21.5h-23.2v22.4H343.4z"/>
		</g>
		<g>
			<path class="st0" d="M438.9,631.7c7.7,0,15.4,0,24.2,0c0-5.8,0-10.5,0-15.2c0-1.5-0.5-3.5,0.3-4.4c5.9-7,13.8-1.9,20.7-3.2     c4.2-0.8,4.9,2.2,4.8,5.7c-0.1,5.2,0,10.5,0,16.9c4.7,0,8.9,0,13,0c2.3,0,5.3-0.8,6.6,0.3c6.6,5.4,1.8,12.9,2.7,19.5     c0.2,1.3-3.1,3.2-5,4.6c-0.5,0.4-1.5,0.1-2.2,0.1c-17.2,0.4-17.3,0.4-18.2-16.8c-0.2-3.9-1.2-6.2-5.6-6c-4.7,0.2-9.5,0-15.7,0     c0,5.9-0.1,11.3,0,16.7c0.1,4.1-1.4,6.2-5.6,6c-0.2,0-0.5,0-0.8,0c-23-0.8-19.7,5.4-19.3-24.4     C439.1,631.5,438.9,631.7,438.9,631.7z"/>
			<path class="st0" d="M505.6,657c-0.3,0-0.6,0-0.8-0.1c-0.2,0-0.4-0.1-0.6,0c-17.7,0.4-18.3-0.1-19.3-17.8c-0.2-4-1.1-5.2-4.5-5     c-3.2,0.1-6.5,0.1-10.2,0.1c-1.4,0-2.9,0-4.5,0c0,1.5,0,2.9,0,4.3c0,3.9-0.1,7.6,0.1,11.3c0.1,2.6-0.5,4.4-1.7,5.6     c-1.2,1.1-2.9,1.6-5.1,1.4c-0.1,0-0.2,0-0.3,0c-0.2,0-0.3,0-0.4,0c-4-0.1-7.2,0-9.7,0c-4.9,0.1-7.6,0.2-9.3-1.5     c-1.9-1.9-1.8-5.4-1.5-13.9c0.1-2.5,0.2-5.4,0.2-8.7h-1.5l1.6-1.7c0.3-0.3,0.6-0.8,1.4-0.5l0.4,0.1h22.3v-3.9c0-3.7,0-7,0-10.3     c0-0.4,0-0.8-0.1-1.3c-0.1-1.4-0.2-2.8,0.6-3.8c4.2-5,9.5-4.4,14.2-3.8c2.5,0.3,4.9,0.6,7.1,0.2c1.8-0.4,3.2-0.1,4.3,0.8     c1.6,1.4,1.8,3.9,1.8,5.9c-0.1,3.7-0.1,7.3,0,11.4l0,4.5l3.6,0c2.9,0,5.6,0,8.4,0c0,0,0,0,0.1,0c0.6,0,1.3-0.1,2-0.1     c1.9-0.2,3.9-0.4,5.2,0.7c4.8,4,4.1,9.1,3.4,13.6c-0.3,2.3-0.6,4.5-0.3,6.5c0.2,1.6-1.7,2.9-3.9,4.5c-0.5,0.4-1,0.7-1.5,1     C506.6,656.9,506.1,657,505.6,657z M504.2,654.8c0.3,0,0.6,0,0.8,0.1c0.3,0,0.7,0.1,0.8,0c0.4-0.3,0.9-0.7,1.5-1.1     c1-0.7,2.9-2,3-2.6c-0.3-2.3,0-4.7,0.3-7c0.7-4.6,1.2-8.5-2.7-11.7c-0.6-0.5-2.3-0.3-3.7-0.2c-0.8,0.1-1.7,0.1-2.3,0.1     c-2.7,0-5.5,0-8.4,0l-5.7,0l0-6.6c0-4.1,0-7.7,0-11.4c0-2.3-0.3-3.7-1-4.3c-0.5-0.5-1.4-0.6-2.6-0.3c-2.6,0.5-5.2,0.2-7.8-0.2     c-4.6-0.6-8.9-1.1-12.4,3.1c-0.3,0.3-0.2,1.5-0.1,2.3c0,0.5,0.1,1,0.1,1.4c0,3.3,0,6.6,0,10.2v5.4h0.5c2,0,3.8,0,5.5,0     c3.7,0,6.9,0.1,10.1-0.1c0.2,0,0.3,0,0.5,0c5.1,0,6,3.3,6.1,7C487.8,655.2,487.9,655.2,504.2,654.8     C504.2,654.8,504.2,654.8,504.2,654.8z M440.1,632.7c-0.1,3.4-0.2,6.3-0.2,8.8c-0.2,7.4-0.4,11.1,0.9,12.4c1,1,3.5,1,7.8,0.9     c2.6-0.1,5.8-0.1,9.8,0c0.4,0,0.6,0,0.8,0c1.7,0.1,2.8-0.2,3.5-0.8c0.8-0.7,1.1-2.1,1-4c-0.1-3.8-0.1-7.5-0.1-11.4     c0-1.7,0-3.5,0-5.3v-0.4H440.1z"/>
		</g>
		<g>
			<path class="st0" d="M943.9,604.7c-42.1-11.7-83.8-24.6-125.8-36.7c-5.7-1.6-9.5-4.6-13-9.3c-32.6-44.7-65.4-89.2-97.9-133.9     c-3.8-5.2-7.6-7.4-14.2-7.3c-19.6,0.5-39.1,0.2-58.9,0.2c-5.1-19.5-10.4-38.4-14.9-57.4c-1.4-5.7-4-6.9-9.3-6.9     c-44.3,0.2-88.5,0.2-132.8,0c-5.9,0-8.2,1.9-9.7,7.4c-4.9,18.9-10.3,37.7-15.6,56.9c-24.1,0-47.7,0.2-71.3-0.1     c-5.6-0.1-8.2,1.5-10.2,7c-15.7,44-31.9,87.7-47.6,131.7c-2.2,6.1-5.1,7.8-11.3,7.7c-17.8-0.4-35.7-0.3-53.6-0.1     c-23.5,0.4-43.2,15.7-49.7,38c-0.6,1.9-1.3,3.7-1.9,5.6c0,52.8,0,105.7,0,158.5c20.3-0.2,40.7-0.3,61-0.5c3.9-0.1,5,1.6,5.4,5.3     c4.5,38.1,30.7,66.6,67.8,74.2c47.5,9.8,94.5-24.5,99.8-72.8c0.5-4.3,1.1-6.8,6.4-6.8c86.5,0.1,173,0.1,259.5,0.1     c1.2,0,2.4,0.3,3.5,0.4c13.7,55.7,43.5,82.4,89.2,80.4c43-1.9,73.2-31.7,80.9-79.8c0.4-0.3,0.8-0.8,1.2-0.8     c32.7,0,65.3,0.1,98,0.2c0-43.8,0-87.6,0-131.3C973.6,617.4,960.8,609.4,943.9,604.7z M634.5,442c16.6,0,33.2-0.2,49.8,0.2     c2.8,0.1,6.6,1.5,8.2,3.7c28.5,38,56.7,76.3,85,114.5c0.4,0.6,0.7,1.3,1.5,2.9c-72.6,0-144.4,0-217.2,0c0-3.1,0-5.8,0-8.4     c0-28.4-0.1-56.9,0.1-85.3c0-7,1.1-14,1-21c-0.1-5.8,2.9-6.5,7.6-6.4C591.8,442.1,613.1,442,634.5,442z M486.6,381.2     c0.5-1.8,3.7-4.1,5.6-4.1c34.2-0.3,68.3-0.2,102.5,0c1.8,0,4.7,2,5.2,3.6c3.2,11.5,5.9,23.2,9,35.5c-44.1,0-87.3,0-131.5,0     C480.5,403.9,483.3,392.5,486.6,381.2z M409.1,469.1c0-6.5,1-13,0.8-19.5c-0.2-6.1,2.3-7.7,8.1-7.7c32.7,0.2,65.4,0.1,98.1,0.1     c6.7,0,15.7-2,19.6,1.4c3.6,3.3,2.3,12.5,2.3,19.2c0.2,33.2,0.1,66.4,0.1,100.5c-43.1,0-85.5,0-129,0c0-2.7,0-5.4,0-8     C409.1,526.4,409,497.8,409.1,469.1z M382.6,460c0.7,0.2,1.4,0.3,2.1,0.5c0,34.1,0,68.1,0,102.6c-12.9,0-25.8,0-39.7,0     C357.7,528.4,370.2,494.2,382.6,460z M357.4,828c-34.2,0-61.9-27.7-61.9-61.9s27.7-61.9,61.9-61.9s61.9,27.7,61.9,61.9     S391.6,828,357.4,828z M538.3,596.6c-0.5,22.6-0.2,45.3-0.2,67.9c-0.1,0-0.1,0-0.2,0c0,23.1-0.2,46.3,0.1,69.4     c0.1,6.1-1.9,7.7-7.7,7.6c-27.9-0.3-55.8-0.3-83.7,0c-5.3,0.1-7.3-1.9-8.9-6.7c-12-34.7-44.8-58.1-80.9-58     c-35.8,0-68.6,23.1-80.6,57.4c-1.9,5.4-4.2,7.6-10.1,7.3c-9.5-0.5-19.1-0.3-28.7-0.1c-4.7,0.1-6.8-1.3-6.8-6.4     c-0.1-39.2-0.8-78.4-0.6-117.7c0.1-19.3,11.9-29.9,32.1-30c44.8-0.2,89.5-0.1,134.3-0.1c44.3,0,88.5,0.2,132.8-0.2     C536.4,587.2,538.4,589.3,538.3,596.6z M795.1,828c-34.2,0-61.9-27.7-61.9-61.9s27.7-61.9,61.9-61.9c34.2,0,61.9,27.7,61.9,61.9     S829.3,828,795.1,828z M955.1,735.8c0,4.3-1.9,5.6-6,5.6c-21.9-0.1-43.8,0.1-65.6-0.3c-2.3,0-5.7-2.8-6.6-5.1     c-13-35.1-38.3-54.9-75.1-58.8c-37.1-3.9-74.9,20.1-87,56.3c-2.1,6.2-4.9,7.9-11.1,7.9c-44-0.3-88-0.3-132,0     c-6.8,0-9.1-1.7-9.1-8.8c0-45.3-0.2-90.5-0.8-135.8c-0.1-7.8,2.2-9.8,9.8-9.7c37.5,0.4,75,0.2,112.4,0.2     c36.2,0,72.4-0.1,108.7,0.1c5.9,0,12,0.9,17.8,2.5c18.4,5.1,36.5,11,54.9,16.1c5.2,1.5,7.2,3.7,7.1,9.2     c-0.2,13.1-0.4,26.2,0.9,39.2c2,21,20,37.3,41.1,38c11.8,0.4,23.6,0.3,35.5,0.1c4.6-0.1,6.3,1.7,6.1,6.2     C955.5,711.2,955.2,723.5,955.1,735.8z M956.3,669.4c-14.1,0-27.2,0.3-40.2-0.1c-10.4-0.3-19.2-8.2-19.7-18.2     c-0.6-11.7-0.1-23.5-0.1-36.1c17.6,5.2,34.8,9.7,51.5,15.5c3.7,1.3,7.6,7,8.2,11.1C957.2,650.5,956.3,659.6,956.3,669.4z"/>
			<path class="st0" d="M356.9,847.7c-5.5,0-11-0.6-16.4-1.7c-37.7-7.8-64-36.5-68.6-75.1c-0.4-3.5-1.2-4.4-4.2-4.4     c-0.1,0-0.1,0-0.2,0c-15.1,0.2-30.2,0.3-45.3,0.4l-16.8,0.1l0.1-159.9c0.2-0.6,0.4-1.2,0.6-1.9c0.4-1.2,0.9-2.5,1.2-3.7     c6.7-22.8,27-38.4,50.7-38.8c19.8-0.3,37.4-0.3,53.6,0.1c5.9,0.2,8.3-1.5,10.3-7c8.1-22.8,16.5-45.9,24.6-68.2     c7.6-20.8,15.4-42.3,22.9-63.5c2-5.7,4.8-7.7,10.8-7.7c0.1,0,0.2,0,0.4,0c17.2,0.2,34.9,0.2,51.9,0.2c6.2,0,12.3,0,18.5,0     c1.4-5.1,2.8-10.1,4.2-15.1c3.9-14.1,7.6-27.4,11.2-41c1.6-6.1,4.4-8.2,10.7-8.2c38.6,0.2,80.8,0.3,132.7,0.1c0.1,0,0.1,0,0.2,0     c5.4,0,8.6,1.3,10.1,7.7c3.2,13.6,6.8,26.9,10.5,41c1.4,5.2,2.8,10.4,4.1,15.6c5.3,0,10.6,0,15.9,0c13.8,0.1,28.2,0.1,42.2-0.2     c6.8-0.2,10.9,2,15.1,7.7c17.3,23.8,34.9,47.9,52,71.2c15.3,20.9,30.6,41.8,45.9,62.7c3.4,4.7,7.2,7.4,12.4,8.9     c15.8,4.6,31.7,9.3,47.5,14c25.6,7.6,52.1,15.5,78.3,22.8l0,0c19.9,5.5,31,15,36,30.7l0,0.3v132.4h-1c-32.7-0.1-65.3-0.2-98-0.2     c0.1,0-0.1,0.1-0.2,0.2c0,0-0.1,0.1-0.1,0.1c-7.8,48.4-38.4,78.4-81.8,80.2c-46,1.9-76.3-25.1-90.1-80.5c-0.1,0-0.2,0-0.3,0     c-0.8-0.1-1.5-0.2-2.3-0.2l-58.6,0c-65.8,0-133.9,0-200.9-0.1c0,0,0,0,0,0c-4.3,0-4.9,1.5-5.4,5.9c-2.5,23.3-15.1,44.8-34.5,58.9     C392.2,842,374.6,847.7,356.9,847.7z M267.7,764.5c4.6,0,5.8,2.4,6.3,6.2c4.5,37.7,30.1,65.8,66.9,73.3     c22.4,4.6,46-0.7,64.9-14.4c18.9-13.8,31.2-34.7,33.7-57.4c0.5-4.5,1.3-7.7,7.4-7.7c0,0,0,0,0,0c67,0.1,135.1,0.1,200.9,0.1     l58.6,0c0.9,0,1.8,0.1,2.6,0.3c0.3,0,0.7,0.1,1,0.1l0.7,0.1l0.2,0.7c13.5,54.8,43.1,81.5,88.2,79.6c42.5-1.8,72.3-31.3,79.9-78.9     l0.1-0.5l0.4-0.3c0.1-0.1,0.2-0.2,0.3-0.2c0.4-0.3,0.9-0.7,1.5-0.7c32.3,0,64.6,0.1,97,0.2V634.9c-4.9-14.9-15.5-23.9-34.6-29.2     l0,0c-26.2-7.3-52.7-15.2-78.3-22.8c-15.8-4.7-31.6-9.4-47.5-14c-5.7-1.6-9.8-4.6-13.5-9.7c-15.3-20.9-30.6-41.8-45.9-62.7     c-17.1-23.3-34.8-47.4-52-71.2c-3.6-5-7.1-6.9-12.7-6.9c-0.2,0-0.4,0-0.7,0c-14,0.4-28.4,0.3-42.2,0.2c-5.6,0-11.1,0-16.7,0h-0.8     l-0.2-0.8c-1.4-5.5-2.9-11-4.3-16.4c-3.8-14.1-7.3-27.3-10.5-41c-1.2-5.3-3.5-6.2-8.2-6.1c-52,0.2-94.2,0.2-132.8-0.1     c0,0-0.1,0-0.2,0c-5.2,0-7.2,1.6-8.5,6.7c-3.6,13.7-7.4,27.6-11.2,41.1c-1.5,5.3-2.9,10.5-4.4,15.9l-0.2,0.8H452     c-6.5,0-12.9,0-19.3,0c-17.1,0-34.7,0.1-52-0.2c-0.1,0-0.2,0-0.4,0c-5.1,0-7.1,1.5-8.8,6.4c-7.6,21.2-15.4,42.7-23,63.5     c-8.1,22.3-16.5,45.4-24.6,68.2c-2.3,6.4-5.6,8.6-12.3,8.4c-16.2-0.3-33.7-0.4-53.5-0.1c-22.8,0.4-42.4,15.4-48.8,37.3     c-0.4,1.3-0.8,2.6-1.3,3.8l-0.6,1.7V765l14.7-0.1c15.1-0.1,30.2-0.2,45.3-0.4C267.6,764.5,267.6,764.5,267.7,764.5z M795.1,829     c-34.7,0-62.9-28.2-62.9-62.9s28.2-62.9,62.9-62.9s62.9,28.2,62.9,62.9S829.8,829,795.1,829z M795.1,705.2     c-33.6,0-60.8,27.3-60.8,60.8s27.3,60.8,60.8,60.8s60.8-27.3,60.8-60.8S828.6,705.2,795.1,705.2z M357.4,829     c-34.7,0-62.9-28.2-62.9-62.9s28.2-62.9,62.9-62.9s62.9,28.2,62.9,62.9S392.1,829,357.4,829z M357.4,705.2     c-33.6,0-60.8,27.3-60.8,60.8s27.3,60.8,60.8,60.8s60.8-27.3,60.8-60.8S390.9,705.2,357.4,705.2z M267,742.6c-0.3,0-0.6,0-1,0     c-9.9-0.5-19.9-0.3-28.6-0.1c-2.8,0.1-4.8-0.4-6.1-1.7c-1.2-1.2-1.8-3-1.8-5.7c-0.1-14.7-0.2-29.4-0.3-44     c-0.2-24.1-0.4-49.1-0.3-73.6c0.1-19.6,12.2-30.9,33.1-31c32.5-0.1,65.6-0.1,97.7-0.1l36.6,0c11.1,0,22.1,0,33.2,0     c32.6,0,66.4,0,99.6-0.2c0.1,0,0.2,0,0.2,0c4,0,6.4,0.7,7.9,2.2c1.6,1.6,2.2,4,2.1,8.2c-0.3,16.3-0.3,32.9-0.2,48.9     c0,6.3,0,12.6,0,19v1H539c0,6,0,12,0,18c0,16.5-0.1,33.6,0.2,50.4c0,3.4-0.5,5.4-1.9,6.8c-1.4,1.4-3.3,1.9-6.9,1.9     c-28.5-0.2-56.6-0.3-83.7,0c-0.1,0-0.1,0-0.2,0c-6,0-8.1-2.7-9.7-7.4c-11.9-34.3-44-57.4-79.9-57.4c0,0,0,0,0,0     c-35.7,0-67.7,22.8-79.6,56.7C275.3,739.6,273.1,742.6,267,742.6z M252.7,740.2c4.4,0,8.9,0.1,13.4,0.3c5.1,0.2,7.2-1.3,9-6.6     c12.2-34.7,45-58.1,81.6-58.1c0,0,0,0,0,0c36.8,0,69.7,23.6,81.9,58.8c1.6,4.6,3.3,6,7.7,6c0.1,0,0.2,0,0.2,0     c27.1-0.3,55.3-0.3,83.7,0c0.1,0,0.2,0,0.3,0c2.7,0,4.3-0.4,5.2-1.3c0.9-0.9,1.3-2.5,1.3-5.3c-0.3-16.8-0.2-33.9-0.2-50.4     c0-6.3,0-12.7,0-19v-1h0.2c0-6,0-11.9,0-17.9c-0.1-16-0.1-32.7,0.2-49l0,0c0.1-3.5-0.4-5.5-1.5-6.7c-1.1-1.1-3.1-1.6-6.4-1.6     c-0.1,0-0.2,0-0.2,0c-33.2,0.2-66.9,0.2-99.6,0.2c-11.1,0-22.1,0-33.2,0l-36.6,0c-32,0-65.1,0-97.7,0.1     c-19.9,0.1-30.9,10.4-31,29c-0.1,24.5,0.1,49.5,0.3,73.6c0.1,14.7,0.3,29.4,0.3,44c0,2.1,0.4,3.5,1.2,4.2     c0.8,0.8,2.3,1.2,4.6,1.1C242.1,740.3,247.3,740.2,252.7,740.2z M571.4,742.6c-3.9,0-6.2-0.6-7.7-2.1c-1.5-1.5-2.2-3.9-2.2-7.7     c0-48.7-0.3-93.1-0.9-135.8c-0.1-4.3,0.6-6.8,2.3-8.5c1.6-1.6,4.1-2.3,8.2-2.3c0.1,0,0.3,0,0.4,0c27.7,0.3,55.9,0.2,83.1,0.2     c9.8,0,19.6,0,29.3,0l27.2,0c26.7,0,54.3,0,81.5,0.1c5.9,0,12.2,0.9,18,2.6c9.1,2.5,18.3,5.3,27.1,8c9.1,2.7,18.5,5.5,27.7,8.1     c5.8,1.6,8,4.4,7.9,10.2l0,0.9c-0.2,12.6-0.3,25.6,0.9,38.2c1.9,20.4,19.2,36.3,40.1,37.1c11.8,0.4,23.5,0.3,35.4,0.1     c0.1,0,0.2,0,0.3,0c2.5,0,4.2,0.5,5.3,1.7c1.2,1.2,1.7,3,1.6,5.6c-0.4,11.9-0.7,24.3-0.9,36.9l0,0c-0.1,4.7-2.1,6.7-7,6.7     c0,0,0,0-0.1,0c-7.7,0-15.5,0-23.2,0c-13.9,0-28.3,0-42.4-0.2c-2.6,0-6.5-3-7.5-5.8c-12.9-34.7-37.9-54.3-74.2-58.1     c-2.7-0.3-5.3-0.4-8-0.4c-34.3,0-66.9,23-77.9,56c-2.2,6.5-5.2,8.6-12.1,8.6c-44.7-0.3-89.1-0.3-132,0     C571.6,742.6,571.5,742.6,571.4,742.6z M571.1,588.3c-3.5,0-5.6,0.5-6.7,1.7c-1.2,1.2-1.7,3.4-1.7,7c0.6,42.7,0.9,87.1,0.9,135.8     c0,3.2,0.5,5.1,1.6,6.2c1.1,1.1,3,1.6,6.5,1.5c42.9-0.3,87.4-0.3,132.1,0c5.9,0,8.3-1.6,10.1-7.2c11.3-33.9,44.7-57.5,79.9-57.5     c2.7,0,5.4,0.1,8.2,0.4c37.2,3.9,62.7,23.9,75.9,59.4c0.7,1.9,3.8,4.4,5.6,4.4c14.1,0.3,28.4,0.2,42.4,0.2c7.7,0,15.5,0,23.2,0     c0,0,0,0,0.1,0c3.7,0,4.8-1.1,4.9-4.6c0.1-12.6,0.4-25,0.9-37c0.1-2-0.2-3.3-1-4.1c-0.7-0.8-1.9-1-4.1-1.1     c-12,0.2-23.7,0.3-35.5-0.1c-22-0.8-40.1-17.5-42.1-39c-1.2-12.7-1.1-25.8-0.9-38.4l0-0.8c0.1-4.9-1.4-6.8-6.4-8.2     c-9.3-2.6-18.7-5.4-27.8-8.1c-8.9-2.7-18-5.4-27.1-7.9c-5.7-1.6-11.8-2.4-17.5-2.5c-27.2-0.2-54.8-0.2-81.5-0.1l-27.2,0     c-9.8,0-19.5,0-29.3,0c-27.3,0-55.4,0.1-83.1-0.2C571.4,588.3,571.2,588.3,571.1,588.3z M931.6,670.5c-5.2,0-10.3,0-15.5-0.2     c-11.1-0.3-20.2-8.7-20.7-19.2c-0.4-8.2-0.3-16.2-0.2-24.8c0-3.7,0.1-7.5,0.1-11.3v-1.4l1.3,0.4c4.7,1.4,9.4,2.7,14.1,4.1     c13,3.7,25.2,7.2,37.4,11.5c4.3,1.5,8.3,7.7,8.9,12c0.9,6.3,0.7,12.6,0.5,19.3c-0.1,2.8-0.2,5.6-0.2,8.5v1h-1     c-4.3,0-8.6,0-12.8,0.1C939.5,670.5,935.5,670.5,931.6,670.5z M897.3,616.4c0,3.4,0,6.7-0.1,10c-0.1,8.5-0.2,16.5,0.2,24.6     c0.5,9.4,8.7,16.9,18.7,17.2c9,0.3,17.9,0.2,27.4,0.1c3.8,0,7.8,0,11.8-0.1c0-2.6,0.1-5.1,0.2-7.5c0.2-6.6,0.3-12.9-0.5-19     c-0.6-4-4.4-9.2-7.5-10.3c-12.2-4.3-24.4-7.8-37.3-11.5C905.8,618.9,901.6,617.7,897.3,616.4z M780.6,564.2H560.7l0-32.1     c0-20.9,0-41.8,0.1-62.7c0-3.3,0.3-6.7,0.5-10c0.3-3.6,0.5-7.4,0.5-11c0-2.6,0.5-4.5,1.7-5.7c1.7-1.7,4.5-1.8,6.9-1.8     c15.7,0.1,31.3,0.1,47,0.1l17.2,0c4.1,0,8.3,0,12.4,0c12.2,0,24.9-0.1,37.4,0.2c3,0.1,7.2,1.6,9,4.1c24.5,32.7,49.1,66,73,98.2     l12,16.2c0.3,0.4,0.6,0.9,0.9,1.6c0.2,0.4,0.4,0.8,0.7,1.4L780.6,564.2z M562.8,562.1h214.5c-0.3-0.5-0.4-0.9-0.6-1.2l-12-16.2     c-23.9-32.2-48.5-65.6-73-98.2c-1.4-1.9-5-3.2-7.4-3.2c-12.4-0.3-25.1-0.2-37.3-0.2c-4.1,0-8.3,0-12.5,0l-17.2,0     c-15.7,0-31.3,0-47-0.1c-2.4,0.1-4.4,0.2-5.4,1.2c-0.8,0.8-1.2,2.2-1.1,4.2c0,3.7-0.2,7.5-0.5,11.2c-0.2,3.2-0.5,6.6-0.5,9.9     c-0.1,20.9-0.1,41.8-0.1,62.7L562.8,562.1z M539.2,564.2H408.1l0-31.4c0-21.2,0-42.5,0.1-63.7c0-3,0.2-6,0.4-8.9     c0.2-3.5,0.5-7.1,0.4-10.6c-0.1-3.1,0.5-5.2,1.9-6.6c1.4-1.4,3.6-2.1,7.1-2.1c0.1,0,0.1,0,0.2,0c20.1,0.1,40.5,0.1,60.2,0.1     c12.6,0,25.2,0,37.8,0c0,0,0.1,0,0.1,0c1.8,0,3.7-0.1,5.6-0.3c5.6-0.4,11.4-0.8,14.6,2c3.2,2.9,3,9.3,2.8,15.6     c0,1.5-0.1,3-0.1,4.4c0.1,24.5,0.1,48.5,0.1,73.8L539.2,564.2z M410.1,562.1h127l0-25.6c0-25.4,0-49.3-0.1-73.8     c0-1.4,0-2.9,0.1-4.5c0.2-5.5,0.4-11.7-2.1-13.9c-2.5-2.2-7.8-1.8-13-1.5c-2,0.1-4,0.3-5.8,0.3c0,0-0.1,0-0.1,0     c-12.6,0-25.2,0-37.8,0c-19.8,0-40.2,0-60.2-0.1c-0.1,0-0.1,0-0.2,0c-2.9,0-4.6,0.4-5.6,1.4c-0.9,1-1.4,2.6-1.3,5.1     c0.1,3.6-0.2,7.2-0.4,10.8c-0.2,2.9-0.4,5.9-0.4,8.8c-0.1,21.2-0.1,42.5-0.1,63.7L410.1,562.1z M385.8,564.1h-42.2l0.5-1.4     L382,458.8l3.8,0.8V564.1z M346.6,562.1h37.2V461.3l-0.4-0.1L346.6,562.1z M610.2,417.3H476l0.3-1.3c0.8-3.2,1.6-6.3,2.4-9.4     c2.3-8.9,4.4-17.3,6.9-25.7v0c0.7-2.3,4.2-4.9,6.6-4.9c32.6-0.2,67.1-0.2,102.5,0c2.1,0,5.6,2.2,6.2,4.4     c2.4,8.7,4.5,17.3,6.8,26.4c0.7,3,1.5,6,2.2,9.1L610.2,417.3z M478.7,415.2h128.8c-0.7-2.6-1.3-5.2-1.9-7.8     c-2.2-9.1-4.3-17.7-6.7-26.4c-0.3-1.2-2.8-2.9-4.2-2.9c-35.3-0.2-69.8-0.2-102.4,0c-1.5,0-4.3,2-4.7,3.4     c-2.5,8.3-4.6,16.7-6.8,25.6C480.1,409.8,479.4,412.4,478.7,415.2z"/>
		</g>
		<g>
			<path class="st0" d="M357.4,725.3c-22.5,0-40.8,18.2-40.8,40.8c0,22.5,18.2,40.8,40.8,40.8c22.5,0,40.8-18.2,40.8-40.8     C398.1,743.6,379.9,725.3,357.4,725.3z M357.4,788.7c-12.5,0-22.6-10.1-22.6-22.6c0-12.5,10.1-22.6,22.6-22.6     c12.5,0,22.6,10.1,22.6,22.6C380,778.6,369.9,788.7,357.4,788.7z"/>
			<path class="st0" d="M357.4,807.9c-23,0-41.8-18.7-41.8-41.8s18.7-41.8,41.8-41.8c23,0,41.8,18.7,41.8,41.8     S380.4,807.9,357.4,807.9z M357.4,726.4c-21.9,0-39.7,17.8-39.7,39.7s17.8,39.7,39.7,39.7c21.9,0,39.7-17.8,39.7-39.7     S379.3,726.4,357.4,726.4z M357.4,789.7c-13.1,0-23.7-10.6-23.7-23.7s10.6-23.7,23.7-23.7c13.1,0,23.7,10.6,23.7,23.7     S370.5,789.7,357.4,789.7z M357.4,744.5c-11.9,0-21.6,9.7-21.6,21.6s9.7,21.6,21.6,21.6c11.9,0,21.6-9.7,21.6-21.6     S369.3,744.5,357.4,744.5z"/>
		</g>
		<g>
			<path class="st0" d="M798.1,725.3c-22.5,0-40.8,18.2-40.8,40.8c0,22.5,18.2,40.8,40.8,40.8c22.5,0,40.8-18.2,40.8-40.8     C838.9,743.6,820.6,725.3,798.1,725.3z M798.1,788.7c-12.5,0-22.6-10.1-22.6-22.6c0-12.5,10.1-22.6,22.6-22.6     c12.5,0,22.6,10.1,22.6,22.6C820.8,778.6,810.6,788.7,798.1,788.7z"/>
			<path class="st0" d="M798.1,807.9c-23,0-41.8-18.7-41.8-41.8s18.7-41.8,41.8-41.8s41.8,18.7,41.8,41.8S821.2,807.9,798.1,807.9z      M798.1,726.4c-21.9,0-39.7,17.8-39.7,39.7s17.8,39.7,39.7,39.7s39.7-17.8,39.7-39.7S820,726.4,798.1,726.4z M798.1,789.7     c-13.1,0-23.7-10.6-23.7-23.7s10.6-23.7,23.7-23.7s23.7,10.6,23.7,23.7S811.2,789.7,798.1,789.7z M798.1,744.5     c-11.9,0-21.6,9.7-21.6,21.6s9.7,21.6,21.6,21.6s21.6-9.7,21.6-21.6S810,744.5,798.1,744.5z"/>
		</g>
	</g>
</g>
</svg>