<?xml version="1.0" encoding="utf-8"?>
<!-- Generator: Adobe Illustrator 25.4.1, SVG Export Plug-In . SVG Version: 6.00 Build 0)  -->
<svg version="1.1" id="Capa_1" xmlns="http://www.w3.org/2000/svg" xmlns:xlink="http://www.w3.org/1999/xlink" x="0px" y="0px"
	 viewBox="0 0 1200 1200" style="enable-background:new 0 0 1200 1200;" xml:space="preserve">
<style type="text/css">
	.st0{fill:#999999;stroke:#999999;stroke-width:0.546;stroke-miterlimit:10;}
</style>
<g id="EWmqWD_00000175321769023224223530000004095633844312348338_">
	<g>
		<path class="st0" d="M740.7,972c-15.9-3.6-47.3-6.8-75.7-17.9c-207.8-81.5-353.1-226.3-430.8-436.1c-11-29.8-12.3-63.9-14.1-96.2
			c-1.6-28.4,11.7-53,31.5-73.5c18.2-18.8,36.5-37.5,55.3-55.7c32.1-31.1,72.5-32,105.1-1.1c31.1,29.4,61.3,59.8,90.8,90.9
			c30.5,32.1,29.6,71.2-0.9,103.7c-13.9,14.7-29.1,28.2-42.3,43.4c-3.8,4.3-5.8,14.7-3.2,19.3c44.3,77.5,105.1,138.9,182.7,183.5
			c8.7,5,14.7,4.2,21.6-3.2c12.9-13.9,26.6-27.2,40.4-40.3c34.3-32.8,73.7-32.6,107.3,0.7c28.7,28.5,57.3,57.1,85.5,86
			c32.6,33.3,32.8,73.9,0.8,107.8c-17.6,18.6-35.5,36.8-53.5,54.9C819,960.1,789,971.8,740.7,972z M752.7,934
			c23-3.4,43.1-9.3,59.1-25.5c17.2-17.3,34.5-34.5,51.3-52.2c19-20,18.9-34.2-0.4-53.9c-27.5-28-55.3-55.8-83.2-83.3
			c-18.6-18.3-31.8-18.4-50.7-0.3c-17.2,16.5-33.5,33.8-50.6,50.4c-14.7,14.3-26.7,15.4-45.2,6.5c-49.4-23.9-91.4-57.7-129.5-96.6
			c-35.8-36.7-68.9-75.7-90.3-123.1c-10.7-23.7-8.6-32.7,9.9-50.6c16.2-15.7,32.6-31.4,48.1-47.7c16.6-17.5,16.8-31.2,0.3-48.2
			c-28.2-29-56.8-57.6-85.7-85.9c-18.3-17.9-32.8-17.8-51-0.1c-18.4,17.8-37.5,35.1-53.7,54.7c-9.3,11.4-16.3,26.4-19.3,40.9
			c-6.5,31.8,1.6,63,13.1,92.4c74,189.4,206,322.5,393.6,400C695.3,922.6,724.7,926.7,752.7,934z"/>
		<path class="st0" d="M962.9,555.9c-0.5-3.5-0.8-7.1-1.4-10.6c-26.1-153.7-161.5-289.8-315.4-317c-21.5-3.8-31.8,0.3-35.1,14
			c-3.2,13.7,5.6,22.2,27.9,26.9c106.6,22.8,188.4,81.3,241,176.2c19.5,35.2,29,76.1,42.1,114.7c4.3,12.6,11.6,21.1,24.3,17.1
			C946.4,577.3,964.5,570.9,962.9,555.9z"/>
		<path class="st0" d="M828.1,562.3c-0.9-5.3-1.4-10.6-2.8-15.8c-23.5-88.1-78-147.6-164.5-177.1c-10.6-3.6-21.8-6.2-32.9-7.5
			c-11.2-1.3-20,3.8-22.2,15.8c-2.3,12.2,2.5,20.9,15,24.3c5.1,1.4,10.5,2.2,15.6,3.6c76.8,21.4,125.8,70.8,147.5,147.3
			c1.6,5.7,2.3,11.7,4.1,17.3c3.7,11.3,12.7,17.5,23.3,13.4C811.3,583.7,827,580.3,828.1,562.3z"/>
	</g>
</g>
</svg>
