<?xml version="1.0" encoding="utf-8"?>
<!-- Generator: Adobe Illustrator 25.4.1, SVG Export Plug-In . SVG Version: 6.00 Build 0)  -->
<svg version="1.1" id="Capa_1" xmlns="http://www.w3.org/2000/svg" xmlns:xlink="http://www.w3.org/1999/xlink" x="0px" y="0px"
	 viewBox="0 0 1200 1200" style="enable-background:new 0 0 1200 1200;" xml:space="preserve">
<style type="text/css">
	.st0{fill:#999999;}
</style>
<g id="GYGryO.tif_00000072986855053688278380000014849157008652394167_">
	<g>
		<g>
			<path class="st0" d="M887.6,459.7c0-7.2-2-12.9-6.4-18.3c-22.8-28.1-45.8-56.8-68.2-84.5c-16.4-20.3-32.8-40.7-49.1-60.9
				c-1.7-2.2-3.8-4-5.8-5.9c-0.9-0.8-1.8-1.6-2.7-2.5l-0.4-0.4H350.5l-0.2,0.1c-9,3.2-13.3,9.7-13.4,20.6
				c0.2,11.4,0.2,23.1,0.1,34.3c0,4.6,0,9.2,0,13.7v7.2h-27.2c-1.7,0-3.4,0-5,0c-4.2,0-8.5-0.1-12.7,0.1c-10,0.5-16,6.7-16.5,16.8
				c-0.1,1.5,0,2.9,0,4.4c0,0.7,0,1.4,0,2.1V992c0,18.3,5,23.3,23.1,23.3H804c17.9,0,22.8-4.9,22.8-22.9v-53.1h33
				c24.6,0,27.7-3.1,27.7-27.9c0-37.6,0-75.2,0-112.9C887.5,687.5,887.5,572.7,887.6,459.7z M766,350.7
				c11.8,14.7,23.5,29.1,35.1,43.5c11.9,14.7,23.7,29.5,35.8,44.4H766V350.7z M775.8,513.1h-70.4v-86.9
				C727.8,454,751,482.5,775.8,513.1z M723.3,396.6c-6.2-7.5-12.7-15.3-18.6-23.3c-5.2-7-11.7-10.1-21.1-10.1
				c-76.2,0.1-153.7,0.1-228.6,0.1c-25.4,0-50.9,0-76.3,0h-8.2v-42.9h362.1c0,29.4,0,57.4-0.1,87c-0.7-0.6-1.2-1.1-1.7-1.7
				C728.3,402.7,725.8,399.6,723.3,396.6z M793.8,982.1H308.9V396h363.2v129.4c0,15.2,5.9,21.1,21.2,21.1h100.5V982.1z M854.3,906.5
				h-27.4v-7.8c0-30.4,0-60.8,0-91.2c0-89.4,0-181.8,0.1-272.7c0-7.7-2-13.6-6.7-19c-8.5-10.2-16.7-20.4-25.4-31.2
				c-3.3-4.1-6.7-8.3-10.2-12.6h69.5V906.5z"/>
		</g>
		<g>
			<path class="st0" d="M719.1,803.8c-0.7,6.5-4.4,11.2-10.6,13.2c-3.7,1.1-7.8,1.3-10.9,1.3c-32.4,0-65.1,0-97.6,0
				c-32.7,0-65.2,0-97.2,0c-32.5,0-65,0-97.5,0h-2.1c-12.5-0.1-20-6.3-20-16.5c0-10.1,7.5-16.2,20-16.2h147.9c12.3,0,24.6,0,36.9,0
				c36.4,0,74,0,111,0.1c4.5,0,9.1,1,12.8,2.9C717.2,791.2,719.8,796.6,719.1,803.8z"/>
		</g>
		<g>
			<path class="st0" d="M719.3,892.4c0.1,7.7-4.3,13.6-11.6,15.6c-2.8,0.7-6,1-10.2,1c-48.5,0-97.3,0.1-146.1,0.1s-97.6,0-146.1-0.1
				c-4.1,0-7.3-0.3-10.2-1c-7.3-1.9-12-7.9-11.8-15.5c0-7.4,4.8-13.6,12-15.3c3.1-0.7,6.5-0.7,9.5-0.7c48.8-0.1,98.4-0.1,146.4-0.1
				h146.5c3,0,6.4,0,9.5,0.7C714.3,878.8,719.2,884.9,719.3,892.4z"/>
		</g>
		<g>
			<path class="st0" d="M706.6,636.1c-3,0.7-6.3,0.8-9.4,0.8H405.6c-4,0-7.2-0.3-10.1-0.9c-8-1.9-12.8-8.6-12.2-16.7
				c0.6-7.7,6.1-13.6,13.8-14.7c2.2-0.3,4.5-0.3,6.7-0.3l1.3,0h295.1c10.7,0,17.4,4.7,18.9,13.2C720.5,626.8,715.6,634,706.6,636.1z
				"/>
		</g>
		<g>
			<path class="st0" d="M707,726.7c-2.7,0.6-5.7,0.9-9.5,0.9H403.3c-12.5-0.1-20-6.3-20-16.5c0-10.2,7.5-16.3,20-16.3
				c49.5,0.2,99.8,0.2,148.5,0.2l146.5,0c2.4,0,4.9,0,7.3,0.3c7.8,1.2,13.2,7.2,13.7,14.8C719.8,718.5,715.2,724.7,707,726.7z"/>
		</g>
	</g>
</g>
</svg>
