<?xml version="1.0" encoding="utf-8"?>
<!-- Generator: Adobe Illustrator 25.4.1, SVG Export Plug-In . SVG Version: 6.00 Build 0)  -->
<svg version="1.1" id="Capa_1" xmlns="http://www.w3.org/2000/svg" xmlns:xlink="http://www.w3.org/1999/xlink" x="0px" y="0px"
	 viewBox="0 0 1200 1200" style="enable-background:new 0 0 1200 1200;" xml:space="preserve">
<style type="text/css">
	.st0{fill:#999999;}
	.st1{fill:#FFFFFF;}
</style>
<path class="st0" d="M276.4,854.1c25.9,0.2,46.6,21.3,46.1,47.2c-0.5,25.4-21.2,45.9-46.5,46c-25.6,0-46.7-21.2-46.6-46.9
	C229.5,874.4,250.3,853.9,276.4,854.1z M275.9,916.1c8.1,0,15.1-6.8,15.4-15c0.3-8.9-6.4-15.9-15.3-15.9c-8.5,0-15.1,6.3-15.4,14.8
	C260.3,908.6,267.4,916.1,275.9,916.1z"/>
<path class="st0" d="M563.6,594.9c0.1-10.8,6.5-18.1,15.7-17.9c9.2,0.2,15.4,7.6,15.4,18.4c0,10.8-6.2,18.2-15.4,18.4
	C569.7,614,563.5,606.4,563.6,594.9z"/>
<g>
	<path class="st0" d="M1085.2,740c-2.9-13.3-6.4-25-10.8-35.5c-4.4-10.5-9.6-19.9-15.8-28.4c-24.3-33.5-48.8-67.7-72.4-100.8
		c-16.4-22.9-33.3-46.6-50.1-69.8c-24.1-33.4-57.4-50.4-98.8-50.6c-31.6-0.1-63.6-0.1-95.2,0c-47.5,0.1-77,29.5-77,76.6v201.9h-16
		v-11c0-11.9,0-23.7,0.1-35.6c0.1-32.1,0.2-65.3-0.4-97.9c-0.5-32.8-25.1-60.6-58.6-66c-19.1-3.1-37,1.4-54.5,13.6
		c-0.3-0.1-0.6-0.3-0.7-0.4c-14.3-14.3-28.7-28.7-43-43c-42.5-42.5-86.5-86.4-129.7-129.8c-1.8-1.8-3.1-5.3-3.3-8.6
		c-1.1-17.3-7.9-33.7-19.2-46c-11.4-12.4-26.6-20.1-42.9-21.5c-17.5-1.5-34.8,2.9-48.6,12.4c-13.9,9.6-23.7,23.8-27.6,40.2
		c-4.1,17-2,34.5,5.8,49.5c7.9,15,21.3,26.7,37.7,33c5.9,2.2,7.5,4.5,7.4,10.6c-0.2,17.6-0.1,35.5-0.1,52.9c0,22,0.1,44.8-0.3,67.2
		c-0.3,23.9,8.9,41.1,28.2,52.6c9.8,5.9,13.5,15.7,9.8,26.1c-3.4,9.5-12.7,15.1-23.3,13.9c-9.9-1.1-16.7-8.3-18.4-19.8
		c-2.1-13.2-9.6-20.1-20.1-18.7c-10.4,1.5-15.7,9.3-14.9,22.1c0.2,2.9,0.6,5.7,1.2,8.5c6.2,24.9,27.3,42.3,52.4,43.1
		c26.8,0.9,49.2-14.8,57-40c7.6-24.5-2.4-51-24.2-64.4c-9-5.5-12.6-12.1-12.5-22.7c0.3-21.3,0.3-43,0.2-63.9c0-11.6-0.1-23.7,0-35.5
		c0-1.6,0.2-3.3,0.4-5.3c0-0.1,0-0.1,0-0.2c0.5,0.4,0.9,0.7,1.3,1.1l28,28c55.1,55.1,112.1,112,167.9,168.3
		c2.4,2.4,4.2,7.2,4.2,11.3c0.4,14.3,0.3,28.8,0.2,42.8c0,5.4,0,10.7,0,16.1V734H141.3c-34.8,0-58.5,17.6-68.5,50.8
		c-0.5,1.6-1.2,3.1-1.8,4.5l-0.2,0.4v83.6l0.1,0.3c0.6,1.6,1.1,3.1,1.7,4.7c1.2,3.6,2.6,7.3,4.2,10.8c13.5,29,36.9,43.7,67.7,42.5
		c17.7-0.7,25.5,4,33.1,20.3c11.9,25.2,33.3,44.4,60.1,54c12.2,4.4,25,6.5,37.7,6.5c14.9,0,29.9-3,44-8.9
		c25.7-10.8,46.2-30.8,57.8-56.2c11.6-25.4,13.4-54,4.9-80.7c-0.6-1.9-1.2-3.9-2-6.2l0,0h233.5v0.1h69.5v-0.1h92
		c-2.2,10.5-4.5,21.7-7.8,36.7H440c-12.7,0-19.9,1.8-24,6c-2.7,2.8-4,6.6-3.9,11.8c0.2,10.4,5.1,17.3,28.6,17.3h275.1l2-0.1
		c7.1,0,14.2,0,21.3-0.1c7.8,0,15.5,0,23.3,0c8.4,0,11.5,2.1,14.4,9.7c16.4,42.9,57,70.5,103.5,70.5h0.5
		c46-0.2,86.4-27.9,102.9-70.6c3-7.9,6.2-10.1,14.4-9.7c9.2,0.4,21.1,0.6,32.4-2c25.3-5.9,42.6-21.9,51.3-47.6
		c1-2.9,2.1-5.7,3.2-8.4l0.1-0.3V740.4L1085.2,740z M543.8,594.5L543.8,594.5c0.1-12.9,5.4-24.2,14.5-31.1
		c8.6-6.5,19.4-8.4,30.5-5.3c14.2,4,24.6,16.3,24.7,29.3c0.4,38.9,0.3,78.5,0.2,116.7c0,9.6-0.1,19.2-0.1,28.9
		c-0.1,0.1-0.1,0.2-0.2,0.4c0,0-0.1,0.1-0.1,0.1h-68.8c-0.1-0.3-0.1-0.6-0.2-0.9c-0.3-1.6-0.6-3.2-0.6-4.7c0-9.9,0-19.8-0.1-29.8
		C543.6,664.2,543.5,629.1,543.8,594.5z M313.8,381.2c-6.5,6.8-15.4,10.6-24.9,10.7c-9.1,0.1-18.2-3.7-25-10.4
		c-6.8-6.7-10.6-15.9-10.6-25.1c0.2-19,15.9-34.6,35-34.7h0.2c19.4,0,34.8,15,35.1,34.2C323.9,365.5,320.4,374.4,313.8,381.2z
		 M508.5,593.4c-0.1,1.2-0.3,2.3-0.4,3.4c-29.6-29.6-59.3-59.3-89.1-89.1c-30.6-30.6-61.2-61.2-91.8-91.8c5.8-5.4,12.3-11.4,19.6-18
		c0.1,0.1,0.2,0.1,0.3,0.2c1.3,1.1,2.8,2.3,4.2,3.6l31.6,31.6c41.4,41.4,84.2,84.2,126.4,126.2c3.9,3.9,4.6,6.7,3.2,12.4
		C510.3,579.1,509.4,586.4,508.5,593.4z M165.6,885.7c-0.8,3.5-1.5,7-2.2,10.5c-20.6,2.8-37.3-0.9-47.2-10.2
		c-6.8-6.4-10-15.5-9.4-26.2H171C169.2,868.6,167.4,877.3,165.6,885.7z M276.3,976.9h-0.4c-20.5,0-39.8-7.9-54.2-22.4
		c-14.5-14.4-22.4-33.7-22.4-54.1c0.1-41.9,34.3-76.2,76.2-76.5h0.5c20.2,0,39.2,7.9,53.7,22.4c14.7,14.6,22.8,33.9,22.7,54.4
		C352.5,942.6,318.3,976.8,276.3,976.9z M666.5,825.5c-3.9,0.2-7.5,0.7-11.1,0.7h-10.7v0.3h-68.8v-0.2c-70,0-140.1,0-210.1-0.3
		c-5.1,0-11.4-2.6-15.2-6.1c-42.3-38.5-106.3-38.6-149-0.1c-3.9,3.5-10,6-15.2,6.1c-26.9,0.6-53.8,0.3-82.6,0.3
		c0.5-11.8-0.3-23.3,1.8-34.1c3.1-15.8,16.3-24.9,33.5-25c42.1-0.1,84.2,0,126.3,0h401.2L666.5,825.5z M937.3,573.2L937.3,573.2
		c2.1,0,5.3,1.7,6.7,3.7c13.2,18,26.1,36.1,39.8,55.3c3.1,4.3,6.2,8.7,9.4,13.1H832c-16.3,0-21.8-5.4-21.9-21.5
		c-0.1-10.5-0.2-21.4,0-31.9c0.3-11.8,6.6-18.5,17.7-18.6c16-0.2,32.7-0.3,50.7-0.3C896.6,572.9,916,573,937.3,573.2z M880.3,976.9
		h-0.2c-42-0.1-76.3-34.2-76.4-76.1c0-20.5,8-39.8,22.6-54.4c14.5-14.5,33.7-22.5,54-22.5h0.2c20.5,0.1,39.8,8.2,54.3,23
		c14.5,14.7,22.3,34,22.2,54.4C956.6,943,922.3,976.9,880.3,976.9z M982,824.6c-0.6,0-1.1,0-1.7,0c-12.5,0-21.6-3.3-31.3-11.3
		c-20.1-16.5-44.4-24.7-68.8-24.7c-27,0-54.1,10.1-75.9,30c-3.6,3.3-6.8,5.2-8.9,5.3c-26.6,0.3-53,0.3-80.9,0.3l-14.7,0V532
		c0-28.7,13.5-42.1,42.6-42.2c10.3,0,20.7,0,31,0c20.4,0,41.4,0.1,62.1,0c34.2-0.2,60.3,15.4,79.9,47.8c0,0,0,0,0,0
		c-2.3,0.2-4.2,0.4-6.1,0.4c-6.6,0-13.1,0-19.7,0c-19.3,0-39.3,0-59.1,0.1c-34.2,0.3-55.6,21.7-55.7,55.7c-0.1,11-0.1,22.1,0,33.1
		c0.4,31.4,22.5,53.4,53.6,53.5c12.8,0,25.6,0.1,38.4,0.1c44.1,0.1,89.6,0.3,134.4-0.4c14.1-0.2,21.8,3.8,27.2,14.4
		c1.9,3.7,4.2,7.1,6.9,11c0.9,1.3,1.8,2.6,2.7,4c-2.3,0-4.6,0-6.7,0c-6.1,0-11.3-0.1-16.6,0c-19.4,0.5-34.5,12.8-37.5,30.5
		c-2,11.6-2,23.9,0,35.5c3.2,18.3,18.3,30.1,39.5,30.8c8.1,0.2,16,0.2,24.4,0.1c2.7,0,5.4,0,8.2,0v18.1c-6.2,0-12.4-0.1-18.6-0.1
		C1014.8,824.2,998.3,824.1,982,824.6z M1040.7,885.6c-9.8,9.5-26.7,13.3-47.7,10.7l-1.5-6.8c-2.1-9.8-4.1-19.3-6.2-29.2h64.3
		C1050.2,870.6,1047.2,879.3,1040.7,885.6z M1050,766.4c0,1.5,0,3.1,0,4.7c-2.9,0-5.7,0.1-8.4,0.1c-8.2,0.1-16,0.3-23.7-0.5
		c-1.4-0.1-3.4-2.8-5-4.9c-0.7-1-1.5-2-2.2-2.9c0-0.2,0-0.5,0.1-0.8c0-0.4,0.1-0.8,0.1-1.2c-0.1-8.4-0.2-13.1,1.5-14.8
		c1.7-1.7,6.2-1.7,14.4-1.7h22.2c0.1,0.4,0.2,0.8,0.3,1.1c0.4,1.5,0.7,2.6,0.7,3.6C1050.1,754.7,1050,760.4,1050,766.4z"/>
	<path class="st0" d="M666.6,767.1l-0.1,58.4c-3.9,0.2-7.5,0.7-11.1,0.7h-10.7v0.3h-68.8v-0.2c-70,0-140.1,0-210.1-0.3
		c-5.1,0-11.4-2.6-15.2-6.1c-42.3-38.5-106.3-38.6-149-0.1c-3.9,3.5-10,6-15.2,6.1c-26.9,0.6-53.8,0.3-82.6,0.3
		c0.5-11.8-0.3-23.3,1.8-34.1c3.1-15.8,16.3-24.9,33.5-25c42.1-0.1,84.2,0,126.3,0H666.6z"/>
</g>
<path class="st0" d="M803.1,711.4c3.4,0,6.9-0.3,10.3,0.1c8.9,0.9,13.9,6.3,14.2,14.9c0.3,8.7-4.9,14.5-13.5,15.6
	c-7.1,0.9-14.5,0.7-21.7,0.2c-9.3-0.6-15.8-7.7-15.4-16.1c0.4-8.2,6.6-14.1,15.7-14.7C796.3,711.1,799.7,711.3,803.1,711.4
	L803.1,711.4z"/>
<path class="st0" d="M880.8,854.1c25.9,0.2,46.5,21.2,46.1,47.1c-0.4,25.4-21.2,46-46.4,46c-25.6,0.1-46.8-21.2-46.7-46.9
	C833.9,874.5,854.7,854,880.8,854.1z M880,885.2c-8.5,0.2-14.9,6.7-15,15.2c-0.1,8.6,7.2,15.9,15.7,15.7c8.1-0.2,14.9-7.2,15-15.4
	C895.8,891.9,888.8,885,880,885.2z"/>
<path class="st1" d="M666.5,767.1v59.4h-90.7v-0.2c-70,0-140.1,0-210.1-0.3c-5.1,0-11.4-2.6-15.2-6.1c-42.3-38.5-106.3-38.6-149-0.1
	c-3.9,3.5-10,6-15.2,6.1c-26.9,0.6-53.8,0.3-82.6,0.3c0.5-11.8-0.3-23.3,1.8-34.1c3.1-15.8,16.3-24.9,33.5-25
	c42.1-0.1,84.2,0,126.3,0h310.5l0,0L666.5,767.1L666.5,767.1z"/>
</svg>
