<svg xmlns="http://www.w3.org/2000/svg" xmlns:xlink="http://www.w3.org/1999/xlink" version="1.1" id="Capa_1" x="0px" y="0px" style="enable-background:new 0 0 1200 1200;" xml:space="preserve" viewBox="290.33 238.83 635.75 764.35">
<g id="ifKmIG.tif_00000057857015770292167730000012829209207986363027_">
	<g>
		<path class="st0" d="M441.1,239.1c98.9,0,197.8,0,296.8,0c3.5,2.3,7.4,4.2,10.3,7c47.4,46,94.7,92.2,142,138.3    c7.5,7.3,14.3,15.8,23,21.1c9.5,5.8,12.6,12.9,12.6,23.1c-0.1,135.2-0.1,270.5-0.1,405.7c0,2.7,0,5.5-0.1,8.2    c-1,20.3-14.8,33.5-35.2,33.6c-26.6,0.1-53.2,0-79.8,0c-2.7,0-5.3,0-8.7,0c0,3.4,0,6.1,0,8.8c0,27.3,0.1,54.7,0,82    c-0.1,22.5-14,36-36.5,36c-146.1,0-292.2,0-438.3,0c-3.7,0-7.5-0.2-11-1.1c-14.3-3.5-21.7-13.7-25.5-27.2c0-193.4,0-386.9,0-580.3    c8.9-23,16.8-28.3,41.8-28.3c24.6,0,49.1,0,73.7,0c2.6,0,5.3,0,8.3,0c0-29,0.6-57.1-0.2-85.1C413.6,260.1,421,245.8,441.1,239.1z     M764.3,965.4c0-131.1,0-261.6,0-392.9c-3.2,0-6.1,0-9,0c-47,0-93.9,0-140.9,0c-16.5,0-22.9-6.4-22.9-22.9c0-45.7,0-91.5,0-137.2    c0-2.9,0-5.8,0-8.7c-88.4,0-175.7,0-263,0c0,187.5,0,374.6,0,561.8C473.8,965.4,618.6,965.4,764.3,965.4z M888.1,838.6    c0-131.2,0-261.6,0-392.9c-3.2,0-6.1,0-9.1,0c-47,0-93.9,0-140.9,0c-16.4,0-22.9-6.5-22.9-23c0-45.7,0-91.5,0-137.2    c0-2.9,0-5.8,0-8.6c-88.4,0-175.8,0-263,0c0,30,0,59.4,0,89.1c3.3,0,6.1,0,8.8,0c48.2,0,96.4,0.1,144.6-0.1c7.9,0,14.1,2.3,19.9,8    c47.9,47,95.9,93.8,144,140.6c6.4,6.2,12.3,13.5,19.8,18c9.1,5.5,12.6,12.2,12.6,22.4c-0.1,91.7-0.1,183.5-0.1,275.2    c0,2.8,0,5.7,0,8.6C831.1,838.6,859.2,838.6,888.1,838.6z M863.1,408c-37.4-35-73.3-68.6-110-103.1c0,35.2,0,69,0,103.1    C789.4,408,825.3,408,863.1,408z M629,534.7c36.7,0,72.6,0,110.1,0C702,500,666,466.3,629,431.6C629,467.1,629,500.6,629,534.7z"/>
		<path class="st0" d="M547.4,787.9c-45.5,0-90.9,0-136.4,0c-8.5,0-14.2-3.8-15.8-10.8c-1.6-6.8-0.3-13.3,6.1-16.9    c3.4-2,8-2.5,12-2.5c67.3-0.1,134.6-0.1,202-0.1c23.1,0,46.2-0.1,69.3,0c11.3,0.1,17.6,6.8,16.6,17.1c-0.8,8.6-6.9,13.3-17.4,13.3    c-44.2,0-88.4,0-132.7,0C549.9,787.9,548.6,787.9,547.4,787.9z"/>
		<path class="st0" d="M547.7,877.6c-45.7,0-91.4,0-137.1,0.1c-6.6,0-12.6-1.9-14.1-8.4c-1.2-5-0.5-11.2,1.5-16    c2.3-5.6,8.5-5.7,14.2-5.7c71.8,0.1,143.6,0.1,215.4,0.1c19.1,0,38.3,0,57.4,0c10.2,0,16.4,5.8,16.3,15.1c0,9.4-6,14.9-16.4,14.9    C639.1,877.6,593.4,877.6,547.7,877.6z"/>
		<path class="st0" d="M516.7,697.7c-35.5,0-71.1,0-106.6,0c-6.6,0-11.7-2.3-14.3-8.6c-2.5-6-2.4-12.5,2.6-16.5    c3.8-3.1,9.7-5,14.7-5c64.3-0.3,128.7-0.2,193-0.2c6.2,0,12.4-0.1,18.6,0c9.3,0.2,15.7,6.4,15.8,15.3c0.1,8.8-6.2,15-15.9,15    C588.7,697.8,552.7,697.7,516.7,697.7z"/>
		<path class="st0" d="M473,577.7c20.6,0,41.2,0,61.8,0c10.2,0,16.4,5.6,16.5,15c0.2,9.1-6.2,15.1-16.4,15.1    c-41.5,0.1-82.9,0.1-124.4,0c-10.3,0-16-5.7-15.9-15.3c0.1-9.2,5.9-14.7,15.8-14.7C431.3,577.7,452.2,577.7,473,577.7z"/>
		<path class="st0" d="M444.5,487.9c11.4,0,22.8-0.1,34.2,0c8.7,0.1,14.4,5.9,14.6,14.4c0.1,8.3-6.2,15.5-14.6,15.5    c-23,0.2-46.1,0.2-69.1,0c-9.1-0.1-14.8-6.3-14.8-15.2c-0.1-8.8,5.7-14.7,14.8-14.8C421.2,487.8,432.8,487.9,444.5,487.9z"/>
	</g>
</g>
</svg>