<svg xmlns="http://www.w3.org/2000/svg" xmlns:xlink="http://www.w3.org/1999/xlink" version="1.1" id="Capa_1" x="0px" y="0px" style="enable-background:new 0 0 1200 1200;" xml:space="preserve" viewBox="311.49 476.95 582.01 318.05">
<style type="text/css">
	.st0{fill:#999999;}
</style>
<g id="WISYSw.tif">
	<g>
		<path class="st0" d="M893.5,740.5c-3.3,5.1-8.1,6.4-14,6.4c-45.7-0.2-91.3-0.1-137-0.1c-2.2,0-4.5,0-7.3,0c-0.2,2.6-0.4,4.8-0.4,7    c0,10.2,0.1,20.4-0.1,30.7c-0.1,7.4-3.1,10.5-10.3,10.5c-81.3,0-162.6,0-243.9,0c-6.9,0-10.1-3.1-10.3-10    c-0.2-10.2-0.1-20.4-0.1-30.7c0-2.2,0-4.5,0-7.5c-2.9,0-5.1,0-7.3,0c-45.9,0-91.7,0-137.6,0c-11.1,0-13.9-2.6-13.7-13.7    c0.3-16.2-0.5-32.7,1.9-48.7c4.1-27.5,19.7-48.2,43.2-63c1.1-0.7,2.1-1.5,3.6-2.5c-12-17.1-16.4-35.6-11.1-55.9    c3.9-15,12.4-27,24.9-36.2c24.9-18.2,59.7-16,82.7,5c21.5,19.5,30.1,55.5,8.1,86.8c6.4,5.1,13.3,9.7,19.2,15.4    c5.9,5.7,10.9,12.4,15.8,18.1c11.8-9.2,23.6-18.5,35.9-28.2c-19.5-22.9-26.8-50.1-19.4-80.5c4.9-20.2,16.3-36.5,33-48.9    c33.9-25.1,80.9-23.1,112.1,4.9c18.2,16.3,28.2,36.6,29.6,61.1c1.4,24.4-6.7,45.6-22.1,63.4c12.2,9.6,24.1,18.8,36.5,28.5    c8.4-13.1,19.9-24.7,35.1-33.2c-13.2-18.4-16.8-38.4-10.2-59.8c4.4-14.2,13.2-25.4,25.5-33.8c25.1-16.9,58.4-14.3,80.9,6    c19,17.1,32.2,52,8.1,87.4c1.4,0.9,2.7,1.9,4.1,2.8c24.8,16.1,39.6,38.4,43.5,67.9c0.1,1.1,0.7,2.1,1.1,3.1    C893.5,708.7,893.5,724.6,893.5,740.5z M715.8,776.4c0.2-2,0.4-3.6,0.4-5.3c0-13.2,0.5-26.5-0.1-39.7    c-1.8-41.4-21.7-71.4-58.2-90.9c-3.1-1.7-5.5-1.6-8.8,0.2c-31,17.8-62.3,17.7-93.3-0.1c-3-1.7-5.2-2-8.3-0.4    c-29.7,15.3-50.2,38.7-55.8,71.6c-3.6,20.6-1.9,42.1-2.6,63.3c0,0.3,0.3,0.6,0.7,1.2C564.9,776.4,640.1,776.4,715.8,776.4z     M602.7,635.6c38.5-0.3,70-31.9,70-70.3c0-38.9-31.9-70.5-71.2-70.3c-38.2,0.2-69.9,32.6-69.5,70.8    C532.6,604.4,564.4,635.9,602.7,635.6z M330.7,728c0.7,0.2,1.4,0.5,2.1,0.5c44.5,0,89,0,133.5,0.1c3.2,0,4.2-1.4,4.4-4.4    c1.2-18,6.6-34.8,15.2-50.6c1.1-2,1.1-5.5,0-7.6c-7.1-13.9-17.9-24.2-31.6-31.6c-2.9-1.5-4.9-1.3-7.7,0.3    c-22.4,12.8-45,13-67.5,0.4c-4-2.2-6.6-2-10.2,0C338,652.5,321.8,691.6,330.7,728z M804.3,728.6c21.8,0,43.5-0.1,65.3,0.1    c4.2,0,5.8-1.2,5.6-5.4c-0.3-7.2,0.1-14.4-0.1-21.5c-0.9-29.9-14.2-52.3-40.3-67c-2.6-1.5-4.7-1.9-7.7-0.1    c-22.9,13.3-46,13.3-68.9,0.1c-3-1.7-5-1.4-7.7,0c-13.2,7.1-23.3,17.2-30.8,30.1c-2.1,3.6-2.3,6.5-0.1,10.3    c8.5,14.6,13.3,30.4,14.6,47.2c0.4,4.9,1.6,6.4,6.6,6.4C761.9,728.4,783.1,728.6,804.3,728.6z M413.8,532    c-25.2-1.3-47.6,19.3-49,45c-1.4,25.8,19.1,48.5,45.3,49.9c26.3,1.5,48.7-19.4,49.9-46.5C461.1,555.1,440.4,533.4,413.8,532z     M791.8,532c-26.5,0.7-47.8,22.8-46.9,48.4c1,26.6,22.6,47.3,48.7,46.7c26.1-0.6,47.3-22.8,46.6-48.7    C839.5,552.4,817.4,531.2,791.8,532z"/>
	</g>
</g>
</svg>