<svg xmlns="http://www.w3.org/2000/svg" xmlns:xlink="http://www.w3.org/1999/xlink" version="1.1" id="Capa_1" x="0px" y="0px" style="enable-background:new 0 0 1200 1200;" xml:space="preserve" viewBox="236.57 113.3 720.36 972.07">

<g>
	<g>
		<g>
			<g>
				<g>
					<path class="st0" d="M955.9,396.4c-0.3-62.9-40.9-108.4-103.4-116c-17.4-2.1-26-5.6-33.7-21.5c-15.6-32.2-44.9-51.9-80.1-54       c-19.4-1.1-25.2-8.7-34-25.8c-18.6-36.2-54.1-60.3-94.8-64.8c-39.9-4.3-77.2,10.7-102.3,41l-5,6.2       c-21.5,26.3-38.5,47-73.9,51.2c-30,3.5-48.2,33-56.4,50.2c-4.9,10.4-8.9,15-21,16.6c-78.1,10.7-113.2,50.4-114,129       c-0.6,63.6-0.5,128.2-0.3,190.6c0,27.4,0.1,54.8,0.1,82.2l0.3,7.1c0,25.9-0.1,51.8-0.1,77.7c-0.2,65.3-0.3,132.7,0.4,199.1       c0.8,69.7,48.9,118.6,116.8,119.1c80.8,0.6,161.3,0.8,241,0.8c82.7,0,164.5-0.3,244.8-0.9c66.7-0.5,115.3-49.4,115.7-116.4       C956.9,777.5,956.9,585.2,955.9,396.4z M426.2,311.9c0.4-11.8,4.9-21.9,13-29.5c8.7-8,20.7-12.2,34.9-12.2c1.2,0,2.4,0,3.7,0.1       c38.9,1.8,58.8-13.4,66.5-51.4c4.8-23.6,23.4-37.5,50.9-38.1c29.2-0.7,48.9,13.3,54.2,38.3c7.9,37.7,27.8,53,66.6,51.2       c15.5-0.8,29.2,3.6,38.6,12.2c8.1,7.5,12.6,17.7,12.9,29.5c0.3,9.5-3.2,18.3-10.2,25.5c-9.5,9.9-24.6,15.8-41.3,16       c-28.6,0.4-57.2,0.3-85.9,0.2l-37-0.1l-35.5,0.1c-26.7,0.1-53.3,0.2-80-0.2c-16.7-0.2-31.8-6.1-41.2-16.1       C429.4,330.2,425.9,321.4,426.2,311.9z M890.5,950.2c-0.2,52.5-16.4,68.5-69.4,68.6c-149.4,0.2-298.8,0.2-448.2,0       c-53.4-0.1-69.7-16-69.8-68.1c-0.2-127.8-0.2-255.6-0.2-383.4l0-154.4c0-20.7,1-37.5,13.7-51c9.6-10.1,19.5-15.4,28.9-15.4       c0.8,0,1.6,0,2.4,0.1c9.9,1,19.3,8,27.1,20.4c21.8,34.7,51.7,52.4,88.8,52.6c77.7,0.5,162,0.5,265.2,0.1       c36-0.2,65.2-16.7,86.8-49.1c2.2-3.3,4.1-6.9,5.9-10.4c7.1-13.7,10.5-19,25.3-14.4c26.1,8.2,38.5,20.7,41.6,41.7       c1.6,11.2,1.6,23.2,1.7,34.7v1.5c0.1,65,0.1,130,0.1,195l0,62.7l0.1,79.7C890.7,824.1,890.8,887.2,890.5,950.2z"/>
				</g>
			</g>
		</g>
	</g>
	<g>
		<g>
			<g>
				<path class="st0" d="M790.2,541.7c-0.6,21.1-14.8,31.9-42.2,31.9c-49.6,0.1-99.2,0.2-148.9,0.2c-51.3,0-102.6-0.1-153.9-0.2      c-27.4-0.1-41.5-11-41.8-32.4c-0.1-9.9,2.6-17.8,8.1-23.4c8.7-8.9,22.5-10.1,36-10.2c37.4-0.1,74.7,0,112.1,0l37.4,0l42.7,0      c35.6,0,71.2,0,106.8,0c13.4,0,27.1,1.3,35.8,10.3C787.8,523.7,790.5,531.7,790.2,541.7z"/>
			</g>
		</g>
	</g>
	<g>
		<g>
			<g>
				<path class="st0" d="M790.1,702.7c-0.2,32-28,32-45.1,31.9c-34,0-67.9,0-101.9,0l-90.3,0c-35.6,0-71.2,0-106.8,0h-1.2      c-13,0-40.4-0.8-41.5-30.5c-0.4-10.2,2.3-18.4,8-24.3c9.2-9.5,23.6-10.8,35.2-10.8c99.7-0.2,199.3-0.2,299,0      c12.8,0,27,1.3,36.1,10.5C787.4,685.1,790.2,692.9,790.1,702.7z"/>
			</g>
		</g>
	</g>
	<g>
		<g>
			<g>
				<path class="st0" d="M790,865.4c-0.3,14.7-7.8,32.1-41.9,32.1h0c-100.9,0-201.7,0-302.5,0h0c-34.2,0-41.7-17.5-41.9-32.2      c-0.2-9.9,2.6-17.8,8.3-23.6c9.3-9.4,24.1-10.5,35.6-10.5c36.3,0.1,72.7,0.1,109,0.1l44.1,0l41.9,0c34.6,0,69.1,0.1,103.7-0.1      c11.5,0.2,26.3,1.1,35.6,10.5C787.4,847.5,790.2,855.5,790,865.4z"/>
			</g>
		</g>
	</g>
</g>
</svg>