<svg xmlns="http://www.w3.org/2000/svg" xmlns:xlink="http://www.w3.org/1999/xlink" version="1.1" id="Capa_1" x="0px" y="0px" style="enable-background:new 0 0 1200 1200;" xml:space="preserve" viewBox="177.83 383.33 901.96 444.75">

<g id="rqGTxk.tif">
	<g>
		<g>
			<path class="st0" d="M1077.5,399.5c-4.2-10.1-13-13.7-19.2-15.5l-0.6-0.2h-32.6l-0.7,0.3c-9.2,3.5-13.6,10.8-12.8,21     c0.2,2.3,0.1,4.7,0.1,7.2c-0.1,2.3-0.1,4.6,0,6.9c0,0.8,0,1.1,0,1.2c-0.1,0.1-0.4,0.3-1.2,0.5c-7.6,2.4-15.3,5-22.8,7.5     c-6.8,2.3-13.8,4.6-20.8,6.9c-4.7,1.5-6.8,4.4-6.7,9.4c0.2,9.7,0.1,19.3,0,27.4c0,0.4-0.2,1-0.3,1.2c-8.8,6-17.6,11.9-26.1,17.5     l-4.3,2.9c-1.2-1-2.4-1.9-3.6-2.9c-5.9-4.8-11.5-9.4-17-14.1c-0.1-0.3-0.3-0.9-0.3-1.5c-0.1-4.3-0.1-8.8-0.1-13.1     c0-3.1,0-6.3,0-9.4c-0.1-10.5-6.9-17.4-17.4-17.5c-5.2,0-10.5,0-15.7,0c-10.5,0.1-17.3,7-17.4,17.5c0,3.1,0,6.2,0,9.4     c0,4.3,0,8.8-0.1,13.1c0,0.6-0.2,1.2-0.3,1.5c-5.5,4.7-11.1,9.3-17,14.1c-1.2,1-2.4,1.9-3.6,2.9l-4.1-2.7     c-8.6-5.7-17.6-11.7-26.5-17.8c-0.1-0.3-0.1-0.7-0.2-1.1c-0.1-8.3-0.2-17.7,0-27c0.2-5.4-2-8.5-7.1-10.1     c-7.4-2.3-14.9-4.9-22.2-7.3c-6.8-2.3-13.9-4.7-20.9-6.9c-0.8-0.2-1.1-0.5-1.2-0.5c0-0.1-0.1-0.5,0-1.2c0.1-2.4,0.1-4.7,0-7     c0-2.5-0.1-4.9,0.1-7.2c0.8-10.2-3.6-17.4-12.8-21l-0.7-0.3H709l-0.5,0.1c-10.8,2.7-18,9.5-21.3,20.2l-0.2,0.6v9.7l0.9,2     c0.4,0.8,0.7,1.6,1,2.4c4.4,10.6,13.8,16.5,25.8,15.9c15.7-0.7,36.2-0.4,55.7,8.3c3.4,1.5,7,2.6,10.5,3.7     c1.6,0.5,3.1,0.9,4.7,1.5c0.9,0.3,3.6,1.2,4.2,1.8c0.1,0.5,0,1.5-0.3,2.7h-50.9V486h19.2c11.5,0,23.1,0,34.6,0h0.5     c0.7,0,1.9,0,2.3,0.1c9.4,6.1,18.9,12.5,28.1,18.6l5.1,3.4c-0.4,0.8-0.8,1.6-1.2,2.4c-2,3.9-3.8,7.6-5.5,11.5     c-15.1,34-18.9,70.7-11.7,112.2c5,28.6,14.9,51.3,30.4,69.2l0.2,0.2c0,0,0,0,0,0c0.1,6.8,0,13.6,0,20.8v1.6h-59.3v33.5h59.5     c0,1.9,0,3.8,0,5.7c0,7.1-0.1,13.8,0.1,20.7c0.3,18.2,12.1,34.2,29.3,39.8c4.4,1.4,8.9,2.1,13.3,2.1c12.9,0,25.2-5.9,33.5-16.7     c5.8-7.5,8.8-16.4,8.9-26.4c0-6.6,0-13.2,0-20.1v-5.3h59.5v-33.5h-59.5v-2.7c0-6.5,0-12.7,0.1-18.9c0.1-0.3,0.5-0.8,0.8-1.2     c0.2-0.3,0.4-0.6,0.6-0.9c1.7-2.7,3.6-5.5,5.4-8.1c4-5.8,8.1-11.8,11-18.4c17.2-38.7,20.9-80.7,11-124.8     c-3.1-13.9-8.5-27.8-16.5-42.6l5-3.3c9.2-6.2,18.7-12.5,28-18.6c0.5-0.2,2.2-0.2,2.7-0.2c11.3-0.1,22.9-0.1,34,0h20v-33.6H977     c-0.2-1-0.3-1.9-0.2-2.4c0.7-0.5,3-1.2,4.4-1.7c3.1-1,6.2-2.1,9.2-3.1c7.8-2.6,15.8-5.4,23.8-7.8c4.3-1.3,9.1-2.1,14.3-2.3     c3.9-0.2,7.9-0.2,11.8-0.2c5.9,0,11.9,0.1,17.9-0.6c7.6-0.9,14.1-5.2,18-11.8C1080.1,415.6,1080.6,407,1077.5,399.5z      M709.7,417.8c-3.1-0.2-6-4.1-6.1-8.2c-0.1-3.6,2.5-8,5.9-8.3c5.3-0.4,10.7-0.5,16-0.5c4.2,0,8.4,0.1,12.3,0.2     c0.2,0.1,0.4,0.3,0.5,0.5c0.2,4.9,0.2,9.7,0.2,14.8c0,0.6,0,1.1,0,1.7c-2,0-4,0-5.9,0C724.6,418.1,717.2,418.1,709.7,417.8z      M874.5,453.1c0-0.7,0.1-1,0.1-1c0,0,0.4-0.2,1.4-0.2c4.9,0,9.8,0,14.7,0c1,0,1.3,0.2,1.3,0.2c0,0,0.2,0.3,0.2,1.1     c0,4.6,0,9.2,0,14v2.1h-17.7V453.1z M909,744.5c0.1,12.9,0.1,26.3,0.1,39.4c0,13.1-7,22.9-18.6,26.3c-7.4,2.2-15.3,1-21.7-3.4     c-6.4-4.3-10.4-11.1-11.2-18.8c-0.2-2-0.2-4.2-0.2-6c0-16.8,0-33.7,0-50.5v-14.7c0-7,0-14,0-21c0-15.2,0-31,0-46.5     c0-11.1,5-19.1,14.6-23.8c9.4-4.6,18.5-3.7,27,2.8c6.9,5.2,10.2,12.4,10.2,22l-0.1,7.9c-0.1,16.1-0.2,32.7-0.2,49.1     C908.9,719.6,909,732.2,909,744.5z M943.2,604.6c-1,26.1-6.2,48.2-15.8,67.6c-0.5,1.1-1.1,2.1-1.7,3.2c0-2.9,0-5.8,0-8.7     c0.1-7.9,0.1-16.1-0.8-24.1c-2.6-22-22-37.6-45.2-36.1c-21.4,1.3-38.6,19.6-39,41.5c-0.2,7.9-0.1,16-0.1,23.8c0,1.2,0,2.5,0,3.7     c-8.9-16.5-14.3-35.6-16.6-58.2c-3.6-35.6,1.3-66.4,15-94.1c4.4-9,8.6-15.6,13.1-20.9c8.9-10.5,19.6-16,30.9-16     c0.6,0,1.2,0,1.8,0c12.3,0.6,24.4,7.9,32.3,19.5C936.3,533.6,944.8,565.8,943.2,604.6z M1053.9,418.1c-6.8,0.1-13.4,0.1-20.5,0     c-1.8,0-3.5,0-5.3,0v-2.5c0-4.8,0-9.4,0-14c0-0.6,0.1-0.9,0.1-0.9c0,0,0.3-0.2,1.1-0.2c2.1,0,4.2,0,6.3,0     c6.2-0.1,12.5-0.1,18.7,0.2c4.9,0.2,8.6,4,8.6,8.8C1062.9,414.4,1059.1,418.1,1053.9,418.1z"/>
		</g>
		<g>
			<path class="st0" d="M913.5,516.5c-8.1-8.2-18.7-12.8-30-12.8h-0.2c-23.2,0-42.2,18.8-42.4,42.1c-0.1,11.3,4.2,22,12.3,30.2     c4,4.1,8.7,7.3,13.8,9.4c5.1,2.2,10.6,3.3,16.2,3.3h0.2c23.2,0,42.2-18.8,42.5-42.1C925.9,535.3,921.6,524.6,913.5,516.5z      M909.2,546.1v0.1c0,14.1-11.5,25.7-25.7,25.8h-0.2c-14.3,0-25.6-11.2-25.8-25.6c-0.2-14.2,11.2-25.9,25.5-26.1h0.4     c6.8,0,13.3,2.6,18.1,7.4C906.4,532.6,909.2,539.1,909.2,546.1z"/>
		</g>
		<g>
			<path class="st0" d="M908.4,658.2c0.1,2.2-1.1,3.9-2,5c-0.2,0.2-0.3,0.4-0.4,0.6l-3.5,5.2c-9.2,13.9-18.7,28.2-28.2,42.2     c-1,1.6-2.4,2.8-3.3,3.7c-0.3,0.2-0.5,0.5-0.7,0.7l-1.2,1.2l-1.7,0h-0.2c-3.3,0-6-1.2-7.7-3.4c-1.5-2-2-4.5-1.2-7     c0.5-1.6,1.3-2.9,2-3.9l0.2-0.4c9.4-14.1,18.8-28.1,28.1-42.2l3.7-5.6c0.1-0.1,0.1-0.3,0.2-0.4c0.5-1,1.5-2.8,3.6-3.4l0.4-0.1     c2.2-0.6,5.2-1.5,7.8-0.2C907.4,651.5,908.2,655.3,908.4,658.2z"/>
		</g>
		<g>
			<path class="st0" d="M906.5,731.4c-0.1,0.1-0.2,0.3-0.3,0.4l-6.4,9.7c-8.4,12.6-17.1,25.7-25.7,38.5c-1.1,1.6-2.4,2.8-3.4,3.7     c-0.3,0.3-0.5,0.5-0.8,0.7l-1.2,1.2l-1.7,0c-3.6,0-6.8-1.8-8.3-4.6c-1.3-2.5-1.2-5.5,0.4-7.9c11.6-17.7,23.4-35.4,35-52.4     c1.4-2.1,4.1-2.7,5.5-3c2.2-0.3,4,0,5.3,1.1c2.3,1.9,2.8,5,3.2,7.3l0.1,0.5C908.6,728.8,907.2,730.5,906.5,731.4z"/>
		</g>
	</g>
</g>
<g>
	<g>
		<path class="st0" d="M631.2,565.6l27.1-27.1c3.8-4.1,3.8-10.4,0-14.5c-4.1-3.8-10.4-3.8-14.5,0l-24.1,23.8l-51.4-136    c-2.5-6.4-6.8-11.9-12.5-15.8s-12.4-6-19.2-6H303.5c-6.9,0-13.6,2.1-19.2,6c-5.7,3.9-10,9.4-12.5,15.8l-52,136L196,523.9l0,0    c-4.2-2.5-9.5-1.8-12.9,1.6c-3.4,3.4-4.1,8.7-1.6,12.9l26.8,27.2c-8.3,1-16,5-21.6,11.3s-8.6,14.4-8.6,22.8v122.7    c0,7.5,2.5,14.9,7,20.9c4.6,6,11,10.4,18.2,12.4v31.7c0,6.5,2.6,12.8,7.2,17.4c4.6,4.6,10.9,7.2,17.4,7.2h80.7    c6.5,0,12.8-2.5,17.4-7.1s7.2-10.9,7.2-17.4V757h172.9v30c-0.1,6.6,2.4,13,7,17.7c4.6,4.7,11,7.4,17.6,7.3h80.7    c13.5,0,24.5-11,24.5-24.5v-31.7c7.3-2,13.7-6.4,18.2-12.4c4.6-6,7-13.3,7-20.9V599.7c0-8.4-3.1-16.5-8.6-22.8    C647.2,570.7,639.5,566.6,631.2,565.6L631.2,565.6z M290.5,418.8c2.1-5.3,7.3-8.7,13-8.5H536c5.5,0,10.5,3.5,12.5,8.7l55.4,146.2    H235.1L290.5,418.8z M312.8,787c0,2.3-1.8,4.1-4.1,4.1H228c-2.2-0.1-4.1-1.9-4.1-4.1v-30h88.9V787z M419.8,666.2h58.5v70.3H361.9    v-70.3H419.8z M611.5,790.9h-80.7c-2.3,0-4.1-1.9-4.1-4.1V757h88.9v30C615.5,789.2,613.7,790.9,611.5,790.9L611.5,790.9z     M640.8,722.2L640.8,722.2c0,3.7-1.4,7.3-4.1,9.9c-2.6,2.6-6.2,4.1-9.9,4.1H498.7V656c0-2.8-1.1-5.5-3.1-7.5s-4.7-3.1-7.5-3.1    H350.7l0,0c-5.8,0-10.6,4.7-10.6,10.6v80.4H212.7c-3.7,0-7.3-1.5-9.9-4.1c-2.6-2.6-4.1-6.2-4.1-9.9V599.7c0-7.7,6.3-14,14-14    h414.2c3.7,0,7.2,1.5,9.9,4.1c2.6,2.6,4.1,6.2,4.1,9.9L640.8,722.2z"/>
	</g>
	<g>
		<path class="st0" d="M280.6,613.7c-11.2,0-22,4.5-29.9,12.4s-12.4,18.7-12.4,29.9s4.5,22,12.4,29.9s18.7,12.4,29.9,12.4    c11.2,0,22-4.5,29.9-12.4s12.4-18.7,12.4-29.9s-4.5-22-12.4-29.9C302.5,618.1,291.8,613.7,280.6,613.7z M280.6,677.8    c-8.9,0-16.8-5.3-20.2-13.5c-3.4-8.2-1.5-17.6,4.8-23.9c6.3-6.2,15.7-8.1,23.9-4.7c8.2,3.4,13.5,11.4,13.4,20.3    c0,5.8-2.3,11.3-6.4,15.4C291.9,675.6,286.4,677.8,280.6,677.8L280.6,677.8z"/>
	</g>
	<g>
		<path class="st0" d="M559.2,613.7c-11.2,0-22,4.5-29.9,12.4s-12.4,18.7-12.4,29.9s4.5,22,12.4,29.9s18.7,12.4,29.9,12.4    s22-4.5,29.9-12.4s12.4-18.7,12.4-29.9s-4.5-22-12.4-29.9C581.2,618.1,570.4,613.7,559.2,613.7z M559.2,677.8    c-8.9,0-16.9-5.3-20.3-13.5s-1.5-17.6,4.7-23.9c6.3-6.3,15.7-8.1,23.9-4.7c8.2,3.4,13.5,11.4,13.5,20.3    C580.9,668,571.2,677.8,559.2,677.8L559.2,677.8z"/>
	</g>
</g>
</svg>