<svg xmlns="http://www.w3.org/2000/svg" xmlns:xlink="http://www.w3.org/1999/xlink" version="1.1" id="Capa_1" x="0px" y="0px" style="enable-background:new 0 0 1200 1200;" xml:space="preserve" viewBox="297.68 423.82 575.03 351.46">

<g>
	<g id="m43eFp_00000163789725618099218680000013127348794620740778_">
		<g>
			<path class="st0" d="M585,775c-52.7,0-102.1-13-148.4-38c-38.3-20.7-71.4-48-100.1-80.8c-12.9-14.7-24.8-30.3-35.4-46.8     c-4.2-6.5-4.2-13.2,0-19.7c25.4-38.9,56.2-72.9,93.5-100.7c35.4-26.4,74.3-45.5,117.3-56.1c21.4-5.3,43.1-8.2,65.2-8.7     c49.4-1.3,96.4,8.9,141,29.9c33.8,15.9,64,37.3,91.1,62.9c22.7,21.5,42.3,45.5,59.6,71.6c4.8,7.3,4.9,14.5,0,21.9     c-23.8,36-52.1,67.8-86.1,94.5c-40,31.3-84.5,53-134.3,63.6c-18.1,3.9-36.5,6-55,6.4C590.6,775,587.8,775,585,775z M585.4,739.7     c0,0.2,0,0.4,0.1,0.6c12.3-1,24.7-1.6,37-3.2c37.4-5.1,72.3-17.8,104.7-37c42.2-25.1,76.4-58.7,104.8-98.5c1.1-1.5,1-2.6-0.1-4     c-22.2-31.2-48.2-58.7-79.1-81.4c-31.4-23.1-65.9-39.8-103.8-49c-33.2-8.1-66.8-9.8-100.7-5.1c-37.4,5.2-72.3,17.8-104.7,37     c-42.3,25.1-76.7,58.8-105.1,98.8c-1,1.5-0.7,2.4,0.2,3.6c13.2,18.4,27.7,35.7,43.9,51.5c23.9,23.2,50.4,42.6,80.2,57.5     C501.4,729.7,542.2,739.5,585.4,739.7z"/>
			<path class="st0" d="M486.5,597.6c1-52.7,43.9-95.7,96.9-96.7c55.8-1,101.6,44.5,100.7,100.4c-0.9,53.8-45.5,98.2-101,97.1     C529.4,697.2,485.4,652.6,486.5,597.6z M522,599.6c-0.1,34.7,28.3,63.2,62.9,63.3c34.9,0.1,63.6-28.2,63.6-62.8     c0.1-35.1-28.2-63.7-62.9-63.8C550.5,536.2,522.1,564.5,522,599.6z"/>
		</g>
	</g>
</g>
</svg>