<svg xmlns="http://www.w3.org/2000/svg" xmlns:xlink="http://www.w3.org/1999/xlink" version="1.1" id="Capa_1" x="0px" y="0px" style="enable-background:new 0 0 1200 1200;" xml:space="preserve" viewBox="346.23 363.85 494.35 500.92">

<g id="mMUkzE.tif">
	<g>
		<g>
			<path class="st0" d="M696.1,730.6c0-5-1.5-10.6-3.9-15.4c-3.7-7.3-8.3-14.6-13.6-21.8c-2-2.6-4.6-4.7-7.2-6.7     c-1.3-1-2.7-2.1-3.9-3.2c-0.5-0.5-1.1-0.9-1.7-1.4c-1.6-1.4-3.3-2.8-4-4.4c-6.8-17-13.5-34.4-20.1-51.2     c-2.2-5.6-4.3-11.1-6.5-16.7c-5.8-14.9-14.6-21-30.3-21c-57.2,0-113.5,0-167.4,0c-15.4,0-24.4,6.2-30,20.7     c-2.9,7.5-5.8,14.9-8.8,22.4c-5.9,15.1-12,30.7-18.1,46c-0.8,2.1-2.6,4.2-4.3,5c-10.7,5.2-29.4,33.1-29.8,44.5c0,0.3,0,0.6,0,0.9     v0.2c0,10.2,0,20.3,0,30.5c0,24.1,0,48.9,0.1,73.4c0.1,19.8,12,31.8,31.8,32c11.7,0.1,23.4,0.1,34.3,0     c20.7-0.1,32.6-12.1,32.7-32.8c0-5.8,0-11.5,0-17.6c0-2.4,0-4.8,0-7.3h15.7c10.2,0,20.4,0,30.7,0c32.9,0,66.8,0,100.2-0.1     c2.4,0,3.7,0.3,4.4,1c0.6,0.7,0.9,2,0.8,4.2c-0.4,7.2-0.2,14.6-0.1,21.1c0.5,19.2,12.8,31.2,32,31.5c5.5,0.1,11.1,0.1,17.1,0.1     c5.7,0,11.6,0,17.8-0.1c20.1-0.2,32.2-12.2,32.2-32.2C696.3,799.8,696.4,765.2,696.1,730.6z M676.5,836.4c-0.3,5-4.3,8.5-9.9,8.6     c-13.2,0.3-26.6,0.3-39.7,0c-5.6-0.1-9.7-3.9-9.9-9.2c-0.3-6.9-0.2-13.7-0.2-21c0-2.7,0-5.4,0-8.1h59.8c0,2.4,0,4.9,0.1,7.4     C676.8,821.4,676.9,828.9,676.5,836.4z M407.2,663.8c7-17.6,13.5-34.3,20.4-51.2c1.5-3.8,5.3-4.6,10.3-4.6h0     c11.7,0,23.5,0,35.2,0H504c32.7,0,65.3,0,98,0c11,0,12.4,0.9,16.3,10.9c7.4,19,14.8,38.1,22.2,57.1c0.5,1.2,0.9,2.4,1.4,3.9     c0.1,0.2,0.2,0.4,0.2,0.7c-1.5,0-2.9,0-4.2,0c-5.6,0-10.9,0.1-16.1-0.2c-0.6-0.1-2-1.8-2.4-3.3c-5.7-20.1-18.3-33.2-37.5-39     c-14-4.2-28.8-2.7-41.6,4.3c-12.8,7-22,18.5-26,32.5c-1.3,4.7-2.9,5.9-7.5,5.8c-16.9-0.1-33.9-0.2-50.8-0.2c-8.4,0-16.8,0-25,0     c-8.4,0-16.8,0-25.2,0h-5.4C402.8,675.1,405,669.4,407.2,663.8z M599.9,680.2h-66.5c1.5-11.6,15.4-23.5,29.7-24.8     C580.1,653.7,595.5,664.3,599.9,680.2z M426.2,822.3c0,3.7,0,7.4,0,11.1c-0.2,7.7-4,11.5-11.6,11.6c-11.7,0.2-24.1,0.2-36.9,0     c-7.6-0.1-11.6-4-11.7-11.5c-0.1-6.8-0.1-13.6-0.1-20.1c0-2.3,0-4.5,0-6.8h13.7c14.9,0,28.9,0,43.2-0.1c1.5,0,2.4,0.2,2.8,0.6     c0.4,0.4,0.5,1.2,0.5,2.5C426.1,813.9,426.2,818.2,426.2,822.3z M559.5,787.2H377.9c-10.6,0-11.9-1.4-11.9-12.1     c0-3.8,0-7.5,0-11.3c0-10.2-0.1-20.8,0.2-31.2c0.1-4,1.8-8,3.1-10.7c1.6-3.1,3.5-6,5.4-8.9c1.5-2.3,3-4.6,4.4-7     c2.4-4.1,5.5-5.8,10.5-5.7c5,0.2,10.1,0.1,15.1,0.1c2.2,0,4.3,0,6.5,0h50.8c62.1,0,126.2,0,189.4-0.1c6.2,0,9.9,2,14.1,7.6     c9.6,13,13.4,26,11.8,41.1c-0.6,6.1-0.5,12.4-0.3,18.5c0.1,2.9,0.1,5.8,0.1,8.7c0,9.1-1.9,11-10.9,11     C630.6,787.2,595,787.2,559.5,787.2z"/>
		</g>
		<g>
			<path class="st0" d="M789.8,364.2c-33.3-0.1-63.5-0.1-92.2,0c-29.5,0.1-50.2,20.7-50.3,50.1c-0.2,28.8-0.2,59.1,0,92.8     c0.1,29.5,21,50.2,50.7,50.4c7.4,0,15,0,22.3,0c4,0,8,0,11.9,0c2.6,0,4.7,0,5.1,0.5c0.5,0.5,0.5,2.6,0.5,5.3v284.5     c0,0.5,0,1,0,1.6c0,1.5,0,3.1,0.1,4.6c0.5,6.1,4.2,10.1,9.5,10.3h0.3c5.3,0,9.1-4.2,9.6-10.5c0.1-1.4,0.1-2.9,0.1-4.2     c0-0.5,0-1,0-1.4V563.1c0-2.6,0-4.7,0.5-5.1c0.5-0.5,2.6-0.5,5.3-0.5c3.1,0,6.1,0,9.2,0c6.6,0,13.4,0.1,20.1-0.1     c13.3-0.4,25.4-5.6,34.2-14.7c8.8-9,13.6-21.3,13.6-34.7c0-31.1,0-62.2,0-93.4C840.2,385.1,819.5,364.3,789.8,364.2z      M820.9,506.6c-0.1,19.3-12.1,31.3-31.3,31.3c-31,0.1-61.8,0.1-91.6,0c-19.3-0.1-31.4-12.1-31.4-31.3c-0.1-31.2-0.1-62,0-91.7     c0.1-19.3,12.1-31.3,31.4-31.4c14.7-0.1,29.6-0.1,45.1-0.1c15,0,30.4,0,46.6,0.1c19.2,0.1,31.2,12.1,31.4,31.4     c0.1,10.6,0.1,21.3,0,31.7c0,4.7,0,9.4,0,14.1c0,4.7,0,9.3,0,14C820.9,485.2,820.9,496,820.9,506.6z"/>
		</g>
		<g>
			<path class="st0" d="M662,740.3c-0.2-14.8-9.4-24.3-24-24.9c-4.9-0.2-9.8-0.1-14.5-0.1c-2.2,0-4.3,0-6.5,0h-1.5v0.3     c-1.9,0-3.9,0-5.8-0.1c-5.4-0.1-11-0.2-16.5,0.2c-11.4,0.9-20.5,10.6-21,22.5c-0.2,4.3-0.1,8.6-0.1,12.2     c0.3,13.8,9.8,23.7,23,24.2c7.5,0.3,14.8,0.4,22.1,0.4c7.6,0,15-0.1,22.2-0.4c13.4-0.5,22.3-9.9,22.7-23.8     C662.1,747.1,662.1,743.2,662,740.3z M629.3,755.7h-12.1c-2.1,0-4.2,0-6.4,0c-4.2,0-8.6,0-12.9-0.1c-5.1-0.1-6.3-1.3-6.5-6.7     c-0.3-7.4-0.2-11,1.3-12.6c1.5-1.6,5.1-1.7,12.4-1.7h8.9c7,0,14.3,0,21.5,0c5.8,0,7.1,1.3,7.3,7c0.2,6.6,0.3,10.7-1.3,12.3     C639.9,755.6,635.8,755.7,629.3,755.7z"/>
		</g>
		<g>
			<path class="st0" d="M445.3,715.3c-4.4-0.1-9-0.1-13.3,0c-2,0-4,0-6,0h-1.5l0,0.2c-1.8,0-3.7,0-5.5-0.1     c-5.2-0.1-10.5-0.2-15.7,0.2c-12.9,0.9-21.9,10.4-22.3,23.6c-0.1,3.6-0.1,7.2,0,10.6c0.2,15.4,9.3,24.8,24.3,25.1     c5.7,0.1,11.5,0.2,17.3,0.2c5.4,0,10.8,0,16.1-0.1c2.7,0,5.4,0,8.1,0c9.9-0.1,17.3-4.4,20.4-11.8c3-7.2,3.5-15.5,3.6-21.9     C471,725.3,461.5,715.7,445.3,715.3z M438.6,755.7H426c-2,0-4.1,0-6.1,0c-4.1,0-8.4,0-12.6,0c-5.6-0.1-6.8-1.2-7-6.7     c-0.3-7.4-0.2-11,1.3-12.6c1.5-1.5,5.1-1.7,12.4-1.7h0c3,0,5.9,0,8.9,0c7,0,14.3,0,21.5,0c5.9,0,7.3,1.4,7.4,7.5     c0.1,7,0,10.4-1.4,11.9C448.8,755.5,445.4,755.7,438.6,755.7z"/>
		</g>
		<g>
			<path class="st0" d="M556.2,745.3c-0.1,6-4.4,9.5-12,9.6c-5.2,0-10.6,0-15.7,0c-2.3,0-4.6,0-6.9,0c-2.3,0-4.7,0-7,0     c-2.3,0-4.7,0-7,0c-3,0-6.1,0-9.1,0c-7.4-0.1-11.8-3.8-11.7-9.8c0.1-6,4.4-9.5,12-9.5c16.4-0.1,31.3-0.1,45.8,0     c4.1,0,7.3,1.1,9.3,3.2C555.4,740.3,556.3,742.6,556.2,745.3z"/>
		</g>
		<g>
			<path class="st0" d="M756.3,413.5c-9.1-1-18.5-0.7-27.7-0.5c-4,0.1-8.2,0.2-12.4,0.2h-1.1l-0.3,1.1c-0.1,0.2-0.1,0.4-0.2,0.5     c-0.1,0.4-0.3,0.8-0.3,1.3l0,18c0,23.8-0.1,48.4,0,72.6c0,6,3.9,10.1,9.6,10.1c5.7,0,9.3-3.9,9.5-10.1c0.2-8.2,0.2-15.5,0-22.2     c-0.1-1.7,0.1-2.7,0.6-3.2c0.5-0.5,1.5-0.7,3.1-0.7c5.6,0.2,12.2,0.2,18.4-0.8c15.9-2.6,26.6-15.8,26.8-32.9     C782.6,429.5,771.4,415.1,756.3,413.5z M763.1,446.3c0.1,7.9-3.8,13.4-10.3,14.3c-5.2,0.8-10.6,0.6-15.9,0.5l-1.9-0.1     c-0.4-0.2-1.3-1.2-1.3-1.6c-0.2-7.2-0.1-14.3-0.1-21.8c0-1.8,0-3.6,0-5.4c1.8,0,3.5-0.1,5.2-0.1c4.7-0.1,9.2-0.2,13.6,0.2     C758.6,432.9,763,438.7,763.1,446.3z"/>
		</g>
	</g>
</g>
</svg>