<?xml version="1.0" standalone="no"?>
<!DOCTYPE svg PUBLIC "-//W3C//DTD SVG 20010904//EN"
 "http://www.w3.org/TR/2001/REC-SVG-20010904/DTD/svg10.dtd">
<svg version="1.0" xmlns="http://www.w3.org/2000/svg"
 width="512.000000pt" height="512.000000pt" viewBox="0 0 512.000000 512.000000"
 preserveAspectRatio="xMidYMid meet">
<style type="text/css">
	.st0{fill:#999999;}
</style>
<g transform="translate(0.000000,512.000000) scale(0.100000,-0.100000)"
fill="#000000" stroke="none">
<path class="st0" d="M2322 5104 c-630 -76 -1194 -476 -1467 -1039 -91 -188 -141 -350
-171 -555 -23 -158 -15 -451 16 -595 124 -580 456 -1137 1058 -1780 l150 -160
-187 -5 c-177 -5 -189 -7 -245 -33 -92 -43 -139 -88 -223 -215 -118 -179 -146
-267 -124 -385 24 -133 109 -243 228 -300 l68 -32 1135 0 1135 0 68 32 c195
93 284 317 203 513 -30 75 -167 280 -213 320 -20 18 -67 47 -103 64 -64 30
-68 31 -252 36 l-187 5 151 160 c601 640 933 1200 1059 1785 20 92 23 134 23
340 1 218 -1 244 -26 361 -124 575 -486 1040 -1013 1300 -343 169 -701 229
-1083 183z m523 -208 c258 -44 531 -160 735 -312 36 -27 109 -92 164 -144 244
-235 394 -499 472 -835 27 -113 28 -134 28 -340 0 -253 -12 -331 -89 -561
-163 -492 -512 -1002 -1059 -1550 -216 -215 -512 -484 -534 -484 -27 0 -367
308 -582 526 -601 612 -963 1197 -1082 1744 -19 91 -22 134 -22 325 0 206 1
227 28 340 75 320 206 562 430 794 272 280 608 450 1001 506 123 18 382 13
510 -9z m-618 -4212 c53 -47 141 -121 195 -165 134 -107 142 -107 276 0 54 44
142 118 195 165 l96 86 269 0 c268 0 268 0 319 -26 45 -22 61 -39 116 -123 93
-141 101 -158 101 -221 -1 -61 -18 -102 -61 -142 -64 -61 -1 -58 -1175 -58
-1016 0 -1075 1 -1113 19 -81 36 -135 131 -120 210 9 45 23 73 102 192 55 84
71 101 116 123 51 26 51 26 319 26 l269 0 96 -86z"/>
<path class="st0" d="M2455 4509 c-535 -41 -993 -417 -1129 -927 -116 -432 4 -881 319
-1198 149 -150 326 -259 525 -322 138 -44 227 -57 390 -57 80 0 179 6 220 14
176 31 380 117 530 222 152 106 314 295 398 464 194 388 167 866 -69 1225
-263 400 -705 616 -1184 579z m330 -219 c204 -40 376 -133 531 -285 151 -148
236 -293 290 -491 24 -87 27 -117 27 -254 0 -135 -4 -168 -26 -252 -102 -387
-395 -675 -785 -774 -363 -92 -758 16 -1025 280 -138 136 -234 302 -284 491
-23 88 -26 119 -26 255 0 134 4 168 26 251 51 193 139 344 286 490 262 260
614 363 986 289z"/>
<path class="st0" d="M2295 3918 c-11 -6 -28 -20 -37 -32 -16 -19 -18 -68 -18 -629 l0
-609 29 -29 c40 -40 89 -40 133 0 l33 29 3 216 3 216 97 0 c210 1 312 32 409
123 99 93 139 196 130 333 -11 191 -152 347 -346 384 -73 14 -410 13 -436 -2z
m461 -215 c194 -103 151 -372 -65 -413 -30 -5 -98 -10 -152 -10 l-99 0 0 226
0 226 138 -4 c117 -3 143 -7 178 -25z"/>
</g>
</svg>
