<?xml version="1.0" encoding="utf-8"?>
<!-- Generator: Adobe Illustrator 23.1.0, SVG Export Plug-In . SVG Version: 6.00 Build 0)  -->
<svg version="1.1" id="Capa_1" xmlns="http://www.w3.org/2000/svg" xmlns:xlink="http://www.w3.org/1999/xlink" x="0px" y="0px"
	 viewBox="0 0 612 792" style="enable-background:new 0 0 612 792;" xml:space="preserve">
<style type="text/css">
	.st0{fill:#FFFFFF;}
</style>
<g>
	<g id="pFjmcD.tif_3_">
		<g>
			<path class="st0" d="M163,123.2c6.9,2.8,13.3,5.8,19.9,8.1c18.7,6.7,38.1,9.4,58,8.2c20.7-1.2,40.4-6.3,58.8-15.7
				c1.6-0.8,2.7-0.7,4.2,0.1c17.7,8.7,36.4,13.8,56.2,15.3c27.6,2.1,53.6-3.3,78.3-15.4c0.6-0.3,1.1-0.5,2-1
				c0.1,0.9,0.2,1.7,0.2,2.4c0,82.5,0.2,165.1-0.1,247.6c-0.1,25.5-18.5,45.6-42.2,51.6c-7.8,2-15.8,1.4-23.7,1.8
				c-19.3,0.8-38.2,3.7-56,11.7c-5.2,2.3-10.1,5.1-15.1,7.8c-1.4,0.7-2.3,0.8-3.7,0c-16.7-10.3-34.9-16.3-54.4-18.1
				c-9.7-0.9-19.4-1.4-29.2-1.6c-26.2-0.5-49.1-20.5-52.9-46.3c-0.3-2.3-0.5-4.7-0.5-7c0-82.2,0-164.4,0-246.5
				C163,125.3,163,124.3,163,123.2z M395.4,178.7c-2.3,0.8-3.9,1.5-5.6,2.1c-10.7,3.4-21.7,4-32.9,3.3c-18.2-1.1-35.8-4.5-52.5-11.9
				c-0.9-0.4-2.2-0.6-3-0.2c-13.4,6.1-27.6,9.4-42.2,11.2c-12,1.5-23.9,2-35.8-0.3c-4.4-0.9-8.6-2.4-13.2-3.7c0,0.9-0.1,1.9-0.1,2.8
				c0,55.1,0,110.2,0.1,165.2c0,14.1,8.9,27.1,21.9,32.5c6.1,2.5,12.4,2.8,18.9,2.8c17.3,0.2,34,3.1,49,12.3
				c1.5,0.9,2.6,0.6,3.9-0.2c7.7-4.5,15.9-7.8,24.6-9.6c9.9-2.1,20-2.3,30.1-2.6c18.8-0.6,37-15.6,37-37.7
				c-0.1-54.1,0-108.2,0-162.3C395.4,181.3,395.4,180.2,395.4,178.7z M193.5,293c0-0.3-0.1-0.5-0.1-0.8c1.9-0.9,4-1.5,5.8-2.6
				c7.2-4.3,7.9-12.5,1.6-17.5c-6.2-4.8-16.1-4.8-22.2,0c-6.7,5.2-6.3,13.4,1.1,17.6c2.5,1.5,5.5,2.1,8.3,3.1
				c0.1,0.2,0.1,0.4,0.2,0.5c-3.8,0.3-7.6,0.6-11.7,0.9c2.9,6.6,8.1,3.5,13.3,3.5c-1.6,4.2-3,8.1-4.6,12.6c-2.2-4.6-5.2-7.3-9.3-8.4
				c-1.6-0.5-3.4,0-5.2,0.1c0.2,1.8,0.3,3.5,0.5,5.2c0,0.3,0.3,0.7,0.5,1c2.2,3.6,5.5,5.4,9.5,6c2,0.3,2.5,1.2,2.2,3.1
				c-0.3,2.5-0.6,5.1-0.3,7.5c0.3,3.2,1.1,6.4,1.8,10.3c1.8-1.3,2.7-2.1,3.8-2.7c2.1-1.2,2.3-2.7,1.4-4.9c-2.4-5.5-2.2-11-0.1-16.6
				c1.7-4.4,3.2-8.9,4.8-13.6c8.7-0.6,10-1.3,9.8-5.5C200.8,292.3,197.2,292.7,193.5,293z M390.3,380.9c-1.6,6.9,4.4,7.5,8.8,10.2
				c-3.4,2.1-6.2,4.1-9.1,5.6c-7.7,4-13,10.1-16.8,17.8c-0.5,1-0.7,2.1-1.1,3.6c1.7,0,3-0.1,4.2,0c2.4,0.3,3.5-0.7,4.1-3.1
				c0.6-2.3,1.9-4.5,2.9-6.8c9.1,4.7,15.9,4.4,19.6-0.5c-3.3-3.9-7.9-4.8-13.3-5c4.8-3.2,9.1-6.1,13.5-9.1c6.8,4.3,9.4,4.6,11.2,1.1
				c-2.9-1.7-5.8-3.3-8.8-5c3.3-0.2,6.3,0.3,9.2,0.2c6.9-0.4,11-6.3,9.2-13c-1.7-6.6-8.4-12-15.5-12.6c-5.9-0.5-10.3,1.6-12.4,5.8
				c-2.1,4.2-0.8,9.8,3.1,13.9c0.6,0.6,1.1,1.2,1.7,1.9c-0.2,0.2-0.3,0.5-0.5,0.7C397,384.9,393.8,383,390.3,380.9z M298.5,414.2
				c-0.3,0-0.7-0.1-1-0.1c0-1,0-1.9-0.1-2.9c-0.6-5-2.7-9-7.4-11.2c-3.9-1.8-7.6-0.9-10.9,1.6c-6.5,4.8-8.5,14.4-4.4,21.4
				c4,6.9,12.2,8.1,17.8,2.5c1.7-1.7,2.9-3.8,4.3-5.8c0.2,0,0.4,0.1,0.6,0.1c-0.9,3.3-1.8,6.6-2.7,9.8c3.1,0.7,5.9-0.2,6.1-3.1
				c0.4-5.5,3.7-6,8-6.2c3.1-0.2,6.1-1.2,10-2.1c-4,3.3-5.6,7-6.3,11.2c-0.3,1.8,0.4,2.3,2.1,2c5.6-1.2,9.3-4.5,11.2-9.9
				c0.3-1,0.6-2,1-3.5c2.8,1.2,5.4,2.3,7.9,3.3c0.8,0.3,1.9,0.7,2.4,0.4c1.7-1.2,3.3-2.7,5.5-4.6c-3.5-1.1-6.2-2.2-9-2.8
				c-7.8-1.9-15.6-1-23.2,1.2c-2.2,0.6-4.7,0.6-7.2,0.9c2-10.4,1.8-11.5-2.1-12C300,407.7,299.2,410.9,298.5,414.2z M186.9,169
				c-5.9-0.8-12.7,2.7-14.2,7.7c-2.6,9,3.9,12.4,10.6,15.3c-0.1,0.2-0.2,0.5-0.3,0.7c-3.4-0.4-6.8-0.8-10.2-1.2
				c-0.4,4.1,0.9,4.8,10.1,5.6c0.6,2.5,1.1,4.9,1.8,7.3c0.8,2.4,1.9,4.8,3,7.5c-6.6-3.3-7.9-3.7-11.4-3.7c-2.9,0-3.3,0.8-2.2,3.5
				c1.8,4.2,5.3,6.3,9.4,7.5c1.6,0.5,3.3,0.6,5.6,1.1c-0.8,2.8-1.7,5.5-2.3,8.1c-0.2,0.7-0.3,1.9,0.2,2.3c1.4,1.4,3,2.5,4.6,3.7
				c2.2-3.3,3-10.5,2.5-16.1c-0.5-5.5-2.7-10.4-4.8-15.4c-0.7-1.6-0.9-3.5-1.3-5.4c11.2,0.5,11.7,0.4,12.4-3.6
				c-3.6-0.3-7.2-0.5-10.7-0.8c11.2-4.6,14.8-8.5,13.3-14.8c-1.2-5.3-7.8-9.9-13.3-9.3c0.2,0.2,0.3,0.5,0.5,0.6
				c4.3,4,5.2,14.2,1.6,18.8c-2.8,3.6-7,3.3-9.2-0.7c-0.5-0.9-0.9-2-1.1-3C180.3,178.7,181.7,173.3,186.9,169z M200,389.2
				c0.2,0.1,0.3,0.2,0.5,0.3c-3.2,1.8-6.4,3.6-9.6,5.4c2.3,3.4,4.6,3.2,11.6-1.4c2.1,1.6,4,3.3,6.2,4.8c2.2,1.5,4.5,2.7,7.2,4.3
				c-9.6,1.5-11.5,2.3-13.7,5.7c6.4,5.3,13,3.9,19.9-0.1c1.1,2.7,2,5.2,3.1,7.7c0.3,0.8,0.9,1.9,1.4,2c2.1,0.2,4.2,0.1,6.6,0.1
				c-1.6-5.6-4.7-9.8-8.1-13.7c-3.7-4.3-8.6-6.7-13.4-9.5c-1.8-1-3.3-2.5-5.2-3.9c9-5.1,9.9-6.3,7.8-10c-3.1,1.9-5.7,4.8-10.3,5.3
				c1.4-1.5,2.3-2.5,3.2-3.5c5.8-7.1,3-16.2-5.4-18.1c-8.3-1.8-18,4-20.3,12.1c-1.9,6.8,2.3,13,9.4,13.3
				C194,390.1,197,389.5,200,389.2z M412.1,293.1c-4.1-0.4-7.6-0.8-11.2-1.1c-0.2,2.9,1.2,4.8,4.1,5.2c1.4,0.2,2.9-0.1,4.3,0.2
				c0.8,0.2,1.8,1,2,1.8c1.1,2.9,1.6,5.9,2.8,8.7c3.2,6.9,3.8,13.8,0.6,20.9c-0.3,0.6-0.4,1.8,0,2.2c1.4,1.4,3.1,2.5,5,4
				c3.1-6.8,2.7-13.4,2-20.1c1.4-0.3,2.6-0.5,3.7-0.8c5.1-1.2,9.1-5.5,9.5-10c0.2-1.8-0.4-2.7-2.4-2.6c-3.2,0.1-6,1.2-8.3,3.5
				c-1.5,1.5-2.7,3.2-4.2,5c-1.6-4-4-7.6-4.1-12.1c4.6,0,9.7,3,12.6-3.5c-4.2-0.3-7.8-0.6-11.5-0.9c2.8-1.6,5.8-2.3,8.3-3.7
				c6.9-3.9,7.6-11.2,1.9-16.7c-6.4-6.1-17.9-6-24.2,0.1c-4.2,4.1-4.4,10.2-0.1,14.2C405.5,289.5,408.6,290.9,412.1,293.1z
				 M352,156.7c0-1.8,0.3-4.1-0.1-6.2c-0.4-2.6-2.4-3.8-5.3-3.5c0.2,1.8,0.6,3.5,0.7,5.3c0,1.7-0.3,3.4-0.4,5.1
				c-1-1.4-1.3-2.9-1.8-4.2c-1.8-4.4-4.8-7.5-9.7-8c-4.7-0.5-8.4,1.7-11,5.5c-3.6,5.1-3.7,13.5-0.2,18.7c4.4,6.7,12.6,7.6,17.9,1.5
				c2.1-2.4,3.2-5.6,5-8.8c0,3.7,0,7.4,0,11c0.4,0.1,0.9,0.2,1.3,0.2c5.3-2.1,3.4-7,3.5-11.8c6.2,2.5,12,5.4,18.1,7.2
				c6.3,1.9,12.9,1.9,19.8,0c-0.9-1.3-1.7-2.3-2.3-3.3c-1.1-2.1-2.5-2.5-4.9-1.8c-2.4,0.8-5,0.9-7.5,1.3
				c-1.4-10.9-4.7-15.5-10.8-15.7c-1.5,4.8,0,9.2,2.9,13.8C361.8,160.7,357,158.7,352,156.7z M422.3,192.8c-0.1-0.3-0.1-0.5-0.2-0.8
				c9.6-4.9,12.8-9.7,10.3-15.6c-2.1-5-9.4-8.8-14-7.3c5.5,4.4,7.5,12.6,4.5,18.2c-1.1,2-2.5,3.6-5,3.6c-2.5,0.1-4-1.4-5.2-3.3
				c-0.5-0.8-0.9-1.8-1.1-2.7c-1.3-5.9-0.7-11.4,3.9-16c-6-0.3-12.7,4.3-13.3,9.9c-0.9,9.4,6.4,11.6,13.6,13.6
				c0,0.2-0.1,0.5-0.1,0.7c-3.6,0.2-7.2,0.5-11.3,0.8c3,6.3,8.1,3.6,13.2,3.4c-2.2,6.3-4.8,12.1-6.1,18.1c-1.4,6.2-1.1,12.7,1.8,19
				c1.3-1,2.3-1.8,3.3-2.4c2-1.2,2.3-2.5,1.4-4.7c-1-2.2-1.4-4.7-2-7.1c10.9-2.4,15.9-6.2,15.4-11.7c-5.1-1-9.7,0.5-14,3.8
				c1.8-5.3,3.4-10.3,5.1-15.4c8.6-0.2,10.9-1.5,9.9-5.6C429,191.9,425.6,192.4,422.3,192.8z M257.6,162.5
				c3.9,9.8,9.8,14.1,16.6,11.8c5.5-1.8,9.6-8.7,8.1-13.4c-3.8,4.5-9,5.3-14.4,5.1c-4.8-0.2-8.1-2.4-8.2-5.5c-0.2-3.2,2.7-6,7.2-6.8
				c5.9-1.1,11.2,0.2,15.6,4.7c0.7-5-3.2-11.3-8.5-12.8c-9.8-2.7-13.5,3.6-16.4,11.4c0-3.4,0-6.9,0-10.3c-4.2-0.1-5.1,1.7-5.1,9.9
				c-5,2.1-9.9,4.1-15.3,6.4c3.3-4.7,4.9-9,2.9-14.6c-1.9,1-3.7,1.6-5.2,2.8c-3.5,2.7-5.1,6.5-5,10.9c0,1.9-0.6,2.7-2.5,2.4
				c-2.2-0.4-4.4-0.9-6.6-1.2c-0.7-0.1-1.8-0.2-2.2,0.2c-1.3,1.5-2.4,3.2-3.6,4.9c0.7,0.4,0.9,0.6,1.2,0.6c0.6,0.2,1.2,0.3,1.8,0.4
				c8.9,1.2,17.4,0.2,25.5-4.1c2.9-1.5,5.9-2.7,9.3-4.1c0,3.2-0.2,5.5,0,7.8c0.3,2.9,2.1,4.2,4.8,3.6
				C257.6,169.3,257.6,165.9,257.6,162.5z M180.9,161c-0.1,0.4-0.1,0.9-0.2,1.3c3.4-0.4,4.8,1.6,6.2,3.9c0.4,0.7,3.6,0.8,4.1,0.2
				c1.6-2.5,3.7-3.8,6.7-3.5c0-0.3,0.1-0.6,0.1-0.9c-2-0.6-4-1.1-6.1-1.8c-0.4-1.2-1-2.7-1.8-5c-1.3,2.2-2.2,3.6-2.9,4.8
				C184.8,160.4,182.8,160.7,180.9,161z M268.4,402c-2.7,1.1-2.9,3.3-3.1,5.5c-1.8,0.3-3.5,0.7-5.2,1c0,0.2-0.1,0.5-0.1,0.7
				c1.5,1,2.9,1.9,4.5,2.9c-0.6,1.9-1.8,3.9,0.3,6.1c0.8-3.1,2.5-4.7,5.4-5.2c1.5-0.2,2.2-3,1-4C269,407.3,267.4,405.4,268.4,402z
				 M412.9,356.8c-0.2,0.3-0.4,0.7-0.6,1c2.6,1.4,3.5,3.5,3,6.3c-0.3,1.4,2.4,3.6,3.4,2.8c2.6-1.9,5.1-2.2,7.9,0
				c0.2-0.4,0.3-0.7,0.5-1.1c-1.5-1.4-3-2.8-4.6-4.4c0.2-1.2,0.5-2.8,0.8-4.4c-0.2-0.2-0.4-0.3-0.7-0.5c-1.4,0.9-2.9,1.9-3.9,2.5
				C416.7,358.3,414.8,357.5,412.9,356.8z M177.8,365.9c0.2,0.3,0.5,0.6,0.7,1c2.3-1.6,4.5-2.1,7-0.6c0.7,0.4,2.1,0.4,2.8,0
				c0.7-0.4,0.9-1.6,1.3-2.5c0.7-1.7,1.3-3.3,2-5c0.2-0.5,0.7-0.8,1.1-1.2c-0.1-0.3-0.3-0.5-0.4-0.8c-1.9,0.8-3.8,1.5-5.8,2.3
				c-1.2-0.7-2.6-1.6-4-2.5c-0.2,0.2-0.5,0.4-0.7,0.6c0.3,1.6,0.6,3.2,0.8,4.2C180.7,363.1,179.3,364.5,177.8,365.9z M408.8,261.6
				c0,0.3-0.1,0.6-0.1,0.9c3.2-0.2,5,1.2,6.1,4c0.3,0.6,3.7,0.9,4.1,0.3c1.6-2.6,3.7-4,7-3.6c0-0.4-0.1-0.8-0.1-1.2
				c-2-0.5-4.1-0.9-6.1-1.4c-0.5-1.3-1-2.7-1.7-4.6c-0.9,0.9-1.5,1.3-1.6,1.8c-0.7,2.2-1.9,3.2-4.3,2.7
				C411,260.5,409.8,261.3,408.8,261.6z M313.9,167.6c0.4,0,0.7,0,1.1,0c0.5-2.8,1.7-4.9,4.5-5.9c1.4-0.5,1.6-3.3,0.3-3.8
				c-2.9-1.2-4.5-3-4-6.5c-0.4,0.1-0.8,0.2-1.2,0.2c-0.5,2-1,3.9-1.5,6.1c-1.4,0.5-3,1.1-4.7,1.7c0,0.3,0.1,0.6,0.1,0.8
				c1.5,0.6,3.1,1.2,4.3,1.7C313.2,164,313.5,165.8,313.9,167.6z M413.5,160.2c-2.1,0.6-4,1.1-5.9,1.7c0,0.3,0.1,0.6,0.1,0.9
				c2.9,0,4.9,1.1,6.5,3.6c0.4,0.6,3.8,0.5,4-0.1c1.2-2.8,3-4.3,6.8-4c-0.9-0.9-1.2-1.3-1.5-1.4c-1.7-0.2-3.6,0.1-4.9-0.7
				c-1.3-0.8-1.9-2.8-3.2-5C414.5,157.6,413.9,159.1,413.5,160.2z M296.1,160.2c0-0.3,0-0.6,0-0.9c-1.6-0.6-3.3-1.2-5.1-1.8
				c0.2-2.1,0.2-4.3-2-5.8c0.3,3.1-1,4.9-3.8,6c-1.3,0.5-1.5,3.4-0.3,3.9c2.8,1.1,4.5,3.1,4.7,6.4c0.4-0.1,0.7-0.1,1.1-0.2
				c0.4-1.9,0.7-3.8,1.1-5.9C293,161.4,294.6,160.8,296.1,160.2z M179.4,262c0,0.4,0,0.8,0,1.3c3.1-0.4,5.2,1,6.8,3.4
				c0.4,0.6,3.6,0.6,3.9,0c1.3-2.7,3-4.5,6.5-4.3c-0.1-0.4-0.2-0.7-0.3-1.1c-2-0.3-4-0.7-6.1-1.1c-0.7-1.2-1.5-2.6-2.3-4
				c-0.3,0-0.5,0.1-0.8,0.1c-0.6,1.5-1.1,3.1-1.6,4.2C183.3,261.1,181.3,261.6,179.4,262z"/>
			<path class="st0" d="M386.7,521.6c-2.5,0-4.8,0-7.4,0c0-9.4,0-18.7,0-28c-0.2,0-0.4,0-0.5-0.1c-1.7,6.5-3.3,13-5,19.5
				c-0.6,2.3-1.2,4.5-1.7,6.8c-0.3,1.4-0.8,1.9-2.3,2c-6,0.2-6,0.3-7.5-5.7c-1.8-7.2-3.6-14.4-6.1-21.6c0,9,0,17.9,0,27.1
				c-2.8,0-5.1,0-7.6,0c0-13.1,0-26.2,0-39.6c3.8,0,7.5-0.1,11.2,0.1c0.5,0,1.1,1.2,1.3,2c2,7.4,4,14.8,5.9,22.2
				c0.1,0.4,0.2,0.8,0.8,1.2c1.2-4.5,2.4-9,3.6-13.4c0.9-3.5,1.8-7,2.8-10.4c0.2-0.6,1.1-1.5,1.7-1.5c3.5-0.1,7-0.1,10.7-0.1
				C386.7,495.2,386.7,508.3,386.7,521.6z"/>
			<path class="st0" d="M178.8,585.5c0-13.1,0-25.8,0-38.7c7.3,0,14.5-0.2,21.7,0.1c4.4,0.2,7.7,2.8,8.7,7.2
				c1.1,4.5-0.6,8.1-4.5,10.6c6,3.5,7.8,7.3,6.3,12.8c-1.3,4.4-4.8,7.6-9.6,7.8C193.9,585.7,186.4,585.5,178.8,585.5z M186.8,578.7
				c3.8,0,7.5,0.1,11.1,0c3.2-0.1,4.9-1.7,5-4.4c0.1-3-1.4-5-4.6-5.3c-3.8-0.3-7.7-0.1-11.6-0.1
				C186.8,572.2,186.8,575.3,186.8,578.7z M186.8,561.8c3.7,0,7.1,0.1,10.5,0c2.6-0.1,4.1-1.7,4.2-4.1c0.1-2.6-1-4-3.8-4.2
				c-3.6-0.2-7.2-0.1-10.9-0.1C186.8,556.2,186.8,558.8,186.8,561.8z"/>
			<path class="st0" d="M523,504.3c6.2,4.6,8.7,11.3,13.1,17.4c-3.4,0-6.2,0.1-9-0.1c-0.8-0.1-1.7-0.9-2.2-1.7
				c-2.5-3.6-5.1-7.2-7.4-11c-2.2-3.5-5.3-4.3-9.3-3.5c0,5.3,0,10.6,0,16c-2.8,0-5.4,0-8.1,0c0-13.2,0-26.2,0-39.6
				c6,0,11.9,0,17.8,0c2.1,0,4.2,0.1,6.2,0.5c5.2,1,8.1,4.5,8.5,9.7c0.3,5.6-2.2,9.6-7.2,11.4C524.7,503.8,524.1,504,523,504.3z
				 M508.4,498.9c4.4-0.2,8.5-0.2,12.6-0.7c2.3-0.3,3.2-2.2,3.2-4.4c0-2.3-1-4.4-3.4-4.6c-4.1-0.3-8.2-0.1-12.4-0.1
				C508.4,492.3,508.4,495.3,508.4,498.9z"/>
			<path class="st0" d="M249.3,521.5c0-13.1,0-26.1,0-39.4c6.1,0,12.1,0,18.1,0c4.4,0,8,1.8,10.9,5.2c0.2,0.3,0.4,0.6,0.7,0.9
				c5,7,5,20.5,0,27.5c-2.4,3.4-5.8,5.5-9.7,5.7C262.7,521.7,256.1,521.5,249.3,521.5z M257.7,514.6c3,0,5.8,0.1,8.5,0
				c4-0.2,6.6-1.9,7-5.8c0.5-4.5,0.5-9.1,0-13.6c-0.3-3.3-2.8-5.6-6.1-6c-3.1-0.4-6.2-0.1-9.5-0.1
				C257.7,497.6,257.7,505.9,257.7,514.6z"/>
			<path class="st0" d="M496.3,501.8c0.1,9.8-4,16.9-11.7,19.3c-13.1,4.2-26.7-1.8-26.8-18.5c0-5.9,1-11.3,5.1-15.8
				c5-5.4,13.9-7.2,21.8-4.2c7.3,2.8,10.7,8.5,11.4,16C496.2,499.6,496.3,500.7,496.3,501.8z M466.1,501.8c0.1,0,0.1,0,0.2,0
				c0,0.9-0.1,1.8,0,2.7c0.5,5.9,4.4,10.3,9.5,10.7c5.8,0.4,10.3-2.6,11.4-8.4c0.6-3.4,0.6-7,0-10.4c-0.9-5.2-4.8-8-10-8
				c-5.3,0-9,2.8-10.3,8C466.4,498.2,466.4,500,466.1,501.8z"/>
			<path class="st0" d="M290.3,557.5c-2.7,0.5-5.2,1-7.8,1.5c-1.4-3.2-3.5-5.6-7.2-6c-7.2-0.7-12,3.1-12.6,10.5
				c-0.2,2.2,0,4.5,0.4,6.7c1.9,10.5,12.4,11,18.6,6.4c1-0.8,0.9-3.1,1.4-5c-3.4,0-6.2,0-9.2,0c0-2.4,0-4.5,0-6.8
				c0.5-0.1,1-0.2,1.4-0.2c5,0,10.1,0,15.5,0c0,5.2,0,10.2,0,15.2c0,0.5-0.6,1.1-1,1.5c-6.5,5.5-18.7,6.8-26.1,2.8
				c-7.4-4-9.7-11.9-9.5-19c0.2-5.9,2.2-11.3,7.1-15.2c5.7-4.4,16.3-5.2,22.5-1.6C287.3,550.1,289.3,553.2,290.3,557.5z"/>
			<path class="st0" d="M293.4,566.2c0.9-3.7,1.3-7.2,2.6-10.3c3.3-7.7,10.8-11.1,20.6-9.8c7.7,1,13.7,6.8,14.8,14.7
				c0.5,3.4,0.5,7,0,10.5c-1.2,8.7-7.5,14.3-16.3,14.9c-8,0.6-14.9-1.5-18.7-9.1C294.7,573.7,294.3,569.7,293.4,566.2z M323.7,566.1
				c-0.1,0-0.1,0-0.2,0c-0.1-1.3,0-2.5-0.2-3.8c-0.6-5.4-4.3-9.1-9.2-9.4c-5.9-0.4-10.2,2.3-11.1,7.9c-0.6,3.6-0.5,7.5,0.3,11.1
				c1,4.8,4.9,7.3,9.7,7.3c4.8,0,8.4-2.6,9.8-7.3C323.2,570,323.4,568,323.7,566.1z"/>
			<path class="st0" d="M251.9,566.2c-0.1,10.1-4.8,17.1-12.9,19.3c-15.3,4.1-27.2-6.8-24.9-22.7c1.4-9.5,6.7-15.5,14.7-16.7
				C242.7,544.1,252,552.2,251.9,566.2z M222.3,565.2c0.1,1.9,0.1,3,0.2,4c0.6,5.5,4.4,9.6,9.1,10c5.7,0.5,10.1-2.1,11.1-7.5
				c0.7-3.7,0.7-7.7,0-11.4c-1-5-4.9-7.4-10.2-7.3c-4.8,0.1-8.3,2.9-9.5,7.7C222.6,562.4,222.4,564.2,222.3,565.2z"/>
			<path class="st0" d="M416.2,585.5c0-13,0-25.7,0-38.6c0.5-0.1,0.9-0.3,1.3-0.3c5.5,0,11-0.1,16.5,0c6.1,0.2,10.6,3,12.9,8.6
				c2.9,7,3,14.2,0.2,21.3c-2.1,5.2-6.2,8.4-11.7,8.8C429.1,585.8,422.8,585.5,416.2,585.5z M424.3,578.6c3.1,0,6,0.1,8.9,0
				c3.5-0.2,5.6-1.7,6.5-5.1c1.3-4.7,1.4-9.4,0.1-14.1c-0.7-2.7-2.3-4.9-5.1-5.4c-3.4-0.5-6.9-0.5-10.4-0.7
				C424.3,562,424.3,570.1,424.3,578.6z"/>
			<path class="st0" d="M94.8,585.5c0-13,0-25.7,0-38.6c0.5-0.1,1-0.3,1.5-0.3c5.3,0,10.7-0.1,16,0c6.7,0.1,11.3,3.4,13.6,9.7
				c2.4,6.5,2.4,13.1,0,19.6c-2,5.6-6.2,9.1-12,9.5C107.7,585.8,101.4,585.5,94.8,585.5z M103,578.6c3,0,5.8,0.1,8.6,0
				c3.8-0.2,6.2-1.7,6.8-5.4c0.6-4.4,0.6-8.9,0.2-13.4c-0.3-3.4-2.7-5.8-6.2-6.2c-3-0.3-6.1-0.1-9.3-0.1
				C103,561.9,103,570.1,103,578.6z"/>
			<path class="st0" d="M159.1,561.7c0.2,0.6,0.3,0.8,0.3,0.9c0.4,6,0.4,6-5.6,6c-4.5,0-9,0-13.7,0c0,3.3,0,6.5,0,9.9
				c7,0,14.1,0,21.4,0c0,2.4,0,4.5,0,6.8c-9.7,0-19.5,0-29.5,0c0-12.9,0-25.7,0-38.7c9.5,0,19,0,28.6,0c0,2.1,0,4.2,0,6.6
				c-6.8,0-13.5,0-20.4,0c0,2.9,0,5.5,0,8.4C146.5,561.7,152.8,561.7,159.1,561.7z"/>
			<path class="st0" d="M388.1,521.8c1.9-4.9,3.7-9.5,5.5-14.1c3-7.8,6.1-15.6,9.1-23.4c0.6-1.7,1.3-2.4,3.2-2.4
				c6.4,0.1,6.4,0,8.7,5.8c4.2,10.4,8.4,20.9,12.5,31.3c0.3,0.7,0.5,1.5,0.9,2.7c-2.9,0-5.5,0.1-8.1-0.1c-0.5,0-1-1.1-1.3-1.7
				c-1-2.3-1.4-5.5-3.1-6.6c-1.9-1.2-5.1-0.4-7.7-0.4c-2.5,0-5.6-0.7-7.4,0.5c-1.7,1.1-2.1,4.2-2.8,6.5c-0.5,1.6-1.4,2.1-2.9,2
				C392.7,521.7,390.6,521.8,388.1,521.8z M402.7,505.8c3.7,0,6.9,0,10.5,0c-1.7-4.6-3.4-9-5.3-14.1
				C406,496.8,404.4,501.2,402.7,505.8z"/>
			<path class="st0" d="M335.8,521.8c-2.7,0-5.2,0.1-7.6-0.1c-0.6,0-1.2-0.8-1.8-1.2c-0.1-0.1-0.2-0.3-0.2-0.5
				c-0.9-2.3-1.3-5.6-3-6.7c-2-1.2-5.2-0.5-7.9-0.5c-2.4,0-5.4-0.7-7.1,0.4c-1.7,1.1-2.1,4.2-2.8,6.5c-0.5,1.5-1.2,2.2-2.9,2.1
				c-2.1-0.2-4.1,0-6.7,0c0.9-2.4,1.7-4.4,2.5-6.5c4-10.4,8.1-20.8,12.1-31.2c0.6-1.6,1.4-2.2,3.1-2.2c6.4,0,6.4-0.1,8.8,6.1
				c4.1,10.4,8.3,20.7,12.4,31.1C335.1,519.8,335.4,520.6,335.8,521.8z M310.4,505.7c3.5,0,6.8,0,10.3,0c-1.8-4.6-3.4-9-5.3-14
				C313.6,496.9,312.1,501.3,310.4,505.7z"/>
			<path class="st0" d="M176.2,521.4c1.2-3,2.3-5.9,3.4-8.8c3.7-9.5,7.4-18.9,11-28.4c0.6-1.7,1.4-2.3,3.3-2.3c6.2,0.1,6.2,0,8.6,6
				c4.1,10.3,8.3,20.7,12.4,31c0.3,0.8,0.6,1.6,1.1,2.9c-2.8,0-5.3,0.1-7.7-0.1c-0.5,0-1.1-0.7-1.6-1.1c-0.3-0.3-0.4-0.8-0.5-1.2
				c-2.6-6.6-2.6-6.6-9.7-6.6c-2.3,0-4.5-0.1-6.8,0.1c-0.8,0.1-1.6,1-2.3,1.6c-0.3,0.3-0.4,1-0.6,1.5
				C184.5,522.4,183.6,522.9,176.2,521.4z M195.8,491.7c-1.9,5.1-3.4,9.5-5.1,14c3.5,0,6.8,0,10.3,0
				C199.3,501.1,197.7,496.8,195.8,491.7z"/>
			<path class="st0" d="M109.4,521.8c-2.8,0-5.3,0.1-7.7-0.1c-0.6,0-1.5-0.9-1.8-1.5c-0.8-1.8-1.6-3.6-2.1-5.5
				c-0.5-1.5-1.3-1.9-2.8-1.8c-3.9,0.1-7.8,0.1-11.6,0c-1.5,0-2.4,0.5-2.7,1.9c-0.1,0.4-0.3,0.8-0.5,1.3c-2.4,6.4-3.2,6.9-10.7,5.4
				c1.3-3.4,2.6-6.7,3.9-10c3.5-9.1,7.1-18.1,10.5-27.2c0.7-1.7,1.5-2.3,3.4-2.3c6.2,0.1,6.2,0,8.5,5.8c4.2,10.4,8.3,20.7,12.4,31.1
				C108.6,519.6,108.9,520.4,109.4,521.8z M89.1,491.7c-1.9,5.2-3.4,9.5-5,14c3.6,0,6.8,0,10.3,0C92.6,501.1,91,496.8,89.1,491.7z"
				/>
			<path class="st0" d="M401.7,585.4c-0.5,0.1-0.7,0.2-0.9,0.2c-2.5,0-5.6,0.8-7.4-0.4c-1.7-1-2.1-4.1-2.9-6.4c-0.5-1.3-1.1-2-2.7-2
				c-3.9,0.1-7.8,0.1-11.6,0c-1.4,0-2.3,0.3-2.5,1.8c0,0.1-0.1,0.2-0.1,0.3c-2.7,7.3-2.7,7.3-11,6.5c5-13,10-25.8,15-38.6
				c0.3-0.1,0.5-0.2,0.7-0.2c7.8-0.4,7.8-0.4,10.7,6.8c4,9.9,8,19.9,11.9,29.8C401.1,583.9,401.3,584.6,401.7,585.4z M386.9,569.8
				c-1.7-4.4-3.2-8.7-5.1-13.6c-1.8,5-3.4,9.3-4.9,13.6C380.3,569.8,383.4,569.8,386.9,569.8z"/>
			<path class="st0" d="M175.8,492.7c-0.5,0.3-0.7,0.5-0.9,0.6c-2.3,0.6-4.7,1.1-7.1,1.7c-1.3-3.8-3.6-6.3-7.8-6.5
				c-5.3-0.3-9.3,2.8-9.9,8.5c-0.4,3.6-0.2,7.4,0.4,11c0.8,4.6,4,7.1,8.1,7.3c4.4,0.2,7-1.8,8.8-6.5c0.2-0.6,0.4-1.1,0.7-1.9
				c2.7,0.9,5.2,1.7,7.7,2.5c-2.1,8.7-7.6,12.9-16.4,12.9c-8.9,0-15.7-5.2-17.5-13.5c-1.4-6.4-1.2-12.8,2-18.7
				c6.1-11.1,23.8-12.1,30-1.7C174.6,489.7,175.2,491.3,175.8,492.7z"/>
			<path class="st0" d="M491.1,571c2.6,0.9,5,1.7,7.5,2.4c-1.9,8.4-7.4,12.7-15.9,12.8c-8.6,0.1-15.4-5-17.3-13.1
				c-1.3-5.6-1.3-11.3,0.9-16.7c4.1-10.1,17.6-14,26.6-7.8c2.9,2.1,4.7,4.9,5.6,8.7c-2.6,0.6-5.2,1.2-7.8,1.9
				c-1.3-3.6-3.3-6.1-7.2-6.4c-5.2-0.4-9.2,2.2-10,7.3c-0.6,3.9-0.4,8.1,0.2,12c0.7,4.4,3.9,6.8,7.8,7c4.4,0.2,6.9-1.5,8.7-6.1
				C490.6,572.5,490.8,571.9,491.1,571z"/>
			<path class="st0" d="M439.5,497.4c2.7-4.7,5.4-9.1,7.9-13.6c0.8-1.5,1.8-2.1,3.4-2c2.2,0.1,4.4,0,7.2,0c-2.1,3.4-4,6.4-5.8,9.3
				c-0.7,1.1-1.3,2.4-2.2,3.4c-5.6,6.6-7.8,14.2-6.6,22.8c0.2,1.3,0,2.7,0,4.2c-2.9,0-5.4,0-8.4,0c0-4.7,0.1-9.3-0.1-13.8
				c-0.1-1.8-0.6-3.7-1.6-5.2c-3.6-6-7.5-11.9-11.2-17.9c-0.5-0.7-0.9-1.5-1.6-2.7c3.2,0,6-0.1,8.7,0.1c0.7,0.1,1.6,1.1,2,1.8
				C434.1,488.3,436.7,492.7,439.5,497.4z"/>
			<path class="st0" d="M344.5,553.4c-3.4,0-6.4-0.1-9.5,0c-1.7,0.1-2.5-0.4-2.4-2.3c0.1-1.4,0-2.9,0-4.5c10.5,0,20.7,0,31.1,0
				c0,2.1,0,4.2,0,6.7c-3.7,0-7.3,0-11.2,0c0,10.8,0,21.3,0,32c-2.7,0-5.2,0-8.1,0C344.5,574.9,344.5,564.3,344.5,553.4z"/>
			<path class="st0" d="M119.4,482.4c0,10.7,0,21.3,0,32.3c4.9,0,9.5,0,14.2,0c6.3,0,6.3,0,5.7,6.4c0,0.1-0.1,0.1-0.3,0.4
				c-9,0-18.1,0-27.5,0c0-13,0-26,0-39.1C114.1,482.4,116.6,482.4,119.4,482.4z"/>
			<path class="st0" d="M245.9,521.6c-9.3,0-18.4,0-27.8,0c0-13.1,0-26.1,0-39.2c2.6,0,5.2,0,8,0c0,10.7,0,21.3,0,32.3
				c3.8,0,7.4,0,10.9,0c1.1,0,2.2,0,3.2,0C246.8,514.7,246.8,514.7,245.9,521.6z"/>
			<path class="st0" d="M294.8,521.7c-2.8,0-5.3,0-8,0c0-13.2,0-26.3,0-39.6c2.7,0,5.3,0,8,0C294.8,495.3,294.8,508.3,294.8,521.7z"
				/>
			<path class="st0" d="M453.2,578.1c2.7,0,4.9,0,7.4,0c0,2.5,0,4.8,0,7.4c-2.4,0-4.8,0-7.4,0C453.2,583.1,453.2,580.6,453.2,578.1z
				"/>
			<path class="st0" d="M510.6,585.6c-2.7,0-5.1,0-7.8,0c0-2.1-0.1-4,0-5.9c0-0.5,0.5-1.3,0.9-1.4c2-0.1,3.9-0.1,5.9,0
				c0.3,0,0.9,0.8,0.9,1.3C510.7,581.5,510.6,583.5,510.6,585.6z"/>
			<path class="st0" d="M301.2,470.2c-2.7,2.9-4.6,5.6-7.1,7.6c-1.2,1-3.4,0.8-5.8,1.3c1.4-3.1,2.4-5.5,3.6-7.8c0.3-0.5,1.1-1,1.6-1
				C295.8,470.1,298.2,470.2,301.2,470.2z"/>
			<path class="st0" d="M391.3,535c-2.5,2.8-4.3,5.2-6.5,7c-1.3,1.1-3.5,1.1-5.3,1.6c-0.1-0.2-0.3-0.5-0.4-0.7
				c1.1-2.3,2.1-4.7,3.2-7c0.2-0.4,0.9-0.9,1.4-0.9C386,535,388.3,535,391.3,535z"/>
			<path class="st0" d="M378.1,261.6c-11.1,8.9-22.8,12.4-36.8,9.9c6.8,7,14.2,11.2,23.8,10.8c-5.2,4.2-11,6.2-17.6,6.6
				c-6.5,0.3-12.5-1.2-18.8-4.6c3.6,6.8,8.1,11.6,14.9,14.5c-5.8,3.2-11.5,4-17.3,2.1c-3.3-1.1-6.3-3.1-9.4-4.7
				c-0.6-0.3-1-1.1-1.5-1.1c-1.2,0-2.5,0.4-3.7,0.6c0.3,1,0.2,2.5,0.9,3c2.2,1.8,4.7,3.3,7.2,4.8c3.4,2,7,3.8,10.3,5.9
				c3,2,5.5,4.6,7,8.4c-1.8,0.5-3.4,0.9-5.4,1.4c5,5.2,9.8,10.2,14.6,15.2c0.3,0.3,0.8,0.6,1.1,0.6c1.9-0.3,3.8-0.8,6.1-1.3
				c-3.8-2.4-8.5-4.3-6.1-10.2c3.6,2.3,7,4.5,10.8,7c-2.3-3.6-4.5-6.4-6-9.6c-1.6-3.5-1-7.1,1.2-10.3c3.6-5.3,10.2-6.4,19.6-3.3
				c2-3.7-0.3-6.2-3.1-8.5c0.3-0.3,0.5-0.6,0.8-0.9c2.1,0.8,4.3,1.6,6.7,2.5c1.1-0.8,2.8-2,4.4-3.1c0.3,0.2,0.5,0.3,0.8,0.5
				c-0.2,1.9-0.5,3.8-0.8,5.8c2.3,0.9,4.3,2.2,4.5,5.9c-3.6-3.2-6.6-2.2-9.4,0.3c5.5,5.2,9.1,11.1,4.9,18.8c-2.9,5.2-8.8,6.4-18,4.7
				c1.5,0.9,2.9,2,4.4,2.8c1.7,0.8,3.5,1.4,5.4,2.1c-0.7,2.3-2.4,3.4-4.5,3.2c-1.9-0.2-3.8-0.9-5.5-1.8c-1.6-0.9-3-2.3-4.7-3.7
				c-0.2,0.8-0.3,1.1-0.2,1.2c3,3.1,1.5,6.3,0.4,9.5c-0.2,0.5-0.5,1.1-0.9,1.3c-2.9,1.2-5.8,2.7-8.8,3.2c-1.6,0.3-2.3,0.7-2.5,2
				c-0.5,4-1,8-1.3,12.1c-0.3,4-0.3,4.1-4.2,4.2c-1.4,0-2.9,0-4.7,0c0.2-2.1,0.4-4.1,0.6-6c0.3-1.9,0.6-3.7,1-5.5
				c-10-2.4-15.5-9.1-14.3-17c6.1-1.5,12.5,4.3,14.9,13.6c1.5-3.3,3.4-6.4,4.3-9.8c0.4-1.7-0.3-4.4-1.5-5.6c-2.1-2.1-5-3.6-7.5-5.2
				c-3.4-2.2-6.9-4.3-10.6-6.6c-0.5,1.8-0.9,3.3-1.4,5c-1.8-1.6-3.4-3.2-5.2-4.5c-1.8-1.3-3.8-2.2-6-3.1c5.3,8.1,7.5,16.7,6.1,26.2
				c-2.6-1.6-5.1-3-7.5-4.5c-0.2,0.2-0.5,0.4-0.7,0.5c2.5,6,2.6,12.1,0.8,18.2c-1.7,5.9-4.5,11.3-8.1,16.4
				c-7.7-5.9-11.2-22.4-7.6-35.1c-2.4,1.4-4.9,2.9-7.4,4.4c-1.5-9.1,0.4-17.6,6.1-25.8c-4.9,1.4-8.2,4-11.5,7.6
				c-0.5-1.8-0.9-3.3-1.4-5.2c-2.6,1.6-5,3.1-7.4,4.6c-2.7,1.7-5.4,3.3-8,5.1c-4.8,3.1-5.3,5.2-2.8,10.5c1.1,2.3,2,4.8,3,7.2
				c2.3-9.3,7.7-14.5,14.7-14.1c2.2,7.3-4.5,15.7-13.8,17c0.5,3.8,1,7.6,1.6,11.6c-2.5,0-4.9,0.2-7.2-0.1c-0.6-0.1-1.4-1.4-1.5-2.2
				c-0.5-3.8-0.7-7.5-1.1-11.3c-0.2-1.5-0.7-2.9-1.5-3.8c-3.3-1.1-6.6-2.1-9.8-3.5c-2.4-1-3.8-7.1-2.4-9.6c0.4-0.8,0.9-1.5,1-2.6
				c-2.3,1.6-4.5,3.5-7,4.7c-3,1.5-5.6,0.4-7.4-2.5c3.4-1.8,6.9-3.5,10.4-5.3c-0.1-0.2-0.1-0.5-0.2-0.7c-7.5,2-14.8,3-19.3-5.3
				c-2.8-5.3-0.5-11.8,5.6-17.5c-4.6-3-4.6-3-9-1c-0.4-2.3,0.5-3.4,4.2-5.4c-0.2-0.9-0.4-1.8-0.6-2.8c-0.1-0.9-0.2-1.9-0.3-2.8
				c0.2-0.2,0.4-0.3,0.7-0.5c1.6,1.1,3.2,2.3,4.5,3.2c2.4-0.9,4.6-1.8,6.8-2.6c0.3,0.3,0.5,0.6,0.8,0.9c-2.6,2.3-5.6,4.5-3.2,8.4
				c10.3-2.8,16.4-1.7,19.8,3.8c3.3,5.3,1.9,10.6-4.9,18.5c0.1,0.2,0.3,0.4,0.4,0.7c3.3-2.1,6.6-4.3,9.9-6.4
				c2.5,3.3,1.3,5.5-5.4,9.8c3.9,2,5.9,1.7,8.7-1.2c4.1-4.2,8.2-8.5,12.6-13.1c-2-0.5-3.6-0.9-6.2-1.6c2.6-2.8,4.4-5.6,7-7.3
				c4.1-2.8,8.6-4.8,12.9-7.3c2-1.2,4-2.4,5.9-3.8c1.2-0.9,2.9-2.2,1.4-4c-1.4-1.6-2.9-0.7-4.3,0.4c-5.1,4-10.9,6.6-17.5,6.1
				c-3.3-0.3-6.5-1.4-10.3-2.3c3.4-2.4,6.3-4,8.6-6.1c2.3-2.2,4.1-4.9,5.9-7.7c-12.7,5.7-24.7,5.2-36.2-2.9c4.5-0.8,8.9-1.1,13-2.4
				c4.1-1.3,7.8-3.7,11.5-6.1c-14.2,1.6-25.9-3-35.8-12.6c9-2,17.8-4,26.6-6c-19.3-3-32.8-12.7-34.5-25.6c9.8,4,20,4,30.4,3.3
				c-8-3.7-15.4-8.2-20.9-15.2c-5.6-7.1-8.4-15.2-8.6-24.2c0.4,0,0.6-0.2,0.7-0.1c8.1,8.1,18.5,12,28.8,16.1
				c3.5,1.4,7.1,2.5,10.7,3.8c9.6,3.3,15.4,9.7,16.3,20.1c0.3,3.9,3.5,6.6,7.6,6.6c4,0,7-2.6,7.4-6.4c0.4-4,0.9-8.1,1-12.1
				c0.1-4.4-1.7-5.8-6-5.4c-1.5,0.1-3,0.4-4.7,0.7c-1.1-4.3-0.7-8.4,1.8-11.9c0.9-1.3,3.2-2.1,4.9-2.2c5.3-0.3,10.7-0.2,16-0.1
				c3,0.1,5,1.6,5.6,5.3c0.8,4.7,1,9.5,1.4,14.2c0.3,3.7,0.3,7.4,1,11c1,5,3.9,7.3,8.2,6.9c3.4-0.3,6.3-3,6.6-6.4
				c0.9-10.4,6.8-16.7,16.3-20.1c6.2-2.2,12.4-4.5,18.4-7c7.6-3.2,15.1-6.9,20.9-13.1c1.7,5.5-2.2,17.1-7.9,24.2
				c-5.6,6.9-12.9,11.4-21,14.8c10.2,0.8,20.3,1.5,30.7-2.8c-1.8,8-6.2,13.6-12.5,17.8c-6.2,4.1-13.3,5.6-20.7,6.4
				C359.9,257.5,368.3,260.6,378.1,261.6z M244.7,324.1c0-5.3-6.5-13.5-11.6-14.7c-3.4-0.8-5.2,0.3-5.9,3.7
				c-1.1,5.9,4.1,14.8,9.8,16.6C241.2,331,244.7,328.4,244.7,324.1z M376.3,315.7c0-6-3-8-7.5-5.7c-4.8,2.5-8,6.6-9.8,11.8
				c-0.9,2.6-0.5,5,1.6,6.9c2,1.8,4.9,1.9,7.5,0.2C373.3,325.5,375.8,320.6,376.3,315.7z M299.6,209.1c-0.8-0.5-2-1.8-3.2-1.9
				c-1.7-0.1-3,1.2-2.9,3.2c0.1,1.9,1.4,2.7,3.1,2.7C298.4,213.1,299.5,211.9,299.6,209.1z"/>
			<path class="st0" d="M286.8,189.2c3.4,1.2,6.7,2.4,10.4,3.7c1.4-3.1,2.8-6.1,4.5-9.8c1.5,3.6,2.7,6.6,4,9.8
				c3.5-1.2,6.9-2.4,10.3-3.7c0.2,0.2,0.3,0.4,0.5,0.6c-2.2,3.3-4.3,6.7-6.6,10c-0.4,0.5-1.5,0.6-2.2,0.6c-4.1,0.1-8.1,0.1-12.2,0
				c-0.8,0-2-0.3-2.4-0.8c-2.3-3.2-4.5-6.5-6.7-9.7C286.4,189.5,286.6,189.3,286.8,189.2z"/>
			<path class="st0" d="M196.3,282.9c-0.5,1.4-0.8,3.8-2,5.7c-2.2,3.7-6.4,3.6-8.9,0.2c-3-4.2-2.9-13.4,0.3-17.5
				c1.8-2.3,4-2.5,6.3-0.4C195.2,273.9,195.9,277.8,196.3,282.9z"/>
			<path class="st0" d="M417.6,374c-0.5,4.7-3.2,9.2-8.4,12.1c-2.1,1.2-4.3,1.4-6.3-0.3c-2-1.7-2.5-3.9-1.7-6.3
				c1.5-5.1,4.8-8.9,9.5-11.1C414.9,366.4,417.6,368.3,417.6,374z"/>
			<path class="st0" d="M283.5,407.4c4.1,0.4,7.8,1.2,10.8,4.2c2.8,2.8,2.2,6.1-1.2,8.1c-5.2,3-15.9,0.1-18.9-5.1
				c-1.3-2.2-0.7-4.3,1.8-5.3C278.4,408.3,281,408,283.5,407.4z"/>
			<path class="st0" d="M204,381.3c0,4.6-3.1,6.8-7.3,5.2c-5.4-2-10.1-10.1-9-15.3c0.6-2.9,2.2-3.9,5.1-3.4
				C197.9,368.7,204,375.9,204,381.3z"/>
			<path class="st0" d="M408.9,282.3c0.1-4.4,1.1-7.7,3.3-10.5c2.5-3.2,5.9-3,7.9,0.5c2.6,4.7,2.9,9.6,1,14.6
				c-1.2,3.1-3.4,4.7-6.1,4.5c-3.1-0.2-4.5-2.4-5.4-5C409.1,284.8,409,283.1,408.9,282.3z"/>
			<path class="st0" d="M334.8,166.8c-3.3-1.2-6.9-2-10-3.6c-3.4-1.8-3.4-4.6-0.2-6.8c5.2-3.5,10.9-4.1,16.6-1.3
				c2.3,1.1,4,2.9,3.7,5.7c-0.3,2.9-2.4,4.1-4.9,4.7c-1.6,0.4-3.4,0.5-5,0.8C334.9,166.4,334.9,166.6,334.8,166.8z"/>
		</g>
	</g>
	<g>
		<rect x="69.5" y="601.4" class="st0" width="466.6" height="2.7"/>
	</g>
	<g>
		<path class="st0" d="M71.1,644.8l3.2-0.3c0.2,1.3,0.5,2.3,1.1,3.1s1.4,1.5,2.6,2c1.2,0.5,2.5,0.8,3.9,0.8c1.3,0,2.4-0.2,3.4-0.6
			c1-0.4,1.7-0.9,2.2-1.6c0.5-0.7,0.7-1.4,0.7-2.2c0-0.8-0.2-1.5-0.7-2.1c-0.5-0.6-1.2-1.1-2.3-1.5c-0.7-0.3-2.2-0.7-4.5-1.2
			c-2.3-0.6-4-1.1-4.9-1.6c-1.2-0.6-2.1-1.4-2.7-2.4c-0.6-0.9-0.9-2-0.9-3.2c0-1.3,0.4-2.5,1.1-3.6c0.7-1.1,1.8-2,3.2-2.5
			c1.4-0.6,3-0.9,4.7-0.9c1.9,0,3.6,0.3,5,0.9s2.5,1.5,3.3,2.7s1.2,2.5,1.2,4l-3.2,0.2c-0.2-1.6-0.8-2.8-1.8-3.6
			c-1-0.8-2.5-1.2-4.4-1.2c-2,0-3.5,0.4-4.5,1.1c-0.9,0.7-1.4,1.6-1.4,2.7c0,0.9,0.3,1.7,1,2.3c0.6,0.6,2.3,1.2,5.1,1.8
			s4.6,1.2,5.6,1.6c1.5,0.7,2.6,1.5,3.3,2.6c0.7,1,1.1,2.3,1.1,3.6c0,1.4-0.4,2.6-1.2,3.8s-1.9,2.1-3.3,2.8c-1.5,0.7-3.1,1-4.9,1
			c-2.3,0-4.2-0.3-5.8-1c-1.6-0.7-2.8-1.7-3.7-3C71.6,648.1,71.2,646.5,71.1,644.8z"/>
		<path class="st0" d="M95.2,653v-25.5h18.4v3h-15v7.8h14.1v3H98.5v8.7h15.6v3H95.2z"/>
		<path class="st0" d="M136.1,644.1l3.4,0.9c-0.7,2.8-2,4.9-3.8,6.3c-1.8,1.5-4.1,2.2-6.7,2.2c-2.7,0-5-0.6-6.7-1.7s-3-2.7-3.9-4.9
			s-1.3-4.4-1.3-6.8c0-2.7,0.5-5,1.5-6.9c1-2,2.5-3.5,4.3-4.5s3.9-1.5,6.2-1.5c2.5,0,4.7,0.6,6.4,1.9c1.7,1.3,2.9,3.1,3.6,5.5
			l-3.3,0.8c-0.6-1.9-1.4-3.2-2.6-4s-2.5-1.3-4.2-1.3c-2,0-3.6,0.5-4.9,1.4c-1.3,0.9-2.2,2.2-2.8,3.8c-0.5,1.6-0.8,3.2-0.8,4.9
			c0,2.2,0.3,4.1,0.9,5.7c0.6,1.6,1.6,2.8,2.9,3.6c1.3,0.8,2.8,1.2,4.3,1.2c1.9,0,3.5-0.5,4.8-1.6
			C134.7,647.8,135.6,646.2,136.1,644.1z"/>
		<path class="st0" d="M142.8,653v-25.5H154c2.3,0,4,0.2,5.2,0.7c1.2,0.5,2.1,1.3,2.8,2.4c0.7,1.2,1.1,2.4,1.1,3.8
			c0,1.8-0.6,3.3-1.8,4.6c-1.2,1.2-3,2-5.4,2.4c0.9,0.4,1.6,0.9,2,1.3c1,0.9,1.9,2,2.8,3.4l4.4,6.9h-4.2l-3.4-5.3
			c-1-1.5-1.8-2.7-2.4-3.5c-0.6-0.8-1.2-1.4-1.7-1.7c-0.5-0.3-1-0.5-1.5-0.7c-0.4-0.1-1-0.1-1.9-0.1h-3.9V653H142.8z M146.1,638.8
			h7.2c1.5,0,2.7-0.2,3.6-0.5s1.5-0.8,2-1.5c0.5-0.7,0.7-1.5,0.7-2.3c0-1.2-0.4-2.2-1.3-3c-0.9-0.8-2.3-1.2-4.1-1.2h-8.1V638.8z"/>
		<path class="st0" d="M167.6,653v-25.5H186v3h-15v7.8H185v3h-14.1v8.7h15.6v3H167.6z"/>
		<path class="st0" d="M196.8,653v-22.4h-8.4v-3h20.2v3h-8.4V653H196.8z"/>
		<path class="st0" d="M205.7,653l9.8-25.5h3.6l10.4,25.5h-3.8l-3-7.7h-10.6l-2.8,7.7H205.7z M213.1,642.6h8.6l-2.7-7
			c-0.8-2.1-1.4-3.9-1.8-5.3c-0.3,1.6-0.8,3.3-1.4,4.9L213.1,642.6z"/>
		<path class="st0" d="M231.4,653v-25.5h11.3c2.3,0,4,0.2,5.2,0.7c1.2,0.5,2.1,1.3,2.8,2.4c0.7,1.2,1.1,2.4,1.1,3.8
			c0,1.8-0.6,3.3-1.8,4.6c-1.2,1.2-3,2-5.4,2.4c0.9,0.4,1.6,0.9,2,1.3c1,0.9,1.9,2,2.8,3.4l4.4,6.9h-4.2l-3.4-5.3
			c-1-1.5-1.8-2.7-2.4-3.5c-0.6-0.8-1.2-1.4-1.7-1.7c-0.5-0.3-1-0.5-1.5-0.7c-0.4-0.1-1-0.1-1.9-0.1h-3.9V653H231.4z M234.8,638.8
			h7.2c1.5,0,2.7-0.2,3.6-0.5s1.5-0.8,2-1.5c0.5-0.7,0.7-1.5,0.7-2.3c0-1.2-0.4-2.2-1.3-3c-0.9-0.8-2.3-1.2-4.1-1.2h-8.1V638.8z"/>
		<path class="st0" d="M255.8,626l2.3-4.9h4.1l-3.8,4.9H255.8z M256.7,653v-25.5h3.4V653H256.7z"/>
		<path class="st0" d="M262.3,653l9.8-25.5h3.6l10.4,25.5h-3.8l-3-7.7h-10.6l-2.8,7.7H262.3z M269.7,642.6h8.6l-2.7-7
			c-0.8-2.1-1.4-3.9-1.8-5.3c-0.3,1.6-0.8,3.3-1.4,4.9L269.7,642.6z"/>
		<path class="st0" d="M295,653v-25.5h8.8c2,0,3.5,0.1,4.5,0.4c1.5,0.3,2.7,0.9,3.7,1.8c1.3,1.1,2.3,2.6,3,4.3c0.7,1.8,1,3.8,1,6
			c0,1.9-0.2,3.6-0.7,5.1s-1,2.7-1.7,3.7c-0.7,1-1.5,1.7-2.3,2.3c-0.8,0.6-1.9,1-3,1.3c-1.2,0.3-2.5,0.4-4.1,0.4H295z M298.3,650
			h5.4c1.7,0,3-0.2,3.9-0.5c1-0.3,1.7-0.8,2.3-1.3c0.8-0.8,1.4-1.9,1.9-3.2c0.4-1.3,0.7-3,0.7-4.9c0-2.7-0.4-4.7-1.3-6.1
			c-0.9-1.4-1.9-2.4-3.2-2.9c-0.9-0.3-2.4-0.5-4.4-0.5h-5.3V650z"/>
		<path class="st0" d="M319.8,653v-25.5h18.4v3h-15v7.8h14.1v3h-14.1v8.7h15.6v3H319.8z"/>
		<path class="st0" d="M351.5,653v-25.5h5.1l6,18c0.6,1.7,1,2.9,1.2,3.8c0.3-0.9,0.7-2.3,1.4-4.1l6.1-17.7h4.5V653h-3.2v-21.3
			l-7.4,21.3h-3l-7.4-21.7V653H351.5z"/>
		<path class="st0" d="M379.3,640.6c0-4.2,1.1-7.5,3.4-9.9c2.3-2.4,5.2-3.6,8.8-3.6c2.3,0,4.5,0.6,6.4,1.7c1.9,1.1,3.3,2.7,4.3,4.7
			c1,2,1.5,4.3,1.5,6.8c0,2.6-0.5,4.9-1.6,6.9s-2.5,3.6-4.4,4.6c-1.9,1-4,1.6-6.2,1.6c-2.4,0-4.5-0.6-6.4-1.7
			c-1.9-1.2-3.3-2.7-4.3-4.7C379.8,645,379.3,642.8,379.3,640.6z M382.8,640.7c0,3.1,0.8,5.5,2.5,7.2c1.6,1.8,3.7,2.6,6.2,2.6
			c2.5,0,4.6-0.9,6.3-2.7c1.6-1.8,2.5-4.3,2.5-7.6c0-2.1-0.3-3.9-1-5.4c-0.7-1.5-1.7-2.7-3.1-3.6c-1.3-0.9-2.9-1.3-4.5-1.3
			c-2.4,0-4.4,0.8-6.2,2.5C383.6,634.1,382.8,636.8,382.8,640.7z"/>
		<path class="st0" d="M414.3,653l-9.9-25.5h3.6l6.6,18.5c0.5,1.5,1,2.9,1.3,4.2c0.4-1.4,0.9-2.8,1.4-4.2l6.9-18.5h3.4l-10,25.5
			H414.3z"/>
		<path class="st0" d="M430.5,653v-25.5h3.4V653H430.5z"/>
		<path class="st0" d="M438.8,653v-25.5h3.4V650h12.5v3H438.8z"/>
		<path class="st0" d="M458.3,653v-25.5h3.4V653H458.3z"/>
		<path class="st0" d="M466.8,653v-25.5h8.8c2,0,3.5,0.1,4.5,0.4c1.5,0.3,2.7,0.9,3.7,1.8c1.3,1.1,2.3,2.6,3,4.3c0.7,1.8,1,3.8,1,6
			c0,1.9-0.2,3.6-0.7,5.1s-1,2.7-1.7,3.7c-0.7,1-1.5,1.7-2.3,2.3c-0.8,0.6-1.9,1-3,1.3c-1.2,0.3-2.5,0.4-4.1,0.4H466.8z M470.1,650
			h5.4c1.7,0,3-0.2,3.9-0.5s1.7-0.8,2.3-1.3c0.8-0.8,1.4-1.9,1.9-3.2c0.4-1.3,0.7-3,0.7-4.9c0-2.7-0.4-4.7-1.3-6.1
			c-0.9-1.4-1.9-2.4-3.2-2.9c-0.9-0.3-2.4-0.5-4.4-0.5h-5.3V650z"/>
		<path class="st0" d="M488.8,653l9.8-25.5h3.6l10.4,25.5h-3.8l-3-7.7h-10.6l-2.8,7.7H488.8z M496.1,642.6h8.6l-2.7-7
			c-0.8-2.1-1.4-3.9-1.8-5.3c-0.3,1.6-0.8,3.3-1.4,4.9L496.1,642.6z"/>
		<path class="st0" d="M514.4,653v-25.5h8.8c2,0,3.5,0.1,4.5,0.4c1.5,0.3,2.7,0.9,3.7,1.8c1.3,1.1,2.3,2.6,3,4.3c0.7,1.8,1,3.8,1,6
			c0,1.9-0.2,3.6-0.7,5.1s-1,2.7-1.7,3.7c-0.7,1-1.5,1.7-2.3,2.3c-0.8,0.6-1.9,1-3,1.3c-1.2,0.3-2.5,0.4-4.1,0.4H514.4z M517.8,650
			h5.4c1.7,0,3-0.2,3.9-0.5s1.7-0.8,2.3-1.3c0.8-0.8,1.4-1.9,1.9-3.2c0.4-1.3,0.7-3,0.7-4.9c0-2.7-0.4-4.7-1.3-6.1
			c-0.9-1.4-1.9-2.4-3.2-2.9c-0.9-0.3-2.4-0.5-4.4-0.5h-5.3V650z"/>
	</g>
</g>
</svg>
