<?xml version="1.0" encoding="utf-8"?>
<!-- Generator: Adobe Illustrator 25.4.1, SVG Export Plug-In . SVG Version: 6.00 Build 0)  -->
<svg version="1.1" id="Capa_1" xmlns="http://www.w3.org/2000/svg" xmlns:xlink="http://www.w3.org/1999/xlink" x="0px" y="0px"
	 viewBox="0 0 32 32" style="enable-background:new 0 0 32 32;" xml:space="preserve">
<style type="text/css">
	.st0{fill:#BED000;}
</style>
<g>
	<polygon class="st0" points="24.1,30.5 18.5,15.6 13.5,15.6 9.4,26.6 12.5,26.6 16,17.6 21.1,30.5 	"/>
	<polygon class="st0" points="19.8,10.8 22.6,9.7 18.9,8.4 16.6,2.2 14.2,6.8 9.2,5.7 12.7,9.5 11,14.1 17.1,11.9 21.6,15.6 	"/>
	<polygon class="st0" points="9.6,11.1 10.7,10.3 9.4,10.1 9,8.7 8.5,9.9 6.4,9.4 8,11.1 7.6,12.4 9,11.5 10.1,12.4 	"/>
	<polygon class="st0" points="21.7,4.3 22.9,3.5 21.5,3.2 21.1,1.8 20.4,3 18.4,2.6 20.1,4.3 19.6,5.7 21.1,4.7 22.2,5.7 	"/>
</g>
</svg>
