<?xml version="1.0" encoding="utf-8"?>
<!-- Generator: Adobe Illustrator 25.4.1, SVG Export Plug-In . SVG Version: 6.00 Build 0)  -->
<svg version="1.1" id="Capa_1" xmlns="http://www.w3.org/2000/svg" xmlns:xlink="http://www.w3.org/1999/xlink" x="0px" y="0px"
	 viewBox="0 0 1186 261" style="enable-background:new 0 0 1186 261;" xml:space="preserve">
<style type="text/css">
	.st0{fill:#BED000;}
	.st1{fill:none;stroke:#BED000;stroke-width:2;stroke-miterlimit:10;}
</style>
<g>
	<g>
		<g>
			<path class="st0" d="M1059.09,182.67c0.05-1.9,0.93-3.36,1.51-4.9c8.27-22.13,16.59-44.23,24.83-66.37
				c0.61-1.64,1.31-2.32,3.17-2.3c9.71,0.11,19.42,0.08,29.12,0.02c1.63-0.01,2.44,0.4,3.06,2.05
				c11.89,31.79,23.84,63.55,35.84,95.29c0.78,2.06,0.45,2.56-1.74,2.51c-5.03-0.13-10.07-0.18-15.09,0.02
				c-2.28,0.09-3.16-0.78-3.94-2.8c-10.37-26.7-20.84-53.37-31.29-80.04c-0.38-0.96-0.81-1.9-1.22-2.85
				c-0.99,0.26-0.98,1.09-1.22,1.69c-7.28,18.35-14.57,36.7-21.77,55.09c-0.74,1.89-1.51,2.75-3.73,2.67
				C1070.81,182.53,1064.99,182.67,1059.09,182.67z"/>
			<path class="st0" d="M1139.76,108.63c-4.31-3.6-8.63-7.2-12.94-10.8c-4.87-4.08-9.78-8.1-14.54-12.29
				c-1.35-1.19-2.41-1.21-3.99-0.64c-11.84,4.32-23.71,8.57-35.58,12.8c-0.88,0.31-1.71,0.92-2.9,0.67
				c-0.14-1.18,0.52-2.17,0.89-3.19c3.03-8.19,6.02-16.38,9.18-24.52c0.72-1.85,0.43-3.04-0.88-4.44
				c-6.76-7.2-13.44-14.48-20.14-21.74c-0.35-0.38-0.67-0.78-1.41-1.64c5.92,1.19,11.3,2.26,16.66,3.36
				c4.66,0.96,9.33,1.88,13.96,2.96c1.87,0.43,2.82-0.1,3.7-1.81c4.35-8.47,8.83-16.88,13.27-25.3c0.49-0.92,1-1.83,1.77-3.23
				c1.3,3.4,2.45,6.38,3.58,9.38c3.8,10.16,7.62,20.3,11.33,30.49c0.55,1.51,1.42,2.23,2.86,2.73c6.49,2.25,12.96,4.59,19.43,6.91
				c0.8,0.29,1.58,0.65,2.88,1.19c-5.61,2.3-10.69,4.48-15.84,6.46c-1.88,0.72-2.35,1.47-1.58,3.45c3.35,8.63,6.52,17.32,9.76,26
				c0.36,0.96,0.67,1.94,1,2.91C1140.07,108.43,1139.91,108.53,1139.76,108.63z"/>
			<path class="st0" d="M948.21,163.95c0,5.65-0.04,11.3,0.03,16.94c0.02,1.46-0.38,2.18-1.92,1.96c-0.09-0.01-0.18,0-0.26,0
				c-7.22,0.02-14.41,0.31-21.63,0.84c-13.19,0.95-23.67-4.56-30.36-15.95c-6.41-10.9-6.09-22.23,0.97-32.76
				c7.36-10.97,18.07-15.58,31.21-14.4c7.29,0.65,13.53,3.7,18.98,8.51c1.16,1.03,1.32,1.71,0.13,2.93c-2.84,2.89-5.58,5.9-8.2,8.99
				c-1.26,1.5-2.03,1.52-3.52,0.21c-5.37-4.7-11.54-5.48-18.02-2.77c-6.61,2.76-10.19,9.52-8.99,16.32
				c1.16,6.55,7.27,11.89,14.31,12.5c3.15,0.27,6.1-0.4,9.01-1.62c1.64-0.69,1.69-1.85,1.52-3.2c-0.2-1.6-1.5-0.88-2.31-0.9
				c-4.85-0.12-4.85-0.08-4.85-4.87c0-3.27,0.07-6.53-0.03-9.8c-0.05-1.54,0.5-1.94,1.98-1.93c6.62,0.07,13.24,0.11,19.86-0.02
				c1.94-0.04,2.13,0.78,2.11,2.34C948.17,152.83,948.21,158.39,948.21,163.95z"/>
			<path class="st0" d="M886.72,152.21c-0.03,17.57-13.99,31.94-30.86,31.76c-16.95-0.18-30.5-14.22-30.66-31.76
				c-0.15-17.32,13.91-31.9,30.8-31.93C872.89,120.23,886.75,134.64,886.72,152.21z M855.91,136.99
				c-7.81,0.05-13.99,6.81-13.95,15.26c0.04,8.37,6.38,15.13,14.15,15.09c7.68-0.04,14.03-6.98,14-15.3
				C870.07,143.7,863.69,136.94,855.91,136.99z"/>
			<path class="st0" d="M982.33,183.96c-17.19-0.07-30.72-14.41-30.63-32.5c0.08-17.03,14.29-31.38,30.91-31.2
				c17,0.18,30.57,14.48,30.49,32.15C1013.03,169.84,999.19,184.03,982.33,183.96z M968.38,152.16c0.01,8.42,6.28,15.19,14.05,15.18
				c7.68-0.01,14.14-6.97,14.14-15.21c0-8.28-6.42-15.14-14.16-15.14C974.58,136.99,968.38,143.7,968.38,152.16z"/>
			<path class="st0" d="M778.63,151.79c0-9.26,0.05-18.52-0.04-27.79c-0.02-1.89,0.34-2.63,2.44-2.58
				c6.97,0.14,13.94,0.01,20.9,0.06c14.04,0.1,23.15,14.51,17.16,27.18c-0.66,1.39-0.57,2.26,0.29,3.5
				c4.34,6.26,4.96,12.98,1.45,19.74c-3.49,6.74-9.27,10.23-16.92,10.31c-7.59,0.08-15.17-0.07-22.76,0.08
				c-2.22,0.04-2.58-0.74-2.57-2.71C778.68,170.32,778.63,161.05,778.63,151.79z M800,168.93c1.32,0,2.64,0.07,3.96-0.01
				c3.17-0.2,5.58-2.56,5.7-5.5c0.12-3.04-2.24-5.66-5.52-5.97c-1.4-0.13-2.81-0.04-4.22-0.04c-5.71,0-5.71,0-5.71,5.81
				C794.21,168.95,794.21,168.95,800,168.93z M794.21,140.4c0,1.14,0.1,2.29-0.02,3.42c-0.19,1.77,0.34,2.57,2.27,2.4
				c1.83-0.16,3.69,0.02,5.53-0.05c3.15-0.11,5.54-2.49,5.6-5.5c0.06-3.13-2.32-5.61-5.59-5.79c-0.79-0.04-1.58-0.01-2.37-0.01
				C794.21,134.86,794.21,134.86,794.21,140.4z"/>
			<path class="st0" d="M1042.44,120.64c8.73,0,17.46,0.05,26.19-0.04c1.75-0.02,2.24,0.51,2.2,2.23c-0.11,4.76-0.1,9.53,0,14.29
				c0.04,1.69-0.39,2.3-2.18,2.25c-4.58-0.12-9.18,0.07-13.76-0.09c-2.07-0.07-2.66,0.5-2.65,2.62c0.1,12.79,0,25.58,0.1,38.37
				c0.02,2.11-0.57,2.67-2.63,2.6c-4.67-0.15-9.35-0.16-14.02,0c-2.32,0.08-3.13-0.45-3.1-2.99c0.15-12.61,0.01-25.22,0.12-37.84
				c0.02-2.2-0.58-2.85-2.78-2.77c-4.49,0.17-9-0.03-13.49,0.09c-1.79,0.05-2.44-0.35-2.38-2.28c0.15-4.76,0.12-9.53,0.01-14.29
				c-0.04-1.72,0.43-2.22,2.18-2.21C1024.97,120.69,1033.71,120.64,1042.44,120.64z"/>
			<path class="st0" d="M1119.76,21.8c3.58,0.75,7.18,1.42,10.74,2.28c1.45,0.35,2.26,0.12,2.95-1.26c0.98-1.94,2.19-3.76,3.6-6.13
				c0.7,2.31,1.47,4.07,1.75,5.91c0.43,2.8,1.96,4,4.65,4.29c1.8,0.19,3.57,0.72,5.88,1.2c-2.38,1.53-4.26,2.82-6.22,3.97
				c-1.26,0.75-1.7,1.51-1.06,2.99c0.9,2.08,1.55,4.27,2.45,6.83c-2.33-1-3.79-2.49-5.27-3.84c-1.67-1.53-3.03-1.83-4.96-0.33
				c-2.18,1.7-4.65,3.02-7.56,4.87c0.99-2.77,1.61-4.96,2.56-7.01c0.86-1.85,0.39-3.03-0.99-4.36c-3.02-2.91-5.88-5.99-8.81-9
				C1119.57,22.08,1119.66,21.94,1119.76,21.8z"/>
			<path class="st0" d="M1062.59,87c-0.82-0.65-1.64-1.29-2.46-1.94c-4.42-3.55-4.41-3.55-9.2-0.46c-1.4,0.9-2.79,1.8-4.48,2.9
				c0.38-2.64,1.36-4.71,2.2-6.78c0.58-1.44,0.42-2.38-0.7-3.48c-2.98-2.95-5.84-6.03-9.29-9.63c4.53,0.94,8.29,1.64,12,2.53
				c1.32,0.32,1.94,0,2.45-1.18c0.79-1.83,1.69-3.6,2.91-6.14c0.84,2.87,1.53,4.98,2.07,7.14c0.34,1.34,0.93,2.07,2.42,2.27
				c2.16,0.3,4.28,0.9,6.63,1.43c-0.95,1.5-2.39,2-3.56,2.81c-3.92,2.73-3.56,1.42-2.08,5.89c0.49,1.48,1.02,2.95,1.53,4.43
				C1062.88,86.85,1062.74,86.92,1062.59,87z"/>
		</g>
		<g>
			<g id="pFjmcD.tif_00000102521766041069076410000012858290113180253317_">
				<g>
					<path class="st0" d="M70.29,45.38c2.96,1.22,5.7,2.47,8.53,3.48c8.03,2.87,16.34,4.01,24.83,3.52
						c8.85-0.5,17.29-2.69,25.2-6.73c0.68-0.35,1.18-0.28,1.81,0.03c7.6,3.73,15.61,5.93,24.07,6.56
						c11.81,0.89,22.96-1.39,33.55-6.6c0.24-0.12,0.48-0.23,0.87-0.42c0.04,0.41,0.09,0.73,0.09,1.04
						c0,35.36,0.09,70.72-0.05,106.07c-0.04,10.93-7.93,19.52-18.08,22.1c-3.35,0.85-6.75,0.62-10.14,0.76
						c-8.27,0.35-16.36,1.59-23.98,5.02c-2.21,1-4.34,2.19-6.47,3.36c-0.58,0.32-0.99,0.36-1.57,0c-7.15-4.41-14.94-6.98-23.29-7.76
						c-4.15-0.38-8.32-0.59-12.49-0.68c-11.21-0.23-21.03-8.76-22.66-19.83c-0.15-0.99-0.22-2-0.22-3
						c-0.01-35.2-0.01-70.41-0.01-105.61C70.29,46.28,70.29,45.86,70.29,45.38z M169.85,69.13c-0.97,0.35-1.68,0.64-2.4,0.88
						c-4.6,1.48-9.31,1.72-14.1,1.43c-7.78-0.47-15.32-1.93-22.48-5.12c-0.38-0.17-0.95-0.25-1.3-0.09
						c-5.76,2.63-11.84,4.02-18.08,4.82c-5.12,0.66-10.25,0.87-15.35-0.15c-1.88-0.37-3.7-1.02-5.67-1.57
						c-0.02,0.39-0.06,0.8-0.06,1.21c0.01,23.59,0.01,47.19,0.03,70.78c0.01,6.03,3.8,11.59,9.37,13.9c2.6,1.08,5.32,1.18,8.08,1.21
						c7.41,0.07,14.55,1.31,20.98,5.28c0.65,0.4,1.11,0.25,1.69-0.1c3.29-1.94,6.79-3.33,10.53-4.13c4.26-0.92,8.58-0.97,12.91-1.12
						c8.07-0.27,15.87-6.68,15.85-16.16c-0.05-23.17,0-46.34,0.01-69.51C169.85,70.25,169.85,69.79,169.85,69.13z M83.38,118.12
						c-0.01-0.11-0.03-0.22-0.04-0.33c0.83-0.37,1.71-0.65,2.48-1.11c3.09-1.86,3.39-5.36,0.69-7.49c-2.64-2.07-6.89-2.08-9.53-0.01
						c-2.86,2.24-2.69,5.72,0.46,7.54c1.08,0.62,2.35,0.9,3.54,1.33c0.02,0.08,0.05,0.15,0.07,0.23c-1.63,0.13-3.26,0.25-5.02,0.39
						c1.24,2.82,3.48,1.48,5.7,1.49c-0.67,1.82-1.28,3.48-1.99,5.41c-0.95-1.96-2.23-3.12-3.97-3.62c-0.68-0.19-1.47,0-2.21,0.02
						c0.07,0.75,0.13,1.5,0.22,2.25c0.02,0.14,0.13,0.28,0.21,0.41c0.93,1.54,2.37,2.31,4.08,2.59c0.86,0.14,1.05,0.51,0.95,1.32
						c-0.13,1.07-0.24,2.17-0.14,3.23c0.13,1.39,0.48,2.76,0.78,4.39c0.75-0.54,1.16-0.89,1.62-1.16c0.89-0.53,1-1.14,0.58-2.1
						c-1.01-2.34-0.94-4.73-0.04-7.12c0.71-1.9,1.37-3.82,2.08-5.81c3.72-0.26,4.28-0.57,4.19-2.36
						C86.51,117.79,84.95,117.96,83.38,118.12z M167.66,155.74c-0.67,2.94,1.87,3.2,3.75,4.39c-1.45,0.9-2.64,1.74-3.91,2.41
						c-3.29,1.72-5.59,4.34-7.18,7.63c-0.21,0.43-0.3,0.91-0.49,1.54c0.73,0,1.26-0.05,1.79,0.01c1.02,0.11,1.5-0.31,1.77-1.31
						c0.27-1,0.81-1.93,1.23-2.9c3.88,2,6.8,1.89,8.41-0.23c-1.43-1.68-3.4-2.05-5.7-2.14c2.05-1.38,3.88-2.61,5.77-3.89
						c2.92,1.86,4.03,1.98,4.78,0.46c-1.25-0.71-2.5-1.42-3.76-2.13c1.42-0.08,2.69,0.14,3.93,0.07c2.96-0.18,4.7-2.71,3.94-5.57
						c-0.74-2.81-3.59-5.12-6.62-5.38c-2.53-0.22-4.42,0.67-5.31,2.49c-0.89,1.82-0.35,4.19,1.33,5.95c0.25,0.26,0.49,0.53,0.73,0.8
						c-0.07,0.1-0.14,0.2-0.21,0.3C170.55,157.45,169.18,156.64,167.66,155.74z M128.32,170.03c-0.15-0.02-0.3-0.04-0.44-0.06
						c-0.02-0.41-0.01-0.82-0.06-1.23c-0.26-2.12-1.15-3.85-3.17-4.79c-1.69-0.79-3.27-0.38-4.69,0.67
						c-2.78,2.05-3.62,6.19-1.9,9.18c1.71,2.97,5.22,3.49,7.64,1.07c0.72-0.72,1.23-1.64,1.83-2.47c0.08,0.02,0.16,0.03,0.25,0.05
						c-0.39,1.41-0.78,2.81-1.17,4.21c1.31,0.32,2.52-0.08,2.6-1.31c0.17-2.37,1.58-2.55,3.41-2.68c1.32-0.09,2.62-0.53,4.26-0.89
						c-1.72,1.4-2.4,2.99-2.7,4.79c-0.13,0.76,0.17,1,0.9,0.85c2.4-0.5,4-1.92,4.8-4.23c0.15-0.43,0.25-0.87,0.43-1.52
						c1.22,0.52,2.3,0.99,3.4,1.43c0.33,0.13,0.82,0.3,1.03,0.16c0.74-0.5,1.4-1.14,2.36-1.95c-1.5-0.48-2.65-0.93-3.84-1.22
						c-3.36-0.82-6.67-0.44-9.96,0.5c-0.96,0.27-1.99,0.26-3.08,0.39c0.86-4.43,0.76-4.91-0.88-5.13
						C129,167.22,128.66,168.63,128.32,170.03z M80.55,64.98c-2.53-0.35-5.46,1.15-6.09,3.31c-1.12,3.86,1.65,5.3,4.54,6.57
						c-0.04,0.1-0.08,0.21-0.12,0.31c-1.46-0.18-2.92-0.36-4.37-0.53c-0.19,1.76,0.39,2.07,4.33,2.39c0.26,1.06,0.45,2.12,0.78,3.13
						c0.34,1.04,0.81,2.04,1.3,3.23c-2.85-1.43-3.37-1.6-4.88-1.57c-1.23,0.02-1.43,0.33-0.93,1.48c0.77,1.78,2.25,2.7,4.04,3.2
						c0.69,0.19,1.42,0.27,2.39,0.45c-0.35,1.21-0.71,2.34-1,3.48c-0.08,0.32-0.11,0.82,0.07,1c0.59,0.59,1.29,1.06,1.96,1.59
						c0.93-1.42,1.3-4.51,1.08-6.88c-0.23-2.36-1.17-4.47-2.06-6.61c-0.29-0.7-0.38-1.5-0.57-2.32c4.78,0.22,5,0.16,5.3-1.53
						c-1.53-0.11-3.07-0.22-4.6-0.33c4.79-1.98,6.33-3.63,5.71-6.36c-0.52-2.28-3.32-4.26-5.72-4c0.08,0.1,0.14,0.2,0.21,0.27
						c1.85,1.73,2.21,6.07,0.67,8.06c-1.2,1.55-3,1.43-3.96-0.28c-0.22-0.4-0.4-0.85-0.48-1.3C77.72,69.13,78.3,66.84,80.55,64.98z
						 M86.15,159.29c0.07,0.04,0.14,0.09,0.22,0.13c-1.38,0.78-2.75,1.55-4.12,2.33c1.01,1.47,1.98,1.35,4.99-0.61
						c0.88,0.69,1.72,1.42,2.64,2.05c0.93,0.64,1.93,1.17,3.09,1.86c-4.11,0.65-4.91,0.99-5.85,2.44c2.76,2.29,5.55,1.68,8.54-0.04
						c0.47,1.17,0.87,2.24,1.32,3.29c0.14,0.33,0.37,0.83,0.61,0.86c0.89,0.1,1.79,0.04,2.84,0.04c-0.7-2.38-2-4.18-3.47-5.88
						c-1.58-1.83-3.7-2.89-5.75-4.05c-0.77-0.43-1.42-1.06-2.21-1.66c3.87-2.18,4.25-2.69,3.32-4.28c-1.32,0.8-2.42,2.08-4.4,2.26
						c0.59-0.65,1-1.05,1.36-1.49c2.47-3.03,1.29-6.94-2.33-7.74c-3.54-0.78-7.7,1.7-8.69,5.17c-0.83,2.92,1,5.58,4.03,5.7
						C83.56,159.71,84.86,159.43,86.15,159.29z M177.03,118.14c-1.74-0.18-3.27-0.33-4.79-0.48c-0.1,1.24,0.53,2.07,1.77,2.25
						c0.61,0.09,1.25-0.05,1.84,0.07c0.34,0.07,0.75,0.43,0.87,0.75c0.45,1.22,0.67,2.55,1.21,3.72c1.38,2.98,1.64,5.92,0.25,8.96
						c-0.12,0.27-0.16,0.79,0,0.94c0.62,0.59,1.34,1.08,2.13,1.69c1.31-2.91,1.14-5.75,0.85-8.62c0.61-0.13,1.1-0.21,1.59-0.33
						c2.18-0.53,3.91-2.38,4.07-4.27c0.07-0.79-0.19-1.15-1.02-1.12c-1.38,0.05-2.58,0.52-3.56,1.48c-0.64,0.63-1.16,1.37-1.81,2.16
						c-0.7-1.73-1.73-3.25-1.74-5.18c1.96,0.02,4.17,1.3,5.41-1.49c-1.78-0.13-3.35-0.25-4.92-0.37c1.22-0.7,2.48-0.98,3.55-1.59
						c2.95-1.69,3.27-4.82,0.82-7.15c-2.73-2.61-7.68-2.58-10.38,0.05c-1.8,1.76-1.9,4.38-0.03,6.07
						C174.17,116.61,175.5,117.2,177.03,118.14z M151.28,59.7c0-0.77,0.12-1.74-0.03-2.67c-0.18-1.13-1.04-1.63-2.26-1.5
						c0.1,0.75,0.27,1.5,0.29,2.26c0.02,0.72-0.12,1.45-0.18,2.17c-0.42-0.62-0.54-1.23-0.77-1.79c-0.76-1.89-2.05-3.23-4.14-3.44
						c-2.02-0.2-3.58,0.73-4.73,2.38c-1.53,2.2-1.58,5.79-0.11,8.03c1.88,2.87,5.42,3.24,7.68,0.65c0.89-1.02,1.38-2.4,2.13-3.77
						c0,1.6,0,3.16,0,4.71c0.19,0.03,0.37,0.07,0.56,0.1c2.25-0.9,1.45-3.02,1.51-5.07c2.67,1.08,5.15,2.29,7.76,3.09
						c2.71,0.82,5.53,0.83,8.48-0.01c-0.39-0.56-0.74-0.97-0.99-1.43c-0.48-0.9-1.08-1.08-2.08-0.75c-1.02,0.33-2.14,0.38-3.22,0.55
						c-0.61-4.66-2.01-6.66-4.64-6.71c-0.66,2.08-0.02,3.94,1.24,5.9C155.44,61.43,153.42,60.59,151.28,59.7z M181.37,75.19
						c-0.02-0.11-0.05-0.23-0.07-0.34c4.11-2.08,5.49-4.15,4.43-6.67c-0.91-2.16-4.03-3.78-6.02-3.12c2.34,1.89,3.21,5.41,1.92,7.8
						c-0.46,0.85-1.08,1.53-2.14,1.56c-1.05,0.03-1.73-0.59-2.24-1.41c-0.22-0.35-0.39-0.76-0.48-1.17
						c-0.56-2.53-0.31-4.89,1.66-6.85c-2.58-0.13-5.45,1.84-5.68,4.25c-0.37,4.04,2.74,4.99,5.82,5.82
						c-0.01,0.11-0.03,0.21-0.04,0.32c-1.54,0.11-3.08,0.21-4.86,0.33c1.31,2.7,3.48,1.56,5.67,1.44c-0.93,2.71-2.04,5.18-2.6,7.77
						c-0.58,2.66-0.48,5.42,0.76,8.15c0.57-0.42,0.98-0.78,1.43-1.04c0.85-0.5,0.99-1.09,0.58-2.02c-0.42-0.96-0.59-2.02-0.87-3.04
						c4.67-1.01,6.8-2.66,6.58-5.02c-2.2-0.41-4.15,0.21-5.99,1.64c0.76-2.29,1.47-4.42,2.19-6.58c3.67-0.1,4.66-0.65,4.25-2.38
						C184.23,74.81,182.8,75,181.37,75.19z M110.82,62.2c1.68,4.19,4.18,6.04,7.13,5.07c2.35-0.77,4.12-3.72,3.45-5.73
						c-1.64,1.93-3.84,2.27-6.19,2.2c-2.04-0.07-3.45-1.02-3.52-2.34c-0.07-1.35,1.18-2.58,3.09-2.93c2.55-0.47,4.81,0.08,6.67,2.03
						c0.31-2.16-1.37-4.85-3.62-5.48c-4.2-1.16-5.78,1.56-7.02,4.88c0-1.47,0-2.95,0-4.42c-1.81-0.05-2.19,0.72-2.17,4.26
						c-2.14,0.89-4.23,1.75-6.57,2.72c1.41-1.99,2.11-3.87,1.25-6.26c-0.82,0.43-1.6,0.7-2.21,1.18c-1.49,1.17-2.16,2.79-2.15,4.67
						c0.01,0.81-0.27,1.17-1.08,1.02c-0.95-0.17-1.89-0.37-2.84-0.52c-0.31-0.05-0.77-0.07-0.93,0.1c-0.57,0.64-1.03,1.37-1.55,2.09
						c0.3,0.17,0.39,0.24,0.5,0.27c0.26,0.07,0.52,0.13,0.79,0.17c3.81,0.53,7.46,0.1,10.9-1.74c1.23-0.66,2.55-1.14,4-1.78
						c0,1.36-0.08,2.37,0.02,3.36c0.12,1.23,0.9,1.78,2.05,1.56C110.82,65.13,110.82,63.67,110.82,62.2z M77.97,61.55
						c-0.03,0.19-0.06,0.37-0.09,0.56c1.47-0.19,2.04,0.69,2.66,1.69c0.19,0.3,1.56,0.35,1.74,0.08c0.71-1.08,1.58-1.61,2.89-1.51
						c0.01-0.13,0.03-0.26,0.04-0.39c-0.86-0.25-1.71-0.49-2.63-0.75c-0.19-0.51-0.41-1.14-0.77-2.13
						c-0.56,0.93-0.94,1.56-1.24,2.04C79.63,61.29,78.8,61.42,77.97,61.55z M115.47,164.81c-1.16,0.47-1.25,1.42-1.32,2.35
						c-0.77,0.15-1.5,0.28-2.22,0.42c-0.01,0.1-0.03,0.2-0.04,0.29c0.63,0.41,1.25,0.82,1.91,1.26c-0.26,0.83-0.76,1.69,0.15,2.62
						c0.33-1.33,1.06-2.01,2.32-2.22c0.65-0.11,0.95-1.31,0.43-1.71C115.7,167.06,115.03,166.24,115.47,164.81z M177.36,145.43
						c-0.08,0.15-0.17,0.29-0.25,0.44c1.1,0.61,1.51,1.49,1.28,2.71c-0.11,0.61,1.02,1.52,1.48,1.2c1.13-0.81,2.2-0.94,3.4,0.02
						c0.07-0.16,0.15-0.32,0.22-0.48c-0.64-0.61-1.28-1.21-1.99-1.89c0.1-0.5,0.23-1.18,0.36-1.87c-0.1-0.07-0.19-0.14-0.29-0.2
						c-0.61,0.4-1.22,0.8-1.66,1.08C178.96,146.06,178.16,145.75,177.36,145.43z M76.65,149.33c0.1,0.14,0.2,0.28,0.3,0.41
						c0.97-0.7,1.93-0.92,2.99-0.25c0.3,0.19,0.9,0.19,1.2,0.01c0.29-0.18,0.38-0.7,0.54-1.08c0.29-0.71,0.55-1.43,0.85-2.13
						c0.09-0.21,0.31-0.36,0.47-0.53c-0.06-0.11-0.12-0.22-0.18-0.32c-0.81,0.33-1.62,0.65-2.48,1c-0.5-0.31-1.11-0.69-1.72-1.07
						c-0.1,0.08-0.2,0.17-0.3,0.25c0.13,0.68,0.27,1.37,0.35,1.8C77.9,148.14,77.27,148.74,76.65,149.33z M175.58,104.66
						c-0.02,0.13-0.03,0.26-0.05,0.4c1.36-0.08,2.13,0.52,2.63,1.71c0.11,0.27,1.59,0.38,1.74,0.14c0.7-1.11,1.58-1.7,2.99-1.56
						c-0.02-0.17-0.03-0.34-0.05-0.51c-0.87-0.19-1.74-0.39-2.63-0.59c-0.2-0.54-0.43-1.15-0.73-1.96c-0.37,0.4-0.64,0.55-0.7,0.77
						c-0.29,0.94-0.81,1.35-1.85,1.17C176.52,104.17,176.03,104.51,175.58,104.66z M134.93,64.4c0.15,0,0.3,0,0.46,0
						c0.19-1.21,0.75-2.08,1.94-2.52c0.6-0.22,0.71-1.42,0.15-1.65c-1.22-0.51-1.94-1.28-1.72-2.8c-0.17,0.03-0.34,0.07-0.51,0.1
						c-0.2,0.84-0.41,1.68-0.63,2.6c-0.58,0.21-1.3,0.46-2.02,0.72c0.01,0.12,0.03,0.24,0.04,0.36c0.66,0.26,1.32,0.53,1.84,0.73
						C134.65,62.83,134.79,63.62,134.93,64.4z M177.61,61.24c-0.9,0.26-1.72,0.49-2.53,0.72c0.02,0.12,0.04,0.25,0.05,0.37
						c1.23,0,2.11,0.47,2.78,1.55c0.17,0.27,1.64,0.2,1.73-0.03c0.5-1.21,1.28-1.85,2.9-1.73c-0.4-0.37-0.51-0.57-0.65-0.59
						c-0.71-0.11-1.56,0.05-2.09-0.3c-0.56-0.36-0.81-1.19-1.39-2.12C178.04,60.08,177.79,60.74,177.61,61.24z M127.32,61.21
						c0-0.13-0.01-0.26-0.01-0.39c-0.7-0.25-1.41-0.5-2.17-0.77c0.08-0.92,0.09-1.83-0.87-2.47c0.12,1.34-0.44,2.1-1.62,2.55
						c-0.56,0.21-0.65,1.46-0.13,1.67c1.22,0.49,1.92,1.32,2,2.72c0.16-0.03,0.31-0.05,0.47-0.08c0.15-0.81,0.31-1.62,0.48-2.51
						C125.99,61.72,126.65,61.46,127.32,61.21z M77.32,104.84c0.01,0.18,0.01,0.36,0.02,0.54c1.35-0.15,2.21,0.41,2.92,1.48
						c0.18,0.28,1.55,0.24,1.65,0.01c0.55-1.17,1.3-1.92,2.78-1.84c-0.04-0.16-0.08-0.31-0.12-0.47c-0.86-0.15-1.71-0.3-2.63-0.46
						c-0.29-0.51-0.63-1.12-0.98-1.72c-0.11,0.02-0.22,0.03-0.34,0.05c-0.25,0.66-0.49,1.31-0.67,1.8
						C78.99,104.45,78.16,104.64,77.32,104.84z"/>
					<path class="st0" d="M166.11,216.04c-1.07,0-2.06,0-3.18,0c0-4.03,0-8.02,0-12.01c-0.08-0.01-0.16-0.02-0.23-0.03
						c-0.71,2.78-1.42,5.56-2.13,8.34c-0.25,0.97-0.52,1.94-0.72,2.92c-0.12,0.58-0.35,0.83-0.99,0.85
						c-2.58,0.09-2.57,0.11-3.2-2.43c-0.77-3.09-1.56-6.18-2.63-9.26c0,3.84,0,7.69,0,11.6c-1.2,0-2.18,0-3.25,0
						c0-5.63,0-11.21,0-16.98c1.61,0,3.22-0.03,4.82,0.04c0.21,0.01,0.48,0.53,0.57,0.86c0.87,3.16,1.7,6.32,2.55,9.49
						c0.04,0.16,0.09,0.33,0.35,0.51c0.51-1.92,1.03-3.84,1.54-5.75c0.4-1.49,0.76-2.99,1.2-4.47c0.08-0.28,0.47-0.65,0.73-0.66
						c1.5-0.06,3-0.03,4.57-0.03C166.11,204.73,166.11,210.32,166.11,216.04z"/>
					<path class="st0" d="M77.06,243.38c0-5.6,0-11.07,0-16.58c3.14,0,6.22-0.1,9.29,0.04c1.89,0.09,3.28,1.2,3.74,3.1
						c0.47,1.92-0.26,3.46-1.92,4.56c2.57,1.5,3.36,3.13,2.68,5.49c-0.54,1.88-2.06,3.28-4.12,3.36
						C83.54,243.47,80.34,243.38,77.06,243.38z M80.52,240.46c1.63,0,3.2,0.03,4.77-0.01c1.38-0.04,2.11-0.71,2.16-1.9
						c0.06-1.27-0.59-2.15-1.96-2.25c-1.64-0.12-3.29-0.03-4.97-0.03C80.52,237.68,80.52,239.02,80.52,240.46z M80.52,233.23
						c1.57,0,3.04,0.05,4.5-0.02c1.12-0.05,1.76-0.75,1.8-1.74c0.04-1.1-0.43-1.72-1.65-1.8c-1.53-0.1-3.06-0.02-4.65-0.02
						C80.52,230.84,80.52,231.98,80.52,233.23z"/>
					<path class="st0" d="M224.52,208.63c2.65,1.99,3.73,4.86,5.63,7.47c-1.47,0-2.66,0.05-3.84-0.03c-0.33-0.02-0.71-0.4-0.93-0.71
						c-1.09-1.54-2.17-3.1-3.18-4.69c-0.95-1.49-2.26-1.85-4-1.49c0,2.26,0,4.52,0,6.85c-1.22,0-2.31,0-3.46,0
						c0-5.66,0-11.24,0-16.97c2.57,0,5.1-0.02,7.64,0.01c0.88,0.01,1.78,0.06,2.64,0.23c2.24,0.44,3.49,1.92,3.62,4.16
						c0.14,2.41-0.95,4.12-3.09,4.86C225.25,208.4,224.96,208.49,224.52,208.63z M218.24,206.29c1.87-0.09,3.64-0.09,5.39-0.28
						c0.97-0.11,1.36-0.96,1.38-1.89c0.02-0.99-0.44-1.88-1.44-1.96c-1.75-0.15-3.52-0.04-5.33-0.04
						C218.24,203.48,218.24,204.74,218.24,206.29z"/>
					<path class="st0" d="M107.27,215.96c0-5.63,0-11.18,0-16.87c2.62,0,5.19-0.01,7.76,0c1.89,0.01,3.44,0.76,4.66,2.21
						c0.1,0.12,0.19,0.24,0.28,0.37c2.13,2.99,2.12,8.79,0.01,11.78c-1.03,1.45-2.46,2.36-4.16,2.46
						C113.02,216.08,110.2,215.96,107.27,215.96z M110.87,213.05c1.28,0,2.47,0.05,3.65-0.01c1.72-0.08,2.82-0.82,3.02-2.47
						c0.23-1.92,0.21-3.91,0.02-5.84c-0.14-1.4-1.18-2.39-2.62-2.56c-1.32-0.16-2.67-0.03-4.07-0.03
						C110.87,205.75,110.87,209.32,110.87,213.05z"/>
					<path class="st0" d="M213.08,207.54c0.03,4.19-1.71,7.22-5.03,8.28c-5.6,1.78-11.45-0.75-11.5-7.94
						c-0.02-2.51,0.43-4.84,2.2-6.76c2.12-2.31,5.97-3.09,9.35-1.81c3.13,1.18,4.57,3.63,4.9,6.83
						C213.05,206.61,213.05,207.08,213.08,207.54z M200.14,207.53c0.03,0,0.06,0.01,0.1,0.01c0,0.39-0.03,0.77,0,1.16
						c0.2,2.55,1.87,4.43,4.07,4.59c2.5,0.19,4.42-1.1,4.87-3.59c0.26-1.44,0.24-3.01-0.02-4.45c-0.4-2.25-2.05-3.43-4.28-3.44
						c-2.28-0.01-3.87,1.2-4.42,3.45C200.28,206,200.25,206.77,200.14,207.53z"/>
					<path class="st0" d="M124.83,231.39c-1.16,0.23-2.21,0.43-3.33,0.65c-0.62-1.36-1.49-2.42-3.1-2.58
						c-3.09-0.31-5.15,1.35-5.41,4.48c-0.08,0.95,0,1.93,0.17,2.87c0.79,4.48,5.33,4.73,7.98,2.74c0.44-0.33,0.39-1.33,0.6-2.16
						c-1.47,0-2.66,0-3.95,0c0-1.02,0-1.95,0-2.93c0.23-0.03,0.41-0.07,0.6-0.07c2.16,0,4.32,0,6.65,0c0,2.21,0.01,4.35-0.02,6.5
						c0,0.21-0.24,0.46-0.42,0.63c-2.77,2.36-8,2.9-11.16,1.18c-3.18-1.73-4.17-5.09-4.05-8.15c0.1-2.55,0.93-4.84,3.04-6.49
						c2.44-1.9,6.98-2.23,9.66-0.68C123.55,228.25,124.42,229.56,124.83,231.39z"/>
					<path class="st0" d="M126.15,235.12c0.39-1.6,0.55-3.09,1.11-4.4c1.42-3.3,4.62-4.74,8.81-4.2c3.28,0.42,5.88,2.92,6.33,6.3
						c0.2,1.47,0.21,3.01,0,4.48c-0.52,3.73-3.21,6.11-6.98,6.38c-3.42,0.25-6.37-0.65-7.99-3.89
						C126.72,238.35,126.55,236.65,126.15,235.12z M139.12,235.09c-0.03-0.01-0.05-0.01-0.08-0.02c-0.03-0.54-0.02-1.08-0.08-1.62
						c-0.27-2.3-1.83-3.88-3.92-4.01c-2.52-0.15-4.37,1-4.77,3.37c-0.26,1.55-0.2,3.23,0.12,4.77c0.43,2.06,2.08,3.13,4.15,3.13
						c2.07-0.01,3.61-1.12,4.18-3.13C138.94,236.77,138.99,235.92,139.12,235.09z"/>
					<path class="st0" d="M108.38,235.15c-0.03,4.32-2.04,7.32-5.54,8.26c-6.54,1.76-11.67-2.93-10.65-9.74
						c0.61-4.07,2.88-6.65,6.3-7.15C104.43,225.65,108.42,229.13,108.38,235.15z M95.69,234.7c0.04,0.8,0.04,1.27,0.09,1.73
						c0.28,2.35,1.87,4.09,3.89,4.26c2.44,0.21,4.33-0.9,4.77-3.23c0.3-1.58,0.3-3.32,0-4.9c-0.41-2.16-2.09-3.18-4.38-3.13
						c-2.04,0.05-3.56,1.25-4.06,3.31C95.81,233.49,95.76,234.26,95.69,234.7z"/>
					<path class="st0" d="M178.76,243.38c0-5.58,0-11.03,0-16.54c0.2-0.04,0.38-0.11,0.55-0.11c2.36,0,4.72-0.05,7.08,0.02
						c2.59,0.07,4.53,1.29,5.53,3.7c1.26,3.01,1.29,6.1,0.06,9.13c-0.9,2.24-2.66,3.58-5.03,3.75
						C184.28,243.52,181.57,243.38,178.76,243.38z M182.25,240.44c1.34,0,2.58,0.04,3.8-0.01c1.5-0.07,2.4-0.74,2.8-2.16
						c0.56-2,0.6-4.04,0.06-6.06c-0.31-1.16-0.98-2.11-2.19-2.3c-1.45-0.23-2.95-0.21-4.47-0.3
						C182.25,233.34,182.25,236.81,182.25,240.44z"/>
					<path class="st0" d="M41.1,243.38c0-5.58,0-11.02,0-16.54c0.23-0.04,0.45-0.11,0.66-0.11c2.28,0,4.56-0.04,6.84,0.01
						c2.85,0.06,4.85,1.46,5.83,4.13c1.01,2.77,1.03,5.6,0.02,8.39c-0.87,2.4-2.64,3.88-5.15,4.07
						C46.62,243.53,43.91,243.38,41.1,243.38z M44.62,240.45c1.28,0,2.47,0.04,3.66-0.01c1.62-0.07,2.67-0.72,2.89-2.3
						c0.26-1.88,0.27-3.83,0.1-5.72c-0.13-1.45-1.16-2.49-2.67-2.65c-1.29-0.14-2.61-0.03-3.99-0.03
						C44.62,233.28,44.62,236.78,44.62,240.45z"/>
					<path class="st0" d="M68.65,233.2c0.08,0.26,0.12,0.33,0.12,0.4c0.15,2.56,0.15,2.56-2.4,2.56c-1.93,0-3.85,0-5.86,0
						c0,1.43,0,2.77,0,4.25c3,0,6.03,0,9.15,0c0,1.05,0,1.94,0,2.93c-4.17,0-8.36,0-12.63,0c0-5.51,0-11,0-16.56
						c4.08,0,8.12,0,12.26,0c0,0.91,0,1.81,0,2.83c-2.89,0-5.77,0-8.76,0c0,1.24,0,2.36,0,3.59C63.25,233.2,65.94,233.2,68.65,233.2
						z"/>
					<path class="st0" d="M166.74,216.1c0.82-2.11,1.59-4.08,2.35-6.05c1.3-3.34,2.62-6.67,3.88-10.03
						c0.27-0.71,0.57-1.03,1.39-1.02c2.73,0.03,2.73-0.01,3.74,2.5c1.79,4.47,3.58,8.94,5.37,13.4c0.13,0.32,0.22,0.65,0.4,1.17
						c-1.23,0-2.36,0.04-3.49-0.03c-0.21-0.01-0.45-0.46-0.58-0.74c-0.45-0.98-0.6-2.38-1.34-2.85c-0.81-0.51-2.16-0.19-3.28-0.19
						c-1.08,0-2.39-0.3-3.16,0.21c-0.71,0.46-0.91,1.79-1.21,2.78c-0.21,0.69-0.58,0.89-1.26,0.86
						C168.68,216.06,167.79,216.1,166.74,216.1z M172.98,209.26c1.59,0,2.97,0,4.48,0c-0.74-1.96-1.44-3.84-2.26-6.02
						C174.41,205.41,173.72,207.27,172.98,209.26z"/>
					<path class="st0" d="M144.34,216.09c-1.17,0-2.21,0.04-3.24-0.02c-0.26-0.02-0.51-0.33-0.76-0.51
						c-0.05-0.04-0.07-0.14-0.1-0.21c-0.41-0.99-0.55-2.42-1.28-2.87c-0.86-0.52-2.24-0.21-3.39-0.22
						c-1.04-0.01-2.33-0.32-3.05,0.18c-0.71,0.48-0.88,1.79-1.22,2.77c-0.22,0.62-0.49,0.96-1.22,0.91
						c-0.88-0.07-1.77-0.02-2.86-0.02c0.4-1.02,0.73-1.9,1.07-2.77c1.73-4.46,3.47-8.91,5.17-13.37c0.26-0.68,0.59-0.94,1.34-0.94
						c2.74,0,2.74-0.03,3.79,2.59c1.77,4.43,3.55,8.87,5.32,13.3C144.04,215.25,144.16,215.61,144.34,216.09z M133.46,209.22
						c1.52,0,2.91,0,4.43,0c-0.75-1.98-1.45-3.84-2.26-5.98C134.83,205.45,134.15,207.32,133.46,209.22z"/>
					<path class="st0" d="M75.96,215.93c0.5-1.27,0.99-2.51,1.47-3.75c1.57-4.06,3.16-8.11,4.7-12.18c0.27-0.71,0.61-1,1.42-0.99
						c2.67,0.03,2.67,0,3.7,2.56c1.78,4.43,3.55,8.86,5.33,13.3c0.14,0.35,0.27,0.71,0.46,1.24c-1.19,0-2.25,0.03-3.31-0.02
						c-0.23-0.01-0.48-0.28-0.67-0.48c-0.12-0.13-0.15-0.35-0.22-0.53c-1.1-2.81-1.1-2.81-4.17-2.81c-0.97,0-1.94-0.06-2.89,0.03
						c-0.35,0.03-0.69,0.41-0.97,0.69c-0.15,0.15-0.18,0.42-0.26,0.64C79.53,216.36,79.14,216.56,75.96,215.93z M84.35,203.23
						c-0.8,2.19-1.48,4.06-2.18,6c1.52,0,2.91,0,4.43,0C85.86,207.25,85.16,205.4,84.35,203.23z"/>
					<path class="st0" d="M47.35,216.09c-1.21,0-2.25,0.05-3.29-0.03c-0.28-0.02-0.63-0.37-0.76-0.66
						c-0.36-0.76-0.67-1.56-0.92-2.37c-0.2-0.63-0.56-0.81-1.19-0.79c-1.66,0.04-3.33,0.04-4.99,0c-0.66-0.02-1.02,0.2-1.16,0.83
						c-0.04,0.19-0.13,0.36-0.2,0.54c-1.03,2.75-1.39,2.94-4.58,2.32c0.56-1.45,1.12-2.88,1.67-4.3c1.51-3.88,3.03-7.76,4.5-11.66
						c0.28-0.74,0.65-0.98,1.44-0.97c2.65,0.03,2.66-0.01,3.65,2.47c1.78,4.44,3.56,8.88,5.33,13.33
						C47,215.15,47.13,215.51,47.35,216.09z M38.64,203.23c-0.8,2.22-1.47,4.09-2.15,5.98c1.55,0,2.91,0,4.4,0
						C40.15,207.24,39.46,205.4,38.64,203.23z"/>
					<path class="st0" d="M172.53,243.35c-0.23,0.04-0.3,0.07-0.38,0.07c-1.08-0.01-2.38,0.33-3.17-0.16
						c-0.71-0.44-0.9-1.78-1.26-2.74c-0.21-0.57-0.46-0.87-1.15-0.85c-1.66,0.06-3.32,0.04-4.98,0.01
						c-0.59-0.01-0.98,0.13-1.07,0.76c-0.01,0.04-0.02,0.07-0.04,0.11c-1.17,3.11-1.17,3.11-4.71,2.79
						c2.16-5.55,4.3-11.07,6.43-16.54c0.15-0.03,0.22-0.06,0.3-0.07c3.33-0.16,3.34-0.16,4.58,2.92c1.71,4.26,3.41,8.52,5.12,12.77
						C172.31,242.71,172.4,242.99,172.53,243.35z M166.22,236.66c-0.71-1.9-1.39-3.71-2.19-5.84c-0.78,2.16-1.44,3.97-2.11,5.84
						C163.39,236.66,164.73,236.66,166.22,236.66z"/>
					<path class="st0" d="M75.79,203.65c-0.2,0.13-0.28,0.23-0.39,0.25c-1,0.24-2.01,0.47-3.06,0.71c-0.56-1.64-1.55-2.71-3.33-2.8
						c-2.28-0.11-3.96,1.19-4.26,3.65c-0.19,1.54-0.11,3.17,0.16,4.71c0.34,1.98,1.71,3.05,3.49,3.13c1.87,0.09,3.02-0.76,3.76-2.77
						c0.09-0.25,0.19-0.49,0.31-0.81c1.14,0.37,2.22,0.72,3.29,1.07c-0.9,3.72-3.24,5.54-7.02,5.53c-3.8-0.01-6.72-2.21-7.49-5.8
						c-0.58-2.73-0.54-5.47,0.85-8c2.6-4.74,10.19-5.17,12.84-0.73C75.29,202.38,75.51,203.03,75.79,203.65z"/>
					<path class="st0" d="M210.86,237.2c1.11,0.36,2.16,0.71,3.2,1.05c-0.81,3.59-3.15,5.45-6.79,5.48
						c-3.67,0.03-6.61-2.12-7.41-5.59c-0.56-2.4-0.55-4.83,0.4-7.17c1.77-4.35,7.54-6.02,11.4-3.32c1.26,0.88,2.01,2.1,2.41,3.73
						c-1.12,0.27-2.21,0.53-3.34,0.8c-0.56-1.54-1.43-2.59-3.07-2.73c-2.23-0.18-3.96,0.92-4.28,3.13
						c-0.25,1.68-0.19,3.46,0.08,5.14c0.3,1.88,1.66,2.9,3.33,2.98c1.9,0.09,2.97-0.66,3.73-2.63
						C210.61,237.83,210.71,237.58,210.86,237.2z"/>
					<path class="st0" d="M188.75,205.68c1.17-2.02,2.31-3.9,3.38-5.82c0.35-0.62,0.75-0.88,1.47-0.84c0.95,0.06,1.9,0.01,3.09,0.01
						c-0.92,1.46-1.71,2.72-2.5,3.99c-0.31,0.49-0.57,1.02-0.94,1.46c-2.4,2.84-3.32,6.09-2.83,9.76c0.08,0.56,0.01,1.14,0.01,1.78
						c-1.23,0-2.33,0-3.58,0c0-2.01,0.06-3.97-0.03-5.93c-0.04-0.76-0.27-1.59-0.66-2.25c-1.55-2.59-3.19-5.11-4.8-7.66
						c-0.2-0.32-0.39-0.64-0.69-1.15c1.37,0,2.55-0.06,3.72,0.04c0.31,0.02,0.67,0.45,0.87,0.78
						C186.42,201.75,187.55,203.67,188.75,205.68z"/>
					<path class="st0" d="M148.04,229.67c-1.45,0-2.76-0.03-4.06,0.01c-0.73,0.03-1.08-0.18-1.01-0.97
						c0.05-0.61,0.01-1.22,0.01-1.91c4.48,0,8.86,0,13.32,0c0,0.9,0,1.81,0,2.85c-1.57,0-3.13,0-4.8,0c0,4.64,0,9.14,0,13.71
						c-1.18,0-2.24,0-3.45,0C148.04,238.84,148.04,234.3,148.04,229.67z"/>
					<path class="st0" d="M51.65,199.25c0,4.58,0,9.12,0,13.84c2.09,0,4.09,0,6.08,0c2.69,0,2.69,0,2.43,2.74
						c0,0.03-0.04,0.06-0.13,0.19c-3.85,0-7.77,0-11.76,0c0-5.56,0-11.12,0-16.76C49.35,199.25,50.45,199.25,51.65,199.25z"/>
					<path class="st0" d="M105.82,216.03c-3.98,0-7.9,0-11.89,0c0-5.61,0-11.16,0-16.79c1.13,0,2.22,0,3.43,0c0,4.59,0,9.13,0,13.84
						c1.63,0,3.16,0,4.69,0c0.46,0,0.93,0,1.39,0C106.18,213.08,106.18,213.08,105.82,216.03z"/>
					<path class="st0" d="M126.75,216.05c-1.19,0-2.26,0-3.42,0c0-5.66,0-11.28,0-16.95c1.16,0,2.26,0,3.42,0
						C126.75,204.75,126.75,210.34,126.75,216.05z"/>
					<path class="st0" d="M194.61,240.24c1.16,0,2.12,0,3.16,0c0,1.05,0,2.07,0,3.16c-1.05,0-2.06,0-3.16,0
						C194.61,242.35,194.61,241.31,194.61,240.24z"/>
					<path class="st0" d="M219.21,243.42c-1.15,0-2.17,0-3.34,0c0-0.88-0.03-1.72,0.02-2.55c0.01-0.21,0.23-0.57,0.38-0.58
						c0.84-0.06,1.69-0.06,2.53-0.01c0.15,0.01,0.38,0.36,0.4,0.57C219.24,241.69,219.21,242.52,219.21,243.42z"/>
					<path class="st0" d="M129.52,194.01c-1.15,1.26-1.99,2.38-3.04,3.24c-0.52,0.42-1.44,0.34-2.48,0.55
						c0.61-1.35,1.04-2.36,1.53-3.34c0.11-0.21,0.45-0.42,0.7-0.44C127.21,193.98,128.2,194.01,129.52,194.01z"/>
					<path class="st0" d="M168.08,221.78c-1.07,1.18-1.82,2.23-2.8,3c-0.57,0.46-1.49,0.48-2.25,0.69c-0.06-0.1-0.13-0.2-0.19-0.3
						c0.45-1,0.89-2.01,1.37-2.99c0.09-0.19,0.39-0.38,0.61-0.39C165.81,221.76,166.8,221.78,168.08,221.78z"/>
					<path class="st0" d="M162.42,104.63c-4.75,3.79-9.77,5.3-15.75,4.24c2.93,2.99,6.09,4.79,10.21,4.62
						c-2.22,1.8-4.72,2.67-7.52,2.81c-2.77,0.14-5.34-0.53-8.07-1.97c1.55,2.92,3.46,4.97,6.4,6.21c-2.49,1.38-4.93,1.72-7.41,0.91
						c-1.41-0.46-2.69-1.31-4.01-2c-0.24-0.12-0.43-0.47-0.64-0.47c-0.53,0.01-1.06,0.16-1.59,0.25c0.12,0.44,0.09,1.07,0.38,1.3
						c0.96,0.77,2.01,1.43,3.07,2.06c1.46,0.87,2.99,1.62,4.41,2.54c1.3,0.85,2.38,1.95,2.99,3.58c-0.76,0.2-1.45,0.37-2.31,0.6
						c2.14,2.23,4.19,4.36,6.25,6.49c0.12,0.13,0.34,0.27,0.49,0.24c0.81-0.15,1.61-0.34,2.6-0.56c-1.64-1.04-3.64-1.85-2.61-4.38
						c1.54,1,2.99,1.95,4.64,3.02c-0.99-1.56-1.94-2.76-2.55-4.11c-0.67-1.48-0.43-3.04,0.51-4.41c1.56-2.28,4.39-2.75,8.38-1.4
						c0.84-1.6-0.12-2.65-1.35-3.63c0.12-0.12,0.24-0.25,0.35-0.37c0.92,0.35,1.83,0.69,2.89,1.09c0.49-0.35,1.18-0.85,1.87-1.35
						c0.11,0.07,0.22,0.13,0.32,0.2c-0.11,0.81-0.21,1.62-0.32,2.48c0.99,0.4,1.85,0.96,1.95,2.54c-1.56-1.35-2.82-0.96-4.04,0.11
						c2.34,2.22,3.9,4.76,2.1,8.04c-1.23,2.25-3.75,2.76-7.73,2.02c0.63,0.4,1.23,0.86,1.89,1.19c0.72,0.36,1.5,0.6,2.3,0.92
						c-0.31,0.98-1.03,1.45-1.91,1.36c-0.81-0.08-1.64-0.37-2.36-0.76c-0.7-0.37-1.27-0.99-1.99-1.58c-0.07,0.33-0.14,0.49-0.1,0.53
						c1.29,1.31,0.63,2.7,0.17,4.07c-0.07,0.21-0.22,0.48-0.4,0.55c-1.25,0.51-2.48,1.14-3.79,1.38c-0.68,0.13-0.99,0.3-1.06,0.87
						c-0.21,1.72-0.43,3.44-0.55,5.17c-0.12,1.69-0.14,1.77-1.79,1.79c-0.61,0.01-1.23,0-2.02,0c0.09-0.91,0.15-1.74,0.27-2.55
						c0.11-0.8,0.27-1.58,0.41-2.37c-4.27-1.05-6.64-3.89-6.12-7.27c2.63-0.65,5.37,1.83,6.4,5.82c0.65-1.41,1.45-2.75,1.84-4.19
						c0.19-0.72-0.14-1.87-0.66-2.41c-0.9-0.92-2.12-1.53-3.23-2.24c-1.46-0.93-2.94-1.84-4.53-2.83c-0.21,0.76-0.39,1.4-0.59,2.15
						c-0.79-0.69-1.45-1.38-2.21-1.92c-0.77-0.54-1.65-0.94-2.59-1.32c2.26,3.46,3.21,7.14,2.6,11.2c-1.13-0.68-2.18-1.3-3.23-1.93
						c-0.1,0.08-0.2,0.15-0.3,0.23c1.09,2.57,1.1,5.17,0.34,7.78c-0.73,2.55-1.93,4.86-3.46,7.02c-3.3-2.55-4.78-9.61-3.28-15.03
						c-1.04,0.62-2.09,1.23-3.18,1.88c-0.64-3.89,0.19-7.53,2.61-11.07c-2.1,0.61-3.52,1.72-4.91,3.26
						c-0.21-0.78-0.39-1.41-0.61-2.21c-1.12,0.69-2.16,1.32-3.19,1.96c-1.15,0.72-2.3,1.43-3.43,2.17
						c-2.06,1.34-2.27,2.24-1.19,4.51c0.48,1.01,0.86,2.06,1.28,3.08c0.96-3.98,3.3-6.22,6.28-6.04c0.96,3.12-1.92,6.74-5.93,7.3
						c0.22,1.61,0.44,3.24,0.67,4.95c-1.09,0-2.09,0.07-3.07-0.05c-0.26-0.03-0.61-0.6-0.65-0.96c-0.21-1.61-0.29-3.23-0.48-4.84
						c-0.07-0.64-0.3-1.26-0.65-1.63c-1.4-0.49-2.82-0.91-4.18-1.48c-1.03-0.43-1.62-3.05-1.03-4.13c0.18-0.32,0.39-0.63,0.44-1.11
						c-1,0.69-1.93,1.5-3.01,2.03c-1.28,0.63-2.39,0.18-3.17-1.06c1.48-0.75,2.96-1.51,4.44-2.26c-0.03-0.1-0.05-0.19-0.08-0.29
						c-3.21,0.87-6.35,1.27-8.25-2.25c-1.21-2.25-0.21-5.05,2.42-7.48c-1.95-1.28-1.95-1.28-3.86-0.44c-0.17-0.97,0.21-1.46,1.8-2.3
						c-0.08-0.38-0.17-0.78-0.24-1.19c-0.06-0.4-0.09-0.8-0.14-1.19c0.09-0.07,0.19-0.15,0.28-0.22c0.69,0.48,1.39,0.96,1.94,1.35
						c1.02-0.39,1.97-0.75,2.92-1.12c0.12,0.13,0.23,0.25,0.35,0.38c-1.12,0.99-2.41,1.93-1.38,3.59c4.43-1.21,7.04-0.72,8.48,1.62
						c1.41,2.28,0.81,4.54-2.11,7.9c0.06,0.1,0.12,0.19,0.18,0.29c1.42-0.91,2.83-1.83,4.25-2.74c1.08,1.4,0.56,2.37-2.33,4.2
						c1.69,0.84,2.51,0.74,3.73-0.51c1.78-1.82,3.53-3.65,5.4-5.6c-0.86-0.22-1.55-0.39-2.67-0.67c1.12-1.2,1.9-2.39,3-3.13
						c1.74-1.19,3.69-2.07,5.53-3.12c0.87-0.5,1.73-1.03,2.52-1.64c0.51-0.4,1.26-0.93,0.62-1.7c-0.58-0.7-1.24-0.28-1.83,0.18
						c-2.19,1.73-4.65,2.82-7.48,2.59c-1.41-0.11-2.8-0.6-4.43-0.97c1.46-1.03,2.68-1.7,3.67-2.63c0.99-0.93,1.74-2.11,2.51-3.31
						c-5.45,2.43-10.59,2.22-15.52-1.25c1.94-0.34,3.83-0.46,5.57-1.04c1.74-0.58,3.34-1.6,4.93-2.61
						c-6.09,0.68-11.1-1.29-15.33-5.39c3.86-0.88,7.62-1.73,11.38-2.59c-8.27-1.28-14.06-5.45-14.79-10.95
						c4.21,1.7,8.57,1.71,13.01,1.39c-3.44-1.58-6.6-3.5-8.97-6.51c-2.4-3.05-3.61-6.5-3.67-10.37c0.16-0.02,0.27-0.06,0.3-0.03
						c3.45,3.48,7.92,5.15,12.33,6.91c1.5,0.6,3.05,1.09,4.58,1.62c4.1,1.42,6.6,4.14,6.99,8.59c0.15,1.67,1.52,2.84,3.24,2.83
						c1.7-0.01,3.01-1.11,3.18-2.74c0.18-1.73,0.4-3.46,0.45-5.19c0.05-1.86-0.72-2.5-2.59-2.33c-0.64,0.06-1.28,0.19-2.02,0.3
						c-0.49-1.83-0.32-3.58,0.76-5.08c0.39-0.55,1.37-0.9,2.1-0.94c2.28-0.13,4.56-0.1,6.84-0.05c1.28,0.02,2.13,0.7,2.41,2.25
						c0.36,2,0.43,4.05,0.61,6.09c0.14,1.57,0.12,3.18,0.42,4.72c0.42,2.15,1.69,3.11,3.49,2.97c1.45-0.11,2.71-1.29,2.83-2.75
						c0.37-4.46,2.9-7.14,6.97-8.61c2.65-0.96,5.3-1.92,7.89-3.02c3.27-1.38,6.46-2.96,8.96-5.63c0.73,2.37-0.94,7.34-3.4,10.35
						c-2.41,2.95-5.53,4.87-8.99,6.36c4.37,0.34,8.71,0.64,13.13-1.2c-0.78,3.43-2.65,5.84-5.37,7.62c-2.67,1.75-5.7,2.41-8.86,2.74
						C154.65,102.9,158.23,104.23,162.42,104.63z M105.3,131.41c0.01-2.25-2.77-5.76-4.98-6.3c-1.44-0.35-2.23,0.15-2.51,1.6
						c-0.48,2.51,1.77,6.33,4.19,7.09C103.79,134.36,105.3,133.28,105.3,131.41z M161.68,127.81c-0.01-2.59-1.31-3.43-3.21-2.44
						c-2.07,1.09-3.43,2.83-4.18,5.04c-0.38,1.12-0.23,2.15,0.68,2.96c0.85,0.76,2.1,0.8,3.23,0.08
						C160.4,132.03,161.46,129.93,161.68,127.81z M128.8,82.15c-0.35-0.22-0.84-0.79-1.38-0.83c-0.74-0.06-1.27,0.53-1.23,1.36
						c0.04,0.8,0.58,1.17,1.31,1.17C128.32,83.86,128.76,83.38,128.8,82.15z"/>
					<path class="st0" d="M123.33,73.62c1.44,0.51,2.88,1.02,4.45,1.57c0.6-1.32,1.19-2.62,1.91-4.21c0.64,1.55,1.16,2.81,1.73,4.2
						c1.49-0.53,2.94-1.05,4.4-1.57c0.06,0.08,0.13,0.16,0.19,0.24c-0.94,1.43-1.86,2.87-2.85,4.27c-0.15,0.21-0.62,0.27-0.95,0.27
						c-1.74,0.03-3.48,0.03-5.21,0c-0.35-0.01-0.85-0.11-1.02-0.35c-1-1.36-1.92-2.78-2.87-4.17
						C123.18,73.78,123.25,73.7,123.33,73.62z"/>
					<path class="st0" d="M84.58,113.78c-0.2,0.59-0.36,1.62-0.85,2.45c-0.92,1.57-2.76,1.55-3.82,0.07
						c-1.3-1.82-1.24-5.72,0.12-7.49c0.76-0.99,1.72-1.07,2.69-0.18C84.11,109.9,84.41,111.61,84.58,113.78z"/>
					<path class="st0" d="M179.36,152.8c-0.22,2.02-1.39,3.95-3.59,5.2c-0.9,0.51-1.85,0.58-2.7-0.13
						c-0.87-0.72-1.06-1.66-0.75-2.72c0.66-2.19,2.05-3.79,4.09-4.76C178.22,149.55,179.37,150.34,179.36,152.8z"/>
					<path class="st0" d="M121.94,167.1c1.76,0.18,3.36,0.53,4.61,1.79c1.19,1.19,0.96,2.61-0.51,3.45
						c-2.25,1.28-6.83,0.05-8.11-2.19c-0.54-0.94-0.32-1.83,0.78-2.26C119.74,167.49,120.86,167.35,121.94,167.1z"/>
					<path class="st0" d="M87.87,155.91c0.02,1.95-1.35,2.92-3.15,2.24c-2.3-0.87-4.33-4.33-3.85-6.54
						c0.27-1.24,0.93-1.69,2.17-1.47C85.27,150.55,87.85,153.62,87.87,155.91z"/>
					<path class="st0" d="M175.63,113.51c0.06-1.87,0.46-3.29,1.43-4.51c1.09-1.36,2.53-1.29,3.37,0.22
						c1.11,1.99,1.23,4.11,0.42,6.24c-0.51,1.33-1.48,1.99-2.6,1.91c-1.32-0.1-1.92-1.05-2.3-2.14
						C175.73,114.59,175.7,113.88,175.63,113.51z"/>
					<path class="st0" d="M143.88,64.03c-1.43-0.5-2.95-0.84-4.27-1.55c-1.46-0.79-1.45-1.98-0.08-2.9
						c2.24-1.51,4.66-1.76,7.13-0.57c0.98,0.47,1.71,1.23,1.59,2.45c-0.13,1.24-1.05,1.74-2.09,2.03c-0.7,0.19-1.44,0.23-2.16,0.33
						C143.95,63.89,143.92,63.96,143.88,64.03z"/>
				</g>
			</g>
		</g>
		<line class="st1" x1="714.7" y1="50.34" x2="714.7" y2="242.51"/>
		<line class="st1" x1="274.76" y1="45.22" x2="274.76" y2="237.39"/>
		<g>
			<path class="st0" d="M398.55,108.64l2.13-3.88c1.37,1.49,2.9,2.24,4.59,2.24c0.97,0,1.75-0.31,2.35-0.91
				c0.6-0.61,0.9-1.4,0.9-2.37c0-0.65-0.17-1.24-0.52-1.79c-0.35-0.55-0.8-1.03-1.34-1.44c-0.55-0.41-1.15-0.82-1.81-1.23
				c-0.66-0.41-1.32-0.86-1.98-1.34c-0.66-0.48-1.26-1.01-1.81-1.58c-0.55-0.57-1-1.28-1.34-2.13c-0.35-0.84-0.52-1.79-0.52-2.83
				c0-2.19,0.71-3.99,2.13-5.41c1.42-1.42,3.33-2.13,5.74-2.13c2.21,0,4.16,0.58,5.86,1.75l-1.64,4.03
				c-0.47-0.4-1.12-0.75-1.94-1.06c-0.82-0.31-1.55-0.47-2.2-0.47c-1.07,0-1.9,0.3-2.5,0.91c-0.6,0.61-0.9,1.39-0.9,2.33
				c0,1.52,1.09,2.91,3.28,4.18c0.87,0.47,1.58,0.89,2.13,1.27c0.55,0.37,1.17,0.89,1.87,1.55c0.69,0.66,1.22,1.42,1.57,2.29
				c0.35,0.87,0.52,1.84,0.52,2.91c0,2.19-0.67,4.02-2.01,5.48c-1.34,1.47-3.23,2.2-5.67,2.2
				C402.73,111.21,400.44,110.36,398.55,108.64z"/>
			<path class="st0" d="M429.66,110.77H416.6V84.29h12.61v4.03h-8.06v7.09h6.49v4.03h-6.49v7.31h8.5V110.77z"/>
			<path class="st0" d="M443.12,83.84c2.64,0,4.79,0.73,6.45,2.2l-1.9,3.92c-0.45-0.52-1.09-0.96-1.94-1.31
				c-0.84-0.35-1.67-0.52-2.46-0.52c-2.21,0-3.95,0.87-5.22,2.61c-1.24,1.77-1.87,3.95-1.87,6.56c0,2.69,0.64,4.96,1.9,6.83
				c1.29,1.87,3,2.8,5.11,2.8c1.69,0,3.33-0.65,4.92-1.94l1.87,3.84c-1.91,1.59-4.29,2.39-7.12,2.39c-3.51,0-6.28-1.28-8.32-3.84
				c-2.01-2.56-3.02-5.86-3.02-9.89c0-4,1.03-7.29,3.1-9.84C436.71,85.11,439.54,83.84,443.12,83.84z"/>
			<path class="st0" d="M457.48,110.77h-4.55V84.29h7.69c1.24,0,2.4,0.27,3.47,0.82c1.22,0.59,2.19,1.51,2.91,2.74
				c0.72,1.23,1.08,2.67,1.08,4.31c0,1.59-0.36,3.04-1.08,4.35c-0.72,1.31-1.65,2.28-2.8,2.93v0.08c0.27,0.4,0.53,0.87,0.78,1.42
				l4.4,9.85h-5l-4.03-9.88h-2.87V110.77z M457.48,88.35v8.5h2.42c0.99,0,1.83-0.4,2.52-1.19c0.68-0.8,1.03-1.84,1.03-3.13
				c0-1.64-0.47-2.82-1.42-3.54c-0.65-0.42-1.33-0.64-2.05-0.64H457.48z"/>
			<path class="st0" d="M485.23,110.77h-13.05V84.29h12.61v4.03h-8.06v7.09h6.49v4.03h-6.49v7.31h8.5V110.77z"/>
			<path class="st0" d="M497.62,110.77h-4.51V88.32h-6.38v-4.03h17.31v4.03h-6.41V110.77z"/>
			<path class="st0" d="M507.24,110.77h-4.55l6.94-26.48h4.92l6.98,26.48h-4.55l-1.64-6.83h-6.49L507.24,110.77z M511.3,93.01
				l-1.72,7.12h5.03l-1.68-7.12l-0.78-4.1h-0.11C511.8,90.48,511.55,91.84,511.3,93.01z"/>
			<path class="st0" d="M528.65,110.77h-4.55V84.29h7.69c1.24,0,2.4,0.27,3.47,0.82c1.22,0.59,2.19,1.51,2.91,2.74
				c0.72,1.23,1.08,2.67,1.08,4.31c0,1.59-0.36,3.04-1.08,4.35c-0.72,1.31-1.65,2.28-2.8,2.93v0.08c0.27,0.4,0.53,0.87,0.78,1.42
				l4.4,9.85h-5l-4.03-9.88h-2.87V110.77z M528.65,88.35v8.5h2.42c0.99,0,1.83-0.4,2.52-1.19c0.68-0.8,1.03-1.84,1.03-3.13
				c0-1.64-0.47-2.82-1.42-3.54c-0.65-0.42-1.33-0.64-2.05-0.64H528.65z"/>
			<path class="st0" d="M547.89,110.77h-4.55V84.29h4.55V110.77z M547.26,82.53h-3.51l2.28-5.11h4.48L547.26,82.53z"/>
			<path class="st0" d="M555.01,110.77h-4.55l6.94-26.48h4.92l6.98,26.48h-4.55l-1.64-6.83h-6.49L555.01,110.77z M559.08,93.01
				l-1.72,7.12h5.03l-1.68-7.12l-0.78-4.1h-0.11C559.58,90.48,559.33,91.84,559.08,93.01z"/>
			<path class="st0" d="M585.71,110.77h-7.35V84.29h7.35c3.31,0,5.9,1.17,7.8,3.51c1.91,2.34,2.87,5.57,2.87,9.7
				c0,4.15-0.96,7.41-2.87,9.77C591.61,109.6,589.02,110.77,585.71,110.77z M582.91,88.35v18.35h2.61c1.96,0,3.48-0.8,4.55-2.39
				c1.07-1.59,1.61-3.87,1.61-6.83c0-2.91-0.54-5.16-1.62-6.75c-1.08-1.59-2.59-2.39-4.53-2.39H582.91z"/>
			<path class="st0" d="M613.12,110.77h-13.05V84.29h12.61v4.03h-8.06v7.09h6.49v4.03h-6.49v7.31h8.5V110.77z"/>
			<path class="st0" d="M352.58,185.36h-8.5l3.43-52.96h9.99l7.16,25.74l1.64,8.06h0.22c0.7-3.68,1.24-6.37,1.64-8.06l7.16-25.74
				h9.99l3.36,52.96h-8.43l-1.79-29.46c-0.1-2.64-0.1-4.92,0-6.86l0.07-1.34h-0.22c-0.7,3.58-1.29,6.41-1.79,8.5l-5.67,20.06h-8.88
				l-5.67-20.06l-1.71-8.5h-0.3v1.34c0,0.15,0.01,0.37,0.04,0.67c0.02,0.3,0.05,0.7,0.07,1.19s0.04,0.94,0.04,1.34
				c0.05,1.19,0.02,2.41-0.08,3.66L352.58,185.36z"/>
			<path class="st0" d="M394.5,158.51c0-7.96,1.94-14.45,5.82-19.47c3.88-5.02,9.05-7.54,15.52-7.54c6.46,0,11.64,2.51,15.51,7.54
				c3.88,5.02,5.82,11.54,5.82,19.54c0,8.21-1.94,14.87-5.82,19.99c-3.88,5.12-9.05,7.68-15.51,7.68c-6.52,0-11.71-2.56-15.59-7.68
				C396.42,173.4,394.5,166.72,394.5,158.51z M403.83,158.51c0,5.82,1.07,10.44,3.21,13.87c2.14,3.43,5.07,5.15,8.8,5.15
				c3.68,0,6.59-1.7,8.73-5.11c2.14-3.41,3.21-8.02,3.21-13.84c0-5.67-1.06-10.15-3.17-13.43c-2.12-3.28-5.03-4.92-8.77-4.92
				c-3.73,0-6.67,1.64-8.8,4.92C404.9,148.44,403.83,152.89,403.83,158.51z"/>
			<path class="st0" d="M462.84,185.36h-9.33l-14.62-52.96h9.77l8.13,34.46l1.27,7.68h0.3c0.4-3.13,0.85-5.69,1.34-7.68l8.13-34.46
				h9.62L462.84,185.36z"/>
			<path class="st0" d="M491.55,185.36h-9.1V132.4h9.1V185.36z"/>
			<path class="st0" d="M527.28,185.36H501.1V132.4h9.1v44.91h17.08V185.36z"/>
			<path class="st0" d="M541.98,185.36h-9.1V132.4h9.1V185.36z"/>
			<path class="st0" d="M566.22,185.36h-14.7V132.4h14.7c6.61,0,11.81,2.34,15.59,7.01c3.83,4.67,5.74,11.14,5.74,19.4
				c0,8.31-1.92,14.82-5.74,19.54C578.03,183.03,572.84,185.36,566.22,185.36z M560.63,140.53v36.7h5.22c3.93,0,6.96-1.59,9.1-4.77
				c2.14-3.18,3.21-7.73,3.21-13.65c0-5.82-1.08-10.32-3.24-13.5c-2.16-3.18-5.19-4.77-9.06-4.77H560.63z"/>
			<path class="st0" d="M598.67,185.36h-9.1l13.88-52.96h9.85l13.95,52.96h-9.1l-3.28-13.65h-12.98L598.67,185.36z M606.8,149.86
				l-3.43,14.25h10.07l-3.36-14.25l-1.56-8.21h-0.22C607.8,144.78,607.3,147.52,606.8,149.86z"/>
			<path class="st0" d="M647.08,185.36h-14.7V132.4h14.7c6.61,0,11.81,2.34,15.59,7.01c3.83,4.67,5.74,11.14,5.74,19.4
				c0,8.31-1.92,14.82-5.74,19.54C658.9,183.03,653.7,185.36,647.08,185.36z M641.49,140.53v36.7h5.22c3.93,0,6.96-1.59,9.1-4.77
				c2.14-3.18,3.21-7.73,3.21-13.65c0-5.82-1.08-10.32-3.24-13.5c-2.16-3.18-5.19-4.77-9.06-4.77H641.49z"/>
		</g>
	</g>
</g>
</svg>
