<?xml version="1.0" encoding="utf-8"?>
<!-- Generator: Adobe Illustrator 23.1.0, SVG Export Plug-In . SVG Version: 6.00 Build 0)  -->
<svg version="1.1" id="Capa_1" xmlns="http://www.w3.org/2000/svg" xmlns:xlink="http://www.w3.org/1999/xlink" x="0px" y="0px"
	 viewBox="0 0 2834.6 1984.3" style="enable-background:new 0 0 2834.6 1984.3;" xml:space="preserve">
<style type="text/css">
	.st0{fill:#FFFFFF;}
</style>
<g>
	<path class="st0" d="M1994.7,1433.8c0.3-12,5.9-21.3,9.6-31.1c52.4-140.1,105.1-280.2,157.2-420.4c3.9-10.4,8.3-14.7,20.1-14.6
		c61.5,0.7,123,0.5,184.5,0.1c10.3-0.1,15.4,2.5,19.4,13c75.3,201.3,151,402.5,227,603.5c4.9,13,2.9,16.2-11,15.9
		c-31.8-0.8-63.8-1.1-95.6,0.1c-14.4,0.6-20-4.9-25-17.7c-65.7-169.1-132-338-198.2-507c-2.4-6.1-5.1-12-7.7-18
		c-6.3,1.7-6.2,6.9-7.7,10.7c-46.1,116.2-92.3,232.4-137.8,348.9c-4.7,12-9.6,17.4-23.6,16.9
		C2068.9,1432.9,2032,1433.8,1994.7,1433.8z"/>
	<path class="st0" d="M2505.6,964.9c-27.3-22.8-54.7-45.6-82-68.4c-30.8-25.8-61.9-51.3-92.1-77.9c-8.6-7.5-15.3-7.7-25.2-4
		c-75,27.4-150.2,54.2-225.4,81.1c-5.6,2-10.8,5.8-18.4,4.3c-0.9-7.5,3.3-13.7,5.7-20.2c19.2-51.8,38.1-103.8,58.1-155.3
		c4.6-11.7,2.7-19.3-5.6-28.1c-42.8-45.6-85.1-91.7-127.5-137.7c-2.2-2.4-4.3-4.9-8.9-10.4c37.5,7.5,71.5,14.3,105.5,21.3
		c29.5,6.1,59.1,11.9,88.4,18.7c11.8,2.7,17.9-0.6,23.4-11.5c27.5-53.7,55.9-106.9,84-160.2c3.1-5.9,6.4-11.6,11.2-20.5
		c8.2,21.5,15.5,40.4,22.6,59.4c24,64.3,48.2,128.6,71.8,193.1c3.5,9.5,9,14.1,18.1,17.3c41.1,14.3,82.1,29.1,123.1,43.8
		c5.1,1.8,10,4.1,18.3,7.5c-35.5,14.6-67.7,28.4-100.3,40.9c-11.9,4.6-14.9,9.3-10,21.9c21.2,54.6,41.3,109.7,61.8,164.6
		c2.3,6.1,4.2,12.3,6.3,18.4C2507.6,963.6,2506.6,964.2,2505.6,964.9z"/>
	<path class="st0" d="M1292.4,1315.2c0,35.8-0.3,71.6,0.2,107.3c0.1,9.2-2.4,13.8-12.1,12.4c-0.5-0.1-1.1,0-1.7,0
		c-45.7,0.2-91.3,2-137,5.3c-83.5,6-149.9-28.9-192.3-101c-40.6-69.1-38.6-140.8,6.2-207.5c46.6-69.5,114.4-98.7,197.7-91.2
		c46.2,4.1,85.7,23.4,120.2,53.9c7.4,6.5,8.4,10.8,0.8,18.5c-18,18.3-35.3,37.3-51.9,57c-8,9.5-12.8,9.6-22.3,1.3
		c-34-29.8-73.1-34.7-114.1-17.5c-41.9,17.5-64.6,60.3-57,103.3c7.3,41.5,46.1,75.3,90.7,79.2c19.9,1.7,38.7-2.5,57.1-10.2
		c10.4-4.4,10.7-11.7,9.6-20.3c-1.3-10.1-9.5-5.6-14.6-5.7c-30.7-0.7-30.7-0.5-30.7-30.8c0-20.7,0.4-41.4-0.2-62
		c-0.3-9.7,3.2-12.3,12.5-12.2c41.9,0.4,83.9,0.7,125.8-0.1c12.3-0.2,13.5,5,13.4,14.8C1292.2,1244.8,1292.4,1280,1292.4,1315.2z"/>
	<path class="st0" d="M903,1240.9c-0.2,111.3-88.6,202.3-195.5,201.1c-107.3-1.2-193.2-90.1-194.2-201.2
		c-1-109.7,88.1-202,195.1-202.3C815.4,1038.3,903.2,1129.6,903,1240.9z M707.8,1144.5c-49.4,0.3-88.6,43.1-88.4,96.7
		c0.2,53,40.4,95.8,89.6,95.6c48.7-0.3,88.9-44.2,88.7-96.9C797.5,1187,757.1,1144.2,707.8,1144.5z"/>
	<path class="st0" d="M1508.5,1442c-108.9-0.4-194.6-91.3-194-205.8c0.5-107.9,90.5-198.7,195.8-197.6
		c107.7,1.1,193.6,91.7,193.1,203.6C1703,1352.5,1615.3,1442.4,1508.5,1442z M1420.2,1240.6c0,53.3,39.7,96.2,89,96.1
		c48.6-0.1,89.5-44.1,89.5-96.3c0-52.4-40.6-95.9-89.7-95.9C1459.5,1144.5,1420.1,1187,1420.2,1240.6z"/>
	<path class="st0" d="M218.4,1238.2c0-58.7,0.3-117.3-0.3-176c-0.1-12,2.2-16.6,15.4-16.4c44.1,0.9,88.3,0,132.4,0.4
		c88.9,0.7,146.6,91.9,108.7,172.1c-4.2,8.8-3.6,14.3,1.8,22.2c27.5,39.7,31.4,82.2,9.2,125c-22.1,42.7-58.7,64.8-107.1,65.3
		c-48,0.5-96.1-0.5-144.1,0.5c-14,0.3-16.4-4.7-16.2-17.2C218.7,1355.6,218.4,1296.9,218.4,1238.2z M353.7,1346.8
		c8.4,0,16.7,0.4,25.1-0.1c20.1-1.3,35.3-16.2,36.1-34.9c0.8-19.2-14.2-35.8-34.9-37.8c-8.8-0.8-17.8-0.3-26.7-0.3
		c-36.1,0-36.1,0-36.1,36.8C317.1,1346.9,317.1,1346.9,353.7,1346.8z M317.1,1166.1c0,7.2,0.6,14.5-0.1,21.7
		c-1.2,11.2,2.1,16.3,14.4,15.2c11.6-1,23.4,0.1,35-0.3c20-0.7,35.1-15.8,35.5-34.8c0.4-19.8-14.7-35.5-35.4-36.7
		c-5-0.3-10-0.1-15-0.1C317.1,1131,317.1,1131,317.1,1166.1z"/>
	<path class="st0" d="M1889.2,1041c55.3,0,110.6,0.3,165.9-0.2c11.1-0.1,14.2,3.2,13.9,14.1c-0.7,30.1-0.7,60.3,0,90.5
		c0.2,10.7-2.5,14.6-13.8,14.3c-29-0.8-58.1,0.4-87.1-0.6c-13.1-0.4-16.9,3.1-16.8,16.6c0.7,81,0,162,0.6,243
		c0.1,13.3-3.6,16.9-16.7,16.5c-29.6-1-59.2-1-88.8,0c-14.7,0.5-19.8-2.8-19.7-18.9c0.9-79.9,0.1-159.8,0.7-239.6
		c0.1-13.9-3.7-18.1-17.6-17.5c-28.4,1.1-57-0.2-85.4,0.6c-11.3,0.3-15.5-2.2-15.1-14.5c0.9-30.1,0.8-60.3,0-90.5
		c-0.3-10.9,2.7-14.1,13.8-14C1778.6,1041.3,1833.9,1041,1889.2,1041z"/>
	<path class="st0" d="M2378.9,414.9c22.7,4.7,45.5,9,68,14.5c9.2,2.2,14.3,0.7,18.7-8c6.2-12.3,13.9-23.8,22.8-38.8
		c4.5,14.6,9.3,25.8,11.1,37.4c2.7,17.7,12.4,25.3,29.5,27.2c11.4,1.2,22.6,4.5,37.2,7.6c-15.1,9.7-27,17.9-39.4,25.2
		c-8,4.7-10.8,9.6-6.7,18.9c5.7,13.2,9.8,27.1,15.5,43.3c-14.7-6.3-24-15.8-33.4-24.3c-10.6-9.7-19.2-11.6-31.4-2.1
		c-13.8,10.7-29.4,19.1-47.9,30.8c6.3-17.5,10.2-31.4,16.2-44.4c5.5-11.7,2.5-19.2-6.3-27.6c-19.1-18.5-37.2-37.9-55.8-57
		C2377.7,416.7,2378.3,415.8,2378.9,414.9z"/>
	<path class="st0" d="M2016.8,827.9c-5.2-4.1-10.4-8.2-15.6-12.3c-28-22.5-28-22.5-58.3-2.9c-8.8,5.7-17.7,11.4-28.4,18.3
		c2.4-16.7,8.6-29.8,13.9-43c3.7-9.1,2.6-15.1-4.4-22.1c-18.9-18.7-37-38.2-58.8-61c28.7,6,52.5,10.4,76,16.1c8.3,2,12.3,0,15.5-7.5
		c5-11.6,10.7-22.8,18.4-38.9c5.3,18.2,9.7,31.6,13.1,45.2c2.1,8.5,5.9,13.1,15.3,14.4c13.7,1.9,27.1,5.7,42,9
		c-6,9.5-15.1,12.7-22.5,17.8c-24.8,17.3-22.5,9-13.2,37.3c3.1,9.4,6.5,18.7,9.7,28.1C2018.7,826.9,2017.8,827.4,2016.8,827.9z"/>
</g>
</svg>
