<?xml version="1.0" encoding="utf-8"?>
<!-- Generator: Adobe Illustrator 25.4.1, SVG Export Plug-In . SVG Version: 6.00 Build 0)  -->
<svg version="1.1" id="Capa_1" xmlns="http://www.w3.org/2000/svg" xmlns:xlink="http://www.w3.org/1999/xlink" x="0px" y="0px"
	 viewBox="0 0 1200 213" style="enable-background:new 0 0 1200 213;" xml:space="preserve">
<style type="text/css">
	.st0{fill:#FFFFFF;}
	.st1{fill:#BED000;stroke:#BED000;stroke-width:0.5;stroke-miterlimit:10;}
</style>
<g>
	<path class="st0" d="M273.31,58.81h35.99l24.86,70.45h0.31l25.01-70.45h35.84v107.97h-23.79V83.97h-0.31l-28.36,82.81h-18.15
		l-27.3-82.81h-0.31v82.81h-23.79V58.81z"/>
	<path class="st0" d="M411.48,112.79c0-8.64,1.45-16.47,4.35-23.48c2.9-7.02,6.94-12.99,12.12-17.92
		c5.18-4.93,11.34-8.72,18.45-11.36c7.11-2.64,14.89-3.97,23.33-3.97c8.44,0,16.22,1.32,23.33,3.97
		c7.11,2.65,13.27,6.43,18.45,11.36c5.18,4.93,9.23,10.9,12.12,17.92c2.9,7.01,4.35,14.84,4.35,23.48c0,8.64-1.45,16.47-4.35,23.48
		c-2.9,7.01-6.94,12.99-12.12,17.92c-5.18,4.93-11.34,8.72-18.45,11.36c-7.12,2.64-14.89,3.96-23.33,3.96
		c-8.44,0-16.22-1.32-23.33-3.96c-7.12-2.64-13.27-6.43-18.45-11.36c-5.18-4.93-9.23-10.9-12.12-17.92
		C412.92,129.26,411.48,121.44,411.48,112.79z M436.18,112.79c0,5.08,0.79,9.74,2.36,13.95c1.58,4.22,3.84,7.88,6.79,10.98
		c2.95,3.1,6.48,5.52,10.6,7.24c4.12,1.73,8.72,2.59,13.8,2.59c5.08,0,9.68-0.86,13.8-2.59c4.12-1.73,7.65-4.14,10.6-7.24
		c2.95-3.1,5.21-6.76,6.79-10.98c1.58-4.22,2.36-8.87,2.36-13.95c0-4.98-0.79-9.61-2.36-13.88c-1.58-4.27-3.84-7.95-6.79-11.06
		c-2.95-3.1-6.48-5.51-10.6-7.24c-4.12-1.73-8.72-2.59-13.8-2.59c-5.08,0-9.68,0.87-13.8,2.59c-4.12,1.73-7.65,4.14-10.6,7.24
		c-2.95,3.1-5.21,6.79-6.79,11.06C436.97,103.19,436.18,107.81,436.18,112.79z"/>
	<path class="st0" d="M533.47,58.81h27.14l26.69,70.76h0.31l27.14-70.76h25.47l-44.53,107.97h-19.06L533.47,58.81z"/>
	<path class="st0" d="M651.2,58.81h23.79v107.97H651.2V58.81z"/>
	<path class="st0" d="M697.56,58.81h23.79v86.01h44.07v21.96h-67.86V58.81z"/>
	<path class="st0" d="M778.23,58.81h23.79v107.97h-23.79V58.81z"/>
	<path class="st0" d="M823.67,58.81h35.68c8.64,0,16.85,0.97,24.63,2.9c7.78,1.93,14.56,5.06,20.36,9.38
		c5.79,4.32,10.39,9.94,13.8,16.85c3.41,6.91,5.11,15.3,5.11,25.16c0,8.74-1.65,16.45-4.96,23.1c-3.31,6.66-7.75,12.25-13.34,16.77
		c-5.59,4.52-12.05,7.96-19.37,10.29c-7.32,2.34-15,3.51-23.03,3.51h-38.89V58.81z M847.46,144.82h12.35
		c5.49,0,10.6-0.56,15.33-1.68c4.73-1.12,8.82-2.97,12.28-5.57c3.46-2.59,6.18-6,8.16-10.22c1.98-4.22,2.97-9.38,2.97-15.48
		c0-5.28-0.99-9.89-2.97-13.8c-1.98-3.91-4.65-7.14-8.01-9.68c-3.36-2.54-7.3-4.45-11.82-5.72c-4.52-1.27-9.28-1.91-14.26-1.91
		h-14.03V144.82z"/>
	<path class="st0" d="M974.95,58.81h19.67l46.97,107.97h-26.84l-9.3-22.87h-41.94l-9,22.87h-26.23L974.95,58.81z M984.1,90.22
		l-13.11,33.55h26.38L984.1,90.22z"/>
	<path class="st0" d="M1052.42,58.81h35.68c8.64,0,16.85,0.97,24.63,2.9c7.78,1.93,14.56,5.06,20.36,9.38
		c5.79,4.32,10.39,9.94,13.8,16.85c3.41,6.91,5.11,15.3,5.11,25.16c0,8.74-1.65,16.45-4.96,23.1c-3.31,6.66-7.75,12.25-13.34,16.77
		c-5.59,4.52-12.05,7.96-19.37,10.29c-7.32,2.34-15,3.51-23.03,3.51h-38.89V58.81z M1076.21,144.82h12.35
		c5.49,0,10.6-0.56,15.33-1.68c4.73-1.12,8.82-2.97,12.28-5.57c3.46-2.59,6.18-6,8.16-10.22c1.98-4.22,2.97-9.38,2.97-15.48
		c0-5.28-0.99-9.89-2.97-13.8c-1.98-3.91-4.65-7.14-8.01-9.68c-3.36-2.54-7.3-4.45-11.82-5.72c-4.52-1.27-9.28-1.91-14.26-1.91
		h-14.03V144.82z"/>
</g>
<g>
	<path class="st1" d="M62.74,60.32h35.99l24.86,70.45h0.31l25.01-70.45h35.84v107.97h-23.79V85.49h-0.31l-28.36,82.81h-18.15
		l-27.3-82.81h-0.31v82.81H62.74V60.32z"/>
	<path class="st1" d="M202.28,70.85c0-3.66,1.3-6.79,3.89-9.38c2.59-2.59,5.72-3.89,9.38-3.89c3.66,0,6.79,1.3,9.38,3.89
		c2.59,2.59,3.89,5.72,3.89,9.38s-1.3,6.79-3.89,9.38c-2.59,2.59-5.72,3.89-9.38,3.89c-3.66,0-6.79-1.3-9.38-3.89
		C203.57,77.63,202.28,74.51,202.28,70.85z M204.11,94.18h22.87v74.11h-22.87V94.18z"/>
</g>
</svg>
