<svg xmlns="http://www.w3.org/2000/svg" xmlns:xlink="http://www.w3.org/1999/xlink" width="1100" zoomAndPan="magnify" viewBox="0 0 824.88 89.999999" height="120" preserveAspectRatio="xMidYMid meet" version="1.0"><defs><clipPath id="9aa0669496"><path d="M 158 0.0078125 L 261 0.0078125 L 261 89.992188 L 158 89.992188 Z M 158 0.0078125 " clip-rule="nonzero"/></clipPath><clipPath id="238e18e899"><path d="M 261 0.0078125 L 360 0.0078125 L 360 89.992188 L 261 89.992188 Z M 261 0.0078125 " clip-rule="nonzero"/></clipPath><clipPath id="dfbbfa2f9b"><path d="M 352 0.0078125 L 444 0.0078125 L 444 89.992188 L 352 89.992188 Z M 352 0.0078125 " clip-rule="nonzero"/></clipPath><clipPath id="5e63a9773f"><path d="M 570 0.0078125 L 656 0.0078125 L 656 89.992188 L 570 89.992188 Z M 570 0.0078125 " clip-rule="nonzero"/></clipPath><clipPath id="6f0e9e2f53"><path d="M 648 0.0078125 L 744 0.0078125 L 744 89.992188 L 648 89.992188 Z M 648 0.0078125 " clip-rule="nonzero"/></clipPath><clipPath id="78b83808d0"><path d="M 741 0.0078125 L 824.761719 0.0078125 L 824.761719 89.992188 L 741 89.992188 Z M 741 0.0078125 " clip-rule="nonzero"/></clipPath><clipPath id="bb7bec2240"><path d="M 0 0.0078125 L 103 0.0078125 L 103 89.992188 L 0 89.992188 Z M 0 0.0078125 " clip-rule="nonzero"/></clipPath><clipPath id="a803f65dab"><path d="M 104 0.0078125 L 136 0.0078125 L 136 89.992188 L 104 89.992188 Z M 104 0.0078125 " clip-rule="nonzero"/></clipPath></defs><path fill="#20223e" d="M 163.371094 4.550781 L 190.320312 4.550781 L 208.9375 57.382812 L 209.171875 57.382812 L 227.898438 4.550781 L 254.738281 4.550781 L 254.738281 85.519531 L 236.921875 85.519531 L 236.921875 23.417969 L 236.691406 23.417969 L 215.453125 85.519531 L 201.863281 85.519531 L 181.417969 23.417969 L 181.1875 23.417969 L 181.1875 85.519531 L 163.371094 85.519531 Z M 163.371094 4.550781 " fill-opacity="1" fill-rule="nonzero"/><g clip-path="url(#9aa0669496)"><path stroke-linecap="butt" transform="matrix(0.748859, 0, 0, 0.749891, -41.299951, -39.549183)" fill="none" stroke-linejoin="miter" d="M 273.310626 58.808504 L 309.29768 58.808504 L 334.158427 129.261459 L 334.471404 129.261459 L 359.478207 58.808504 L 395.319205 58.808504 L 395.319205 166.782541 L 371.527793 166.782541 L 371.527793 83.968413 L 371.220033 83.968413 L 342.859167 166.782541 L 324.711761 166.782541 L 297.409798 83.968413 L 297.102038 83.968413 L 297.102038 166.782541 L 273.310626 166.782541 Z M 273.310626 58.808504 " stroke="#20223e" stroke-width="0.5" stroke-opacity="1" stroke-miterlimit="10"/></g><path fill="#20223e" d="M 266.839844 45.03125 C 266.839844 38.550781 267.925781 32.679688 270.097656 27.421875 C 272.269531 22.160156 275.296875 17.683594 279.175781 13.984375 C 283.054688 10.289062 287.667969 7.445312 292.992188 5.464844 C 298.316406 3.488281 304.140625 2.488281 310.460938 2.488281 C 316.78125 2.488281 322.609375 3.480469 327.933594 5.464844 C 333.257812 7.453125 337.871094 10.289062 341.75 13.984375 C 345.628906 17.683594 348.660156 22.160156 350.824219 27.421875 C 352.996094 32.679688 354.082031 38.550781 354.082031 45.03125 C 354.082031 51.511719 352.996094 57.382812 350.824219 62.636719 C 348.652344 67.894531 345.628906 72.378906 341.75 76.078125 C 337.871094 79.773438 333.257812 82.617188 327.933594 84.59375 C 322.601562 86.574219 316.78125 87.566406 310.460938 87.566406 C 304.140625 87.566406 298.316406 86.574219 292.992188 84.59375 C 287.660156 82.617188 283.054688 79.773438 279.175781 76.078125 C 275.296875 72.378906 272.261719 67.902344 270.097656 62.636719 C 267.917969 57.382812 266.839844 51.515625 266.839844 45.03125 Z M 285.335938 45.03125 C 285.335938 48.839844 285.929688 52.335938 287.105469 55.492188 C 288.289062 58.65625 289.980469 61.402344 292.1875 63.726562 C 294.398438 66.050781 297.042969 67.863281 300.128906 69.15625 C 303.210938 70.453125 306.65625 71.097656 310.460938 71.097656 C 314.265625 71.097656 317.710938 70.453125 320.796875 69.15625 C 323.882812 67.859375 326.523438 66.050781 328.734375 63.726562 C 330.941406 61.402344 332.636719 58.65625 333.816406 55.492188 C 335 52.328125 335.585938 48.839844 335.585938 45.03125 C 335.585938 41.296875 334.992188 37.824219 333.816406 34.621094 C 332.636719 31.421875 330.941406 28.660156 328.734375 26.328125 C 326.523438 24.003906 323.882812 22.195312 320.796875 20.898438 C 317.710938 19.601562 314.265625 18.957031 310.460938 18.957031 C 306.65625 18.957031 303.210938 19.609375 300.128906 20.898438 C 297.042969 22.195312 294.398438 24.003906 292.1875 26.328125 C 289.980469 28.652344 288.289062 31.421875 287.105469 34.621094 C 285.929688 37.832031 285.335938 41.296875 285.335938 45.03125 Z M 285.335938 45.03125 " fill-opacity="1" fill-rule="nonzero"/><g clip-path="url(#238e18e899)"><path stroke-linecap="butt" transform="matrix(0.748859, 0, 0, 0.749891, -41.299951, -39.549183)" fill="none" stroke-linejoin="miter" d="M 411.479212 112.790313 C 411.479212 104.148432 412.929336 96.319168 415.829582 89.307732 C 418.729829 82.291086 422.772439 76.321468 427.952196 71.388459 C 433.131953 66.460659 439.292369 62.668441 446.402147 60.027432 C 453.511924 57.391632 461.289384 56.058104 469.729311 56.058104 C 478.169237 56.058104 485.951913 57.381213 493.061691 60.027432 C 500.171468 62.678859 506.331884 66.460659 511.511641 71.388459 C 516.691398 76.321468 520.739225 82.291086 523.629039 89.307732 C 526.529285 96.319168 527.979409 104.148432 527.979409 112.790313 C 527.979409 121.432195 526.529285 129.261459 523.629039 136.267686 C 520.728792 143.279122 516.691398 149.259159 511.511641 154.192168 C 506.331884 159.119968 500.171468 162.912186 493.061691 165.547986 C 485.941481 168.188995 478.169237 169.512104 469.729311 169.512104 C 461.289384 169.512104 453.511924 168.188995 446.402147 165.547986 C 439.281937 162.912186 433.131953 159.119968 427.952196 154.192168 C 422.772439 149.259159 418.719397 143.289541 415.829582 136.267686 C 412.918903 129.261459 411.479212 121.437404 411.479212 112.790313 Z M 436.178256 112.790313 C 436.178256 117.869177 436.971129 122.531313 438.541226 126.740259 C 440.121756 130.959622 442.380402 134.621613 445.327595 137.721022 C 448.280004 140.820432 451.81142 143.23745 455.932274 144.961659 C 460.047912 146.691077 464.648663 147.550577 469.729311 147.550577 C 474.809959 147.550577 479.41071 146.691077 483.531564 144.961659 C 487.652418 143.232241 491.178617 140.820432 494.131026 137.721022 C 497.078219 134.621613 499.342081 130.959622 500.917395 126.740259 C 502.497925 122.520895 503.280366 117.869177 503.280366 112.790313 C 503.280366 107.810422 502.487492 103.179541 500.917395 98.908086 C 499.342081 94.641841 497.078219 90.959013 494.131026 87.849186 C 491.178617 84.749777 487.652418 82.337968 483.531564 80.60855 C 479.41071 78.879132 474.809959 78.019632 469.729311 78.019632 C 464.648663 78.019632 460.047912 78.88955 455.932274 80.60855 C 451.81142 82.337968 448.280004 84.749777 445.327595 87.849186 C 442.380402 90.948595 440.121756 94.641841 438.541226 98.908086 C 436.971129 103.189959 436.178256 107.810422 436.178256 112.790313 Z M 436.178256 112.790313 " stroke="#20223e" stroke-width="0.5" stroke-opacity="1" stroke-miterlimit="10"/></g><path fill="#20223e" d="M 358.195312 4.550781 L 378.519531 4.550781 L 398.503906 57.613281 L 398.738281 57.613281 L 419.0625 4.550781 L 438.132812 4.550781 L 404.789062 85.519531 L 390.515625 85.519531 Z M 358.195312 4.550781 " fill-opacity="1" fill-rule="nonzero"/><g clip-path="url(#dfbbfa2f9b)"><path stroke-linecap="butt" transform="matrix(0.748859, 0, 0, 0.749891, -41.299951, -39.549183)" fill="none" stroke-linejoin="miter" d="M 533.472142 58.808504 L 560.6124 58.808504 L 587.298843 129.568795 L 587.611819 129.568795 L 614.752077 58.808504 L 640.217912 58.808504 L 595.691823 166.782541 L 576.631568 166.782541 Z M 533.472142 58.808504 " stroke="#20223e" stroke-width="0.5" stroke-opacity="1" stroke-miterlimit="10"/></g><path stroke-linecap="butt" transform="matrix(0.748859, 0, 0, 0.749891, -41.299951, -39.549183)" fill-opacity="1" fill="#20223e" fill-rule="nonzero" stroke-linejoin="miter" d="M 651.198162 58.808504 L 674.989574 58.808504 L 674.989574 166.782541 L 651.198162 166.782541 Z M 651.198162 58.808504 " stroke="#20223e" stroke-width="0.5" stroke-opacity="1" stroke-miterlimit="10"/><path stroke-linecap="butt" transform="matrix(0.748859, 0, 0, 0.749891, -41.299951, -39.549183)" fill-opacity="1" fill="#20223e" fill-rule="nonzero" stroke-linejoin="miter" d="M 697.560379 58.808504 L 721.351791 58.808504 L 721.351791 144.821013 L 765.418848 144.821013 L 765.418848 166.782541 L 697.560379 166.782541 Z M 697.560379 58.808504 " stroke="#20223e" stroke-width="0.5" stroke-opacity="1" stroke-miterlimit="10"/><path stroke-linecap="butt" transform="matrix(0.748859, 0, 0, 0.749891, -41.299951, -39.549183)" fill-opacity="1" fill="#20223e" fill-rule="nonzero" stroke-linejoin="miter" d="M 778.23001 58.808504 L 802.021422 58.808504 L 802.021422 166.782541 L 778.23001 166.782541 Z M 778.23001 58.808504 " stroke="#20223e" stroke-width="0.5" stroke-opacity="1" stroke-miterlimit="10"/><path fill="#20223e" d="M 575.511719 4.550781 L 602.230469 4.550781 C 608.703125 4.550781 614.851562 5.28125 620.675781 6.726562 C 626.503906 8.175781 631.578125 10.519531 635.921875 13.761719 C 640.257812 17 643.703125 21.214844 646.257812 26.394531 C 648.8125 31.578125 650.082031 37.871094 650.082031 45.261719 C 650.082031 51.816406 648.847656 57.597656 646.371094 62.585938 C 643.890625 67.582031 640.566406 71.773438 636.378906 75.160156 C 632.195312 78.550781 627.355469 81.128906 621.875 82.878906 C 616.394531 84.632812 610.640625 85.511719 604.628906 85.511719 L 575.503906 85.511719 L 575.503906 4.550781 Z M 593.328125 69.050781 L 602.578125 69.050781 C 606.6875 69.050781 610.515625 68.628906 614.054688 67.789062 C 617.597656 66.949219 620.660156 65.5625 623.253906 63.613281 C 625.84375 61.671875 627.878906 59.113281 629.363281 55.949219 C 630.84375 52.785156 631.585938 48.914062 631.585938 44.339844 C 631.585938 40.382812 630.84375 36.925781 629.363281 33.992188 C 627.878906 31.0625 625.878906 28.636719 623.363281 26.734375 C 620.847656 24.828125 617.898438 23.398438 614.511719 22.445312 C 611.128906 21.492188 607.5625 21.011719 603.835938 21.011719 L 593.328125 21.011719 Z M 593.328125 69.050781 " fill-opacity="1" fill-rule="nonzero"/><g clip-path="url(#5e63a9773f)"><path stroke-linecap="butt" transform="matrix(0.748859, 0, 0, 0.749891, -41.299951, -39.549183)" fill="none" stroke-linejoin="miter" d="M 823.668946 58.808504 L 859.34824 58.808504 C 867.991601 58.808504 876.202012 59.782604 883.979472 61.709968 C 891.762148 63.642541 898.538084 66.767995 904.338577 71.091541 C 910.128638 75.409877 914.729389 81.030486 918.14083 87.937741 C 921.552272 94.850204 923.24756 103.24205 923.24756 113.09765 C 923.24756 121.838504 921.599218 129.547959 918.292102 136.199968 C 914.97977 142.862395 910.540724 148.45175 904.948881 152.968032 C 899.362255 157.489522 892.899295 160.927522 885.580867 163.261195 C 878.262439 165.600077 870.578872 166.772122 862.55103 166.772122 L 823.658514 166.772122 L 823.658514 58.808504 Z M 847.460358 144.821013 L 859.812488 144.821013 C 865.300005 144.821013 870.411951 144.258432 875.137892 143.138477 C 879.86905 142.018522 883.958607 140.169295 887.422211 137.569959 C 890.880598 134.981041 893.598275 131.569086 895.580458 127.349722 C 897.557425 123.130359 898.548517 117.96815 898.548517 111.868304 C 898.548517 106.591495 897.557425 101.98145 895.580458 98.069422 C 893.598275 94.162604 890.927545 90.927759 887.568266 88.390932 C 884.208988 85.848895 880.270703 83.942368 875.748196 82.67135 C 871.230905 81.400332 866.46845 80.759613 861.492127 80.759613 L 847.460358 80.759613 Z M 847.460358 144.821013 " stroke="#20223e" stroke-width="0.5" stroke-opacity="1" stroke-miterlimit="10"/></g><path fill="#20223e" d="M 688.800781 4.550781 L 703.53125 4.550781 L 738.703125 85.519531 L 718.605469 85.519531 L 711.640625 68.367188 L 680.234375 68.367188 L 673.492188 85.519531 L 653.851562 85.519531 Z M 695.652344 28.105469 L 685.835938 53.265625 L 705.589844 53.265625 Z M 695.652344 28.105469 " fill-opacity="1" fill-rule="nonzero"/><g clip-path="url(#6f0e9e2f53)"><path stroke-linecap="butt" transform="matrix(0.748859, 0, 0, 0.749891, -41.299951, -39.549183)" fill="none" stroke-linejoin="miter" d="M 974.951238 58.808504 L 994.621796 58.808504 L 1041.5891 166.782541 L 1014.751386 166.782541 L 1005.450774 143.909422 L 963.511956 143.909422 L 954.508672 166.782541 L 928.281261 166.782541 Z M 984.100577 90.219322 L 970.992088 123.771077 L 997.370771 123.771077 Z M 984.100577 90.219322 " stroke="#20223e" stroke-width="0.5" stroke-opacity="1" stroke-miterlimit="10"/></g><path fill="#20223e" d="M 746.8125 4.550781 L 773.535156 4.550781 C 780.003906 4.550781 786.152344 5.28125 791.976562 6.726562 C 797.804688 8.175781 802.882812 10.519531 807.222656 13.761719 C 811.558594 17 815.003906 21.214844 817.558594 26.394531 C 820.113281 31.578125 821.386719 37.871094 821.386719 45.261719 C 821.386719 51.816406 820.148438 57.597656 817.671875 62.585938 C 815.191406 67.582031 811.867188 71.773438 807.679688 75.160156 C 803.496094 78.550781 798.65625 81.128906 793.175781 82.878906 C 787.695312 84.632812 781.941406 85.511719 775.929688 85.511719 L 746.804688 85.511719 L 746.804688 4.550781 Z M 764.628906 69.050781 L 773.878906 69.050781 C 777.988281 69.050781 781.816406 68.628906 785.359375 67.789062 C 788.898438 66.949219 791.960938 65.5625 794.554688 63.613281 C 797.144531 61.671875 799.179688 59.113281 800.664062 55.949219 C 802.148438 52.785156 802.886719 48.914062 802.886719 44.339844 C 802.886719 40.382812 802.148438 36.925781 800.664062 33.992188 C 799.179688 31.0625 797.183594 28.636719 794.664062 26.734375 C 792.148438 24.828125 789.199219 23.398438 785.816406 22.445312 C 782.429688 21.492188 778.863281 21.011719 775.136719 21.011719 L 764.628906 21.011719 Z M 764.628906 69.050781 " fill-opacity="1" fill-rule="nonzero"/><g clip-path="url(#78b83808d0)"><path stroke-linecap="butt" transform="matrix(0.748859, 0, 0, 0.749891, -41.299951, -39.549183)" fill="none" stroke-linejoin="miter" d="M 1052.418078 58.808504 L 1088.102588 58.808504 C 1096.740733 58.808504 1104.951144 59.782604 1112.728604 61.709968 C 1120.51128 63.642541 1127.292432 66.767995 1133.087709 71.091541 C 1138.87777 75.409877 1143.478521 81.030486 1146.889962 87.937741 C 1150.301404 94.850204 1152.001908 103.24205 1152.001908 113.09765 C 1152.001908 121.838504 1150.34835 129.547959 1147.041234 136.199968 C 1143.728902 142.862395 1139.289856 148.45175 1133.698013 152.968032 C 1128.111387 157.489522 1121.648427 160.927522 1114.329999 163.261195 C 1107.011571 165.600077 1099.328003 166.772122 1091.300162 166.772122 L 1052.407646 166.772122 L 1052.407646 58.808504 Z M 1076.20949 144.821013 L 1088.56162 144.821013 C 1094.049137 144.821013 1099.161083 144.258432 1103.892241 143.138477 C 1108.618182 142.018522 1112.707739 140.169295 1116.171343 137.569959 C 1119.62973 134.981041 1122.347407 131.569086 1124.32959 127.349722 C 1126.311773 123.130359 1127.297649 117.96815 1127.297649 111.868304 C 1127.297649 106.591495 1126.311773 101.98145 1124.32959 98.069422 C 1122.347407 94.162604 1119.681893 90.927759 1116.317398 88.390932 C 1112.95812 85.848895 1109.019835 83.942368 1104.502544 82.67135 C 1099.980037 81.400332 1095.217582 80.759613 1090.241259 80.759613 L 1076.20949 80.759613 Z M 1076.20949 144.821013 " stroke="#20223e" stroke-width="0.5" stroke-opacity="1" stroke-miterlimit="10"/></g><path fill="#bed000" d="M 5.683594 5.683594 L 32.636719 5.683594 L 51.25 58.515625 L 51.484375 58.515625 L 70.210938 5.683594 L 97.050781 5.683594 L 97.050781 86.648438 L 79.238281 86.648438 L 79.238281 24.558594 L 79.003906 24.558594 L 57.765625 86.65625 L 44.175781 86.65625 L 23.730469 24.558594 L 23.5 24.558594 L 23.5 86.65625 L 5.683594 86.65625 Z M 5.683594 5.683594 " fill-opacity="1" fill-rule="nonzero"/><g clip-path="url(#bb7bec2240)"><path stroke-linecap="butt" transform="matrix(0.748859, 0, 0, 0.749891, -41.299951, -39.549183)" fill="none" stroke-linejoin="miter" d="M 62.740199 60.319141 L 98.732469 60.319141 L 123.588 130.772095 L 123.900976 130.772095 L 148.907779 60.319141 L 184.748777 60.319141 L 184.748777 168.287968 L 160.962582 168.287968 L 160.962582 85.489468 L 160.649605 85.489468 L 132.28874 168.298386 L 114.141333 168.298386 L 86.839371 85.489468 L 86.531611 85.489468 L 86.531611 168.298386 L 62.740199 168.298386 Z M 62.740199 60.319141 " stroke="#bed000" stroke-width="0.5" stroke-opacity="1" stroke-miterlimit="10"/></g><path fill="#bed000" d="M 110.179688 13.582031 C 110.179688 10.835938 111.152344 8.488281 113.09375 6.546875 C 115.03125 4.605469 117.375 3.628906 120.117188 3.628906 C 122.855469 3.628906 125.203125 4.605469 127.140625 6.546875 C 129.082031 8.488281 130.054688 10.835938 130.054688 13.582031 C 130.054688 16.324219 129.082031 18.671875 127.140625 20.613281 C 125.203125 22.558594 122.855469 23.53125 120.117188 23.53125 C 117.375 23.53125 115.03125 22.558594 113.09375 20.613281 C 111.144531 18.664062 110.179688 16.324219 110.179688 13.582031 Z M 111.550781 31.074219 L 128.675781 31.074219 L 128.675781 86.648438 L 111.550781 86.648438 Z M 111.550781 31.074219 " fill-opacity="1" fill-rule="nonzero"/><g clip-path="url(#a803f65dab)"><path stroke-linecap="butt" transform="matrix(0.748859, 0, 0, 0.749891, -41.299951, -39.549183)" fill="none" stroke-linejoin="miter" d="M 202.280664 70.851923 C 202.280664 67.189932 203.579516 64.059268 206.172002 61.47035 C 208.759273 58.881432 211.889035 57.579159 215.550858 57.579159 C 219.207464 57.579159 222.342442 58.881432 224.929713 61.47035 C 227.5222 64.059268 228.821051 67.189932 228.821051 70.851923 C 228.821051 74.508704 227.5222 77.639368 224.929713 80.228286 C 222.342442 82.822413 219.207464 84.119477 215.550858 84.119477 C 211.889035 84.119477 208.759273 82.822413 206.172002 80.228286 C 203.569083 77.62895 202.280664 74.508704 202.280664 70.851923 Z M 204.111575 94.178232 L 226.979707 94.178232 L 226.979707 168.287968 L 204.111575 168.287968 Z M 204.111575 94.178232 " stroke="#bed000" stroke-width="0.5" stroke-opacity="1" stroke-miterlimit="10"/></g></svg>