<?xml version="1.0" encoding="utf-8"?>
<!-- Generator: Adobe Illustrator 23.1.0, SVG Export Plug-In . SVG Version: 6.00 Build 0)  -->
<svg version="1.1" id="Capa_1" xmlns="http://www.w3.org/2000/svg" xmlns:xlink="http://www.w3.org/1999/xlink" x="0px" y="0px"
	 viewBox="0 0 1989.9 796.4" style="enable-background:new 0 0 1989.9 796.4;" xml:space="preserve">
<style type="text/css">
	.st0{fill:#FFFFFF;}
	.st1{enable-background:new    ;}
</style>
<g>
	<path class="st0" d="M1656.4,472.2c0.1-2.7,1.3-4.8,2.1-7c11.8-31.4,23.6-62.9,35.3-94.3c0.9-2.3,1.9-3.3,4.5-3.3
		c13.8,0.2,27.6,0.1,41.4,0c2.3,0,3.5,0.6,4.3,2.9c16.9,45.2,33.9,90.3,50.9,135.4c1.1,2.9,0.6,3.6-2.5,3.6
		c-7.1-0.2-14.3-0.3-21.4,0c-3.2,0.1-4.5-1.1-5.6-4c-14.7-37.9-29.6-75.8-44.5-113.7c-0.5-1.4-1.2-2.7-1.7-4
		c-1.4,0.4-1.4,1.6-1.7,2.4c-10.3,26.1-20.7,52.1-30.9,78.3c-1,2.7-2.1,3.9-5.3,3.8C1673,472,1664.7,472.2,1656.4,472.2z"/>
	<path class="st0" d="M1771,367c-6.1-5.1-12.3-10.2-18.4-15.4c-6.9-5.8-13.9-11.5-20.7-17.5c-1.9-1.7-3.4-1.7-5.7-0.9
		c-16.8,6.1-33.7,12.2-50.6,18.2c-1.2,0.4-2.4,1.3-4.1,1c-0.2-1.7,0.7-3.1,1.3-4.5c4.3-11.6,8.6-23.3,13-34.8c1-2.6,0.6-4.3-1.3-6.3
		c-9.6-10.2-19.1-20.6-28.6-30.9c-0.5-0.5-1-1.1-2-2.3c8.4,1.7,16.1,3.2,23.7,4.8c6.6,1.4,13.3,2.7,19.8,4.2c2.7,0.6,4-0.1,5.3-2.6
		c6.2-12,12.5-24,18.9-36c0.7-1.3,1.4-2.6,2.5-4.6c1.8,4.8,3.5,9.1,5.1,13.3c5.4,14.4,10.8,28.8,16.1,43.3c0.8,2.1,2,3.2,4.1,3.9
		c9.2,3.2,18.4,6.5,27.6,9.8c1.1,0.4,2.2,0.9,4.1,1.7c-8,3.3-15.2,6.4-22.5,9.2c-2.7,1-3.3,2.1-2.2,4.9c4.8,12.3,9.3,24.6,13.9,36.9
		c0.5,1.4,1,2.8,1.4,4.1C1771.4,366.7,1771.2,366.8,1771,367z"/>
	<path class="st0" d="M1498.8,445.6c0,8-0.1,16.1,0,24.1c0,2.1-0.5,3.1-2.7,2.8c-0.1,0-0.3,0-0.4,0c-10.3,0-20.5,0.4-30.7,1.2
		c-18.7,1.4-33.6-6.5-43.1-22.7c-9.1-15.5-8.7-31.6,1.4-46.5c10.5-15.6,25.7-22.1,44.4-20.5c10.4,0.9,19.2,5.3,27,12.1
		c1.7,1.5,1.9,2.4,0.2,4.2c-4,4.1-7.9,8.4-11.6,12.8c-1.8,2.1-2.9,2.2-5,0.3c-7.6-6.7-16.4-7.8-25.6-3.9
		c-9.4,3.9-14.5,13.5-12.8,23.2c1.6,9.3,10.3,16.9,20.3,17.8c4.5,0.4,8.7-0.6,12.8-2.3c2.3-1,2.4-2.6,2.2-4.6
		c-0.3-2.3-2.1-1.3-3.3-1.3c-6.9-0.2-6.9-0.1-6.9-6.9c0-4.6,0.1-9.3,0-13.9c-0.1-2.2,0.7-2.8,2.8-2.7c9.4,0.1,18.8,0.2,28.2,0
		c2.8-0.1,3,1.1,3,3.3C1498.7,429.8,1498.8,437.7,1498.8,445.6z"/>
	<path class="st0" d="M1411.4,428.9c0,25-19.9,45.4-43.9,45.1c-24.1-0.3-43.3-20.2-43.6-45.1c-0.2-24.6,19.8-45.3,43.8-45.4
		C1391.8,383.5,1411.5,403.9,1411.4,428.9z M1367.6,407.3c-11.1,0.1-19.9,9.7-19.8,21.7c0,11.9,9.1,21.5,20.1,21.4
		c10.9-0.1,19.9-9.9,19.9-21.7C1387.8,416.8,1378.7,407.2,1367.6,407.3z"/>
	<path class="st0" d="M1547.3,474c-24.4-0.1-43.6-20.5-43.5-46.2c0.1-24.2,20.3-44.6,43.9-44.3c24.2,0.3,43.4,20.6,43.3,45.7
		C1590.9,454,1571.2,474.1,1547.3,474z M1527.5,428.8c0,12,8.9,21.6,20,21.6c10.9,0,20.1-9.9,20.1-21.6c0-11.8-9.1-21.5-20.1-21.5
		C1536.3,407.3,1527.5,416.8,1527.5,428.8z"/>
	<path class="st0" d="M1257.8,428.3c0-13.2,0.1-26.3-0.1-39.5c0-2.7,0.5-3.7,3.5-3.7c9.9,0.2,19.8,0,29.7,0.1
		c19.9,0.1,32.9,20.6,24.4,38.6c-0.9,2-0.8,3.2,0.4,5c6.2,8.9,7,18.4,2.1,28.1c-5,9.6-13.2,14.5-24,14.7
		c-10.8,0.1-21.6-0.1-32.3,0.1c-3.1,0.1-3.7-1-3.6-3.8C1257.9,454.6,1257.8,441.5,1257.8,428.3z M1288.2,452.7c1.9,0,3.8,0.1,5.6,0
		c4.5-0.3,7.9-3.6,8.1-7.8c0.2-4.3-3.2-8-7.8-8.5c-2-0.2-4-0.1-6-0.1c-8.1,0-8.1,0-8.1,8.3C1280,452.7,1280,452.7,1288.2,452.7z
		 M1280,412.1c0,1.6,0.1,3.3,0,4.9c-0.3,2.5,0.5,3.7,3.2,3.4c2.6-0.2,5.2,0,7.9-0.1c4.5-0.2,7.9-3.5,8-7.8c0.1-4.4-3.3-8-7.9-8.2
		c-1.1-0.1-2.2,0-3.4,0C1280,404.3,1280,404.3,1280,412.1z"/>
	<path class="st0" d="M1632.7,384.1c12.4,0,24.8,0.1,37.2-0.1c2.5,0,3.2,0.7,3.1,3.2c-0.2,6.8-0.1,13.5,0,20.3
		c0.1,2.4-0.6,3.3-3.1,3.2c-6.5-0.2-13,0.1-19.5-0.1c-2.9-0.1-3.8,0.7-3.8,3.7c0.1,18.2,0,36.3,0.1,54.5c0,3-0.8,3.8-3.7,3.7
		c-6.6-0.2-13.3-0.2-19.9,0c-3.3,0.1-4.5-0.6-4.4-4.2c0.2-17.9,0-35.8,0.2-53.8c0-3.1-0.8-4.1-3.9-3.9c-6.4,0.2-12.8,0-19.2,0.1
		c-2.5,0.1-3.5-0.5-3.4-3.2c0.2-6.8,0.2-13.5,0-20.3c-0.1-2.4,0.6-3.2,3.1-3.1C1607.9,384.1,1620.3,384.1,1632.7,384.1z"/>
	<path class="st0" d="M1742.6,243.6c5.1,1.1,10.2,2,15.3,3.2c2.1,0.5,3.2,0.2,4.2-1.8c1.4-2.8,3.1-5.3,5.1-8.7
		c1,3.3,2.1,5.8,2.5,8.4c0.6,4,2.8,5.7,6.6,6.1c2.6,0.3,5.1,1,8.4,1.7c-3.4,2.2-6.1,4-8.8,5.6c-1.8,1.1-2.4,2.1-1.5,4.2
		c1.3,3,2.2,6.1,3.5,9.7c-3.3-1.4-5.4-3.5-7.5-5.5c-2.4-2.2-4.3-2.6-7-0.5c-3.1,2.4-6.6,4.3-10.7,6.9c1.4-3.9,2.3-7.1,3.6-10
		c1.2-2.6,0.6-4.3-1.4-6.2c-4.3-4.1-8.4-8.5-12.5-12.8C1742.3,244,1742.4,243.8,1742.6,243.6z"/>
	<path class="st0" d="M1661.3,336.2c-1.2-0.9-2.3-1.8-3.5-2.8c-6.3-5-6.3-5-13.1-0.7c-2,1.3-4,2.6-6.4,4.1c0.5-3.8,1.9-6.7,3.1-9.6
		c0.8-2,0.6-3.4-1-4.9c-4.2-4.2-8.3-8.6-13.2-13.7c6.4,1.3,11.8,2.3,17.1,3.6c1.9,0.4,2.8,0,3.5-1.7c1.1-2.6,2.4-5.1,4.1-8.7
		c1.2,4.1,2.2,7.1,2.9,10.1c0.5,1.9,1.3,2.9,3.4,3.2c3.1,0.4,6.1,1.3,9.4,2c-1.3,2.1-3.4,2.8-5.1,4c-5.6,3.9-5.1,2-3,8.4
		c0.7,2.1,1.4,4.2,2.2,6.3C1661.7,336,1661.5,336.1,1661.3,336.2z"/>
</g>
<g>
	<g id="pFjmcD.tif_6_">
		<g>
			<path class="st0" d="M251.3,277.1c4.2,1.7,8.1,3.5,12.1,4.9c11.4,4.1,23.2,5.7,35.3,5c12.6-0.7,24.6-3.8,35.8-9.6
				c1-0.5,1.7-0.4,2.6,0c10.8,5.3,22.2,8.4,34.2,9.3c16.8,1.3,32.6-2,47.7-9.4c0.3-0.2,0.7-0.3,1.2-0.6c0.1,0.6,0.1,1,0.1,1.5
				c0,50.2,0.1,100.5-0.1,150.7c-0.1,15.5-11.3,27.7-25.7,31.4c-4.8,1.2-9.6,0.9-14.4,1.1c-11.8,0.5-23.2,2.3-34.1,7.1
				c-3.1,1.4-6.2,3.1-9.2,4.8c-0.8,0.5-1.4,0.5-2.2,0c-10.2-6.3-21.2-9.9-33.1-11c-5.9-0.5-11.8-0.8-17.7-1
				c-15.9-0.3-29.9-12.5-32.2-28.2c-0.2-1.4-0.3-2.8-0.3-4.3c0-50,0-100,0-150.1C251.3,278.4,251.3,277.8,251.3,277.1z M392.8,310.8
				c-1.4,0.5-2.4,0.9-3.4,1.2c-6.5,2.1-13.2,2.4-20,2c-11.1-0.7-21.8-2.7-31.9-7.3c-0.5-0.2-1.4-0.4-1.9-0.1
				c-8.2,3.7-16.8,5.7-25.7,6.8c-7.3,0.9-14.6,1.2-21.8-0.2c-2.7-0.5-5.3-1.4-8.1-2.2c0,0.6-0.1,1.1-0.1,1.7c0,33.5,0,67.1,0,100.6
				c0,8.6,5.4,16.5,13.3,19.8c3.7,1.5,7.6,1.7,11.5,1.7c10.5,0.1,20.7,1.9,29.8,7.5c0.9,0.6,1.6,0.3,2.4-0.1c4.7-2.8,9.7-4.7,15-5.9
				c6.1-1.3,12.2-1.4,18.3-1.6c11.5-0.4,22.6-9.5,22.5-23c-0.1-32.9,0-65.8,0-98.8C392.8,312.4,392.8,311.8,392.8,310.8z
				 M269.9,380.5c0-0.2,0-0.3-0.1-0.5c1.2-0.5,2.4-0.9,3.5-1.6c4.4-2.6,4.8-7.6,1-10.6c-3.7-2.9-9.8-2.9-13.5,0
				c-4.1,3.2-3.8,8.1,0.7,10.7c1.5,0.9,3.3,1.3,5,1.9c0,0.1,0.1,0.2,0.1,0.3c-2.3,0.2-4.6,0.4-7.1,0.6c1.8,4,4.9,2.1,8.1,2.1
				c-1,2.6-1.8,4.9-2.8,7.7c-1.4-2.8-3.2-4.4-5.6-5.1c-1-0.3-2.1,0-3.1,0c0.1,1.1,0.2,2.1,0.3,3.2c0,0.2,0.2,0.4,0.3,0.6
				c1.3,2.2,3.4,3.3,5.8,3.7c1.2,0.2,1.5,0.7,1.4,1.9c-0.2,1.5-0.3,3.1-0.2,4.6c0.2,2,0.7,3.9,1.1,6.2c1.1-0.8,1.6-1.3,2.3-1.6
				c1.3-0.7,1.4-1.6,0.8-3c-1.4-3.3-1.3-6.7-0.1-10.1c1-2.7,1.9-5.4,3-8.3c5.3-0.4,6.1-0.8,5.9-3.4
				C274.4,380,272.1,380.2,269.9,380.5z M389.7,433.9c-1,4.2,2.7,4.5,5.3,6.2c-2.1,1.3-3.8,2.5-5.6,3.4c-4.7,2.4-7.9,6.2-10.2,10.8
				c-0.3,0.6-0.4,1.3-0.7,2.2c1,0,1.8-0.1,2.5,0c1.5,0.2,2.1-0.4,2.5-1.9c0.4-1.4,1.2-2.7,1.8-4.1c5.5,2.8,9.7,2.7,11.9-0.3
				c-2-2.4-4.8-2.9-8.1-3c2.9-2,5.5-3.7,8.2-5.5c4.2,2.6,5.7,2.8,6.8,0.7c-1.8-1-3.6-2-5.3-3c2-0.1,3.8,0.2,5.6,0.1
				c4.2-0.3,6.7-3.9,5.6-7.9s-5.1-7.3-9.4-7.6c-3.6-0.3-6.3,1-7.5,3.5c-1.3,2.6-0.5,5.9,1.9,8.5c0.4,0.4,0.7,0.8,1,1.1
				c-0.1,0.1-0.2,0.3-0.3,0.4C393.8,436.4,391.8,435.2,389.7,433.9z M333.8,454.2c-0.2,0-0.4-0.1-0.6-0.1c0-0.6,0-1.2-0.1-1.7
				c-0.4-3-1.6-5.5-4.5-6.8c-2.4-1.1-4.6-0.5-6.7,0.9c-4,2.9-5.1,8.8-2.7,13s7.4,5,10.9,1.5c1-1,1.7-2.3,2.6-3.5
				c0.1,0,0.2,0,0.3,0.1c-0.6,2-1.1,4-1.7,6c1.9,0.4,3.6-0.1,3.7-1.9c0.2-3.4,2.3-3.6,4.8-3.8c1.9-0.1,3.7-0.8,6.1-1.3
				c-2.4,2-3.4,4.3-3.8,6.8c-0.2,1.1,0.2,1.4,1.3,1.2c3.4-0.7,5.7-2.7,6.8-6c0.2-0.6,0.4-1.2,0.6-2.2c1.7,0.7,3.3,1.4,4.8,2
				c0.5,0.2,1.2,0.4,1.5,0.2c1.1-0.7,2-1.6,3.4-2.8c-2.1-0.7-3.8-1.3-5.5-1.7c-4.8-1.2-9.5-0.6-14.2,0.7c-1.4,0.4-2.8,0.4-4.4,0.6
				c1.2-6.3,1.1-7-1.3-7.3C334.7,450.2,334.3,452.2,333.8,454.2z M265.9,305c-3.6-0.5-7.8,1.6-8.6,4.7c-1.6,5.5,2.3,7.5,6.5,9.3
				c-0.1,0.1-0.1,0.3-0.2,0.4c-2.1-0.3-4.1-0.5-6.2-0.8c-0.3,2.5,0.6,2.9,6.2,3.4c0.4,1.5,0.6,3,1.1,4.4c0.5,1.5,1.2,2.9,1.8,4.6
				c-4-2-4.8-2.3-6.9-2.2c-1.7,0-2,0.5-1.3,2.1c1.1,2.5,3.2,3.8,5.7,4.5c1,0.3,2,0.4,3.4,0.6c-0.5,1.7-1,3.3-1.4,4.9
				c-0.1,0.5-0.2,1.2,0.1,1.4c0.8,0.8,1.8,1.5,2.8,2.3c1.3-2,1.9-6.4,1.5-9.8c-0.3-3.4-1.7-6.3-2.9-9.4c-0.4-1-0.5-2.1-0.8-3.3
				c6.8,0.3,7.1,0.2,7.5-2.2c-2.2-0.2-4.4-0.3-6.5-0.5c6.8-2.8,9-5.2,8.1-9c-0.7-3.2-4.7-6-8.1-5.7c0.1,0.1,0.2,0.3,0.3,0.4
				c2.6,2.5,3.1,8.6,1,11.4c-1.7,2.2-4.3,2-5.6-0.4c-0.3-0.6-0.6-1.2-0.7-1.8C261.9,310.9,262.7,307.6,265.9,305z M273.9,439
				c0.1,0.1,0.2,0.1,0.3,0.2c-2,1.1-3.9,2.2-5.9,3.3c1.4,2.1,2.8,1.9,7.1-0.9c1.2,1,2.4,2,3.7,2.9c1.3,0.9,2.7,1.7,4.4,2.6
				c-5.8,0.9-7,1.4-8.3,3.5c3.9,3.2,7.9,2.4,12.1-0.1c0.7,1.7,1.2,3.2,1.9,4.7c0.2,0.5,0.5,1.2,0.9,1.2c1.3,0.1,2.5,0.1,4,0.1
				c-1-3.4-2.8-5.9-4.9-8.4c-2.3-2.6-5.3-4.1-8.2-5.8c-1.1-0.6-2-1.5-3.1-2.4c5.5-3.1,6-3.8,4.7-6.1c-1.9,1.1-3.4,2.9-6.3,3.2
				c0.8-0.9,1.4-1.5,1.9-2.1c3.5-4.3,1.8-9.9-3.3-11c-5-1.1-10.9,2.4-12.3,7.3c-1.2,4.1,1.4,7.9,5.7,8.1
				C270.2,439.6,272,439.2,273.9,439z M403,380.5c-2.5-0.2-4.6-0.5-6.8-0.7c-0.1,1.8,0.8,2.9,2.5,3.2c0.9,0.1,1.8-0.1,2.6,0.1
				c0.5,0.1,1.1,0.6,1.2,1.1c0.6,1.7,0.9,3.6,1.7,5.3c2,4.2,2.3,8.4,0.4,12.7c-0.2,0.4-0.2,1.1,0,1.3c0.9,0.8,1.9,1.5,3,2.4
				c1.9-4.1,1.6-8.2,1.2-12.2c0.9-0.2,1.6-0.3,2.3-0.5c3.1-0.7,5.6-3.4,5.8-6.1c0.1-1.1-0.3-1.6-1.4-1.6c-2,0.1-3.7,0.7-5.1,2.1
				c-0.9,0.9-1.6,1.9-2.6,3.1c-1-2.5-2.5-4.6-2.5-7.4c2.8,0,5.9,1.8,7.7-2.1c-2.5-0.2-4.8-0.4-7-0.5c1.7-1,3.5-1.4,5-2.3
				c4.2-2.4,4.6-6.8,1.2-10.2c-3.9-3.7-10.9-3.7-14.7,0.1c-2.6,2.5-2.7,6.2,0,8.6C398.9,378.3,400.8,379.2,403,380.5z M366.4,297.5
				c0-1.1,0.2-2.5,0-3.8c-0.3-1.6-1.5-2.3-3.2-2.1c0.1,1.1,0.4,2.1,0.4,3.2c0,1-0.2,2.1-0.3,3.1c-0.6-0.9-0.8-1.7-1.1-2.5
				c-1.1-2.7-2.9-4.6-5.9-4.9c-2.9-0.3-5.1,1-6.7,3.4c-2.2,3.1-2.2,8.2-0.2,11.4c2.7,4.1,7.7,4.6,10.9,0.9c1.3-1.5,2-3.4,3-5.4
				c0,2.3,0,4.5,0,6.7c0.3,0,0.5,0.1,0.8,0.1c3.2-1.3,2.1-4.3,2.1-7.2c3.8,1.5,7.3,3.3,11,4.4c3.8,1.2,7.9,1.2,12,0
				c-0.6-0.8-1.1-1.4-1.4-2c-0.7-1.3-1.5-1.5-3-1.1c-1.5,0.5-3,0.5-4.6,0.8c-0.9-6.6-2.9-9.5-6.6-9.5c-0.9,2.9,0,5.6,1.8,8.4
				C372.3,299.9,369.4,298.7,366.4,297.5z M409.2,319.5c0-0.2-0.1-0.3-0.1-0.5c5.8-3,7.8-5.9,6.3-9.5c-1.3-3.1-5.7-5.4-8.6-4.4
				c3.3,2.7,4.6,7.7,2.7,11.1c-0.7,1.2-1.5,2.2-3,2.2s-2.5-0.8-3.2-2c-0.3-0.5-0.6-1.1-0.7-1.7c-0.8-3.6-0.4-6.9,2.4-9.7
				c-3.7-0.2-7.7,2.6-8.1,6c-0.5,5.7,3.9,7.1,8.3,8.3c0,0.2,0,0.3-0.1,0.5c-2.2,0.2-4.4,0.3-6.9,0.5c1.9,3.8,4.9,2.2,8.1,2.1
				c-1.3,3.9-2.9,7.4-3.7,11c-0.8,3.8-0.7,7.7,1.1,11.6c0.8-0.6,1.4-1.1,2-1.5c1.2-0.7,1.4-1.5,0.8-2.9s-0.8-2.9-1.2-4.3
				c6.6-1.4,9.7-3.8,9.3-7.1c-3.1-0.6-5.9,0.3-8.5,2.3c1.1-3.3,2.1-6.3,3.1-9.3c5.2-0.1,6.6-0.9,6-3.4
				C413.2,318.9,411.2,319.2,409.2,319.5z M308.9,301c2.4,6,5.9,8.6,10.1,7.2c3.3-1.1,5.9-5.3,4.9-8.1c-2.3,2.7-5.5,3.2-8.8,3.1
				c-2.9-0.1-4.9-1.4-5-3.3s1.7-3.7,4.4-4.2c3.6-0.7,6.8,0.1,9.5,2.9c0.4-3.1-1.9-6.9-5.1-7.8c-6-1.7-8.2,2.2-10,6.9
				c0-2.1,0-4.2,0-6.3c-2.6-0.1-3.1,1-3.1,6c-3,1.3-6,2.5-9.3,3.9c2-2.8,3-5.5,1.8-8.9c-1.2,0.6-2.3,1-3.1,1.7
				c-2.1,1.7-3.1,4-3.1,6.6c0,1.1-0.4,1.7-1.5,1.5c-1.3-0.2-2.7-0.5-4-0.7c-0.4-0.1-1.1-0.1-1.3,0.1c-0.8,0.9-1.5,1.9-2.2,3
				c0.4,0.2,0.6,0.3,0.7,0.4c0.4,0.1,0.7,0.2,1.1,0.2c5.4,0.8,10.6,0.1,15.5-2.5c1.7-0.9,3.6-1.6,5.7-2.5c0,1.9-0.1,3.4,0,4.8
				c0.2,1.8,1.3,2.5,2.9,2.2C308.9,305.2,308.9,303.1,308.9,301z M262.2,300.1c0,0.3-0.1,0.5-0.1,0.8c2.1-0.3,2.9,1,3.8,2.4
				c0.3,0.4,2.2,0.5,2.5,0.1c1-1.5,2.2-2.3,4.1-2.1c0-0.2,0-0.4,0.1-0.6c-1.2-0.3-2.4-0.7-3.7-1.1c-0.3-0.7-0.6-1.6-1.1-3
				c-0.8,1.3-1.3,2.2-1.8,2.9C264.6,299.7,263.4,299.9,262.2,300.1z M315.5,446.8c-1.7,0.7-1.8,2-1.9,3.3c-1.1,0.2-2.1,0.4-3.1,0.6
				c0,0.1,0,0.3-0.1,0.4c0.9,0.6,1.8,1.2,2.7,1.8c-0.4,1.2-1.1,2.4,0.2,3.7c0.5-1.9,1.5-2.9,3.3-3.2c0.9-0.2,1.3-1.9,0.6-2.4
				C315.9,450,314.9,448.8,315.5,446.8z M403.5,419.3c-0.1,0.2-0.2,0.4-0.4,0.6c1.6,0.9,2.1,2.1,1.8,3.8c-0.2,0.9,1.4,2.2,2.1,1.7
				c1.6-1.2,3.1-1.3,4.8,0c0.1-0.2,0.2-0.5,0.3-0.7c-0.9-0.9-1.8-1.7-2.8-2.7c0.1-0.7,0.3-1.7,0.5-2.7c-0.1-0.1-0.3-0.2-0.4-0.3
				c-0.9,0.6-1.7,1.1-2.4,1.5C405.7,420.2,404.6,419.7,403.5,419.3z M260.4,424.8c0.1,0.2,0.3,0.4,0.4,0.6c1.4-1,2.7-1.3,4.2-0.4
				c0.4,0.3,1.3,0.3,1.7,0c0.4-0.3,0.5-1,0.8-1.5c0.4-1,0.8-2,1.2-3c0.1-0.3,0.4-0.5,0.7-0.8c-0.1-0.2-0.2-0.3-0.3-0.5
				c-1.1,0.5-2.3,0.9-3.5,1.4c-0.7-0.4-1.6-1-2.4-1.5c-0.1,0.1-0.3,0.2-0.4,0.4c0.2,1,0.4,1.9,0.5,2.6
				C262.1,423.1,261.2,424,260.4,424.8z M400.9,361.3c0,0.2,0,0.4-0.1,0.6c1.9-0.1,3,0.7,3.7,2.4c0.2,0.4,2.3,0.5,2.5,0.2
				c1-1.6,2.2-2.4,4.3-2.2c0-0.2,0-0.5-0.1-0.7c-1.2-0.3-2.5-0.6-3.7-0.8c-0.3-0.8-0.6-1.6-1-2.8c-0.5,0.6-0.9,0.8-1,1.1
				c-0.4,1.3-1.1,1.9-2.6,1.7C402.3,360.6,401.6,361.1,400.9,361.3z M343.2,304.1c0.2,0,0.4,0,0.6,0c0.3-1.7,1.1-3,2.8-3.6
				c0.9-0.3,1-2,0.2-2.3c-1.7-0.7-2.8-1.8-2.4-4c-0.2,0-0.5,0.1-0.7,0.1c-0.3,1.2-0.6,2.4-0.9,3.7c-0.8,0.3-1.8,0.7-2.9,1
				c0,0.2,0,0.3,0.1,0.5c0.9,0.4,1.9,0.7,2.6,1C342.8,301.9,343,303,343.2,304.1z M403.8,299.6c-1.3,0.4-2.4,0.7-3.6,1
				c0,0.2,0.1,0.4,0.1,0.5c1.7,0,3,0.7,3.9,2.2c0.2,0.4,2.3,0.3,2.5,0c0.7-1.7,1.8-2.6,4.1-2.5c-0.6-0.5-0.7-0.8-0.9-0.8
				c-1-0.2-2.2,0.1-3-0.4s-1.2-1.7-2-3C404.4,298,404.1,298.9,403.8,299.6z M332.4,299.6c0-0.2,0-0.4,0-0.6c-1-0.4-2-0.7-3.1-1.1
				c0.1-1.3,0.1-2.6-1.2-3.5c0.2,1.9-0.6,3-2.3,3.6c-0.8,0.3-0.9,2.1-0.2,2.4c1.7,0.7,2.7,1.9,2.8,3.9c0.2,0,0.4-0.1,0.7-0.1
				c0.2-1.1,0.4-2.3,0.7-3.6C330.5,300.3,331.4,300,332.4,299.6z M261.3,361.6c0,0.3,0,0.5,0,0.8c1.9-0.2,3.1,0.6,4.1,2.1
				c0.3,0.4,2.2,0.3,2.3,0c0.8-1.7,1.8-2.7,3.9-2.6c-0.1-0.2-0.1-0.4-0.2-0.7c-1.2-0.2-2.4-0.4-3.7-0.6c-0.4-0.7-0.9-1.6-1.4-2.4
				c-0.2,0-0.3,0-0.5,0.1c-0.3,0.9-0.7,1.9-1,2.6C263.7,361,262.5,361.3,261.3,361.6z"/>
			<path class="st0" d="M387.5,519.6c-1.5,0-2.9,0-4.5,0c0-5.7,0-11.4,0-17.1c-0.1,0-0.2,0-0.3,0c-1,4-2,7.9-3,11.9
				c-0.4,1.4-0.7,2.8-1,4.1c-0.2,0.8-0.5,1.2-1.4,1.2c-3.7,0.1-3.6,0.2-4.6-3.4c-1.1-4.4-2.2-8.8-3.7-13.2c0,5.5,0,10.9,0,16.5
				c-1.7,0-3.1,0-4.6,0c0-8,0-15.9,0-24.1c2.3,0,4.6,0,6.8,0.1c0.3,0,0.7,0.8,0.8,1.2c1.2,4.5,2.4,9,3.6,13.5
				c0.1,0.2,0.1,0.5,0.5,0.7c0.7-2.7,1.5-5.4,2.2-8.2c0.6-2.1,1.1-4.2,1.7-6.3c0.1-0.4,0.7-0.9,1-0.9c2.1-0.1,4.3,0,6.5,0
				C387.5,503.5,387.5,511.5,387.5,519.6z"/>
			<path class="st0" d="M260.9,558.5c0-8,0-15.7,0-23.6c4.5,0,8.8-0.1,13.2,0.1c2.7,0.1,4.7,1.7,5.3,4.4c0.7,2.7-0.4,4.9-2.7,6.5
				c3.7,2.1,4.8,4.5,3.8,7.8c-0.8,2.7-2.9,4.7-5.9,4.8C270.2,558.6,265.6,558.5,260.9,558.5z M265.9,554.3c2.3,0,4.5,0,6.8,0
				c2-0.1,3-1,3.1-2.7c0.1-1.8-0.8-3.1-2.8-3.2c-2.3-0.2-4.7,0-7.1,0C265.9,550.4,265.9,552.3,265.9,554.3z M265.9,544
				c2.2,0,4.3,0.1,6.4,0c1.6-0.1,2.5-1.1,2.6-2.5c0.1-1.6-0.6-2.4-2.3-2.6c-2.2-0.1-4.4,0-6.6,0C265.9,540.6,265.9,542.3,265.9,544z
				"/>
			<path class="st0" d="M470.5,509.1c3.8,2.8,5.3,6.9,8,10.6c-2.1,0-3.8,0.1-5.5,0c-0.5,0-1-0.6-1.3-1c-1.5-2.2-3.1-4.4-4.5-6.7
				c-1.3-2.1-3.2-2.6-5.7-2.1c0,3.2,0,6.4,0,9.7c-1.7,0-3.3,0-4.9,0c0-8,0-16,0-24.1c3.7,0,7.3,0,10.9,0c1.3,0,2.5,0.1,3.8,0.3
				c3.2,0.6,5,2.7,5.1,5.9c0.2,3.4-1.3,5.9-4.4,6.9C471.5,508.8,471.1,508.9,470.5,509.1z M461.6,505.8c2.7-0.1,5.2-0.1,7.7-0.4
				c1.4-0.2,1.9-1.4,2-2.7c0-1.4-0.6-2.7-2-2.8c-2.5-0.2-5-0.1-7.6-0.1C461.6,501.8,461.6,503.6,461.6,505.8z"/>
			<path class="st0" d="M303.9,519.5c0-8,0-15.9,0-24c3.7,0,7.4,0,11,0c2.7,0,4.9,1.1,6.6,3.1c0.1,0.2,0.3,0.3,0.4,0.5
				c3,4.3,3,12.5,0,16.7c-1.5,2.1-3.5,3.4-5.9,3.5C312,519.7,308,519.5,303.9,519.5z M309,515.4c1.8,0,3.5,0.1,5.2,0
				c2.4-0.1,4-1.2,4.3-3.5c0.3-2.7,0.3-5.6,0-8.3c-0.2-2-1.7-3.4-3.7-3.6c-1.9-0.2-3.8,0-5.8,0C309,505,309,510.1,309,515.4z"/>
			<path class="st0" d="M454.2,507.5c0,6-2.4,10.3-7.1,11.8c-8,2.5-16.3-1.1-16.3-11.3c0-3.6,0.6-6.9,3.1-9.6
				c3-3.3,8.5-4.4,13.3-2.6c4.4,1.7,6.5,5.2,7,9.7C454.2,506.2,454.2,506.9,454.2,507.5z M435.8,507.5h0.1c0,0.5,0,1.1,0,1.6
				c0.3,3.6,2.7,6.3,5.8,6.5c3.6,0.3,6.3-1.6,6.9-5.1c0.4-2.1,0.3-4.3,0-6.3c-0.6-3.2-2.9-4.9-6.1-4.9s-5.5,1.7-6.3,4.9
				C436,505.3,436,506.4,435.8,507.5z"/>
			<path class="st0" d="M328.8,541.4c-1.6,0.3-3.1,0.6-4.7,0.9c-0.9-1.9-2.1-3.4-4.4-3.7c-4.4-0.4-7.3,1.9-7.7,6.4
				c-0.1,1.3,0,2.7,0.2,4.1c1.1,6.4,7.6,6.7,11.3,3.9c0.6-0.5,0.5-1.9,0.8-3.1c-2.1,0-3.8,0-5.6,0c0-1.4,0-2.8,0-4.2
				c0.3,0,0.6-0.1,0.8-0.1c3.1,0,6.1,0,9.4,0c0,3.1,0,6.2,0,9.2c0,0.3-0.3,0.7-0.6,0.9c-3.9,3.4-11.4,4.1-15.9,1.7
				c-4.5-2.5-5.9-7.2-5.8-11.6c0.1-3.6,1.3-6.9,4.3-9.2c3.5-2.7,9.9-3.2,13.7-1C327,536.9,328.2,538.8,328.8,541.4z"/>
			<path class="st0" d="M330.7,546.7c0.6-2.3,0.8-4.4,1.6-6.3c2-4.7,6.6-6.7,12.5-6c4.7,0.6,8.4,4.1,9,9c0.3,2.1,0.3,4.3,0,6.4
				c-0.7,5.3-4.6,8.7-9.9,9.1c-4.9,0.4-9.1-0.9-11.4-5.5C331.5,551.3,331.3,548.9,330.7,546.7z M349.1,546.7H349
				c0-0.8,0-1.5-0.1-2.3c-0.4-3.3-2.6-5.5-5.6-5.7c-3.6-0.2-6.2,1.4-6.8,4.8c-0.4,2.2-0.3,4.6,0.2,6.8c0.6,2.9,3,4.5,5.9,4.4
				c2.9,0,5.1-1.6,5.9-4.4C348.9,549.1,348.9,547.9,349.1,546.7z"/>
			<path class="st0" d="M305.4,546.8c0,6.1-2.9,10.4-7.9,11.7c-9.3,2.5-16.6-4.2-15.1-13.8c0.9-5.8,4.1-9.4,9-10.2
				C299.8,533.3,305.5,538.2,305.4,546.8z M287.4,546.1c0.1,1.1,0.1,1.8,0.1,2.5c0.4,3.3,2.7,5.8,5.5,6.1c3.5,0.3,6.1-1.3,6.8-4.6
				c0.4-2.2,0.4-4.7,0-7c-0.6-3.1-3-4.5-6.2-4.4c-2.9,0.1-5.1,1.8-5.8,4.7C287.6,544.4,287.5,545.5,287.4,546.1z"/>
			<path class="st0" d="M405.5,558.5c0-7.9,0-15.7,0-23.5c0.3-0.1,0.5-0.2,0.8-0.2c3.4,0,6.7-0.1,10.1,0c3.7,0.1,6.4,1.8,7.9,5.3
				c1.8,4.3,1.8,8.7,0.1,13c-1.3,3.2-3.8,5.1-7.1,5.3C413.3,558.7,409.4,558.5,405.5,558.5z M410.4,554.3c1.9,0,3.7,0.1,5.4,0
				c2.1-0.1,3.4-1,4-3.1c0.8-2.8,0.8-5.7,0.1-8.6c-0.4-1.6-1.4-3-3.1-3.3c-2.1-0.3-4.2-0.3-6.4-0.4
				C410.4,544.2,410.4,549.1,410.4,554.3z"/>
			<path class="st0" d="M209.8,558.4c0-7.9,0-15.7,0-23.5c0.3-0.1,0.6-0.2,0.9-0.2c3.2,0,6.5-0.1,9.7,0c4.1,0.1,6.9,2.1,8.3,5.9
				c1.4,3.9,1.5,8,0,11.9c-1.2,3.4-3.8,5.5-7.3,5.8C217.7,558.7,213.8,558.4,209.8,558.4z M214.8,554.3c1.8,0,3.5,0.1,5.2,0
				c2.3-0.1,3.8-1,4.1-3.3c0.4-2.7,0.4-5.4,0.1-8.1c-0.2-2.1-1.6-3.5-3.8-3.8c-1.8-0.2-3.7,0-5.7,0
				C214.8,544.1,214.8,549.1,214.8,554.3z"/>
			<path class="st0" d="M249,544c0.1,0.4,0.2,0.5,0.2,0.6c0.2,3.6,0.2,3.6-3.4,3.6c-2.7,0-5.5,0-8.3,0c0,2,0,3.9,0,6
				c4.3,0,8.6,0,13,0c0,1.5,0,2.8,0,4.2c-5.9,0-11.9,0-17.9,0c0-7.8,0-15.6,0-23.5c5.8,0,11.5,0,17.4,0c0,1.3,0,2.6,0,4
				c-4.1,0-8.2,0-12.4,0c0,1.8,0,3.4,0,5.1C241.3,544,245.1,544,249,544z"/>
			<path class="st0" d="M388.4,519.7c1.2-3,2.3-5.8,3.3-8.6c1.8-4.7,3.7-9.5,5.5-14.2c0.4-1,0.8-1.5,2-1.4c3.9,0,3.9,0,5.3,3.5
				c2.5,6.3,5.1,12.7,7.6,19c0.2,0.5,0.3,0.9,0.6,1.7c-1.8,0-3.4,0.1-5,0c-0.3,0-0.6-0.6-0.8-1.1c-0.6-1.4-0.8-3.4-1.9-4
				c-1.2-0.7-3.1-0.3-4.7-0.3c-1.5,0-3.4-0.4-4.5,0.3c-1,0.7-1.3,2.6-1.7,4c-0.3,1-0.8,1.3-1.8,1.2
				C391.1,519.6,389.9,519.7,388.4,519.7z M397.2,510c2.3,0,4.2,0,6.4,0c-1-2.8-2-5.5-3.2-8.6C399.3,504.5,398.3,507.1,397.2,510z"
				/>
			<path class="st0" d="M356.5,519.7c-1.7,0-3.1,0.1-4.6,0c-0.4,0-0.7-0.5-1.1-0.7c-0.1-0.1-0.1-0.2-0.1-0.3
				c-0.6-1.4-0.8-3.4-1.8-4.1c-1.2-0.7-3.2-0.3-4.8-0.3c-1.5,0-3.3-0.4-4.3,0.2c-1,0.7-1.3,2.5-1.7,3.9c-0.3,0.9-0.7,1.4-1.7,1.3
				c-1.2-0.1-2.5,0-4.1,0c0.6-1.5,1-2.7,1.5-3.9c2.5-6.3,4.9-12.7,7.3-19c0.4-1,0.8-1.3,1.9-1.3c3.9,0,3.9,0,5.4,3.7
				c2.5,6.3,5,12.6,7.6,18.9C356.1,518.5,356.3,519,356.5,519.7z M341.1,509.9c2.2,0,4.1,0,6.3,0c-1.1-2.8-2.1-5.5-3.2-8.5
				C343,504.6,342.1,507.2,341.1,509.9z"/>
			<path class="st0" d="M259.4,519.4c0.7-1.8,1.4-3.6,2.1-5.3c2.2-5.8,4.5-11.5,6.7-17.3c0.4-1,0.9-1.4,2-1.4c3.8,0,3.8,0,5.3,3.6
				c2.5,6.3,5.1,12.6,7.6,18.9c0.2,0.5,0.4,1,0.7,1.8c-1.7,0-3.2,0-4.7,0c-0.3,0-0.7-0.4-1-0.7c-0.2-0.2-0.2-0.5-0.3-0.7
				c-1.6-4-1.6-4-5.9-4c-1.4,0-2.8-0.1-4.1,0c-0.5,0-1,0.6-1.4,1c-0.2,0.2-0.2,0.6-0.4,0.9C264.5,520.1,263.9,520.3,259.4,519.4z
				 M271.3,501.4c-1.1,3.1-2.1,5.8-3.1,8.5c2.2,0,4.1,0,6.3,0C273.4,507.1,272.5,504.5,271.3,501.4z"/>
			<path class="st0" d="M218.7,519.7c-1.7,0-3.2,0.1-4.7,0c-0.4,0-0.9-0.5-1.1-0.9c-0.5-1.1-1-2.2-1.3-3.4c-0.3-0.9-0.8-1.1-1.7-1.1
				c-2.4,0.1-4.7,0.1-7.1,0c-0.9,0-1.5,0.3-1.7,1.2c-0.1,0.3-0.2,0.5-0.3,0.8c-1.5,3.9-2,4.2-6.5,3.3c0.8-2.1,1.6-4.1,2.4-6.1
				c2.1-5.5,4.3-11,6.4-16.6c0.4-1.1,0.9-1.4,2-1.4c3.8,0,3.8,0,5.2,3.5c2.5,6.3,5.1,12.6,7.6,18.9
				C218.2,518.3,218.4,518.9,218.7,519.7z M206.4,501.4c-1.1,3.2-2.1,5.8-3.1,8.5c2.2,0,4.1,0,6.3,0
				C208.5,507.1,207.5,504.5,206.4,501.4z"/>
			<path class="st0" d="M396.6,558.4c-0.3,0.1-0.4,0.1-0.5,0.1c-1.5,0-3.4,0.5-4.5-0.2c-1-0.6-1.3-2.5-1.8-3.9
				c-0.3-0.8-0.7-1.2-1.6-1.2c-2.4,0.1-4.7,0.1-7.1,0c-0.8,0-1.4,0.2-1.5,1.1c0,0.1,0,0.1-0.1,0.2c-1.7,4.4-1.7,4.4-6.7,4
				c3.1-7.9,6.1-15.7,9.1-23.5c0.2,0,0.3-0.1,0.4-0.1c4.7-0.2,4.7-0.2,6.5,4.1c2.4,6,4.8,12.1,7.3,18.2
				C396.3,557.5,396.4,557.9,396.6,558.4z M387.6,548.9c-1-2.7-2-5.3-3.1-8.3c-1.1,3.1-2,5.6-3,8.3
				C383.6,548.9,385.5,548.9,387.6,548.9z"/>
			<path class="st0" d="M259.1,502c-0.3,0.2-0.4,0.3-0.5,0.4c-1.4,0.3-2.9,0.7-4.3,1c-0.8-2.3-2.2-3.9-4.7-4
				c-3.2-0.2-5.6,1.7-6.1,5.2c-0.3,2.2-0.2,4.5,0.2,6.7c0.5,2.8,2.4,4.3,5,4.4c2.7,0.1,4.3-1.1,5.3-3.9c0.1-0.4,0.3-0.7,0.4-1.2
				c1.6,0.5,3.2,1,4.7,1.5c-1.3,5.3-4.6,7.9-10,7.9s-9.5-3.1-10.6-8.2c-0.8-3.9-0.8-7.8,1.2-11.4c3.7-6.7,14.5-7.3,18.2-1
				C258.4,500.2,258.7,501.1,259.1,502z"/>
			<path class="st0" d="M451.1,549.7c1.6,0.5,3.1,1,4.5,1.5c-1.1,5.1-4.5,7.7-9.7,7.8c-5.2,0-9.4-3-10.5-7.9
				c-0.8-3.4-0.8-6.9,0.6-10.2c2.5-6.2,10.7-8.5,16.2-4.7c1.8,1.2,2.9,3,3.4,5.3c-1.6,0.4-3.1,0.8-4.7,1.1c-0.8-2.2-2-3.7-4.4-3.9
				c-3.2-0.3-5.6,1.3-6.1,4.5c-0.3,2.4-0.3,4.9,0.1,7.3c0.4,2.7,2.4,4.1,4.7,4.2c2.7,0.1,4.2-0.9,5.3-3.7
				C450.7,550.6,450.8,550.2,451.1,549.7z"/>
			<path class="st0" d="M419.6,504.9c1.7-2.9,3.3-5.5,4.8-8.3c0.5-0.9,1.1-1.3,2.1-1.2c1.3,0.1,2.7,0,4.4,0
				c-1.3,2.1-2.4,3.9-3.5,5.7c-0.4,0.7-0.8,1.5-1.3,2.1c-3.4,4-4.7,8.6-4,13.9c0.1,0.8,0,1.6,0,2.5c-1.8,0-3.3,0-5.1,0
				c0-2.9,0.1-5.6,0-8.4c-0.1-1.1-0.4-2.3-0.9-3.2c-2.2-3.7-4.5-7.3-6.8-10.9c-0.3-0.4-0.5-0.9-1-1.6c1.9,0,3.6-0.1,5.3,0.1
				c0.4,0,0.9,0.6,1.2,1.1C416.3,499.3,417.9,502,419.6,504.9z"/>
			<path class="st0" d="M361.8,539c-2.1,0-3.9,0-5.8,0c-1,0-1.5-0.3-1.4-1.4c0.1-0.9,0-1.7,0-2.7c6.4,0,12.6,0,18.9,0
				c0,1.3,0,2.6,0,4.1c-2.2,0-4.4,0-6.8,0c0,6.6,0,13,0,19.5c-1.7,0-3.2,0-4.9,0C361.8,552,361.8,545.6,361.8,539z"/>
			<path class="st0" d="M224.8,495.7c0,6.5,0,13,0,19.7c3,0,5.8,0,8.6,0c3.8,0,3.8,0,3.4,3.9c0,0-0.1,0.1-0.2,0.3
				c-5.5,0-11,0-16.7,0c0-7.9,0-15.8,0-23.8C221.6,495.7,223.1,495.7,224.8,495.7z"/>
			<path class="st0" d="M301.8,519.6c-5.6,0-11.2,0-16.9,0c0-8,0-15.9,0-23.9c1.6,0,3.2,0,4.9,0c0,6.5,0,13,0,19.7
				c2.3,0,4.5,0,6.7,0c0.7,0,1.3,0,2,0C302.3,515.4,302.3,515.4,301.8,519.6z"/>
			<path class="st0" d="M331.6,519.6c-1.7,0-3.2,0-4.9,0c0-8,0-16,0-24.1c1.6,0,3.2,0,4.9,0C331.6,503.6,331.6,511.5,331.6,519.6z"
				/>
			<path class="st0" d="M428,554c1.7,0,3,0,4.5,0c0,1.5,0,2.9,0,4.5c-1.5,0-2.9,0-4.5,0C428,557,428,555.5,428,554z"/>
			<path class="st0" d="M462.9,558.5c-1.6,0-3.1,0-4.7,0c0-1.3,0-2.4,0-3.6c0-0.3,0.3-0.8,0.5-0.8c1.2-0.1,2.4-0.1,3.6,0
				c0.2,0,0.5,0.5,0.6,0.8C463,556.1,462.9,557.2,462.9,558.5z"/>
			<path class="st0" d="M335.5,488.3c-1.6,1.8-2.8,3.4-4.3,4.6c-0.7,0.6-2.1,0.5-3.5,0.8c0.9-1.9,1.5-3.4,2.2-4.7
				c0.2-0.3,0.6-0.6,1-0.6C332.2,488.3,333.6,488.3,335.5,488.3z"/>
			<path class="st0" d="M390.3,527.8c-1.5,1.7-2.6,3.2-4,4.3c-0.8,0.6-2.1,0.7-3.2,1c-0.1-0.1-0.2-0.3-0.3-0.4
				c0.6-1.4,1.3-2.8,2-4.2c0.1-0.3,0.6-0.5,0.9-0.6C387,527.7,388.5,527.8,390.3,527.8z"/>
			<path class="st0" d="M382.2,361.3c-6.7,5.4-13.9,7.5-22.4,6c4.2,4.2,8.6,6.8,14.5,6.6c-3.2,2.6-6.7,3.8-10.7,4
				c-3.9,0.2-7.6-0.8-11.5-2.8c2.2,4.1,4.9,7.1,9.1,8.8c-3.5,2-7,2.5-10.5,1.3c-2-0.7-3.8-1.9-5.7-2.8c-0.3-0.2-0.6-0.7-0.9-0.7
				c-0.8,0-1.5,0.2-2.3,0.4c0.2,0.6,0.1,1.5,0.5,1.8c1.4,1.1,2.9,2,4.4,2.9c2.1,1.2,4.3,2.3,6.3,3.6c1.8,1.2,3.4,2.8,4.2,5.1
				c-1.1,0.3-2.1,0.5-3.3,0.8c3,3.2,6,6.2,8.9,9.2c0.2,0.2,0.5,0.4,0.7,0.3c1.2-0.2,2.3-0.5,3.7-0.8c-2.3-1.5-5.2-2.6-3.7-6.2
				c2.2,1.4,4.2,2.8,6.6,4.3c-1.4-2.2-2.8-3.9-3.6-5.8c-0.9-2.1-0.6-4.3,0.7-6.3c2.2-3.2,6.2-3.9,11.9-2c1.2-2.3-0.2-3.8-1.9-5.2
				c0.2-0.2,0.3-0.4,0.5-0.5c1.3,0.5,2.6,1,4.1,1.6c0.7-0.5,1.7-1.2,2.7-1.9c0.2,0.1,0.3,0.2,0.5,0.3c-0.1,1.1-0.3,2.3-0.5,3.5
				c1.4,0.6,2.6,1.4,2.8,3.6c-2.2-1.9-4-1.4-5.7,0.2c3.3,3.1,5.5,6.8,3,11.4c-1.7,3.2-5.3,3.9-11,2.9c0.9,0.6,1.7,1.2,2.7,1.7
				s2.1,0.9,3.3,1.3c-0.4,1.4-1.5,2.1-2.7,1.9c-1.1-0.1-2.3-0.5-3.4-1.1c-1-0.5-1.8-1.4-2.8-2.2c-0.1,0.5-0.2,0.7-0.1,0.8
				c1.8,1.9,0.9,3.8,0.2,5.8c-0.1,0.3-0.3,0.7-0.6,0.8c-1.8,0.7-3.5,1.6-5.4,2c-1,0.2-1.4,0.4-1.5,1.2c-0.3,2.4-0.6,4.9-0.8,7.3
				c-0.2,2.4-0.2,2.5-2.5,2.6c-0.9,0-1.7,0-2.9,0c0.1-1.3,0.2-2.5,0.4-3.6c0.2-1.1,0.4-2.3,0.6-3.4c-6.1-1.5-9.4-5.5-8.7-10.3
				c3.7-0.9,7.6,2.6,9.1,8.3c0.9-2,2.1-3.9,2.6-6c0.3-1-0.2-2.7-0.9-3.4c-1.3-1.3-3-2.2-4.6-3.2c-2.1-1.3-4.2-2.6-6.4-4
				c-0.3,1.1-0.5,2-0.8,3.1c-1.1-1-2.1-2-3.1-2.7c-1.1-0.8-2.3-1.3-3.7-1.9c3.2,4.9,4.6,10.2,3.7,15.9c-1.6-1-3.1-1.9-4.6-2.7
				c-0.1,0.1-0.3,0.2-0.4,0.3c1.5,3.7,1.6,7.3,0.5,11.1c-1,3.6-2.7,6.9-4.9,10c-4.7-3.6-6.8-13.6-4.7-21.4c-1.5,0.9-3,1.8-4.5,2.7
				c-0.9-5.5,0.3-10.7,3.7-15.7c-3,0.9-5,2.4-7,4.6c-0.3-1.1-0.5-2-0.9-3.1c-1.6,1-3.1,1.9-4.5,2.8c-1.6,1-3.3,2-4.9,3.1
				c-2.9,1.9-3.2,3.2-1.7,6.4c0.7,1.4,1.2,2.9,1.8,4.4c1.4-5.6,4.7-8.8,8.9-8.6c1.4,4.4-2.7,9.6-8.4,10.4c0.3,2.3,0.6,4.6,0.9,7
				c-1.5,0-3,0.1-4.4-0.1c-0.4,0-0.9-0.9-0.9-1.4c-0.3-2.3-0.4-4.6-0.7-6.9c-0.1-0.9-0.4-1.8-0.9-2.3c-2-0.7-4-1.3-5.9-2.1
				c-1.5-0.6-2.3-4.3-1.5-5.9c0.3-0.5,0.5-0.9,0.6-1.6c-1.4,1-2.7,2.1-4.3,2.9c-1.8,0.9-3.4,0.3-4.5-1.5c2.1-1.1,4.2-2.1,6.3-3.2
				c0-0.1-0.1-0.3-0.1-0.4c-4.6,1.2-9,1.8-11.7-3.2c-1.7-3.2-0.3-7.2,3.4-10.6c-2.8-1.8-2.8-1.8-5.5-0.6c-0.2-1.4,0.3-2.1,2.6-3.3
				c-0.1-0.5-0.2-1.1-0.3-1.7c-0.1-0.6-0.1-1.1-0.2-1.7c0.1-0.1,0.3-0.2,0.4-0.3c1,0.7,2,1.4,2.8,1.9c1.5-0.6,2.8-1.1,4.2-1.6
				c0.2,0.2,0.3,0.4,0.5,0.5c-1.6,1.4-3.4,2.7-2,5.1c6.3-1.7,10-1,12,2.3c2,3.2,1.2,6.4-3,11.2c0.1,0.1,0.2,0.3,0.3,0.4
				c2-1.3,4-2.6,6-3.9c1.5,2,0.8,3.4-3.3,6c2.4,1.2,3.6,1.1,5.3-0.7c2.5-2.6,5-5.2,7.7-8c-1.2-0.3-2.2-0.6-3.8-1
				c1.6-1.7,2.7-3.4,4.3-4.5c2.5-1.7,5.2-2.9,7.9-4.4c1.2-0.7,2.5-1.5,3.6-2.3c0.7-0.6,1.8-1.3,0.9-2.4c-0.8-1-1.8-0.4-2.6,0.3
				c-3.1,2.5-6.6,4-10.6,3.7c-2-0.2-4-0.8-6.3-1.4c2.1-1.5,3.8-2.4,5.2-3.7c1.4-1.3,2.5-3,3.6-4.7c-7.7,3.5-15,3.2-22.1-1.8
				c2.8-0.5,5.4-0.7,7.9-1.5s4.7-2.3,7-3.7c-8.7,1-15.8-1.8-21.8-7.7c5.5-1.2,10.8-2.5,16.2-3.7c-11.7-1.8-20-7.7-21-15.6
				c6,2.4,12.2,2.4,18.5,2c-4.9-2.2-9.4-5-12.7-9.3c-3.4-4.3-5.1-9.2-5.2-14.7c0.2,0,0.4-0.1,0.4,0c4.9,4.9,11.3,7.3,17.5,9.8
				c2.1,0.9,4.3,1.5,6.5,2.3c5.8,2,9.4,5.9,9.9,12.2c0.2,2.4,2.2,4,4.6,4s4.3-1.6,4.5-3.9c0.3-2.5,0.6-4.9,0.6-7.4
				c0.1-2.6-1-3.5-3.7-3.3c-0.9,0.1-1.8,0.3-2.9,0.4c-0.7-2.6-0.5-5.1,1.1-7.2c0.6-0.8,1.9-1.3,3-1.3c3.2-0.2,6.5-0.1,9.7-0.1
				c1.8,0,3,1,3.4,3.2c0.5,2.8,0.6,5.8,0.9,8.6c0.2,2.2,0.2,4.5,0.6,6.7c0.6,3.1,2.4,4.4,5,4.2c2.1-0.2,3.8-1.8,4-3.9
				c0.5-6.3,4.1-10.1,9.9-12.2c3.8-1.4,7.5-2.7,11.2-4.3c4.7-2,9.2-4.2,12.7-8c1,3.4-1.3,10.4-4.8,14.7c-3.4,4.2-7.9,6.9-12.8,9
				c6.2,0.5,12.4,0.9,18.7-1.7c-1.1,4.9-3.8,8.3-7.6,10.8c-3.8,2.5-8.1,3.4-12.6,3.9C371.2,358.8,376.3,360.7,382.2,361.3z
				 M301.1,399.4c0-3.2-3.9-8.2-7.1-9c-2.1-0.5-3.2,0.2-3.6,2.3c-0.7,3.6,2.5,9,5.9,10.1C298.9,403.6,301.1,402,301.1,399.4z
				 M381.2,394.2c0-3.7-1.9-4.9-4.6-3.5c-2.9,1.5-4.9,4-5.9,7.2c-0.5,1.6-0.3,3.1,1,4.2c1.2,1.1,3,1.1,4.6,0.1
				C379.4,400.2,380.9,397.3,381.2,394.2z M334.5,329.4c-0.5-0.3-1.2-1.1-2-1.2c-1.1-0.1-1.8,0.8-1.7,1.9c0.1,1.1,0.8,1.7,1.9,1.7
				S334.4,331.1,334.5,329.4z"/>
			<path class="st0" d="M326.7,317.2c2,0.7,4.1,1.4,6.3,2.2c0.9-1.9,1.7-3.7,2.7-6c0.9,2.2,1.6,4,2.5,6c2.1-0.8,4.2-1.5,6.2-2.2
				c0.1,0.1,0.2,0.2,0.3,0.3c-1.3,2-2.6,4.1-4,6.1c-0.2,0.3-0.9,0.4-1.3,0.4c-2.5,0-4.9,0-7.4,0c-0.5,0-1.2-0.2-1.5-0.5
				c-1.4-1.9-2.7-3.9-4.1-5.9C326.5,317.5,326.6,317.4,326.7,317.2z"/>
			<path class="st0" d="M271.6,374.3c-0.3,0.8-0.5,2.3-1.2,3.5c-1.3,2.2-3.9,2.2-5.4,0.1c-1.9-2.6-1.8-8.1,0.2-10.6
				c1.1-1.4,2.4-1.5,3.8-0.3C271,368.8,271.4,371.2,271.6,374.3z"/>
			<path class="st0" d="M406.3,429.8c-0.3,2.9-2,5.6-5.1,7.4c-1.3,0.7-2.6,0.8-3.8-0.2c-1.2-1-1.5-2.4-1.1-3.9
				c0.9-3.1,2.9-5.4,5.8-6.8C404.7,425.1,406.3,426.3,406.3,429.8z"/>
			<path class="st0" d="M324.7,450.1c2.5,0.3,4.8,0.8,6.6,2.5c1.7,1.7,1.4,3.7-0.7,4.9c-3.2,1.8-9.7,0.1-11.5-3.1
				c-0.8-1.3-0.4-2.6,1.1-3.2C321.6,450.6,323.2,450.4,324.7,450.1z"/>
			<path class="st0" d="M276.3,434.2c0,2.8-1.9,4.2-4.5,3.2c-3.3-1.2-6.2-6.2-5.5-9.3c0.4-1.8,1.3-2.4,3.1-2.1
				C272.6,426.5,276.3,430.9,276.3,434.2z"/>
			<path class="st0" d="M401,373.9c0.1-2.7,0.6-4.7,2-6.4c1.5-1.9,3.6-1.8,4.8,0.3c1.6,2.8,1.7,5.8,0.6,8.9
				c-0.7,1.9-2.1,2.8-3.7,2.7c-1.9-0.1-2.7-1.5-3.3-3C401.2,375.5,401.1,374.4,401,373.9z"/>
			<path class="st0" d="M355.9,303.6c-2-0.7-4.2-1.2-6.1-2.2c-2.1-1.1-2.1-2.8-0.1-4.1c3.2-2.1,6.6-2.5,10.1-0.8
				c1.4,0.7,2.4,1.7,2.3,3.5c-0.2,1.8-1.5,2.5-3,2.9c-1,0.3-2,0.3-3.1,0.5C356,303.4,355.9,303.5,355.9,303.6z"/>
		</g>
	</g>
</g>
<g>
	<line class="st0" x1="1167" y1="284.2" x2="1167" y2="557.2"/>
	<rect x="1165" y="284.2" class="st0" width="4" height="273"/>
</g>
<g>
	<line class="st0" x1="541.9" y1="276.9" x2="541.9" y2="549.9"/>
	<rect x="539.9" y="276.9" class="st0" width="4" height="273"/>
</g>
<g class="st1">
	<path class="st0" d="M715.4,367l3-5.5c1.9,2.1,4.1,3.2,6.5,3.2c1.4,0,2.5-0.4,3.3-1.3c0.8-0.9,1.3-2,1.3-3.4c0-0.9-0.2-1.8-0.7-2.5
		c-0.5-0.8-1.1-1.5-1.9-2s-1.6-1.2-2.6-1.7c-0.9-0.6-1.9-1.2-2.8-1.9c-0.9-0.7-1.8-1.4-2.6-2.3c-0.8-0.8-1.4-1.8-1.9-3
		c-0.5-1.2-0.7-2.5-0.7-4c0-3.1,1-5.7,3-7.7c2-2,4.7-3,8.2-3c3.1,0,5.9,0.8,8.3,2.5l-2.3,5.7c-0.7-0.6-1.6-1.1-2.8-1.5
		c-1.2-0.4-2.2-0.7-3.1-0.7c-1.5,0-2.7,0.4-3.6,1.3c-0.8,0.9-1.3,2-1.3,3.3c0,2.2,1.6,4.1,4.7,5.9c1.2,0.7,2.2,1.3,3,1.8
		c0.8,0.5,1.7,1.3,2.7,2.2c1,0.9,1.7,2,2.2,3.3c0.5,1.2,0.7,2.6,0.7,4.1c0,3.1-1,5.7-2.9,7.8c-1.9,2.1-4.6,3.1-8.1,3.1
		C721.3,370.7,718.1,369.5,715.4,367z"/>
	<path class="st0" d="M759.6,370H741v-37.6h17.9v5.7h-11.4v10.1h9.2v5.7h-9.2v10.4h12.1V370z"/>
	<path class="st0" d="M778.7,331.8c3.7,0,6.8,1,9.2,3.1l-2.7,5.6c-0.6-0.7-1.6-1.4-2.8-1.9c-1.2-0.5-2.4-0.7-3.5-0.7
		c-3.1,0-5.6,1.2-7.4,3.7c-1.8,2.5-2.6,5.6-2.6,9.3c0,3.8,0.9,7,2.7,9.7c1.8,2.6,4.3,4,7.3,4c2.4,0,4.7-0.9,7-2.8l2.7,5.5
		c-2.7,2.3-6.1,3.4-10.1,3.4c-5,0-8.9-1.8-11.8-5.5c-2.9-3.6-4.3-8.3-4.3-14c0-5.7,1.5-10.4,4.4-14
		C769.6,333.6,773.6,331.8,778.7,331.8z"/>
	<path class="st0" d="M799.1,370h-6.5v-37.6h10.9c1.8,0,3.4,0.4,4.9,1.2c1.7,0.8,3.1,2.1,4.1,3.9s1.5,3.8,1.5,6.1
		c0,2.3-0.5,4.3-1.5,6.2c-1,1.9-2.3,3.2-4,4.2v0.1c0.4,0.6,0.8,1.2,1.1,2l6.3,14h-7.1l-5.7-14h-4.1V370z M799.1,338.2v12.1h3.4
		c1.4,0,2.6-0.6,3.6-1.7s1.5-2.6,1.5-4.5c0-2.3-0.7-4-2-5c-0.9-0.6-1.9-0.9-2.9-0.9H799.1z"/>
	<path class="st0" d="M838.5,370H820v-37.6h17.9v5.7h-11.4v10.1h9.2v5.7h-9.2v10.4h12.1V370z"/>
	<path class="st0" d="M856.1,370h-6.4v-31.9h-9.1v-5.7h24.6v5.7h-9.1V370z"/>
	<path class="st0" d="M869.8,370h-6.5l9.9-37.6h7l9.9,37.6h-6.5l-2.3-9.7h-9.2L869.8,370z M875.6,344.8l-2.4,10.1h7.2l-2.4-10.1
		l-1.1-5.8h-0.2C876.3,341.2,875.9,343.2,875.6,344.8z"/>
	<path class="st0" d="M900.2,370h-6.5v-37.6h10.9c1.8,0,3.4,0.4,4.9,1.2c1.7,0.8,3.1,2.1,4.1,3.9s1.5,3.8,1.5,6.1
		c0,2.3-0.5,4.3-1.5,6.2c-1,1.9-2.3,3.2-4,4.2v0.1c0.4,0.6,0.8,1.2,1.1,2l6.3,14H910l-5.7-14h-4.1V370z M900.2,338.2v12.1h3.4
		c1.4,0,2.6-0.6,3.6-1.7s1.5-2.6,1.5-4.5c0-2.3-0.7-4-2-5c-0.9-0.6-1.9-0.9-2.9-0.9H900.2z"/>
	<path class="st0" d="M927.6,370h-6.5v-37.6h6.5V370z M926.7,329.9h-5l3.2-7.3h6.4L926.7,329.9z"/>
	<path class="st0" d="M937.7,370h-6.5l9.9-37.6h7L958,370h-6.5l-2.3-9.7H940L937.7,370z M943.5,344.8l-2.4,10.1h7.2l-2.4-10.1
		l-1.1-5.8h-0.2C944.2,341.2,943.8,343.2,943.5,344.8z"/>
	<path class="st0" d="M981.3,370h-10.4v-37.6h10.4c4.7,0,8.4,1.7,11.1,5c2.7,3.3,4.1,7.9,4.1,13.8c0,5.9-1.4,10.5-4.1,13.9
		C989.7,368.4,986,370,981.3,370z M977.3,338.2v26.1h3.7c2.8,0,4.9-1.1,6.5-3.4c1.5-2.3,2.3-5.5,2.3-9.7c0-4.1-0.8-7.3-2.3-9.6
		c-1.5-2.3-3.7-3.4-6.4-3.4H977.3z"/>
	<path class="st0" d="M1020.3,370h-18.5v-37.6h17.9v5.7h-11.4v10.1h9.2v5.7h-9.2v10.4h12.1V370z"/>
</g>
<g class="st1">
	<path class="st0" d="M651.1,476H639l4.9-75.3H658l10.2,36.6l2.3,11.4h0.3c1-5.2,1.8-9,2.3-11.4l10.2-36.6h14.2l4.8,75.3h-12
		l-2.5-41.9c-0.1-3.7-0.1-7,0-9.8l0.1-1.9h-0.3c-1,5.1-1.8,9.1-2.5,12.1l-8.1,28.5h-12.6l-8.1-28.5l-2.4-12.1h-0.4v1.9
		c0,0.2,0,0.5,0.1,1c0,0.4,0.1,1,0.1,1.7c0,0.7,0.1,1.3,0.1,1.9c0.1,1.7,0,3.4-0.1,5.2L651.1,476z"/>
	<path class="st0" d="M710.6,437.9c0-11.3,2.8-20.5,8.3-27.7c5.5-7.1,12.9-10.7,22-10.7c9.2,0,16.5,3.6,22,10.7
		c5.5,7.1,8.3,16.4,8.3,27.8c0,11.7-2.8,21.1-8.3,28.4c-5.5,7.3-12.9,10.9-22,10.9c-9.3,0-16.6-3.6-22.2-10.9
		C713.3,459.1,710.6,449.5,710.6,437.9z M723.9,437.9c0,8.3,1.5,14.8,4.6,19.7c3,4.9,7.2,7.3,12.5,7.3c5.2,0,9.4-2.4,12.4-7.3
		c3-4.8,4.6-11.4,4.6-19.7c0-8.1-1.5-14.4-4.5-19.1c-3-4.7-7.2-7-12.5-7s-9.5,2.3-12.5,7C725.4,423.6,723.9,429.9,723.9,437.9z"/>
	<path class="st0" d="M807.7,476h-13.2l-20.8-75.3h13.9l11.6,49l1.8,10.9h0.4c0.6-4.5,1.2-8.1,1.9-10.9l11.6-49h13.7L807.7,476z"/>
	<path class="st0" d="M848.5,476h-12.9v-75.3h12.9V476z"/>
	<path class="st0" d="M899.3,476h-37.2v-75.3H875v63.8h24.3V476z"/>
	<path class="st0" d="M920.2,476h-12.9v-75.3h12.9V476z"/>
	<path class="st0" d="M954.6,476h-20.9v-75.3h20.9c9.4,0,16.8,3.3,22.2,10c5.4,6.6,8.2,15.8,8.2,27.6c0,11.8-2.7,21.1-8.2,27.8
		C971.4,472.7,964,476,954.6,476z M946.7,412.3v52.1h7.4c5.6,0,9.9-2.3,12.9-6.8c3-4.5,4.6-11,4.6-19.4c0-8.3-1.5-14.7-4.6-19.2
		c-3.1-4.5-7.4-6.8-12.9-6.8H946.7z"/>
	<path class="st0" d="M1000.7,476h-12.9l19.7-75.3h14l19.8,75.3h-12.9l-4.7-19.4h-18.4L1000.7,476z M1012.3,425.6l-4.9,20.2h14.3
		l-4.8-20.2l-2.2-11.7h-0.3C1013.7,418.4,1013,422.3,1012.3,425.6z"/>
	<path class="st0" d="M1069.5,476h-20.9v-75.3h20.9c9.4,0,16.8,3.3,22.2,10c5.4,6.6,8.2,15.8,8.2,27.6c0,11.8-2.7,21.1-8.2,27.8
		C1086.3,472.7,1078.9,476,1069.5,476z M1061.6,412.3v52.1h7.4c5.6,0,9.9-2.3,12.9-6.8c3-4.5,4.6-11,4.6-19.4
		c0-8.3-1.5-14.7-4.6-19.2c-3.1-4.5-7.4-6.8-12.9-6.8H1061.6z"/>
</g>
</svg>
