<svg xmlns="http://www.w3.org/2000/svg" xmlns:xlink="http://www.w3.org/1999/xlink" width="1990" zoomAndPan="magnify" viewBox="0 0 1492.5 337.499995" height="450" preserveAspectRatio="xMidYMid meet" version="1.0"><path fill="#bed000" d="M 1358.894531 239.347656 C 1358.988281 236.851562 1360.097656 234.910156 1360.835938 232.875 C 1371.746094 203.839844 1382.652344 174.710938 1393.46875 145.679688 C 1394.300781 143.550781 1395.226562 142.625 1397.628906 142.625 C 1410.386719 142.8125 1423.144531 142.71875 1435.902344 142.625 C 1438.03125 142.625 1439.140625 143.179688 1439.878906 145.308594 C 1455.503906 187.101562 1471.21875 228.804688 1486.933594 270.507812 C 1487.953125 273.191406 1487.488281 273.835938 1484.625 273.835938 C 1478.058594 273.652344 1471.402344 273.558594 1464.839844 273.835938 C 1461.882812 273.929688 1460.679688 272.820312 1459.664062 270.136719 C 1446.074219 235.09375 1432.296875 200.046875 1418.523438 165.003906 C 1418.0625 163.710938 1417.414062 162.507812 1416.953125 161.304688 C 1415.65625 161.675781 1415.65625 162.785156 1415.378906 163.523438 C 1405.859375 187.65625 1396.242188 211.699219 1386.8125 235.925781 C 1385.890625 238.421875 1384.871094 239.53125 1381.914062 239.4375 C 1374.242188 239.160156 1366.566406 239.347656 1358.894531 239.347656 Z M 1358.894531 239.347656 " fill-opacity="1" fill-rule="nonzero"/><path fill="#bed000" d="M 1464.839844 142.070312 C 1459.199219 137.355469 1453.46875 132.640625 1447.828125 127.832031 C 1441.449219 122.46875 1434.980469 117.199219 1428.691406 111.648438 C 1426.9375 110.078125 1425.550781 110.078125 1423.421875 110.816406 C 1407.890625 116.457031 1392.269531 122.097656 1376.644531 127.648438 C 1375.535156 128.015625 1374.425781 128.847656 1372.855469 128.570312 C 1372.667969 127 1373.5 125.707031 1374.054688 124.410156 C 1378.03125 113.683594 1382.007812 102.867188 1386.074219 92.230469 C 1387 89.828125 1386.628906 88.257812 1384.871094 86.40625 C 1375.996094 76.976562 1367.214844 67.359375 1358.433594 57.835938 C 1357.96875 57.371094 1357.507812 56.816406 1356.582031 55.707031 C 1364.347656 57.28125 1371.46875 58.667969 1378.492188 60.144531 C 1384.59375 61.441406 1390.789062 62.644531 1396.796875 64.03125 C 1399.292969 64.585938 1400.496094 63.9375 1401.699219 61.625 C 1407.429688 50.53125 1413.253906 39.433594 1419.171875 28.335938 C 1419.816406 27.136719 1420.464844 25.933594 1421.480469 24.085938 C 1423.144531 28.523438 1424.71875 32.5 1426.195312 36.382812 C 1431.1875 49.699219 1436.179688 63.011719 1441.082031 76.421875 C 1441.820312 78.363281 1442.929688 79.378906 1444.871094 80.027344 C 1453.375 82.984375 1461.882812 86.035156 1470.386719 89.089844 C 1471.402344 89.457031 1472.421875 89.921875 1474.175781 90.660156 C 1466.78125 93.710938 1460.125 96.578125 1453.375 99.167969 C 1450.878906 100.09375 1450.324219 101.109375 1451.34375 103.699219 C 1455.78125 115.070312 1459.941406 126.445312 1464.191406 137.816406 C 1464.65625 139.113281 1465.117188 140.40625 1465.488281 141.609375 C 1465.210938 141.792969 1465.023438 141.886719 1464.839844 142.070312 Z M 1464.839844 142.070312 " fill-opacity="1" fill-rule="nonzero"/><path fill="#bed000" d="M 1213.199219 214.75 C 1213.199219 222.148438 1213.105469 229.636719 1213.199219 237.035156 C 1213.199219 238.976562 1212.734375 239.902344 1210.703125 239.625 C 1210.609375 239.625 1210.425781 239.625 1210.332031 239.625 C 1200.808594 239.625 1191.378906 239.992188 1181.949219 240.734375 C 1164.664062 242.027344 1150.886719 234.722656 1142.105469 219.742188 C 1133.691406 205.410156 1134.0625 190.523438 1143.398438 176.746094 C 1153.105469 162.320312 1167.160156 156.3125 1184.445312 157.792969 C 1194.0625 158.625 1202.195312 162.691406 1209.40625 168.980469 C 1210.980469 170.367188 1211.164062 171.199219 1209.59375 172.863281 C 1205.894531 176.65625 1202.289062 180.628906 1198.867188 184.699219 C 1197.203125 186.640625 1196.1875 186.734375 1194.246094 184.976562 C 1187.21875 178.78125 1179.085938 177.765625 1170.578125 181.371094 C 1161.890625 184.976562 1157.175781 193.851562 1158.746094 202.824219 C 1160.226562 211.421875 1168.269531 218.449219 1177.511719 219.28125 C 1181.671875 219.652344 1185.554688 218.726562 1189.347656 217.15625 C 1191.472656 216.230469 1191.566406 214.75 1191.378906 212.902344 C 1191.101562 210.773438 1189.4375 211.699219 1188.328125 211.699219 C 1181.949219 211.515625 1181.949219 211.605469 1181.949219 205.320312 C 1181.949219 201.066406 1182.042969 196.71875 1181.949219 192.464844 C 1181.859375 190.433594 1182.597656 189.878906 1184.539062 189.96875 C 1193.230469 190.0625 1201.917969 190.15625 1210.609375 189.96875 C 1213.199219 189.878906 1213.382812 190.988281 1213.382812 193.019531 C 1213.105469 200.140625 1213.199219 207.445312 1213.199219 214.75 Z M 1213.199219 214.75 " fill-opacity="1" fill-rule="nonzero"/><path fill="#bed000" d="M 1132.398438 199.308594 C 1132.398438 222.425781 1114 241.289062 1091.8125 241.011719 C 1069.535156 240.734375 1051.785156 222.332031 1051.507812 199.308594 C 1051.320312 176.5625 1069.8125 157.421875 1092 157.328125 C 1114.277344 157.328125 1132.492188 176.191406 1132.398438 199.308594 Z M 1091.90625 179.335938 C 1081.644531 179.429688 1073.507812 188.304688 1073.601562 199.402344 C 1073.601562 210.40625 1082.015625 219.28125 1092.183594 219.1875 C 1102.261719 219.097656 1110.582031 210.035156 1110.582031 199.125 C 1110.582031 188.121094 1102.167969 179.242188 1091.90625 179.335938 Z M 1091.90625 179.335938 " fill-opacity="1" fill-rule="nonzero"/><path fill="#bed000" d="M 1258.035156 241.011719 C 1235.476562 240.917969 1217.726562 222.054688 1217.820312 198.292969 C 1217.914062 175.914062 1236.585938 157.050781 1258.40625 157.328125 C 1280.777344 157.605469 1298.527344 176.378906 1298.433594 199.585938 C 1298.339844 222.519531 1280.128906 241.105469 1258.035156 241.011719 Z M 1239.730469 199.214844 C 1239.730469 210.3125 1247.957031 219.1875 1258.21875 219.1875 C 1268.296875 219.1875 1276.800781 210.035156 1276.800781 199.214844 C 1276.800781 188.304688 1268.390625 179.335938 1258.21875 179.335938 C 1247.867188 179.335938 1239.730469 188.121094 1239.730469 199.214844 Z M 1239.730469 199.214844 " fill-opacity="1" fill-rule="nonzero"/><path fill="#bed000" d="M 990.398438 198.753906 C 990.398438 186.546875 990.492188 174.433594 990.308594 162.230469 C 990.308594 159.734375 990.769531 158.808594 993.542969 158.808594 C 1002.695312 158.992188 1011.847656 158.808594 1021 158.902344 C 1039.394531 158.992188 1051.414062 177.949219 1043.554688 194.59375 C 1042.722656 196.441406 1042.816406 197.550781 1043.925781 199.214844 C 1049.65625 207.445312 1050.398438 216.230469 1045.867188 225.199219 C 1041.246094 234.078125 1033.664062 238.605469 1023.679688 238.792969 C 1013.695312 238.882812 1003.710938 238.699219 993.820312 238.882812 C 990.953125 238.976562 990.398438 237.960938 990.492188 235.371094 C 990.492188 223.074219 990.398438 210.960938 990.398438 198.753906 Z M 1018.503906 221.316406 C 1020.261719 221.316406 1022.015625 221.410156 1023.679688 221.316406 C 1027.839844 221.039062 1030.984375 217.988281 1031.167969 214.101562 C 1031.351562 210.128906 1028.210938 206.707031 1023.957031 206.242188 C 1022.109375 206.058594 1020.257812 206.152344 1018.410156 206.152344 C 1010.921875 206.152344 1010.921875 206.152344 1010.921875 213.824219 C 1010.921875 221.316406 1010.921875 221.316406 1018.503906 221.316406 Z M 1010.921875 183.773438 C 1010.921875 185.253906 1011.015625 186.824219 1010.921875 188.304688 C 1010.644531 190.617188 1011.386719 191.726562 1013.882812 191.449219 C 1016.285156 191.265625 1018.6875 191.449219 1021.183594 191.355469 C 1025.34375 191.171875 1028.488281 188.121094 1028.578125 184.144531 C 1028.671875 180.074219 1025.527344 176.746094 1021.277344 176.5625 C 1020.261719 176.46875 1019.242188 176.5625 1018.132812 176.5625 C 1010.921875 176.5625 1010.921875 176.5625 1010.921875 183.773438 Z M 1010.921875 183.773438 " fill-opacity="1" fill-rule="nonzero"/><path fill="#bed000" d="M 1336.984375 157.882812 C 1348.449219 157.882812 1359.910156 157.976562 1371.375 157.792969 C 1373.6875 157.792969 1374.332031 158.4375 1374.242188 160.75 C 1374.054688 167.039062 1374.148438 173.234375 1374.242188 179.519531 C 1374.332031 181.738281 1373.6875 182.570312 1371.375 182.480469 C 1365.367188 182.292969 1359.355469 182.570312 1353.347656 182.386719 C 1350.667969 182.292969 1349.835938 183.035156 1349.835938 185.808594 C 1349.925781 202.636719 1349.835938 219.375 1349.925781 236.203125 C 1349.925781 238.976562 1349.1875 239.714844 1346.507812 239.625 C 1340.40625 239.4375 1334.210938 239.4375 1328.109375 239.625 C 1325.058594 239.714844 1323.949219 239.070312 1324.042969 235.742188 C 1324.226562 219.1875 1324.042969 202.636719 1324.226562 185.992188 C 1324.226562 183.128906 1323.488281 182.203125 1320.621094 182.386719 C 1314.703125 182.574219 1308.789062 182.386719 1302.871094 182.480469 C 1300.558594 182.574219 1299.636719 182.015625 1299.726562 179.519531 C 1299.914062 173.234375 1299.914062 167.039062 1299.726562 160.75 C 1299.636719 158.53125 1300.28125 157.792969 1302.59375 157.882812 C 1314.058594 157.882812 1325.519531 157.882812 1336.984375 157.882812 Z M 1336.984375 157.882812 " fill-opacity="1" fill-rule="nonzero"/><path fill="#bed000" d="M 1438.585938 27.96875 C 1443.300781 28.984375 1448.015625 29.816406 1452.730469 30.925781 C 1454.671875 31.390625 1455.6875 31.113281 1456.613281 29.261719 C 1457.90625 26.671875 1459.476562 24.363281 1461.328125 21.21875 C 1462.25 24.269531 1463.269531 26.582031 1463.636719 28.984375 C 1464.191406 32.683594 1466.226562 34.253906 1469.738281 34.625 C 1472.144531 34.902344 1474.453125 35.550781 1477.503906 36.195312 C 1474.363281 38.230469 1471.867188 39.894531 1469.371094 41.375 C 1467.707031 42.390625 1467.152344 43.316406 1467.984375 45.257812 C 1469.183594 48.03125 1470.015625 50.898438 1471.21875 54.226562 C 1468.167969 52.933594 1466.226562 50.992188 1464.285156 49.144531 C 1462.066406 47.109375 1460.308594 46.738281 1457.8125 48.679688 C 1454.949219 50.898438 1451.710938 52.65625 1447.921875 55.058594 C 1449.214844 51.453125 1450.046875 48.496094 1451.25 45.8125 C 1452.359375 43.410156 1451.804688 41.835938 1449.957031 40.082031 C 1445.980469 36.289062 1442.191406 32.222656 1438.398438 28.246094 C 1438.308594 28.335938 1438.398438 28.152344 1438.585938 27.96875 Z M 1438.585938 27.96875 " fill-opacity="1" fill-rule="nonzero"/><path fill="#bed000" d="M 1363.425781 113.59375 C 1362.316406 112.761719 1361.296875 111.925781 1360.1875 111.003906 C 1354.363281 106.378906 1354.363281 106.378906 1348.078125 110.355469 C 1346.230469 111.558594 1344.378906 112.761719 1342.160156 114.148438 C 1342.625 110.632812 1343.917969 107.953125 1345.027344 105.269531 C 1345.765625 103.421875 1345.582031 102.125 1344.101562 100.738281 C 1340.21875 96.855469 1336.429688 92.785156 1331.898438 88.070312 C 1337.816406 89.273438 1342.808594 90.199219 1347.707031 91.398438 C 1349.464844 91.769531 1350.296875 91.398438 1350.945312 89.828125 C 1351.960938 87.425781 1353.164062 85.113281 1354.734375 81.785156 C 1355.84375 85.574219 1356.769531 88.347656 1357.414062 91.121094 C 1357.878906 92.878906 1358.617188 93.804688 1360.558594 94.082031 C 1363.425781 94.453125 1366.199219 95.285156 1369.25 95.929688 C 1368.046875 97.871094 1366.105469 98.519531 1364.535156 99.628906 C 1359.355469 103.234375 1359.820312 101.480469 1361.761719 107.398438 C 1362.40625 109.339844 1363.054688 111.28125 1363.792969 113.222656 C 1363.792969 113.40625 1363.609375 113.5 1363.425781 113.59375 Z M 1363.425781 113.59375 " fill-opacity="1" fill-rule="nonzero"/><path fill="#bed000" d="M 59.914062 58.945312 C 63.796875 60.515625 67.402344 62.179688 71.101562 63.476562 C 81.640625 67.265625 92.550781 68.746094 103.734375 68.097656 C 115.382812 67.449219 126.476562 64.585938 136.832031 59.222656 C 137.757812 58.757812 138.402344 58.851562 139.234375 59.222656 C 149.21875 64.121094 159.757812 66.988281 170.851562 67.820312 C 186.382812 69.023438 200.992188 65.972656 214.949219 59.128906 C 215.226562 58.945312 215.597656 58.851562 216.058594 58.574219 C 216.152344 59.128906 216.152344 59.5 216.152344 59.960938 C 216.152344 106.378906 216.246094 152.890625 216.058594 199.308594 C 215.96875 213.640625 205.613281 224.921875 192.300781 228.34375 C 187.863281 229.453125 183.425781 229.175781 178.988281 229.359375 C 168.078125 229.824219 157.539062 231.488281 147.464844 235.925781 C 144.597656 237.21875 141.730469 238.792969 138.957031 240.363281 C 138.21875 240.828125 137.664062 240.828125 136.925781 240.363281 C 127.496094 234.539062 117.324219 231.210938 106.324219 230.191406 C 100.871094 229.730469 95.414062 229.453125 89.960938 229.269531 C 75.261719 228.992188 62.320312 217.710938 60.191406 203.191406 C 60.007812 201.898438 59.914062 200.601562 59.914062 199.214844 C 59.914062 152.984375 59.914062 106.75 59.914062 60.421875 C 59.914062 60.144531 59.914062 59.589844 59.914062 58.945312 Z M 190.730469 90.105469 C 189.433594 90.566406 188.511719 90.9375 187.585938 91.214844 C 181.578125 93.15625 175.382812 93.433594 169.097656 93.0625 C 158.835938 92.417969 148.941406 90.566406 139.605469 86.3125 C 139.144531 86.128906 138.3125 85.945312 137.847656 86.222656 C 130.269531 89.644531 122.316406 91.492188 114.089844 92.507812 C 107.339844 93.339844 100.59375 93.617188 93.9375 92.324219 C 91.441406 91.863281 89.035156 91.03125 86.449219 90.289062 C 86.449219 90.84375 86.355469 91.308594 86.355469 91.863281 C 86.355469 122.839844 86.355469 153.90625 86.355469 184.882812 C 86.355469 192.835938 91.347656 200.140625 98.652344 203.191406 C 102.070312 204.578125 105.675781 204.765625 109.28125 204.765625 C 118.988281 204.855469 128.417969 206.519531 136.832031 211.699219 C 137.664062 212.253906 138.3125 211.976562 139.050781 211.605469 C 143.394531 209.019531 148.019531 207.261719 152.917969 206.152344 C 158.558594 204.949219 164.195312 204.855469 169.835938 204.671875 C 180.46875 204.300781 190.730469 195.886719 190.636719 183.40625 C 190.542969 152.984375 190.636719 122.5625 190.636719 92.046875 C 190.730469 91.585938 190.730469 91.03125 190.730469 90.105469 Z M 77.109375 154.554688 C 77.109375 154.371094 77.109375 154.277344 77.019531 154.09375 C 78.128906 153.628906 79.238281 153.261719 80.253906 152.613281 C 84.320312 150.207031 84.691406 145.585938 81.179688 142.8125 C 77.757812 140.128906 72.117188 140.128906 68.699219 142.8125 C 64.90625 145.769531 65.183594 150.300781 69.34375 152.707031 C 70.730469 153.539062 72.394531 153.90625 73.96875 154.460938 C 73.96875 154.554688 74.058594 154.648438 74.058594 154.738281 C 71.933594 154.925781 69.808594 155.109375 67.496094 155.292969 C 69.160156 158.992188 72.027344 157.234375 74.984375 157.234375 C 74.058594 159.640625 73.320312 161.765625 72.394531 164.355469 C 71.101562 161.765625 69.4375 160.289062 67.21875 159.640625 C 66.292969 159.363281 65.277344 159.640625 64.351562 159.640625 C 64.445312 160.65625 64.539062 161.582031 64.628906 162.597656 C 64.628906 162.785156 64.816406 162.96875 64.90625 163.152344 C 66.109375 165.1875 68.050781 166.207031 70.269531 166.574219 C 71.378906 166.761719 71.65625 167.222656 71.5625 168.332031 C 71.378906 169.71875 71.285156 171.199219 71.378906 172.585938 C 71.5625 174.433594 72.027344 176.191406 72.394531 178.320312 C 73.414062 177.578125 73.875 177.117188 74.523438 176.839844 C 75.722656 176.191406 75.816406 175.359375 75.261719 174.066406 C 73.96875 171.015625 74.058594 167.871094 75.167969 164.726562 C 76.09375 162.230469 76.925781 159.734375 77.941406 157.050781 C 82.84375 156.679688 83.582031 156.3125 83.398438 153.90625 C 81.269531 154.09375 79.144531 154.277344 77.109375 154.554688 Z M 187.863281 203.933594 C 186.9375 207.816406 190.359375 208.09375 192.761719 209.664062 C 190.820312 210.867188 189.25 211.976562 187.585938 212.808594 C 183.242188 215.027344 180.28125 218.542969 178.15625 222.796875 C 177.878906 223.351562 177.785156 223.996094 177.507812 224.828125 C 178.433594 224.828125 179.171875 224.738281 179.820312 224.828125 C 181.207031 225.015625 181.761719 224.460938 182.132812 223.074219 C 182.5 221.777344 183.242188 220.574219 183.796875 219.28125 C 188.878906 221.871094 192.761719 221.777344 194.796875 219.003906 C 192.949219 216.785156 190.359375 216.324219 187.308594 216.230469 C 189.988281 214.378906 192.394531 212.808594 194.890625 211.144531 C 198.773438 213.546875 200.160156 213.734375 201.175781 211.792969 C 199.511719 210.867188 197.847656 209.941406 196.277344 209.019531 C 198.125 208.925781 199.789062 209.203125 201.453125 209.109375 C 205.335938 208.832031 207.648438 205.503906 206.628906 201.804688 C 205.613281 198.105469 201.914062 195.054688 197.941406 194.777344 C 194.613281 194.5 192.117188 195.703125 191.007812 198.015625 C 189.804688 200.417969 190.542969 203.46875 192.761719 205.875 C 193.132812 206.242188 193.410156 206.613281 193.6875 206.890625 C 193.59375 206.984375 193.503906 207.167969 193.410156 207.261719 C 191.652344 206.242188 189.804688 205.132812 187.863281 203.933594 Z M 136.183594 222.703125 C 136 222.703125 135.816406 222.609375 135.628906 222.609375 C 135.628906 222.054688 135.628906 221.5 135.539062 221.039062 C 135.167969 218.265625 134.058594 215.953125 131.378906 214.75 C 129.160156 213.734375 127.125 214.289062 125.183594 215.582031 C 121.484375 218.265625 120.46875 223.71875 122.6875 227.605469 C 124.90625 231.488281 129.527344 232.226562 132.765625 228.992188 C 133.6875 228.066406 134.335938 226.863281 135.167969 225.753906 C 135.261719 225.753906 135.351562 225.753906 135.445312 225.847656 C 134.890625 227.695312 134.429688 229.546875 133.875 231.394531 C 135.628906 231.765625 137.203125 231.300781 137.292969 229.636719 C 137.480469 226.492188 139.421875 226.308594 141.730469 226.125 C 143.488281 226.03125 145.152344 225.382812 147.371094 224.921875 C 145.152344 226.769531 144.226562 228.898438 143.859375 231.210938 C 143.671875 232.226562 144.042969 232.503906 145.058594 232.320312 C 148.203125 231.671875 150.328125 229.824219 151.347656 226.769531 C 151.53125 226.214844 151.714844 225.660156 151.902344 224.738281 C 153.472656 225.382812 154.953125 226.03125 156.339844 226.585938 C 156.800781 226.769531 157.449219 226.957031 157.726562 226.769531 C 158.742188 226.125 159.574219 225.292969 160.867188 224.183594 C 158.925781 223.535156 157.355469 222.980469 155.785156 222.609375 C 151.347656 221.5 147 222.054688 142.65625 223.257812 C 141.363281 223.628906 140.066406 223.628906 138.589844 223.8125 C 139.699219 217.988281 139.605469 217.339844 137.386719 217.0625 C 137.015625 219.003906 136.648438 220.851562 136.183594 222.703125 Z M 73.414062 84.742188 C 70.085938 84.28125 66.203125 86.222656 65.460938 89.089844 C 63.984375 94.175781 67.589844 96.023438 71.472656 97.6875 C 71.378906 97.78125 71.378906 97.964844 71.285156 98.058594 C 69.34375 97.78125 67.496094 97.59375 65.554688 97.316406 C 65.277344 99.628906 66.109375 100 71.285156 100.460938 C 71.65625 101.847656 71.839844 103.234375 72.304688 104.53125 C 72.765625 105.917969 73.414062 107.210938 73.96875 108.785156 C 70.269531 106.933594 69.53125 106.65625 67.589844 106.75 C 66.015625 106.75 65.738281 107.210938 66.386719 108.691406 C 67.402344 111.003906 69.34375 112.203125 71.65625 112.851562 C 72.582031 113.128906 73.503906 113.222656 74.800781 113.40625 C 74.335938 114.980469 73.875 116.457031 73.503906 117.9375 C 73.414062 118.398438 73.320312 119.046875 73.597656 119.234375 C 74.335938 119.972656 75.261719 120.621094 76.1875 121.359375 C 77.386719 119.511719 77.941406 115.441406 77.574219 112.296875 C 77.296875 109.152344 76 106.472656 74.890625 103.605469 C 74.523438 102.679688 74.429688 101.664062 74.152344 100.554688 C 80.4375 100.832031 80.714844 100.738281 81.085938 98.519531 C 79.050781 98.335938 77.019531 98.242188 75.078125 98.058594 C 81.363281 95.46875 83.398438 93.25 82.566406 89.734375 C 81.917969 86.777344 78.21875 84.1875 75.078125 84.464844 C 75.167969 84.558594 75.261719 84.742188 75.355469 84.835938 C 77.757812 87.144531 78.21875 92.785156 76.277344 95.375 C 74.707031 97.410156 72.304688 97.226562 71.101562 95.007812 C 70.824219 94.453125 70.546875 93.898438 70.453125 93.339844 C 69.714844 90.199219 70.453125 87.144531 73.414062 84.742188 Z M 80.808594 208.648438 C 80.902344 208.742188 80.992188 208.742188 81.085938 208.832031 C 79.238281 209.851562 77.480469 210.867188 75.632812 211.882812 C 76.925781 213.824219 78.21875 213.640625 82.195312 211.050781 C 83.304688 211.976562 84.414062 212.902344 85.617188 213.734375 C 86.816406 214.566406 88.113281 215.304688 89.683594 216.136719 C 84.320312 216.96875 83.210938 217.433594 82.011719 219.375 C 85.617188 222.332031 89.3125 221.59375 93.195312 219.28125 C 93.84375 220.851562 94.304688 222.242188 94.953125 223.628906 C 95.136719 224.089844 95.414062 224.738281 95.785156 224.738281 C 96.988281 224.828125 98.097656 224.828125 99.484375 224.828125 C 98.558594 221.6875 96.894531 219.375 94.953125 217.0625 C 92.828125 214.660156 90.054688 213.269531 87.371094 211.699219 C 86.355469 211.144531 85.523438 210.3125 84.507812 209.480469 C 89.589844 206.613281 90.054688 205.964844 88.851562 203.839844 C 87.09375 204.855469 85.707031 206.519531 83.027344 206.796875 C 83.765625 205.964844 84.320312 205.410156 84.785156 204.855469 C 88.019531 200.878906 86.449219 195.703125 81.734375 194.683594 C 77.109375 193.667969 71.65625 196.90625 70.363281 201.433594 C 69.253906 205.226562 71.65625 208.742188 75.632812 208.925781 C 77.386719 209.203125 79.050781 208.832031 80.808594 208.648438 Z M 200.160156 154.554688 C 197.847656 154.371094 195.90625 154.09375 193.871094 153.90625 C 193.78125 155.570312 194.613281 156.589844 196.183594 156.867188 C 197.015625 156.957031 197.847656 156.773438 198.585938 156.957031 C 199.050781 157.050781 199.605469 157.515625 199.695312 157.976562 C 200.25 159.546875 200.527344 161.304688 201.269531 162.875 C 203.117188 166.761719 203.394531 170.644531 201.636719 174.621094 C 201.453125 174.988281 201.453125 175.636719 201.636719 175.820312 C 202.46875 176.5625 203.394531 177.210938 204.410156 178.042969 C 206.167969 174.25 205.890625 170.460938 205.519531 166.761719 C 206.351562 166.574219 207 166.484375 207.648438 166.296875 C 210.511719 165.652344 212.824219 163.152344 213.007812 160.65625 C 213.101562 159.640625 212.730469 159.179688 211.714844 159.179688 C 209.867188 159.269531 208.292969 159.824219 207 161.121094 C 206.167969 161.953125 205.519531 162.875 204.597656 163.988281 C 203.671875 161.675781 202.285156 159.734375 202.285156 157.144531 C 204.875 157.144531 207.738281 158.808594 209.402344 155.203125 C 207.09375 155.015625 204.964844 154.832031 202.933594 154.738281 C 204.503906 153.816406 206.167969 153.445312 207.554688 152.613281 C 211.4375 150.394531 211.808594 146.324219 208.664062 143.179688 C 205.058594 139.761719 198.585938 139.761719 195.074219 143.273438 C 192.671875 145.585938 192.578125 149.007812 195.074219 151.226562 C 196.367188 152.519531 198.125 153.351562 200.160156 154.554688 Z M 166.324219 77.808594 C 166.324219 76.789062 166.507812 75.496094 166.324219 74.292969 C 166.046875 72.8125 164.9375 72.167969 163.363281 72.351562 C 163.457031 73.367188 163.734375 74.292969 163.734375 75.3125 C 163.734375 76.234375 163.550781 77.253906 163.457031 78.175781 C 162.902344 77.34375 162.71875 76.605469 162.441406 75.867188 C 161.421875 73.367188 159.757812 71.613281 156.984375 71.335938 C 154.304688 71.058594 152.269531 72.257812 150.792969 74.476562 C 148.757812 77.34375 148.757812 82.0625 150.605469 85.019531 C 153.101562 88.8125 157.726562 89.273438 160.683594 85.851562 C 161.886719 84.464844 162.53125 82.707031 163.457031 80.859375 C 163.457031 82.984375 163.457031 85.019531 163.457031 87.054688 C 163.734375 87.054688 163.917969 87.148438 164.195312 87.148438 C 167.15625 85.945312 166.136719 83.171875 166.136719 80.488281 C 169.652344 81.875 172.886719 83.539062 176.308594 84.558594 C 179.820312 85.667969 183.609375 85.667969 187.402344 84.558594 C 186.847656 83.816406 186.382812 83.261719 186.105469 82.707031 C 185.460938 81.507812 184.71875 81.320312 183.332031 81.691406 C 181.945312 82.152344 180.558594 82.152344 179.082031 82.429688 C 178.25 76.328125 176.398438 73.644531 172.980469 73.644531 C 172.148438 76.328125 172.980469 78.824219 174.644531 81.414062 C 171.777344 80.027344 169.097656 78.917969 166.324219 77.808594 Z M 205.890625 98.148438 C 205.890625 97.964844 205.796875 97.871094 205.796875 97.6875 C 211.160156 94.914062 213.007812 92.230469 211.621094 88.902344 C 210.421875 86.035156 206.351562 83.910156 203.671875 84.835938 C 206.722656 87.332031 207.925781 91.953125 206.167969 95.097656 C 205.519531 96.207031 204.78125 97.132812 203.394531 97.132812 C 202.007812 97.132812 201.082031 96.394531 200.4375 95.285156 C 200.160156 94.820312 199.882812 94.265625 199.789062 93.710938 C 199.050781 90.382812 199.417969 87.332031 202.007812 84.742188 C 198.585938 84.558594 194.890625 87.144531 194.519531 90.289062 C 194.058594 95.5625 198.125 96.855469 202.191406 97.964844 C 202.191406 98.148438 202.191406 98.242188 202.101562 98.425781 C 200.066406 98.613281 198.03125 98.703125 195.722656 98.890625 C 197.476562 102.402344 200.25 100.925781 203.210938 100.832031 C 202.007812 104.4375 200.527344 107.675781 199.789062 111.003906 C 199.050781 114.515625 199.140625 118.121094 200.804688 121.730469 C 201.546875 121.175781 202.101562 120.710938 202.65625 120.34375 C 203.765625 119.695312 203.949219 118.953125 203.394531 117.660156 C 202.839844 116.367188 202.65625 114.980469 202.285156 113.683594 C 208.386719 112.390625 211.253906 110.171875 210.882812 107.121094 C 208.015625 106.566406 205.429688 107.398438 203.023438 109.246094 C 204.042969 106.195312 204.964844 103.421875 205.890625 100.648438 C 210.699219 100.554688 211.992188 99.8125 211.4375 97.503906 C 209.589844 97.59375 207.738281 97.871094 205.890625 98.148438 Z M 113.164062 81.042969 C 115.382812 86.589844 118.621094 88.996094 122.503906 87.703125 C 125.554688 86.683594 127.957031 82.800781 127.03125 80.210938 C 124.90625 82.707031 121.949219 83.171875 118.898438 83.078125 C 116.214844 82.984375 114.367188 81.785156 114.273438 80.027344 C 114.183594 78.269531 115.847656 76.605469 118.34375 76.144531 C 121.671875 75.496094 124.628906 76.234375 127.125 78.824219 C 127.496094 75.957031 125.367188 72.445312 122.410156 71.613281 C 116.863281 70.039062 114.828125 73.644531 113.164062 77.992188 C 113.164062 76.050781 113.164062 74.109375 113.164062 72.167969 C 110.761719 72.074219 110.300781 73.089844 110.300781 77.714844 C 107.527344 78.917969 104.753906 80.027344 101.703125 81.320312 C 103.550781 78.730469 104.476562 76.234375 103.367188 73.089844 C 102.257812 73.644531 101.238281 74.015625 100.5 74.664062 C 98.558594 76.234375 97.632812 78.363281 97.632812 80.765625 C 97.632812 81.785156 97.265625 82.339844 96.246094 82.152344 C 95.046875 81.96875 93.75 81.691406 92.550781 81.507812 C 92.179688 81.414062 91.53125 81.414062 91.347656 81.597656 C 90.609375 82.429688 89.960938 83.355469 89.3125 84.371094 C 89.683594 84.558594 89.867188 84.648438 89.960938 84.742188 C 90.332031 84.835938 90.609375 84.925781 90.976562 84.925781 C 95.96875 85.667969 100.777344 85.019531 105.308594 82.617188 C 106.878906 81.785156 108.636719 81.136719 110.578125 80.304688 C 110.578125 82.0625 110.484375 83.449219 110.578125 84.742188 C 110.761719 86.40625 111.777344 87.054688 113.257812 86.777344 C 113.164062 84.925781 113.164062 82.984375 113.164062 81.042969 Z M 69.992188 80.210938 C 69.992188 80.488281 69.898438 80.671875 69.898438 80.949219 C 71.839844 80.671875 72.582031 81.875 73.414062 83.171875 C 73.691406 83.539062 75.445312 83.632812 75.722656 83.261719 C 76.648438 81.875 77.757812 81.136719 79.515625 81.320312 C 79.515625 81.136719 79.515625 80.949219 79.605469 80.765625 C 78.496094 80.488281 77.386719 80.117188 76.1875 79.75 C 75.910156 79.101562 75.632812 78.269531 75.167969 76.976562 C 74.429688 78.175781 73.96875 79.007812 73.503906 79.65625 C 72.210938 79.839844 71.101562 80.027344 69.992188 80.210938 Z M 119.265625 215.859375 C 117.695312 216.507812 117.601562 217.710938 117.511719 218.910156 C 116.492188 219.097656 115.570312 219.28125 114.644531 219.464844 C 114.644531 219.558594 114.644531 219.742188 114.550781 219.835938 C 115.382812 220.390625 116.214844 220.945312 117.046875 221.5 C 116.679688 222.609375 116.03125 223.71875 117.234375 224.921875 C 117.695312 223.164062 118.621094 222.242188 120.285156 221.964844 C 121.117188 221.777344 121.484375 220.207031 120.839844 219.742188 C 119.636719 218.820312 118.710938 217.710938 119.265625 215.859375 Z M 200.621094 190.433594 C 200.527344 190.617188 200.4375 190.800781 200.25 190.988281 C 201.730469 191.820312 202.191406 192.929688 201.914062 194.5 C 201.730469 195.332031 203.210938 196.535156 203.855469 196.074219 C 205.335938 194.960938 206.722656 194.871094 208.292969 196.074219 C 208.386719 195.886719 208.480469 195.609375 208.570312 195.425781 C 207.738281 194.59375 206.90625 193.851562 205.984375 192.929688 C 206.074219 192.28125 206.261719 191.355469 206.445312 190.433594 C 206.351562 190.339844 206.167969 190.246094 206.074219 190.15625 C 205.242188 190.710938 204.503906 191.171875 203.855469 191.542969 C 202.65625 191.265625 201.636719 190.800781 200.621094 190.433594 Z M 68.328125 195.515625 C 68.421875 195.703125 68.605469 195.886719 68.699219 196.074219 C 69.992188 195.148438 71.195312 194.871094 72.582031 195.703125 C 72.949219 195.980469 73.78125 195.980469 74.152344 195.703125 C 74.523438 195.425781 74.613281 194.777344 74.890625 194.316406 C 75.261719 193.390625 75.632812 192.464844 76 191.542969 C 76.09375 191.265625 76.371094 191.078125 76.648438 190.800781 C 76.554688 190.617188 76.464844 190.523438 76.371094 190.339844 C 75.355469 190.800781 74.246094 191.171875 73.136719 191.632812 C 72.488281 191.265625 71.65625 190.710938 70.917969 190.246094 C 70.824219 190.339844 70.640625 190.433594 70.546875 190.617188 C 70.730469 191.542969 70.917969 192.375 71.007812 193.019531 C 69.898438 193.945312 69.066406 194.777344 68.328125 195.515625 Z M 198.21875 136.800781 C 198.21875 136.984375 198.21875 137.171875 198.125 137.355469 C 199.882812 137.261719 200.898438 138.003906 201.546875 139.574219 C 201.730469 139.945312 203.671875 140.039062 203.855469 139.761719 C 204.78125 138.28125 205.890625 137.539062 207.832031 137.726562 C 207.832031 137.539062 207.832031 137.261719 207.738281 137.078125 C 206.628906 136.800781 205.429688 136.523438 204.320312 136.339844 C 204.042969 135.597656 203.765625 134.859375 203.394531 133.75 C 202.933594 134.304688 202.5625 134.488281 202.46875 134.765625 C 202.101562 135.96875 201.453125 136.523438 200.066406 136.339844 C 199.511719 136.152344 198.863281 136.617188 198.21875 136.800781 Z M 144.875 83.910156 C 145.058594 83.910156 145.246094 83.910156 145.429688 83.910156 C 145.707031 82.339844 146.445312 81.136719 148.019531 80.582031 C 148.851562 80.304688 148.941406 78.730469 148.203125 78.453125 C 146.632812 77.808594 145.613281 76.789062 145.984375 74.757812 C 145.800781 74.757812 145.523438 74.847656 145.335938 74.847656 C 145.058594 75.957031 144.78125 77.066406 144.503906 78.269531 C 143.765625 78.546875 142.839844 78.917969 141.824219 79.195312 C 141.824219 79.378906 141.824219 79.472656 141.917969 79.65625 C 142.75 80.027344 143.671875 80.304688 144.320312 80.582031 C 144.503906 81.875 144.691406 82.894531 144.875 83.910156 Z M 200.898438 79.75 C 199.695312 80.117188 198.679688 80.394531 197.570312 80.671875 C 197.570312 80.859375 197.664062 81.042969 197.664062 81.136719 C 199.234375 81.136719 200.4375 81.785156 201.269531 83.171875 C 201.453125 83.539062 203.394531 83.449219 203.578125 83.171875 C 204.226562 81.597656 205.242188 80.765625 207.371094 80.859375 C 206.816406 80.394531 206.722656 80.117188 206.539062 80.117188 C 205.613281 79.933594 204.503906 80.210938 203.765625 79.75 C 203.023438 79.285156 202.65625 78.175781 201.914062 76.976562 C 201.453125 78.269531 201.175781 79.101562 200.898438 79.75 Z M 134.890625 79.75 C 134.890625 79.5625 134.890625 79.378906 134.890625 79.195312 C 133.964844 78.824219 133.042969 78.546875 132.023438 78.175781 C 132.117188 76.976562 132.117188 75.773438 130.914062 74.941406 C 131.101562 76.699219 130.359375 77.714844 128.789062 78.269531 C 128.050781 78.546875 127.957031 80.210938 128.605469 80.488281 C 130.175781 81.136719 131.101562 82.246094 131.191406 84.09375 C 131.378906 84.09375 131.5625 84.003906 131.839844 84.003906 C 132.023438 82.984375 132.210938 81.875 132.488281 80.671875 C 133.132812 80.394531 133.964844 80.117188 134.890625 79.75 Z M 69.160156 137.078125 C 69.160156 137.355469 69.160156 137.539062 69.160156 137.816406 C 70.917969 137.632812 72.027344 138.375 72.949219 139.761719 C 73.226562 140.128906 74.984375 140.039062 75.078125 139.761719 C 75.816406 138.1875 76.742188 137.261719 78.683594 137.355469 C 78.589844 137.171875 78.589844 136.984375 78.496094 136.707031 C 77.386719 136.523438 76.277344 136.339844 75.078125 136.152344 C 74.707031 135.507812 74.246094 134.675781 73.78125 133.933594 C 73.597656 133.933594 73.503906 133.933594 73.320312 134.027344 C 73.042969 134.859375 72.671875 135.785156 72.394531 136.429688 C 71.378906 136.523438 70.269531 136.800781 69.160156 137.078125 Z M 69.160156 137.078125 " fill-opacity="1" fill-rule="nonzero"/><path fill="#bed000" d="M 185.828125 283.175781 C 184.441406 283.175781 183.148438 283.175781 181.667969 283.175781 C 181.667969 277.90625 181.667969 272.636719 181.667969 267.363281 C 181.578125 267.363281 181.484375 267.363281 181.390625 267.363281 C 180.46875 271.0625 179.542969 274.667969 178.617188 278.367188 C 178.25 279.664062 177.972656 280.957031 177.695312 282.160156 C 177.507812 282.898438 177.230469 283.269531 176.398438 283.269531 C 172.980469 283.359375 173.070312 283.453125 172.148438 280.125 C 171.128906 276.054688 170.113281 271.988281 168.726562 267.917969 C 168.726562 273.003906 168.726562 277.996094 168.726562 283.175781 C 167.15625 283.175781 165.859375 283.175781 164.472656 283.175781 C 164.472656 275.777344 164.472656 268.472656 164.472656 260.890625 C 166.601562 260.890625 168.726562 260.890625 170.761719 260.984375 C 171.039062 260.984375 171.40625 261.722656 171.5 262.09375 C 172.609375 266.253906 173.71875 270.414062 174.828125 274.578125 C 174.921875 274.761719 174.921875 275.039062 175.289062 275.222656 C 175.9375 272.726562 176.675781 270.230469 177.324219 267.640625 C 177.878906 265.699219 178.339844 263.757812 178.894531 261.816406 C 178.988281 261.445312 179.542969 260.984375 179.820312 260.984375 C 181.761719 260.890625 183.796875 260.984375 185.828125 260.984375 C 185.828125 268.289062 185.828125 275.6875 185.828125 283.175781 Z M 185.828125 283.175781 " fill-opacity="1" fill-rule="nonzero"/><path fill="#bed000" d="M 68.789062 319.144531 C 68.789062 311.75 68.789062 304.628906 68.789062 297.324219 C 72.949219 297.324219 76.925781 297.230469 80.992188 297.417969 C 83.488281 297.507812 85.339844 298.988281 85.894531 301.484375 C 86.539062 303.980469 85.523438 306.015625 83.398438 307.496094 C 86.816406 309.4375 87.835938 311.65625 86.910156 314.707031 C 86.171875 317.203125 84.230469 319.054688 81.457031 319.144531 C 77.386719 319.238281 73.136719 319.144531 68.789062 319.144531 Z M 73.414062 315.261719 C 75.539062 315.261719 77.574219 315.261719 79.699219 315.261719 C 81.546875 315.167969 82.472656 314.335938 82.566406 312.765625 C 82.65625 311.101562 81.824219 309.898438 79.976562 309.804688 C 77.851562 309.621094 75.632812 309.804688 73.414062 309.804688 C 73.414062 311.65625 73.414062 313.414062 73.414062 315.261719 Z M 73.414062 305.738281 C 75.445312 305.738281 77.386719 305.832031 79.328125 305.738281 C 80.808594 305.644531 81.640625 304.722656 81.734375 303.425781 C 81.824219 301.945312 81.179688 301.207031 79.605469 301.023438 C 77.574219 300.929688 75.539062 301.023438 73.503906 301.023438 C 73.414062 302.59375 73.414062 304.167969 73.414062 305.738281 Z M 73.414062 305.738281 " fill-opacity="1" fill-rule="nonzero"/><path fill="#bed000" d="M 262.5625 273.46875 C 266.074219 276.054688 267.460938 279.847656 269.957031 283.269531 C 268.015625 283.269531 266.445312 283.359375 264.871094 283.269531 C 264.410156 283.269531 263.949219 282.714844 263.671875 282.34375 C 262.285156 280.308594 260.804688 278.277344 259.511719 276.148438 C 258.308594 274.207031 256.550781 273.746094 254.242188 274.207031 C 254.242188 277.164062 254.242188 280.125 254.242188 283.175781 C 252.667969 283.175781 251.191406 283.175781 249.710938 283.175781 C 249.710938 275.777344 249.710938 268.382812 249.710938 260.890625 C 253.132812 260.890625 256.460938 260.890625 259.789062 260.890625 C 260.988281 260.890625 262.097656 260.984375 263.300781 261.167969 C 266.257812 261.722656 267.921875 263.664062 268.015625 266.625 C 268.199219 269.769531 266.8125 272.082031 263.949219 273.003906 C 263.484375 273.191406 263.117188 273.28125 262.5625 273.46875 Z M 254.332031 270.414062 C 256.828125 270.324219 259.140625 270.324219 261.453125 270.046875 C 262.746094 269.859375 263.207031 268.75 263.300781 267.550781 C 263.300781 266.253906 262.746094 265.050781 261.453125 264.960938 C 259.140625 264.773438 256.828125 264.867188 254.425781 264.867188 C 254.332031 266.71875 254.332031 268.382812 254.332031 270.414062 Z M 254.332031 270.414062 " fill-opacity="1" fill-rule="nonzero"/><path fill="#bed000" d="M 108.542969 283.082031 C 108.542969 275.6875 108.542969 268.382812 108.542969 260.890625 C 111.964844 260.890625 115.382812 260.890625 118.710938 260.890625 C 121.207031 260.890625 123.242188 261.910156 124.8125 263.757812 C 124.90625 263.941406 125.089844 264.035156 125.183594 264.21875 C 127.957031 268.195312 127.957031 275.777344 125.183594 279.664062 C 123.796875 281.605469 121.949219 282.804688 119.730469 282.898438 C 116.03125 283.269531 112.332031 283.082031 108.542969 283.082031 Z M 113.257812 279.292969 C 114.921875 279.292969 116.492188 279.386719 118.066406 279.292969 C 120.285156 279.199219 121.761719 278.183594 122.039062 276.054688 C 122.316406 273.558594 122.316406 270.878906 122.039062 268.382812 C 121.855469 266.53125 120.46875 265.238281 118.621094 265.050781 C 116.863281 264.867188 115.105469 265.050781 113.257812 265.050781 C 113.257812 269.675781 113.257812 274.390625 113.257812 279.292969 Z M 113.257812 279.292969 " fill-opacity="1" fill-rule="nonzero"/><path fill="#bed000" d="M 247.492188 271.988281 C 247.492188 277.535156 245.273438 281.511719 240.929688 282.898438 C 233.53125 285.210938 225.859375 281.882812 225.859375 272.449219 C 225.859375 269.121094 226.414062 266.070312 228.726562 263.574219 C 231.5 260.523438 236.582031 259.503906 241.019531 261.167969 C 245.089844 262.742188 247.03125 265.976562 247.492188 270.136719 C 247.492188 270.785156 247.492188 271.433594 247.492188 271.988281 Z M 230.480469 271.988281 L 230.574219 271.988281 C 230.574219 272.449219 230.574219 273.003906 230.574219 273.46875 C 230.851562 276.796875 233.070312 279.292969 235.9375 279.476562 C 239.265625 279.753906 241.761719 277.996094 242.316406 274.761719 C 242.683594 272.820312 242.59375 270.785156 242.316406 268.9375 C 241.761719 265.976562 239.632812 264.40625 236.675781 264.40625 C 233.71875 264.40625 231.589844 265.976562 230.851562 268.9375 C 230.667969 269.953125 230.667969 270.96875 230.480469 271.988281 Z M 230.480469 271.988281 " fill-opacity="1" fill-rule="nonzero"/><path fill="#bed000" d="M 131.5625 303.332031 C 130.082031 303.609375 128.695312 303.890625 127.21875 304.167969 C 126.386719 302.410156 125.277344 301.023438 123.148438 300.746094 C 119.082031 300.375 116.402344 302.5 116.03125 306.664062 C 115.9375 307.863281 116.03125 309.160156 116.214844 310.453125 C 117.234375 316.371094 123.242188 316.648438 126.664062 314.058594 C 127.21875 313.597656 127.125 312.304688 127.402344 311.195312 C 125.460938 311.195312 123.890625 311.195312 122.226562 311.195312 C 122.226562 309.898438 122.226562 308.605469 122.226562 307.308594 C 122.503906 307.308594 122.78125 307.21875 122.964844 307.21875 C 125.832031 307.21875 128.605469 307.21875 131.65625 307.21875 C 131.65625 310.085938 131.65625 312.949219 131.65625 315.722656 C 131.65625 316.003906 131.378906 316.371094 131.101562 316.558594 C 127.496094 319.699219 120.5625 320.347656 116.402344 318.128906 C 112.242188 315.816406 110.945312 311.472656 111.039062 307.402344 C 111.132812 304.074219 112.242188 301.023438 115.015625 298.894531 C 118.25 296.398438 124.167969 295.9375 127.679688 297.972656 C 129.898438 299.171875 131.007812 300.929688 131.5625 303.332031 Z M 131.5625 303.332031 " fill-opacity="1" fill-rule="nonzero"/><path fill="#bed000" d="M 133.320312 308.234375 C 133.875 306.109375 134.058594 304.167969 134.796875 302.410156 C 136.648438 298.0625 140.898438 296.214844 146.355469 296.859375 C 150.699219 297.417969 154.121094 300.652344 154.675781 305.183594 C 154.953125 307.125 154.953125 309.160156 154.675781 311.101562 C 154.027344 316 150.421875 319.144531 145.523438 319.515625 C 140.992188 319.886719 137.109375 318.683594 134.984375 314.429688 C 134.058594 312.488281 133.875 310.269531 133.320312 308.234375 Z M 150.328125 308.234375 L 150.238281 308.234375 C 150.238281 307.496094 150.238281 306.847656 150.144531 306.109375 C 149.773438 303.054688 147.742188 301.023438 144.96875 300.835938 C 141.640625 300.652344 139.234375 302.132812 138.679688 305.277344 C 138.3125 307.308594 138.402344 309.527344 138.867188 311.5625 C 139.421875 314.246094 141.640625 315.722656 144.320312 315.632812 C 147 315.632812 149.035156 314.152344 149.773438 311.5625 C 150.144531 310.453125 150.144531 309.34375 150.328125 308.234375 Z M 150.328125 308.234375 " fill-opacity="1" fill-rule="nonzero"/><path fill="#bed000" d="M 109.929688 308.328125 C 109.929688 313.96875 107.25 317.945312 102.625 319.144531 C 94.027344 321.457031 87.28125 315.261719 88.667969 306.386719 C 89.5 301.023438 92.457031 297.695312 96.988281 296.953125 C 104.753906 295.84375 110.023438 300.375 109.929688 308.328125 Z M 93.289062 307.679688 C 93.382812 308.695312 93.382812 309.34375 93.382812 309.992188 C 93.75 313.042969 95.878906 315.355469 98.464844 315.632812 C 101.703125 315.910156 104.105469 314.429688 104.753906 311.378906 C 105.121094 309.34375 105.121094 307.03125 104.753906 304.90625 C 104.199219 302.039062 101.980469 300.746094 99.019531 300.835938 C 96.339844 300.929688 94.304688 302.5 93.660156 305.183594 C 93.472656 306.109375 93.382812 307.125 93.289062 307.679688 Z M 93.289062 307.679688 " fill-opacity="1" fill-rule="nonzero"/><path fill="#bed000" d="M 202.46875 319.144531 C 202.46875 311.839844 202.46875 304.628906 202.46875 297.417969 C 202.746094 297.324219 202.933594 297.230469 203.210938 297.230469 C 206.351562 297.230469 209.402344 297.136719 212.546875 297.230469 C 215.96875 297.324219 218.464844 298.894531 219.851562 302.132812 C 221.515625 306.109375 221.515625 310.175781 219.941406 314.152344 C 218.742188 317.113281 216.429688 318.867188 213.378906 319.054688 C 209.679688 319.332031 206.074219 319.144531 202.46875 319.144531 Z M 207 315.261719 C 208.757812 315.261719 210.421875 315.355469 211.992188 315.261719 C 213.933594 315.167969 215.136719 314.335938 215.691406 312.394531 C 216.429688 309.804688 216.429688 307.125 215.78125 304.445312 C 215.414062 302.964844 214.488281 301.667969 212.917969 301.390625 C 210.976562 301.113281 209.035156 301.113281 207 301.023438 C 207 305.921875 207 310.453125 207 315.261719 Z M 207 315.261719 " fill-opacity="1" fill-rule="nonzero"/><path fill="#bed000" d="M 21.550781 319.054688 C 21.550781 311.75 21.550781 304.535156 21.550781 297.324219 C 21.828125 297.230469 22.105469 297.136719 22.382812 297.136719 C 25.339844 297.136719 28.390625 297.046875 31.347656 297.136719 C 35.140625 297.230469 37.726562 299.082031 39.023438 302.59375 C 40.316406 306.199219 40.410156 309.992188 39.023438 313.597656 C 37.914062 316.742188 35.507812 318.683594 32.273438 318.960938 C 28.851562 319.332031 25.25 319.054688 21.550781 319.054688 Z M 26.171875 315.261719 C 27.835938 315.261719 29.40625 315.355469 30.980469 315.261719 C 33.105469 315.167969 34.492188 314.335938 34.769531 312.210938 C 35.140625 309.714844 35.140625 307.21875 34.863281 304.722656 C 34.675781 302.777344 33.382812 301.484375 31.347656 301.207031 C 29.683594 301.023438 27.929688 301.207031 26.082031 301.207031 C 26.171875 305.832031 26.171875 310.453125 26.171875 315.261719 Z M 26.171875 315.261719 " fill-opacity="1" fill-rule="nonzero"/><path fill="#bed000" d="M 57.789062 305.738281 C 57.882812 306.109375 57.972656 306.199219 57.972656 306.292969 C 58.160156 309.621094 58.160156 309.621094 54.832031 309.621094 C 52.335938 309.621094 49.746094 309.621094 47.15625 309.621094 C 47.15625 311.472656 47.15625 313.226562 47.15625 315.167969 C 51.132812 315.167969 55.109375 315.167969 59.175781 315.167969 C 59.175781 316.554688 59.175781 317.757812 59.175781 319.054688 C 53.722656 319.054688 48.175781 319.054688 42.628906 319.054688 C 42.628906 311.839844 42.628906 304.628906 42.628906 297.324219 C 47.988281 297.324219 53.257812 297.324219 58.714844 297.324219 C 58.714844 298.527344 58.714844 299.726562 58.714844 301.023438 C 54.921875 301.023438 51.132812 301.023438 47.25 301.023438 C 47.25 302.6875 47.25 304.167969 47.25 305.738281 C 50.671875 305.738281 54.183594 305.738281 57.789062 305.738281 Z M 57.789062 305.738281 " fill-opacity="1" fill-rule="nonzero"/><path fill="#bed000" d="M 186.660156 283.269531 C 187.769531 280.496094 188.789062 277.90625 189.710938 275.316406 C 191.375 270.96875 193.132812 266.53125 194.796875 262.1875 C 195.167969 261.261719 195.535156 260.800781 196.644531 260.890625 C 200.25 260.890625 200.25 260.890625 201.546875 264.128906 C 203.855469 269.953125 206.261719 275.871094 208.570312 281.695312 C 208.757812 282.160156 208.847656 282.527344 209.125 283.269531 C 207.460938 283.269531 205.984375 283.359375 204.503906 283.269531 C 204.226562 283.269531 203.949219 282.714844 203.765625 282.25 C 203.210938 280.957031 203.023438 279.109375 202.007812 278.554688 C 200.898438 277.90625 199.140625 278.277344 197.664062 278.277344 C 196.277344 278.277344 194.519531 277.90625 193.503906 278.554688 C 192.578125 279.199219 192.300781 280.957031 191.929688 282.25 C 191.652344 283.175781 191.191406 283.453125 190.265625 283.359375 C 189.15625 283.175781 188.046875 283.269531 186.660156 283.269531 Z M 194.796875 274.300781 C 196.921875 274.300781 198.679688 274.300781 200.714844 274.300781 C 199.789062 271.710938 198.863281 269.214844 197.753906 266.347656 C 196.738281 269.214844 195.8125 271.617188 194.796875 274.300781 Z M 194.796875 274.300781 " fill-opacity="1" fill-rule="nonzero"/><path fill="#bed000" d="M 157.171875 283.269531 C 155.597656 283.269531 154.304688 283.359375 152.917969 283.269531 C 152.546875 283.269531 152.269531 282.804688 151.902344 282.621094 C 151.808594 282.527344 151.808594 282.4375 151.808594 282.34375 C 151.253906 281.050781 151.070312 279.199219 150.144531 278.554688 C 149.035156 277.90625 147.1875 278.277344 145.707031 278.277344 C 144.320312 278.277344 142.65625 277.90625 141.730469 278.460938 C 140.808594 279.109375 140.53125 280.773438 140.160156 282.066406 C 139.882812 282.898438 139.511719 283.359375 138.589844 283.269531 C 137.480469 283.175781 136.277344 283.269531 134.796875 283.269531 C 135.351562 281.882812 135.722656 280.773438 136.183594 279.664062 C 138.496094 273.835938 140.714844 267.917969 142.933594 262.09375 C 143.304688 261.167969 143.671875 260.890625 144.691406 260.890625 C 148.296875 260.890625 148.296875 260.890625 149.683594 264.3125 C 151.992188 270.136719 154.304688 275.964844 156.707031 281.789062 C 156.800781 282.160156 156.984375 282.621094 157.171875 283.269531 Z M 142.933594 274.207031 C 144.96875 274.207031 146.722656 274.207031 148.757812 274.207031 C 147.742188 271.617188 146.816406 269.121094 145.800781 266.347656 C 144.691406 269.304688 143.859375 271.710938 142.933594 274.207031 Z M 142.933594 274.207031 " fill-opacity="1" fill-rule="nonzero"/><path fill="#bed000" d="M 67.402344 282.992188 C 68.050781 281.328125 68.699219 279.664062 69.34375 278.089844 C 71.378906 272.726562 73.503906 267.457031 75.539062 262.09375 C 75.910156 261.167969 76.371094 260.800781 77.386719 260.800781 C 80.902344 260.800781 80.902344 260.800781 82.289062 264.128906 C 84.597656 269.953125 87.003906 275.777344 89.3125 281.605469 C 89.5 282.066406 89.683594 282.527344 89.960938 283.269531 C 88.390625 283.269531 87.003906 283.269531 85.617188 283.269531 C 85.339844 283.269531 84.96875 282.898438 84.691406 282.621094 C 84.507812 282.4375 84.507812 282.160156 84.414062 281.972656 C 82.933594 278.277344 82.933594 278.277344 78.960938 278.277344 C 77.664062 278.277344 76.371094 278.183594 75.167969 278.277344 C 74.707031 278.277344 74.246094 278.832031 73.875 279.199219 C 73.691406 279.386719 73.691406 279.753906 73.503906 280.03125 C 72.117188 283.636719 71.5625 283.824219 67.402344 282.992188 Z M 78.40625 266.347656 C 77.386719 269.214844 76.464844 271.710938 75.539062 274.207031 C 77.574219 274.207031 79.328125 274.207031 81.363281 274.207031 C 80.347656 271.617188 79.515625 269.214844 78.40625 266.347656 Z M 78.40625 266.347656 " fill-opacity="1" fill-rule="nonzero"/><path fill="#bed000" d="M 29.777344 283.269531 C 28.207031 283.269531 26.820312 283.359375 25.433594 283.269531 C 25.0625 283.269531 24.601562 282.804688 24.414062 282.4375 C 23.953125 281.417969 23.492188 280.402344 23.214844 279.292969 C 22.9375 278.460938 22.476562 278.277344 21.644531 278.277344 C 19.425781 278.367188 17.296875 278.367188 15.078125 278.277344 C 14.246094 278.277344 13.691406 278.554688 13.507812 279.386719 C 13.414062 279.664062 13.324219 279.847656 13.230469 280.125 C 11.84375 283.730469 11.382812 284.007812 7.222656 283.175781 C 7.960938 281.234375 8.699219 279.386719 9.441406 277.535156 C 11.382812 272.449219 13.414062 267.363281 15.355469 262.1875 C 15.726562 261.167969 16.1875 260.890625 17.207031 260.890625 C 20.71875 260.890625 20.71875 260.890625 22.011719 264.128906 C 24.324219 269.953125 26.726562 275.777344 29.039062 281.605469 C 29.316406 281.972656 29.5 282.527344 29.777344 283.269531 Z M 18.40625 266.347656 C 17.390625 269.304688 16.464844 271.710938 15.542969 274.207031 C 17.574219 274.207031 19.332031 274.207031 21.367188 274.207031 C 20.347656 271.617188 19.425781 269.214844 18.40625 266.347656 Z M 18.40625 266.347656 " fill-opacity="1" fill-rule="nonzero"/><path fill="#bed000" d="M 194.242188 319.054688 C 193.964844 319.144531 193.871094 319.144531 193.78125 319.144531 C 192.394531 319.144531 190.636719 319.609375 189.621094 318.960938 C 188.695312 318.40625 188.417969 316.648438 187.957031 315.355469 C 187.679688 314.613281 187.308594 314.246094 186.476562 314.246094 C 184.257812 314.335938 182.132812 314.335938 179.914062 314.246094 C 179.171875 314.246094 178.617188 314.429688 178.527344 315.261719 C 178.527344 315.355469 178.527344 315.355469 178.433594 315.445312 C 176.863281 319.515625 176.863281 319.515625 172.238281 319.144531 C 175.105469 311.839844 177.878906 304.628906 180.652344 297.414062 C 180.835938 297.414062 180.929688 297.324219 181.023438 297.324219 C 185.367188 297.136719 185.367188 297.136719 187.03125 301.113281 C 189.25 306.664062 191.46875 312.304688 193.78125 317.945312 C 193.964844 318.222656 194.058594 318.589844 194.242188 319.054688 Z M 185.921875 310.269531 C 184.996094 307.773438 184.074219 305.367188 183.054688 302.59375 C 182.039062 305.460938 181.207031 307.773438 180.28125 310.269531 C 182.222656 310.269531 183.980469 310.269531 185.921875 310.269531 Z M 185.921875 310.269531 " fill-opacity="1" fill-rule="nonzero"/><path fill="#bed000" d="M 67.125 266.902344 C 66.847656 267.085938 66.757812 267.179688 66.664062 267.273438 C 65.371094 267.550781 63.984375 267.917969 62.6875 268.195312 C 61.949219 266.070312 60.65625 264.589844 58.34375 264.496094 C 55.386719 264.3125 53.167969 266.070312 52.703125 269.304688 C 52.425781 271.339844 52.519531 273.46875 52.890625 275.5 C 53.351562 278.089844 55.109375 279.476562 57.511719 279.570312 C 60.007812 279.664062 61.488281 278.554688 62.410156 275.964844 C 62.503906 275.59375 62.6875 275.316406 62.78125 274.855469 C 64.261719 275.316406 65.738281 275.777344 67.125 276.242188 C 65.925781 281.140625 62.875 283.546875 57.882812 283.546875 C 52.890625 283.546875 49.097656 280.679688 48.082031 275.964844 C 47.34375 272.359375 47.34375 268.75 49.191406 265.421875 C 52.613281 259.226562 62.597656 258.671875 66.015625 264.496094 C 66.480469 265.238281 66.757812 266.070312 67.125 266.902344 Z M 67.125 266.902344 " fill-opacity="1" fill-rule="nonzero"/><path fill="#bed000" d="M 244.625 311.007812 C 246.105469 311.472656 247.492188 311.933594 248.785156 312.394531 C 247.769531 317.113281 244.625 319.515625 239.820312 319.609375 C 235.011719 319.609375 231.128906 316.835938 230.113281 312.304688 C 229.371094 309.160156 229.371094 305.921875 230.667969 302.871094 C 232.976562 297.136719 240.558594 295.011719 245.644531 298.527344 C 247.308594 299.636719 248.324219 301.300781 248.785156 303.425781 C 247.308594 303.796875 245.921875 304.167969 244.441406 304.445312 C 243.703125 302.410156 242.59375 301.023438 240.375 300.835938 C 237.414062 300.558594 235.195312 302.039062 234.734375 305 C 234.457031 307.21875 234.457031 309.527344 234.828125 311.75 C 235.195312 314.246094 237.046875 315.539062 239.171875 315.632812 C 241.667969 315.722656 243.054688 314.800781 244.070312 312.210938 C 244.257812 311.839844 244.347656 311.472656 244.625 311.007812 Z M 244.625 311.007812 " fill-opacity="1" fill-rule="nonzero"/><path fill="#bed000" d="M 215.503906 269.582031 C 217.078125 266.902344 218.554688 264.496094 219.941406 261.910156 C 220.40625 261.078125 220.960938 260.707031 221.882812 260.800781 C 223.085938 260.890625 224.378906 260.800781 225.953125 260.800781 C 224.75 262.742188 223.734375 264.40625 222.714844 266.070312 C 222.347656 266.71875 221.976562 267.457031 221.515625 268.011719 C 218.371094 271.710938 217.167969 275.964844 217.816406 280.863281 C 217.910156 281.605469 217.816406 282.34375 217.816406 283.175781 C 216.152344 283.175781 214.765625 283.175781 213.101562 283.175781 C 213.101562 280.496094 213.195312 278 213.101562 275.410156 C 213.007812 274.390625 212.730469 273.28125 212.269531 272.449219 C 210.234375 269.027344 208.109375 265.699219 205.984375 262.371094 C 205.707031 262 205.519531 261.539062 205.058594 260.890625 C 206.816406 260.890625 208.386719 260.800781 209.957031 260.984375 C 210.328125 260.984375 210.789062 261.539062 211.066406 262 C 212.453125 264.40625 213.933594 266.902344 215.503906 269.582031 Z M 215.503906 269.582031 " fill-opacity="1" fill-rule="nonzero"/><path fill="#bed000" d="M 162.070312 301.113281 C 160.128906 301.113281 158.464844 301.113281 156.707031 301.113281 C 155.785156 301.113281 155.320312 300.835938 155.414062 299.820312 C 155.507812 298.988281 155.414062 298.25 155.414062 297.324219 C 161.332031 297.324219 167.0625 297.324219 172.886719 297.324219 C 172.886719 298.527344 172.886719 299.726562 172.886719 301.113281 C 170.851562 301.113281 168.820312 301.113281 166.601562 301.113281 C 166.601562 307.21875 166.601562 313.136719 166.601562 319.144531 C 165.027344 319.144531 163.640625 319.144531 162.070312 319.144531 C 162.070312 313.136719 162.070312 307.21875 162.070312 301.113281 Z M 162.070312 301.113281 " fill-opacity="1" fill-rule="nonzero"/><path fill="#bed000" d="M 35.417969 261.078125 C 35.417969 267.085938 35.417969 273.097656 35.417969 279.292969 C 38.191406 279.292969 40.777344 279.292969 43.367188 279.292969 C 46.878906 279.292969 46.878906 279.292969 46.511719 282.898438 C 46.511719 282.898438 46.417969 282.992188 46.324219 283.175781 C 41.242188 283.175781 36.15625 283.175781 30.886719 283.175781 C 30.886719 275.871094 30.886719 268.566406 30.886719 261.167969 C 32.457031 261.078125 33.84375 261.078125 35.417969 261.078125 Z M 35.417969 261.078125 " fill-opacity="1" fill-rule="nonzero"/><path fill="#bed000" d="M 106.601562 283.175781 C 101.425781 283.175781 96.246094 283.175781 90.976562 283.175781 C 90.976562 275.777344 90.976562 268.472656 90.976562 261.078125 C 92.457031 261.078125 93.9375 261.078125 95.507812 261.078125 C 95.507812 267.085938 95.507812 273.097656 95.507812 279.292969 C 97.632812 279.292969 99.667969 279.292969 101.703125 279.292969 C 102.347656 279.292969 102.902344 279.292969 103.550781 279.292969 C 107.0625 279.292969 107.0625 279.292969 106.601562 283.175781 Z M 106.601562 283.175781 " fill-opacity="1" fill-rule="nonzero"/><path fill="#bed000" d="M 134.152344 283.175781 C 132.578125 283.175781 131.191406 283.175781 129.621094 283.175781 C 129.621094 275.777344 129.621094 268.382812 129.621094 260.890625 C 131.101562 260.890625 132.578125 260.890625 134.152344 260.890625 C 134.152344 268.382812 134.152344 275.6875 134.152344 283.175781 Z M 134.152344 283.175781 " fill-opacity="1" fill-rule="nonzero"/><path fill="#bed000" d="M 223.269531 314.984375 C 224.84375 314.984375 226.042969 314.984375 227.429688 314.984375 C 227.429688 316.371094 227.429688 317.667969 227.429688 319.144531 C 226.042969 319.144531 224.75 319.144531 223.269531 319.144531 C 223.269531 317.757812 223.269531 316.371094 223.269531 314.984375 Z M 223.269531 314.984375 " fill-opacity="1" fill-rule="nonzero"/><path fill="#bed000" d="M 255.535156 319.144531 C 254.054688 319.144531 252.667969 319.144531 251.191406 319.144531 C 251.191406 317.945312 251.191406 316.925781 251.191406 315.816406 C 251.191406 315.539062 251.46875 315.078125 251.652344 315.078125 C 252.761719 314.984375 253.871094 314.984375 254.980469 315.078125 C 255.164062 315.078125 255.441406 315.539062 255.535156 315.816406 C 255.628906 316.925781 255.535156 317.945312 255.535156 319.144531 Z M 255.535156 319.144531 " fill-opacity="1" fill-rule="nonzero"/><path fill="#bed000" d="M 137.757812 254.234375 C 136.277344 255.898438 135.167969 257.378906 133.78125 258.488281 C 133.132812 259.042969 131.839844 258.949219 130.546875 259.226562 C 131.378906 257.46875 131.933594 256.082031 132.578125 254.882812 C 132.765625 254.605469 133.132812 254.328125 133.503906 254.328125 C 134.707031 254.234375 136 254.234375 137.757812 254.234375 Z M 137.757812 254.234375 " fill-opacity="1" fill-rule="nonzero"/><path fill="#bed000" d="M 188.417969 290.757812 C 187.03125 292.332031 186.015625 293.71875 184.71875 294.734375 C 183.980469 295.289062 182.777344 295.382812 181.761719 295.660156 C 181.667969 295.566406 181.578125 295.382812 181.484375 295.289062 C 182.039062 293.996094 182.6875 292.699219 183.332031 291.40625 C 183.425781 291.128906 183.886719 290.941406 184.164062 290.851562 C 185.367188 290.664062 186.753906 290.757812 188.417969 290.757812 Z M 188.417969 290.757812 " fill-opacity="1" fill-rule="nonzero"/><path fill="#bed000" d="M 180.929688 136.800781 C 174.734375 141.792969 168.078125 143.734375 160.222656 142.347656 C 164.105469 146.234375 168.171875 148.636719 173.625 148.453125 C 170.667969 150.855469 167.433594 151.964844 163.734375 152.152344 C 160.128906 152.335938 156.707031 151.410156 153.101562 149.5625 C 155.136719 153.351562 157.632812 156.125 161.515625 157.699219 C 158.28125 159.546875 155.042969 160.011719 151.808594 158.902344 C 149.960938 158.253906 148.296875 157.144531 146.539062 156.3125 C 146.261719 156.125 145.984375 155.664062 145.707031 155.664062 C 144.96875 155.664062 144.320312 155.847656 143.582031 156.035156 C 143.765625 156.589844 143.671875 157.421875 144.042969 157.699219 C 145.335938 158.714844 146.722656 159.546875 148.109375 160.378906 C 150.050781 161.488281 152.085938 162.507812 153.933594 163.707031 C 155.597656 164.820312 157.078125 166.296875 157.816406 168.425781 C 156.800781 168.703125 155.875 168.886719 154.765625 169.164062 C 157.539062 172.125 160.3125 174.898438 162.996094 177.671875 C 163.179688 177.855469 163.457031 178.042969 163.640625 177.949219 C 164.75 177.765625 165.769531 177.488281 167.0625 177.210938 C 164.9375 175.820312 162.253906 174.804688 163.640625 171.476562 C 165.675781 172.769531 167.523438 174.066406 169.742188 175.453125 C 168.449219 173.417969 167.15625 171.847656 166.414062 170.089844 C 165.582031 168.148438 165.859375 166.113281 167.0625 164.265625 C 169.097656 161.304688 172.792969 160.65625 178.0625 162.414062 C 179.171875 160.289062 177.878906 158.902344 176.308594 157.605469 C 176.492188 157.421875 176.585938 157.234375 176.769531 157.144531 C 177.972656 157.605469 179.171875 158.070312 180.558594 158.625 C 181.207031 158.160156 182.132812 157.511719 183.054688 156.867188 C 183.242188 156.957031 183.332031 157.050781 183.519531 157.144531 C 183.425781 158.160156 183.242188 159.269531 183.054688 160.378906 C 184.351562 160.933594 185.460938 161.675781 185.644531 163.707031 C 183.609375 161.953125 181.945312 162.414062 180.375 163.894531 C 183.425781 166.761719 185.460938 170.179688 183.148438 174.433594 C 181.578125 177.394531 178.25 178.042969 172.980469 177.117188 C 173.8125 177.671875 174.550781 178.226562 175.476562 178.6875 C 176.398438 179.152344 177.417969 179.519531 178.527344 179.890625 C 178.15625 181.183594 177.140625 181.832031 176.03125 181.648438 C 175.011719 181.554688 173.902344 181.183594 172.886719 180.628906 C 171.960938 180.167969 171.222656 179.335938 170.296875 178.597656 C 170.207031 179.058594 170.113281 179.242188 170.207031 179.335938 C 171.871094 181.09375 171.039062 182.847656 170.390625 184.699219 C 170.296875 184.976562 170.113281 185.347656 169.835938 185.4375 C 168.171875 186.085938 166.601562 186.917969 164.84375 187.289062 C 163.917969 187.472656 163.550781 187.65625 163.457031 188.398438 C 163.179688 190.617188 162.902344 192.929688 162.71875 195.148438 C 162.53125 197.367188 162.53125 197.460938 160.40625 197.550781 C 159.574219 197.550781 158.835938 197.550781 157.726562 197.550781 C 157.816406 196.351562 157.910156 195.238281 158.09375 194.222656 C 158.28125 193.207031 158.464844 192.097656 158.648438 191.078125 C 153.011719 189.691406 149.960938 185.992188 150.605469 181.554688 C 154.027344 180.722656 157.632812 183.960938 159.019531 189.230469 C 159.851562 187.378906 160.960938 185.625 161.421875 183.683594 C 161.699219 182.757812 161.238281 181.183594 160.589844 180.539062 C 159.390625 179.335938 157.816406 178.503906 156.339844 177.578125 C 154.398438 176.375 152.457031 175.175781 150.421875 173.878906 C 150.144531 174.898438 149.960938 175.730469 149.683594 176.746094 C 148.664062 175.820312 147.742188 174.898438 146.816406 174.25 C 145.800781 173.511719 144.691406 173.046875 143.394531 172.492188 C 146.355469 177.023438 147.648438 181.925781 146.816406 187.195312 C 145.335938 186.269531 143.949219 185.4375 142.5625 184.699219 C 142.472656 184.792969 142.285156 184.882812 142.195312 184.976562 C 143.582031 188.398438 143.671875 191.726562 142.65625 195.238281 C 141.730469 198.570312 140.160156 201.621094 138.125 204.488281 C 133.78125 201.15625 131.839844 191.910156 133.78125 184.699219 C 132.394531 185.53125 131.007812 186.363281 129.621094 187.195312 C 128.789062 182.109375 129.898438 177.300781 133.042969 172.679688 C 130.269531 173.511719 128.417969 174.898438 126.570312 176.933594 C 126.292969 175.914062 126.109375 175.082031 125.738281 174.066406 C 124.257812 174.988281 122.871094 175.820312 121.578125 176.652344 C 120.097656 177.578125 118.527344 178.503906 117.046875 179.519531 C 114.367188 181.277344 114.089844 182.480469 115.476562 185.4375 C 116.125 186.734375 116.585938 188.121094 117.140625 189.507812 C 118.433594 184.328125 121.484375 181.371094 125.367188 181.554688 C 126.664062 185.625 122.871094 190.433594 117.601562 191.171875 C 117.878906 193.296875 118.15625 195.425781 118.433594 197.644531 C 117.046875 197.644531 115.660156 197.738281 114.367188 197.550781 C 113.996094 197.550781 113.535156 196.71875 113.535156 196.257812 C 113.257812 194.128906 113.164062 192.003906 112.886719 189.878906 C 112.796875 189.042969 112.519531 188.210938 112.054688 187.75 C 110.207031 187.101562 108.359375 186.546875 106.601562 185.808594 C 105.214844 185.253906 104.476562 181.832031 105.214844 180.351562 C 105.492188 179.890625 105.675781 179.519531 105.769531 178.875 C 104.476562 179.796875 103.273438 180.816406 101.792969 181.554688 C 100.128906 182.386719 98.652344 181.832031 97.632812 180.167969 C 99.574219 179.152344 101.515625 178.226562 103.457031 177.210938 C 103.457031 177.117188 103.367188 176.929688 103.367188 176.839844 C 99.113281 177.949219 95.046875 178.503906 92.550781 173.878906 C 90.976562 170.921875 92.273438 167.222656 95.691406 164.078125 C 93.105469 162.414062 93.105469 162.414062 90.609375 163.523438 C 90.421875 162.230469 90.886719 161.582031 93.011719 160.472656 C 92.917969 160.011719 92.828125 159.457031 92.734375 158.902344 C 92.640625 158.347656 92.640625 157.882812 92.550781 157.328125 C 92.640625 157.234375 92.828125 157.144531 92.917969 157.050781 C 93.84375 157.699219 94.769531 158.347656 95.507812 158.808594 C 96.894531 158.253906 98.097656 157.789062 99.390625 157.328125 C 99.574219 157.511719 99.667969 157.699219 99.851562 157.789062 C 98.375 159.085938 96.710938 160.289062 98.003906 162.507812 C 103.828125 160.933594 107.25 161.582031 109.097656 164.632812 C 110.945312 167.59375 110.207031 170.550781 106.324219 174.988281 C 106.417969 175.082031 106.507812 175.265625 106.601562 175.359375 C 108.449219 174.15625 110.300781 172.957031 112.148438 171.753906 C 113.535156 173.601562 112.886719 174.898438 109.097656 177.300781 C 111.316406 178.410156 112.425781 178.320312 113.996094 176.652344 C 116.308594 174.25 118.621094 171.847656 121.117188 169.257812 C 120.007812 168.980469 119.082031 168.703125 117.601562 168.332031 C 119.082031 166.761719 120.097656 165.1875 121.578125 164.171875 C 123.890625 162.597656 126.386719 161.488281 128.882812 160.101562 C 129.992188 159.457031 131.191406 158.714844 132.210938 157.976562 C 132.855469 157.421875 133.875 156.773438 133.042969 155.757812 C 132.300781 154.832031 131.378906 155.386719 130.636719 156.035156 C 127.773438 158.347656 124.535156 159.734375 120.839844 159.457031 C 118.988281 159.269531 117.140625 158.714844 115.015625 158.160156 C 116.957031 156.773438 118.527344 155.941406 119.820312 154.738281 C 121.117188 153.539062 122.132812 151.964844 123.148438 150.394531 C 116.03125 153.628906 109.28125 153.351562 102.71875 148.730469 C 105.308594 148.265625 107.710938 148.082031 110.023438 147.34375 C 112.332031 146.601562 114.367188 145.214844 116.492188 143.921875 C 108.449219 144.84375 101.886719 142.257812 96.339844 136.800781 C 101.425781 135.691406 106.324219 134.488281 111.316406 133.378906 C 100.5 131.714844 92.828125 126.257812 91.902344 118.953125 C 97.449219 121.175781 103.179688 121.175781 109.003906 120.804688 C 104.476562 118.769531 100.316406 116.179688 97.265625 112.203125 C 94.121094 108.230469 92.550781 103.699219 92.457031 98.613281 C 92.640625 98.613281 92.828125 98.519531 92.828125 98.613281 C 97.355469 103.144531 103.273438 105.363281 109.003906 107.675781 C 110.945312 108.507812 112.980469 109.0625 115.015625 109.800781 C 120.375 111.648438 123.703125 115.257812 124.167969 121.082031 C 124.351562 123.300781 126.199219 124.78125 128.417969 124.78125 C 130.636719 124.78125 132.394531 123.300781 132.578125 121.175781 C 132.855469 118.863281 133.132812 116.644531 133.132812 114.332031 C 133.226562 111.925781 132.210938 111.09375 129.714844 111.28125 C 128.882812 111.371094 128.050781 111.558594 127.03125 111.648438 C 126.386719 109.246094 126.570312 106.933594 128.050781 104.992188 C 128.605469 104.253906 129.804688 103.789062 130.824219 103.789062 C 133.78125 103.605469 136.832031 103.699219 139.789062 103.699219 C 141.453125 103.699219 142.5625 104.621094 142.933594 106.65625 C 143.394531 109.246094 143.488281 112.019531 143.765625 114.609375 C 143.949219 116.644531 143.949219 118.769531 144.320312 120.804688 C 144.875 123.671875 146.539062 124.871094 148.941406 124.6875 C 150.882812 124.503906 152.457031 123.023438 152.640625 121.082031 C 153.101562 115.257812 156.429688 111.742188 161.792969 109.800781 C 165.304688 108.507812 168.726562 107.304688 172.148438 105.824219 C 176.492188 103.976562 180.652344 101.941406 183.886719 98.425781 C 184.8125 101.570312 182.6875 108.042969 179.449219 112.019531 C 176.308594 115.902344 172.148438 118.398438 167.617188 120.34375 C 173.347656 120.804688 179.082031 121.175781 184.90625 118.769531 C 183.886719 123.300781 181.390625 126.445312 177.878906 128.757812 C 174.367188 131.066406 170.390625 131.898438 166.230469 132.363281 C 170.761719 134.488281 175.476562 136.246094 180.929688 136.800781 Z M 105.953125 172.03125 C 105.953125 169.070312 102.347656 164.449219 99.390625 163.707031 C 97.449219 163.246094 96.433594 163.894531 96.0625 165.835938 C 95.414062 169.164062 98.375 174.15625 101.515625 175.175781 C 103.921875 175.914062 105.953125 174.433594 105.953125 172.03125 Z M 180.003906 167.222656 C 180.003906 163.800781 178.25 162.691406 175.753906 163.988281 C 173.070312 165.375 171.222656 167.683594 170.296875 170.644531 C 169.835938 172.125 170.019531 173.511719 171.222656 174.527344 C 172.332031 175.542969 173.996094 175.542969 175.476562 174.621094 C 178.339844 172.769531 179.726562 170.089844 180.003906 167.222656 Z M 136.832031 107.304688 C 136.371094 107.027344 135.722656 106.285156 134.984375 106.195312 C 133.964844 106.101562 133.320312 106.933594 133.410156 107.953125 C 133.503906 108.96875 134.152344 109.523438 135.167969 109.523438 C 136.183594 109.523438 136.738281 108.875 136.832031 107.304688 Z M 136.832031 107.304688 " fill-opacity="1" fill-rule="nonzero"/><path fill="#bed000" d="M 129.621094 96.023438 C 131.46875 96.671875 133.410156 97.316406 135.445312 98.058594 C 136.277344 96.300781 137.015625 94.636719 137.941406 92.507812 C 138.773438 94.542969 139.421875 96.207031 140.253906 98.058594 C 142.195312 97.316406 144.136719 96.671875 145.984375 96.023438 C 146.078125 96.117188 146.167969 96.207031 146.261719 96.300781 C 145.058594 98.148438 143.859375 100.09375 142.5625 101.941406 C 142.378906 102.21875 141.730469 102.3125 141.363281 102.3125 C 139.050781 102.3125 136.832031 102.3125 134.519531 102.3125 C 134.058594 102.3125 133.410156 102.125 133.132812 101.847656 C 131.839844 100.09375 130.636719 98.242188 129.34375 96.394531 C 129.4375 96.300781 129.527344 96.207031 129.621094 96.023438 Z M 129.621094 96.023438 " fill-opacity="1" fill-rule="nonzero"/><path fill="#bed000" d="M 78.683594 148.820312 C 78.40625 149.5625 78.21875 150.949219 77.574219 152.058594 C 76.371094 154.09375 73.96875 154.09375 72.582031 152.152344 C 70.824219 149.746094 70.917969 144.660156 72.765625 142.347656 C 73.78125 141.054688 74.984375 140.960938 76.277344 142.070312 C 78.128906 143.734375 78.496094 145.957031 78.683594 148.820312 Z M 78.683594 148.820312 " fill-opacity="1" fill-rule="nonzero"/><path fill="#bed000" d="M 203.210938 200.140625 C 202.933594 202.824219 201.359375 205.320312 198.496094 206.984375 C 197.292969 207.628906 196.089844 207.722656 194.980469 206.796875 C 193.871094 205.875 193.59375 204.578125 193.964844 203.191406 C 194.796875 200.324219 196.644531 198.199219 199.328125 196.90625 C 201.730469 195.796875 203.210938 196.90625 203.210938 200.140625 Z M 203.210938 200.140625 " fill-opacity="1" fill-rule="nonzero"/><path fill="#bed000" d="M 127.773438 218.910156 C 130.082031 219.1875 132.210938 219.652344 133.875 221.222656 C 135.445312 222.796875 135.167969 224.644531 133.226562 225.753906 C 130.269531 227.417969 124.257812 225.847656 122.59375 222.886719 C 121.855469 221.6875 122.226562 220.484375 123.613281 219.929688 C 124.90625 219.375 126.386719 219.1875 127.773438 218.910156 Z M 127.773438 218.910156 " fill-opacity="1" fill-rule="nonzero"/><path fill="#bed000" d="M 83.027344 204.210938 C 83.027344 206.796875 81.269531 208.09375 78.867188 207.167969 C 75.816406 206.058594 73.136719 201.433594 73.78125 198.570312 C 74.152344 196.90625 74.984375 196.351562 76.648438 196.628906 C 79.605469 197.089844 83.027344 201.15625 83.027344 204.210938 Z M 83.027344 204.210938 " fill-opacity="1" fill-rule="nonzero"/><path fill="#bed000" d="M 198.308594 148.453125 C 198.402344 145.957031 198.863281 144.105469 200.160156 142.535156 C 201.546875 140.777344 203.488281 140.871094 204.597656 142.8125 C 206.074219 145.402344 206.167969 148.175781 205.152344 151.042969 C 204.503906 152.796875 203.210938 153.628906 201.730469 153.539062 C 199.972656 153.445312 199.234375 152.152344 198.679688 150.761719 C 198.496094 149.929688 198.402344 148.914062 198.308594 148.453125 Z M 198.308594 148.453125 " fill-opacity="1" fill-rule="nonzero"/><path fill="#bed000" d="M 156.617188 83.449219 C 154.765625 82.800781 152.734375 82.339844 150.976562 81.414062 C 149.035156 80.394531 149.035156 78.824219 150.882812 77.621094 C 153.84375 75.679688 156.984375 75.3125 160.222656 76.882812 C 161.515625 77.53125 162.441406 78.453125 162.347656 80.117188 C 162.164062 81.785156 160.960938 82.429688 159.574219 82.800781 C 158.648438 83.078125 157.726562 83.078125 156.707031 83.261719 C 156.707031 83.261719 156.617188 83.355469 156.617188 83.449219 Z M 156.617188 83.449219 " fill-opacity="1" fill-rule="nonzero"/><path fill="#bed000" d="M 904.609375 65.507812 L 908.304688 65.507812 L 908.304688 317.945312 L 904.609375 317.945312 Z M 904.609375 65.507812 " fill-opacity="1" fill-rule="nonzero"/><path fill="#bed000" d="M 326.71875 58.757812 L 330.417969 58.757812 L 330.417969 311.195312 L 326.71875 311.195312 Z M 326.71875 58.757812 " fill-opacity="1" fill-rule="nonzero"/><path fill="#bed000" d="M 488.964844 142.070312 L 491.738281 136.984375 C 493.496094 138.929688 495.527344 139.945312 497.746094 139.945312 C 499.042969 139.945312 500.058594 139.574219 500.796875 138.742188 C 501.539062 137.910156 502 136.894531 502 135.597656 C 502 134.765625 501.816406 133.933594 501.351562 133.289062 C 500.890625 132.546875 500.335938 131.902344 499.597656 131.4375 C 498.855469 130.976562 498.117188 130.328125 497.191406 129.867188 C 496.359375 129.3125 495.4375 128.757812 494.605469 128.109375 C 493.773438 127.460938 492.941406 126.816406 492.199219 125.984375 C 491.460938 125.242188 490.90625 124.316406 490.445312 123.207031 C 489.980469 122.097656 489.796875 120.898438 489.796875 119.511719 C 489.796875 116.644531 490.722656 114.238281 492.570312 112.390625 C 494.417969 110.539062 496.914062 109.617188 500.152344 109.617188 C 503.015625 109.617188 505.605469 110.355469 507.824219 111.925781 L 505.699219 117.199219 C 505.050781 116.644531 504.21875 116.179688 503.109375 115.8125 C 502 115.441406 501.074219 115.164062 500.242188 115.164062 C 498.855469 115.164062 497.746094 115.535156 496.914062 116.367188 C 496.175781 117.199219 495.714844 118.214844 495.714844 119.417969 C 495.714844 121.453125 497.191406 123.207031 500.058594 124.871094 C 501.167969 125.519531 502.09375 126.074219 502.832031 126.539062 C 503.570312 127 504.402344 127.738281 505.328125 128.570312 C 506.253906 129.402344 506.898438 130.421875 507.363281 131.621094 C 507.824219 132.734375 508.007812 134.027344 508.007812 135.414062 C 508.007812 138.28125 507.085938 140.683594 505.328125 142.625 C 503.570312 144.566406 501.074219 145.492188 497.839844 145.492188 C 494.417969 145.492188 491.460938 144.382812 488.964844 142.070312 Z M 488.964844 142.070312 " fill-opacity="1" fill-rule="nonzero"/><path fill="#bed000" d="M 529.824219 144.847656 L 512.632812 144.847656 L 512.632812 110.078125 L 529.179688 110.078125 L 529.179688 115.347656 L 518.640625 115.347656 L 518.640625 124.6875 L 527.144531 124.6875 L 527.144531 129.957031 L 518.640625 129.957031 L 518.640625 139.574219 L 529.824219 139.574219 Z M 529.824219 144.847656 " fill-opacity="1" fill-rule="nonzero"/><path fill="#bed000" d="M 547.484375 109.523438 C 550.902344 109.523438 553.769531 110.449219 555.988281 112.390625 L 553.492188 117.566406 C 552.9375 116.921875 552.011719 116.273438 550.902344 115.8125 C 549.792969 115.347656 548.683594 115.164062 547.667969 115.164062 C 544.800781 115.164062 542.492188 116.273438 540.828125 118.585938 C 539.164062 120.898438 538.421875 123.761719 538.421875 127.183594 C 538.421875 130.699219 539.253906 133.65625 540.917969 136.152344 C 542.582031 138.558594 544.894531 139.851562 547.667969 139.851562 C 549.886719 139.851562 552.011719 139.019531 554.140625 137.261719 L 556.636719 142.347656 C 554.140625 144.476562 550.996094 145.492188 547.296875 145.492188 C 542.675781 145.492188 539.070312 143.828125 536.390625 140.40625 C 533.710938 137.078125 532.414062 132.734375 532.414062 127.460938 C 532.414062 122.191406 533.800781 117.84375 536.484375 114.515625 C 539.070312 111.1875 542.769531 109.523438 547.484375 109.523438 Z M 547.484375 109.523438 " fill-opacity="1" fill-rule="nonzero"/><path fill="#bed000" d="M 566.34375 144.847656 L 560.332031 144.847656 L 560.332031 110.078125 L 570.410156 110.078125 C 572.074219 110.078125 573.554688 110.449219 574.941406 111.1875 C 576.511719 111.925781 577.804688 113.128906 578.730469 114.792969 C 579.65625 116.457031 580.117188 118.308594 580.117188 120.433594 C 580.117188 122.5625 579.65625 124.410156 578.730469 126.167969 C 577.804688 127.925781 576.605469 129.125 575.03125 130.050781 L 575.03125 130.144531 C 575.402344 130.699219 575.773438 131.253906 576.050781 131.992188 L 581.875 144.9375 L 575.308594 144.9375 L 570.039062 131.992188 L 566.25 131.992188 L 566.25 144.847656 Z M 566.34375 115.441406 L 566.34375 126.628906 L 569.484375 126.628906 C 570.78125 126.628906 571.890625 126.074219 572.8125 125.058594 C 573.738281 124.039062 574.199219 122.652344 574.199219 120.898438 C 574.199219 118.769531 573.554688 117.199219 572.351562 116.273438 C 571.519531 115.71875 570.59375 115.441406 569.671875 115.441406 Z M 566.34375 115.441406 " fill-opacity="1" fill-rule="nonzero"/><path fill="#bed000" d="M 602.765625 144.847656 L 585.664062 144.847656 L 585.664062 110.078125 L 602.210938 110.078125 L 602.210938 115.347656 L 591.671875 115.347656 L 591.671875 124.6875 L 600.179688 124.6875 L 600.179688 129.957031 L 591.671875 129.957031 L 591.671875 139.574219 L 602.859375 139.574219 L 602.859375 144.847656 Z M 602.765625 144.847656 " fill-opacity="1" fill-rule="nonzero"/><path fill="#bed000" d="M 619.039062 144.847656 L 613.121094 144.847656 L 613.121094 115.347656 L 604.707031 115.347656 L 604.707031 110.078125 L 627.449219 110.078125 L 627.449219 115.347656 L 619.039062 115.347656 Z M 619.039062 144.847656 " fill-opacity="1" fill-rule="nonzero"/><path fill="#bed000" d="M 631.703125 144.847656 L 625.695312 144.847656 L 634.847656 110.078125 L 641.316406 110.078125 L 650.46875 144.847656 L 644.460938 144.847656 L 642.335938 135.875 L 633.828125 135.875 Z M 637.066406 121.542969 L 634.847656 130.882812 L 641.503906 130.882812 L 639.285156 121.542969 L 638.265625 116.179688 L 638.082031 116.179688 C 637.710938 118.214844 637.34375 120.066406 637.066406 121.542969 Z M 637.066406 121.542969 " fill-opacity="1" fill-rule="nonzero"/><path fill="#bed000" d="M 659.808594 144.847656 L 653.796875 144.847656 L 653.796875 110.078125 L 663.875 110.078125 C 665.539062 110.078125 667.019531 110.449219 668.40625 111.1875 C 669.976562 111.925781 671.269531 113.128906 672.195312 114.792969 C 673.121094 116.457031 673.582031 118.308594 673.582031 120.433594 C 673.582031 122.5625 673.121094 124.410156 672.195312 126.167969 C 671.269531 127.925781 670.070312 129.125 668.496094 130.050781 L 668.496094 130.144531 C 668.867188 130.699219 669.238281 131.253906 669.515625 131.992188 L 675.339844 144.9375 L 668.867188 144.9375 L 663.597656 131.992188 L 659.808594 131.992188 Z M 659.808594 115.441406 L 659.808594 126.628906 L 662.949219 126.628906 C 664.246094 126.628906 665.355469 126.074219 666.277344 125.058594 C 667.203125 124.039062 667.664062 122.652344 667.664062 120.898438 C 667.664062 118.769531 667.019531 117.199219 665.816406 116.273438 C 664.984375 115.71875 664.058594 115.441406 663.136719 115.441406 Z M 659.808594 115.441406 " fill-opacity="1" fill-rule="nonzero"/><path fill="#bed000" d="M 685.136719 144.847656 L 679.128906 144.847656 L 679.128906 110.078125 L 685.136719 110.078125 Z M 684.304688 107.765625 L 679.683594 107.765625 L 682.640625 101.015625 L 688.558594 101.015625 Z M 684.304688 107.765625 " fill-opacity="1" fill-rule="nonzero"/><path fill="#bed000" d="M 694.476562 144.847656 L 688.464844 144.847656 L 697.617188 110.078125 L 704.089844 110.078125 L 713.242188 144.847656 L 707.234375 144.847656 L 705.105469 135.875 L 696.601562 135.875 Z M 699.835938 121.542969 L 697.617188 130.882812 L 704.273438 130.882812 L 702.054688 121.542969 L 701.039062 116.179688 L 700.855469 116.179688 C 700.484375 118.214844 700.113281 120.066406 699.835938 121.542969 Z M 699.835938 121.542969 " fill-opacity="1" fill-rule="nonzero"/><path fill="#bed000" d="M 734.78125 144.847656 L 725.167969 144.847656 L 725.167969 110.078125 L 734.78125 110.078125 C 739.128906 110.078125 742.546875 111.648438 745.042969 114.703125 C 747.539062 117.753906 748.835938 122.007812 748.835938 127.460938 C 748.835938 132.917969 747.539062 137.171875 745.042969 140.316406 C 742.546875 143.367188 739.128906 144.847656 734.78125 144.847656 Z M 731.085938 115.441406 L 731.085938 139.574219 L 734.503906 139.574219 C 737.09375 139.574219 739.035156 138.558594 740.515625 136.429688 C 741.902344 134.304688 742.640625 131.34375 742.640625 127.460938 C 742.640625 123.671875 741.902344 120.710938 740.515625 118.585938 C 739.128906 116.457031 737.09375 115.441406 734.597656 115.441406 Z M 731.085938 115.441406 " fill-opacity="1" fill-rule="nonzero"/><path fill="#bed000" d="M 770.835938 144.847656 L 753.734375 144.847656 L 753.734375 110.078125 L 770.28125 110.078125 L 770.28125 115.347656 L 759.742188 115.347656 L 759.742188 124.6875 L 768.25 124.6875 L 768.25 129.957031 L 759.742188 129.957031 L 759.742188 139.574219 L 770.929688 139.574219 L 770.929688 144.847656 Z M 770.835938 144.847656 " fill-opacity="1" fill-rule="nonzero"/><path fill="#bed000" d="M 429.519531 242.859375 L 418.335938 242.859375 L 422.863281 173.234375 L 435.898438 173.234375 L 445.328125 207.074219 L 447.457031 217.617188 L 447.734375 217.617188 C 448.65625 212.808594 449.398438 209.296875 449.859375 207.074219 L 459.289062 173.234375 L 472.417969 173.234375 L 476.855469 242.859375 L 465.761719 242.859375 L 463.449219 204.117188 C 463.355469 200.695312 463.355469 197.644531 463.449219 195.054688 L 463.542969 193.296875 L 463.265625 193.296875 C 462.339844 198.015625 461.601562 201.710938 460.953125 204.488281 L 453.464844 230.839844 L 441.816406 230.839844 L 434.328125 204.488281 L 432.109375 193.296875 L 431.738281 193.296875 L 431.738281 195.054688 C 431.738281 195.238281 431.738281 195.519531 431.832031 195.980469 C 431.832031 196.351562 431.925781 196.90625 431.925781 197.550781 C 431.925781 198.199219 432.015625 198.753906 432.015625 199.308594 C 432.109375 200.878906 432.015625 202.453125 431.925781 204.117188 Z M 429.519531 242.859375 " fill-opacity="1" fill-rule="nonzero"/><path fill="#bed000" d="M 484.527344 207.628906 C 484.527344 197.183594 487.117188 188.675781 492.199219 182.015625 C 497.285156 175.453125 504.125 172.125 512.539062 172.125 C 521.042969 172.125 527.792969 175.453125 532.875 182.015625 C 537.960938 188.582031 540.550781 197.183594 540.550781 207.722656 C 540.550781 218.542969 537.960938 227.234375 532.875 233.984375 C 527.792969 240.734375 520.949219 244.0625 512.539062 244.0625 C 503.941406 244.0625 497.191406 240.734375 492.015625 233.984375 C 487.023438 227.234375 484.527344 218.355469 484.527344 207.628906 Z M 496.824219 207.628906 C 496.824219 215.304688 498.210938 221.316406 501.074219 225.847656 C 503.847656 230.378906 507.730469 232.597656 512.632812 232.597656 C 517.4375 232.597656 521.320312 230.378906 524.09375 225.847656 C 526.867188 221.410156 528.347656 215.304688 528.347656 207.628906 C 528.347656 200.140625 526.960938 194.316406 524.1875 189.96875 C 521.414062 185.625 517.53125 183.496094 512.632812 183.496094 C 507.730469 183.496094 503.847656 185.625 501.074219 189.96875 C 498.210938 194.40625 496.824219 200.234375 496.824219 207.628906 Z M 496.824219 207.628906 " fill-opacity="1" fill-rule="nonzero"/><path fill="#bed000" d="M 574.292969 242.859375 L 562.089844 242.859375 L 542.859375 173.234375 L 555.710938 173.234375 L 566.433594 218.542969 L 568.097656 228.621094 L 568.46875 228.621094 C 569.023438 224.460938 569.578125 221.132812 570.226562 218.542969 L 580.949219 173.234375 L 593.613281 173.234375 Z M 574.292969 242.859375 " fill-opacity="1" fill-rule="nonzero"/><path fill="#bed000" d="M 600.085938 173.234375 L 612.011719 173.234375 L 612.011719 242.859375 L 600.085938 242.859375 Z M 600.085938 173.234375 " fill-opacity="1" fill-rule="nonzero"/><path fill="#bed000" d="M 658.976562 242.859375 L 624.585938 242.859375 L 624.585938 173.234375 L 636.511719 173.234375 L 636.511719 232.226562 L 658.976562 232.226562 Z M 658.976562 242.859375 " fill-opacity="1" fill-rule="nonzero"/><path fill="#bed000" d="M 666.371094 173.234375 L 678.296875 173.234375 L 678.296875 242.859375 L 666.371094 242.859375 Z M 666.371094 173.234375 " fill-opacity="1" fill-rule="nonzero"/><path fill="#bed000" d="M 710.097656 242.859375 L 690.777344 242.859375 L 690.777344 173.234375 L 710.097656 173.234375 C 718.789062 173.234375 725.628906 176.285156 730.621094 182.480469 C 735.613281 188.582031 738.203125 197.089844 738.203125 208 C 738.203125 218.910156 735.707031 227.511719 730.621094 233.707031 C 725.628906 239.808594 718.789062 242.859375 710.097656 242.859375 Z M 702.796875 183.960938 L 702.796875 232.132812 L 709.636719 232.132812 C 714.8125 232.132812 718.789062 230.007812 721.5625 225.847656 C 724.335938 221.6875 725.816406 215.675781 725.816406 207.90625 C 725.816406 200.234375 724.429688 194.316406 721.5625 190.15625 C 718.695312 185.992188 714.722656 183.867188 709.636719 183.867188 L 702.796875 183.867188 Z M 702.796875 183.960938 " fill-opacity="1" fill-rule="nonzero"/><path fill="#bed000" d="M 752.71875 242.859375 L 740.792969 242.859375 L 759.003906 173.234375 L 771.945312 173.234375 L 790.25 242.859375 L 778.324219 242.859375 L 773.980469 224.921875 L 756.96875 224.921875 Z M 763.441406 196.257812 L 758.910156 214.9375 L 772.128906 214.9375 L 767.695312 196.257812 L 765.660156 185.4375 L 765.382812 185.4375 C 764.734375 189.601562 764.089844 193.207031 763.441406 196.257812 Z M 763.441406 196.257812 " fill-opacity="1" fill-rule="nonzero"/><path fill="#bed000" d="M 816.320312 242.859375 L 797 242.859375 L 797 173.234375 L 816.320312 173.234375 C 825.011719 173.234375 831.851562 176.285156 836.84375 182.480469 C 841.835938 188.582031 844.425781 197.089844 844.425781 208 C 844.425781 218.910156 841.929688 227.511719 836.84375 233.707031 C 831.851562 239.808594 825.011719 242.859375 816.320312 242.859375 Z M 809.015625 183.960938 L 809.015625 232.132812 L 815.859375 232.132812 C 821.035156 232.132812 825.011719 230.007812 827.785156 225.847656 C 830.558594 221.6875 832.035156 215.675781 832.035156 207.90625 C 832.035156 200.234375 830.648438 194.316406 827.785156 190.15625 C 824.917969 185.992188 820.941406 183.867188 815.859375 183.867188 L 809.015625 183.867188 Z M 809.015625 183.960938 " fill-opacity="1" fill-rule="nonzero"/></svg>